<svg xmlns="http://www.w3.org/2000/svg" width="124.641" height="146.192" viewBox="0 0 124.641 146.192">
  <g id="Group_1225" data-name="Group 1225" transform="translate(2565.225 14933.883)">
    <path id="Path_1874" data-name="Path 1874" d="M.636,0V-.528A.993.993,0,0,0,1.206-.7a.682.682,0,0,0,.222-.432,4.588,4.588,0,0,0,.048-.732V-6.852q0-.264.012-.51t.024-.426l-.444.024L.636-7.74V-8.4H3.588v.528a.919.919,0,0,0-.564.162.689.689,0,0,0-.228.432,4.566,4.566,0,0,0-.048.738v4.968q0,.324-.006.57a3.26,3.26,0,0,1-.03.4L4.74-.624A1.434,1.434,0,0,0,5.88-1.11a2.332,2.332,0,0,0,.4-1.506h.54L6.744,0ZM11.388-7.872a.886.886,0,0,0-.528.132.629.629,0,0,0-.24.354,1.909,1.909,0,0,0-.06.5V-3.78a6.73,6.73,0,0,0,.114,1.29,3.07,3.07,0,0,0,.372,1.008,1.8,1.8,0,0,0,.708.666,2.4,2.4,0,0,0,1.1.252,2.256,2.256,0,0,0,1.32-.36,2.16,2.16,0,0,0,.774-1.032,4.62,4.62,0,0,0,.27-1.6l.024-3.3q0-.264.012-.51t.024-.426l-.444.024L14.4-7.74V-8.4h2.424v.528a.941.941,0,0,0-.576.162.689.689,0,0,0-.228.432,4.566,4.566,0,0,0-.048.738L15.96-3.684a5.9,5.9,0,0,1-.2,1.578,3.5,3.5,0,0,1-.6,1.23,2.629,2.629,0,0,1-1.02.792,3.552,3.552,0,0,1-1.458.276,4.413,4.413,0,0,1-1.632-.264A2.38,2.38,0,0,1,10-.858a3.305,3.305,0,0,1-.558-1.284A8.222,8.222,0,0,1,9.276-3.9V-6.492q0-.324.018-.708t.03-.588q-.2.012-.444.018t-.432.018V-8.4h2.94Zm11.76,4.836A1.4,1.4,0,0,0,23-3.78a.649.649,0,0,0-.45-.282,3.292,3.292,0,0,0-.744-.03l-.7.024v2.5q0,.324-.006.57a3.26,3.26,0,0,1-.03.4l2.064-.024a2.23,2.23,0,0,0,.84-.174,1.219,1.219,0,0,0,.588-.558,2.268,2.268,0,0,0,.216-1.08h.528L25.236,0H19V-.528a.993.993,0,0,0,.57-.168.682.682,0,0,0,.222-.432,4.588,4.588,0,0,0,.048-.732V-6.852q0-.264.012-.51t.024-.426l-.444.024L19-7.74V-8.4h5.856l.06,2.172h-.528a2.006,2.006,0,0,0-.222-1.044,1.078,1.078,0,0,0-.576-.48,2.158,2.158,0,0,0-.762-.108l-.84.024a1.033,1.033,0,0,0-.564.126.614.614,0,0,0-.252.408,3.825,3.825,0,0,0-.06.762v1.884h1.98l-.072-1.032h.66v2.652ZM34.176.168,29.712-5.76q-.132-.156-.252-.324t-.252-.348H29.2l.036,4.668q0,.3-.006.6t-.03.552q.2-.024.45-.03t.426-.018V0H27.7V-.528a.834.834,0,0,0,.51-.132.671.671,0,0,0,.24-.348,1.73,1.73,0,0,0,.066-.5V-7.368q0-.24.012-.42l-.426.024q-.234.012-.414.024V-8.4h1.584l4.224,5.556q.2.264.366.492t.318.432h.012L34.2-6.852q0-.264.012-.51t.024-.426l-.456.024q-.24.012-.42.024V-8.4h2.376v.528a.891.891,0,0,0-.558.162.678.678,0,0,0-.216.432,5.209,5.209,0,0,0-.042.738L34.908.168ZM44.316,0V-.528A.962.962,0,0,0,44.88-.7a.7.7,0,0,0,.216-.438,4.611,4.611,0,0,0,.048-.726l.012-1.26L43.02-6.48a8.064,8.064,0,0,1-.4-.744,1.836,1.836,0,0,1-.174-.54q-.192.012-.36.012t-.336.012V-8.4h3.24v.528a1.264,1.264,0,0,0-.7.132.416.416,0,0,0-.2.414,1.541,1.541,0,0,0,.24.63l.948,1.512q.1.144.216.336t.246.39q.126.2.234.4H46q.108-.228.246-.486t.282-.57L47.412-6.8q.06-.12.156-.3t.21-.366a1.653,1.653,0,0,1,.234-.306q-.216.012-.474.018t-.462.018V-8.4h2.508v.528a1.413,1.413,0,0,0-.882.39,4.489,4.489,0,0,0-.75,1.074q-.4.756-.78,1.482T46.428-3.5q0,.192-.006.492t-.006.6v.8q0,.324-.006.582a3.356,3.356,0,0,1-.03.414q.24-.024.51-.03t.474-.018V0Zm9.7-7.872a.886.886,0,0,0-.528.132.629.629,0,0,0-.24.354,1.909,1.909,0,0,0-.06.5V-3.78A6.729,6.729,0,0,0,53.3-2.49a3.07,3.07,0,0,0,.372,1.008,1.8,1.8,0,0,0,.708.666,2.4,2.4,0,0,0,1.1.252,2.256,2.256,0,0,0,1.32-.36,2.16,2.16,0,0,0,.774-1.032,4.62,4.62,0,0,0,.27-1.6l.024-3.3q0-.264.012-.51t.024-.426l-.444.024-.432.024V-8.4h2.424v.528a.942.942,0,0,0-.576.162.689.689,0,0,0-.228.432,4.567,4.567,0,0,0-.048.738l-.012,2.856a5.9,5.9,0,0,1-.2,1.578,3.5,3.5,0,0,1-.6,1.23,2.629,2.629,0,0,1-1.02.792,3.552,3.552,0,0,1-1.458.276,4.413,4.413,0,0,1-1.632-.264,2.38,2.38,0,0,1-1.05-.786,3.305,3.305,0,0,1-.558-1.284A8.222,8.222,0,0,1,51.9-3.9V-6.492q0-.324.018-.708t.03-.588q-.2.012-.444.018t-.432.018V-8.4h2.94Zm11.76,4.836a1.4,1.4,0,0,0-.15-.744.649.649,0,0,0-.45-.282,3.292,3.292,0,0,0-.744-.03l-.7.024v2.5q0,.324-.006.57a3.259,3.259,0,0,1-.03.4L65.76-.624A2.229,2.229,0,0,0,66.6-.8a1.219,1.219,0,0,0,.588-.558,2.268,2.268,0,0,0,.216-1.08h.528L67.86,0H61.62V-.528A.993.993,0,0,0,62.19-.7a.682.682,0,0,0,.222-.432,4.587,4.587,0,0,0,.048-.732V-6.852q0-.264.012-.51t.024-.426l-.444.024-.432.024V-8.4h5.856l.06,2.172h-.528a2.006,2.006,0,0,0-.222-1.044,1.078,1.078,0,0,0-.576-.48,2.158,2.158,0,0,0-.762-.108l-.84.024a1.033,1.033,0,0,0-.564.126.614.614,0,0,0-.252.408,3.825,3.825,0,0,0-.06.762v1.884h1.98L65.64-5.688h.66v2.652ZM80.916-5.808a4.081,4.081,0,0,0-.156-1.14,1.257,1.257,0,0,0-.474-.684,1.516,1.516,0,0,0-.906-.216h-.864L78.5-1.608q0,.324-.006.582a3.358,3.358,0,0,1-.03.414q.228-.024.5-.03t.486-.018V0H76.4V-.528A.962.962,0,0,0,76.968-.7a.7.7,0,0,0,.216-.438,4.611,4.611,0,0,0,.048-.726V-7.836l-1.008.012a1.2,1.2,0,0,0-1.068.492,2.74,2.74,0,0,0-.336,1.524h-.564L74.328-8.4h7.08l.072,2.592Zm6.768,6a4.521,4.521,0,0,1-1.95-.384A3.6,3.6,0,0,1,84.42-1.218a4.36,4.36,0,0,1-.744-1.422,5.28,5.28,0,0,1-.24-1.56,4.817,4.817,0,0,1,.258-1.53,4.54,4.54,0,0,1,.78-1.422A3.917,3.917,0,0,1,85.782-8.2a4.045,4.045,0,0,1,1.842-.4,4.237,4.237,0,0,1,1.9.4,3.792,3.792,0,0,1,1.314,1.05,4.7,4.7,0,0,1,.774,1.422A4.763,4.763,0,0,1,91.872-4.2a4.783,4.783,0,0,1-.258,1.518,4.613,4.613,0,0,1-.78,1.428,3.9,3.9,0,0,1-1.3,1.05A4.036,4.036,0,0,1,87.684.192Zm.06-.624A2.265,2.265,0,0,0,88.95-.744a2.574,2.574,0,0,0,.84-.834,3.889,3.889,0,0,0,.486-1.152,5.2,5.2,0,0,0,.156-1.254,6.039,6.039,0,0,0-.18-1.482,4.3,4.3,0,0,0-.546-1.284,2.82,2.82,0,0,0-.906-.9,2.345,2.345,0,0,0-1.248-.33,2.231,2.231,0,0,0-1.212.324,2.611,2.611,0,0,0-.84.846,4.11,4.11,0,0,0-.486,1.152,5.065,5.065,0,0,0-.162,1.266,5.632,5.632,0,0,0,.168,1.32,4.824,4.824,0,0,0,.516,1.3A2.943,2.943,0,0,0,86.43-.8,2.277,2.277,0,0,0,87.744-.432Zm12.84.6L96.12-5.76q-.132-.156-.252-.324t-.252-.348H95.6l.036,4.668q0,.3-.006.6t-.03.552q.2-.024.45-.03T96.48-.66V0H94.1V-.528a.834.834,0,0,0,.51-.132.671.671,0,0,0,.24-.348,1.73,1.73,0,0,0,.066-.5V-7.368q0-.24.012-.42l-.426.024q-.234.012-.414.024V-8.4h1.584L99.9-2.844q.2.264.366.492t.318.432h.012l.012-4.932q0-.264.012-.51t.024-.426l-.456.024q-.24.012-.42.024V-8.4h2.376v.528a.891.891,0,0,0-.558.162.678.678,0,0,0-.216.432,5.209,5.209,0,0,0-.042.738L101.316.168Zm7.764.024A4.254,4.254,0,0,1,106.2-.336a3.616,3.616,0,0,1-1.428-1.482,4.7,4.7,0,0,1-.5-2.226,5.348,5.348,0,0,1,.258-1.644,4.613,4.613,0,0,1,.78-1.464,3.789,3.789,0,0,1,1.308-1.05,4.068,4.068,0,0,1,1.83-.39,5.039,5.039,0,0,1,.828.072,5.145,5.145,0,0,1,.846.216,3.925,3.925,0,0,1,.75.348l-.048-.552h.744v2.76h-.552a2.475,2.475,0,0,0-.4-1.218,2.218,2.218,0,0,0-.876-.756,2.681,2.681,0,0,0-1.182-.258,2.4,2.4,0,0,0-1.158.282,2.848,2.848,0,0,0-.906.78,3.706,3.706,0,0,0-.594,1.17,4.8,4.8,0,0,0-.21,1.44,4.96,4.96,0,0,0,.366,1.962A3.169,3.169,0,0,0,107.088-1,2.589,2.589,0,0,0,108.66-.5a4.061,4.061,0,0,0,.63-.054,4.264,4.264,0,0,0,.684-.168,2.672,2.672,0,0,0,.618-.294V-2.364q0-.3.006-.594T110.6-3.5l-.432.024q-.24.012-.42.024v-.66h2.868v.528a.745.745,0,0,0-.462.132.755.755,0,0,0-.252.33,1.614,1.614,0,0,0-.1.42,3.867,3.867,0,0,0-.024.414V-.42h-.312a2.646,2.646,0,0,0-.588.078,6.283,6.283,0,0,0-.756.234,5.281,5.281,0,0,1-.852.216A5.361,5.361,0,0,1,108.348.192Z" transform="translate(-2558.225 -14787.883)" fill="#fff"/>
    <g id="Group_1222" data-name="Group 1222" transform="translate(-2565.225 -14933.883)">
      <path id="Path_1680" data-name="Path 1680" d="M-439.841,508.627l-1.909-5.459a4.222,4.222,0,0,1-.221-1.794l.426-4.572a51.276,51.276,0,0,0-.664-9.293l-.467-2.847-.383-3.537h-17.188a3.416,3.416,0,0,1-3.412-3.411,1.742,1.742,0,0,1,.451-1.31,3.174,3.174,0,0,1,2.343-.475c.2,0,.406.009.618.009H-443v.75h-17.244c-.217,0-.43,0-.634-.009-.807-.018-1.5-.033-1.8.261a1.055,1.055,0,0,0-.226.774,2.664,2.664,0,0,0,2.662,2.661h17.861l.453,4.187.464,2.826a51.959,51.959,0,0,1,.674,9.389l0,.095-.426,4.571a3.465,3.465,0,0,0,.182,1.477l1.909,5.459Z" transform="translate(463.659 -412.174)" fill="#fff"/>
      <path id="Path_1681" data-name="Path 1681" d="M-436.355,501.765a3.093,3.093,0,0,1-2.211-.935c-1.327-1.35.283-2.958,1.348-4.023l7.153-7.958.557.5-7.166,7.972c-1.189,1.19-2.1,2.224-1.357,2.982a2.352,2.352,0,0,0,3.293.075l5.355-5.888,3.625-4.112a2.222,2.222,0,0,0,.149-2.95l-8.372-10.619.588-.465,8.37,10.616a2.966,2.966,0,0,1-.185,3.928l-3.616,4.1-5.381,5.914A3.149,3.149,0,0,1-436.355,501.765Z" transform="translate(463.659 -412.174)" fill="#fff"/>
      <path id="Path_1682" data-name="Path 1682" d="M-448.153,533.8a2.683,2.683,0,0,1-1.414-.406l-4.557-2.818c-.617-.38-1.255-.771-1.059-1.731a2.973,2.973,0,0,1,2.584-1.858,6.351,6.351,0,0,1,3.362.884l10.582-19.008,2.416-4.838.671.336-2.424,4.853-10.944,19.657-.635-.328a5.526,5.526,0,0,0-3.012-.806c-.607.014-1.736.627-1.865,1.258-.083.4.062.539.717.941l4.559,2.82a1.93,1.93,0,0,0,1.529.226,1.932,1.932,0,0,0,1.214-.957l13.4-23.927a10.452,10.452,0,0,1,1.258-1.677,7.468,7.468,0,0,0,2.265-5.6l-.426-3.2.743-.1.429,3.247a8.211,8.211,0,0,1-2.442,6.139,9.979,9.979,0,0,0-1.173,1.556l-13.4,23.923a2.674,2.674,0,0,1-1.678,1.319A2.778,2.778,0,0,1-448.153,533.8Z" transform="translate(463.659 -412.174)" fill="#fff"/>
      <path id="Path_1683" data-name="Path 1683" d="M-430.232,533.8a1.177,1.177,0,0,1-.919-.448,3.526,3.526,0,0,1,.372-3.94l1.683-1.587-6.574-11.353.649-.375,6.872,11.867-2.093,1.971a2.8,2.8,0,0,0-.326,2.944c.073.091.268.333.821.015l4.837-3.227a1.484,1.484,0,0,0,.6-1.957l-8.715-14.948.648-.377,8.726,14.968a2.229,2.229,0,0,1-.864,2.951l-4.838,3.226A1.757,1.757,0,0,1-430.232,533.8Z" transform="translate(463.659 -412.174)" fill="#fff"/>
      <path id="Path_1684" data-name="Path 1684" d="M-369.009,475.838h-7.383a1.256,1.256,0,0,1-1.255-1.255V449.152l-10.394-17.031-5.766,5a2.818,2.818,0,0,1-3.488.109,2.829,2.829,0,0,1-1.066-2.483l.907-14.086a4.074,4.074,0,0,1,.844-2.78,1.494,1.494,0,0,1,1.114-.347,3.339,3.339,0,0,1,2.338,1.152,5.592,5.592,0,0,1,.957,4.26l-.537,6.933,6.159-5.6.505.555-7.557,6.869.682-8.823a4.908,4.908,0,0,0-.78-3.71,2.6,2.6,0,0,0-1.817-.89.749.749,0,0,0-.571.163c-.469.41-.544,1.572-.589,2.265l-.907,14.086a2.115,2.115,0,0,0,.768,1.834,2.056,2.056,0,0,0,2.546-.075l6.437-5.579,10.965,17.966v25.642a.506.506,0,0,0,.505.505h7.383a.946.946,0,0,0,.713-.32.974.974,0,0,0,.24-.758c-.269-2.324-3.709-2.443-4.4-2.443h-.375V448.225l5.952-4.612,0,0,.358-.289,8.428-7.568,16.793-8.389,1.514-6.079a.46.46,0,0,0-.055-.386,1.587,1.587,0,0,0-1.555-.495c-1.268.425-2.354,1.839-2.981,3.88l-.048.156-16.088,7.769-9.441,7.224-.218-.355c-.389-.632-.87-1.3-1.379-2-1.607-2.22-3.428-4.736-3.464-7.7l0-.26,8.009-3.124a1.926,1.926,0,0,0,.479-.249l6.47-4.394c2.012-1.964,2.32-3.741,1.709-4.613a.8.8,0,0,0-.53-.324,1.078,1.078,0,0,0-.793.183l-8.633,6.085-8.111,2.947-.256-.7,8.064-2.93,8.5-6.011a1.806,1.806,0,0,1,1.354-.307,1.547,1.547,0,0,1,1.015.633c.735,1.048.691,3.15-1.851,5.621l-6.514,4.43a2.629,2.629,0,0,1-.644.336l-7.511,2.93c.135,2.622,1.821,4.951,3.314,7.014.425.589.832,1.151,1.188,1.7l8.916-6.8,15.8-7.627c.707-2.191,1.944-3.722,3.41-4.213a2.319,2.319,0,0,1,2.382.743,1.2,1.2,0,0,1,.194,1.031l-1.6,6.413-.155.078-16.9,8.443-8.316,7.505-6.048,4.686v22.231c2.206.085,4.515.933,4.766,3.1a1.727,1.727,0,0,1-.425,1.343A1.709,1.709,0,0,1-369.009,475.838Z" transform="translate(463.659 -412.174)" fill="#fff"/>
      <path id="Path_1685" data-name="Path 1685" d="M-348.212,429.253" transform="translate(463.659 -412.174)" fill="#fff"/>
      <path id="Path_1686" data-name="Path 1686" d="M-352.159,485.248l-.743-.1a50.639,50.639,0,0,0,.436-6.628,49.643,49.643,0,0,0-3.71-18.921l.7-.286a50.428,50.428,0,0,1,3.765,19.207A51.283,51.283,0,0,1-352.159,485.248Z" transform="translate(463.659 -412.174)" fill="#fff"/>
      <path id="Path_1687" data-name="Path 1687" d="M-447.193,456.417l-.672-.332a50.588,50.588,0,0,1,38.745-27.809l.1.745A49.836,49.836,0,0,0-447.193,456.417Z" transform="translate(463.659 -412.174)" fill="#fff"/>
      <path id="Path_1688" data-name="Path 1688" d="M-367.637,515.407l-.515-.545A50.008,50.008,0,0,0-352.9,485.15a50.639,50.639,0,0,0,.436-6.628,49.642,49.642,0,0,0-3.71-18.921l.7-.286a50.428,50.428,0,0,1,3.765,19.207,51.272,51.272,0,0,1-.443,6.726A50.759,50.759,0,0,1-367.637,515.407Z" transform="translate(463.659 -412.174)" fill="#fff"/>
      <path id="Path_1689" data-name="Path 1689" d="M-447.193,456.417l-.672-.332a50.588,50.588,0,0,1,38.745-27.809l.1.745A49.836,49.836,0,0,0-447.193,456.417Z" transform="translate(463.659 -412.174)" fill="#fff"/>
      <path id="Path_1690" data-name="Path 1690" d="M-347.836,478.768h-.75a53.676,53.676,0,0,0-8.143-28.476l.636-.4A54.412,54.412,0,0,1-347.836,478.768Z" transform="translate(463.659 -412.174)" fill="#fff"/>
      <path id="Path_1691" data-name="Path 1691" d="M-452.7,459.591l-.7-.268a55.068,55.068,0,0,1,21.486-26.459l.406.631A54.3,54.3,0,0,0-452.7,459.591Z" transform="translate(463.659 -412.174)" fill="#fff"/>
      <path id="Path_1692" data-name="Path 1692" d="M-428.09,440.961l-.422-.619a46.2,46.2,0,0,1,26.109-8.028v.75A45.463,45.463,0,0,0-428.09,440.961Z" transform="translate(463.659 -412.174)" fill="#fff"/>
      <path id="Path_1693" data-name="Path 1693" d="M-438.106,477.314a4.5,4.5,0,0,1-3.127-1.692c-2.474-2.56-1.714-5.343-1.1-7.578.086-.315.17-.623.244-.924.7-2.835,2.3-3.84,3.517-4.182a5.975,5.975,0,0,1,5.59,1.321,4.458,4.458,0,0,1,1.411,4.518c-.071.308-.134.629-.2.959-.462,2.323-1.037,5.213-4.6,7.108A3.659,3.659,0,0,1-438.106,477.314Zm1.115-13.843a5.077,5.077,0,0,0-1.381.189c-1.495.42-2.5,1.645-2.991,3.64-.075.306-.161.621-.249.941-.619,2.265-1.259,4.607.918,6.86h0c.986,1.021,2.189,2.028,3.971,1.081,3.245-1.728,3.76-4.312,4.214-6.592.067-.337.132-.665.2-.981a3.7,3.7,0,0,0-1.184-3.8A5.231,5.231,0,0,0-436.991,463.471Z" transform="translate(463.659 -412.174)" fill="#fff"/>
      <path id="Path_1694" data-name="Path 1694" d="M-381.286,426.086a3.747,3.747,0,0,1-2.074-.627h0c-3.313-2.2-3.169-4.939-3.054-7.142.025-.471.049-.924.037-1.351a4.313,4.313,0,0,1,2.52-4.179,5.7,5.7,0,0,1,5.493.192,4.281,4.281,0,0,1,2.172,3.987c-.012.427.012.88.037,1.351.115,2.2.26,4.943-3.054,7.142A3.751,3.751,0,0,1-381.286,426.086Zm-1.66-1.252a3,3,0,0,0,3.321,0c2.957-1.963,2.831-4.361,2.72-6.478-.026-.492-.05-.965-.038-1.412a3.525,3.525,0,0,0-1.808-3.322,4.954,4.954,0,0,0-4.766-.167,3.561,3.561,0,0,0-2.111,3.489c.012.447-.012.92-.038,1.412-.111,2.117-.237,4.515,2.72,6.478Z" transform="translate(463.659 -412.174)" fill="#fff"/>
      <path id="Path_1695" data-name="Path 1695" d="M-384.354,521.491l-.292-.691a45.67,45.67,0,0,0,23.362-22.255l.676.326A46.422,46.422,0,0,1-384.354,521.491Z" transform="translate(463.659 -412.174)" fill="#fff"/>
      <path id="Path_1696" data-name="Path 1696" d="M-455.717,471.386l-.743-.1a54.238,54.238,0,0,1,13.243-28.733l.56.5A53.5,53.5,0,0,0-455.717,471.386Z" transform="translate(463.659 -412.174)" fill="#fff"/>
      <path id="Path_1697" data-name="Path 1697" d="M-444.494,507.017a50.109,50.109,0,0,1-7.87-19.657l.739-.127a49.378,49.378,0,0,0,7.753,19.366Z" transform="translate(463.659 -412.174)" fill="#fff"/>
      <path id="Path_1698" data-name="Path 1698" d="M-417.8,522.519a46.344,46.344,0,0,1-7.427-3.378c-.71-.4-1.416-.827-2.1-1.261l.4-.633c.67.428,1.364.845,2.063,1.241a45.526,45.526,0,0,0,7.306,3.324Z" transform="translate(463.659 -412.174)" fill="#fff"/>
      <g id="Group_1220" data-name="Group 1220" transform="translate(52.408 29.716)">
        <g id="Group_1219" data-name="Group 1219" transform="translate(0 0)">
          <path id="Path_1871" data-name="Path 1871" d="M-279.3,461.8a2.81,2.81,0,0,0-1.144,1.759A19.442,19.442,0,0,1-286,461.719a11.345,11.345,0,0,1-2.791-1.926l-.809-.865c-1.34.948-2.735,1.813-4.132,2.678.392.029.838.084,1.256.084h3.936a4.308,4.308,0,0,1,.7-.585c.2,0,1.312.892,1.312,1.2,0,.222-.2.278-.363.278h-1.563l-.307.364v1.144h3.4c.14-.113.837-.894,1-.894.307,0,1.256.977,1.507,1.2a.517.517,0,0,1,.2.335.391.391,0,0,1-.391.335h-5.721v3.126h1.926a13.465,13.465,0,0,0,1.172-2.764c.028,0,.084-.027.112-.027.307,0,2.2,1.061,2.2,1.422,0,.252-.614.336-.781.364l-1.2,1h2.679l.921-1.116a.546.546,0,0,1,.392-.252.66.66,0,0,1,.417.252l1.173,1.256a.586.586,0,0,1,.223.447c0,.279-.2.419-.476.419h-18.755l-.391.307-1-1.479c.586.056,1.256.2,1.87.2,1.4,0,2.791,0,4.186-.028-.641-.448-.753-1.313-1.312-1.87-.084-.139-.78-.755-.78-.809,0-.085.222-.085.25-.085.726,0,2.29.2,2.763.838a1.978,1.978,0,0,1,.476,1.116c0,.447-.2.557-.5.809h2.178v-3.126h-4.467l-.419.279-.949-1.369c.586.029,1.229.113,1.814.113h4.02v-1.508h-1.7l-.391.335-.865-1.228a24.238,24.238,0,0,1-5.694,1.983,7.7,7.7,0,0,1-1.088.223c-.084,0-.2-.057-.2-.14a.3.3,0,0,1,.223-.308l.921-.391a21.036,21.036,0,0,0,4.746-2.734,17.95,17.95,0,0,0,2.651-2.373c.251-.279.5-.586.754-.864a.4.4,0,0,1,.2-.029c.279,0,2.986,1,2.986,1.312,0,.2-.251.279-.419.335a13.6,13.6,0,0,0,4.94,1.871,20.551,20.551,0,0,0,5.22.474c.14,0,.222.027.222.2C-278.523,461.384-279.191,461.719-279.3,461.8Zm-14.431-7.647c-.808,0-.836-.558-.949-1.172a38.253,38.253,0,0,0-3.851,1.535l-.949-1.814c1.535-.726,2.316-2.15,3.209-3.545-.754.335-1.507.586-2.233.95l-.949-1.592a2.868,2.868,0,0,0,.865-.67,9.315,9.315,0,0,0,1.508-3.182,2.553,2.553,0,0,0,.138-.781l.112-.056c.14.056.307.084.476.167.363.112,1.534.865,1.534,1.256,0,.279-.473.363-.67.392-.864.977-1.73,1.952-2.568,2.929l2.2-.111a4.955,4.955,0,0,0,.755-1.647.2.2,0,0,1,.138-.029,4.338,4.338,0,0,1,1.731,1.676c0,.306-.614.306-.809.335-1.117,1.227-2.234,2.456-3.322,3.684l2.652-.112a5.17,5.17,0,0,0-.336-1.172.629.629,0,0,1-.14-.308c0-.055,0-.166.085-.166a.883.883,0,0,1,.417.222c.7.474,1.7,1.256,1.7,2.206C-292.979,453.6-293.2,454.154-293.734,454.154Zm-5.023,4.326a.67.67,0,0,1-.726-.754c0-.67.558-1.144.781-1.73.084-.279.084-1.256.335-1.256.112,0,.167.2.2.279a5.537,5.537,0,0,1,.447,2.009C-297.725,457.671-297.948,458.48-298.757,458.48Zm2.569-.558c-.5,0-.671-.363-.671-.836,0-.308,0-.615.028-.922a9.2,9.2,0,0,0-.335-1.34.132.132,0,0,1,.14-.14c.14,0,.447.251.558.335a2.477,2.477,0,0,1,1.116,1.758C-295.352,457.308-295.576,457.922-296.189,457.922Zm2.259-.53c-.865,0-.754-1-.836-1.619a5.982,5.982,0,0,0-.14-.726c-.057-.223-.308-.53-.308-.671a.132.132,0,0,1,.141-.138,1.81,1.81,0,0,1,.641.363,2.618,2.618,0,0,1,1.285,1.87A.85.85,0,0,1-293.929,457.392Zm7.174-9.295h-5.414l-.363.335-.949-1.312c.586.056,1.228.14,1.814.14h3.182c.14-.14.614-.754.865-.754a.37.37,0,0,1,.279.167l.726.726a.551.551,0,0,1,.167.391A.279.279,0,0,1-286.756,448.1Zm-.67,2.065h-4.354l-.336.335-.976-1.31c.586.055,1.228.139,1.814.139h2.428c.056-.056.558-.586.726-.586.2,0,.865.752.949.836a.39.39,0,0,1,.14.28C-287.035,450.052-287.23,450.162-287.425,450.162Zm.084,2.011h-4.13l-.363.335-.949-1.312c.586.056,1.228.138,1.814.138h2.233c.112-.111.474-.557.7-.557.251,0,.837.67.977.809a.5.5,0,0,1,.112.251C-286.951,452.06-287.118,452.173-287.342,452.173Zm0,2.261v1.451c0,.335.056.7.084,1.033a9.084,9.084,0,0,1-1.674.391l.056-.726h-1.954v.2a6.356,6.356,0,0,1-1.648.279,11.073,11.073,0,0,0,.113-1.34v-1.591c0-.447-.28-.949-.28-1.228,0-.084.029-.112.113-.112a10.912,10.912,0,0,1,1.982.642h1.535c.167-.14.5-.53.754-.53a4.446,4.446,0,0,1,1.228.752.346.346,0,0,1,.2.308C-286.839,454.126-287.23,454.35-287.342,454.433Zm-2.54-7.369a1.069,1.069,0,0,1-.53-.14,1.185,1.185,0,0,1-.391-.53,3.667,3.667,0,0,0-.726-1.87c-.112-.139-.307-.307-.307-.473,0-.085.083-.085.14-.085a3.227,3.227,0,0,1,.865.2c.809.223,1.9.781,1.9,1.758C-288.932,446.534-289.184,447.064-289.881,447.064Zm1.033,7.229h-1.786l-.2.2v1.284l1.981-.028Zm2.679,3.991c-.447,0-.837-.223-.837-.726,0-.781.921-1.34,1.116-2.288,0-.139.028-.5.223-.5.335,0,.53,1.786.53,2.093C-285.137,457.475-285.444,458.285-286.169,458.285Zm5.332-4.13c-.783,0-.81-.558-.922-1.172a36.155,36.155,0,0,0-3.879,1.535l-.921-1.814c1.507-.726,2.316-2.177,3.182-3.545-.809.335-1.619.614-2.428.95l-.726-1.592a2.612,2.612,0,0,0,.781-.586,8.928,8.928,0,0,0,1.34-2.957,2.4,2.4,0,0,0,.14-.755l.112-.056a2.923,2.923,0,0,1,.781.279c.028.028,1.033.726,1.117.781a.4.4,0,0,1,.138.307c0,.335-.447.391-.7.447-.726.865-1.423,1.73-2.121,2.6l1.983-.111a5.622,5.622,0,0,0,.78-1.647c.028-.029.056-.029.113-.029a4.564,4.564,0,0,1,1.757,1.647c0,.279-.641.364-.836.364-1.116,1.227-2.234,2.428-3.322,3.684l2.651-.112a6.025,6.025,0,0,0-.445-1.367.245.245,0,0,1-.029-.14c0-.057,0-.169.057-.169a1.129,1.129,0,0,1,.473.251c.643.448,1.7,1.285,1.7,2.15C-280.056,453.54-280.28,454.154-280.838,454.154Zm-2.484,3.823c-.5,0-.727-.335-.727-.809,0-.307.028-.642.056-.949a10.259,10.259,0,0,0-.335-1.34.15.15,0,0,1,.14-.14c.112,0,.446.279.53.335.5.363,1.144.949,1.144,1.619C-282.513,457.252-282.624,457.978-283.322,457.978Zm2.372-.2c-1.062,0-.838-1.423-.978-2.121a9.124,9.124,0,0,0-.419-1.088.156.156,0,0,1,.14-.167c.2,0,.586.335.7.419a2.676,2.676,0,0,1,1.4,2.009A.884.884,0,0,1-280.95,457.782Z" transform="translate(300.962 -443.827)" fill="#fff"/>
          <path id="Path_1872" data-name="Path 1872" d="M-298.031,476.665a4.334,4.334,0,0,0-.112-1.033c-.056-.251-.335-.837-.335-1,0-.14.084-.166.2-.166a23.85,23.85,0,0,1,2.4.948,7.767,7.767,0,0,0,1.59-1.73c.085-.14.2-.419.364-.419a6.319,6.319,0,0,1,1.7,2.065c0,.14-.53.2-.614.2a25.448,25.448,0,0,0-3.209.754l.083,3.322h.615c.11-.112.53-.642.726-.642.25,0,1.116,1.172,1.116,1.394a.3.3,0,0,1-.28.2h-2.177l.085,3.655h.726c.083-.11.586-.921.808-.921a3.486,3.486,0,0,1,1.062,1.592v.111a.357.357,0,0,1-.279.113h-2.262l.084,4.856h5.08v-2.735h-2.206l-.558.335-.921-1.367a18.127,18.127,0,0,0,3.685.167v-1.814h-1.033v.642l-1.507.419c.028-.7.084-1.423.084-2.093v-4.187a5.139,5.139,0,0,0-.028-.641c-.028-.224-.2-.476-.2-.671,0-.084.083-.11.14-.11a6.309,6.309,0,0,1,1.451.7h1.088v-1.647h-1.619l-.558.335-.922-1.34a16.476,16.476,0,0,0,3.1.14v-1.87a2.787,2.787,0,0,0-.223-1.256,1.094,1.094,0,0,1-.14-.363c0-.084.084-.084.167-.084.419,0,2.456.726,2.456,1.088,0,.279-.5.419-.726.474v2.009h1.228c.112-.112.67-.865.837-.865a4.214,4.214,0,0,1,1.228,1.507c0,.14-.2.223-.335.223h-2.958v1.647h.7c.112-.11.558-.67.781-.67.279,0,1.088.726,1.256.838a.543.543,0,0,1,.251.362c0,.2-.391.391-.53.476v3.543c0,.559.084,1.145.112,1.7a16.021,16.021,0,0,1-1.647.391l.084-.7h-1v1.814h1.479c.084-.084.67-.865.865-.865a3.755,3.755,0,0,1,1.284,1.507c0,.167-.167.223-.307.223h-3.321v2.735h4.884l.223-4.634h-1.033l-.391.336-.977-1.423a12.4,12.4,0,0,0,2.484.166l.167-3.6h-1.116l-.391.335-.977-1.424a11.355,11.355,0,0,0,2.568.169l.167-3.713H-284.8l-.474.335-.977-1.423a11.505,11.505,0,0,0,2.4.167c.056-.084.809-1.172,1.033-1.172.364,0,1.674,1.088,1.9,1.256a.585.585,0,0,1,.307.419c0,.307-.585.614-.78.754l-.755,13.453h.363c.112-.112.865-1.144,1.172-1.144.2,0,.448.279.586.419.113.14,1.173,1.144,1.173,1.479,0,.167-.223.224-.363.224h-19.845l-.558.335-1-1.48a16.135,16.135,0,0,0,2.847.167Zm-1.144,21.966a1.5,1.5,0,0,1-.586.223c-.084,0-.14-.028-.14-.113a.4.4,0,0,1,.2-.278,35.8,35.8,0,0,0,3.154-3.35,15.2,15.2,0,0,0,1.564-1.982,3.927,3.927,0,0,0,.613-1.172c.028-.11.113-.445.251-.445.057,0,1.09.474,1.2.5.447.2,1.758.781,1.758,1.341,0,.279-.781.279-.949.279C-294.262,495.534-296.468,497.6-299.175,498.631Zm8.513-17.417v-1.758h-1.033v1.758Zm0,2.485v-1.62h-1.033v1.62Zm2.54-2.485v-1.758h-1v1.758Zm0,2.485v-1.62h-1v1.62Zm-.223,8.261a28.246,28.246,0,0,1,3.042,1.061,7.246,7.246,0,0,1,3.35,2.288,4.753,4.753,0,0,1,.781,1.955c0,.7-.336,1.368-1.116,1.368a1.568,1.568,0,0,1-1.257-.726,22.843,22.843,0,0,1-1.2-1.954,12.828,12.828,0,0,0-3.237-3.377c-.112-.056-.586-.391-.586-.476C-288.485,491.989-288.429,491.96-288.345,491.96Z" transform="translate(301.017 -439.157)" fill="#fff"/>
          <path id="Path_1873" data-name="Path 1873" d="M-291.2,504.1a8.471,8.471,0,0,0-.167-1.647c-.056-.279-.307-.53-.307-.809,0-.166.056-.2.223-.2.251,0,3.684.7,3.684,1.256,0,.224-.865.781-1.033.894v5.5h.921c.781-1.312,2.6-4.576,2.735-6.14a.217.217,0,0,1,.14-.027,21.82,21.82,0,0,1,2.958,1.312c.113.055.28.166.28.335,0,.306-.81.5-1.006.557-1.312,1.34-2.651,2.68-3.991,3.963h4.214c.14-.166.642-1,.95-1,.641,0,2.428,1.479,2.707,1.9a.843.843,0,0,1,.14.447c0,.726-1.285.67-1.758.726a3.736,3.736,0,0,0-1.843.7,2.033,2.033,0,0,1-.726.474c-.056,0-.056-.056-.056-.112,0-.084.558-1.9.643-2.121H-297.54a4.313,4.313,0,0,1,.028.614,2.1,2.1,0,0,1-1.87,2.2c-.921,0-1.172-.53-1.172-1.4,0-1.061,1.284-1.423,1.647-2.372a6.977,6.977,0,0,0,.307-1.369c0-.055.028-.2.112-.2a.308.308,0,0,1,.14.056,14.352,14.352,0,0,1,.642,1.451h6.5Zm0,18h-5.051l-.448.447-.865-1.536c.5.029,1.033.113,1.535.113h4.829v-1.4a10.369,10.369,0,0,0-.223-2.039h-2.261v.727a22.962,22.962,0,0,1-2.4.529c.056-.837.167-1.7.167-2.512V513.76a11.658,11.658,0,0,0-.167-1.9,3.1,3.1,0,0,1-.223-.586c0-.14.167-.2.279-.2a23.275,23.275,0,0,1,3.071,1.2h6.028c.168-.223.614-1.033.977-1.033a2.565,2.565,0,0,1,.893.391c.084.056,1.7.893,1.7,1.2,0,.251-.726.7-.865.809v2.568c0,.726.056,1.479.084,2.206a13.871,13.871,0,0,1-2.6.557l.112-1.284h-3.628c.307.113,2.372.7,2.372,1,0,.2-.781.7-.893.781v1.648h2.986c.084-.113.921-1.256,1.172-1.256.2,0,.447.251.586.362l1.088,1.033a.869.869,0,0,1,.307.53c0,.224-.14.308-.335.308l-5.8.027v3.545h5.025c.11-.14,1.171-1.479,1.451-1.479.222,0,.613.363.754.5.194.167,1.534,1.2,1.534,1.647,0,.307-.334.335-.529.335h-17.864l-.447.419-.865-1.535c.5.028,1.061.112,1.563.112h6.95Zm-6.113-18.9a11.224,11.224,0,0,1,1.955.726,3.456,3.456,0,0,1,1.954,1.648,3.986,3.986,0,0,1,.363,1.394,1.449,1.449,0,0,1-1.452,1.48c-1.284,0-1.34-1.172-1.451-2.177a4.172,4.172,0,0,0-1.2-2.513c-.057-.055-.364-.335-.364-.419C-297.512,503.237-297.372,503.209-297.317,503.209Zm10.69,13.509v-3.461h-6.7l-.363.446v3.014Z" transform="translate(301.028 -434.443)" fill="#fff"/>
        </g>
      </g>
    </g>
  </g>
</svg>
