<svg xmlns="http://www.w3.org/2000/svg" width="228.943" height="268.529" viewBox="0 0 228.943 268.529">
  <g id="Group_1223" data-name="Group 1223" transform="translate(2565.225 14933.883)">
    <path id="Path_1874" data-name="Path 1874" d="M.636,7.19V6.22a1.825,1.825,0,0,0,1.047-.309,1.253,1.253,0,0,0,.408-.794,8.427,8.427,0,0,0,.088-1.345V-5.4q0-.485.022-.937t.044-.782q-.375.022-.816.044t-.794.044V-8.239H6.058v.97a1.688,1.688,0,0,0-1.036.3,1.266,1.266,0,0,0-.419.794,8.388,8.388,0,0,0-.088,1.356V4.3q0,.6-.011,1.047a5.988,5.988,0,0,1-.055.738l3.725-.044a2.634,2.634,0,0,0,2.094-.893A4.284,4.284,0,0,0,11,2.385h.992L11.855,7.19Zm19.75-14.46a1.628,1.628,0,0,0-.97.242,1.156,1.156,0,0,0-.441.65,3.507,3.507,0,0,0-.11.915V.247a12.361,12.361,0,0,0,.209,2.37,5.639,5.639,0,0,0,.683,1.852,3.311,3.311,0,0,0,1.3,1.223,4.418,4.418,0,0,0,2.017.463A4.143,4.143,0,0,0,25.5,5.493a3.968,3.968,0,0,0,1.422-1.9,8.487,8.487,0,0,0,.5-2.932L27.461-5.4q0-.485.022-.937t.044-.782q-.375.022-.816.044t-.794.044V-8.239h4.452v.97a1.729,1.729,0,0,0-1.058.3,1.266,1.266,0,0,0-.419.794,8.388,8.388,0,0,0-.088,1.356L28.784.423a10.831,10.831,0,0,1-.364,2.9,6.423,6.423,0,0,1-1.1,2.259,4.83,4.83,0,0,1-1.874,1.455,6.524,6.524,0,0,1-2.678.507,8.106,8.106,0,0,1-3-.485A4.372,4.372,0,0,1,17.84,5.614a6.071,6.071,0,0,1-1.025-2.358A15.1,15.1,0,0,1,16.506.026V-4.735q0-.6.033-1.3t.055-1.08q-.375.022-.816.033t-.794.033v-1.19h5.4Zm21.6,8.883A2.571,2.571,0,0,0,41.711.247a1.192,1.192,0,0,0-.827-.518,6.046,6.046,0,0,0-1.367-.055L38.24-.282V4.3q0,.6-.011,1.047a5.988,5.988,0,0,1-.055.738l3.791-.044a4.1,4.1,0,0,0,1.543-.32A2.24,2.24,0,0,0,44.588,4.7a4.166,4.166,0,0,0,.4-1.984h.97L45.822,7.19H34.36V6.22a1.825,1.825,0,0,0,1.047-.309,1.253,1.253,0,0,0,.408-.794A8.428,8.428,0,0,0,35.9,3.774V-5.4q0-.485.022-.937t.044-.782q-.375.022-.816.044t-.794.044V-8.239H45.117l.11,3.99h-.97a3.685,3.685,0,0,0-.408-1.918,1.98,1.98,0,0,0-1.058-.882,3.964,3.964,0,0,0-1.4-.2L39.849-7.2a1.9,1.9,0,0,0-1.036.231,1.127,1.127,0,0,0-.463.749,7.025,7.025,0,0,0-.11,1.4v3.461h3.637l-.132-1.9h1.212V1.613ZM62.243,7.5,54.044-3.39q-.242-.287-.463-.6t-.463-.639H53.1l.066,8.574q0,.551-.011,1.1T53.1,6.066q.375-.044.827-.055t.782-.033V7.19H50.341V6.22a1.533,1.533,0,0,0,.937-.242,1.233,1.233,0,0,0,.441-.639,3.178,3.178,0,0,0,.121-.926V-6.344q0-.441.022-.771-.353.022-.782.044t-.76.044V-8.239h2.91L60.987,1.966q.375.485.672.9t.584.794h.022L62.287-5.4q0-.485.022-.937t.044-.782l-.838.044q-.441.022-.771.044V-8.239h4.364v.97a1.636,1.636,0,0,0-1.025.3,1.246,1.246,0,0,0-.4.794,9.567,9.567,0,0,0-.077,1.356L63.588,7.5ZM80.869,7.19V6.22A1.766,1.766,0,0,0,81.9,5.912a1.291,1.291,0,0,0,.4-.8,8.469,8.469,0,0,0,.088-1.334l.022-2.314L78.488-4.713a14.811,14.811,0,0,1-.738-1.367,3.373,3.373,0,0,1-.32-.992q-.353.022-.661.022t-.617.022V-8.239H82.1v.97a2.322,2.322,0,0,0-1.289.242.763.763,0,0,0-.364.76,2.83,2.83,0,0,0,.441,1.157l1.741,2.777q.176.265.4.617T83.481-1q.231.364.43.738h.044q.2-.419.452-.893T84.924-2.2l1.631-3.108q.11-.22.287-.551t.386-.672a3.036,3.036,0,0,1,.43-.562q-.4.022-.871.033t-.849.033V-8.239h4.607v.97a2.6,2.6,0,0,0-1.62.716A8.246,8.246,0,0,0,87.547-4.58q-.727,1.389-1.433,2.722T84.748.754q0,.353-.011.9t-.011,1.1V4.236q0,.6-.011,1.069a6.164,6.164,0,0,1-.055.76q.441-.044.937-.055t.871-.033V7.19Zm17.81-14.46a1.628,1.628,0,0,0-.97.242,1.156,1.156,0,0,0-.441.65,3.507,3.507,0,0,0-.11.915V.247a12.361,12.361,0,0,0,.209,2.37,5.639,5.639,0,0,0,.683,1.852,3.311,3.311,0,0,0,1.3,1.223,4.418,4.418,0,0,0,2.017.463,4.143,4.143,0,0,0,2.425-.661,3.968,3.968,0,0,0,1.422-1.9,8.487,8.487,0,0,0,.5-2.932l.044-6.062q0-.485.022-.937t.044-.782q-.375.022-.816.044t-.794.044V-8.239h4.452v.97a1.729,1.729,0,0,0-1.058.3,1.266,1.266,0,0,0-.419.794,8.389,8.389,0,0,0-.088,1.356L107.076.423a10.831,10.831,0,0,1-.364,2.9,6.422,6.422,0,0,1-1.1,2.259,4.83,4.83,0,0,1-1.874,1.455,6.524,6.524,0,0,1-2.678.507,8.106,8.106,0,0,1-3-.485,4.372,4.372,0,0,1-1.929-1.444,6.071,6.071,0,0,1-1.025-2.358A15.1,15.1,0,0,1,94.8.026V-4.735q0-.6.033-1.3t.055-1.08q-.375.022-.816.033t-.794.033v-1.19h5.4Zm21.6,8.883A2.571,2.571,0,0,0,120,.247a1.192,1.192,0,0,0-.827-.518,6.046,6.046,0,0,0-1.367-.055l-1.278.044V4.3q0,.6-.011,1.047a5.987,5.987,0,0,1-.055.738l3.791-.044a4.1,4.1,0,0,0,1.543-.32A2.24,2.24,0,0,0,122.88,4.7a4.166,4.166,0,0,0,.4-1.984h.97l-.132,4.475H112.653V6.22a1.825,1.825,0,0,0,1.047-.309,1.253,1.253,0,0,0,.408-.794,8.427,8.427,0,0,0,.088-1.345V-5.4q0-.485.022-.937t.044-.782q-.375.022-.816.044t-.794.044V-8.239h10.756l.11,3.99h-.97a3.685,3.685,0,0,0-.408-1.918,1.98,1.98,0,0,0-1.058-.882,3.964,3.964,0,0,0-1.4-.2l-1.543.044a1.9,1.9,0,0,0-1.036.231,1.127,1.127,0,0,0-.463.749,7.025,7.025,0,0,0-.11,1.4v3.461h3.637l-.132-1.9h1.212V1.613ZM148.1-3.478a7.5,7.5,0,0,0-.287-2.094,2.309,2.309,0,0,0-.871-1.256,2.784,2.784,0,0,0-1.664-.4h-1.587l-.022,11.462q0,.6-.011,1.069a6.167,6.167,0,0,1-.055.76q.419-.044.915-.055t.893-.033V7.19h-5.6V6.22a1.766,1.766,0,0,0,1.036-.309,1.291,1.291,0,0,0,.4-.8,8.468,8.468,0,0,0,.088-1.334V-7.2l-1.852.022a2.206,2.206,0,0,0-1.962.9,5.033,5.033,0,0,0-.617,2.8h-1.036L136-8.239h13l.132,4.761ZM160.528,7.543a8.3,8.3,0,0,1-3.582-.705,6.6,6.6,0,0,1-2.414-1.885,8.009,8.009,0,0,1-1.367-2.612,9.7,9.7,0,0,1-.441-2.865,8.848,8.848,0,0,1,.474-2.81,8.339,8.339,0,0,1,1.433-2.612,7.194,7.194,0,0,1,2.4-1.918,7.43,7.43,0,0,1,3.383-.727,7.782,7.782,0,0,1,3.494.727,6.966,6.966,0,0,1,2.414,1.929,8.628,8.628,0,0,1,1.422,2.612,8.75,8.75,0,0,1,.474,2.8,8.786,8.786,0,0,1-.474,2.788,8.474,8.474,0,0,1-1.433,2.623,7.165,7.165,0,0,1-2.392,1.929A7.413,7.413,0,0,1,160.528,7.543Zm.11-1.146a4.161,4.161,0,0,0,2.215-.573A4.728,4.728,0,0,0,164.4,4.292a7.143,7.143,0,0,0,.893-2.116,9.554,9.554,0,0,0,.287-2.3,11.093,11.093,0,0,0-.331-2.722,7.907,7.907,0,0,0-1-2.358,5.18,5.18,0,0,0-1.664-1.653,4.307,4.307,0,0,0-2.292-.606,4.1,4.1,0,0,0-2.226.6,4.8,4.8,0,0,0-1.543,1.554,7.55,7.55,0,0,0-.893,2.116,9.3,9.3,0,0,0-.3,2.325,10.345,10.345,0,0,0,.309,2.425,8.86,8.86,0,0,0,.948,2.381,5.406,5.406,0,0,0,1.642,1.785A4.183,4.183,0,0,0,160.638,6.4Zm23.585,1.1-8.2-10.889q-.242-.287-.463-.6t-.463-.639h-.022l.066,8.574q0,.551-.011,1.1t-.055,1.014q.375-.044.827-.055t.783-.033V7.19H172.32V6.22a1.532,1.532,0,0,0,.937-.242,1.233,1.233,0,0,0,.441-.639,3.178,3.178,0,0,0,.121-.926V-6.344q0-.441.022-.771-.353.022-.783.044t-.76.044V-8.239h2.91l7.759,10.205q.375.485.672.9t.584.794h.022l.022-9.059q0-.485.022-.937t.044-.782l-.838.044q-.441.022-.771.044V-8.239h4.364v.97a1.636,1.636,0,0,0-1.025.3,1.246,1.246,0,0,0-.4.794,9.568,9.568,0,0,0-.077,1.356L185.568,7.5Zm14.261.044a7.814,7.814,0,0,1-3.945-.97,6.642,6.642,0,0,1-2.623-2.722,8.629,8.629,0,0,1-.926-4.089,9.824,9.824,0,0,1,.474-3.02A8.473,8.473,0,0,1,192.9-5.947a6.961,6.961,0,0,1,2.4-1.929,7.473,7.473,0,0,1,3.361-.716,9.256,9.256,0,0,1,1.521.132,9.451,9.451,0,0,1,1.554.4,7.21,7.21,0,0,1,1.378.639l-.088-1.014h1.367v5.07h-1.014a4.546,4.546,0,0,0-.738-2.237,4.074,4.074,0,0,0-1.609-1.389,4.925,4.925,0,0,0-2.171-.474,4.4,4.4,0,0,0-2.127.518,5.231,5.231,0,0,0-1.664,1.433,6.808,6.808,0,0,0-1.091,2.149,8.821,8.821,0,0,0-.386,2.645,9.111,9.111,0,0,0,.672,3.6,5.821,5.821,0,0,0,1.907,2.48,4.756,4.756,0,0,0,2.887.9,7.46,7.46,0,0,0,1.157-.1,7.832,7.832,0,0,0,1.256-.309,4.908,4.908,0,0,0,1.135-.54V2.848q0-.551.011-1.091t.011-1q-.353.022-.794.044t-.771.044V-.37h5.268V.6a1.369,1.369,0,0,0-.849.242,1.388,1.388,0,0,0-.463.606,2.964,2.964,0,0,0-.187.771,7.1,7.1,0,0,0-.044.76V6.419h-.573a4.861,4.861,0,0,0-1.08.143,11.541,11.541,0,0,0-1.389.43,9.7,9.7,0,0,1-1.565.4A9.847,9.847,0,0,1,198.484,7.543Z" transform="translate(-2551.835 -14672.896)" fill="#fff"/>
    <g id="Group_1222" data-name="Group 1222" transform="translate(291.617)">
      <path id="Path_1680" data-name="Path 1680" d="M-419.909,536l-3.507-10.027a7.756,7.756,0,0,1-.406-3.3l.782-8.4a94.19,94.19,0,0,0-1.22-17.07l-.858-5.229-.7-6.5h-31.571a6.274,6.274,0,0,1-6.267-6.265,3.2,3.2,0,0,1,.828-2.406c.966-.946,2.511-.915,4.3-.872.366.007.746.017,1.135.017h31.674v1.378h-31.674c-.4,0-.79-.009-1.165-.017-1.482-.033-2.759-.061-3.31.479a1.937,1.937,0,0,0-.415,1.422,4.893,4.893,0,0,0,4.89,4.888h32.808l.832,7.691.852,5.191a95.432,95.432,0,0,1,1.238,17.246l-.005.174-.782,8.4a6.365,6.365,0,0,0,.334,2.713l3.507,10.027Z" transform="translate(-2393.183 -15292.712)" fill="#fff"/>
      <path id="Path_1681" data-name="Path 1681" d="M-434.085,523.036a5.681,5.681,0,0,1-4.061-1.717c-2.437-2.48.52-5.433,2.476-7.39l13.139-14.617,1.023.922-13.163,14.643c-2.184,2.186-3.861,4.085-2.493,5.477a4.32,4.32,0,0,0,6.049.138l9.836-10.815,6.659-7.553a4.082,4.082,0,0,0,.274-5.419L-429.725,477.2l1.08-.854,15.374,19.5a5.447,5.447,0,0,1-.34,7.215l-6.642,7.535-9.884,10.863A5.785,5.785,0,0,1-434.085,523.036Z" transform="translate(-2372.604 -15292.355)" fill="#fff"/>
      <path id="Path_1682" data-name="Path 1682" d="M-442.24,564.161a4.927,4.927,0,0,1-2.6-.746l-8.37-5.176c-1.133-.7-2.305-1.416-1.945-3.18.393-1.927,3.108-3.376,4.746-3.413a11.665,11.665,0,0,1,6.175,1.624l19.437-34.915,4.438-8.887,1.233.617L-423.576,519l-20.1,36.107-1.166-.6a10.15,10.15,0,0,0-5.532-1.481c-1.115.026-3.189,1.152-3.426,2.311-.152.742.114.99,1.317,1.729l8.374,5.18a3.545,3.545,0,0,0,2.809.415,3.548,3.548,0,0,0,2.23-1.758l24.613-43.95a19.19,19.19,0,0,1,2.311-3.08c2.063-2.4,4.192-4.877,4.16-10.286l-.782-5.878,1.365-.18.788,5.964c.042,6.01-2.362,8.808-4.485,11.276a18.334,18.334,0,0,0-2.155,2.858l-24.608,43.943a4.911,4.911,0,0,1-3.082,2.423A5.1,5.1,0,0,1-442.24,564.161Z" transform="translate(-2386.121 -15274.632)" fill="#fff"/>
      <path id="Path_1683" data-name="Path 1683" d="M-425.681,551.72a2.161,2.161,0,0,1-1.688-.823c-1.335-1.646-.985-5.365.683-7.237l3.091-2.915-12.075-20.854,1.192-.689,12.623,21.8-3.845,3.62c-1.273,1.433-1.44,4.372-.6,5.407.134.167.492.612,1.508.028l8.885-5.927a2.726,2.726,0,0,0,1.1-3.595l-16.008-27.457,1.19-.693,16.028,27.494a4.1,4.1,0,0,1-1.587,5.42l-8.887,5.926A3.227,3.227,0,0,1-425.681,551.72Z" transform="translate(-2369.761 -15262.198)" fill="#fff"/>
      <path id="Path_1684" data-name="Path 1684" d="M-344.441,526.207H-358a2.308,2.308,0,0,1-2.305-2.305V477.19L-379.4,445.907l-10.591,9.182a5.176,5.176,0,0,1-6.407.2,5.2,5.2,0,0,1-1.958-4.561l1.666-25.874c.129-2.011.355-4.063,1.55-5.106a2.745,2.745,0,0,1,2.046-.637,6.132,6.132,0,0,1,4.295,2.116c1.491,1.747,2.083,4.379,1.758,7.825l-.986,12.735,11.313-10.283.928,1.019-13.881,12.617,1.253-16.206c.29-3.071-.191-5.362-1.433-6.815a4.769,4.769,0,0,0-3.337-1.635,1.376,1.376,0,0,0-1.049.3c-.861.753-1,2.887-1.082,4.16l-1.666,25.874a3.885,3.885,0,0,0,1.411,3.369,3.776,3.776,0,0,0,4.677-.138L-379.07,443.8l20.141,33v47.1a.929.929,0,0,0,.928.928h13.561a1.738,1.738,0,0,0,1.31-.588,1.79,1.79,0,0,0,.441-1.392c-.494-4.269-6.813-4.487-8.075-4.487h-.689V475.487l10.933-8.471-.007,0,.658-.531,15.481-13.9,30.846-15.409L-290.763,426a.845.845,0,0,0-.1-.709,2.914,2.914,0,0,0-2.856-.909c-2.329.781-4.324,3.378-5.476,7.127l-.088.287-29.551,14.27-17.341,13.269-.4-.652c-.715-1.161-1.6-2.382-2.533-3.676-2.952-4.078-6.3-8.7-6.363-14.145l-.005-.478,14.711-5.738a3.538,3.538,0,0,0,.88-.457L-328,426.122c3.7-3.608,4.261-6.872,3.139-8.473a1.478,1.478,0,0,0-.974-.6,1.981,1.981,0,0,0-1.457.336l-15.857,11.177-14.9,5.413-.47-1.295,14.812-5.382,15.62-11.041a3.317,3.317,0,0,1,2.487-.564,2.842,2.842,0,0,1,1.864,1.163c1.35,1.925,1.269,5.786-3.4,10.325l-11.965,8.137a4.829,4.829,0,0,1-1.183.617l-13.8,5.382c.248,4.816,3.345,9.094,6.087,12.884.781,1.082,1.528,2.114,2.182,3.117l16.377-12.494,29.013-14.009c1.3-4.025,3.571-6.837,6.264-7.739a4.26,4.26,0,0,1,4.375,1.365,2.209,2.209,0,0,1,.356,1.894l-2.933,11.78-.285.143-31.048,15.508-15.275,13.785-11.109,8.607V517c4.052.156,8.293,1.714,8.754,5.694a3.172,3.172,0,0,1-.781,2.467A3.138,3.138,0,0,1-344.441,526.207Z" transform="translate(-2338.546 -15343.15)" fill="#fff"/>
      <path id="Path_1685" data-name="Path 1685" d="M-348.212,429.253" transform="translate(-2296.574 -15331.765)" fill="#fff"/>
      <path id="Path_1686" data-name="Path 1686" d="M-348.8,506.949l-1.365-.18a93.017,93.017,0,0,0,.8-12.174,91.184,91.184,0,0,0-6.815-34.755l1.277-.525a92.627,92.627,0,0,1,6.916,35.28A94.188,94.188,0,0,1-348.8,506.949Z" transform="translate(-2303.239 -15306.608)" fill="#fff"/>
      <path id="Path_1687" data-name="Path 1687" d="M-446.631,479.966l-1.234-.61a92.921,92.921,0,0,1,71.168-51.08l.182,1.368A91.541,91.541,0,0,0-446.631,479.966Z" transform="translate(-2379.966 -15332.582)" fill="#fff"/>
      <path id="Path_1688" data-name="Path 1688" d="M-367.206,562.346l-.946-1A91.856,91.856,0,0,0-340.14,506.77a93.017,93.017,0,0,0,.8-12.174,91.184,91.184,0,0,0-6.815-34.755l1.277-.525a92.627,92.627,0,0,1,6.916,35.28,94.188,94.188,0,0,1-.814,12.354A93.236,93.236,0,0,1-367.206,562.346Z" transform="translate(-2313.26 -15306.608)" fill="#fff"/>
      <path id="Path_1689" data-name="Path 1689" d="M-446.631,479.966l-1.234-.61a92.921,92.921,0,0,1,71.168-51.08l.182,1.368A91.541,91.541,0,0,0-446.631,479.966Z" transform="translate(-2379.966 -15332.582)" fill="#fff"/>
      <path id="Path_1690" data-name="Path 1690" d="M-340.394,502.929h-1.378a98.593,98.593,0,0,0-14.957-52.306l1.168-.727A99.946,99.946,0,0,1-340.394,502.929Z" transform="translate(-2303.701 -15314.49)" fill="#fff"/>
      <path id="Path_1691" data-name="Path 1691" d="M-452.115,481.957l-1.288-.492a101.15,101.15,0,0,1,39.466-48.6l.746,1.159A99.734,99.734,0,0,0-452.115,481.957Z" transform="translate(-2384.601 -15328.743)" fill="#fff"/>
      <path id="Path_1692" data-name="Path 1692" d="M-427.737,448.2l-.775-1.137a84.869,84.869,0,0,1,47.958-14.746v1.378A83.508,83.508,0,0,0-427.737,448.2Z" transform="translate(-2363.771 -15329.203)" fill="#fff"/>
      <path id="Path_1693" data-name="Path 1693" d="M-434.057,489.526c-2.742,0-4.671-2-5.744-3.108-4.544-4.7-3.148-9.814-2.026-13.919.158-.579.312-1.144.448-1.7,1.279-5.207,4.219-7.053,6.46-7.682a10.975,10.975,0,0,1,10.268,2.426,8.188,8.188,0,0,1,2.592,8.3c-.13.566-.246,1.155-.367,1.761-.849,4.267-1.9,9.575-8.444,13.056A6.721,6.721,0,0,1-434.057,489.526Zm2.048-25.427a9.325,9.325,0,0,0-2.537.347c-2.746.771-4.6,3.022-5.494,6.686-.138.562-.3,1.141-.457,1.728-1.137,4.16-2.313,8.462,1.686,12.6h0c1.811,1.875,4.021,3.725,7.294,1.986,5.96-3.174,6.906-7.92,7.74-12.108.123-.619.242-1.222.375-1.8a6.8,6.8,0,0,0-2.175-6.971A9.609,9.609,0,0,0-432.009,464.1Z" transform="translate(-2375.849 -15303.758)" fill="#fff"/>
      <path id="Path_1694" data-name="Path 1694" d="M-376.956,437.728a6.882,6.882,0,0,1-3.81-1.152h0c-6.085-4.039-5.821-9.072-5.61-13.119.046-.865.09-1.7.068-2.482a7.923,7.923,0,0,1,4.629-7.676,10.477,10.477,0,0,1,10.09.353,7.863,7.863,0,0,1,3.99,7.323c-.022.784.022,1.616.068,2.482.211,4.047.478,9.08-5.61,13.119A6.889,6.889,0,0,1-376.956,437.728Zm-3.049-2.3a5.5,5.5,0,0,0,6.1,0c5.432-3.606,5.2-8.01,5-11.9-.048-.9-.092-1.773-.07-2.594a6.474,6.474,0,0,0-3.321-6.1,9.1,9.1,0,0,0-8.754-.307,6.542,6.542,0,0,0-3.878,6.409c.022.821-.022,1.69-.07,2.594-.2,3.889-.435,8.293,5,11.9Z" transform="translate(-2328.581 -15346.057)" fill="#fff"/>
      <path id="Path_1695" data-name="Path 1695" d="M-384.11,540.693l-.536-1.269a83.888,83.888,0,0,0,42.912-40.879l1.242.6A85.269,85.269,0,0,1-384.11,540.693Z" transform="translate(-2327.063 -15273.779)" fill="#fff"/>
      <path id="Path_1696" data-name="Path 1696" d="M-455.1,495.516l-1.365-.187a99.625,99.625,0,0,1,24.325-52.778l1.029.915A98.274,98.274,0,0,0-455.1,495.516Z" transform="translate(-2387.159 -15320.637)" fill="#fff"/>
      <path id="Path_1697" data-name="Path 1697" d="M-437.908,523.573a92.042,92.042,0,0,1-14.456-36.107l1.357-.233a90.7,90.7,0,0,0,14.241,35.572Z" transform="translate(-2383.731 -15283.245)" fill="#fff"/>
      <path id="Path_1698" data-name="Path 1698" d="M-409.826,526.931a85.124,85.124,0,0,1-13.642-6.2c-1.3-.74-2.6-1.519-3.85-2.316l.74-1.163c1.231.786,2.505,1.552,3.789,2.279a83.626,83.626,0,0,0,13.42,6.106Z" transform="translate(-2362.772 -15258.129)" fill="#fff"/>
      <g id="Group_1220" data-name="Group 1220" transform="translate(-2459.616 -15323.127)">
        <g id="Group_1219" data-name="Group 1219" transform="translate(-300.962 443.827)">
          <path id="Path_1871" data-name="Path 1871" d="M-261.178,476.842a5.162,5.162,0,0,0-2.1,3.232,35.712,35.712,0,0,1-10.2-3.383,20.841,20.841,0,0,1-5.126-3.537l-1.487-1.589c-2.461,1.741-5.024,3.33-7.589,4.919.72.053,1.54.154,2.307.154h7.23a7.915,7.915,0,0,1,1.282-1.074c.359,0,2.409,1.638,2.409,2.2,0,.408-.359.51-.666.51h-2.871l-.564.669v2.1h6.254c.256-.207,1.538-1.643,1.845-1.643.564,0,2.307,1.794,2.768,2.206a.95.95,0,0,1,.359.615.719.719,0,0,1-.718.615h-10.509v5.741h3.537a24.732,24.732,0,0,0,2.153-5.077c.051,0,.154-.049.2-.049.564,0,4.05,1.948,4.05,2.612,0,.464-1.128.617-1.435.669l-2.2,1.845h4.921l1.692-2.05a1,1,0,0,1,.72-.464,1.213,1.213,0,0,1,.767.464L-262,488.84a1.077,1.077,0,0,1,.41.82c0,.513-.359.769-.874.769h-34.45l-.718.564-1.845-2.717c1.077.1,2.307.359,3.435.359,2.563,0,5.126,0,7.689-.051-1.177-.822-1.384-2.411-2.409-3.435-.154-.256-1.433-1.386-1.433-1.487,0-.156.408-.156.459-.156,1.333,0,4.206.359,5.075,1.54a3.634,3.634,0,0,1,.874,2.05c0,.82-.359,1.023-.925,1.487h4v-5.741h-8.2l-.769.513-1.743-2.514c1.077.053,2.258.207,3.332.207h7.384v-2.77h-3.127l-.718.615-1.589-2.256a44.515,44.515,0,0,1-10.46,3.642,14.134,14.134,0,0,1-2,.41c-.154,0-.359-.1-.359-.256a.558.558,0,0,1,.41-.566l1.692-.718a38.643,38.643,0,0,0,8.717-5.022,32.973,32.973,0,0,0,4.87-4.359c.461-.513.921-1.076,1.384-1.587a.732.732,0,0,1,.359-.053c.513,0,5.485,1.845,5.485,2.409,0,.359-.461.513-.769.615,2.973,2,5.639,2.617,9.073,3.437a37.747,37.747,0,0,0,9.588.871c.256,0,.408.049.408.359C-259.745,476.075-260.973,476.691-261.178,476.842ZM-287.685,462.8c-1.484,0-1.536-1.025-1.743-2.153a70.275,70.275,0,0,0-7.074,2.819l-1.743-3.332c2.819-1.333,4.255-3.949,5.9-6.512-1.384.615-2.768,1.076-4.1,1.745l-1.743-2.924a5.266,5.266,0,0,0,1.589-1.23,17.109,17.109,0,0,0,2.77-5.844,4.691,4.691,0,0,0,.254-1.435l.205-.1c.256.1.564.154.874.308.666.205,2.817,1.589,2.817,2.307,0,.513-.869.666-1.23.72-1.587,1.794-3.178,3.586-4.716,5.38l4.05-.2a9.1,9.1,0,0,0,1.386-3.025.365.365,0,0,1,.254-.053c.564,0,3.18,2.461,3.18,3.078,0,.562-1.128.562-1.487.615-2.053,2.253-4.1,4.511-6.1,6.767l4.872-.205a9.493,9.493,0,0,0-.617-2.153,1.155,1.155,0,0,1-.256-.566c0-.1,0-.305.156-.305a1.621,1.621,0,0,1,.767.408c1.284.871,3.129,2.307,3.129,4.052C-286.3,461.771-286.711,462.8-287.685,462.8Zm-9.227,7.946a1.23,1.23,0,0,1-1.333-1.384c0-1.23,1.025-2.1,1.435-3.178.154-.513.154-2.307.615-2.307.205,0,.308.359.359.513a10.171,10.171,0,0,1,.82,3.691C-295.016,469.255-295.426,470.742-296.912,470.742Zm4.718-1.025c-.925,0-1.232-.666-1.232-1.536,0-.566,0-1.13.051-1.694a16.9,16.9,0,0,0-.615-2.461.242.242,0,0,1,.256-.256c.256,0,.82.461,1.025.615a4.549,4.549,0,0,1,2.05,3.229C-290.658,468.589-291.068,469.717-292.194,469.717Zm4.15-.974c-1.589,0-1.384-1.845-1.536-2.973a10.991,10.991,0,0,0-.256-1.333c-.1-.41-.566-.974-.566-1.232a.242.242,0,0,1,.258-.254,3.323,3.323,0,0,1,1.177.666c1.079.769,2.36,2,2.36,3.435A1.561,1.561,0,0,1-288.044,468.743Zm13.177-17.073h-9.945l-.666.615-1.743-2.409c1.077.1,2.256.256,3.332.256h5.844c.256-.256,1.128-1.384,1.589-1.384a.68.68,0,0,1,.513.308l1.333,1.333a1.012,1.012,0,0,1,.308.718A.513.513,0,0,1-274.867,451.67Zm-1.23,3.793h-8l-.617.615-1.792-2.407c1.076.1,2.255.256,3.332.256h4.46c.1-.1,1.025-1.077,1.333-1.077.359,0,1.589,1.382,1.743,1.536a.716.716,0,0,1,.256.515C-275.38,455.261-275.739,455.464-276.1,455.464Zm.154,3.693h-7.587l-.666.615-1.743-2.409c1.076.1,2.255.254,3.332.254h4.1c.205-.2.872-1.023,1.282-1.023.461,0,1.538,1.23,1.794,1.487a.914.914,0,0,1,.205.461C-275.226,458.949-275.534,459.157-275.944,459.157Zm0,4.152v2.666c0,.615.1,1.281.154,1.9a16.69,16.69,0,0,1-3.076.718l.1-1.333h-3.588v.359a11.674,11.674,0,0,1-3.027.513,20.349,20.349,0,0,0,.207-2.461v-2.922c0-.82-.515-1.743-.515-2.255,0-.154.053-.205.207-.205a20.048,20.048,0,0,1,3.64,1.179h2.819c.308-.256.923-.974,1.384-.974a8.167,8.167,0,0,1,2.256,1.382.636.636,0,0,1,.359.566C-275.021,462.745-275.739,463.155-275.944,463.309Zm-4.665-13.535a1.963,1.963,0,0,1-.974-.256,2.178,2.178,0,0,1-.718-.974,6.734,6.734,0,0,0-1.333-3.435c-.205-.256-.564-.564-.564-.869,0-.156.152-.156.256-.156a5.926,5.926,0,0,1,1.589.359c1.487.41,3.486,1.435,3.486,3.23C-278.866,448.8-279.327,449.773-280.609,449.773Zm1.9,13.279h-3.281l-.359.359v2.358l3.64-.051Zm4.921,7.331c-.82,0-1.538-.41-1.538-1.333,0-1.435,1.692-2.461,2.05-4.2,0-.256.051-.923.41-.923.615,0,.974,3.281.974,3.845C-271.894,468.9-272.458,470.383-273.791,470.383ZM-264,462.8c-1.437,0-1.489-1.025-1.694-2.153a66.416,66.416,0,0,0-7.125,2.819l-1.692-3.332c2.768-1.333,4.255-4,5.844-6.512-1.487.615-2.973,1.128-4.46,1.745l-1.333-2.924a4.8,4.8,0,0,0,1.435-1.076,16.4,16.4,0,0,0,2.461-5.432,4.417,4.417,0,0,0,.256-1.386l.205-.1a5.369,5.369,0,0,1,1.435.513c.051.051,1.9,1.333,2.053,1.435a.743.743,0,0,1,.254.564c0,.615-.82.718-1.282.82-1.333,1.589-2.614,3.178-3.9,4.767l3.642-.2a10.328,10.328,0,0,0,1.433-3.025c.051-.053.1-.053.207-.053.613,0,3.227,2.514,3.227,3.024s-1.177.669-1.536.669c-2.05,2.253-4.1,4.46-6.1,6.767l4.87-.205a11.067,11.067,0,0,0-.818-2.512.45.45,0,0,1-.053-.256c0-.1,0-.31.1-.31a2.073,2.073,0,0,1,.869.461c1.181.822,3.129,2.36,3.129,3.949C-262.562,461.668-262.972,462.8-264,462.8Zm-4.562,7.023c-.925,0-1.335-.615-1.335-1.487,0-.564.051-1.179.1-1.743a18.847,18.847,0,0,0-.615-2.461.275.275,0,0,1,.256-.256c.2,0,.82.513.974.615.925.666,2.1,1.743,2.1,2.973C-267.075,468.486-267.278,469.819-268.56,469.819Zm4.357-.359c-1.95,0-1.54-2.614-1.8-3.9a16.768,16.768,0,0,0-.769-2,.287.287,0,0,1,.256-.308c.359,0,1.076.615,1.284.769,1.23.82,2.563,2.1,2.563,3.691A1.623,1.623,0,0,1-264.2,469.46Z" transform="translate(300.962 -443.827)" fill="#fff"/>
          <path id="Path_1872" data-name="Path 1872" d="M-295.859,480.145a7.962,7.962,0,0,0-.205-1.9c-.1-.461-.615-1.538-.615-1.845,0-.256.154-.305.359-.305a43.814,43.814,0,0,1,4.411,1.741,14.266,14.266,0,0,0,2.92-3.178c.156-.256.361-.769.669-.769.359,0,3.127,3.127,3.127,3.793,0,.256-.974.359-1.128.359a46.754,46.754,0,0,0-5.9,1.384l.152,6.1h1.13c.2-.205.974-1.179,1.333-1.179.459,0,2.05,2.153,2.05,2.561a.548.548,0,0,1-.515.361h-4l.156,6.713h1.333c.152-.2,1.077-1.692,1.484-1.692s1.95,2.36,1.95,2.924v.2a.656.656,0,0,1-.513.207h-4.154l.154,8.92h9.332v-5.024h-4.052l-1.025.615-1.692-2.512a33.294,33.294,0,0,0,6.769.308V494.6h-1.9v1.179l-2.768.769c.051-1.282.154-2.614.154-3.845v-7.692a9.434,9.434,0,0,0-.051-1.177c-.051-.412-.359-.874-.359-1.232,0-.154.152-.2.256-.2a11.589,11.589,0,0,1,2.666,1.279h2v-3.025H-285.3l-1.025.615-1.694-2.461a30.267,30.267,0,0,0,5.692.256v-3.435a5.119,5.119,0,0,0-.41-2.307,2.01,2.01,0,0,1-.256-.666c0-.154.154-.154.308-.154.769,0,4.511,1.333,4.511,2,0,.513-.923.769-1.333.872v3.691h2.255c.205-.205,1.23-1.589,1.538-1.589a7.739,7.739,0,0,1,2.256,2.768c0,.256-.359.41-.615.41H-279.5v3.025h1.282c.205-.2,1.025-1.23,1.435-1.23.513,0,2,1.333,2.307,1.54a1,1,0,0,1,.461.664c0,.359-.718.718-.974.874v6.508c0,1.027.154,2.1.205,3.129a29.407,29.407,0,0,1-3.025.718l.154-1.281H-279.5v3.332h2.717c.154-.154,1.23-1.589,1.589-1.589.461,0,2.358,2.307,2.358,2.768,0,.308-.307.41-.564.41h-6.1v5.024h8.971l.41-8.512h-1.9l-.718.617-1.794-2.614a22.773,22.773,0,0,0,4.562.305l.308-6.611h-2.05l-.718.615-1.794-2.617a20.863,20.863,0,0,0,4.716.31l.308-6.82h-2.358l-.871.615-1.794-2.614a21.126,21.126,0,0,0,4.409.308c.1-.154,1.487-2.153,1.9-2.153.669,0,3.076,2,3.486,2.307a1.074,1.074,0,0,1,.564.769c0,.564-1.074,1.128-1.433,1.384l-1.386,24.711h.666c.205-.205,1.589-2.1,2.153-2.1.359,0,.822.513,1.077.769.207.256,2.155,2.1,2.155,2.717,0,.307-.41.412-.666.412h-36.452l-1.025.615-1.846-2.719a29.638,29.638,0,0,0,5.229.307Zm-2.1,40.348a2.761,2.761,0,0,1-1.077.41c-.154,0-.256-.051-.256-.207a.742.742,0,0,1,.359-.51,65.759,65.759,0,0,0,5.793-6.154,27.917,27.917,0,0,0,2.873-3.64,7.212,7.212,0,0,0,1.126-2.153c.051-.2.207-.818.461-.818.1,0,2,.871,2.206.921.82.359,3.23,1.435,3.23,2.463,0,.513-1.435.513-1.743.513C-288.936,514.8-292.988,518.6-297.96,520.493Zm15.637-31.992v-3.229h-1.9V488.5Zm0,4.564V490.09h-1.9v2.975Zm4.665-4.564v-3.229H-279.5V488.5Zm0,4.564V490.09H-279.5v2.975Zm-.41,15.174a51.883,51.883,0,0,1,5.588,1.948c2.153.874,4.872,2.206,6.154,4.2a8.731,8.731,0,0,1,1.435,3.591c0,1.279-.617,2.512-2.05,2.512a2.88,2.88,0,0,1-2.309-1.333,41.953,41.953,0,0,1-2.2-3.588,23.563,23.563,0,0,0-5.946-6.2c-.205-.1-1.076-.718-1.076-.874C-278.325,508.292-278.222,508.239-278.068,508.239Z" transform="translate(301.344 -411.248)" fill="#fff"/>
          <path id="Path_1873" data-name="Path 1873" d="M-283.379,506.321a15.558,15.558,0,0,0-.308-3.024c-.1-.513-.564-.974-.564-1.487,0-.305.1-.359.41-.359.461,0,6.767,1.282,6.767,2.307,0,.412-1.589,1.435-1.9,1.642v10.1h1.692c1.435-2.409,4.767-8.4,5.024-11.278a.4.4,0,0,1,.256-.049,40.069,40.069,0,0,1,5.434,2.409c.207.1.515.305.515.615,0,.562-1.489.921-1.848,1.023-2.409,2.461-4.87,4.923-7.33,7.279h7.741c.256-.305,1.179-1.843,1.745-1.843,1.177,0,4.46,2.717,4.972,3.486a1.548,1.548,0,0,1,.256.82c0,1.333-2.36,1.23-3.23,1.333a6.863,6.863,0,0,0-3.385,1.282,3.735,3.735,0,0,1-1.333.871c-.1,0-.1-.1-.1-.205,0-.154,1.025-3.486,1.181-3.9h-27.635a7.925,7.925,0,0,1,.051,1.128c0,1.9-1.333,4.05-3.435,4.05-1.692,0-2.153-.974-2.153-2.563,0-1.948,2.358-2.614,3.024-4.357a12.817,12.817,0,0,0,.564-2.514c0-.1.051-.359.205-.359a.565.565,0,0,1,.256.1,26.383,26.383,0,0,1,1.179,2.666h11.946Zm0,33.069h-9.279l-.822.82-1.589-2.822c.923.053,1.9.207,2.819.207h8.87v-2.563a19.041,19.041,0,0,0-.41-3.744h-4.152v1.335a42.177,42.177,0,0,1-4.411.972c.1-1.538.308-3.127.308-4.614V524.06a21.41,21.41,0,0,0-.308-3.486,5.7,5.7,0,0,1-.41-1.077c0-.256.308-.361.513-.361.718,0,4.923,1.9,5.641,2.206h11.073c.308-.41,1.128-1.9,1.794-1.9a4.711,4.711,0,0,1,1.64.718c.154.1,3.127,1.641,3.127,2.2,0,.461-1.333,1.281-1.589,1.487v4.716c0,1.333.1,2.717.154,4.052a25.487,25.487,0,0,1-4.767,1.023l.205-2.358h-6.664c.564.207,4.357,1.284,4.357,1.846,0,.359-1.435,1.284-1.64,1.435V537.6h5.485c.154-.207,1.692-2.307,2.153-2.307.359,0,.82.461,1.076.664l2,1.9a1.6,1.6,0,0,1,.564.974c0,.412-.256.566-.615.566l-10.663.049v6.512h9.229c.2-.256,2.151-2.717,2.666-2.717.408,0,1.126.666,1.384.923.357.307,2.817,2.2,2.817,3.025,0,.564-.613.615-.972.615h-32.812l-.82.769-1.589-2.819c.923.051,1.948.2,2.871.2h12.766Zm-11.229-34.709a20.615,20.615,0,0,1,3.591,1.333,6.349,6.349,0,0,1,3.588,3.027,7.322,7.322,0,0,1,.666,2.561,2.661,2.661,0,0,1-2.668,2.719c-2.358,0-2.461-2.153-2.666-4a7.663,7.663,0,0,0-2.2-4.616c-.1-.1-.669-.615-.669-.769C-294.966,504.732-294.71,504.681-294.608,504.681Zm19.636,24.813v-6.357h-12.3l-.666.82v5.536Z" transform="translate(301.425 -378.37)" fill="#fff"/>
        </g>
      </g>
    </g>
  </g>
</svg>
