<svg xmlns="http://www.w3.org/2000/svg" width="190" height="235" viewBox="0 0 190 235"><g transform="translate(2023 -5860)"><rect width="190" height="235" transform="translate(-2023 5860)" fill="#e9e9e9"/><path d="M109.118,212.618l16.962-19.811h17.075l-10.214-31.635s30.432,14.439,40.865,20.39S188.15,198.54,188.15,198.54v14.078ZM0,212.618V198.539s3.909-11.027,14.343-16.978,40.865-20.39,40.865-20.39L44.995,192.807H62.069l16.962,19.811Zm93.575-.085H89.6l-21.579-60.4V140.779a231.447,231.447,0,0,1-24.755-2.263c-12.108-1.879-22.005-12.34-22.005-12.34s12.658-7.41,15.916-19.566,3.542-37.966,3.453-46.758,1.949-31.647,15.549-46.987C68.529-1.065,90.114-.16,93.975.124A18.309,18.309,0,0,1,95.894.03a23.008,23.008,0,0,1,19.182,10.254c5.727-1.126,9.276-2.59,16.9,2.582,13.6,15.341,15.638,38.2,15.549,46.987s.2,34.6,3.453,46.758,15.916,19.566,15.916,19.566-9.9,10.461-22.005,12.34a231.581,231.581,0,0,1-24.755,2.264v11.355l-21.579,60.4Z" transform="translate(-2022.626 5882.382)" fill="#b7b7b7"/></g></svg>