<svg xmlns="http://www.w3.org/2000/svg" width="190" height="235.004" viewBox="0 0 190 235.004"><g transform="translate(1718 -5860)"><rect width="190" height="235" transform="translate(-1718 5860)" fill="#e9e9e9"/><path d="M93.633,210.021h-7.74L87.611,198.9l-7.135-13.316,11.272-18.811L63.16,142.84s2.28-10.967,2.212-14.359-10.444-21.543-10.444-21.543-5.686-9.853-6.974-16.853,1-12.318,1.539-14.76-3.323-7.513-4.7-13.989-3.391-26.261,10.134-43C66.882,3.549,88.719.577,93.633.086V0s.174.011.5.039c.326-.029.5-.039.5-.039V.086c4.914.491,26.751,3.462,38.7,18.253,13.525,16.735,11.51,36.52,10.134,43s-5.241,11.547-4.7,13.989,2.827,7.76,1.539,14.76-6.974,16.853-6.974,16.853-10.376,18.152-10.444,21.543,2.212,14.359,2.212,14.359L96.519,166.771l11.273,18.811L100.656,198.9l1.717,11.124Zm15.99-.442,20.951-57.109,6.73,6.824s20.752,6.748,26.682,8.186,24.279,9.3,24.279,9.3v32.8ZM0,209.579v-32.8s18.348-7.856,24.279-9.3,26.682-8.186,26.682-8.186l6.73-6.824,20.951,57.109Z" transform="translate(-1717.633 5884.983)" fill="#b7b7b7"/></g></svg>