<svg xmlns="http://www.w3.org/2000/svg" viewBox="0 0 96 96">
  <g>
    <g>
      <circle cx="48" cy="48" r="48" fill="none"/>
      <circle cx="48" cy="48" r="47.5" fill="none" stroke="#caa846"/>
    </g>
    <g>
      <path d="M49.36,53.61l5.48,5.5-5.5,5.5,2.18,2.16,7.66-7.66-7.66-7.66Z" fill="#caa846"/>
      <path d="M60.08,53.61l5.48,5.5-5.5,5.5,2.18,2.16,7.66-7.66-7.66-7.66Z" fill="#caa846"/>
      <path d="M45.39,57.58H30.06V34.46L47.58,46.58a1.54,1.54,0,0,0,1.74,0L66.84,34.46V48.39H69.9V33.06A3.06,3.06,0,0,0,66.84,30H30.06A3.06,3.06,0,0,0,27,33.06h0V57.58a3.06,3.06,0,0,0,3.06,3.06H45.39ZM63.47,33.06l-15,10.39-15-10.39Z" fill="#caa846"/>
    </g>
  </g>
</svg>
