<svg xmlns="http://www.w3.org/2000/svg" width="345.265" height="250.162" viewBox="0 0 345.265 250.162"><g transform="translate(0 0)"><g transform="translate(85.785 0)"><g transform="translate(0 0)"><path d="M-252.428,347.394h-19.033V305.733h19.033Zm-17.656-1.378h16.278V307.111h-16.278Z" transform="translate(271.461 -182.307)" fill="#caa846"/><path d="M-255.776,319.605h-14.432V290.8h14.432Zm-13.054-1.378h11.677V292.18H-268.83Z" transform="translate(272.51 -194.802)" fill="#caa846"/><path d="M-253.454,294.523h-17.622V288h17.622Zm-16.245-1.378h14.867V289.38H-269.7Z" transform="translate(271.782 -197.145)" fill="#caa846"/><path d="M-168.273,347.394h-19.035V305.733h19.035Zm-17.657-1.378h16.28V307.111h-16.28Z" transform="translate(341.882 -182.307)" fill="#caa846"/><path d="M-171.622,319.605h-14.434V290.8h14.434Zm-13.056-1.378H-173V292.18h-11.679Z" transform="translate(342.93 -194.802)" fill="#caa846"/><path d="M-169.3,294.523h-17.621V288H-169.3Zm-16.243-1.378h14.865V289.38h-14.865Z" transform="translate(342.205 -197.145)" fill="#caa846"/><g transform="translate(81.888)"><path d="M-215.6,257.005h-8.881l-2.4-18.467H-213.2Zm-7.671-1.378h6.46l2.039-15.712h-10.538Z" transform="translate(226.88 -238.538)" fill="#caa846"/></g><g transform="translate(36.474 56.753)"><path d="M-182.175,303.122h-21.089a3.611,3.611,0,0,1-1.593.977l-1.9,2.263h14.915c.2-.206,1.492-1.852,1.852-1.852.617,0,3.5,2.211,3.8,2.417s1.082.771,1.082,1.132c0,.514-1.594,1.389-1.9,1.594-2.16,4.166-4.631,8.846-9.618,9.875a34.2,34.2,0,0,1-4.526.617,9,9,0,0,0-.617-3.086c-.72-2.057-3.345-2.16-3.345-2.88a.288.288,0,0,1,.309-.257,5.7,5.7,0,0,1,1.288.257,24.525,24.525,0,0,0,4.732.771c3.855,0,5.76-3.7,7.1-6.789h-15.686c-.309.309-1.646,2.006-2.263,2.006-.362,0-.771-.566-.979-.771a25.127,25.127,0,0,1-2.467-3.292c0-.309,1.9-.823,2.109-.874l1.646-2.109h-10.082l-.926.72-1.49-2.777a26.562,26.562,0,0,0,2.777.257h32.35c.154-.206,1.644-1.8,2.006-1.8.514,0,3.084,2.469,3.084,3.137C-181.611,302.968-181.866,303.122-182.175,303.122Zm-4.322-25.51v16c0,1.492.154,3.034.259,4.526a36.911,36.911,0,0,1-4.732,1.029l.206-3.394.05-18.978h-5.812c1.131,1.131,2.366,2.366,2.366,2.829,0,.309-.2.411-.463.411-2.057.1-3.238.566-4.987.72a3.423,3.423,0,0,1,.617.874c0,.309-.617.771-.874.926v3.7h4.989c.309-.309.977-1.08,1.49-1.08s2.212,2.006,2.212,2.417c0,.36-.463.36-.667.36h-8.023v5.092a14.229,14.229,0,0,0,.2,2.006,27.8,27.8,0,0,1-4.063.669c.053-.926.208-1.954.208-2.932v-2.212a27.666,27.666,0,0,1-5.865,3.6,4.454,4.454,0,0,1-1.284.514.22.22,0,0,1-.206-.206c0-.257.564-.771.718-.977a41.014,41.014,0,0,0,4.836-5.555h-3.7l-.926.72-1.491-2.623c.926.051,1.852.206,2.777.206h5.143v-3.292a11.751,11.751,0,0,0-.208-1.9c-1.284.053-5.861.154-6.684,0-.154-.051-.67-.206-.154-.309a69.163,69.163,0,0,0,11.418-3.806c.1,0,.154-.051.257-.154h-12.654a5.963,5.963,0,0,1-.615.566v18.464l.257,2.572a45.556,45.556,0,0,1-4.528.617c.1-1.749.259-3.549.259-5.3V278.435a19.828,19.828,0,0,0-.309-3.5,6.989,6.989,0,0,1-.413-1.389c0-.154.1-.206.259-.206a1.817,1.817,0,0,1,.512.1c1.185.36,3.551,1.389,4.423,1.492a15.911,15.911,0,0,0,2.213.051c1.029-1.8,2.775-3.343,2.93-5.4a.286.286,0,0,1,.259-.154c.926,0,4.577,2.057,4.577,2.829,0,.36-1.594.669-1.853.72-1.13.977-2.261.977-3.393,2.006l15.686-.051c.255-.309,1.181-1.749,1.749-1.749.617,0,2.932,1.594,3.292,1.852.255.154,1.08.669,1.08,1.029C-185.158,276.687-186.135,277.3-186.5,277.613Zm-20.675,18.824h8.077a5.781,5.781,0,0,1,2.777-1.852c1.132-.154,3.96,3.086,3.393,3.652h-13.987l-1.185.669-2.212-3.086Zm.926-10.389c-2.16,0-1.389-2.16-2.21-3.394a2.937,2.937,0,0,1-.669-1.08.235.235,0,0,1,.257-.206c.823.206,1.7.566,2.52.823s1.8.771,1.8,1.8C-204.547,285.07-204.96,286.047-206.246,286.047Zm11.778-2.469c-1.027.206-4.217,2.006-4.886,2.006-.154,0-.2-.1-.2-.257a.384.384,0,0,1,.1-.257c.669-.823,1.337-1.594,1.9-2.417a6.284,6.284,0,0,0,.873-1.492.969.969,0,0,1,.1-.411c.566-.051,3.65,1.749,3.65,2.314C-192.926,283.681-194.107,283.527-194.468,283.579Zm.259,11.366c-1.491,0-1.853-1.492-2.316-2.623a12.266,12.266,0,0,0-1.953-2.726c-.1-.154-.876-.514-.876-.72.053-.206-.154-.36,0-.36a8.316,8.316,0,0,1,3.653.823c1.491.411,3.24,1.749,3.24,3.549A1.942,1.942,0,0,1-194.21,294.945Z" transform="translate(276.521 -269.435)" fill="#caa846"/><path d="M-209.359,309.2v-7.717a8.494,8.494,0,0,0-.154-1.644,8.131,8.131,0,0,1-.463-1.337c0-.257.154-.309.358-.309.773,0,5.349,1.131,5.349,1.954,0,.463-1.13,1.027-1.438,1.234v2.775h4.217c.154-.154,2.109-2.467,2.469-2.467s2.932,2.93,2.932,3.652c0,.358-.516.566-.825.566h-8.793V309.2h5.452c.2-.257,1.286-1.8,1.7-1.8s3.547,2.674,3.547,3.343-.872.771-1.335.825a5.443,5.443,0,0,0-1.493.463,5.546,5.546,0,0,0-1.13.771c-.206.255-1.236,1.49-1.646,1.49-.154,0-.208-.154-.208-.309a28.6,28.6,0,0,1,.825-3.137h-6.945c.362.154,2.212.722,2.212,1.236,0,.463-.617.72-.975.874V314.6l1.029-.2c.154-.309.977-1.852,1.335-1.852.413,0,2.625,1.852,2.625,2.364,0,.31-.36.413-.617.465l-4.372.926v1.543c0,.926,1.747.926,2.314.926,2.16,0,3.187-.362,3.958-2.469.156-.413.669-2.212,1.131-2.212.309,0,.309.358.309.513,0,.568-.05,1.082-.05,1.594,0,1.286.667,1.852,1.7,2.52-.206.413-.413.825-.669,1.234-1.183,2.008-5.4,1.8-7.355,1.8-.825,0-3.962,0-4.475-.771a3.032,3.032,0,0,1-.514-1.749v-2.368l-2.52.617-.566.617-1.853-1.7c-.2,8.433-.154,19.8-5.141,26.9-.154.154-1.543,2.316-1.9,2.316-.2,0-.2-.259-.2-.36a17.661,17.661,0,0,1,.667-2.16,29.367,29.367,0,0,0,1.442-5.657c1.233-7.922,1.337-16.1,1.337-24.072a20.247,20.247,0,0,0-.154-3.958,12.2,12.2,0,0,1-.463-2.212c0-.206.1-.259.257-.259.823,0,4.269,1.853,4.989,2.212Zm2.006,20a51.349,51.349,0,0,1-5.556,2.111,10.009,10.009,0,0,1-1.644.463c-.257,0-.257-.1-.257-.309a.53.53,0,0,1,.309-.413c2.16-1.183,6.016-3.65,7.2-5.81h-4.631l-.669.667-1.543-2.623c.771.053,1.6.257,2.316.257h11.675c.206-.257,1.541-2.006,1.954-2.006.463,0,2.623,2.573,2.623,3.191,0,.36-.617.514-.876.514h-8.743c.568.358,2.471,1.335,2.471,2.006,0,.358-1.236.463-1.44.463l-2.162.977a10.562,10.562,0,0,1,3.242,2.983,20.716,20.716,0,0,0,3.033-3.343c.154-.154.67-1.185.773-1.185.2,0,3.24,2.779,3.24,3.4s-1.286.512-1.648.463a37.988,37.988,0,0,1-4.73,1.9l.512,1.593c2.314,0,4.579.051,6.328,1.8a2.794,2.794,0,0,1,.977,2.006,1.923,1.923,0,0,1-1.7,2.006c-1.593,0-2.364-2.623-3.393-3.755a5,5,0,0,0-2.006-1.284,29.39,29.39,0,0,1,.36,3.6c0,4.576-1.389,6.787-5.863,7.972-.516-1.493-.874-2.674-2.52-3.242-.309-.1-1.751-.463-1.751-.926,0-.2.1-.255.309-.255.722.051,1.442.1,2.162.1,3.909,0,3.958-2.366,4.166-5.553a43.669,43.669,0,0,1-9.928,4.318,8.326,8.326,0,0,1-1.541.362.288.288,0,0,1-.309-.259c0-.358,1.389-.975,1.646-1.13a37.409,37.409,0,0,0,9.669-7.355l-.309-.617a32.4,32.4,0,0,1-7.663,3.8,8.891,8.891,0,0,1-1.543.514.332.332,0,0,1-.309-.309.443.443,0,0,1,.309-.36,36.372,36.372,0,0,0,7.867-6.429Zm-2.006-13.987v-2.162c0-.718-.154-1.49-.206-2.212h-3.754l-.825.722-.1,4.269A17.518,17.518,0,0,0-209.359,315.215Zm18.772,13.578c0,1.44.154,2.93.206,4.318-1.286.568-2.674.823-3.96,1.286.051-1.594.206-3.238.206-4.833V309.2c0-1.234-.617-2.057-.617-2.623,0-.206.154-.309.358-.309.876,0,5.145,1.234,5.145,2.055,0,.36-1.082,1.031-1.337,1.185Zm7.147,14.656c0,3.088-3.5,3.806-5.915,3.96-.152-2-.461-2.829-2.366-3.652-.255-.1-1.9-.617-1.9-.926a.437.437,0,0,1,.362-.358,35.124,35.124,0,0,0,3.96.309c1.389,0,1.953-.259,1.953-1.8V303.8a9.3,9.3,0,0,0-.667-3.137,1.335,1.335,0,0,1-.154-.617.274.274,0,0,1,.257-.255c.926,0,6.12,1.286,6.12,2.057,0,.463-1.339,1.234-1.648,1.44Z" transform="translate(276.756 -245.371)" fill="#caa846"/><path d="M-251.548,314.2a6.935,6.935,0,0,1,.411-1.234,51.568,51.568,0,0,0,2.212-7.766,12.152,12.152,0,0,0,.411-2.314c0-.257-.051-.463-.051-.669,0-.154.051-.309.2-.309a23.519,23.519,0,0,1,3.859,1.44c.309.154,1.13.514,1.13.977,0,.514-.821.874-1.181,1.029-1.749,2.932-3.394,5.915-5.865,8.28-.154.206-.667.874-.926.874C-251.548,314.4-251.548,314.3-251.548,314.2Zm3.7-13.835-.926.669-1.749-2.674c.977.1,2.109.309,3.084.309h4.68V296.5a11.292,11.292,0,0,0-.309-2.932h-5.5l-.928.669-1.747-2.674c.975.1,2.109.309,3.086.309h8.023a55.575,55.575,0,0,0,2.314-8.075,15.276,15.276,0,0,1,.255-1.646c.979-.051,3.7,1.7,4.476,2.211a1.2,1.2,0,0,1,.514.874c0,.514-1.082.669-1.44.72-1.543,2.006-3.137,4.012-4.732,5.915h3.446c.206-.257,1.594-2.16,2.16-2.16a1.425,1.425,0,0,1,.924.617c.309.36,2.111,2.263,2.111,2.777,0,.411-.617.463-.876.463H-238.9c.36.206,1.181.617,1.181,1.029s-.771.823-1.027.977v3.086h2.314c.154-.154,1.85-2.211,2.263-2.211.309,0,.771.514.926.72.358.36,2.16,2.109,2.16,2.777,0,.309-.257.411-.516.411h-7.147v9.978a37.382,37.382,0,0,0,.463,5.812l-4.989,1.491a42.438,42.438,0,0,0,.512-6.635V300.362Zm13.989-22.475c.309,0,.821.566,1.08.771.206.257,2.057,2.006,2.057,2.674a.517.517,0,0,1-.514.514h-17.075l-.926.617-1.749-2.623c.977.051,2.057.257,3.084.257h11.726C-236.067,280-234.37,277.887-233.856,277.887Zm-13.938,4.732c.771,0,2.932,1.492,3.65,2.006a4.206,4.206,0,0,1,1.853,2.263,6.466,6.466,0,0,1,.257,1.7,2.066,2.066,0,0,1-1.956,2.16c-2.775,0-1.7-4.32-2.93-6.172a9.281,9.281,0,0,1-1.08-1.8C-248,282.67-247.9,282.618-247.794,282.618Zm2.212-12.344a17.922,17.922,0,0,1,2.827,1.132c2.366,1.029,4.115,2.573,4.115,5.349a2.03,2.03,0,0,1-2.057,2.057,2.264,2.264,0,0,1-1.8-.874c-.977-1.337-.722-3.652-1.7-5.092-.514-.72-1.029-1.337-1.594-2.006-.051-.1-.206-.206-.206-.307C-245.839,270.326-245.736,270.275-245.582,270.275Zm8.435,33.122a13.756,13.756,0,0,1,2.623,1.749,4.824,4.824,0,0,1,2.16,3.96,2.072,2.072,0,0,1-1.9,2.211,2.006,2.006,0,0,1-1.8-1.131c-.206-.514-.259-3.549-.568-4.629-.1-.463-.771-1.749-.771-1.954C-237.3,303.4-237.2,303.4-237.147,303.4Zm20.161-13.064c.255-.309,1.749-2.212,2.263-2.212s3.086,2.88,3.086,3.446a.54.54,0,0,1-.566.566h-3.96l-.823.977v18.464c0,1.9.206,3.909.309,5.812a15.245,15.245,0,0,1-4.734,1.183c.1-2.057.362-4.166.362-6.223.1-6.737,0-13.475,0-20.212h-3.808c-.255,7.818.208,15.635-5.6,21.807a22.77,22.77,0,0,1-4.475,3.857,2.9,2.9,0,0,1-1.029.566c-.1,0-.257-.051-.257-.206,0-.206,2.57-3.137,2.932-3.549a16.179,16.179,0,0,0,2.366-5.246c1.7-5.606,1.749-12.035,1.749-17.847v-8.9a30.848,30.848,0,0,0-.206-5.76,4.5,4.5,0,0,0-.463-1.543,1.229,1.229,0,0,1-.257-.72c0-.257.05-.411.309-.411,1.08,0,4.318,1.389,5.553,1.954,2.212-.874,3.754-1.594,5.916-2.674a7.192,7.192,0,0,0,1.337-.823c.1-.1.41-.36.564-.36.259,0,.413.463.568.617.206.36,2.829,3.96,2.829,4.783,0,.206-.309.309-.514.309a11.03,11.03,0,0,1-1.288-.154,11.732,11.732,0,0,0-1.284-.1c-2.674,0-5.349.206-7.974.309l-.617.823c-.05,3.806-.05,7.612-.1,11.469Z" transform="translate(251.651 -268.732)" fill="#caa846"/><path d="M-248.724,311.505l-.722.568L-251.3,309.5c1.133.1,2.368.309,3.5.309h13.989v-4.577c-3.446.156-6.892.31-10.338.31-1.029,0-2.057,0-3.034-.051-.208,0-.566,0-.566-.309,0-.568,1.747-.617,2.16-.671,4.318-.615,8.589-1.49,12.858-2.52a58.2,58.2,0,0,0,8.743-2.467,4.313,4.313,0,0,0,1.7-.977c.053-.051.413-.411.516-.411.823,0,4.318,4.423,4.318,4.989,0,.617-3.754.669-4.113.669-.722.05-1.491.2-2.212.309-2.16.309-4.322.564-6.48.821.514.259,2.057,1.03,2.057,1.648,0,.514-.874.977-1.234,1.181v2.057h11.056c.309-.309,2.059-2.314,2.573-2.314.718,0,2.829,2.265,3.292,2.728a1.145,1.145,0,0,1,.41.771c0,.41-.463.512-.821.512H-228.1a34.171,34.171,0,0,0,8.795,6.017,30.548,30.548,0,0,0,6.328,2.522c.36.1,1.543.255,1.543.77s-1.492.67-1.9.771c-1.337.309-2.314,1.7-2.983,2.829-6.429-3.137-9.772-6.326-12.705-12.909h-.41V315c0,1.956.154,3.909.257,5.865a22.89,22.89,0,0,1-4.888.926,72.3,72.3,0,0,0,.259-7.459,45.163,45.163,0,0,1-16.3,10.7,5.424,5.424,0,0,1-1.286.463.233.233,0,0,1-.206-.255c0-.362,1.594-1.288,1.9-1.543a48.648,48.648,0,0,0,12.086-12.191Zm5.915,13.681-.67.67-1.953-2.674c1.131.1,2.366.307,3.5.307h14.2c.309-.41,1.335-2.057,2-2.057.771,0,2.985,1.852,3.5,2.265.309.2.823.617.823,1.027,0,.516-1.131,1.08-1.545,1.339q-.537,2.157-1.08,4.318h3.653c.154-.206,1.594-2,1.954-2,.411,0,4.267,2.878,4.267,3.547s-1.13,1.03-1.543,1.234c-.309,1.131-.514,2.316-.77,3.5a21.7,21.7,0,0,1-2.263,6.174,6.227,6.227,0,0,1-2.983,2.878c-2.983,1.234-6.071,1.286-9.258,1.44,0-1.749.154-3.6-1.646-4.526-.411-.206-1.954-.77-1.954-1.337,0-.154.2-.257.358-.257a13.153,13.153,0,0,1,2.316.463,26.453,26.453,0,0,0,4.989.617c3.5,0,4.732-1.7,5.606-4.835.463-1.749.718-3.446,1.027-5.244h-3.909c-.255.358-1.181,1.852-1.747,1.852-.72,0-3.806-2.11-3.806-2.674,0-.362,1.234-1.185,1.49-1.339.362-1.543.67-3.086.926-4.68H-235.3c.568.208,2.882.926,2.882,1.7,0,.36-1.185,1.03-1.389,1.185-1.648,5.812-4.013,11.315-9.1,14.915a25.474,25.474,0,0,1-4.063,2.52,13.822,13.822,0,0,1-2.212.975.244.244,0,0,1-.259-.257c0-.154.154-.309.309-.41a30.508,30.508,0,0,0,4.886-5.094,31.551,31.551,0,0,0,5.5-12.549,11.583,11.583,0,0,0,.411-2.983Z" transform="translate(251.604 -245.418)" fill="#caa846"/></g><g transform="translate(1.929 1.626)"><path d="M-244.115,261.8c-26.23,26.384-26.3,67.153-26.3,67.56l1.378-.007c0-.4.075-40.62,25.9-66.591,13.464-13.536,31.54-20.9,53.762-21.972l-.178-1.368C-212.073,240.536-230.423,248.029-244.115,261.8Z" transform="translate(270.411 -239.423)" fill="#caa846"/><path d="M-170.091,262.649c25.828,25.971,25.9,66.187,25.9,66.591l1.378.007c0-.408-.064-41.176-26.3-67.562-12.911-12.986-29.968-20.389-50.759-22.125l-.178,1.374C-199.561,242.631-182.776,249.894-170.091,262.649Z" transform="translate(312.56 -239.308)" fill="#caa846"/><path d="M-178.628,266.8c21.768,21.888,21.834,55.792,21.833,56.132l1.378.007c0-.345-.053-34.8-22.226-57.1-10.979-11.043-25.488-17.325-43.2-18.749l-.182,1.394C-203.625,249.873-189.377,256-178.628,266.8Z" transform="translate(311.741 -233.005)" fill="#caa846"/><path d="M-240.874,265.946c-22.172,22.3-22.229,56.758-22.227,57.1l1.378-.007c0-.34.066-34.244,21.834-56.132,11.522-11.587,27.067-17.793,46.205-18.543l-.182-1.4C-213.316,247.75-229.116,254.12-240.874,265.946Z" transform="translate(276.528 -233.111)" fill="#caa846"/></g></g></g><path d="M-34.29-3.294a4.871,4.871,0,0,0-1.367-3.053,4.157,4.157,0,0,0-2.932-1.091,4.5,4.5,0,0,0-2.116.507,5.067,5.067,0,0,0-1.675,1.422,6.789,6.789,0,0,0-1.091,2.16,9.163,9.163,0,0,0-.386,2.722,8.528,8.528,0,0,0,.705,3.56A5.724,5.724,0,0,0-41.2,5.347a4.867,4.867,0,0,0,2.832.86,6.3,6.3,0,0,0,2.788-.672A6.1,6.1,0,0,0-33.3,3.627l.727.617a8.135,8.135,0,0,1-2.116,2.094,6.988,6.988,0,0,1-2.237.981,9.163,9.163,0,0,1-2.017.253,7.641,7.641,0,0,1-3.042-.6,7.042,7.042,0,0,1-2.392-1.664,7.482,7.482,0,0,1-1.543-2.491,8.588,8.588,0,0,1-.54-3.075,9.62,9.62,0,0,1,.485-3.02A8.639,8.639,0,0,1-44.539-5.95a6.8,6.8,0,0,1,2.392-1.907,7.571,7.571,0,0,1,3.361-.705,7.868,7.868,0,0,1,2.193.309,7.775,7.775,0,0,1,2.061.948l-.11-1.1h1.367v5.114ZM-30.124,7.22V6.228a1.372,1.372,0,0,0,1.014-.353,2.816,2.816,0,0,0,.6-.959q.242-.606.529-1.356l4.452-12.189h.882l4.827,12.366q.176.419.4,1.135a3.721,3.721,0,0,1,.2,1.223q.375-.044.738-.055t.694-.033V7.22h-5.356V6.25a1.324,1.324,0,0,0,1.025-.342,1.015,1.015,0,0,0,.2-.782,3.885,3.885,0,0,0-.231-.926l-.661-1.785-5.4.132-.639,1.918q-.132.441-.287.838t-.309.771q.4-.044.849-.055t.8-.033V7.22Zm4.3-5.863H-21.2l-1.389-3.725q-.265-.727-.507-1.444t-.441-1.378h-.022q-.176.551-.4,1.212t-.507,1.433ZM-.632,7.529-8.832-3.36q-.242-.287-.463-.6t-.463-.639h-.022l.066,8.574q0,.551-.011,1.1T-9.779,6.1q.375-.044.827-.055t.782-.033V7.22h-4.364V6.25a1.533,1.533,0,0,0,.937-.242,1.233,1.233,0,0,0,.441-.639,3.178,3.178,0,0,0,.121-.926V-6.314q0-.441.022-.771-.353.022-.782.044t-.76.044V-8.209h2.91L-1.888,2q.375.485.672.9t.584.794H-.61l.022-9.059q0-.485.022-.937t.044-.782l-.838.044Q-1.8-7.019-2.131-7V-8.209H2.234v.97a1.636,1.636,0,0,0-1.025.3,1.246,1.246,0,0,0-.4.794A9.567,9.567,0,0,0,.735-4.793L.713,7.529ZM18.016-3.448a7.5,7.5,0,0,0-.287-2.094A2.309,2.309,0,0,0,16.858-6.8a2.784,2.784,0,0,0-1.664-.4H13.607L13.585,4.267q0,.6-.011,1.069a6.163,6.163,0,0,1-.055.76q.419-.044.915-.055t.893-.033V7.22h-5.6V6.25a1.766,1.766,0,0,0,1.036-.309,1.291,1.291,0,0,0,.4-.8A8.47,8.47,0,0,0,11.249,3.8V-7.173L9.4-7.151a2.206,2.206,0,0,0-1.962.9,5.033,5.033,0,0,0-.617,2.8H5.782l.132-4.761h13l.132,4.761ZM30.447,7.573a8.3,8.3,0,0,1-3.582-.705,6.6,6.6,0,0,1-2.414-1.885,8.009,8.009,0,0,1-1.367-2.612,9.7,9.7,0,0,1-.441-2.865,8.849,8.849,0,0,1,.474-2.81,8.339,8.339,0,0,1,1.433-2.612,7.194,7.194,0,0,1,2.4-1.918,7.43,7.43,0,0,1,3.383-.727,7.782,7.782,0,0,1,3.494.727,6.966,6.966,0,0,1,2.414,1.929,8.628,8.628,0,0,1,1.422,2.612,8.749,8.749,0,0,1,.474,2.8,8.786,8.786,0,0,1-.474,2.788,8.474,8.474,0,0,1-1.433,2.623,7.165,7.165,0,0,1-2.392,1.929A7.413,7.413,0,0,1,30.447,7.573Zm.11-1.146a4.161,4.161,0,0,0,2.215-.573,4.728,4.728,0,0,0,1.543-1.532,7.143,7.143,0,0,0,.893-2.116,9.553,9.553,0,0,0,.287-2.3,11.094,11.094,0,0,0-.331-2.722,7.907,7.907,0,0,0-1-2.358A5.179,5.179,0,0,0,32.5-6.832,4.307,4.307,0,0,0,30.2-7.438a4.1,4.1,0,0,0-2.226.6,4.8,4.8,0,0,0-1.543,1.554,7.55,7.55,0,0,0-.893,2.116,9.3,9.3,0,0,0-.3,2.325,10.344,10.344,0,0,0,.309,2.425A8.861,8.861,0,0,0,26.5,3.958a5.406,5.406,0,0,0,1.642,1.785A4.183,4.183,0,0,0,30.557,6.427Zm23.585,1.1L45.943-3.36q-.242-.287-.463-.6t-.463-.639h-.022l.066,8.574q0,.551-.011,1.1T44.995,6.1q.375-.044.827-.055t.782-.033V7.22H42.24V6.25a1.533,1.533,0,0,0,.937-.242,1.233,1.233,0,0,0,.441-.639,3.178,3.178,0,0,0,.121-.926V-6.314q0-.441.022-.771-.353.022-.782.044T42.218-7V-8.209h2.91L52.886,2q.375.485.672.9t.584.794h.022l.022-9.059q0-.485.022-.937t.044-.782l-.838.044q-.441.022-.771.044V-8.209h4.364v.97a1.636,1.636,0,0,0-1.025.3,1.246,1.246,0,0,0-.4.794,9.567,9.567,0,0,0-.077,1.356L55.487,7.529ZM68.91,1.644A2.571,2.571,0,0,0,68.635.277a1.192,1.192,0,0,0-.827-.518A6.046,6.046,0,0,0,66.442-.3l-1.278.044V4.333q0,.6-.011,1.047a5.988,5.988,0,0,1-.055.738l3.791-.044a4.1,4.1,0,0,0,1.543-.32,2.24,2.24,0,0,0,1.08-1.025,4.166,4.166,0,0,0,.4-1.984h.97L72.746,7.22H61.284V6.25a1.825,1.825,0,0,0,1.047-.309,1.253,1.253,0,0,0,.408-.794A8.427,8.427,0,0,0,62.827,3.8V-5.366q0-.485.022-.937t.044-.782q-.375.022-.816.044T61.284-7V-8.209H72.04l.11,3.99h-.97a3.685,3.685,0,0,0-.408-1.918,1.98,1.98,0,0,0-1.058-.882,3.964,3.964,0,0,0-1.4-.2l-1.543.044a1.9,1.9,0,0,0-1.036.231,1.127,1.127,0,0,0-.463.749,7.025,7.025,0,0,0-.11,1.4v3.461H68.8l-.132-1.9H69.88V1.644Zm17.06-5.092A5.606,5.606,0,0,0,85.4-5.476,3.744,3.744,0,0,0,84.119-6.92a3.477,3.477,0,0,0-2.028-.518,2.749,2.749,0,0,0-1.962.683A2.185,2.185,0,0,0,79.4-5.1a2.185,2.185,0,0,0,.485,1.444A4.6,4.6,0,0,0,81.2-2.611q.827.463,1.863.926.838.353,1.7.794a9.342,9.342,0,0,1,1.565,1,4.3,4.3,0,0,1,1.124,1.345A3.845,3.845,0,0,1,87.866,3.3a3.915,3.915,0,0,1-.639,2.2,4.288,4.288,0,0,1-1.818,1.521,6.705,6.705,0,0,1-2.854.551,7.559,7.559,0,0,1-1.995-.287,7.284,7.284,0,0,1-1.907-.816l.11.926H77.418L77.33,2.547h1.058a4.03,4.03,0,0,0,1.378,2.9,4.4,4.4,0,0,0,2.876.981,3.654,3.654,0,0,0,1.521-.309,2.565,2.565,0,0,0,1.08-.882,2.3,2.3,0,0,0,.4-1.345,2.228,2.228,0,0,0-.54-1.521,4.777,4.777,0,0,0-1.367-1.058Q82.907.872,82,.475T80.251-.362a8.4,8.4,0,0,1-1.532-1.014,4.28,4.28,0,0,1-1.08-1.356,4.021,4.021,0,0,1-.4-1.841,4.237,4.237,0,0,1,.22-1.3,3.784,3.784,0,0,1,.749-1.3,3.808,3.808,0,0,1,1.444-1,5.959,5.959,0,0,1,2.3-.386,8.439,8.439,0,0,1,1.885.242,5.277,5.277,0,0,1,1.907.86l-.088-.926h1.323v4.937Zm13.8,5.092A2.571,2.571,0,0,0,99.493.277a1.192,1.192,0,0,0-.827-.518A6.046,6.046,0,0,0,97.3-.3l-1.278.044V4.333q0,.6-.011,1.047a5.987,5.987,0,0,1-.055.738l3.791-.044a4.1,4.1,0,0,0,1.543-.32,2.24,2.24,0,0,0,1.08-1.025,4.166,4.166,0,0,0,.4-1.984h.97L103.6,7.22H92.142V6.25a1.825,1.825,0,0,0,1.047-.309,1.253,1.253,0,0,0,.408-.794A8.428,8.428,0,0,0,93.685,3.8V-5.366q0-.485.022-.937t.044-.782q-.375.022-.816.044T92.142-7V-8.209H102.9l.11,3.99h-.97a3.685,3.685,0,0,0-.408-1.918,1.98,1.98,0,0,0-1.058-.882,3.964,3.964,0,0,0-1.4-.2l-1.543.044a1.9,1.9,0,0,0-1.036.231,1.127,1.127,0,0,0-.463.749,7.025,7.025,0,0,0-.11,1.4v3.461h3.637l-.132-1.9h1.212V1.644ZM123.64,7.573a8.3,8.3,0,0,1-3.582-.705,6.6,6.6,0,0,1-2.414-1.885,8.009,8.009,0,0,1-1.367-2.612,9.7,9.7,0,0,1-.441-2.865,8.849,8.849,0,0,1,.474-2.81,8.339,8.339,0,0,1,1.433-2.612,7.194,7.194,0,0,1,2.4-1.918,7.43,7.43,0,0,1,3.383-.727,7.782,7.782,0,0,1,3.494.727,6.966,6.966,0,0,1,2.414,1.929,8.628,8.628,0,0,1,1.422,2.612,8.75,8.75,0,0,1,.474,2.8,8.786,8.786,0,0,1-.474,2.788,8.473,8.473,0,0,1-1.433,2.623,7.165,7.165,0,0,1-2.392,1.929A7.413,7.413,0,0,1,123.64,7.573Zm.11-1.146a4.161,4.161,0,0,0,2.215-.573,4.728,4.728,0,0,0,1.543-1.532,7.143,7.143,0,0,0,.893-2.116,9.554,9.554,0,0,0,.287-2.3,11.094,11.094,0,0,0-.331-2.722,7.907,7.907,0,0,0-1-2.358,5.179,5.179,0,0,0-1.664-1.653,4.307,4.307,0,0,0-2.292-.606,4.1,4.1,0,0,0-2.226.6,4.8,4.8,0,0,0-1.543,1.554,7.55,7.55,0,0,0-.893,2.116,9.3,9.3,0,0,0-.3,2.325,10.344,10.344,0,0,0,.309,2.425,8.86,8.86,0,0,0,.948,2.381,5.406,5.406,0,0,0,1.642,1.785A4.183,4.183,0,0,0,123.751,6.427Zm11.638-.176a1.825,1.825,0,0,0,1.047-.309,1.253,1.253,0,0,0,.408-.794,8.428,8.428,0,0,0,.088-1.345V-5.366q0-.485.022-.937T137-7.085q-.375.022-.816.044T135.389-7V-8.209q1.3-.022,2.645-.033t2.733-.011a10.9,10.9,0,0,1,3.516.5,4.648,4.648,0,0,1,2.226,1.5,4.08,4.08,0,0,1,.8,2.524A4.836,4.836,0,0,1,147-1.96a4.567,4.567,0,0,1-1.124,1.7A5.787,5.787,0,0,1,143.732,1a10.227,10.227,0,0,1-3.405.485q-.22.022-.5.022t-.562-.022V4.267q0,.6-.011,1.069a6.162,6.162,0,0,1-.055.76l.661-.044q.353-.022.694-.033t.628-.033V7.22h-5.8ZM139.268.321q.375.044.65.055t.65.011a4.913,4.913,0,0,0,2.182-.463,3.445,3.445,0,0,0,1.477-1.345,3.994,3.994,0,0,0,.529-2.094,4.354,4.354,0,0,0-.32-1.774,2.722,2.722,0,0,0-.882-1.124A3.624,3.624,0,0,0,142.266-7a6.531,6.531,0,0,0-1.543-.176,1.471,1.471,0,0,0-.97.265,1.259,1.259,0,0,0-.4.771,7.836,7.836,0,0,0-.088,1.3Zm19.441,1.323a2.571,2.571,0,0,0-.276-1.367,1.192,1.192,0,0,0-.827-.518A6.046,6.046,0,0,0,156.24-.3l-1.278.044V4.333q0,.6-.011,1.047a5.986,5.986,0,0,1-.055.738l3.791-.044a4.1,4.1,0,0,0,1.543-.32,2.24,2.24,0,0,0,1.08-1.025,4.166,4.166,0,0,0,.4-1.984h.97l-.132,4.475H151.083V6.25a1.825,1.825,0,0,0,1.047-.309,1.253,1.253,0,0,0,.408-.794,8.428,8.428,0,0,0,.088-1.345V-5.366q0-.485.022-.937t.044-.782q-.375.022-.816.044T151.083-7V-8.209h10.756l.11,3.99h-.97a3.685,3.685,0,0,0-.408-1.918,1.98,1.98,0,0,0-1.058-.882,3.964,3.964,0,0,0-1.4-.2l-1.543.044a1.9,1.9,0,0,0-1.036.231,1.127,1.127,0,0,0-.463.749,7.025,7.025,0,0,0-.11,1.4v3.461H158.6l-.132-1.9h1.212V1.644Zm8.31,5.577V6.25a1.825,1.825,0,0,0,1.047-.309,1.253,1.253,0,0,0,.408-.794,8.426,8.426,0,0,0,.088-1.345V-5.366q0-.485.022-.937t.044-.782q-.375.022-.816.044T167.019-7V-8.209q1.345-.022,2.711-.033t2.755.011a10.426,10.426,0,0,1,3.417.474,4.074,4.074,0,0,1,2.017,1.4,3.769,3.769,0,0,1,.65,2.336,4.132,4.132,0,0,1-.353,1.752A3.956,3.956,0,0,1,176.96-.715,6.186,6.186,0,0,1,174.535.321a2.838,2.838,0,0,1,.794.727q.353.463.727,1.036L177.4,4.156q.419.661.771,1.124a2.687,2.687,0,0,0,.794.716,2.089,2.089,0,0,0,1.058.253v.97H176.96a5.955,5.955,0,0,1-.981-1.047q-.408-.562-.871-1.267l-1.521-2.469q-.287-.441-.606-.948a4.378,4.378,0,0,0-.694-.86H170.9V4.267q0,.6-.011,1.069a6.164,6.164,0,0,1-.055.76q.264-.022.562-.033t.6-.033q.3-.022.518-.022V7.22ZM172.177-.45a5.572,5.572,0,0,0,2.072-.386,2.763,2.763,0,0,0,1.323-1.124,3.752,3.752,0,0,0,.463-1.973,3.864,3.864,0,0,0-.264-1.521,2.526,2.526,0,0,0-.749-1,2.971,2.971,0,0,0-1.157-.551,6.033,6.033,0,0,0-1.444-.165,1.6,1.6,0,0,0-1.025.265,1.233,1.233,0,0,0-.408.771,7.836,7.836,0,0,0-.088,1.3v4.32q.331.022.628.055A3.775,3.775,0,0,0,172.177-.45Zm10.8,7.671V6.228a1.372,1.372,0,0,0,1.014-.353,2.816,2.816,0,0,0,.6-.959q.242-.606.529-1.356l4.452-12.189h.882l4.827,12.366q.176.419.4,1.135a3.72,3.72,0,0,1,.2,1.223q.375-.044.738-.055t.694-.033V7.22h-5.356V6.25a1.324,1.324,0,0,0,1.025-.342,1.015,1.015,0,0,0,.2-.782,3.885,3.885,0,0,0-.231-.926l-.661-1.785-5.4.132-.639,1.918q-.132.441-.287.838t-.309.771q.4-.044.849-.055t.8-.033V7.22Zm4.3-5.863H191.9l-1.389-3.725q-.265-.727-.507-1.444t-.441-1.378h-.022q-.176.551-.4,1.212t-.507,1.433ZM-89.549,40.283v-.97A1.766,1.766,0,0,0-88.513,39a1.291,1.291,0,0,0,.4-.8,8.47,8.47,0,0,0,.088-1.334l.022-2.314L-91.93,28.38a14.806,14.806,0,0,1-.738-1.367,3.373,3.373,0,0,1-.32-.992q-.353.022-.661.022t-.617.022V24.854h5.951v.97a2.322,2.322,0,0,0-1.289.242.763.763,0,0,0-.364.76,2.831,2.831,0,0,0,.441,1.157l1.741,2.777q.176.265.4.617t.452.716q.231.364.43.738h.044q.2-.419.452-.893t.518-1.047l1.631-3.108q.11-.22.287-.551t.386-.672A3.036,3.036,0,0,1-82.76,26q-.4.022-.871.033t-.849.033V24.854h4.607v.97a2.6,2.6,0,0,0-1.62.716,8.246,8.246,0,0,0-1.378,1.973Q-83.6,29.9-84.3,31.235t-1.367,2.612q0,.353-.011.9t-.011,1.1V37.33q0,.6-.011,1.069a6.162,6.162,0,0,1-.055.76q.441-.044.937-.055t.871-.033v1.212Zm19.992.353a8.3,8.3,0,0,1-3.582-.705,6.6,6.6,0,0,1-2.414-1.885,8.009,8.009,0,0,1-1.367-2.612,9.7,9.7,0,0,1-.441-2.865,8.848,8.848,0,0,1,.474-2.81,8.339,8.339,0,0,1,1.433-2.612,7.194,7.194,0,0,1,2.4-1.918,7.43,7.43,0,0,1,3.383-.727,7.782,7.782,0,0,1,3.494.727,6.966,6.966,0,0,1,2.414,1.929,8.628,8.628,0,0,1,1.422,2.612,8.749,8.749,0,0,1,.474,2.8,8.786,8.786,0,0,1-.474,2.788,8.474,8.474,0,0,1-1.433,2.623,7.165,7.165,0,0,1-2.392,1.929A7.413,7.413,0,0,1-69.557,40.636Zm.11-1.146a4.161,4.161,0,0,0,2.215-.573,4.728,4.728,0,0,0,1.543-1.532,7.143,7.143,0,0,0,.893-2.116,9.554,9.554,0,0,0,.287-2.3,11.093,11.093,0,0,0-.331-2.722,7.907,7.907,0,0,0-1-2.358,5.179,5.179,0,0,0-1.664-1.653,4.307,4.307,0,0,0-2.292-.606,4.1,4.1,0,0,0-2.226.6,4.8,4.8,0,0,0-1.543,1.554,7.55,7.55,0,0,0-.893,2.116,9.3,9.3,0,0,0-.3,2.325,10.345,10.345,0,0,0,.309,2.425,8.86,8.86,0,0,0,.948,2.381,5.406,5.406,0,0,0,1.642,1.785A4.183,4.183,0,0,0-69.447,39.49Zm16.62-13.666a1.628,1.628,0,0,0-.97.242,1.156,1.156,0,0,0-.441.65,3.507,3.507,0,0,0-.11.915V33.34a12.361,12.361,0,0,0,.209,2.37,5.639,5.639,0,0,0,.683,1.852,3.311,3.311,0,0,0,1.3,1.223,4.418,4.418,0,0,0,2.017.463,4.143,4.143,0,0,0,2.425-.661,3.968,3.968,0,0,0,1.422-1.9,8.487,8.487,0,0,0,.5-2.932l.044-6.062q0-.485.022-.937t.044-.782q-.375.022-.816.044t-.794.044V24.854h4.452v.97a1.729,1.729,0,0,0-1.058.3,1.266,1.266,0,0,0-.419.794,8.388,8.388,0,0,0-.088,1.356l-.022,5.246a10.831,10.831,0,0,1-.364,2.9,6.423,6.423,0,0,1-1.1,2.259,4.83,4.83,0,0,1-1.874,1.455,6.523,6.523,0,0,1-2.678.507,8.106,8.106,0,0,1-3-.485,4.372,4.372,0,0,1-1.929-1.444A6.071,6.071,0,0,1-56.4,36.349a15.1,15.1,0,0,1-.309-3.229V28.358q0-.6.033-1.3t.055-1.08q-.375.022-.816.033t-.794.033v-1.19h5.4Zm25.921,14.768-8.2-10.889q-.242-.287-.463-.6t-.463-.639h-.022l.066,8.574q0,.551-.011,1.1t-.055,1.014q.375-.044.827-.055t.782-.033v1.212h-4.364v-.97a1.533,1.533,0,0,0,.937-.242,1.233,1.233,0,0,0,.441-.639,3.178,3.178,0,0,0,.121-.926V26.749q0-.441.022-.771-.353.022-.782.044t-.76.044V24.854h2.91l7.759,10.205q.375.485.672.9t.584.794h.022l.022-9.059q0-.485.022-.937t.044-.782l-.838.044q-.441.022-.771.044V24.854h4.364v.97a1.636,1.636,0,0,0-1.025.3,1.246,1.246,0,0,0-.4.794,9.567,9.567,0,0,0-.077,1.356l-.022,12.321Zm14.261.044a7.814,7.814,0,0,1-3.946-.97,6.642,6.642,0,0,1-2.623-2.722,8.629,8.629,0,0,1-.926-4.089,9.825,9.825,0,0,1,.474-3.02,8.473,8.473,0,0,1,1.433-2.689,6.961,6.961,0,0,1,2.4-1.929,7.473,7.473,0,0,1,3.361-.716,9.256,9.256,0,0,1,1.521.132,9.451,9.451,0,0,1,1.554.4,7.21,7.21,0,0,1,1.378.639L-8.1,24.655h1.367v5.07H-7.751a4.546,4.546,0,0,0-.738-2.237A4.074,4.074,0,0,0-10.1,26.1a4.925,4.925,0,0,0-2.171-.474,4.4,4.4,0,0,0-2.127.518,5.23,5.23,0,0,0-1.664,1.433,6.808,6.808,0,0,0-1.091,2.149,8.821,8.821,0,0,0-.386,2.645,9.111,9.111,0,0,0,.672,3.6,5.821,5.821,0,0,0,1.907,2.48,4.756,4.756,0,0,0,2.887.9,7.459,7.459,0,0,0,1.157-.1,7.831,7.831,0,0,0,1.256-.309,4.908,4.908,0,0,0,1.135-.54V35.941q0-.551.011-1.091t.011-1q-.353.022-.794.044t-.771.044V32.723H-4.8v.97a1.369,1.369,0,0,0-.849.242,1.387,1.387,0,0,0-.463.606,2.964,2.964,0,0,0-.187.771,7.1,7.1,0,0,0-.044.76v3.439h-.573a4.861,4.861,0,0,0-1.08.143,11.542,11.542,0,0,0-1.389.43,9.7,9.7,0,0,1-1.565.4A9.847,9.847,0,0,1-12.645,40.636ZM18.522,29.615a7.5,7.5,0,0,0-.287-2.094,2.309,2.309,0,0,0-.871-1.256,2.784,2.784,0,0,0-1.664-.4H14.114L14.092,37.33q0,.6-.011,1.069a6.16,6.16,0,0,1-.055.76q.419-.044.915-.055t.893-.033v1.212h-5.6v-.97A1.766,1.766,0,0,0,11.271,39a1.291,1.291,0,0,0,.4-.8,8.47,8.47,0,0,0,.088-1.334V25.89L9.9,25.912a2.206,2.206,0,0,0-1.962.9,5.033,5.033,0,0,0-.617,2.8H6.289l.132-4.761h13l.132,4.761ZM21.41,40.283v-.992a1.372,1.372,0,0,0,1.014-.353,2.816,2.816,0,0,0,.6-.959q.242-.606.529-1.356L28,24.435h.882L33.709,36.8q.176.419.4,1.135a3.721,3.721,0,0,1,.2,1.223q.375-.044.738-.055t.694-.033v1.212H30.381v-.97a1.324,1.324,0,0,0,1.025-.342,1.015,1.015,0,0,0,.2-.782,3.885,3.885,0,0,0-.231-.926l-.661-1.785-5.4.132-.639,1.918q-.132.441-.287.838t-.309.771q.4-.044.849-.055t.8-.033v1.234Zm4.3-5.863h4.629l-1.389-3.725q-.265-.727-.507-1.444T28,27.873h-.022q-.176.551-.4,1.212t-.507,1.433Zm13.247,5.863v-.97A1.825,1.825,0,0,0,40,39a1.253,1.253,0,0,0,.408-.794,8.428,8.428,0,0,0,.088-1.345V27.7q0-.485.022-.937t.044-.782q-.375.022-.816.044t-.794.044V24.854h5.422v.97a1.688,1.688,0,0,0-1.036.3,1.266,1.266,0,0,0-.419.794,8.388,8.388,0,0,0-.088,1.356V37.4q0,.6-.011,1.047a5.987,5.987,0,0,1-.055.738l3.725-.044a2.634,2.634,0,0,0,2.094-.893,4.284,4.284,0,0,0,.727-2.766h.992l-.132,4.805Zm22.769-5.577a2.571,2.571,0,0,0-.276-1.367,1.192,1.192,0,0,0-.827-.518,6.046,6.046,0,0,0-1.367-.055l-1.278.044V37.4q0,.6-.011,1.047a5.988,5.988,0,0,1-.055.738l3.791-.044a4.1,4.1,0,0,0,1.543-.32,2.24,2.24,0,0,0,1.08-1.025,4.166,4.166,0,0,0,.4-1.984h.97l-.132,4.475H54.1v-.97A1.825,1.825,0,0,0,55.145,39a1.253,1.253,0,0,0,.408-.794,8.427,8.427,0,0,0,.088-1.345V27.7q0-.485.022-.937t.044-.782q-.375.022-.816.044t-.794.044V24.854H64.855l.11,3.99h-.97a3.685,3.685,0,0,0-.408-1.918,1.98,1.98,0,0,0-1.058-.882,3.964,3.964,0,0,0-1.4-.2l-1.543.044a1.9,1.9,0,0,0-1.036.231,1.127,1.127,0,0,0-.463.749,7.025,7.025,0,0,0-.11,1.4v3.461h3.637l-.132-1.9h1.212v4.871Zm20.257,5.885L73.782,29.7q-.242-.287-.463-.6t-.463-.639h-.022l.066,8.574q0,.551-.011,1.1t-.055,1.014q.375-.044.827-.055t.782-.033v1.212H70.079v-.97a1.533,1.533,0,0,0,.937-.242,1.233,1.233,0,0,0,.441-.639,3.178,3.178,0,0,0,.121-.926V26.749q0-.441.022-.771-.353.022-.782.044t-.76.044V24.854h2.91l7.759,10.205q.375.485.672.9t.584.794H82l.022-9.059q0-.485.022-.937t.044-.782l-.838.044q-.441.022-.771.044V24.854h4.364v.97a1.636,1.636,0,0,0-1.025.3,1.246,1.246,0,0,0-.4.794,9.567,9.567,0,0,0-.077,1.356l-.022,12.321Zm18.647-10.977a7.5,7.5,0,0,0-.287-2.094,2.309,2.309,0,0,0-.871-1.256,2.784,2.784,0,0,0-1.664-.4H96.22L96.2,37.33q0,.6-.011,1.069a6.163,6.163,0,0,1-.055.76q.419-.044.915-.055t.893-.033v1.212h-5.6v-.97A1.766,1.766,0,0,0,93.377,39a1.291,1.291,0,0,0,.4-.8,8.47,8.47,0,0,0,.088-1.334V25.89l-1.852.022a2.206,2.206,0,0,0-1.962.9,5.033,5.033,0,0,0-.617,2.8H88.4l.132-4.761h13l.132,4.761Zm21.623,0a5.606,5.606,0,0,0-.573-2.028,3.744,3.744,0,0,0-1.278-1.444,3.477,3.477,0,0,0-2.028-.518,2.749,2.749,0,0,0-1.962.683,2.307,2.307,0,0,0-.242,3.1,4.6,4.6,0,0,0,1.312,1.047q.827.463,1.863.926.838.353,1.7.794a9.342,9.342,0,0,1,1.565,1,4.3,4.3,0,0,1,1.124,1.345,3.845,3.845,0,0,1,.419,1.841,3.915,3.915,0,0,1-.639,2.2,4.288,4.288,0,0,1-1.818,1.521,6.705,6.705,0,0,1-2.854.551,7.559,7.559,0,0,1-1.995-.287,7.284,7.284,0,0,1-1.907-.816l.11.926H113.7l-.088-4.849h1.058a4.03,4.03,0,0,0,1.378,2.9,4.4,4.4,0,0,0,2.876.981,3.654,3.654,0,0,0,1.521-.309,2.565,2.565,0,0,0,1.08-.882,2.3,2.3,0,0,0,.4-1.345,2.228,2.228,0,0,0-.54-1.521,4.777,4.777,0,0,0-1.367-1.058q-.827-.441-1.73-.838t-1.752-.838A8.4,8.4,0,0,1,115,31.687a4.28,4.28,0,0,1-1.08-1.356,4.021,4.021,0,0,1-.4-1.841,4.237,4.237,0,0,1,.22-1.3,3.727,3.727,0,0,1,2.193-2.3,5.959,5.959,0,0,1,2.3-.386,8.439,8.439,0,0,1,1.885.242,5.277,5.277,0,0,1,1.907.86l-.088-.926h1.323v4.937Zm6.172,10.668v-.97A1.825,1.825,0,0,0,129.47,39a1.253,1.253,0,0,0,.408-.794,8.428,8.428,0,0,0,.088-1.345V27.7q0-.485.022-.937t.044-.782q-.375.022-.816.044t-.794.044V24.854h5.422v.97a1.688,1.688,0,0,0-1.036.3,1.266,1.266,0,0,0-.419.794,8.388,8.388,0,0,0-.088,1.356v3.593h7.3V27.7q0-.485.022-.937t.044-.782q-.375.022-.816.044t-.794.044V24.854h5.422v.97a1.688,1.688,0,0,0-1.036.3,1.266,1.266,0,0,0-.419.794,8.388,8.388,0,0,0-.088,1.356V37.33q0,.6-.011,1.069a6.165,6.165,0,0,1-.055.76q.375-.044.816-.055t.794-.033v1.212h-5.422v-.97A1.825,1.825,0,0,0,139.1,39a1.253,1.253,0,0,0,.408-.794,8.428,8.428,0,0,0,.088-1.345V33.009l-7.3.066V37.33q0,.6-.011,1.069a6.162,6.162,0,0,1-.055.76q.375-.044.827-.055t.782-.033v1.212Zm26.935.353a8.3,8.3,0,0,1-3.582-.705,6.6,6.6,0,0,1-2.414-1.885A8.009,8.009,0,0,1,148,35.434a9.7,9.7,0,0,1-.441-2.865,8.848,8.848,0,0,1,.474-2.81,8.339,8.339,0,0,1,1.433-2.612,7.194,7.194,0,0,1,2.4-1.918,7.43,7.43,0,0,1,3.383-.727,7.782,7.782,0,0,1,3.494.727,6.966,6.966,0,0,1,2.414,1.929,8.628,8.628,0,0,1,1.422,2.612,8.472,8.472,0,0,1,0,5.588,8.474,8.474,0,0,1-1.433,2.623,7.165,7.165,0,0,1-2.392,1.929A7.413,7.413,0,0,1,155.359,40.636Zm.11-1.146a4.161,4.161,0,0,0,2.215-.573,4.728,4.728,0,0,0,1.543-1.532,7.143,7.143,0,0,0,.893-2.116,9.554,9.554,0,0,0,.287-2.3,11.093,11.093,0,0,0-.331-2.722,7.907,7.907,0,0,0-1-2.358,5.179,5.179,0,0,0-1.664-1.653,4.307,4.307,0,0,0-2.292-.606,4.1,4.1,0,0,0-2.226.6,4.8,4.8,0,0,0-1.543,1.554,7.55,7.55,0,0,0-.893,2.116,9.3,9.3,0,0,0-.3,2.325,10.343,10.343,0,0,0,.309,2.425,8.861,8.861,0,0,0,.948,2.381,5.406,5.406,0,0,0,1.642,1.785A4.183,4.183,0,0,0,155.469,39.49Zm16.487.992-3.923-11.792q-.331-.992-.518-1.609a7.647,7.647,0,0,1-.253-1.058q-.353.022-.661.022t-.617.022V24.854h5.731v.97q-1.124.044-1.422.485a2.245,2.245,0,0,0,.033,1.675q.375,1.389.771,2.579t.794,2.513q.264.9.54,1.686t.562,1.818h.022q.11-.353.253-.838t.3-1q.154-.518.287-.948t.2-.65q.529-1.675,1.047-3.284l.937-2.91q.419-1.3.639-2.116h1.146q.22.816.584,1.907t.738,2.248q.375,1.157.727,2.226t.6,1.863q.287.9.584,1.818t.54,1.885h.044q.2-.661.43-1.4t.452-1.51q.441-1.278.738-2.2t.5-1.609q.2-.683.364-1.234t.342-1.08q.132-.419.309-.893A3.7,3.7,0,0,1,185.2,26q-.419.022-.893.033t-.849.033V24.854h4.629v.97a2.776,2.776,0,0,0-1.091.309,2.074,2.074,0,0,0-.76.849,12.93,12.93,0,0,0-.749,1.8q-.97,2.976-1.907,5.885t-1.929,5.819h-1.1l-3.086-9.015q-.242-.661-.43-1.311t-.364-1.267q-.154.617-.331,1.223t-.375,1.223l-2.932,9.147Zm30.815-10.712a4.871,4.871,0,0,0-1.367-3.053,4.157,4.157,0,0,0-2.932-1.091,4.5,4.5,0,0,0-2.116.507,5.067,5.067,0,0,0-1.675,1.422,6.79,6.79,0,0,0-1.091,2.16,9.163,9.163,0,0,0-.386,2.722A8.528,8.528,0,0,0,193.91,36a5.724,5.724,0,0,0,1.951,2.414,4.867,4.867,0,0,0,2.832.86,6.3,6.3,0,0,0,2.788-.672,6.1,6.1,0,0,0,2.281-1.907l.727.617a8.136,8.136,0,0,1-2.116,2.094,6.988,6.988,0,0,1-2.237.981,9.163,9.163,0,0,1-2.017.253,7.642,7.642,0,0,1-3.042-.6,7.042,7.042,0,0,1-2.392-1.664,7.482,7.482,0,0,1-1.543-2.491,8.588,8.588,0,0,1-.54-3.075,9.62,9.62,0,0,1,.485-3.02,8.638,8.638,0,0,1,1.433-2.678,6.8,6.8,0,0,1,2.392-1.907,7.571,7.571,0,0,1,3.361-.705,7.868,7.868,0,0,1,2.193.309,7.775,7.775,0,0,1,2.061.948l-.11-1.1h1.367v5.114Zm4.166,10.514v-.992a1.372,1.372,0,0,0,1.014-.353,2.816,2.816,0,0,0,.6-.959q.242-.606.529-1.356l4.452-12.189h.882L219.236,36.8q.176.419.4,1.135a3.72,3.72,0,0,1,.2,1.223q.375-.044.738-.055t.694-.033v1.212h-5.356v-.97a1.324,1.324,0,0,0,1.025-.342,1.015,1.015,0,0,0,.2-.782,3.885,3.885,0,0,0-.231-.926l-.661-1.785-5.4.132-.639,1.918q-.132.441-.287.838t-.309.771q.4-.044.849-.055t.8-.033v1.234Zm4.3-5.863h4.629l-1.389-3.725q-.264-.727-.507-1.444t-.441-1.378h-.022q-.176.551-.4,1.212t-.507,1.433Zm22-4.805a5.606,5.606,0,0,0-.573-2.028,3.744,3.744,0,0,0-1.278-1.444,3.477,3.477,0,0,0-2.028-.518,2.749,2.749,0,0,0-1.962.683,2.307,2.307,0,0,0-.242,3.1,4.6,4.6,0,0,0,1.312,1.047q.827.463,1.863.926.838.353,1.7.794a9.343,9.343,0,0,1,1.565,1,4.3,4.3,0,0,1,1.124,1.345,3.845,3.845,0,0,1,.419,1.841,3.915,3.915,0,0,1-.639,2.2,4.288,4.288,0,0,1-1.818,1.521,6.705,6.705,0,0,1-2.854.551,7.559,7.559,0,0,1-1.995-.287,7.284,7.284,0,0,1-1.907-.816l.11.926h-1.345l-.088-4.849h1.058a4.03,4.03,0,0,0,1.378,2.9,4.4,4.4,0,0,0,2.876.981,3.654,3.654,0,0,0,1.521-.309,2.565,2.565,0,0,0,1.08-.882,2.3,2.3,0,0,0,.4-1.345,2.228,2.228,0,0,0-.54-1.521A4.777,4.777,0,0,0,231,34.376q-.827-.441-1.73-.838t-1.752-.838a8.4,8.4,0,0,1-1.532-1.014,4.28,4.28,0,0,1-1.08-1.356,4.021,4.021,0,0,1-.4-1.841,4.237,4.237,0,0,1,.22-1.3,3.727,3.727,0,0,1,2.193-2.3,5.959,5.959,0,0,1,2.3-.386,8.439,8.439,0,0,1,1.885.242,5.277,5.277,0,0,1,1.907.86l-.088-.926h1.323v4.937Zm13.8,5.092a2.572,2.572,0,0,0-.276-1.367,1.192,1.192,0,0,0-.827-.518,6.046,6.046,0,0,0-1.367-.055l-1.278.044V37.4q0,.6-.011,1.047a5.987,5.987,0,0,1-.055.738l3.791-.044a4.1,4.1,0,0,0,1.543-.32,2.24,2.24,0,0,0,1.08-1.025,4.166,4.166,0,0,0,.4-1.984H251l-.132,4.475H239.4v-.97A1.825,1.825,0,0,0,240.452,39a1.253,1.253,0,0,0,.408-.794,8.428,8.428,0,0,0,.088-1.345V27.7q0-.485.022-.937t.044-.782q-.375.022-.816.044t-.794.044V24.854h10.756l.11,3.99h-.97a3.685,3.685,0,0,0-.408-1.918,1.98,1.98,0,0,0-1.058-.882,3.964,3.964,0,0,0-1.4-.2l-1.543.044a1.9,1.9,0,0,0-1.036.231,1.127,1.127,0,0,0-.463.749,7.026,7.026,0,0,0-.11,1.4v3.461h3.637l-.132-1.9H248v4.871Z" transform="translate(94.266 209.526)" fill="#caa846"/></g></svg>