<svg xmlns="http://www.w3.org/2000/svg" width="248.787" height="251.998" viewBox="0 0 248.787 251.998"><g transform="translate(14.338 0)"><g transform="translate(0 0)"><g transform="translate(92.398 47.224)"><path d="M-559.318,512.348c.309,0,.619.307.825.514l2.057,2.006a1.2,1.2,0,0,1,.514.823.569.569,0,0,1-.566.564H-592.7l-1.029.617-1.8-2.621c1.029.1,2.16.309,3.137.309h30.55C-561.734,514.456-559.831,512.348-559.318,512.348Zm-18.2-35.284h-9l-1.029.67-1.8-2.623c1.029.1,2.16.309,3.137.309h8.692v-2.263a9.033,9.033,0,0,0-.206-2.368,3.239,3.239,0,0,1-.411-1.181c0-.309.1-.413.36-.413.874,0,5.5,1.185,5.5,2.057,0,.516-.566.876-.926,1.133v3.034h6.789c.154-.154,1.44-1.9,1.8-1.9a3.722,3.722,0,0,1,1.183.617l2.417,1.594c.2.154.72.512.72.821,0,.413-1.234,1.44-1.44,1.648v1.9h1.078c.259-.309,1.491-2.16,2.162-2.16.411,0,.821.512,1.029.771.309.358,1.851,2.006,1.851,2.623a.486.486,0,0,1-.514.514h-5.606v2.415c0,.876.1,1.8.154,2.674-1.44.411-2.932.722-4.423,1.03l.1-1.337h-7.3v3.5h7.149c.206-.259,1.543-1.956,2.16-1.956.72,0,2.006,1.9,2.314,2.265a1.452,1.452,0,0,1,.463.872c0,.362-.514.516-.823.516H-573.2v2.88h10.492c.206-.206,1.749-2.057,2.314-2.057.617,0,2.52,2.212,2.777,2.469.206.206.514.514.514.823s-.36.41-.617.41h-32.453l-1.029.67-1.852-2.623c1.029.1,2.16.309,3.137.309h12.395v-2.88h-9l-1.029.617-1.8-2.623c1.029.1,2.16.309,3.137.309h8.692v-3.5h-8.332l-1.029.615-1.852-2.621c1.029.1,2.16.309,3.137.309h8.075v-3.086h-14.2l-1.029.566-1.8-2.573c.977.053,2.109.259,3.137.259h13.886Zm10.7,34.3H-584v.568a33.334,33.334,0,0,1-4.372.975c.052-1.389.257-2.878.257-4.267V500.93c0-.516-.052-1.08-.1-1.594a3.646,3.646,0,0,0-.309-1.288,1.258,1.258,0,0,1-.206-.463c0-.154.309-.255.463-.255a2.619,2.619,0,0,1,.617.154,31.478,31.478,0,0,1,4.783,1.8h15.378c.206-.255,1.389-1.852,1.852-1.852a2.255,2.255,0,0,1,1.08.463c.206.154,3.189,1.852,3.189,2.366,0,.463-.977,1.234-1.286,1.493v6.016c0,1.288.154,2.623.257,3.909a35.405,35.405,0,0,1-4.577,1.286Zm-10.7-6.737v-3.65h-5.915l-.566.309v3.341Zm0,5.04v-3.343H-584v3.343Zm10.7-5.04v-3.65h-5.915l-.72.463v3.187Zm0,5.04v-3.343h-6.635v3.343Zm.926-29.571v-3.036h-7.3V480.1Zm0,4.936v-3.187h-7.3v3.187Z" transform="translate(595.524 -469.195)" fill="#caa846"/><path d="M-580.32,514.229c0-.1.052-.206.052-.309.874,0,5.5,1.543,5.5,2.314,0,.514-.977.718-1.337.771l-4.526,8.227h2.52c.257-.309,1.646-2.055,2.212-2.055.36,0,.771.411,1.029.617.36.358,2.263,1.9,2.263,2.674a.515.515,0,0,1-.566.566h-19.287l-.926.669-1.749-2.829c1.08.1,2.263.358,3.343.358h9.412C-581.451,521.686-580.32,517.932-580.32,514.229Zm3.395-4.475c.308,0,.771.411.977.615l1.954,1.9a1.338,1.338,0,0,1,.463.926c0,.411-.411.461-.771.461h-16.509l-.926.67-1.749-2.777c1.08.1,2.263.309,3.292.309h10.955C-579.085,511.709-577.44,509.754-576.925,509.754Zm-4.423,35.691H-586.7v2.11a27.108,27.108,0,0,1-4.526,1.387c.1-1.8.309-3.7.309-5.5v-9.513a11.791,11.791,0,0,0-.1-1.9c-.1-.72-.668-1.442-.668-1.8,0-.206.257-.259.411-.259a17.022,17.022,0,0,1,5.555,1.6h3.7c.206-.309,1.44-2.006,1.954-2.006.566,0,3.343,1.9,3.806,2.212.309.154.772.512.772.926,0,.463-1.286,1.389-1.594,1.594v8.126c0,1.44.206,2.878.257,4.318a18.377,18.377,0,0,1-4.68,1.442Zm-8.589-30.55a13.674,13.674,0,0,1,2.829,1.7,18.394,18.394,0,0,1,1.44,1.389,4.139,4.139,0,0,1,1.131,3.033c0,1.493-.72,2.674-2.314,2.674-1.389,0-1.749-.924-1.749-2.158,0-.617.1-1.234.1-1.852a6.949,6.949,0,0,0-.874-3.4,5.811,5.811,0,0,1-.874-1.181C-590.092,514.949-590.04,514.9-589.937,514.9Zm3.086-12.241a16.265,16.265,0,0,1,2.674.876,5.7,5.7,0,0,1,2.88,2.366,5.577,5.577,0,0,1,.771,2.415,2.494,2.494,0,0,1-2.469,2.573,2.056,2.056,0,0,1-1.954-1.389c-.1-.514-.1-1.03-.154-1.543a7.045,7.045,0,0,0-.977-3.4c-.154-.358-1.131-1.749-1.131-1.749C-587.212,502.655-586.954,502.655-586.852,502.655Zm5.5,40.992V533.361h-4.783l-.566.566v9.72Zm10.441-.516V510.37a17.676,17.676,0,0,0-.052-2.313,12.322,12.322,0,0,0-.514-1.8c0-.2.154-.309.36-.309.977,0,4.063,1.493,5.038,1.956h3.088c.257-.309,1.286-1.8,1.749-1.8.926,0,4.884,2.728,4.884,3.808,0,.461-1.541,1.078-1.9,1.233l-4.989,11.677c3.652,4.269,6.429,6.838,6.429,12.907a10.8,10.8,0,0,1-.36,2.882,7.292,7.292,0,0,1-1.852,2.93,6.307,6.307,0,0,1-4.166,1.7,4.133,4.133,0,0,0-1.183-3.189,9.235,9.235,0,0,0-1.749-1.339.751.751,0,0,1-.308-.255c0-.362.206-.362.463-.362.566,0,1.131.053,1.7.053,2.985,0,3.137-1.029,3.137-3.808,0-4.987-1.027-7.3-3.8-11.416.617-2.985,1.286-5.968,1.749-8.951l.617-4.113h-3.96l-.411.617V542.36c0,2.573.257,5.2.36,7.768a23.981,23.981,0,0,1-4.68,1.029C-571.165,548.636-570.908,545.55-570.908,543.131Z" transform="translate(595.852 -441.195)" fill="#caa846"/></g><rect width="57.769" height="1.378" transform="translate(146.922 166.958)" fill="#caa846"/><rect width="59.557" height="1.378" transform="translate(173.267 173.028)" fill="#caa846"/><rect width="1.378" height="22.912" transform="translate(181.559)" fill="#caa846"/><path d="M-543.9,463.267l-1.347-.287,3.254-15.183,1.347.287Z" transform="translate(729.998 -439.877)" fill="#caa846"/><rect width="22.912" height="1.378" transform="translate(188.372 24.184) rotate(-63.568)" fill="#caa846"/><rect width="15.528" height="1.377" transform="translate(191.155 25.78) rotate(-51.503)" fill="#caa846"/><rect width="22.912" height="1.378" transform="matrix(0.797, -0.604, 0.604, 0.797, 193.915, 28.358)" fill="#caa846"/><rect width="15.528" height="1.379" transform="translate(195.698 31.022) rotate(-25.098)" fill="#caa846"/><rect width="22.912" height="1.378" transform="matrix(0.797, -0.604, 0.604, 0.797, 193.915, 28.358)" fill="#caa846"/><rect width="15.528" height="1.379" transform="translate(195.698 31.022) rotate(-25.098)" fill="#caa846"/><rect width="22.913" height="1.377" transform="translate(197.025 34.568) rotate(-10.812)" fill="#caa846"/><rect width="1.378" height="22.912" transform="translate(196.68 42.832) rotate(-74.409)" fill="#caa846"/><rect width="1.378" height="15.528" transform="translate(195.367 45.75) rotate(-62.307)" fill="#caa846"/><rect width="1.377" height="22.912" transform="translate(193.066 48.754) rotate(-48.01)" fill="#caa846"/><path d="M-535.476,493.573l-8.439-21.3,1.281-.506,8.439,21.3Z" transform="translate(731.11 -419.82)" fill="#caa846"/><path d="M-543.046,487.849l-2.566-15.314,1.358-.226,2.566,15.313Z" transform="translate(729.689 -419.364)" fill="#caa846"/><rect width="22.913" height="1.377" transform="translate(178.382 75.986) rotate(-85.218)" fill="#caa846"/><rect width="22.912" height="1.378" transform="matrix(0.518, -0.855, 0.855, 0.518, 161.932, 70.312)" fill="#caa846"/><rect width="15.528" height="1.377" transform="matrix(0.685, -0.728, 0.728, 0.685, 160.696, 59.972)" fill="#caa846"/><rect width="22.912" height="1.377" transform="translate(149.727 57.93) rotate(-32.448)" fill="#caa846"/><rect width="15.528" height="1.377" transform="matrix(0.938, -0.348, 0.348, 0.938, 153.214, 48.108)" fill="#caa846"/><rect width="1.378" height="15.528" transform="translate(151.641 35.52) rotate(-83.919)" fill="#caa846"/><rect width="1.378" height="22.912" transform="translate(146.304 25.468) rotate(-69.616)" fill="#caa846"/><rect width="1.377" height="15.528" transform="translate(155.974 22.18) rotate(-57.518)" fill="#caa846"/><rect width="1.378" height="22.912" transform="translate(155.663 10.804) rotate(-43.22)" fill="#caa846"/><rect width="1.376" height="15.529" transform="translate(165.787 12.157) rotate(-31.122)" fill="#caa846"/><g transform="translate(0 56.936)"><path d="M-590.711,569.487h-47.21v-1.378h47.21a6.847,6.847,0,0,0,6.838-6.84v-1a6.846,6.846,0,0,0-6.838-6.839h-29.248a8.227,8.227,0,0,1-8.216-8.218A8.225,8.225,0,0,1-619.959,537h41.777a7.158,7.158,0,0,0,7.149-7.151,7.159,7.159,0,0,0-7.149-7.151h-58.756a8.9,8.9,0,0,1-8.889-8.885,8.9,8.9,0,0,1,8.889-8.888h45.026a7.037,7.037,0,0,0,7.029-7.028,7.038,7.038,0,0,0-7.029-7.031h-20.83a8.2,8.2,0,0,1-8.192-8.19,8.2,8.2,0,0,1,8.192-8.192h36.052v1.378h-36.052a6.822,6.822,0,0,0-6.815,6.815,6.821,6.821,0,0,0,6.815,6.813h20.83a8.419,8.419,0,0,1,8.407,8.409,8.417,8.417,0,0,1-8.407,8.405h-45.026a7.52,7.52,0,0,0-7.511,7.511,7.519,7.519,0,0,0,7.511,7.507h58.756a8.537,8.537,0,0,1,8.527,8.528,8.537,8.537,0,0,1-8.527,8.528h-41.777a6.847,6.847,0,0,0-6.838,6.839,6.848,6.848,0,0,0,6.838,6.84h29.248a8.225,8.225,0,0,1,8.216,8.216v1A8.226,8.226,0,0,1-590.711,569.487Z" transform="translate(645.827 -474.482)" fill="#caa846"/><path d="M-630.112,508.828A8.9,8.9,0,0,1-639,499.943a8.9,8.9,0,0,1,8.888-8.888v1.378a7.519,7.519,0,0,0-7.511,7.511,7.518,7.518,0,0,0,7.511,7.507Z" transform="translate(651.54 -460.613)" fill="#caa846"/><path d="M-620.6,490.865a8.2,8.2,0,0,1-8.192-8.19,8.2,8.2,0,0,1,8.192-8.192v1.378a6.822,6.822,0,0,0-6.815,6.815,6.821,6.821,0,0,0,6.815,6.813Z" transform="translate(660.082 -474.482)" fill="#caa846"/><path d="M-607.42,534.146h-34.1v-1.378h34.1a6.849,6.849,0,0,0,6.84-6.84v-1a6.848,6.848,0,0,0-6.84-6.839v-1.378a8.227,8.227,0,0,1,8.218,8.216v1A8.227,8.227,0,0,1-607.42,534.146Z" transform="translate(649.429 -439.141)" fill="#caa846"/><path d="M-634.9,530.871" transform="translate(654.973 -427.294)" fill="#caa846"/></g><path d="M-512.552,510.335l-13.557,20.824-10.216-12.007-26.169,30.756h79.164Zm-23.225,38.2h-23.737l10.85-12.75h12.116V534.4h-10.944l11.166-13.124,9.432,11.085.931,1.093,12.823,15.073Zm24.446,0-4.513-5.307h8.144v-1.378h-9.318l-8.161-9.594,12.7-19.5,11.383,15.418h-9.774v1.378h10.791l14.019,18.985Z" transform="translate(715.561 -387.544)" fill="#caa846"/></g></g><path d="M18.511,8.552a7.5,7.5,0,0,0-.287-2.094A2.309,2.309,0,0,0,17.354,5.2a2.784,2.784,0,0,0-1.664-.4H14.1l-.022,11.462q0,.6-.011,1.069a6.163,6.163,0,0,1-.055.76q.419-.044.915-.055t.893-.033V19.22h-5.6v-.97a1.766,1.766,0,0,0,1.036-.309,1.291,1.291,0,0,0,.4-.8,8.47,8.47,0,0,0,.088-1.334V4.827l-1.852.022a2.206,2.206,0,0,0-1.962.9,5.033,5.033,0,0,0-.617,2.8H6.278L6.41,3.791h13l.132,4.761ZM23.383,19.22v-.97a1.825,1.825,0,0,0,1.047-.309,1.253,1.253,0,0,0,.408-.794,8.428,8.428,0,0,0,.088-1.345V6.634q0-.485.022-.937t.044-.782q-.375.022-.816.044T23.383,5V3.791H28.8v.97a1.688,1.688,0,0,0-1.036.3,1.266,1.266,0,0,0-.419.794,8.388,8.388,0,0,0-.088,1.356V10.8h7.3V6.634q0-.485.022-.937t.044-.782q-.375.022-.816.044T33.015,5V3.791h5.422v.97a1.688,1.688,0,0,0-1.036.3,1.266,1.266,0,0,0-.419.794,8.388,8.388,0,0,0-.088,1.356v9.059q0,.6-.011,1.069a6.162,6.162,0,0,1-.055.76q.375-.044.816-.055t.794-.033V19.22H33.015v-.97a1.825,1.825,0,0,0,1.047-.309,1.253,1.253,0,0,0,.408-.794,8.427,8.427,0,0,0,.088-1.345V11.946l-7.3.066v4.254q0,.6-.011,1.069a6.162,6.162,0,0,1-.055.76q.375-.044.827-.055t.782-.033V19.22ZM50.6,13.644a2.571,2.571,0,0,0-.276-1.367,1.192,1.192,0,0,0-.827-.518,6.046,6.046,0,0,0-1.367-.055l-1.278.044v4.585q0,.6-.011,1.047a5.987,5.987,0,0,1-.055.738l3.791-.044a4.1,4.1,0,0,0,1.543-.32,2.24,2.24,0,0,0,1.08-1.025,4.166,4.166,0,0,0,.4-1.984h.97L54.44,19.22H42.978v-.97a1.825,1.825,0,0,0,1.047-.309,1.253,1.253,0,0,0,.408-.794,8.428,8.428,0,0,0,.088-1.345V6.634q0-.485.022-.937t.044-.782q-.375.022-.816.044T42.978,5V3.791H53.734l.11,3.99h-.97a3.685,3.685,0,0,0-.408-1.918,1.98,1.98,0,0,0-1.058-.882,3.964,3.964,0,0,0-1.4-.2l-1.543.044a1.9,1.9,0,0,0-1.036.231,1.127,1.127,0,0,0-.463.749,7.025,7.025,0,0,0-.11,1.4v3.461h3.637l-.132-1.9h1.212v4.871ZM57.68,19.22v-.992a1.372,1.372,0,0,0,1.014-.353,2.816,2.816,0,0,0,.6-.959q.242-.606.529-1.356L64.27,3.372h.882l4.827,12.366q.176.419.4,1.135a3.721,3.721,0,0,1,.2,1.223q.375-.044.738-.055t.694-.033V19.22H66.651v-.97a1.324,1.324,0,0,0,1.025-.342,1.015,1.015,0,0,0,.2-.782,3.885,3.885,0,0,0-.231-.926l-.661-1.785-5.4.132-.639,1.918q-.132.441-.287.838t-.309.771q.4-.044.849-.055t.8-.033V19.22Zm4.3-5.863h4.629L65.218,9.632q-.265-.727-.507-1.444T64.27,6.811h-.022q-.176.551-.4,1.212t-.507,1.433Zm24-4.805A7.5,7.5,0,0,0,85.7,6.458,2.309,2.309,0,0,0,84.824,5.2a2.784,2.784,0,0,0-1.664-.4H81.573l-.022,11.462q0,.6-.011,1.069a6.161,6.161,0,0,1-.055.76q.419-.044.915-.055t.893-.033V19.22h-5.6v-.97a1.766,1.766,0,0,0,1.036-.309,1.291,1.291,0,0,0,.4-.8,8.47,8.47,0,0,0,.088-1.334V4.827l-1.852.022a2.206,2.206,0,0,0-1.962.9,5.033,5.033,0,0,0-.617,2.8H73.748l.132-4.761h13l.132,4.761ZM90.853,19.22v-.97a1.825,1.825,0,0,0,1.047-.309,1.253,1.253,0,0,0,.408-.794A8.427,8.427,0,0,0,92.4,15.8V6.634q0-.485.022-.937t.044-.782q-.375.022-.816.044T90.853,5V3.791q1.345-.022,2.711-.033t2.755.011a10.426,10.426,0,0,1,3.416.474,4.074,4.074,0,0,1,2.017,1.4,3.769,3.769,0,0,1,.65,2.336,4.132,4.132,0,0,1-.353,1.752,3.956,3.956,0,0,1-1.256,1.554,6.186,6.186,0,0,1-2.425,1.036,2.838,2.838,0,0,1,.794.727q.353.463.727,1.036l1.345,2.072q.419.661.771,1.124A2.687,2.687,0,0,0,102.8,18a2.089,2.089,0,0,0,1.058.253v.97h-3.064a5.955,5.955,0,0,1-.981-1.047q-.408-.562-.871-1.267l-1.521-2.469q-.287-.441-.606-.948a4.378,4.378,0,0,0-.694-.86H94.732v3.637q0,.6-.011,1.069a6.165,6.165,0,0,1-.055.76q.264-.022.562-.033t.6-.033q.3-.022.518-.022V19.22Zm5.158-7.671a5.572,5.572,0,0,0,2.072-.386,2.763,2.763,0,0,0,1.323-1.124,3.752,3.752,0,0,0,.463-1.973A3.864,3.864,0,0,0,99.6,6.546a2.525,2.525,0,0,0-.749-1A2.971,2.971,0,0,0,97.7,4.992a6.033,6.033,0,0,0-1.444-.165,1.6,1.6,0,0,0-1.025.265,1.233,1.233,0,0,0-.408.771,7.835,7.835,0,0,0-.088,1.3v4.32q.331.022.628.055A3.775,3.775,0,0,0,96.011,11.55Zm18.934,2.094a2.571,2.571,0,0,0-.276-1.367,1.192,1.192,0,0,0-.827-.518,6.046,6.046,0,0,0-1.367-.055l-1.278.044v4.585q0,.6-.011,1.047a5.988,5.988,0,0,1-.055.738l3.791-.044a4.1,4.1,0,0,0,1.543-.32,2.24,2.24,0,0,0,1.08-1.025,4.166,4.166,0,0,0,.4-1.984h.97l-.132,4.475H107.318v-.97a1.825,1.825,0,0,0,1.047-.309,1.253,1.253,0,0,0,.408-.794,8.428,8.428,0,0,0,.088-1.345V6.634q0-.485.022-.937t.044-.782q-.375.022-.816.044T107.318,5V3.791h10.756l.11,3.99h-.97a3.685,3.685,0,0,0-.408-1.918,1.98,1.98,0,0,0-1.058-.882,3.964,3.964,0,0,0-1.4-.2l-1.543.044a1.9,1.9,0,0,0-1.036.231,1.127,1.127,0,0,0-.463.749,7.025,7.025,0,0,0-.11,1.4v3.461h3.637l-.132-1.9h1.212v4.871Zm16.311,5.577v-.97a1.825,1.825,0,0,0,1.047-.309,1.253,1.253,0,0,0,.408-.794A8.428,8.428,0,0,0,132.8,15.8V6.634q0-.485.022-.937t.044-.782q-.375.022-.816.044T131.256,5V3.791h5.422v.97a1.688,1.688,0,0,0-1.036.3,1.266,1.266,0,0,0-.419.794,8.388,8.388,0,0,0-.088,1.356v9.125q0,.6-.011,1.047a5.987,5.987,0,0,1-.055.738l3.725-.044a2.634,2.634,0,0,0,2.094-.893,4.284,4.284,0,0,0,.727-2.766h.992l-.132,4.805Zm20.565-14.46a1.688,1.688,0,0,0-1.036.3,1.266,1.266,0,0,0-.419.794,8.388,8.388,0,0,0-.088,1.356v9.059q0,.6-.011,1.069a6.162,6.162,0,0,1-.055.76q.375-.044.827-.055t.782-.033V19.22H146.4v-.97a1.825,1.825,0,0,0,1.047-.309,1.253,1.253,0,0,0,.408-.794,8.428,8.428,0,0,0,.088-1.345V6.634q0-.485.022-.937t.044-.782q-.375.022-.816.044T146.4,5V3.791h5.422Zm11.594,14.812a7.814,7.814,0,0,1-3.945-.97,6.642,6.642,0,0,1-2.623-2.722,8.629,8.629,0,0,1-.926-4.089,9.824,9.824,0,0,1,.474-3.02,8.473,8.473,0,0,1,1.433-2.689,6.961,6.961,0,0,1,2.4-1.929,7.473,7.473,0,0,1,3.361-.716,9.256,9.256,0,0,1,1.521.132,9.45,9.45,0,0,1,1.554.4,7.209,7.209,0,0,1,1.378.639l-.088-1.014h1.367v5.07h-1.014a4.546,4.546,0,0,0-.738-2.237,4.074,4.074,0,0,0-1.609-1.389,4.925,4.925,0,0,0-2.171-.474,4.4,4.4,0,0,0-2.127.518A5.231,5.231,0,0,0,160,6.513a6.808,6.808,0,0,0-1.091,2.149,8.821,8.821,0,0,0-.386,2.645,9.111,9.111,0,0,0,.672,3.6,5.821,5.821,0,0,0,1.907,2.48,4.756,4.756,0,0,0,2.887.9,7.46,7.46,0,0,0,1.157-.1,7.832,7.832,0,0,0,1.256-.309,4.908,4.908,0,0,0,1.135-.54V14.878q0-.551.011-1.091t.011-1q-.353.022-.794.044t-.771.044V11.66h5.268v.97a1.369,1.369,0,0,0-.849.242,1.388,1.388,0,0,0-.463.606,2.964,2.964,0,0,0-.187.771,7.1,7.1,0,0,0-.044.76v3.439h-.573a4.86,4.86,0,0,0-1.08.143,11.541,11.541,0,0,0-1.389.43,9.7,9.7,0,0,1-1.565.4A9.847,9.847,0,0,1,163.415,19.573Zm11.66-.353v-.97a1.825,1.825,0,0,0,1.047-.309,1.253,1.253,0,0,0,.408-.794,8.428,8.428,0,0,0,.088-1.345V6.634q0-.485.022-.937t.044-.782q-.375.022-.816.044T175.075,5V3.791H180.5v.97a1.688,1.688,0,0,0-1.036.3,1.266,1.266,0,0,0-.419.794,8.388,8.388,0,0,0-.088,1.356V10.8h7.3V6.634q0-.485.022-.937t.044-.782q-.375.022-.816.044T184.707,5V3.791h5.422v.97a1.688,1.688,0,0,0-1.036.3,1.266,1.266,0,0,0-.419.794,8.386,8.386,0,0,0-.088,1.356v9.059q0,.6-.011,1.069a6.164,6.164,0,0,1-.055.76q.375-.044.816-.055t.794-.033V19.22h-5.422v-.97a1.825,1.825,0,0,0,1.047-.309,1.253,1.253,0,0,0,.408-.794,8.426,8.426,0,0,0,.088-1.345V11.946l-7.3.066v4.254q0,.6-.011,1.069a6.164,6.164,0,0,1-.055.76q.375-.044.827-.055t.782-.033V19.22Zm31.1-10.668a7.5,7.5,0,0,0-.287-2.094,2.309,2.309,0,0,0-.871-1.256,2.784,2.784,0,0,0-1.664-.4h-1.587l-.022,11.462q0,.6-.011,1.069a6.167,6.167,0,0,1-.055.76q.419-.044.915-.055t.893-.033V19.22h-5.6v-.97a1.766,1.766,0,0,0,1.036-.309,1.291,1.291,0,0,0,.4-.8,8.468,8.468,0,0,0,.088-1.334V4.827l-1.852.022a2.206,2.206,0,0,0-1.962.9,5.033,5.033,0,0,0-.617,2.8h-1.036l.132-4.761h13l.132,4.761ZM216.47,4.761a1.688,1.688,0,0,0-1.036.3,1.266,1.266,0,0,0-.419.794,8.388,8.388,0,0,0-.088,1.356v9.059q0,.6-.011,1.069a6.162,6.162,0,0,1-.055.76q.375-.044.827-.055t.782-.033V19.22h-5.422v-.97a1.825,1.825,0,0,0,1.047-.309,1.253,1.253,0,0,0,.408-.794,8.428,8.428,0,0,0,.088-1.345V6.634q0-.485.022-.937t.044-.782q-.375.022-.816.044T211.047,5V3.791h5.422Zm16.487,14.768-8.2-10.889q-.242-.287-.463-.6t-.463-.639h-.022l.066,8.574q0,.551-.011,1.1T223.81,18.1q.375-.044.827-.055t.782-.033V19.22h-4.364v-.97a1.533,1.533,0,0,0,.937-.242,1.233,1.233,0,0,0,.441-.639,3.178,3.178,0,0,0,.121-.926V5.686q0-.441.022-.771-.353.022-.782.044t-.76.044V3.791h2.91L231.7,14q.375.485.672.9t.584.794h.022L233,6.634q0-.485.022-.937t.044-.782l-.838.044q-.441.022-.771.044V3.791h4.364v.97a1.636,1.636,0,0,0-1.025.3,1.246,1.246,0,0,0-.4.794,9.566,9.566,0,0,0-.077,1.356L234.3,19.529Zm14.261.044a7.814,7.814,0,0,1-3.945-.97,6.642,6.642,0,0,1-2.623-2.722,8.629,8.629,0,0,1-.926-4.089,9.825,9.825,0,0,1,.474-3.02,8.473,8.473,0,0,1,1.433-2.689,6.961,6.961,0,0,1,2.4-1.929,7.473,7.473,0,0,1,3.361-.716,9.257,9.257,0,0,1,1.521.132,9.451,9.451,0,0,1,1.554.4,7.209,7.209,0,0,1,1.378.639l-.088-1.014h1.367v5.07h-1.014a4.546,4.546,0,0,0-.738-2.237,4.074,4.074,0,0,0-1.609-1.389,4.925,4.925,0,0,0-2.171-.474,4.4,4.4,0,0,0-2.127.518A5.23,5.23,0,0,0,243.8,6.513a6.808,6.808,0,0,0-1.091,2.149,8.821,8.821,0,0,0-.386,2.645,9.111,9.111,0,0,0,.672,3.6,5.821,5.821,0,0,0,1.907,2.48,4.756,4.756,0,0,0,2.888.9,7.46,7.46,0,0,0,1.157-.1,7.832,7.832,0,0,0,1.256-.309,4.909,4.909,0,0,0,1.135-.54V14.878q0-.551.011-1.091t.011-1q-.353.022-.794.044t-.771.044V11.66h5.268v.97a1.369,1.369,0,0,0-.849.242,1.387,1.387,0,0,0-.463.606,2.965,2.965,0,0,0-.187.771,7.094,7.094,0,0,0-.044.76v3.439h-.573a4.861,4.861,0,0,0-1.08.143,11.54,11.54,0,0,0-1.389.43,9.7,9.7,0,0,1-1.565.4A9.847,9.847,0,0,1,247.218,19.573ZM53.271,52.283v-.992a1.372,1.372,0,0,0,1.014-.353,2.816,2.816,0,0,0,.6-.959q.242-.606.529-1.356l4.452-12.189h.882L65.571,48.8q.176.419.4,1.135a3.721,3.721,0,0,1,.2,1.223q.375-.044.738-.055t.694-.033v1.212H62.242v-.97a1.324,1.324,0,0,0,1.025-.342,1.015,1.015,0,0,0,.2-.782,3.885,3.885,0,0,0-.231-.926l-.661-1.785-5.4.132-.639,1.918q-.132.441-.287.838t-.309.771q.4-.044.849-.055t.8-.033v1.234Zm4.3-5.863H62.2L60.81,42.695q-.265-.727-.507-1.444t-.441-1.378H59.84q-.176.551-.4,1.212t-.507,1.433Zm25.194,6.172L74.564,41.7q-.242-.287-.463-.6t-.463-.639h-.022l.066,8.574q0,.551-.011,1.1t-.055,1.014q.375-.044.827-.055t.782-.033v1.212H70.861v-.97a1.533,1.533,0,0,0,.937-.242,1.233,1.233,0,0,0,.441-.639,3.178,3.178,0,0,0,.121-.926V38.749q0-.441.022-.771-.353.022-.782.044t-.76.044V36.854h2.91l7.759,10.205q.375.485.672.9t.584.794h.022l.022-9.059q0-.485.022-.937t.044-.782l-.838.044q-.441.022-.771.044V36.854h4.364v.97a1.636,1.636,0,0,0-1.025.3,1.246,1.246,0,0,0-.4.794,9.567,9.567,0,0,0-.077,1.356l-.022,12.321Zm7.142-1.278A1.825,1.825,0,0,0,90.952,51a1.253,1.253,0,0,0,.408-.794,8.427,8.427,0,0,0,.088-1.345V39.7q0-.485.022-.937t.044-.782q-.375.022-.816.044t-.794.044V36.854l5.621-.022a11.905,11.905,0,0,1,3.681.529,7.822,7.822,0,0,1,2.777,1.532,6.507,6.507,0,0,1,1.741,2.436,8.622,8.622,0,0,1,.088,6.062,7.032,7.032,0,0,1-1.554,2.48,7.691,7.691,0,0,1-2.634,1.752,9.7,9.7,0,0,1-3.747.661H89.905Zm3.879-1.962q0,.6-.011,1.058a6.076,6.076,0,0,1-.055.749q.463,0,.926.011t.827.011h.518a5.546,5.546,0,0,0,2.425-.507,5.184,5.184,0,0,0,1.8-1.411,6.382,6.382,0,0,0,1.124-2.094,8.173,8.173,0,0,0,.386-2.535,8.553,8.553,0,0,0-.705-3.659,4.991,4.991,0,0,0-2.127-2.292,7.34,7.34,0,0,0-3.538-.816,1.751,1.751,0,0,0-1.058.253,1.183,1.183,0,0,0-.419.782,8.427,8.427,0,0,0-.088,1.345Zm31.608-7.737a5.606,5.606,0,0,0-.573-2.028,3.744,3.744,0,0,0-1.278-1.444,3.477,3.477,0,0,0-2.028-.518,2.749,2.749,0,0,0-1.962.683,2.307,2.307,0,0,0-.242,3.1,4.6,4.6,0,0,0,1.312,1.047q.827.463,1.863.926.838.353,1.7.794a9.343,9.343,0,0,1,1.565,1,4.3,4.3,0,0,1,1.124,1.345,3.845,3.845,0,0,1,.419,1.841,3.915,3.915,0,0,1-.639,2.2,4.288,4.288,0,0,1-1.818,1.521,6.705,6.705,0,0,1-2.854.551,7.559,7.559,0,0,1-1.995-.287,7.284,7.284,0,0,1-1.907-.816l.11.926H116.84l-.088-4.849h1.058a4.03,4.03,0,0,0,1.378,2.9,4.4,4.4,0,0,0,2.876.981,3.654,3.654,0,0,0,1.521-.309,2.565,2.565,0,0,0,1.08-.882,2.3,2.3,0,0,0,.4-1.345,2.228,2.228,0,0,0-.54-1.521,4.777,4.777,0,0,0-1.367-1.058q-.827-.441-1.73-.838t-1.752-.838a8.4,8.4,0,0,1-1.532-1.014,4.28,4.28,0,0,1-1.08-1.356,4.021,4.021,0,0,1-.4-1.841,4.237,4.237,0,0,1,.22-1.3,3.727,3.727,0,0,1,2.193-2.3,5.959,5.959,0,0,1,2.3-.386,8.439,8.439,0,0,1,1.885.242,5.277,5.277,0,0,1,1.907.86l-.088-.926h1.323v4.937Zm18.1.154a4.871,4.871,0,0,0-1.367-3.053,4.157,4.157,0,0,0-2.932-1.091,4.5,4.5,0,0,0-2.116.507,5.067,5.067,0,0,0-1.675,1.422,6.79,6.79,0,0,0-1.091,2.16,9.164,9.164,0,0,0-.386,2.722,8.528,8.528,0,0,0,.705,3.56,5.724,5.724,0,0,0,1.951,2.414,4.867,4.867,0,0,0,2.832.86A6.3,6.3,0,0,0,142.2,50.6a6.1,6.1,0,0,0,2.281-1.907l.727.617a8.136,8.136,0,0,1-2.116,2.094,6.988,6.988,0,0,1-2.237.981,9.163,9.163,0,0,1-2.017.253,7.641,7.641,0,0,1-3.042-.6,7.042,7.042,0,0,1-2.392-1.664,7.482,7.482,0,0,1-1.543-2.491,8.588,8.588,0,0,1-.54-3.075,9.62,9.62,0,0,1,.485-3.02,8.639,8.639,0,0,1,1.433-2.678,6.8,6.8,0,0,1,2.392-1.907,7.571,7.571,0,0,1,3.361-.705,7.869,7.869,0,0,1,2.193.309,7.775,7.775,0,0,1,2.061.948l-.11-1.1H144.5v5.114Zm13.225,4.937a2.571,2.571,0,0,0-.276-1.367,1.192,1.192,0,0,0-.827-.518,6.046,6.046,0,0,0-1.367-.055l-1.278.044V49.4q0,.6-.011,1.047a5.989,5.989,0,0,1-.055.738l3.791-.044a4.1,4.1,0,0,0,1.543-.32,2.24,2.24,0,0,0,1.08-1.025,4.166,4.166,0,0,0,.4-1.984h.97l-.132,4.475H149.088v-.97A1.825,1.825,0,0,0,150.135,51a1.253,1.253,0,0,0,.408-.794,8.428,8.428,0,0,0,.088-1.345V39.7q0-.485.022-.937t.044-.782q-.375.022-.816.044t-.794.044V36.854h10.756l.11,3.99h-.97a3.685,3.685,0,0,0-.408-1.918,1.98,1.98,0,0,0-1.058-.882,3.964,3.964,0,0,0-1.4-.2l-1.543.044a1.9,1.9,0,0,0-1.036.231,1.127,1.127,0,0,0-.463.749,7.025,7.025,0,0,0-.11,1.4v3.461H156.6l-.132-1.9h1.212v4.871Zm20.257,5.885-8.2-10.889q-.242-.287-.463-.6t-.463-.639h-.022l.066,8.574q0,.551-.011,1.1t-.055,1.014q.375-.044.827-.055t.783-.033v1.212h-4.364v-.97a1.533,1.533,0,0,0,.937-.242,1.233,1.233,0,0,0,.441-.639,3.178,3.178,0,0,0,.121-.926V38.749q0-.441.022-.771-.353.022-.783.044t-.76.044V36.854h2.91l7.759,10.205q.375.485.672.9t.584.794h.022l.022-9.059q0-.485.022-.937t.044-.782l-.838.044q-.441.022-.771.044V36.854h4.364v.97a1.636,1.636,0,0,0-1.025.3,1.246,1.246,0,0,0-.4.794,9.568,9.568,0,0,0-.077,1.356l-.022,12.321Zm12.564-14.768a1.688,1.688,0,0,0-1.036.3,1.266,1.266,0,0,0-.419.794,8.388,8.388,0,0,0-.088,1.356V49.33q0,.6-.011,1.069a6.162,6.162,0,0,1-.055.76q.375-.044.827-.055t.782-.033v1.212h-5.422v-.97A1.825,1.825,0,0,0,185.159,51a1.253,1.253,0,0,0,.408-.794,8.428,8.428,0,0,0,.088-1.345V39.7q0-.485.022-.937t.044-.782q-.375.022-.816.044t-.794.044V36.854h5.422Zm16.245,3.946a4.871,4.871,0,0,0-1.367-3.053,4.157,4.157,0,0,0-2.932-1.091,4.5,4.5,0,0,0-2.116.507,5.067,5.067,0,0,0-1.675,1.422,6.79,6.79,0,0,0-1.091,2.16,9.163,9.163,0,0,0-.386,2.722,8.528,8.528,0,0,0,.705,3.56,5.724,5.724,0,0,0,1.951,2.414,4.867,4.867,0,0,0,2.832.86,6.3,6.3,0,0,0,2.788-.672,6.1,6.1,0,0,0,2.281-1.907l.727.617a8.136,8.136,0,0,1-2.116,2.094,6.988,6.988,0,0,1-2.237.981,9.163,9.163,0,0,1-2.017.253,7.641,7.641,0,0,1-3.042-.6,7.042,7.042,0,0,1-2.392-1.664,7.482,7.482,0,0,1-1.543-2.491,8.588,8.588,0,0,1-.54-3.075,9.62,9.62,0,0,1,.485-3.02,8.639,8.639,0,0,1,1.433-2.678,6.8,6.8,0,0,1,2.392-1.907,7.571,7.571,0,0,1,3.361-.705,7.869,7.869,0,0,1,2.193.309,7.775,7.775,0,0,1,2.061.948l-.11-1.1h1.367v5.114Z" transform="translate(-6.278 199.363)" fill="#caa846"/></svg>