<svg xmlns="http://www.w3.org/2000/svg" width="249.1" height="218.936" viewBox="0 0 249.1 218.936"><g transform="translate(0 0)"><g transform="translate(178.994 124.227)"><path d="M-495.7,368.453h-54.12l-.2-.327c-9.1-14.689-8.613-27.9-6.6-36.389a42.861,42.861,0,0,1,6.64-15.093l.208-.268h54.032l.206.268c.176.231,17.466,23.355.04,51.483Zm-53.353-1.378h52.583c15.611-25.561,1.866-46.711.033-49.323h-52.647C-550.918,320.366-564.649,341.54-549.056,367.075Z" transform="translate(557.834 -316.375)" fill="#caa846"/><rect width="63.266" height="1.378" transform="translate(3.438 40.554)" fill="#caa846"/><rect width="63.266" height="1.378" transform="translate(3.438 9.643)" fill="#caa846"/></g><g transform="translate(0 0)"><g transform="translate(103.308)"><path d="M-578.475,255.8h-8.795l-.926.669L-590,253.8c1.029.1,2.109.309,3.086.309h16.818c.977-2.109,2.829-6.789,2.829-8.949v-.36a.653.653,0,0,1,.309-.051,34.313,34.313,0,0,1,5.3,2.212.806.806,0,0,1,.463.72c0,.617-1.183.72-1.594.72-1.749,1.954-3.5,3.857-5.3,5.709h7.046c.206-.257,1.954-2.417,2.469-2.417s3.343,3.086,3.343,3.7c0,.309-.36.411-.669.411H-566.08l-.926.771v10.8c.926-1.543,4.732-7.715,5.04-9.309a1.5,1.5,0,0,1,.1-.463c.463-.051,4.783,2.314,4.783,3.137,0,.566-1.44.771-1.852.823-2.263,2.109-4.577,4.217-6.943,6.172h6.995c.206-.206,2.057-2.314,2.52-2.314.308,0,.874.617,1.08.823.411.411,2.109,2.057,2.109,2.674a.5.5,0,0,1-.566.514H-590.3l-.874.72-1.749-2.674a29.955,29.955,0,0,0,3.086.257h11.366Zm-8.846,2.263a17.1,17.1,0,0,1,2.983,1.029,5.357,5.357,0,0,1,3.034,2.572,7.754,7.754,0,0,1,.669,2.366,2.13,2.13,0,0,1-2.057,2.212,1.853,1.853,0,0,1-1.492-.669,1.984,1.984,0,0,1-.566-1.132,13.623,13.623,0,0,0-.823-3.24c-.309-.72-2.006-2.932-2.006-2.983C-587.578,258.065-587.424,258.065-587.321,258.065ZM-584.338,288V276.837a9.964,9.964,0,0,0-.1-1.749c-.051-.669-.463-1.8-.463-2.16,0-.257.052-.411.36-.411.977,0,4.474,1.44,5.452,1.852h12.858c.257-.309,1.543-2.057,2.109-2.057.669,0,3.137,1.954,3.652,2.314.154.1.566.411.566.669,0,.514-.874,1.131-1.234,1.44V288c0,1.286.154,2.572.206,3.857a19.625,19.625,0,0,1-4.886,1.337l.154-2.52h-14.452v1.08a19.779,19.779,0,0,1-4.526,1.286C-584.544,291.392-584.338,289.643-584.338,288Zm1.44-42.791a8.894,8.894,0,0,1,1.594.36,12.163,12.163,0,0,1,4.474,2.212,2.986,2.986,0,0,1,1.337,2.623c0,1.491-.617,2.726-2.314,2.726a1.975,1.975,0,0,1-1.286-.463c-.771-.669-1.029-2.366-1.286-3.189a10.6,10.6,0,0,0-.874-1.7,7.828,7.828,0,0,0-1.9-2.006c-.052-.051-.206-.154-.206-.309C-583.361,245.258-583.052,245.207-582.9,245.207Zm17.229,36.31v-5.452H-579.4l-.72.72v4.732Zm0,7.458v-5.76h-14.452v5.76Zm-5.246-21.241V255.8h-2.674l-.771.669v11.263Z" transform="translate(593.133 -244.744)" fill="#caa846"/><path d="M-590.085,293.474l-.72.669-1.749-2.829c.977.1,2.109.309,3.086.309h5.606c.309-.309,1.491-1.954,2.057-1.954a2.251,2.251,0,0,1,.874.411l3.189,2.109c.154.1.36.257.36.463,0,.566-1.183,1.131-1.594,1.389l-2.932,4.269c.36.257,1.234.874,1.234,1.337,0,.206-1.286,1.029-1.44,1.131v.257c1.954,1.08,4.835,2.469,4.835,5.092a2.02,2.02,0,0,1-1.954,2.212c-1.9,0-1.749-2.366-1.852-3.6a6.31,6.31,0,0,0-1.029-2.777v18.31c0,1.594.206,3.292.309,4.886a36.924,36.924,0,0,1-4.732,1.029c.1-1.749.36-3.549.36-5.246V303.914a54.825,54.825,0,0,1-5.966,5.5.366.366,0,0,1-.309.154.332.332,0,0,1-.309-.309c0-.206,1.183-1.749,1.337-2.057,1.08-1.7,2.16-3.446,3.137-5.195a49.936,49.936,0,0,0,2.726-5.195l1.44-3.343Zm7.252-7.149a2.214,2.214,0,0,1-1.594-.514,2.505,2.505,0,0,1-.771-1.389c-.411-1.7-.514-2.777-1.646-4.063-.257-.309-1.234-1.337-1.234-1.7,0-.154.154-.206.308-.206,1.132,0,3.5,1.08,4.526,1.492,1.44.617,2.52,1.543,2.52,3.189C-580.724,284.679-580.93,286.325-582.833,286.325ZM-557.374,280c.257,0,.669.36.874.514l2.417,2.263a1.076,1.076,0,0,1,.36.669c0,.463-.411.566-.771.566h-20.932l-.72.669-1.646-2.775a28.365,28.365,0,0,0,2.983.307h15.018C-559.637,282.058-557.786,280-557.374,280Zm-2.469,42.534h-12.7v2.674a30.173,30.173,0,0,1-4.372.926c.1-1.44.36-2.932.36-4.32v-14.4a10.538,10.538,0,0,0-.36-2.16,9.714,9.714,0,0,1-.257-1.183c0-.411.411-.36.669-.36,1.029,0,4.269,1.492,4.835,1.852h11.212c.36-.309,1.646-1.8,2.16-1.8.669,0,3.292,2.006,3.857,2.366.206.154.566.411.566.72,0,.463-1.44,1.337-1.8,1.594v12.395c0,1.337.154,2.777.257,4.115a29.288,29.288,0,0,1-4.629.924Zm-14.349-24.79v-5.915a15.012,15.012,0,0,0-.257-2.572,5.6,5.6,0,0,1-.36-1.234c0-.206.514-.206.617-.206,1.08,0,4.526,1.646,5.246,2.057h6.583c.206-.154,1.543-1.852,1.9-1.852.566,0,3.24,2.057,3.7,2.366.154.154.411.36.411.617,0,.463-1.08,1.183-1.389,1.389v5.452c0,1.08.154,2.16.206,3.189a43.935,43.935,0,0,1-4.526.874l.206-2.109h-8.126v1.132a33.405,33.405,0,0,1-4.423.823C-574.347,300.417-574.192,299.08-574.192,297.743Zm6.12,15.121v-5.4h-3.96l-.514.411v4.989Zm0,7.869v-6.069h-4.475v6.069Zm6.223-22.475v-6.583h-7.509l-.617.514-.052,6.069Zm2.006,14.606v-5.4h-3.806l-.617.617v4.783Zm-4.423,1.8v6.069h4.423v-6.069Z" transform="translate(593.273 -216.533)" fill="#caa846"/><path d="M-575.81,316.941a15.6,15.6,0,0,0-.309-3.034c-.1-.514-.566-.977-.566-1.491,0-.309.1-.358.411-.358.463,0,6.789,1.284,6.789,2.313,0,.411-1.594,1.442-1.9,1.646v10.134h1.7c1.44-2.419,4.783-8.437,5.04-11.317a.385.385,0,0,1,.257-.051,40.469,40.469,0,0,1,5.452,2.417c.206.1.514.309.514.617,0,.566-1.492.926-1.852,1.029-2.417,2.469-4.886,4.937-7.355,7.305h7.766c.257-.309,1.183-1.853,1.749-1.853,1.183,0,4.474,2.726,4.989,3.5a1.555,1.555,0,0,1,.257.823c0,1.337-2.366,1.234-3.24,1.337a6.879,6.879,0,0,0-3.394,1.286,3.773,3.773,0,0,1-1.337.876c-.1,0-.1-.1-.1-.208,0-.154,1.029-3.5,1.183-3.909h-27.721a7.983,7.983,0,0,1,.051,1.133c0,1.9-1.337,4.061-3.446,4.061-1.7,0-2.16-.977-2.16-2.572,0-1.953,2.366-2.623,3.034-4.372a12.884,12.884,0,0,0,.566-2.52c0-.1.051-.36.206-.36a.543.543,0,0,1,.257.1,25.885,25.885,0,0,1,1.183,2.676h11.983Zm0,33.173h-9.309l-.823.823-1.594-2.829c.926.051,1.9.206,2.829.206h8.9v-2.572a19.024,19.024,0,0,0-.411-3.753h-4.166v1.335a42.308,42.308,0,0,1-4.423.977c.1-1.543.309-3.137.309-4.629v-4.937a21.469,21.469,0,0,0-.309-3.5,5.724,5.724,0,0,1-.411-1.08c0-.257.309-.36.514-.36.72,0,4.937,1.9,5.657,2.212h11.109c.309-.411,1.131-1.9,1.8-1.9a4.725,4.725,0,0,1,1.646.72c.154.1,3.137,1.646,3.137,2.212,0,.463-1.337,1.286-1.594,1.491v4.732c0,1.337.1,2.728.154,4.063a25.585,25.585,0,0,1-4.783,1.029l.206-2.364h-6.686c.566.2,4.371,1.284,4.371,1.85,0,.36-1.44,1.288-1.646,1.442v3.033h5.5c.154-.206,1.7-2.314,2.16-2.314.36,0,.823.463,1.08.669l2.006,1.9a1.592,1.592,0,0,1,.566.975c0,.411-.257.566-.617.566l-10.7.051V356.7h9.258c.206-.257,2.16-2.726,2.674-2.726.411,0,1.131.669,1.389.926.36.309,2.829,2.212,2.829,3.034,0,.566-.617.617-.977.617h-32.916l-.823.771-1.594-2.829c.926.051,1.954.206,2.88.206h12.806ZM-587.073,315.3a20.427,20.427,0,0,1,3.6,1.337,6.358,6.358,0,0,1,3.6,3.034,7.311,7.311,0,0,1,.669,2.573,2.667,2.667,0,0,1-2.674,2.724c-2.366,0-2.469-2.16-2.674-4.012a7.691,7.691,0,0,0-2.211-4.629c-.1-.1-.669-.617-.669-.771C-587.433,315.349-587.176,315.3-587.073,315.3Zm19.7,24.893v-6.378h-12.343l-.669.823v5.555Z" transform="translate(593.039 -188.414)" fill="#caa846"/></g><g transform="translate(0 25.559)"><path d="M-646.412,282.9a1.844,1.844,0,0,1-.575-.09,1.943,1.943,0,0,1-1.216-1.155l-.935-2.358a1.948,1.948,0,0,1,.1-1.673,1.951,1.951,0,0,1,1.131-.922l17.055-5.639,1.422,4.166-16.094,7.474A2.148,2.148,0,0,1-646.412,282.9Zm14.695-10.1-15.76,5.211a.586.586,0,0,0-.362.285.578.578,0,0,0-.018.494l.935,2.36a.577.577,0,0,0,.354.351.659.659,0,0,0,.474-.051l14.957-6.949Z" transform="translate(649.281 -255.629)" fill="#caa846"/><path d="M-631.281,298.283l-.23-.689-9.019-25.859.026-.009c-.059-.165-.123-.353-.189-.538-.511-1.46-.63-1.807.005-2.061l9.44-3.74c.635-.255.792.083,1.423,1.508.079.176.158.353.228.511l.024-.011,11.429,25.673Zm-7.691-26.261,8.543,24.492,10.444-4.192-10.529-23.653c-.114-.191-.268-.538-.569-1.214-.086-.193-.171-.386-.246-.555l-8.258,3.271c.059.171.127.367.195.562C-639.144,271.442-639.02,271.8-638.972,272.022Z" transform="translate(656.11 -260.441)" fill="#caa846"/><path d="M-632.6,276.688l-1.815-4.008,16.269-7.559a2.031,2.031,0,0,1,1.471-.112,1.949,1.949,0,0,1,1.214,1.155l.935,2.358a1.953,1.953,0,0,1-.1,1.673,2.041,2.041,0,0,1-1.113.915l-.018.006Zm0-3.334.742,1.637,15.659-5.178a.685.685,0,0,0,.375-.288.581.581,0,0,0,.015-.492l-.933-2.36a.581.581,0,0,0-.353-.349.664.664,0,0,0-.481.051Z" transform="translate(661.72 -260.766)" fill="#caa846"/><path d="M-629.665,282.973l-1.769-3.918,16.671-7.772a1.957,1.957,0,0,1,1.458-.1,1.956,1.956,0,0,1,1.2,1.155l.935,2.36a1.958,1.958,0,0,1-.083,1.664,2.01,2.01,0,0,1-1.1.913Zm.046-3.246.7,1.55,16.115-5.307a.6.6,0,0,0,.338-.27.586.586,0,0,0,.013-.5l-.935-2.36a.582.582,0,0,0-.349-.353.6.6,0,0,0-.45.044Z" transform="translate(664.217 -255.607)" fill="#caa846"/><path d="M-639.779,272.852a3.233,3.233,0,0,1-3.005-2.039,3.2,3.2,0,0,1,.04-2.469,3.2,3.2,0,0,1,1.773-1.719l9.438-3.74a3.232,3.232,0,0,1,4.188,1.813,3.205,3.205,0,0,1-.039,2.469,3.215,3.215,0,0,1-1.772,1.719l-9.438,3.738A3.209,3.209,0,0,1-639.779,272.852Zm9.43-8.815a1.871,1.871,0,0,0-.678.129l-9.437,3.74a1.838,1.838,0,0,0-1.016.986,1.833,1.833,0,0,0-.022,1.414,1.851,1.851,0,0,0,2.4,1.038l9.438-3.738a1.844,1.844,0,0,0,1.016-.986,1.842,1.842,0,0,0,.024-1.414A1.853,1.853,0,0,0-630.349,264.037Z" transform="translate(654.528 -262.659)" fill="#caa846"/><path d="M-644.515,289.547a1.876,1.876,0,0,1-.575-.088,1.948,1.948,0,0,1-1.21-1.155l-.935-2.359a1.959,1.959,0,0,1,.088-1.668,1.945,1.945,0,0,1,1.124-.922l17.931-5.586,1.269,3.642-16.82,7.946A2.161,2.161,0,0,1-644.515,289.547Zm15.56-10.066-16.645,5.184a.58.58,0,0,0-.338.272.6.6,0,0,0-.017.5l.935,2.359a.583.583,0,0,0,.353.351.671.671,0,0,0,.467-.048l15.668-7.4Z" transform="translate(650.873 -250.014)" fill="#caa846"/><path d="M-604.09,362.777a33.153,33.153,0,0,1-30.815-20.91A33.14,33.14,0,0,1-616.322,298.9h0a33.136,33.136,0,0,1,42.965,18.585,32.875,32.875,0,0,1-.408,25.324,32.874,32.874,0,0,1-18.175,17.639A32.966,32.966,0,0,1-604.09,362.777Zm-11.723-62.594a31.765,31.765,0,0,0-17.812,41.178,31.753,31.753,0,0,0,41.176,17.808,31.5,31.5,0,0,0,17.42-16.9,31.516,31.516,0,0,0,.391-24.272,31.761,31.761,0,0,0-41.176-17.81Z" transform="translate(659.365 -234.277)" fill="#caa846"/><rect width="1.378" height="33.46" transform="matrix(0.93, -0.368, 0.368, 0.93, 36.406, 32.508)" fill="#caa846"/><rect width="1.377" height="33.459" transform="translate(24.609 37.181) rotate(-21.61)" fill="#caa846"/></g><path d="M-531.632,321.408c-2.551,0-4.548-1.5-4.548-3.407V259.854c0-1.1-1.451-2.03-3.17-2.03s-3.17.929-3.17,2.03v28.734c0,1.91-2,3.407-4.548,3.407h-13.556v-1.378h13.556c1.717,0,3.17-.93,3.17-2.03V259.854c0-1.91,2-3.407,4.548-3.407s4.548,1.5,4.548,3.407V318c0,1.1,1.451,2.03,3.17,2.03s3.17-.929,3.17-2.03V270.309c0-1.912,2-3.409,4.548-3.409h.494c2.549,0,4.546,1.5,4.546,3.409v29.378c0,1.1,1.453,2.032,3.172,2.032s3.17-.931,3.17-2.032V251.544c0-1.912,2-3.409,4.548-3.409s4.548,1.5,4.548,3.409v57.193c0,1.1,1.453,2.032,3.17,2.032s3.17-.929,3.17-2.032v-43.5c0-1.912,2-3.409,4.548-3.409v1.378c-1.719,0-3.17.931-3.17,2.031v43.5c0,1.912-2,3.409-4.548,3.409s-4.548-1.5-4.548-3.409V251.544c0-1.1-1.451-2.032-3.17-2.032s-3.17.931-3.17,2.032v48.143c0,1.912-2,3.409-4.548,3.409s-4.55-1.5-4.55-3.409V270.309c0-1.1-1.451-2.031-3.169-2.031h-.494c-1.719,0-3.17.929-3.17,2.031V318C-527.084,319.911-529.082,321.408-531.632,321.408Z" transform="translate(717.962 -236.396)" fill="#caa846"/><rect width="13.033" height="1.378" transform="translate(225.416 25.437)" fill="#caa846"/></g></g><path d="M.636,6.22a1.825,1.825,0,0,0,1.047-.309,1.253,1.253,0,0,0,.408-.794,8.427,8.427,0,0,0,.088-1.345V-5.4q0-.485.022-.937t.044-.782q-.375.022-.816.044t-.794.044V-8.239q1.3-.022,2.645-.033t2.733-.011a10.9,10.9,0,0,1,3.516.5,4.648,4.648,0,0,1,2.226,1.5,4.079,4.079,0,0,1,.8,2.524,4.836,4.836,0,0,1-.309,1.774,4.567,4.567,0,0,1-1.124,1.7A5.787,5.787,0,0,1,8.979.974a10.227,10.227,0,0,1-3.405.485q-.22.022-.5.022t-.562-.022V4.236q0,.6-.011,1.069a6.163,6.163,0,0,1-.055.76l.661-.044Q5.463,6,5.8,5.989t.628-.033V7.19H.636ZM4.515.291q.375.044.65.055t.65.011A4.913,4.913,0,0,0,8-.106,3.445,3.445,0,0,0,9.475-1.45,3.994,3.994,0,0,0,10-3.544a4.354,4.354,0,0,0-.32-1.774A2.722,2.722,0,0,0,8.8-6.443a3.624,3.624,0,0,0-1.289-.584A6.531,6.531,0,0,0,5.97-7.2,1.471,1.471,0,0,0,5-6.939a1.259,1.259,0,0,0-.4.771,7.836,7.836,0,0,0-.088,1.3ZM24,7.543a8.3,8.3,0,0,1-3.582-.705,6.6,6.6,0,0,1-2.414-1.885,8.009,8.009,0,0,1-1.367-2.612A9.7,9.7,0,0,1,16.2-.525a8.849,8.849,0,0,1,.474-2.81A8.339,8.339,0,0,1,18.1-5.947a7.194,7.194,0,0,1,2.4-1.918,7.43,7.43,0,0,1,3.383-.727,7.782,7.782,0,0,1,3.494.727A6.966,6.966,0,0,1,29.8-5.936a8.628,8.628,0,0,1,1.422,2.612,8.749,8.749,0,0,1,.474,2.8,8.786,8.786,0,0,1-.474,2.788,8.474,8.474,0,0,1-1.433,2.623,7.165,7.165,0,0,1-2.392,1.929A7.413,7.413,0,0,1,24,7.543Zm.11-1.146a4.161,4.161,0,0,0,2.215-.573,4.728,4.728,0,0,0,1.543-1.532,7.143,7.143,0,0,0,.893-2.116,9.554,9.554,0,0,0,.287-2.3,11.094,11.094,0,0,0-.331-2.722,7.907,7.907,0,0,0-1-2.358A5.179,5.179,0,0,0,26.05-6.862a4.307,4.307,0,0,0-2.292-.606,4.1,4.1,0,0,0-2.226.6,4.8,4.8,0,0,0-1.543,1.554A7.55,7.55,0,0,0,19.1-3.2a9.3,9.3,0,0,0-.3,2.325,10.344,10.344,0,0,0,.309,2.425,8.861,8.861,0,0,0,.948,2.381A5.406,5.406,0,0,0,21.7,5.713,4.183,4.183,0,0,0,24.111,6.4Zm19.86.794V6.22a1.825,1.825,0,0,0,1.047-.309,1.253,1.253,0,0,0,.408-.794,8.428,8.428,0,0,0,.088-1.345V-5.4q0-.485.022-.937t.044-.782q-.375.022-.816.044t-.794.044V-8.239H54.462l.132,3.99h-.97a3.606,3.606,0,0,0-.419-1.918,2.024,2.024,0,0,0-1.08-.882,4.127,4.127,0,0,0-1.433-.2L49.371-7.2a1.512,1.512,0,0,0-1.025.287,1.352,1.352,0,0,0-.408.816,8.428,8.428,0,0,0-.088,1.345V-.965l3.328.022-.132-1.918h1.212V2.032h-.97A2.626,2.626,0,0,0,51.013.644a1.156,1.156,0,0,0-.827-.507A7.566,7.566,0,0,0,48.82.07l-.97.044V4.236q0,.6-.011,1.069a6.162,6.162,0,0,1-.055.76q.331-.022.716-.033T49.26,6q.375-.022.683-.022V7.19Zm21.91.353A8.3,8.3,0,0,1,62.3,6.837a6.6,6.6,0,0,1-2.414-1.885,8.009,8.009,0,0,1-1.367-2.612,9.7,9.7,0,0,1-.441-2.865,8.849,8.849,0,0,1,.474-2.81,8.339,8.339,0,0,1,1.433-2.612,7.194,7.194,0,0,1,2.4-1.918,7.43,7.43,0,0,1,3.383-.727,7.782,7.782,0,0,1,3.494.727,6.966,6.966,0,0,1,2.414,1.929A8.628,8.628,0,0,1,73.1-3.324a8.749,8.749,0,0,1,.474,2.8A8.786,8.786,0,0,1,73.1,2.264a8.474,8.474,0,0,1-1.433,2.623,7.165,7.165,0,0,1-2.392,1.929A7.413,7.413,0,0,1,65.88,7.543ZM65.99,6.4a4.161,4.161,0,0,0,2.215-.573,4.728,4.728,0,0,0,1.543-1.532,7.143,7.143,0,0,0,.893-2.116,9.554,9.554,0,0,0,.287-2.3A11.094,11.094,0,0,0,70.6-2.85a7.907,7.907,0,0,0-1-2.358A5.179,5.179,0,0,0,67.93-6.862a4.307,4.307,0,0,0-2.292-.606,4.1,4.1,0,0,0-2.226.6,4.8,4.8,0,0,0-1.543,1.554A7.55,7.55,0,0,0,60.976-3.2a9.3,9.3,0,0,0-.3,2.325,10.344,10.344,0,0,0,.309,2.425,8.861,8.861,0,0,0,.948,2.381,5.406,5.406,0,0,0,1.642,1.785A4.183,4.183,0,0,0,65.99,6.4ZM85.409,7.543a8.3,8.3,0,0,1-3.582-.705,6.6,6.6,0,0,1-2.414-1.885,8.009,8.009,0,0,1-1.367-2.612,9.7,9.7,0,0,1-.441-2.865,8.849,8.849,0,0,1,.474-2.81,8.339,8.339,0,0,1,1.433-2.612,7.194,7.194,0,0,1,2.4-1.918A7.43,7.43,0,0,1,85.3-8.592a7.782,7.782,0,0,1,3.494.727,6.966,6.966,0,0,1,2.414,1.929,8.628,8.628,0,0,1,1.422,2.612,8.749,8.749,0,0,1,.474,2.8,8.786,8.786,0,0,1-.474,2.788A8.474,8.474,0,0,1,91.2,4.887,7.165,7.165,0,0,1,88.8,6.815,7.413,7.413,0,0,1,85.409,7.543Zm.11-1.146a4.161,4.161,0,0,0,2.215-.573,4.728,4.728,0,0,0,1.543-1.532,7.143,7.143,0,0,0,.893-2.116,9.553,9.553,0,0,0,.287-2.3,11.094,11.094,0,0,0-.331-2.722,7.907,7.907,0,0,0-1-2.358,5.179,5.179,0,0,0-1.664-1.653,4.307,4.307,0,0,0-2.292-.606,4.1,4.1,0,0,0-2.226.6A4.8,4.8,0,0,0,81.4-5.319,7.55,7.55,0,0,0,80.5-3.2a9.3,9.3,0,0,0-.3,2.325,10.344,10.344,0,0,0,.309,2.425,8.861,8.861,0,0,0,.948,2.381,5.406,5.406,0,0,0,1.642,1.785A4.183,4.183,0,0,0,85.519,6.4Zm11.638.794V6.22A1.825,1.825,0,0,0,98.2,5.912a1.253,1.253,0,0,0,.408-.794A8.427,8.427,0,0,0,98.7,3.774V-5.4q0-.485.022-.937t.044-.782q-.375.022-.816.044t-.794.044V-8.239h5.422v.97a1.688,1.688,0,0,0-1.036.3,1.266,1.266,0,0,0-.419.794,8.387,8.387,0,0,0-.088,1.356V-1.3h1.631l2.4-3.857q.331-.507.749-1.08a5.673,5.673,0,0,1,.794-.9q-.331.022-.694.033t-.65.033V-8.239h4.959v.97A5.706,5.706,0,0,0,108.763-7a3.866,3.866,0,0,0-1.311.771,7.318,7.318,0,0,0-1.345,1.7L103.969-1.12a3.937,3.937,0,0,1,.948.794q.375.441.727.9l2.4,3.24a14.782,14.782,0,0,0,1.223,1.477,3.2,3.2,0,0,0,.981.727,2.334,2.334,0,0,0,.926.2v.97h-2.932a1.068,1.068,0,0,1-.573-.331,8.153,8.153,0,0,1-.8-.838q-.43-.507-.827-1.014L103.55,1.569q-.375-.507-.76-.992a2.885,2.885,0,0,0-.76-.705h-.992V4.236q0,.6-.011,1.069a6.165,6.165,0,0,1-.055.76q.375-.044.827-.055t.782-.033V7.19ZM134.144-3.478a7.5,7.5,0,0,0-.287-2.094,2.309,2.309,0,0,0-.871-1.256,2.784,2.784,0,0,0-1.664-.4h-1.587l-.022,11.462q0,.6-.011,1.069a6.164,6.164,0,0,1-.055.76q.419-.044.915-.055t.893-.033V7.19h-5.6V6.22a1.766,1.766,0,0,0,1.036-.309,1.291,1.291,0,0,0,.4-.8,8.469,8.469,0,0,0,.088-1.334V-7.2l-1.852.022a2.206,2.206,0,0,0-1.962.9,5.033,5.033,0,0,0-.617,2.8h-1.036l.132-4.761h13l.132,4.761ZM146.576,7.543a8.3,8.3,0,0,1-3.582-.705,6.6,6.6,0,0,1-2.414-1.885,8.009,8.009,0,0,1-1.367-2.612,9.7,9.7,0,0,1-.441-2.865,8.848,8.848,0,0,1,.474-2.81,8.338,8.338,0,0,1,1.433-2.612,7.194,7.194,0,0,1,2.4-1.918,7.43,7.43,0,0,1,3.383-.727,7.782,7.782,0,0,1,3.494.727,6.966,6.966,0,0,1,2.414,1.929,8.628,8.628,0,0,1,1.422,2.612,8.749,8.749,0,0,1,.474,2.8,8.785,8.785,0,0,1-.474,2.788,8.473,8.473,0,0,1-1.433,2.623,7.165,7.165,0,0,1-2.392,1.929A7.413,7.413,0,0,1,146.576,7.543Zm.11-1.146a4.161,4.161,0,0,0,2.215-.573,4.728,4.728,0,0,0,1.543-1.532,7.142,7.142,0,0,0,.893-2.116,9.554,9.554,0,0,0,.287-2.3,11.093,11.093,0,0,0-.331-2.722,7.908,7.908,0,0,0-1-2.358,5.179,5.179,0,0,0-1.664-1.653,4.307,4.307,0,0,0-2.292-.606,4.1,4.1,0,0,0-2.226.6,4.8,4.8,0,0,0-1.543,1.554,7.55,7.55,0,0,0-.893,2.116,9.3,9.3,0,0,0-.3,2.325,10.344,10.344,0,0,0,.309,2.425,8.86,8.86,0,0,0,.948,2.381,5.406,5.406,0,0,0,1.642,1.785A4.183,4.183,0,0,0,146.686,6.4Zm23.585,1.1-8.2-10.889q-.242-.287-.463-.6t-.463-.639h-.022l.066,8.574q0,.551-.011,1.1t-.055,1.014q.375-.044.827-.055t.782-.033V7.19h-4.364V6.22a1.533,1.533,0,0,0,.937-.242,1.233,1.233,0,0,0,.441-.639,3.178,3.178,0,0,0,.121-.926V-6.344q0-.441.022-.771-.353.022-.782.044t-.76.044V-8.239h2.91l7.759,10.205q.375.485.672.9t.584.794h.022l.022-9.059q0-.485.022-.937t.044-.782l-.838.044q-.441.022-.771.044V-8.239h4.364v.97a1.636,1.636,0,0,0-1.025.3,1.246,1.246,0,0,0-.4.794,9.566,9.566,0,0,0-.077,1.356L171.615,7.5Zm14.261.044a7.814,7.814,0,0,1-3.946-.97,6.642,6.642,0,0,1-2.623-2.722,8.629,8.629,0,0,1-.926-4.089,9.824,9.824,0,0,1,.474-3.02,8.473,8.473,0,0,1,1.433-2.689,6.961,6.961,0,0,1,2.4-1.929,7.473,7.473,0,0,1,3.361-.716,9.256,9.256,0,0,1,1.521.132,9.451,9.451,0,0,1,1.554.4,7.21,7.21,0,0,1,1.378.639l-.088-1.014h1.367v5.07h-1.014a4.546,4.546,0,0,0-.738-2.237,4.074,4.074,0,0,0-1.609-1.389,4.925,4.925,0,0,0-2.171-.474,4.4,4.4,0,0,0-2.127.518,5.231,5.231,0,0,0-1.664,1.433,6.808,6.808,0,0,0-1.091,2.149,8.821,8.821,0,0,0-.386,2.645,9.112,9.112,0,0,0,.672,3.6,5.821,5.821,0,0,0,1.907,2.48,4.756,4.756,0,0,0,2.887.9,7.46,7.46,0,0,0,1.157-.1,7.832,7.832,0,0,0,1.256-.309,4.908,4.908,0,0,0,1.135-.54V2.848q0-.551.011-1.091t.011-1q-.353.022-.794.044t-.771.044V-.37h5.268V.6a1.369,1.369,0,0,0-.849.242,1.387,1.387,0,0,0-.463.606,2.963,2.963,0,0,0-.187.771,7.1,7.1,0,0,0-.044.76V6.419h-.573a4.86,4.86,0,0,0-1.08.143,11.541,11.541,0,0,0-1.389.43,9.7,9.7,0,0,1-1.565.4A9.847,9.847,0,0,1,184.532,7.543Z" transform="translate(26.248 211.393)" fill="#caa846"/></svg>