<svg xmlns="http://www.w3.org/2000/svg" viewBox="0 0 32 27" width="32" height="27">
  <path d="M24,9.62h0c4.27-1.48,8-2.95,8-5.24V.08S32,0,32,0s0,0,0,.07c-.46,2.17-4.5,3.6-8,4.81s-7.67,3.16-8,6.4c-.3-3.24-4.57-5.22-8-6.4S.52,2.25.05.08C0,0,0,0,0,0s0,0,0,.07V4.39C0,6.67,3.77,8.15,8,9.62c2.42.84,5.36,2,6.91,3.88C13.4,15.35,10.46,16.55,8,17.38H8c-4.27,1.48-8,3-8,5.24v4.31S0,27,0,27s0,0,0-.07c.47-2.18,4.51-3.61,8-4.82s7.67-3.15,8-6.39c.3,3.24,4.57,5.21,8,6.39s7.52,2.64,8,4.82C32,27,32,27,32,27s0-.05,0-.07V22.62c0-2.28-3.76-3.76-8-5.24-2.42-.84-5.37-2-6.91-3.88C18.61,11.66,21.56,10.46,24,9.62Z" fill="#c6a546"/>
</svg>
