<svg id="Component_72_4" data-name="Component 72 – 4" xmlns="http://www.w3.org/2000/svg" xmlns:xlink="http://www.w3.org/1999/xlink" width="202.642" height="149" viewBox="0 0 202.642 149">
  <defs>
    <clipPath id="clip-path">
      <rect id="Rectangle_106" data-name="Rectangle 106" width="202.642" height="149" fill="none"/>
    </clipPath>
  </defs>
  <rect id="Rectangle_101" data-name="Rectangle 101" width="0.554" height="23.84" transform="translate(29.517 107.281)" fill="#1a1818"/>
  <rect id="Rectangle_102" data-name="Rectangle 102" width="0.554" height="23.84" transform="translate(65.275 107.281)" fill="#1a1818"/>
  <rect id="Rectangle_103" data-name="Rectangle 103" width="0.554" height="23.84" transform="translate(101.035 107.281)" fill="#1a1818"/>
  <rect id="Rectangle_104" data-name="Rectangle 104" width="0.553" height="23.84" transform="translate(136.793 107.281)" fill="#1a1818"/>
  <rect id="Rectangle_105" data-name="Rectangle 105" width="0.553" height="23.84" transform="translate(172.552 107.281)" fill="#1a1818"/>
  <g id="Group_66" data-name="Group 66">
    <g id="Group_65" data-name="Group 65" clip-path="url(#clip-path)">
      <path id="Path_333" data-name="Path 333" d="M178.285,257.771c.217.239.425.472.487.54h3.983l.4,0c1.165.047,1.474.661,1.529,1.167.508,7.736,1.259,12.527,2.562,15.057a12.761,12.761,0,0,0,5.994,5.5c.045-.046.054-.056.093-.1a23.832,23.832,0,0,1-2.91-7.028,90.8,90.8,0,0,1-1.59-13.807c-.046-.9-.7-1.329-1.982-1.329Zm-4.955,1.614v2.708l0,2.439c0,5.582-1.8,12-4.709,15.4l.126.123a12.48,12.48,0,0,0,6.3-5.7,17.818,17.818,0,0,0,2.568-9.819v-5.147Z" transform="translate(-97.716 -149.374)" fill="#1a1818"/>
      <path id="Path_334" data-name="Path 334" d="M254.847,258.18c.022.047.1.181.118.212.214,0,4.936-.171,4.936-.171v3.223H255.09l.5.54h3.91l.219.005h.182v17.055h3.859V261.99H268.8c-.235-.243-.468-.483-.527-.548-.154,0-4.511,0-4.511,0v-3.368l.172-.01c1.709-.093,3.17-.218,4.419-.368l-2.384-1.943a87.513,87.513,0,0,1-11.121,2.423" transform="translate(-147.68 -148.207)" fill="#1a1818"/>
      <path id="Path_335" data-name="Path 335" d="M289.66,278.888h9.456V258.71a2.516,2.516,0,0,0-2.63-2.865,9.314,9.314,0,0,0-2.912.532l-.243.082v-.614l-3.676,0c0,.354.005,22.7.005,23.046m3.671-21.662.141-.032a6.09,6.09,0,0,1,1.389-.186.751.751,0,0,1,.687.785v20.552h-2.217Z" transform="translate(-167.85 -148.256)" fill="#1a1818"/>
      <path id="Path_336" data-name="Path 336" d="M256.323,277.095v3.259c-.007,2.131-.068,3.933-.192,5.392a13.258,13.258,0,0,1-.726,3.366l.071.06a9.219,9.219,0,0,0,2.345-2.674,11.993,11.993,0,0,0,1.218-6.107v-3.3Z" transform="translate(-148.003 -160.572)" fill="#1a1818"/>
      <path id="Path_337" data-name="Path 337" d="M281.5,277.095v3.259c.007,2.131.068,3.933.193,5.392a13.187,13.187,0,0,0,.726,3.366l-.072.06A9.171,9.171,0,0,1,280,286.5c-.81-1.313-1.219-3.366-1.219-6.107v-3.3Z" transform="translate(-161.551 -160.572)" fill="#1a1818"/>
      <path id="Path_338" data-name="Path 338" d="M364.161,259.792c-.215.266-.423.424-.628.424a1.4,1.4,0,0,1-1.042-.607c-.746-.989-1.353-1.872-1.813-2.629a3.318,3.318,0,0,0-2.13-1.414,29.739,29.739,0,0,0-3.994-.175,32.9,32.9,0,0,0-6.169.823l-.272.057.223-1.084-4.607,0a9.278,9.278,0,0,1-3.287,5.989c.059.08.087.114.137.178a15.161,15.161,0,0,0,4.324-1.367l.042-.023h13.613l.647.551a5.214,5.214,0,0,0,3.087.869,2.892,2.892,0,0,0,2.092-1.416c-.091-.069-.135-.1-.223-.172m-18.342-.376.375-.315a6.024,6.024,0,0,0,1.668-2.231l.038-.087.095-.018a34.8,34.8,0,0,1,5.925-.828,2.8,2.8,0,0,1,2.89,1.555,9.312,9.312,0,0,0,1.006,1.636l.225.289Zm13.793,11.2H345.9v-.575h-4.069v3.333s0,5.011,0,5.347h20.93v-5.057c0-2.05-1.031-3.047-3.144-3.047m-1.031,7.562H345.893v-3.1h12.688Zm0-3.638H345.893l0-3.379h11.15a1.354,1.354,0,0,1,1.534,1.495Zm2.073-12.591H345.085v.542h5.11v6.087h-4.937v-4.947h-.012V261.5h-4.053c0,.464,0,7.315,0,7.647H363.35v-4.57c0-1.772-.881-2.631-2.7-2.631m-1.478,6.629H354.16v-6.087h3.408a1.424,1.424,0,0,1,1.609,1.576Zm-4.355-.585,0,0a5.61,5.61,0,0,0,2.564-1.8,5.372,5.372,0,0,0,1.036-2.57l-2.414-.011a10.908,10.908,0,0,1-1.191,4.375m-6.874-.165a1.254,1.254,0,0,0,1.246-1.352c0-.027,0-.056,0-.087a1.394,1.394,0,0,0-.646-1.028,9.881,9.881,0,0,0-2.414-1.458l-.033.045a5.685,5.685,0,0,1,.686,2.2c.1,1.675.9,1.675,1.165,1.675" transform="translate(-197.281 -147.875)" fill="#1a1818"/>
      <path id="Path_339" data-name="Path 339" d="M445.515,257.462h-1.428v-2.116l-3.859-.021v1.328l0,.8H439.15v-.458l-3.862,0,.005,3.595h-.184c-.26,0-.461-.177-.595-.53a14.773,14.773,0,0,1-.879-2.913,2.149,2.149,0,0,0-2.255-1.408,5.987,5.987,0,0,0-1.86.325l-.318.112s.229-.971.246-1.054l-3.253.02c-.022.172-.055.442-.055.442A10.326,10.326,0,0,1,424,261.59c.051.045.061.056.105.093a9.088,9.088,0,0,0,3.777-2.7,6.529,6.529,0,0,0,1.09-1.947l.036-.1.079-.01.242-.035c.594,0,.975.476,1.132,1.415,0,0,.362,1.363.362,1.363l.045.177-.177.055s-2.874-.036-3.133.026v2.179l-2.8-.009v14.842c.165,1.349.987,2.013,2.51,2.013a12.315,12.315,0,0,0,4.756-1.248l.2-.091.054.209a1.227,1.227,0,0,0,1.275,1.052c.735-.059,1.155-.573,1.27-1.568a2.8,2.8,0,0,0-.727-1.752,12.261,12.261,0,0,0-2.572-2.408c-.067.09-.1.138-.147.192a14.733,14.733,0,0,1,.8,3.715l.012.139-.137.047a10.708,10.708,0,0,1-2.833.68c-.334,0-.9-.141-.9-1.083v-4.514H434.4v-7.651c-.064-1.569-1.079-2.4-3.12-2.543l-.286-.01v-1.847l.392.388a2.55,2.55,0,0,0,1.85.67,4.285,4.285,0,0,0,2.279-.694l.047-.029h3.592V258h2.4l.762.007h.532a1.261,1.261,0,0,1,1.427,1.393v1.213h4.067v-1.033c-.082-1.42-1.005-2.116-2.825-2.116m-14.761,14.294h-2.43v-4.137h2.43Zm-2.431-4.682v-4.417s.932.006,1.321.006a1.046,1.046,0,0,1,1.107,1.064l0,3.346Zm16.98,2.864h-5.438v-1.843H447.5v-3.872a2.067,2.067,0,0,0-2.378-2.322H442.45v0h-2.585v-.509l-3.76-.006s.008,16.733.008,17.086h11.91v-5.9c0-1.772-.888-2.632-2.719-2.632m-5.438-7.5h1.976v0h.083a1.422,1.422,0,0,1,1.608,1.574v3.507h-3.667Zm4.2,15.481h-4.2v-7.074h0v-.366h2.384a1.628,1.628,0,0,1,1.813,1.8Z" transform="translate(-245.699 -147.836)" fill="#1a1818"/>
      <path id="Path_340" data-name="Path 340" d="M84.49,275.441c.121.206,1.81,3.039,2.1,3.519a18.957,18.957,0,0,0,1.786-5.38,42.848,42.848,0,0,0,.686-6.266c-.084-.042-.163-.083-.3-.151a19.081,19.081,0,0,1-4.274,8.278m2.747-8.278c.914-.062,1.428-.668,1.559-1.853a2.2,2.2,0,0,0-.966-1.6,16.84,16.84,0,0,0-3.659-2.279l-.222.291a7.074,7.074,0,0,1,1.7,3.366c.1,1.4.62,2.072,1.59,2.072m21.292,1.238c.018-.062.026-.088.043-.156a7.287,7.287,0,0,1-2.336-1.979,12.038,12.038,0,0,1-1.131-1.971l-.119-.254h3.184l-.476-.54h-2.6l0-.181v-4.827h2.575c-.215-.238-.424-.471-.484-.539h-2.089s0-2.061,0-2.386h-3.965c0,.36,0,2.384,0,2.384l-.187,0H98.917l-2.278,0v-2.384H92.47v2.384H90.094c.213.241.42.475.484.544h1.886v5H89.593c.213.243.424.48.484.55l2.712.007-.065.227a8.029,8.029,0,0,1-3.224,4.651c.016.057.023.08.04.151a6.34,6.34,0,0,0,2.052-.464l.264-.124v7.93c0,1.513,1.02,2.247,3.117,2.247h9.586a3.694,3.694,0,0,0,2.389-.627,4.824,4.824,0,0,0,1.19-1.833c-.153-.056-.274-.1-.406-.152a4.375,4.375,0,0,1-1.075,1.511,2.916,2.916,0,0,1-2.1.558h-7.1c-1.139,0-1.459-.634-1.529-1.164v-3.248h10.933v-3.148a3.038,3.038,0,0,0-.519-1.88l-.279-.363.459.079a5.26,5.26,0,0,0,2.01,0m-11.891-9.908h4.487v5H96.639Zm6.255,14.681H95.926v-4.058h0v-.5h0v-.347h5.3a1.615,1.615,0,0,1,1.669,1.807Zm.636-5.444h-1.844v0h-5.76v-1.067l.029-.045a9.855,9.855,0,0,0,1.029-2.444l.042-.127h3.829l.047.112a6.578,6.578,0,0,0,2.261,2.941l.968.634ZM88.122,257.574a15.989,15.989,0,0,0-3.742-2.285c-.079.1-.142.178-.217.268a6.988,6.988,0,0,1,1.8,3.392c.1,1.4.611,2.074,1.563,2.074.932-.063,1.455-.669,1.585-1.854a2.183,2.183,0,0,0-.99-1.6" transform="translate(-48.646 -147.936)" fill="#1a1818"/>
      <path id="Path_341" data-name="Path 341" d="M7.853,271.716H4.36l-.739.015a7.342,7.342,0,0,1-1.493,3.583A11.494,11.494,0,0,1,0,277.142c.027.052.032.063.059.114a19.1,19.1,0,0,0,5.1-2.187,6.208,6.208,0,0,0,2.7-3.353" transform="translate(0 -157.455)" fill="#1a1818"/>
      <path id="Path_342" data-name="Path 342" d="M20.335,268.582h-5.7V261.49h9.634c-.188-.236-.369-.467-.431-.542h-9.2V258.58l.176-.008a63.507,63.507,0,0,0,8.445-.952l-3.4-1.938A140.535,140.535,0,0,1,1.138,258.43c.016.082,0,.209.016.275.947.122,9.4-.077,9.4-.077l0,.177v2.143H.634c.186.238.367.469.428.548H5.135c.025,0,.093-.005.093-.005H10.56v7.084H6.116v-.636H2.055V278.8h21v-7.584c0-1.772-.89-2.633-2.721-2.633m-1.454,9.676H6.123v-4.307H18.881Zm0-4.85H6.123v-2.894H6.116v-1.393H9.628v.007h7.934a1.165,1.165,0,0,1,1.319,1.287Z" transform="translate(-0.367 -148.164)" fill="#1a1818"/>
      <path id="Path_343" data-name="Path 343" d="M44.175,273.485a25.762,25.762,0,0,0-5.038-1.725c-.069.067-.161.155-.284.275a12.406,12.406,0,0,1,3.793,3.815,2.023,2.023,0,0,0,1.591,1.07,1.534,1.534,0,0,0,1.693-1.426c0-.681-.591-1.365-1.755-2.008" transform="translate(-22.515 -157.48)" fill="#1a1818"/>
      <path id="Path_344" data-name="Path 344" d="M273.654,83.557c-6.676,2.255-14.881,5.5-18.905,10.579a11.037,11.037,0,0,0-2.34,4.838,4.46,4.46,0,0,0-.059,1.3,5.933,5.933,0,0,1-.065-.755c0-.263,0-.108,0-.316v-10.8c0-9.089,11.92-14.044,21.369-17.249,9.343-3.169,20.165-6.913,21.42-12.614.031-.137.048-.189.081-.189s.041.123.041.192V69.831c0,5.988-10.085,9.856-21.542,13.727" transform="translate(-146.195 -33.816)" fill="#1a1818"/>
      <path id="Path_345" data-name="Path 345" d="M273.654,143.8c-6.676-2.255-14.881-5.5-18.905-10.578a11.037,11.037,0,0,1-2.34-4.838,4.46,4.46,0,0,1-.059-1.3,5.934,5.934,0,0,0-.065.755c0,.263,0,.108,0,.316v10.8c0,9.089,11.92,14.046,21.369,17.25,9.343,3.169,20.165,6.913,21.42,12.613.031.138.048.189.081.189s.041-.123.041-.192V157.529c0-5.988-10.085-9.857-21.542-13.728" transform="translate(-146.195 -73.643)" fill="#e50019"/>
      <path id="Path_346" data-name="Path 346" d="M273.654,25.2c-6.676,2.255-14.881,5.5-18.905,10.579a11.037,11.037,0,0,0-2.34,4.838,4.457,4.457,0,0,0-.059,1.3,5.923,5.923,0,0,1-.065-.755c0-.263,0-.108,0-.316v-10.8c0-9.089,11.92-14.045,21.369-17.249C283,9.633,293.819,5.889,295.074.189c.031-.137.048-.189.081-.189s.041.123.041.192V11.475c0,5.988-10.085,9.856-21.542,13.727" transform="translate(-146.195 0)" fill="#1a1818"/>
      <path id="Path_347" data-name="Path 347" d="M273.654,85.446c-6.676-2.254-14.881-5.5-18.905-10.578a11.037,11.037,0,0,1-2.34-4.838,4.459,4.459,0,0,1-.059-1.3,5.923,5.923,0,0,0-.065.755c0,.263,0,.108,0,.316V80.6c0,9.089,11.92,14.045,21.369,17.25,9.343,3.169,20.165,6.913,21.42,12.613.031.137.048.189.081.189s.041-.123.041-.192V99.173c0-5.988-10.085-9.856-21.542-13.727" transform="translate(-146.195 -39.827)" fill="#e50019"/>
      <path id="Path_348" data-name="Path 348" d="M149.1,83.557c6.675,2.255,14.881,5.5,18.9,10.579a11.037,11.037,0,0,1,2.34,4.838,4.446,4.446,0,0,1,.059,1.3,5.936,5.936,0,0,0,.065-.755c0-.263,0-.108,0-.316v-10.8c0-9.089-11.92-14.044-21.369-17.249-9.345-3.169-20.166-6.913-21.421-12.614-.03-.137-.048-.189-.081-.189s-.041.123-.041.192V69.831c0,5.988,10.085,9.856,21.543,13.727" transform="translate(-73.919 -33.816)" fill="#1a1818"/>
      <path id="Path_349" data-name="Path 349" d="M149.1,143.8c6.675-2.255,14.881-5.5,18.9-10.578a11.037,11.037,0,0,0,2.34-4.838,4.446,4.446,0,0,0,.059-1.3,5.937,5.937,0,0,1,.065.755c0,.263,0,.108,0,.316v10.8c0,9.089-11.92,14.046-21.369,17.25-9.345,3.169-20.166,6.913-21.421,12.613-.03.138-.048.189-.081.189s-.041-.123-.041-.192V157.529c0-5.988,10.085-9.857,21.543-13.728" transform="translate(-73.919 -73.643)" fill="#e50019"/>
      <path id="Path_350" data-name="Path 350" d="M149.1,25.2c6.675,2.255,14.881,5.5,18.9,10.579a11.037,11.037,0,0,1,2.34,4.838,4.442,4.442,0,0,1,.059,1.3,5.926,5.926,0,0,0,.065-.755c0-.263,0-.108,0-.316v-10.8c0-9.089-11.92-14.045-21.369-17.249C139.758,9.633,128.937,5.889,127.682.189,127.652.052,127.634,0,127.6,0s-.041.123-.041.192V11.475c0,5.988,10.085,9.856,21.543,13.727" transform="translate(-73.919 0)" fill="#1a1818"/>
      <path id="Path_351" data-name="Path 351" d="M149.1,85.446c6.675-2.254,14.881-5.5,18.9-10.578a11.037,11.037,0,0,0,2.34-4.838,4.444,4.444,0,0,0,.059-1.3,5.926,5.926,0,0,1,.065.755c0,.263,0,.108,0,.316V80.6c0,9.089-11.92,14.045-21.369,17.25-9.345,3.169-20.166,6.913-21.421,12.613-.03.137-.048.189-.081.189s-.041-.123-.041-.192V99.173c0-5.988,10.085-9.856,21.543-13.727" transform="translate(-73.919 -39.827)" fill="#e50019"/>
      <path id="Path_352" data-name="Path 352" d="M160.763,337.305h1.7l.329-.536c.011-.017.037-.025.076-.025a1.453,1.453,0,0,1,.4.287l.325.287c.09.079.135.136.135.17,0,.05-.021.076-.064.076H160.8a10.2,10.2,0,0,0,.515,2.751h.017a7.429,7.429,0,0,0,.756-2.249q.988.389.987.527,0,.072-.1.106a1.4,1.4,0,0,0-.131.057,2.237,2.237,0,0,0-.215.437,10.613,10.613,0,0,1-.979,1.857,2.446,2.446,0,0,0,.69.749,1.365,1.365,0,0,0,.555.289.175.175,0,0,0,.127-.055,2.426,2.426,0,0,0,.228-.492q.173-.437.312-.863l.148.034a12.3,12.3,0,0,0-.127,1.35,2.079,2.079,0,0,0,.262,1.068c0,.14-.05.211-.152.211a2.74,2.74,0,0,1-1.236-.466,4.081,4.081,0,0,1-1.308-1.214,8.2,8.2,0,0,1-2.815,1.532l-.1-.114a10.121,10.121,0,0,0,2.579-2,11.875,11.875,0,0,1-.734-3.519h-2.258l-.034.92v.447h1.038l.291-.32c.011-.015.042-.021.093-.021a1.511,1.511,0,0,1,.352.2c.2.134.306.215.306.243q0,.068-.258.312l-.109,1.19a5.013,5.013,0,0,1-.15.947.994.994,0,0,1-.291.4,1.422,1.422,0,0,1-.521.285l-.249.081a.88.88,0,0,0-.2-.437.841.841,0,0,0-.285-.23l-.278-.114.038-.164.924.088a.144.144,0,0,0,.159-.07,5.7,5.7,0,0,0,.141-.91,11.537,11.537,0,0,0,.1-1.224h-1.123l-.114,1.321a3.6,3.6,0,0,1-.352,1.228,5.179,5.179,0,0,1-1.306,1.528.683.683,0,0,1-.122-.068,8.519,8.519,0,0,0,.745-1.3,4.233,4.233,0,0,0,.308-1.262q.074-.724.074-.956a.327.327,0,0,0,0-.063l.017-.017v-1.452c0-.067-.005-.1-.017-.105q0-.258-.067-1.165a2.841,2.841,0,0,1,.587.239c.239.122.36.184.363.184h2.169l-.118-1.511-.055-.426q1.135.215,1.135.333c0,.042-.043.087-.129.135a.616.616,0,0,0-.159.109.226.226,0,0,0-.029.135q0,.3.072,1.224m.312-1.368.051-.135q1.384.165,1.384.776a.625.625,0,0,1-.169.4.449.449,0,0,1-.308.2.171.171,0,0,1-.164-.1,2.6,2.6,0,0,0-.794-1.144" transform="translate(-90.325 -194.34)" fill="#1a1818"/>
      <path id="Path_353" data-name="Path 353" d="M187.662,342.874l-.2-.333h4.131a20.523,20.523,0,0,0,1.021-4.452,8.181,8.181,0,0,1,.954.471c.127.086.19.156.19.213s-.062.12-.186.148-.2.065-.215.11l-.777,2.047-.625,1.464h1.87l.527-.692c.011-.015.044-.021.1-.021a1.894,1.894,0,0,1,.526.407q.445.407.445.487c0,.05-.023.076-.068.076h-6.457q-.245,0-1.232.076m.472-4.769-.224-.363h5.7a4.785,4.785,0,0,1,.6-.722,2.529,2.529,0,0,1,.527.431q.468.43.468.523c0,.036-.023.055-.067.055H189q-.231,0-.865.076m1.477.076a6.154,6.154,0,0,1,1.4,2.873,1.181,1.181,0,0,1-.22.713.586.586,0,0,1-.439.3c-.124,0-.2-.1-.232-.3a8.774,8.774,0,0,0-.671-3.516.236.236,0,0,1,.16-.08m.9-2.524.1-.118a4.437,4.437,0,0,1,.981.437,1.452,1.452,0,0,1,.528.449.869.869,0,0,1,.095.4.794.794,0,0,1-.179.5.5.5,0,0,1-.382.23q-.211,0-.3-.363a3.1,3.1,0,0,0-.844-1.532" transform="translate(-108.629 -194.439)" fill="#1a1818"/>
      <path id="Path_354" data-name="Path 354" d="M226.625,342.178h-3.473v.6c0,.107-.086.206-.257.3a.962.962,0,0,1-.388.136c-.082,0-.123-.047-.123-.14l.042-1.009V337.6l-.059-1.245.975.426h.493a7.3,7.3,0,0,0,.431-1.616q1,.358,1,.468c0,.065-.054.124-.164.177a1.077,1.077,0,0,0-.35.321l-.5.65h2.11l.447-.4a.137.137,0,0,1,.092-.029,1.22,1.22,0,0,1,.4.242q.325.243.325.281c0,.028-.036.081-.108.16a.622.622,0,0,0-.129.179,1.106,1.106,0,0,0-.021.281v4.156l.055,1.114c0,.056-.1.123-.3.2a1.481,1.481,0,0,1-.422.117c-.053,0-.08-.023-.08-.067Zm0-5.136h-3.473V338.4h3.473Zm0,1.616h-3.473v1.418h3.473Zm0,1.679h-3.473v1.578h3.473Z" transform="translate(-128.858 -194.224)" fill="#1a1818"/>
      <path id="Path_355" data-name="Path 355" d="M252.443,340.687c0-.311-.009-.657-.035-1.055l-.432.233a6.763,6.763,0,0,0-.812.518,1.284,1.284,0,0,0-.4-.441,9.768,9.768,0,0,0,2.455-1.2l.1.026c-.069,1.279-.1,2.722-.1,4.321,0,.476,0,.994.017,1.565a1.789,1.789,0,0,0-.475-.061,1.668,1.668,0,0,0-.458.061c.087-.83.147-2.153.147-3.967" transform="translate(-145.315 -196.295)" fill="#1a1818"/>
      <path id="Path_356" data-name="Path 356" d="M274.067,344.635c.986,0,1.729-.968,1.781-2.619a1.865,1.865,0,0,1-1.392.613,1.571,1.571,0,0,1-1.677-1.737,1.8,1.8,0,0,1,1.919-1.78c1.383,0,2.057.813,2.057,2.455,0,2.1-1.123,3.431-2.766,3.431a2.1,2.1,0,0,1-.777-.121l-.079-.579a1.4,1.4,0,0,0,.934.337m-.441-3.751c0,.839.432,1.323,1.106,1.323.709,0,1.132-.467,1.132-1.305,0-.951-.389-1.444-1.071-1.444-.726,0-1.167.51-1.167,1.426" transform="translate(-158.071 -196.51)" fill="#1a1818"/>
      <path id="Path_357" data-name="Path 357" d="M295.462,343.78a1.078,1.078,0,0,0,1.184,1.055,1.269,1.269,0,0,0,1.331-1.392,1.218,1.218,0,0,0-1.314-1.357,1.2,1.2,0,0,0-.856.328l-.129-.078a5.967,5.967,0,0,0,.052-.846v-.216a13.079,13.079,0,0,0-.069-1.832c.735.043,1.236.06,1.495.06.536,0,1.055-.017,1.547-.06a3.031,3.031,0,0,0-.034.475,2.1,2.1,0,0,0,.017.328c-.406-.009-.821-.009-1.244-.009s-.847,0-1.288.009c-.044.527-.061,1.072-.061,1.651a2.291,2.291,0,0,1,1-.216,1.58,1.58,0,0,1,1.772,1.616c0,1.123-.839,1.884-2.222,1.884a2.7,2.7,0,0,1-1.443-.337c.077-.449.129-.8.164-1.063Z" transform="translate(-171.065 -196.701)" fill="#1a1818"/>
      <path id="Path_358" data-name="Path 358" d="M318.434,341.878a1.394,1.394,0,0,0-.017-.259,3.613,3.613,0,0,0,.423.026,1.006,1.006,0,0,0,1.063-1.132c0-.708-.337-1.071-.985-1.071a1,1,0,0,0-.976.925l-.061.026a4.427,4.427,0,0,0-.354-.7,2.319,2.319,0,0,1,1.582-.579c.994,0,1.608.527,1.608,1.287,0,.683-.467,1.176-1.383,1.427,1.089.061,1.651.544,1.651,1.392,0,1.046-.829,1.78-2.143,1.78a2.987,2.987,0,0,1-1.461-.328c.069-.337.121-.674.156-1h.087a1.185,1.185,0,0,0,1.21,1,1.24,1.24,0,0,0,1.271-1.383,1.117,1.117,0,0,0-1.228-1.245,1.959,1.959,0,0,0-.458.069,1.018,1.018,0,0,0,.017-.233" transform="translate(-183.916 -196.51)" fill="#1a1818"/>
    </g>
  </g>
</svg>
