<svg xmlns="http://www.w3.org/2000/svg" viewBox="0 0 213 212">
  <g>
    <g>
      <ellipse cx="106.5" cy="106" rx="106.5" ry="106" fill="none"/>
      <ellipse cx="106.5" cy="106" rx="106" ry="105.5" fill="none" stroke="#caa846"/>
    </g>
    <g>
      <path d="M130,170.37a11,11,0,1,1,11-11A11,11,0,0,1,130,170.37Zm0-19.83a8.8,8.8,0,1,0,8.8,8.8h0a8.8,8.8,0,0,0-8.8-8.8Z" fill="#caa846"/>
      <path d="M141.7,101.52h-16V80h16Zm-13.81-2.23h11.58V82.24H127.89Z" fill="#caa846"/>
      <path d="M141.71,115.52H72.14V109h69.57ZM74.37,113.3h65.11v-2.06H74.37Z" fill="#caa846"/>
      <path d="M142.1,175.49H71.74A4.75,4.75,0,0,1,67,170.74V79a4.75,4.75,0,0,1,4.74-4.75H142.1A4.75,4.75,0,0,1,146.84,79v91.78A4.75,4.75,0,0,1,142.1,175.49ZM71.74,76.44A2.52,2.52,0,0,0,69.23,79v91.78a2.52,2.52,0,0,0,2.51,2.52H142.1a2.52,2.52,0,0,0,2.51-2.52V79a2.52,2.52,0,0,0-2.51-2.52Z" fill="#caa846"/>
      <rect x="72.25" y="83.64" width="27.7" height="2.23" fill="#caa846"/>
      <rect x="72.25" y="90.05" width="23.21" height="2.23" fill="#caa846"/>
      <rect x="73.95" y="93.99" width="19.94" height="2.23" fill="#caa846"/>
      <path d="M136.15,126.8h-64v-5.29h2.23v3.06h59.55v-3.06h2.23Z" fill="#caa846"/>
      <path d="M104.71,139.47H72.14v-5.29h2.23v3.06h28.11v-3.06h2.23Z" fill="#caa846"/>
      <path d="M142,139.47H106.67v-5.29h2.23v3.06h30.9v-3.06H142Z" fill="#caa846"/>
    </g>
    <g style="isolation: isolate">
      <g style="isolation: isolate">
        <path d="M87,35.72c0-9.18,3.21-13.61,8.25-13.61s8.2,4.47,8.2,13.61-3.2,13.75-8.2,13.75S87,44.9,87,35.72Zm13.25,0c0-7.71-2-10.94-5-10.94s-5,3.23-5,10.94,2,11.12,5,11.12S100.23,43.49,100.23,35.72Z" fill="#caa846"/>
        <path d="M112,46.26h5.86V26.58h-4.67V24.49a17.09,17.09,0,0,0,5.47-1.87h2.52V46.26h5.29V49H112Z" fill="#caa846"/>
      </g>
    </g>
  </g>
</svg>
