<svg xmlns="http://www.w3.org/2000/svg" viewBox="0 0 212 212">
  <g>
    <g>
      <circle cx="106" cy="106" r="106" fill="none"/>
      <circle cx="106" cy="106" r="105.5" fill="none" stroke="#caa846"/>
    </g>
    <g>
      <path d="M106.42,126.94a11.31,11.31,0,1,1,11.31-11.31A11.31,11.31,0,0,1,106.42,126.94Zm0-20.39a9.08,9.08,0,1,0,9.08,9.08,9.07,9.07,0,0,0-9.08-9.08Z" fill="#caa846"/>
      <path d="M115.38,192.48H97.5a3.33,3.33,0,0,1-3.08-3.24V161.48c-3.36-3.51-3.36-4.95-3.36-5.44V134.92c0-2.7,2.22-5.86,8.48-5.86h13.28c5.82,0,9,3,9,5.86l0,21.12c0,.49,0,1.93-3.38,5.45v27.75a3.45,3.45,0,0,1-1,2.36A2.87,2.87,0,0,1,115.38,192.48ZM99.54,131.3c-4.61,0-6.25,1.95-6.25,3.63v21.12c0,.41.64,1.76,3,4.21l.31.32v28.66c0,.4.47,1,.86,1h17.88a.68.68,0,0,0,.44-.23,1.25,1.25,0,0,0,.37-.79V160.58l.32-.33c2.42-2.45,3.07-3.8,3.07-4.21l0-21.11c0-1.51-2.09-3.64-6.73-3.64Z" fill="#caa846"/>
      <path d="M83.15,120.57a11.31,11.31,0,1,1,11.31-11.31h0A11.32,11.32,0,0,1,83.15,120.57Zm0-20.39a9.09,9.09,0,1,0,9.08,9.08h0a9.1,9.1,0,0,0-9.08-9.08Z" fill="#caa846"/>
      <path d="M91.3,185.76H74.43a3.34,3.34,0,0,1-3.07-3.25V154.76c-3.36-3.52-3.36-5-3.36-5.44V128.2c0-2.7,2.22-5.86,8.48-5.86H91.3v2.23H76.48c-4.61,0-6.25,2-6.25,3.63v21.12c0,.41.64,1.76,3,4.21l.31.33v28.66c0,.39.47,1,.86,1H91.3Z" fill="#caa846"/>
      <path d="M129.12,120.57a11.31,11.31,0,1,1,11.31-11.31h0A11.32,11.32,0,0,1,129.12,120.57Zm0-20.39a9.09,9.09,0,1,0,9.08,9.09h0a9.1,9.1,0,0,0-9.08-9.08Z" fill="#caa846"/>
      <path d="M137.83,185.76H121v-2.23h16.86c.39,0,.85-.62.85-1V153.85l.32-.32c2.4-2.46,3-3.8,3-4.21V128.2c0-1.68-1.64-3.63-6.26-3.63H121v-2.23h14.82c6.26,0,8.48,3.16,8.48,5.86v21.12c0,.48,0,1.92-3.36,5.44v27.76A3.33,3.33,0,0,1,137.83,185.76Z" fill="#caa846"/>
      <path d="M106.13,97.23a17.54,17.54,0,1,1,17.54-17.54A17.53,17.53,0,0,1,106.13,97.23Zm0-32.85a15.31,15.31,0,1,0,15.31,15.31,15.31,15.31,0,0,0-15.31-15.31Zm-1.29,23.29-7.46-7.43L99,78.66l5.89,5.86,9.69-9.66,1.57,1.58Z" fill="#caa846"/>
    </g>
    <g style="isolation: isolate">
      <g style="isolation: isolate">
        <path d="M86,35.72c0-9.18,3.21-13.61,8.25-13.61s8.2,4.47,8.2,13.61-3.2,13.75-8.2,13.75S86,44.9,86,35.72Zm13.25,0c0-7.71-2-10.94-5-10.94s-5,3.23-5,10.94,2,11.12,5,11.12S99.23,43.49,99.23,35.72Z" fill="#caa846"/>
        <path d="M109.38,47.06c8.28-7.24,12.1-12.49,12.1-17,0-3-1.59-5.22-4.86-5.22a7.38,7.38,0,0,0-5.47,3.06L109.24,26c2.16-2.34,4.43-3.89,7.77-3.89,4.72,0,7.67,3.1,7.67,7.81,0,5.26-4.14,10.62-10.33,16.49,1.37-.11,3-.25,4.32-.25H126V49h-16.6Z" fill="#caa846"/>
      </g>
    </g>
  </g>
</svg>
