<svg xmlns="http://www.w3.org/2000/svg" viewBox="0 0 213 212">
  <g>
    <g>
      <ellipse cx="106.5" cy="106" rx="106.5" ry="106" fill="none"/>
      <ellipse cx="106.5" cy="106" rx="106" ry="105.5" fill="none" stroke="#caa846"/>
    </g>
    <g>
      <g>
        <path d="M73.28,134.19H44.49c-4.82,0-11.49-5.47-11.49-15.73,0-17.25,14.14-31.72,14.74-32.32l.36-.36H69.67l.36.36c.6.6,14.74,15.07,14.74,32.32C84.77,128.72,78.1,134.19,73.28,134.19Zm-24.16-46c-2.14,2.31-13.7,15.45-13.7,30.26,0,5.44,3.23,13.31,9.07,13.31H73.28c3.17,0,9.07-3.9,9.07-13.31,0-14.8-11.55-27.95-13.7-30.26Z" fill="#caa846"/>
        <path d="M69.57,88.2H48.2L46.14,81a4.06,4.06,0,0,1-.18-1.2,3.44,3.44,0,0,1,3.15-3.65h4.82l.12-.13a6.38,6.38,0,0,1,5.14-2.27,6.48,6.48,0,0,1,4.65,2.4h4.82a2.75,2.75,0,0,1,1.23.29A3.84,3.84,0,0,1,71.62,81ZM50,85.78h17.7l1.57-5.49a1.49,1.49,0,0,0-.47-1.72.41.41,0,0,0-.19,0h-6l-.36-.5a4.29,4.29,0,0,0-3.21-1.9,4,4,0,0,0-3.21,1.47,4.82,4.82,0,0,0-.36.43l-.36.5h-6c-.35,0-.74.53-.74,1.22a1.82,1.82,0,0,0,.08.52Z" fill="#caa846"/>
      </g>
      <g>
        <path d="M59,122.07c-6.9,0-8.73-4.37-8.73-6.68h2.42c0,.17.08,4.26,6.3,4.26,5.09,0,6.13-3,6.13-3.77,0-.12,0-.25,0-.39,0-1.32.11-3.32-6.18-4.46-7.53-1.36-7.79-6.1-7.79-6.77a6,6,0,0,1,1.57-4.14c1.38-1.47,3.48-2.22,6.26-2.22a8.61,8.61,0,0,1,6.37,2.2,6.31,6.31,0,0,1,1.81,4.14H64.72c0-.4-.23-3.92-5.75-3.92-2.07,0-3.57.48-4.47,1.42a3.56,3.56,0,0,0-1,2.42v.13c0,.11,0,3.31,5.8,4.35,7.36,1.33,8.26,4.25,8.17,6.93,0,.11,0,.21,0,.31C67.51,118.28,65.19,122.07,59,122.07Z" fill="#caa846"/>
        <rect x="57.68" y="95.51" width="2.42" height="28.94" fill="#caa846"/>
      </g>
      <g>
        <g>
          <path d="M173.39,147.85a4.79,4.79,0,0,1-3.86-2l-4-5.57,2-1.42,4,5.57a2.21,2.21,0,0,0,2.82.74,3.11,3.11,0,0,0,1-4.25l-3.22-5.84,2.12-1.17,3.2,5.79a5.51,5.51,0,0,1-1.85,7.53l-.14.08A4.13,4.13,0,0,1,173.39,147.85Z" fill="#caa846"/>
          <path d="M164.46,160.61c-1.78,0-3.74-1.14-5.84-3.41l-.72-.77,8.47-10.32a10.55,10.55,0,0,0,1.4-2.76l.64-1.92,1.39,1.48a26.61,26.61,0,0,1,3.6,5,4.68,4.68,0,0,1-.89,5.45,3.83,3.83,0,0,1-3.48,1,4.61,4.61,0,0,1,.15,2.24c-.51,2.73-3.47,3.81-3.6,3.85l-.1,0A3.85,3.85,0,0,1,164.46,160.61Zm-3.33-4.31c1.46,1.39,2.76,2,3.68,1.85.28-.11,1.77-.77,2-2,.2-1.06-.57-2.49-2.18-4.09Zm5.16-6.28,2.67,1.76a1.45,1.45,0,0,0,1.86-.2,2.24,2.24,0,0,0,.44-2.57,22,22,0,0,0-2-3,12.12,12.12,0,0,1-1,1.57Z" fill="#caa846"/>
          <path d="M111.17,192.48h-.42l.18-2.42c2.67.2,7.82-2.93,13.74-8.39a15.09,15.09,0,0,1,5.12-3.1,46.09,46.09,0,0,1,8.16-2.25c2.6-.39,6.11-3.06,6.59-3.67,1.78-2.23,21.33-26.23,21.53-26.47a4,4,0,0,0,.91-3,4.21,4.21,0,0,0-7.46-2.27l-7.26,8.89a7.84,7.84,0,0,1-6.81,2.83,7.61,7.61,0,0,1-6-4l-8.16-14.67a25,25,0,0,0-8,14.57l-1.32,8.76-5,4.24c-.79.69-8,6.88-11.8,7.57l-.43-2.39c2.71-.48,8.6-5.22,10.64-7l4.33-3.67,1.19-7.89a27.46,27.46,0,0,1,10-17l1.12-.88,9.57,17.2a5.23,5.23,0,0,0,4.15,2.76,5.43,5.43,0,0,0,4.7-2l7.26-8.88a6.63,6.63,0,0,1,11.75,3.57,6.44,6.44,0,0,1-1.46,4.8c-.19.23-19.73,24.21-21.5,26.42-.72.93-4.77,4.06-8.12,4.57a43.93,43.93,0,0,0-7.7,2.12,13,13,0,0,0-4.31,2.61C121.79,187.61,115.57,192.48,111.17,192.48Z" fill="#caa846"/>
          <path d="M167.12,140.62l-1.24-2.08,4.88-2.89a3,3,0,0,0,1.08-4l-25.63-45.8a3,3,0,0,0-4.05-1.14l-.07,0L117.85,99.1a3,3,0,0,0-1.08,4l16.38,29.28L131,133.58,114.65,104.3a5.37,5.37,0,0,1,2-7.28l24.25-14.37a5.4,5.4,0,0,1,7.4,1.9l.07.11L174,130.46a5.36,5.36,0,0,1-2,7.28Z" fill="#caa846"/>
        </g>
        <path d="M129,118.88l-9.85-16.95.81-.65c6.64-5.35,11-3.72,12.84-2.5a7.37,7.37,0,0,1,5.1-2,6.36,6.36,0,0,1,4.95,7.5c0,.14-.06.28-.1.41-.91,2.23-3.39,3.36-4.78,3.84-.34,5.92-7.63,9.63-7.95,9.79Zm-6.7-16.35,7.62,13.1c1.9-1.18,5.9-4.13,5.62-7.87l-.08-1,1-.24c.9-.21,3.4-1.12,4-2.68a4,4,0,0,0-2.84-4.58c-1.89-.18-3.9,1.94-3.92,2l-.92,1-.89-1C131.86,101,128.8,97.78,122.34,102.53Z" fill="#caa846"/>
      </g>
      <path d="M112.28,131.54a1.26,1.26,0,0,1-.43-.08l-19.7-7.56a1.21,1.21,0,0,1,.87-2.26h0l19.69,7.55a1.22,1.22,0,0,1-.43,2.35Z" fill="#caa846"/>
      <path d="M102.81,136a1.21,1.21,0,0,1-.49-2.32l8.27-3.68-4-9a1.22,1.22,0,0,1,.58-1.61,1.2,1.2,0,0,1,1.61.58l0,0,4.48,10.06a1.21,1.21,0,0,1-.61,1.6h0l-9.38,4.18A1.16,1.16,0,0,1,102.81,136Z" fill="#caa846"/>
    </g>
    <g style="isolation: isolate">
      <g style="isolation: isolate">
        <path d="M87,35.72c0-9.18,3.21-13.61,8.25-13.61s8.2,4.47,8.2,13.61-3.2,13.75-8.2,13.75S87,44.9,87,35.72Zm13.25,0c0-7.71-2-10.94-5-10.94s-5,3.23-5,10.94,2,11.12,5,11.12S100.23,43.49,100.23,35.72Z" fill="#caa846"/>
        <path d="M109.84,45.87l1.66-2.16a8.72,8.72,0,0,0,6.55,3c3.13,0,5.36-1.87,5.36-4.89,0-3.17-2.12-5.29-8.2-5.29V34c5.43,0,7.3-2.2,7.3-5,0-2.56-1.72-4.18-4.46-4.25a8.2,8.2,0,0,0-5.47,2.63l-1.76-2.09a10.51,10.51,0,0,1,7.37-3.17c4.43,0,7.67,2.38,7.67,6.62,0,3.21-1.91,5.33-4.71,6.38v.14a6.79,6.79,0,0,1,5.61,6.7c0,4.71-3.78,7.52-8.46,7.52A10.93,10.93,0,0,1,109.84,45.87Z" fill="#caa846"/>
      </g>
    </g>
  </g>
</svg>
