<svg xmlns="http://www.w3.org/2000/svg" width="329.042" height="270.366" viewBox="0 0 329.042 270.366"><g transform="translate(0 0)"><g transform="translate(63.749 0)"><g transform="translate(0 0)"><path d="M-78.357,159.528H-280.175V145.84H-78.357ZM-278.8,158.15H-79.735V147.218H-278.8Z" transform="translate(280.175 26.962)" fill="#caa846"/><path d="M-87.158,77.988H-276.884V72.34l.542-.119,94.321-20.457.145.031L-87.158,72.34Zm-188.348-1.378H-88.536V73.45l-93.485-20.277L-275.506,73.45Z" transform="translate(282.929 -51.764)" fill="#caa846"/><path d="M-87.158,214.623H-276.884V203.9h8.674V75.212h-8.674V65.291H-87.158v9.921h-8.673V203.9h8.673Zm-188.348-1.378H-88.536v-7.97h-8.673V73.834h8.673V66.669H-275.506v7.165h8.674V205.276h-8.674Zm152.908-7.97H-241.446V73.834H-122.6ZM-240.068,203.9h116.095l0-128.687H-240.068Zm136.82.689h-1.378V74.523h1.378Zm-6.021,0h-1.378V74.523h1.378Zm-6.023,0h-1.378V74.523h1.378Zm-132.481,0h-1.378V74.523h1.378Zm-6.021,0h-1.378V74.523h1.378Zm-6.021,0h-1.378V74.523h1.378Z" transform="translate(282.929 -40.444)" fill="#caa846"/><g transform="translate(52.429 48.595)"><path d="M-182.175,111.909h-21.089a3.625,3.625,0,0,1-1.593.975l-1.9,2.263h14.915c.2-.206,1.492-1.852,1.852-1.852.617,0,3.5,2.213,3.8,2.417s1.082.771,1.082,1.133c0,.512-1.594,1.387-1.9,1.593-2.16,4.166-4.631,8.846-9.618,9.875a34.2,34.2,0,0,1-4.526.617,9,9,0,0,0-.617-3.086c-.72-2.057-3.345-2.16-3.345-2.878a.289.289,0,0,1,.309-.259,5.6,5.6,0,0,1,1.288.259,24.522,24.522,0,0,0,4.732.77c3.855,0,5.76-3.7,7.1-6.789h-15.686c-.309.309-1.646,2.006-2.263,2.006-.362,0-.771-.566-.979-.77a25.372,25.372,0,0,1-2.467-3.292c0-.31,1.9-.825,2.109-.876l1.646-2.107h-10.082l-.926.718-1.49-2.777a26.081,26.081,0,0,0,2.777.259h32.35c.154-.208,1.644-1.8,2.006-1.8.514,0,3.084,2.467,3.084,3.137C-181.611,111.755-181.866,111.909-182.175,111.909ZM-186.5,86.4v16c0,1.492.154,3.034.259,4.526a36.916,36.916,0,0,1-4.732,1.029l.206-3.394.05-18.976h-5.812c1.131,1.13,2.366,2.364,2.366,2.829,0,.309-.2.41-.463.41-2.057.1-3.238.566-4.987.72a3.456,3.456,0,0,1,.617.874c0,.309-.617.771-.874.926v3.7h4.989c.309-.309.977-1.078,1.49-1.078s2.212,2,2.212,2.415c0,.36-.463.36-.667.36h-8.023v5.092a14.281,14.281,0,0,0,.2,2.008,28.042,28.042,0,0,1-4.063.667c.053-.926.208-1.954.208-2.93V99.36a27.656,27.656,0,0,1-5.865,3.6,4.454,4.454,0,0,1-1.284.514.218.218,0,0,1-.206-.206c0-.257.564-.77.718-.977a41.01,41.01,0,0,0,4.836-5.555h-3.7l-.926.72-1.491-2.623c.926.051,1.852.206,2.777.206h5.143V91.746a11.773,11.773,0,0,0-.208-1.9c-1.284.053-5.861.154-6.684,0-.154-.05-.67-.2-.154-.309a69.324,69.324,0,0,0,11.418-3.8c.1,0,.154-.053.257-.154h-12.654a6.145,6.145,0,0,1-.615.564V104.6l.257,2.572a45.556,45.556,0,0,1-4.528.617c.1-1.749.259-3.549.259-5.3V87.222a19.833,19.833,0,0,0-.309-3.5,6.988,6.988,0,0,1-.413-1.389c0-.154.1-.2.259-.2a1.812,1.812,0,0,1,.512.1c1.185.362,3.551,1.39,4.423,1.492a15.909,15.909,0,0,0,2.213.053c1.029-1.8,2.775-3.345,2.93-5.4a.289.289,0,0,1,.259-.154c.926,0,4.577,2.057,4.577,2.829,0,.362-1.594.67-1.853.72-1.13.979-2.261.979-3.393,2.008l15.686-.053c.255-.309,1.181-1.747,1.749-1.747.617,0,2.932,1.593,3.292,1.85.255.154,1.08.669,1.08,1.03C-185.158,85.472-186.135,86.089-186.5,86.4Zm-20.675,18.824h8.077a5.766,5.766,0,0,1,2.777-1.85c1.132-.154,3.96,3.084,3.393,3.65h-13.987l-1.185.669-2.212-3.086Zm.926-10.389c-2.16,0-1.389-2.16-2.21-3.393a2.952,2.952,0,0,1-.669-1.08.235.235,0,0,1,.257-.208c.823.208,1.7.566,2.52.825s1.8.77,1.8,1.8C-204.547,93.855-204.96,94.832-206.246,94.832Zm11.778-2.469c-1.027.206-4.217,2.006-4.886,2.006-.154,0-.2-.1-.2-.255a.385.385,0,0,1,.1-.259c.669-.823,1.337-1.594,1.9-2.415a6.294,6.294,0,0,0,.873-1.493.983.983,0,0,1,.1-.411c.566-.05,3.65,1.751,3.65,2.316C-192.926,92.468-194.107,92.314-194.468,92.364Zm.259,11.366c-1.491,0-1.853-1.492-2.316-2.623a12.308,12.308,0,0,0-1.953-2.726c-.1-.154-.876-.512-.876-.72.053-.206-.154-.36,0-.36a8.316,8.316,0,0,1,3.653.823c1.491.411,3.24,1.749,3.24,3.549A1.941,1.941,0,0,1-194.21,103.73Z" transform="translate(276.573 -78.22)" fill="#caa846"/><path d="M-209.359,117.982v-7.715a8.514,8.514,0,0,0-.154-1.646,8.13,8.13,0,0,1-.463-1.337c0-.257.154-.309.358-.309.773,0,5.349,1.131,5.349,1.954,0,.463-1.13,1.029-1.438,1.234v2.777h4.217c.154-.154,2.109-2.469,2.469-2.469s2.932,2.932,2.932,3.652c0,.36-.516.566-.825.566h-8.793v3.292h5.452c.2-.257,1.286-1.8,1.7-1.8s3.547,2.674,3.547,3.343-.872.771-1.335.823a5.574,5.574,0,0,0-1.493.463,5.546,5.546,0,0,0-1.13.771c-.206.257-1.236,1.492-1.646,1.492-.154,0-.208-.154-.208-.309a28.494,28.494,0,0,1,.825-3.137h-6.945c.362.154,2.212.72,2.212,1.234,0,.463-.617.72-.975.874v1.646l1.029-.206c.154-.309.977-1.852,1.335-1.852.413,0,2.625,1.852,2.625,2.366,0,.309-.36.411-.617.463l-4.372.926v1.543c0,.926,1.747.926,2.314.926,2.16,0,3.187-.36,3.958-2.469.156-.411.669-2.212,1.131-2.212.309,0,.309.36.309.514,0,.566-.05,1.08-.05,1.594,0,1.286.667,1.852,1.7,2.52-.206.411-.413.823-.669,1.234-1.183,2.006-5.4,1.8-7.355,1.8-.825,0-3.962,0-4.475-.771a3.028,3.028,0,0,1-.514-1.749v-2.366l-2.52.617-.566.617-1.853-1.7c-.2,8.435-.154,19.8-5.141,26.9-.154.154-1.543,2.314-1.9,2.314-.2,0-.2-.257-.2-.36a17.661,17.661,0,0,1,.667-2.16,29.3,29.3,0,0,0,1.442-5.657c1.233-7.92,1.337-16.1,1.337-24.07a20.266,20.266,0,0,0-.154-3.96,12.131,12.131,0,0,1-.463-2.212c0-.206.1-.257.257-.257.823,0,4.269,1.852,4.989,2.212Zm2.006,20.007a51.346,51.346,0,0,1-5.556,2.109,9.838,9.838,0,0,1-1.644.463c-.257,0-.257-.1-.257-.309a.53.53,0,0,1,.309-.411c2.16-1.183,6.016-3.652,7.2-5.812h-4.631l-.669.669-1.543-2.623c.771.051,1.6.257,2.316.257h11.675c.206-.257,1.541-2.006,1.954-2.006.463,0,2.623,2.572,2.623,3.189,0,.36-.617.514-.876.514h-8.743c.568.36,2.471,1.337,2.471,2.006,0,.36-1.236.463-1.44.463l-2.162.977a10.585,10.585,0,0,1,3.242,2.983,20.638,20.638,0,0,0,3.033-3.343c.154-.154.67-1.183.773-1.183.2,0,3.24,2.777,3.24,3.394s-1.286.514-1.648.463a37.717,37.717,0,0,1-4.73,1.9l.512,1.594c2.314,0,4.579.051,6.328,1.8a2.794,2.794,0,0,1,.977,2.006,1.923,1.923,0,0,1-1.7,2.006c-1.593,0-2.364-2.623-3.393-3.754a5.018,5.018,0,0,0-2.006-1.286,29.424,29.424,0,0,1,.36,3.6c0,4.577-1.389,6.789-5.863,7.972-.516-1.492-.874-2.674-2.52-3.24-.309-.1-1.751-.463-1.751-.926,0-.206.1-.257.309-.257.722.051,1.442.1,2.162.1,3.909,0,3.958-2.366,4.166-5.555a43.675,43.675,0,0,1-9.928,4.32,8.32,8.32,0,0,1-1.541.36.288.288,0,0,1-.309-.257c0-.36,1.389-.977,1.646-1.131a37.33,37.33,0,0,0,9.669-7.355l-.309-.617a32.331,32.331,0,0,1-7.663,3.806,9.051,9.051,0,0,1-1.543.514.332.332,0,0,1-.309-.309.441.441,0,0,1,.309-.36,36.425,36.425,0,0,0,7.867-6.429ZM-209.359,124v-2.16c0-.72-.154-1.492-.206-2.212h-3.754l-.825.72-.1,4.269A17.448,17.448,0,0,0-209.359,124Zm18.772,13.578c0,1.44.154,2.932.206,4.32-1.286.566-2.674.823-3.96,1.286.051-1.594.206-3.24.206-4.835V117.982c0-1.234-.617-2.057-.617-2.623,0-.206.154-.309.358-.309.876,0,5.145,1.234,5.145,2.057,0,.36-1.082,1.029-1.337,1.183Zm7.147,14.658c0,3.086-3.5,3.806-5.915,3.96-.152-2.006-.461-2.829-2.366-3.652-.255-.1-1.9-.617-1.9-.926a.439.439,0,0,1,.362-.36,35.124,35.124,0,0,0,3.96.309c1.389,0,1.953-.257,1.953-1.8V112.582a9.294,9.294,0,0,0-.667-3.137,1.346,1.346,0,0,1-.154-.617.276.276,0,0,1,.257-.257c.926,0,6.12,1.286,6.12,2.057,0,.463-1.339,1.234-1.648,1.44Z" transform="translate(276.807 -54.156)" fill="#caa846"/><path d="M-245.666,102.236l-.72-14.349a19.364,19.364,0,0,0-.362-3.857,10.9,10.9,0,0,1-.512-1.543c0-.2,0-.411.257-.411a35.925,35.925,0,0,1,4.372,1.7c1.387-1.08,3.6-2.676,4.474-4.168.72,0,3.24,3.292,3.24,3.806,0,.309-.771.411-1.03.411s-.512-.1-.821-.1a41.908,41.908,0,0,0-5.863,1.082l.257,4.576h2.055c.1-.154,1.03-1.389,1.288-1.389a6.493,6.493,0,0,1,2.366,2.726c0,.362-.72.362-.926.362h-4.783l.154,4.576h2.417c.206-.154,1.233-1.284,1.594-1.284a6.1,6.1,0,0,1,2.16,2.621c0,.411-.771.36-.979.36h-5.141l.257,4.886h20.262l.154-4.576h-2.313l-.771.926-1.8-2.88a27.553,27.553,0,0,0,5.04.255l.309-4.629h-2.621l-.771.874-1.852-2.829c.977.1,2.006.257,2.932.257h2.417l.257-4.987h-2.469l-.823.872-1.8-2.827a31.751,31.751,0,0,0,4.937.255c.309-.41,1.131-1.8,1.8-1.8s2.673,1.545,3.137,1.8c.257.208.975.72.975,1.08,0,.72-1.13,1.286-1.594,1.646l-1.234,16.561h.876c.257-.309,1.234-1.438,1.749-1.438.874,0,3.754,3.5,3.754,4.318,0,1.082-1.8.874-2.417.928-2.469.154-4.217,2.518-4.68,2.518a.332.332,0,0,1-.309-.309c0-.255,1.644-3.754,1.852-4.217h-29.779c-.053,1.954-.309,3.5-2.366,4.217a1.431,1.431,0,0,1-.67.154,1.8,1.8,0,0,1-1.9-1.954c0-1.7,1.543-1.954,2.417-3.7a6.289,6.289,0,0,0,.617-2.779c0-.1.051-.309.257-.309.358,0,1.234,2.16,1.389,2.572Zm17.024,6.737h-12.6l-.77.874-1.852-2.932c.977.051,2,.206,2.93.206h12.858c.208-.154,1.7-1.749,2.111-1.749.823,0,4.269,3.292,4.269,3.962,0,.463-.568.667-.926.718l-1.8.206a10.665,10.665,0,0,0-5.4,2.368c.259.05,1.132.2,1.132.564s-.512.669-.77.823h12.033c.362-.411,1.545-2.057,2.212-2.057.568,0,2.471,2.263,2.779,2.52.2.259.512.566.512.926s-.564.411-.821.411h-16.715v6.842a13.262,13.262,0,0,1-.154,2.467,4.754,4.754,0,0,1-1.029,1.594c-.926.926-3.859,1.234-5.092,1.337a4.2,4.2,0,0,0-2.522-3.806c-.255-.051-1.335-.309-1.335-.617,0-.154.154-.411.36-.411,1.183.1,2.777.36,3.857.36,1.44,0,1.594-.977,1.594-2.16v-5.606H-248.6l-.771.874-1.8-2.932c.926.051,1.954.257,2.878.257h14.454v-.257c0-.72-.362-1.284-.362-1.852a.3.3,0,0,1,.309-.307,10.072,10.072,0,0,1,2.471.512C-230.494,111.082-229.568,110-228.642,108.973Zm-7.663-16.662a.346.346,0,0,1-.206-.309.243.243,0,0,1,.255-.259c.722,0,3.551,1.7,4.322,2.109a11.972,11.972,0,0,0,1.8-3.394c.516-.051,3.7,2.419,3.7,2.932s-1.286.72-1.648.771c-.463.411-.926.874-1.387,1.337.977.979,2.417,2.316,2.417,3.754a1.89,1.89,0,0,1-1.7,2.008c-1.236,0-1.8-1.545-2.263-2.419-.208-.463-.463-.872-.67-1.286-.821.617-5.195,3.754-5.812,3.754-.154,0-.2-.1-.2-.257a.44.44,0,0,1,.154-.309c1.593-1.646,2.983-3.394,4.421-5.195C-234.145,94.418-235.174,93.39-236.305,92.311Zm1.027-10.237c-.1-.1-.255-.206-.255-.36s.1-.2.255-.2a18.692,18.692,0,0,1,3.653,1.85,16.164,16.164,0,0,0,1.852-4.113.383.383,0,0,1,.255-.1c.1,0,3.448,2.415,3.653,2.621a.924.924,0,0,1,.206.463c0,.362-1.339.773-1.648.874l-1.85,1.954c1.029.874,2.674,2.469,2.674,3.909a1.636,1.636,0,0,1-1.751,1.7c-1.131,0-1.644-1.9-2.057-2.625a11.155,11.155,0,0,0-.617-1.08c-.512.463-4.576,3.857-5.04,3.857a.647.647,0,0,1,.053-.77c1.131-1.751,2.263-3.345,3.292-5.2A22.62,22.62,0,0,0-235.279,82.075Z" transform="translate(251.632 -77.446)" fill="#caa846"/><path d="M-250.105,149.644l.154-2.673V113.848a17.049,17.049,0,0,0-.1-2.263,14.765,14.765,0,0,0-.514-1.9c0-.206.154-.255.309-.255,1.132,0,4.063,1.438,5.04,1.954h2.417c.257-.362,1.13-1.7,1.646-1.7A16.194,16.194,0,0,1-236.939,112a1.151,1.151,0,0,1,.309.72c0,.463-1.543,1.284-1.9,1.438-1.438,3.292-2.878,6.583-4.267,9.875,2.16,3.345,5.143,7.562,5.143,11.728a11.7,11.7,0,0,1-1.08,4.576,4.8,4.8,0,0,1-4.32,2.674c-.1-1.08-.1-2.366-.874-3.24-.309-.36-2.006-1.594-2.006-1.646,0-.36.2-.36.512-.36.413,0,.876.051,1.288.051,2.621,0,2.726-2.16,2.726-4.217,0-2.775-1.8-6.787-2.88-9.412.718-3.7,1.337-7.3,1.9-11h-3.24l-.411.617V146.25c0,2.522.206,5.195.36,7.715a18.613,18.613,0,0,1-4.68,1.029Zm32.554-18.464c.309,0,.669.413.823.617.362.411,2.111,2.263,2.111,2.779,0,.307-.259.461-.568.461h-6.993a1.541,1.541,0,0,1,.617,1.03c0,.358-.72.564-1.029.667v11.726c0,1.337.926,1.08,2.006,1.08,2.57,0,2.983-.36,3.6-2.88.255-1.181.564-2.314.771-3.5.051-.1.1-.411.255-.411.259,0,.413.1.413.411-.051.874-.1,1.8-.1,2.674,0,1.183,0,3.652,1.493,3.909l.823.154c-.154.566-.309,1.183-.514,1.8-.722,1.954-3.754,1.853-5.5,1.853h-2.314c-1.286,0-4.322.1-4.886-1.545a4.385,4.385,0,0,1-.154-1.183V135.038h-3.909c.669.206,2.623.669,2.623,1.646,0,.309-.979.669-1.234.771-1.03,6.12-.411,9.72-5.915,13.989a24.53,24.53,0,0,1-5.966,3.394,5.4,5.4,0,0,1-1.08.362c-.1,0-.206-.053-.206-.156a.641.641,0,0,1,.309-.566c2.775-1.852,5.657-3.96,6.737-7.3a33.263,33.263,0,0,0,1.9-9.77,17.228,17.228,0,0,0-.259-2.368h-1.335l-.926.669-1.8-2.829c1.082.1,2.265.309,3.345.309h14.707C-219.452,132.931-218.115,131.18-217.551,131.18Zm-1.852-13.938c.053-.05,1.543-1.9,1.852-1.9.722,0,4.423,2.983,4.423,3.808,0,.872-1.85.872-2.261.872a5.875,5.875,0,0,0-1.594.566,17.977,17.977,0,0,0-3.036,2.263.379.379,0,0,1-.255.1.335.335,0,0,1-.259-.309c0-.1,1.39-3.24,1.545-3.6h-15.275c-.154,1.543-.566,4.013-2.52,4.013-1.288,0-2.314-.362-2.314-1.853,0-1.852,1.852-2.314,2.726-3.909a8.058,8.058,0,0,0,.771-2.212c0-.1.1-.41.2-.41.413,0,.876,1.954.876,2.109a1.558,1.558,0,0,1,.1.461Zm-1.85,6.223c.36,0,.926.619,1.131.874s2.006,2.008,2.006,2.623a.508.508,0,0,1-.463.514H-231.9l-.874.67-1.853-2.779c1.082.051,2.265.257,3.345.257h7.92C-223.207,125.472-221.768,123.466-221.252,123.466Zm-9.774-16.4a9.7,9.7,0,0,1,2.057.72c1.956.821,4.322,1.954,4.322,4.372,0,1.438-.722,2.52-2.212,2.52a2.012,2.012,0,0,1-2.006-1.288,4.834,4.834,0,0,1-.259-1.233c-.2-2.522-.463-2.625-2-4.629-.053-.1-.154-.154-.154-.309C-231.281,107.111-231.076,107.061-231.026,107.061Z" transform="translate(252.522 -54.085)" fill="#caa846"/></g></g></g><path d="M30.521,8.552a7.5,7.5,0,0,0-.287-2.094A2.309,2.309,0,0,0,29.364,5.2,2.784,2.784,0,0,0,27.7,4.8H26.113l-.022,11.462q0,.6-.011,1.069a6.163,6.163,0,0,1-.055.76q.419-.044.915-.055t.893-.033V19.22h-5.6v-.97a1.766,1.766,0,0,0,1.036-.309,1.291,1.291,0,0,0,.4-.8,8.47,8.47,0,0,0,.088-1.334V4.827L21.9,4.849a2.206,2.206,0,0,0-1.962.9,5.033,5.033,0,0,0-.617,2.8H18.288l.132-4.761h13l.132,4.761ZM35.392,19.22v-.97a1.825,1.825,0,0,0,1.047-.309,1.253,1.253,0,0,0,.408-.794,8.428,8.428,0,0,0,.088-1.345V6.634q0-.485.022-.937T37,4.915q-.375.022-.816.044T35.392,5V3.791h5.422v.97a1.688,1.688,0,0,0-1.036.3,1.266,1.266,0,0,0-.419.794,8.388,8.388,0,0,0-.088,1.356V10.8h7.3V6.634q0-.485.022-.937t.044-.782q-.375.022-.816.044T45.025,5V3.791h5.422v.97a1.688,1.688,0,0,0-1.036.3,1.266,1.266,0,0,0-.419.794A8.388,8.388,0,0,0,48.9,7.207v9.059q0,.6-.011,1.069a6.163,6.163,0,0,1-.055.76q.375-.044.816-.055t.794-.033V19.22H45.025v-.97a1.825,1.825,0,0,0,1.047-.309,1.253,1.253,0,0,0,.408-.794,8.428,8.428,0,0,0,.088-1.345V11.946l-7.3.066v4.254q0,.6-.011,1.069a6.163,6.163,0,0,1-.055.76q.375-.044.827-.055t.782-.033V19.22Zm27.222-5.577a2.571,2.571,0,0,0-.276-1.367,1.192,1.192,0,0,0-.827-.518,6.046,6.046,0,0,0-1.367-.055l-1.278.044v4.585q0,.6-.011,1.047a5.987,5.987,0,0,1-.055.738l3.791-.044a4.1,4.1,0,0,0,1.543-.32,2.24,2.24,0,0,0,1.08-1.025,4.166,4.166,0,0,0,.4-1.984h.97l-.132,4.475H54.988v-.97a1.825,1.825,0,0,0,1.047-.309,1.253,1.253,0,0,0,.408-.794A8.427,8.427,0,0,0,56.53,15.8V6.634q0-.485.022-.937t.044-.782q-.375.022-.816.044T54.988,5V3.791H65.744l.11,3.99h-.97a3.686,3.686,0,0,0-.408-1.918,1.98,1.98,0,0,0-1.058-.882,3.964,3.964,0,0,0-1.4-.2l-1.543.044a1.9,1.9,0,0,0-1.036.231,1.127,1.127,0,0,0-.463.749,7.026,7.026,0,0,0-.11,1.4v3.461H62.5l-.132-1.9h1.212v4.871ZM90.85,8.706a4.871,4.871,0,0,0-1.367-3.053,4.157,4.157,0,0,0-2.932-1.091,4.5,4.5,0,0,0-2.116.507A5.067,5.067,0,0,0,82.76,6.491a6.79,6.79,0,0,0-1.091,2.16,9.163,9.163,0,0,0-.386,2.722,8.528,8.528,0,0,0,.705,3.56,5.724,5.724,0,0,0,1.951,2.414,4.867,4.867,0,0,0,2.832.86,6.3,6.3,0,0,0,2.788-.672,6.1,6.1,0,0,0,2.281-1.907l.727.617a8.135,8.135,0,0,1-2.116,2.094,6.988,6.988,0,0,1-2.237.981,9.163,9.163,0,0,1-2.017.253,7.641,7.641,0,0,1-3.042-.6,7.042,7.042,0,0,1-2.392-1.664,7.482,7.482,0,0,1-1.543-2.491,8.588,8.588,0,0,1-.54-3.075,9.62,9.62,0,0,1,.485-3.02A8.639,8.639,0,0,1,80.6,6.05a6.8,6.8,0,0,1,2.392-1.907,7.571,7.571,0,0,1,3.361-.705,7.868,7.868,0,0,1,2.193.309,7.775,7.775,0,0,1,2.061.948l-.11-1.1h1.367V8.706ZM95.016,19.22v-.992a1.372,1.372,0,0,0,1.014-.353,2.816,2.816,0,0,0,.6-.959q.242-.606.529-1.356l4.452-12.189h.882l4.827,12.366q.176.419.4,1.135a3.721,3.721,0,0,1,.2,1.223q.375-.044.738-.055t.694-.033V19.22h-5.356v-.97a1.324,1.324,0,0,0,1.025-.342,1.015,1.015,0,0,0,.2-.782,3.885,3.885,0,0,0-.231-.926l-.661-1.785-5.4.132-.639,1.918q-.132.441-.287.838t-.309.771q.4-.044.849-.055t.8-.033V19.22Zm4.3-5.863h4.629l-1.389-3.725q-.265-.727-.507-1.444t-.441-1.378h-.022q-.176.551-.4,1.212t-.507,1.433Zm25.194,6.172-8.2-10.889q-.242-.287-.463-.6t-.463-.639h-.022l.066,8.574q0,.551-.011,1.1T115.36,18.1q.375-.044.827-.055t.782-.033V19.22h-4.364v-.97a1.533,1.533,0,0,0,.937-.242,1.233,1.233,0,0,0,.441-.639,3.178,3.178,0,0,0,.121-.926V5.686q0-.441.022-.771-.353.022-.782.044t-.76.044V3.791h2.91L123.251,14q.375.485.672.9t.584.794h.022l.022-9.059q0-.485.022-.937t.044-.782l-.838.044q-.441.022-.771.044V3.791h4.364v.97a1.636,1.636,0,0,0-1.025.3,1.246,1.246,0,0,0-.4.794,9.566,9.566,0,0,0-.077,1.356l-.022,12.321ZM143.155,8.552a7.5,7.5,0,0,0-.287-2.094A2.309,2.309,0,0,0,142,5.2a2.784,2.784,0,0,0-1.664-.4h-1.587l-.022,11.462q0,.6-.011,1.069a6.167,6.167,0,0,1-.055.76q.419-.044.915-.055t.893-.033V19.22h-5.6v-.97a1.766,1.766,0,0,0,1.036-.309,1.291,1.291,0,0,0,.4-.8,8.468,8.468,0,0,0,.088-1.334V4.827l-1.852.022a2.206,2.206,0,0,0-1.962.9,5.033,5.033,0,0,0-.617,2.8h-1.036l.132-4.761h13l.132,4.761Zm12.432,11.021a8.3,8.3,0,0,1-3.582-.705,6.6,6.6,0,0,1-2.414-1.885,8.009,8.009,0,0,1-1.367-2.612,9.7,9.7,0,0,1-.441-2.865,8.848,8.848,0,0,1,.474-2.81,8.339,8.339,0,0,1,1.433-2.612,7.194,7.194,0,0,1,2.4-1.918,7.43,7.43,0,0,1,3.383-.727,7.782,7.782,0,0,1,3.494.727,6.966,6.966,0,0,1,2.414,1.929,8.627,8.627,0,0,1,1.422,2.612,8.472,8.472,0,0,1,0,5.588,8.473,8.473,0,0,1-1.433,2.623,7.165,7.165,0,0,1-2.392,1.929A7.413,7.413,0,0,1,155.587,19.573Zm.11-1.146a4.161,4.161,0,0,0,2.215-.573,4.728,4.728,0,0,0,1.543-1.532,7.143,7.143,0,0,0,.893-2.116,9.554,9.554,0,0,0,.287-2.3A11.093,11.093,0,0,0,160.3,9.18a7.907,7.907,0,0,0-1-2.358,5.18,5.18,0,0,0-1.664-1.653,4.307,4.307,0,0,0-2.292-.606,4.1,4.1,0,0,0-2.226.6,4.8,4.8,0,0,0-1.543,1.554,7.55,7.55,0,0,0-.893,2.116,9.3,9.3,0,0,0-.3,2.325,10.345,10.345,0,0,0,.309,2.425,8.86,8.86,0,0,0,.948,2.381,5.406,5.406,0,0,0,1.642,1.785A4.183,4.183,0,0,0,155.7,18.427Zm23.585,1.1-8.2-10.889q-.242-.287-.463-.6t-.463-.639h-.022l.066,8.574q0,.551-.011,1.1t-.055,1.014q.375-.044.827-.055t.783-.033V19.22h-4.364v-.97a1.532,1.532,0,0,0,.937-.242,1.233,1.233,0,0,0,.441-.639,3.178,3.178,0,0,0,.121-.926V5.686q0-.441.022-.771-.353.022-.783.044t-.76.044V3.791h2.91L178.025,14q.375.485.672.9t.584.794h.022l.022-9.059q0-.485.022-.937t.044-.782l-.838.044q-.441.022-.771.044V3.791h4.364v.97a1.636,1.636,0,0,0-1.025.3,1.246,1.246,0,0,0-.4.794,9.568,9.568,0,0,0-.077,1.356l-.022,12.321Zm14.768-5.885a2.571,2.571,0,0,0-.276-1.367,1.192,1.192,0,0,0-.827-.518,6.046,6.046,0,0,0-1.367-.055l-1.278.044v4.585q0,.6-.011,1.047a5.987,5.987,0,0,1-.055.738l3.791-.044a4.1,4.1,0,0,0,1.543-.32,2.24,2.24,0,0,0,1.08-1.025,4.166,4.166,0,0,0,.4-1.984h.97l-.132,4.475H186.423v-.97a1.825,1.825,0,0,0,1.047-.309,1.253,1.253,0,0,0,.408-.794,8.428,8.428,0,0,0,.088-1.345V6.634q0-.485.022-.937t.044-.782q-.375.022-.816.044T186.423,5V3.791H197.18l.11,3.99h-.97a3.685,3.685,0,0,0-.408-1.918,1.98,1.98,0,0,0-1.058-.882,3.964,3.964,0,0,0-1.4-.2l-1.543.044a1.9,1.9,0,0,0-1.036.231,1.127,1.127,0,0,0-.463.749,7.024,7.024,0,0,0-.11,1.4v3.461h3.637l-.132-1.9h1.212v4.871Zm17.06-5.092a5.606,5.606,0,0,0-.573-2.028,3.744,3.744,0,0,0-1.278-1.444,3.477,3.477,0,0,0-2.028-.518,2.749,2.749,0,0,0-1.962.683,2.185,2.185,0,0,0-.727,1.653,2.185,2.185,0,0,0,.485,1.444,4.6,4.6,0,0,0,1.312,1.047q.827.463,1.863.926.838.353,1.7.794a9.342,9.342,0,0,1,1.565,1,4.3,4.3,0,0,1,1.124,1.345,3.845,3.845,0,0,1,.419,1.841,3.915,3.915,0,0,1-.639,2.2,4.288,4.288,0,0,1-1.818,1.521,6.705,6.705,0,0,1-2.854.551,7.559,7.559,0,0,1-1.995-.287,7.284,7.284,0,0,1-1.907-.816l.11.926h-1.345l-.088-4.849h1.058a4.03,4.03,0,0,0,1.378,2.9,4.4,4.4,0,0,0,2.876.981,3.654,3.654,0,0,0,1.521-.309,2.565,2.565,0,0,0,1.08-.882,2.3,2.3,0,0,0,.4-1.345,2.228,2.228,0,0,0-.54-1.521,4.778,4.778,0,0,0-1.367-1.058q-.827-.441-1.73-.838t-1.752-.838a8.4,8.4,0,0,1-1.532-1.014,4.28,4.28,0,0,1-1.08-1.356,4.021,4.021,0,0,1-.4-1.841,4.237,4.237,0,0,1,.22-1.3,3.727,3.727,0,0,1,2.193-2.3,5.959,5.959,0,0,1,2.3-.386,8.439,8.439,0,0,1,1.885.242,5.277,5.277,0,0,1,1.907.86l-.088-.926h1.323V8.552Zm13.8,5.092a2.571,2.571,0,0,0-.276-1.367,1.192,1.192,0,0,0-.827-.518,6.046,6.046,0,0,0-1.367-.055l-1.278.044v4.585q0,.6-.011,1.047a5.987,5.987,0,0,1-.055.738l3.791-.044a4.1,4.1,0,0,0,1.543-.32,2.24,2.24,0,0,0,1.08-1.025,4.166,4.166,0,0,0,.4-1.984h.97l-.132,4.475H217.282v-.97a1.825,1.825,0,0,0,1.047-.309,1.253,1.253,0,0,0,.408-.794,8.428,8.428,0,0,0,.088-1.345V6.634q0-.485.022-.937t.044-.782q-.375.022-.816.044T217.282,5V3.791h10.756l.11,3.99h-.97a3.685,3.685,0,0,0-.408-1.918,1.98,1.98,0,0,0-1.058-.882,3.964,3.964,0,0,0-1.4-.2l-1.543.044a1.9,1.9,0,0,0-1.036.231,1.127,1.127,0,0,0-.463.749,7.024,7.024,0,0,0-.11,1.4v3.461H224.8l-.132-1.9h1.212v4.871Zm23.871,5.929a8.3,8.3,0,0,1-3.582-.705,6.6,6.6,0,0,1-2.414-1.885,8.008,8.008,0,0,1-1.367-2.612,9.7,9.7,0,0,1-.441-2.865,8.849,8.849,0,0,1,.474-2.81,8.339,8.339,0,0,1,1.433-2.612,7.194,7.194,0,0,1,2.4-1.918,7.43,7.43,0,0,1,3.383-.727,7.782,7.782,0,0,1,3.494.727,6.966,6.966,0,0,1,2.414,1.929A8.628,8.628,0,0,1,256,8.706a8.473,8.473,0,0,1,0,5.588,8.474,8.474,0,0,1-1.433,2.623,7.165,7.165,0,0,1-2.392,1.929A7.413,7.413,0,0,1,248.78,19.573Zm.11-1.146a4.161,4.161,0,0,0,2.215-.573,4.728,4.728,0,0,0,1.543-1.532,7.143,7.143,0,0,0,.893-2.116,9.553,9.553,0,0,0,.287-2.3A11.093,11.093,0,0,0,253.5,9.18a7.908,7.908,0,0,0-1-2.358,5.18,5.18,0,0,0-1.664-1.653,4.307,4.307,0,0,0-2.292-.606,4.1,4.1,0,0,0-2.226.6,4.8,4.8,0,0,0-1.543,1.554,7.551,7.551,0,0,0-.893,2.116,9.3,9.3,0,0,0-.3,2.325,10.345,10.345,0,0,0,.309,2.425,8.86,8.86,0,0,0,.948,2.381,5.406,5.406,0,0,0,1.642,1.785A4.183,4.183,0,0,0,248.89,18.427Zm11.638-.176a1.825,1.825,0,0,0,1.047-.309,1.253,1.253,0,0,0,.408-.794,8.428,8.428,0,0,0,.088-1.345V6.634q0-.485.022-.937t.044-.782q-.375.022-.816.044T260.528,5V3.791q1.3-.022,2.645-.033t2.733-.011a10.9,10.9,0,0,1,3.516.5,4.648,4.648,0,0,1,2.226,1.5,4.08,4.08,0,0,1,.8,2.524,4.836,4.836,0,0,1-.309,1.774,4.567,4.567,0,0,1-1.124,1.7A5.787,5.787,0,0,1,268.871,13a10.226,10.226,0,0,1-3.405.485q-.22.022-.5.022t-.562-.022v2.777q0,.6-.011,1.069a6.164,6.164,0,0,1-.055.76l.661-.044q.353-.022.694-.033t.628-.033V19.22h-5.8Zm3.879-5.929q.375.044.65.055t.65.011a4.913,4.913,0,0,0,2.182-.463,3.445,3.445,0,0,0,1.477-1.345,3.994,3.994,0,0,0,.529-2.094,4.354,4.354,0,0,0-.32-1.774,2.722,2.722,0,0,0-.882-1.124A3.624,3.624,0,0,0,267.405,5a6.531,6.531,0,0,0-1.543-.176,1.471,1.471,0,0,0-.97.265,1.26,1.26,0,0,0-.4.771,7.837,7.837,0,0,0-.088,1.3Zm19.441,1.323a2.572,2.572,0,0,0-.276-1.367,1.192,1.192,0,0,0-.827-.518,6.046,6.046,0,0,0-1.367-.055l-1.278.044v4.585q0,.6-.011,1.047a5.991,5.991,0,0,1-.055.738l3.791-.044a4.1,4.1,0,0,0,1.543-.32,2.239,2.239,0,0,0,1.08-1.025,4.166,4.166,0,0,0,.4-1.984h.97l-.132,4.475H276.222v-.97a1.825,1.825,0,0,0,1.047-.309,1.253,1.253,0,0,0,.408-.794,8.428,8.428,0,0,0,.088-1.345V6.634q0-.485.022-.937t.044-.782q-.375.022-.816.044T276.222,5V3.791h10.756l.11,3.99h-.97a3.685,3.685,0,0,0-.408-1.918,1.98,1.98,0,0,0-1.058-.882,3.964,3.964,0,0,0-1.4-.2l-1.543.044a1.9,1.9,0,0,0-1.036.231,1.127,1.127,0,0,0-.463.749,7.029,7.029,0,0,0-.11,1.4v3.461h3.637l-.132-1.9h1.212v4.871Zm8.31,5.577v-.97a1.825,1.825,0,0,0,1.047-.309,1.253,1.253,0,0,0,.408-.794A8.427,8.427,0,0,0,293.7,15.8V6.634q0-.485.022-.937t.044-.782q-.375.022-.816.044T292.159,5V3.791q1.345-.022,2.711-.033t2.755.011a10.426,10.426,0,0,1,3.417.474,4.074,4.074,0,0,1,2.017,1.4,3.769,3.769,0,0,1,.65,2.336,4.131,4.131,0,0,1-.353,1.752,3.957,3.957,0,0,1-1.256,1.554,6.186,6.186,0,0,1-2.425,1.036,2.837,2.837,0,0,1,.794.727q.353.463.727,1.036l1.345,2.072q.419.661.771,1.124a2.687,2.687,0,0,0,.793.716,2.089,2.089,0,0,0,1.058.253v.97H302.1a5.954,5.954,0,0,1-.981-1.047q-.408-.562-.871-1.267l-1.521-2.469q-.287-.441-.606-.948a4.379,4.379,0,0,0-.694-.86h-1.389v3.637q0,.6-.011,1.069a6.176,6.176,0,0,1-.055.76q.264-.022.562-.033t.6-.033q.3-.022.518-.022V19.22Zm5.158-7.671a5.572,5.572,0,0,0,2.072-.386,2.763,2.763,0,0,0,1.323-1.124,3.752,3.752,0,0,0,.463-1.973,3.864,3.864,0,0,0-.265-1.521,2.525,2.525,0,0,0-.749-1A2.97,2.97,0,0,0,299,4.992a6.033,6.033,0,0,0-1.444-.165,1.6,1.6,0,0,0-1.025.265,1.233,1.233,0,0,0-.408.771,7.836,7.836,0,0,0-.088,1.3v4.32q.331.022.628.055A3.775,3.775,0,0,0,297.316,11.55Zm10.8,7.671v-.992a1.372,1.372,0,0,0,1.014-.353,2.817,2.817,0,0,0,.6-.959q.242-.606.529-1.356l4.452-12.189h.882l4.827,12.366q.176.419.4,1.135a3.721,3.721,0,0,1,.2,1.223q.375-.044.738-.055t.694-.033V19.22h-5.356v-.97a1.324,1.324,0,0,0,1.025-.342,1.015,1.015,0,0,0,.2-.782,3.885,3.885,0,0,0-.231-.926l-.661-1.785-5.4.132-.639,1.918q-.132.441-.287.838t-.309.771q.4-.044.849-.055t.8-.033V19.22Zm4.3-5.863h4.629l-1.389-3.725q-.264-.727-.507-1.444t-.441-1.378h-.022q-.176.551-.4,1.212t-.507,1.433ZM5.294,52.283v-.992a1.372,1.372,0,0,0,1.014-.353,2.816,2.816,0,0,0,.6-.959q.242-.606.529-1.356l4.452-12.189h.882L17.593,48.8q.176.419.4,1.135a3.721,3.721,0,0,1,.2,1.223q.375-.044.738-.055t.694-.033v1.212H14.265v-.97a1.324,1.324,0,0,0,1.025-.342,1.015,1.015,0,0,0,.2-.782,3.885,3.885,0,0,0-.231-.926L14.6,47.478l-5.4.132-.639,1.918q-.132.441-.287.838t-.309.771q.4-.044.849-.055t.8-.033v1.234Zm4.3-5.863h4.629l-1.389-3.725q-.265-.727-.507-1.444t-.441-1.378h-.022q-.176.551-.4,1.212t-.507,1.433Zm24.951-4.651a4.871,4.871,0,0,0-1.367-3.053,4.157,4.157,0,0,0-2.932-1.091,4.5,4.5,0,0,0-2.116.507,5.066,5.066,0,0,0-1.675,1.422,6.79,6.79,0,0,0-1.091,2.16,9.163,9.163,0,0,0-.386,2.722A8.528,8.528,0,0,0,25.683,48a5.724,5.724,0,0,0,1.951,2.414,4.867,4.867,0,0,0,2.832.86,6.3,6.3,0,0,0,2.788-.672,6.1,6.1,0,0,0,2.281-1.907l.727.617A8.135,8.135,0,0,1,34.147,51.4a6.988,6.988,0,0,1-2.237.981,9.163,9.163,0,0,1-2.017.253,7.641,7.641,0,0,1-3.042-.6,7.042,7.042,0,0,1-2.392-1.664,7.482,7.482,0,0,1-1.543-2.491,8.588,8.588,0,0,1-.54-3.075,9.62,9.62,0,0,1,.485-3.02,8.639,8.639,0,0,1,1.433-2.678,6.8,6.8,0,0,1,2.392-1.907,7.571,7.571,0,0,1,3.361-.705,7.869,7.869,0,0,1,2.193.309,7.775,7.775,0,0,1,2.061.948l-.11-1.1h1.367v5.114ZM38.71,52.283v-.992a1.372,1.372,0,0,0,1.014-.353,2.816,2.816,0,0,0,.6-.959q.242-.606.529-1.356L45.3,36.435h.882L51.009,48.8q.176.419.4,1.135a3.721,3.721,0,0,1,.2,1.223q.375-.044.738-.055t.694-.033v1.212H47.681v-.97a1.324,1.324,0,0,0,1.025-.342,1.015,1.015,0,0,0,.2-.782,3.885,3.885,0,0,0-.231-.926l-.661-1.785-5.4.132-.639,1.918q-.132.441-.287.838t-.309.771q.4-.044.849-.055t.8-.033v1.234Zm4.3-5.863h4.629l-1.389-3.725q-.265-.727-.507-1.444T45.3,39.873h-.022q-.176.551-.4,1.212t-.507,1.433Zm13.247,4.893A1.825,1.825,0,0,0,57.3,51a1.253,1.253,0,0,0,.408-.794,8.427,8.427,0,0,0,.088-1.345V39.7q0-.485.022-.937t.044-.782q-.375.022-.816.044t-.794.044V36.854l5.621-.022a11.905,11.905,0,0,1,3.681.529,7.822,7.822,0,0,1,2.777,1.532,6.506,6.506,0,0,1,1.741,2.436,8.622,8.622,0,0,1,.088,6.062,7.032,7.032,0,0,1-1.554,2.48,7.691,7.691,0,0,1-2.634,1.752,9.7,9.7,0,0,1-3.747.661H56.255Zm3.879-1.962q0,.6-.011,1.058a6.073,6.073,0,0,1-.055.749q.463,0,.926.011t.827.011h.518a5.546,5.546,0,0,0,2.425-.507,5.184,5.184,0,0,0,1.8-1.411,6.382,6.382,0,0,0,1.124-2.094,8.173,8.173,0,0,0,.386-2.535,8.553,8.553,0,0,0-.705-3.659,4.991,4.991,0,0,0-2.127-2.292,7.34,7.34,0,0,0-3.538-.816,1.751,1.751,0,0,0-1.058.253,1.183,1.183,0,0,0-.419.782,8.428,8.428,0,0,0-.088,1.345Zm22.24-2.645A2.571,2.571,0,0,0,82.1,45.34a1.192,1.192,0,0,0-.827-.518,6.046,6.046,0,0,0-1.367-.055l-1.278.044V49.4q0,.6-.011,1.047a5.988,5.988,0,0,1-.055.738l3.791-.044a4.1,4.1,0,0,0,1.543-.32,2.24,2.24,0,0,0,1.08-1.025,4.166,4.166,0,0,0,.4-1.984h.97l-.132,4.475H74.748v-.97A1.825,1.825,0,0,0,75.8,51a1.253,1.253,0,0,0,.408-.794,8.427,8.427,0,0,0,.088-1.345V39.7q0-.485.022-.937t.044-.782q-.375.022-.816.044t-.794.044V36.854H85.5l.11,3.99h-.97a3.685,3.685,0,0,0-.408-1.918,1.98,1.98,0,0,0-1.058-.882,3.964,3.964,0,0,0-1.4-.2l-1.543.044a1.9,1.9,0,0,0-1.036.231,1.127,1.127,0,0,0-.463.749,7.026,7.026,0,0,0-.11,1.4v3.461h3.637l-.132-1.9h1.212v4.871Zm16.487,5.8L97.055,48.36q-.9-2.072-1.785-4.166-.265-.617-.551-1.345t-.573-1.543q-.287-.816-.551-1.653v2.116q-.022.683-.044,1.6T93.495,45.3q-.033,1.014-.044,2.017t-.033,1.929q0,.529-.022,1.036t-.066.882q.4-.044.849-.055t.8-.033v1.212H90.508v-.97a1.827,1.827,0,0,0,.948-.242,1.115,1.115,0,0,0,.452-.661,4.752,4.752,0,0,0,.143-1.08l.309-9.522.044-.97q.022-.485.044-.86-.4.022-.838.033t-.771.033v-1.19H94.7l3.637,8.685q.265.6.529,1.267t.54,1.323q.276.65.5,1.223h.044q.242-.661.551-1.455t.529-1.411q.948-2.381,1.929-4.761t1.929-4.871h3.879v.97a1.933,1.933,0,0,0-.893.187,1.115,1.115,0,0,0-.529.672,3.916,3.916,0,0,0-.121,1.389l.485,9.5a6.832,6.832,0,0,1,.033.86q-.011.419-.033.705.4-.022.849-.033t.782-.033v1.212H104v-.97a1.792,1.792,0,0,0,.981-.265,1.189,1.189,0,0,0,.452-.76,5.378,5.378,0,0,0,.066-1.356l-.353-6.414q-.022-.331-.044-.782t-.055-.948q-.033-.5-.055-.959-.066.154-.132.32t-.132.364L99.986,52.5Zm18.03-.22v-.97A1.766,1.766,0,0,0,117.928,51a1.291,1.291,0,0,0,.4-.8,8.47,8.47,0,0,0,.088-1.334l.022-2.314-3.923-6.172a14.811,14.811,0,0,1-.738-1.367,3.373,3.373,0,0,1-.32-.992q-.353.022-.661.022t-.617.022V36.854h5.951v.97a2.322,2.322,0,0,0-1.289.242.763.763,0,0,0-.364.76,2.831,2.831,0,0,0,.441,1.157l1.741,2.777q.176.264.4.617t.452.716q.231.364.43.738h.044q.2-.419.452-.893t.518-1.047l1.631-3.108q.11-.22.287-.551t.386-.672a3.037,3.037,0,0,1,.43-.562q-.4.022-.871.033t-.849.033V36.854h4.607v.97a2.6,2.6,0,0,0-1.62.716,8.246,8.246,0,0,0-1.378,1.973q-.727,1.389-1.433,2.722t-1.367,2.612q0,.353-.011.9t-.011,1.1V49.33q0,.6-.011,1.069a6.164,6.164,0,0,1-.055.76q.441-.044.937-.055t.871-.033v1.212Zm28.5.353a8.3,8.3,0,0,1-3.582-.705,6.6,6.6,0,0,1-2.414-1.885,8.009,8.009,0,0,1-1.367-2.612,9.7,9.7,0,0,1-.441-2.865,8.849,8.849,0,0,1,.474-2.81,8.339,8.339,0,0,1,1.433-2.612,7.194,7.194,0,0,1,2.4-1.918,7.43,7.43,0,0,1,3.383-.727,7.782,7.782,0,0,1,3.494.727,6.966,6.966,0,0,1,2.414,1.929,8.628,8.628,0,0,1,1.422,2.612,8.472,8.472,0,0,1,0,5.588,8.474,8.474,0,0,1-1.433,2.623,7.165,7.165,0,0,1-2.392,1.929A7.413,7.413,0,0,1,145.392,52.636Zm.11-1.146a4.161,4.161,0,0,0,2.215-.573,4.728,4.728,0,0,0,1.543-1.532,7.143,7.143,0,0,0,.893-2.116,9.554,9.554,0,0,0,.287-2.3,11.094,11.094,0,0,0-.331-2.722,7.908,7.908,0,0,0-1-2.358,5.179,5.179,0,0,0-1.664-1.653,4.307,4.307,0,0,0-2.292-.606,4.1,4.1,0,0,0-2.226.6,4.8,4.8,0,0,0-1.543,1.554,7.551,7.551,0,0,0-.893,2.116,9.3,9.3,0,0,0-.3,2.325,10.345,10.345,0,0,0,.309,2.425,8.861,8.861,0,0,0,.948,2.381,5.406,5.406,0,0,0,1.642,1.785A4.183,4.183,0,0,0,145.5,51.49Zm11.638.794v-.97A1.825,1.825,0,0,0,158.188,51a1.253,1.253,0,0,0,.408-.794,8.43,8.43,0,0,0,.088-1.345V39.7q0-.485.022-.937t.044-.782q-.375.022-.816.044t-.794.044V36.854h10.492l.132,3.99h-.97a3.606,3.606,0,0,0-.419-1.918,2.024,2.024,0,0,0-1.08-.882,4.127,4.127,0,0,0-1.433-.2l-1.323.044a1.512,1.512,0,0,0-1.025.287,1.352,1.352,0,0,0-.408.816,8.428,8.428,0,0,0-.088,1.345v3.791l3.328.022-.132-1.918h1.212v4.893h-.97a2.626,2.626,0,0,0-.276-1.389,1.156,1.156,0,0,0-.827-.507,7.565,7.565,0,0,0-1.367-.066l-.97.044V49.33q0,.6-.011,1.069a6.162,6.162,0,0,1-.055.76q.331-.022.716-.033t.76-.033q.375-.022.683-.022v1.212Zm22.461,0v-.97A1.825,1.825,0,0,0,180.648,51a1.253,1.253,0,0,0,.408-.794,8.43,8.43,0,0,0,.088-1.345V39.7q0-.485.022-.937t.044-.782q-.375.022-.816.044t-.794.044V36.854h5.422v.97a1.688,1.688,0,0,0-1.036.3,1.266,1.266,0,0,0-.419.794,8.388,8.388,0,0,0-.088,1.356v3.593h7.3V39.7q0-.485.022-.937t.044-.782q-.375.022-.816.044t-.794.044V36.854h5.422v.97a1.688,1.688,0,0,0-1.036.3,1.266,1.266,0,0,0-.419.794,8.388,8.388,0,0,0-.088,1.356V49.33q0,.6-.011,1.069a6.162,6.162,0,0,1-.055.76q.375-.044.816-.055t.794-.033v1.212h-5.422v-.97A1.825,1.825,0,0,0,190.281,51a1.253,1.253,0,0,0,.408-.794,8.428,8.428,0,0,0,.088-1.345V45.009l-7.3.066V49.33q0,.6-.011,1.069a6.162,6.162,0,0,1-.055.76q.375-.044.827-.055t.782-.033v1.212Zm26.935.353a8.3,8.3,0,0,1-3.582-.705,6.6,6.6,0,0,1-2.414-1.885,8.009,8.009,0,0,1-1.367-2.612,9.7,9.7,0,0,1-.441-2.865,8.848,8.848,0,0,1,.474-2.81,8.338,8.338,0,0,1,1.433-2.612,7.194,7.194,0,0,1,2.4-1.918,7.43,7.43,0,0,1,3.383-.727,7.782,7.782,0,0,1,3.494.727,6.966,6.966,0,0,1,2.414,1.929,8.627,8.627,0,0,1,1.422,2.612,8.472,8.472,0,0,1,0,5.588,8.474,8.474,0,0,1-1.433,2.623,7.165,7.165,0,0,1-2.392,1.929A7.413,7.413,0,0,1,206.537,52.636Zm.11-1.146a4.161,4.161,0,0,0,2.215-.573,4.728,4.728,0,0,0,1.543-1.532,7.143,7.143,0,0,0,.893-2.116,9.554,9.554,0,0,0,.287-2.3,11.093,11.093,0,0,0-.331-2.722,7.907,7.907,0,0,0-1-2.358,5.18,5.18,0,0,0-1.664-1.653,4.307,4.307,0,0,0-2.292-.606,4.1,4.1,0,0,0-2.226.6,4.8,4.8,0,0,0-1.543,1.554,7.55,7.55,0,0,0-.893,2.116,9.3,9.3,0,0,0-.3,2.325,10.345,10.345,0,0,0,.309,2.425,8.86,8.86,0,0,0,.948,2.381,5.406,5.406,0,0,0,1.642,1.785A4.183,4.183,0,0,0,206.647,51.49Zm23.585,1.1-8.2-10.889q-.242-.287-.463-.6t-.463-.639h-.022l.066,8.574q0,.551-.011,1.1t-.055,1.014q.375-.044.827-.055t.783-.033v1.212h-4.364v-.97a1.533,1.533,0,0,0,.937-.242,1.233,1.233,0,0,0,.441-.639,3.178,3.178,0,0,0,.121-.926V38.749q0-.441.022-.771-.353.022-.783.044t-.76.044V36.854h2.91l7.759,10.205q.375.485.672.9t.584.794h.022l.022-9.059q0-.485.022-.937t.044-.782l-.838.044q-.441.022-.771.044V36.854H233.1v.97a1.636,1.636,0,0,0-1.025.3,1.246,1.246,0,0,0-.4.794,9.568,9.568,0,0,0-.077,1.356l-.022,12.321Zm14.261.044a7.814,7.814,0,0,1-3.945-.97,6.642,6.642,0,0,1-2.623-2.722A8.629,8.629,0,0,1,237,44.855a9.825,9.825,0,0,1,.474-3.02,8.473,8.473,0,0,1,1.433-2.689,6.961,6.961,0,0,1,2.4-1.929,7.473,7.473,0,0,1,3.361-.716,9.257,9.257,0,0,1,1.521.132,9.452,9.452,0,0,1,1.554.4,7.21,7.21,0,0,1,1.378.639l-.088-1.014H250.4v5.07h-1.014a4.546,4.546,0,0,0-.738-2.237,4.074,4.074,0,0,0-1.609-1.389,4.925,4.925,0,0,0-2.171-.474,4.4,4.4,0,0,0-2.127.518,5.23,5.23,0,0,0-1.664,1.433,6.808,6.808,0,0,0-1.091,2.149,8.821,8.821,0,0,0-.386,2.645,9.111,9.111,0,0,0,.672,3.6,5.821,5.821,0,0,0,1.907,2.48,4.756,4.756,0,0,0,2.887.9,7.46,7.46,0,0,0,1.157-.1,7.831,7.831,0,0,0,1.256-.309,4.909,4.909,0,0,0,1.135-.54V47.941q0-.551.011-1.091t.011-1q-.353.022-.794.044t-.771.044V44.723h5.268v.97a1.369,1.369,0,0,0-.849.242,1.387,1.387,0,0,0-.463.606,2.965,2.965,0,0,0-.187.771,7.1,7.1,0,0,0-.044.76v3.439h-.573a4.861,4.861,0,0,0-1.08.143,11.54,11.54,0,0,0-1.389.43,9.7,9.7,0,0,1-1.565.4A9.847,9.847,0,0,1,244.493,52.636Zm19.661-.353v-.97A1.825,1.825,0,0,0,265.2,51a1.253,1.253,0,0,0,.408-.794,8.427,8.427,0,0,0,.088-1.345V39.7q0-.485.022-.937t.044-.782q-.375.022-.816.044t-.793.044V36.854h5.422v.97a1.689,1.689,0,0,0-1.036.3,1.266,1.266,0,0,0-.419.794,8.387,8.387,0,0,0-.088,1.356V43.8h1.631l2.4-3.857q.331-.507.749-1.08a5.672,5.672,0,0,1,.793-.9q-.331.022-.694.033t-.65.033V36.854h4.959v.97a5.706,5.706,0,0,0-1.466.264,3.866,3.866,0,0,0-1.311.771,7.316,7.316,0,0,0-1.345,1.7l-2.138,3.417a3.937,3.937,0,0,1,.948.794q.375.441.727.9l2.4,3.24a14.778,14.778,0,0,0,1.223,1.477,3.2,3.2,0,0,0,.981.727,2.334,2.334,0,0,0,.926.2v.97h-2.932a1.068,1.068,0,0,1-.573-.331,8.153,8.153,0,0,1-.8-.838q-.43-.507-.827-1.014l-2.491-3.439q-.375-.507-.76-.992a2.885,2.885,0,0,0-.76-.705h-.992V49.33q0,.6-.011,1.069a6.176,6.176,0,0,1-.055.76q.375-.044.827-.055t.782-.033v1.212Zm24.378.353a8.3,8.3,0,0,1-3.582-.705,6.6,6.6,0,0,1-2.414-1.885,8.009,8.009,0,0,1-1.367-2.612,9.7,9.7,0,0,1-.441-2.865,8.849,8.849,0,0,1,.474-2.81,8.338,8.338,0,0,1,1.433-2.612,7.194,7.194,0,0,1,2.4-1.918,7.43,7.43,0,0,1,3.383-.727,7.782,7.782,0,0,1,3.494.727,6.966,6.966,0,0,1,2.414,1.929,8.628,8.628,0,0,1,1.422,2.612,8.473,8.473,0,0,1,0,5.588,8.474,8.474,0,0,1-1.433,2.623,7.165,7.165,0,0,1-2.392,1.929A7.413,7.413,0,0,1,288.533,52.636Zm.11-1.146a4.162,4.162,0,0,0,2.215-.573,4.728,4.728,0,0,0,1.543-1.532,7.143,7.143,0,0,0,.893-2.116,9.553,9.553,0,0,0,.287-2.3,11.1,11.1,0,0,0-.331-2.722,7.908,7.908,0,0,0-1-2.358,5.179,5.179,0,0,0-1.664-1.653,4.307,4.307,0,0,0-2.292-.606,4.1,4.1,0,0,0-2.226.6,4.8,4.8,0,0,0-1.543,1.554,7.552,7.552,0,0,0-.893,2.116,9.3,9.3,0,0,0-.3,2.325,10.343,10.343,0,0,0,.309,2.425,8.859,8.859,0,0,0,.948,2.381,5.406,5.406,0,0,0,1.642,1.785A4.183,4.183,0,0,0,288.643,51.49Zm23.585,1.1-8.2-10.889q-.242-.287-.463-.6t-.463-.639h-.022l.066,8.574q0,.551-.011,1.1t-.055,1.014q.375-.044.827-.055t.782-.033v1.212h-4.364v-.97a1.533,1.533,0,0,0,.937-.242,1.233,1.233,0,0,0,.441-.639,3.178,3.178,0,0,0,.121-.926V38.749q0-.441.022-.771-.353.022-.782.044t-.76.044V36.854h2.91l7.759,10.205q.375.485.672.9t.584.794h.022l.022-9.059q0-.485.022-.937t.044-.782l-.838.044q-.441.022-.771.044V36.854h4.364v.97a1.636,1.636,0,0,0-1.025.3,1.246,1.246,0,0,0-.4.794,9.563,9.563,0,0,0-.077,1.356l-.022,12.321Zm14.261.044a7.813,7.813,0,0,1-3.945-.97,6.641,6.641,0,0,1-2.623-2.722,8.629,8.629,0,0,1-.926-4.089,9.825,9.825,0,0,1,.474-3.02,8.474,8.474,0,0,1,1.433-2.689,6.961,6.961,0,0,1,2.4-1.929,7.473,7.473,0,0,1,3.361-.716,9.256,9.256,0,0,1,1.521.132,9.452,9.452,0,0,1,1.554.4,7.21,7.21,0,0,1,1.378.639l-.088-1.014H332.4v5.07h-1.014a4.546,4.546,0,0,0-.738-2.237,4.075,4.075,0,0,0-1.609-1.389,4.925,4.925,0,0,0-2.171-.474,4.4,4.4,0,0,0-2.127.518,5.23,5.23,0,0,0-1.664,1.433,6.808,6.808,0,0,0-1.091,2.149,8.82,8.82,0,0,0-.386,2.645,9.11,9.11,0,0,0,.672,3.6,5.821,5.821,0,0,0,1.907,2.48,4.756,4.756,0,0,0,2.888.9,7.46,7.46,0,0,0,1.157-.1,7.83,7.83,0,0,0,1.256-.309,4.909,4.909,0,0,0,1.135-.54V47.941q0-.551.011-1.091t.011-1q-.353.022-.794.044t-.771.044V44.723h5.268v.97a1.369,1.369,0,0,0-.849.242,1.388,1.388,0,0,0-.463.606,2.962,2.962,0,0,0-.187.771,7.1,7.1,0,0,0-.044.76v3.439h-.573a4.861,4.861,0,0,0-1.08.143,11.545,11.545,0,0,0-1.389.43,9.7,9.7,0,0,1-1.565.4A9.847,9.847,0,0,1,326.489,52.636Z" transform="translate(-5.294 217.73)" fill="#caa846"/></g></svg>