<svg xmlns="http://www.w3.org/2000/svg" width="179.136" height="147.192" viewBox="0 0 179.136 147.192"><g transform="translate(-743.294 -1328)"><g transform="translate(1058.175 1276.236)"><path d="M-170.3,153.292H-280.175V145.84H-170.3Zm-109.123-.75h108.373V146.59H-279.425Z" fill="#fff"/><path d="M-173.594,66.041h-103.29V62.966l.3-.065,51.35-11.137.079.017,51.566,11.185Zm-102.54-.75h101.79V63.57l-50.9-11.039-50.9,11.039Z" fill="#fff"/><path d="M-173.594,146.59h-103.29v-5.839h4.722V70.692h-4.722v-5.4h103.29v5.4h-4.722v70.059h4.722Zm-102.54-.75h101.79V141.5h-4.722V69.942h4.722v-3.9h-101.79v3.9h4.722V141.5h-4.722Zm83.246-4.339h-64.7V69.942h64.7Zm-63.953-.75h63.2V70.692h-63.2Zm74.487.375h-.75V70.317h.75Zm-3.278,0h-.75V70.317h.75Zm-3.279,0h-.75V70.317h.75Zm-72.125,0h-.75V70.317h.75Zm-3.278,0h-.75V70.317h.75Zm-3.278,0h-.75V70.317h.75Z" fill="#fff"/><path d="M-200.24,96.561h-11.481a1.973,1.973,0,0,1-.867.531l-1.036,1.232h8.12c.111-.112.812-1.008,1.008-1.008a10.948,10.948,0,0,1,2.071,1.316c.169.112.589.42.589.617,0,.279-.868.755-1.036.867-1.176,2.268-2.521,4.816-5.236,5.376a18.617,18.617,0,0,1-2.464.336,4.9,4.9,0,0,0-.336-1.68c-.392-1.12-1.821-1.176-1.821-1.567a.158.158,0,0,1,.168-.141,3.049,3.049,0,0,1,.7.141,13.35,13.35,0,0,0,2.576.419c2.1,0,3.136-2.016,3.864-3.7h-8.54c-.168.168-.9,1.092-1.232,1.092-.2,0-.42-.308-.533-.419a13.814,13.814,0,0,1-1.343-1.792c0-.169,1.036-.449,1.148-.477l.9-1.147h-5.489l-.5.391-.811-1.512a14.2,14.2,0,0,0,1.512.141H-202.7c.084-.113.895-.98,1.092-.98.28,0,1.679,1.343,1.679,1.708C-199.933,96.477-200.072,96.561-200.24,96.561Zm-2.353-13.889V91.38c0,.812.084,1.652.141,2.464a20.1,20.1,0,0,1-2.576.56l.112-1.848.027-10.331h-3.164c.616.615,1.288,1.287,1.288,1.54,0,.168-.111.223-.252.223-1.12.056-1.763.308-2.715.392a1.882,1.882,0,0,1,.336.476c0,.168-.336.42-.476.5v2.016h2.716c.168-.168.532-.587.811-.587s1.2,1.091,1.2,1.315c0,.2-.252.2-.363.2h-4.368v2.772a7.775,7.775,0,0,0,.111,1.093,15.266,15.266,0,0,1-2.212.363c.029-.5.113-1.064.113-1.6v-1.2a15.057,15.057,0,0,1-3.193,1.959,2.425,2.425,0,0,1-.7.28.119.119,0,0,1-.112-.112c0-.14.307-.419.391-.532A22.327,22.327,0,0,0-212.84,88.3h-2.016l-.5.392-.812-1.428c.5.028,1.008.112,1.512.112h2.8V85.584a6.411,6.411,0,0,0-.113-1.036c-.7.029-3.191.084-3.639,0-.084-.027-.365-.111-.084-.168a37.741,37.741,0,0,0,6.216-2.071c.056,0,.084-.029.14-.084h-6.889a3.344,3.344,0,0,1-.335.307V92.584l.14,1.4a24.8,24.8,0,0,1-2.465.336c.057-.952.141-1.932.141-2.883V83.121a10.8,10.8,0,0,0-.168-1.9,3.805,3.805,0,0,1-.225-.756c0-.084.057-.111.141-.111a.986.986,0,0,1,.279.055c.645.2,1.933.757,2.408.812a8.661,8.661,0,0,0,1.205.029c.56-.98,1.511-1.821,1.6-2.941a.157.157,0,0,1,.141-.084c.5,0,2.492,1.12,2.492,1.54,0,.2-.868.365-1.009.392-.615.533-1.231.533-1.847,1.093l8.54-.029c.139-.168.643-.951.952-.951a7.421,7.421,0,0,1,1.792,1.007c.139.084.588.364.588.561C-201.864,82.168-202.4,82.5-202.593,82.672ZM-213.849,92.92h4.4a3.139,3.139,0,0,1,1.512-1.007c.616-.084,2.156,1.679,1.847,1.987h-7.615l-.645.364-1.2-1.68Zm.5-5.656c-1.176,0-.756-1.176-1.2-1.847a1.607,1.607,0,0,1-.364-.588.128.128,0,0,1,.14-.113c.448.113.923.308,1.372.449s.98.419.98.98C-212.42,86.732-212.645,87.264-213.345,87.264Zm6.412-1.344c-.559.112-2.3,1.092-2.66,1.092-.084,0-.111-.055-.111-.139a.21.21,0,0,1,.056-.141c.364-.448.728-.868,1.036-1.315a3.426,3.426,0,0,0,.475-.813.535.535,0,0,1,.057-.224c.308-.027,1.987.953,1.987,1.261C-206.093,85.977-206.736,85.893-206.933,85.92Zm.141,6.188c-.812,0-1.009-.812-1.261-1.428a6.7,6.7,0,0,0-1.063-1.484c-.056-.084-.477-.279-.477-.392.029-.112-.084-.2,0-.2a4.527,4.527,0,0,1,1.989.448,2.264,2.264,0,0,1,1.764,1.932A1.057,1.057,0,0,1-206.792,92.108Z" fill="#fff"/><path d="M-214.912,112.968v-4.2a4.634,4.634,0,0,0-.084-.9,4.426,4.426,0,0,1-.252-.728c0-.14.084-.168.2-.168.421,0,2.912.616,2.912,1.064,0,.252-.615.56-.783.672v1.512h2.3c.084-.084,1.148-1.344,1.344-1.344a5.5,5.5,0,0,1,1.6,1.988c0,.2-.281.308-.449.308h-4.787v1.792h2.968c.111-.14.7-.98.924-.98s1.931,1.456,1.931,1.82-.475.42-.727.448a3.035,3.035,0,0,0-.813.252,3.019,3.019,0,0,0-.615.42c-.112.14-.673.812-.9.812-.084,0-.113-.084-.113-.168a15.513,15.513,0,0,1,.449-1.708H-213.6c.2.084,1.2.392,1.2.672,0,.252-.336.392-.531.476v.9l.56-.112c.084-.168.532-1.008.727-1.008.225,0,1.429,1.008,1.429,1.288,0,.168-.2.224-.336.252l-2.38.5v.84c0,.5.951.5,1.26.5,1.176,0,1.735-.2,2.155-1.344.085-.224.364-1.2.616-1.2.168,0,.168.2.168.28,0,.308-.027.588-.027.868,0,.7.363,1.008.924,1.372-.112.224-.225.448-.364.672-.644,1.092-2.94.98-4,.98-.449,0-2.157,0-2.436-.42a1.648,1.648,0,0,1-.28-.952V117.14l-1.372.336-.308.336-1.009-.924c-.111,4.592-.084,10.78-2.8,14.644-.084.084-.84,1.26-1.037,1.26-.111,0-.111-.14-.111-.2a9.615,9.615,0,0,1,.363-1.176,15.951,15.951,0,0,0,.785-3.08,85.627,85.627,0,0,0,.728-13.1,11.033,11.033,0,0,0-.084-2.156,6.6,6.6,0,0,1-.252-1.2c0-.112.056-.14.14-.14a14.611,14.611,0,0,1,2.716,1.2Zm1.092,10.892a27.954,27.954,0,0,1-3.025,1.148,5.355,5.355,0,0,1-.9.252c-.14,0-.14-.056-.14-.168a.288.288,0,0,1,.168-.224c1.176-.644,3.275-1.988,3.92-3.164h-2.521l-.364.364-.84-1.428c.42.028.869.14,1.261.14h6.356c.112-.14.839-1.092,1.064-1.092a4.2,4.2,0,0,1,1.428,1.736c0,.2-.336.28-.477.28h-4.76c.309.2,1.345.728,1.345,1.092,0,.2-.673.252-.784.252l-1.177.532A5.763,5.763,0,0,1-211.5,125.2a11.236,11.236,0,0,0,1.651-1.82c.084-.084.365-.644.421-.644.111,0,1.764,1.512,1.764,1.848s-.7.28-.9.252a20.535,20.535,0,0,1-2.575,1.036l.279.868a4.464,4.464,0,0,1,3.445.98,1.521,1.521,0,0,1,.532,1.092,1.047,1.047,0,0,1-.925,1.092c-.867,0-1.287-1.428-1.847-2.044a2.732,2.732,0,0,0-1.092-.7,16.019,16.019,0,0,1,.2,1.96c0,2.492-.756,3.7-3.192,4.34-.281-.812-.476-1.456-1.372-1.764-.168-.056-.953-.252-.953-.5,0-.112.057-.14.168-.14.393.028.785.056,1.177.056,2.128,0,2.155-1.288,2.268-3.024a23.777,23.777,0,0,1-5.4,2.352,4.529,4.529,0,0,1-.839.2.157.157,0,0,1-.168-.14c0-.2.756-.532.9-.616a20.323,20.323,0,0,0,5.264-4l-.168-.336a17.6,17.6,0,0,1-4.172,2.072,4.928,4.928,0,0,1-.84.28.181.181,0,0,1-.168-.168.24.24,0,0,1,.168-.2,19.83,19.83,0,0,0,4.283-3.5Zm-1.092-7.616v-1.176c0-.392-.084-.812-.112-1.2h-2.044l-.449.392-.055,2.324A9.5,9.5,0,0,0-214.912,116.244Zm10.22,7.392c0,.784.084,1.6.112,2.352-.7.308-1.456.448-2.156.7.028-.868.112-1.764.112-2.632V112.968a8.338,8.338,0,0,0-.336-1.428c0-.112.084-.168.2-.168.477,0,2.8.672,2.8,1.12,0,.2-.589.56-.728.644Zm3.891,7.98c0,1.68-1.9,2.072-3.22,2.156-.083-1.092-.251-1.54-1.288-1.988-.139-.056-1.036-.336-1.036-.5a.239.239,0,0,1,.2-.2,19.123,19.123,0,0,0,2.156.168c.756,0,1.063-.14,1.063-.98V110.028a5.06,5.06,0,0,0-.363-1.708.733.733,0,0,1-.084-.336.15.15,0,0,1,.14-.14c.5,0,3.332.7,3.332,1.12,0,.252-.729.672-.9.784Z" fill="#fff"/><path d="M-248.384,91.716l-.392-7.812a10.541,10.541,0,0,0-.2-2.1,5.936,5.936,0,0,1-.279-.84c0-.111,0-.224.14-.224a19.559,19.559,0,0,1,2.38.925A10.5,10.5,0,0,0-244.3,79.4c.392,0,1.764,1.792,1.764,2.072,0,.168-.42.224-.561.224s-.279-.056-.447-.056a22.817,22.817,0,0,0-3.192.589l.14,2.491h1.119c.057-.084.561-.756.7-.756a3.535,3.535,0,0,1,1.288,1.484c0,.2-.392.2-.5.2h-2.6l.084,2.491h1.316c.112-.084.671-.7.868-.7a3.324,3.324,0,0,1,1.176,1.427c0,.224-.42.2-.533.2h-2.8l.14,2.66h11.031l.084-2.491h-1.259l-.42.5-.981-1.568a15,15,0,0,0,2.744.139l.168-2.52H-236.4l-.42.476-1.008-1.54c.532.056,1.092.14,1.6.14h1.316l.14-2.715h-1.344l-.448.475-.98-1.539a17.286,17.286,0,0,0,2.688.139c.168-.223.616-.98.98-.98s1.455.841,1.708.98c.14.113.531.392.531.588,0,.392-.615.7-.868.9l-.672,9.016h.477c.14-.168.672-.783.952-.783.476,0,2.044,1.9,2.044,2.351,0,.589-.98.476-1.316.505-1.344.084-2.3,1.371-2.548,1.371a.181.181,0,0,1-.168-.168c0-.139.9-2.044,1.008-2.3h-16.212c-.029,1.064-.168,1.9-1.288,2.3a.779.779,0,0,1-.365.084.978.978,0,0,1-1.035-1.064c0-.924.84-1.064,1.316-2.015a3.424,3.424,0,0,0,.336-1.513c0-.056.028-.168.14-.168.195,0,.672,1.176.756,1.4Zm9.268,3.668h-6.861l-.419.476-1.008-1.6c.532.028,1.091.112,1.6.112h7c.113-.084.924-.952,1.149-.952a5.961,5.961,0,0,1,2.324,2.157c0,.252-.309.363-.5.391l-.98.112a5.806,5.806,0,0,0-2.941,1.289c.141.027.616.111.616.307s-.279.364-.419.448h6.551c.2-.224.841-1.12,1.2-1.12.309,0,1.345,1.232,1.513,1.372.111.141.279.308.279.5s-.307.224-.447.224h-9.1v3.725a7.22,7.22,0,0,1-.084,1.343,2.588,2.588,0,0,1-.56.868,5.844,5.844,0,0,1-2.772.728,2.286,2.286,0,0,0-1.373-2.072c-.139-.028-.727-.168-.727-.336,0-.084.084-.224.2-.224.644.056,1.512.2,2.1.2.784,0,.868-.532.868-1.176V99.108h-8.064l-.42.476-.98-1.6c.5.028,1.064.14,1.567.14h7.869v-.14c0-.392-.2-.7-.2-1.008a.161.161,0,0,1,.168-.167,5.483,5.483,0,0,1,1.345.279C-240.124,96.532-239.62,95.944-239.116,95.384Zm-4.172-9.071a.189.189,0,0,1-.112-.168.132.132,0,0,1,.139-.141,12.079,12.079,0,0,1,2.353,1.148,6.518,6.518,0,0,0,.979-1.848,5.39,5.39,0,0,1,2.017,1.6c0,.28-.7.392-.9.42-.252.224-.5.476-.755.728.532.533,1.316,1.261,1.316,2.044a1.029,1.029,0,0,1-.924,1.093c-.673,0-.98-.841-1.232-1.317-.113-.252-.252-.475-.365-.7a21.283,21.283,0,0,1-3.164,2.044c-.084,0-.111-.056-.111-.14a.24.24,0,0,1,.084-.168c.867-.9,1.624-1.848,2.407-2.828C-242.112,87.46-242.672,86.9-243.288,86.313Zm.559-5.573c-.055-.055-.139-.112-.139-.2s.055-.111.139-.111a10.176,10.176,0,0,1,1.989,1.007,8.8,8.8,0,0,0,1.008-2.239.208.208,0,0,1,.139-.056c.057,0,1.877,1.315,1.989,1.427a.5.5,0,0,1,.112.252c0,.2-.729.421-.9.476l-1.007,1.064c.56.476,1.456,1.344,1.456,2.128a.89.89,0,0,1-.953.925c-.616,0-.895-1.037-1.12-1.429a6.073,6.073,0,0,0-.336-.588,21.6,21.6,0,0,1-2.744,2.1.352.352,0,0,1,.029-.419c.616-.953,1.232-1.821,1.792-2.829A12.315,12.315,0,0,0-242.729,80.74Z" fill="#fff"/><path d="M-250.316,130.244l.084-1.455V110.756a9.28,9.28,0,0,0-.056-1.232,8.037,8.037,0,0,0-.28-1.036c0-.112.084-.139.168-.139a9.93,9.93,0,0,1,2.744,1.064h1.316c.14-.2.615-.925.9-.925a8.816,8.816,0,0,1,2.3,1.261.626.626,0,0,1,.168.392c0,.252-.84.7-1.037.783-.783,1.792-1.567,3.584-2.323,5.376,1.176,1.821,2.8,4.117,2.8,6.385a6.37,6.37,0,0,1-.588,2.491,2.613,2.613,0,0,1-2.352,1.456,3,3,0,0,0-.476-1.764c-.168-.2-1.092-.868-1.092-.9,0-.2.111-.2.279-.2.225,0,.477.028.7.028,1.427,0,1.484-1.176,1.484-2.3,0-1.511-.98-3.695-1.568-5.124.391-2.015.728-3.976,1.036-5.991h-1.764l-.224.336V128.4c0,1.373.112,2.828.2,4.2a10.133,10.133,0,0,1-2.548.56Zm17.723-10.052c.168,0,.364.225.448.336.2.224,1.149,1.232,1.149,1.513,0,.167-.141.251-.309.251h-3.807a.839.839,0,0,1,.336.561c0,.195-.392.307-.56.363V129.6c0,.728.5.588,1.092.588,1.4,0,1.624-.2,1.96-1.568.139-.643.307-1.26.42-1.9.028-.056.055-.224.139-.224.141,0,.225.056.225.224-.028.476-.057.98-.057,1.456,0,.644,0,1.988.813,2.128l.448.084c-.084.308-.168.644-.28.98-.393,1.064-2.044,1.009-3,1.009h-1.26c-.7,0-2.353.055-2.66-.841a2.387,2.387,0,0,1-.084-.644v-8.6H-239.7c.364.112,1.428.364,1.428.9,0,.168-.533.364-.672.42-.561,3.332-.224,5.292-3.22,7.616a13.355,13.355,0,0,1-3.248,1.848,2.941,2.941,0,0,1-.588.2c-.057,0-.112-.029-.112-.085a.349.349,0,0,1,.168-.308c1.511-1.008,3.08-2.156,3.668-3.976a18.108,18.108,0,0,0,1.036-5.319,9.381,9.381,0,0,0-.141-1.289h-.727l-.5.364-.981-1.54c.589.056,1.233.168,1.821.168h8.007C-233.628,121.145-232.9,120.192-232.593,120.192ZM-233.6,112.6c.029-.027.84-1.036,1.008-1.036.393,0,2.408,1.624,2.408,2.073,0,.475-1.007.475-1.231.475a3.2,3.2,0,0,0-.868.308,9.787,9.787,0,0,0-1.653,1.232.206.206,0,0,1-.139.056.182.182,0,0,1-.141-.168c0-.056.757-1.764.841-1.96h-8.316c-.084.84-.308,2.185-1.372,2.185-.7,0-1.26-.2-1.26-1.009,0-1.008,1.008-1.26,1.484-2.128a4.387,4.387,0,0,0,.42-1.2c0-.055.056-.223.111-.223.225,0,.477,1.064.477,1.148a.848.848,0,0,1,.056.251Zm-1.007,3.388c.2,0,.5.337.616.476s1.092,1.093,1.092,1.428a.276.276,0,0,1-.252.28H-240.4l-.476.365-1.009-1.513c.589.028,1.233.14,1.821.14h4.312C-235.672,117.084-234.889,115.992-234.608,115.992Zm-5.321-8.931a5.279,5.279,0,0,1,1.12.392c1.065.447,2.353,1.064,2.353,2.38,0,.783-.393,1.372-1.2,1.372a1.1,1.1,0,0,1-1.092-.7,2.632,2.632,0,0,1-.141-.671,3.368,3.368,0,0,0-1.091-2.52c-.029-.057-.084-.084-.084-.168C-240.068,107.088-239.956,107.061-239.929,107.061Z" fill="#fff"/></g><path d="M19.028,6.192a4.081,4.081,0,0,0-.156-1.14,1.257,1.257,0,0,0-.474-.684,1.516,1.516,0,0,0-.906-.216h-.864l-.012,6.24q0,.324-.006.582a3.355,3.355,0,0,1-.03.414q.228-.024.5-.03t.486-.018V12H14.516v-.528a.962.962,0,0,0,.564-.168.7.7,0,0,0,.216-.438,4.611,4.611,0,0,0,.048-.726V4.164l-1.008.012a1.2,1.2,0,0,0-1.068.492,2.74,2.74,0,0,0-.336,1.524h-.564L12.44,3.6h7.08l.072,2.592ZM21.68,12v-.528a.993.993,0,0,0,.57-.168.682.682,0,0,0,.222-.432,4.588,4.588,0,0,0,.048-.732V5.148q0-.264.012-.51t.024-.426l-.444.024-.432.024V3.6h2.952v.528a.919.919,0,0,0-.564.162.689.689,0,0,0-.228.432,4.566,4.566,0,0,0-.048.738V7.416h3.972V5.148q0-.264.012-.51t.024-.426l-.444.024-.432.024V3.6h2.952v.528a.919.919,0,0,0-.564.162.689.689,0,0,0-.228.432,4.566,4.566,0,0,0-.048.738v4.932q0,.324-.006.582a3.355,3.355,0,0,1-.03.414q.2-.024.444-.03t.432-.018V12H26.924v-.528a.993.993,0,0,0,.57-.168.682.682,0,0,0,.222-.432,4.588,4.588,0,0,0,.048-.732V8.04l-3.972.036v2.316q0,.324-.006.582a3.355,3.355,0,0,1-.03.414q.2-.024.45-.03t.426-.018V12ZM36.5,8.964a1.4,1.4,0,0,0-.15-.744.649.649,0,0,0-.45-.282,3.292,3.292,0,0,0-.744-.03l-.7.024v2.5q0,.324-.006.57a3.26,3.26,0,0,1-.03.4l2.064-.024a2.23,2.23,0,0,0,.84-.174,1.219,1.219,0,0,0,.588-.558,2.268,2.268,0,0,0,.216-1.08h.528L38.588,12h-6.24v-.528a.993.993,0,0,0,.57-.168.682.682,0,0,0,.222-.432,4.588,4.588,0,0,0,.048-.732V5.148q0-.264.012-.51t.024-.426l-.444.024-.432.024V3.6H38.2l.06,2.172h-.528a2.006,2.006,0,0,0-.222-1.044,1.078,1.078,0,0,0-.576-.48,2.158,2.158,0,0,0-.762-.108l-.84.024a1.033,1.033,0,0,0-.564.126.614.614,0,0,0-.252.408,3.825,3.825,0,0,0-.06.762V7.344h1.98l-.072-1.032h.66V8.964ZM51.872,6.276a2.652,2.652,0,0,0-.744-1.662,2.263,2.263,0,0,0-1.6-.594A2.449,2.449,0,0,0,48.38,4.3a2.758,2.758,0,0,0-.912.774,3.7,3.7,0,0,0-.594,1.176,4.989,4.989,0,0,0-.21,1.482,4.643,4.643,0,0,0,.384,1.938A3.116,3.116,0,0,0,48.11,10.98a2.65,2.65,0,0,0,1.542.468,3.43,3.43,0,0,0,1.518-.366,3.323,3.323,0,0,0,1.242-1.038l.4.336a4.429,4.429,0,0,1-1.152,1.14,3.8,3.8,0,0,1-1.218.534,4.988,4.988,0,0,1-1.1.138,4.16,4.16,0,0,1-1.656-.324,3.834,3.834,0,0,1-1.3-.906,4.073,4.073,0,0,1-.84-1.356,4.676,4.676,0,0,1-.294-1.674,5.237,5.237,0,0,1,.264-1.644,4.7,4.7,0,0,1,.78-1.458,3.7,3.7,0,0,1,1.3-1.038,4.122,4.122,0,0,1,1.83-.384,4.284,4.284,0,0,1,1.194.168,4.233,4.233,0,0,1,1.122.516l-.06-.6h.744V6.276ZM54.14,12v-.54a.747.747,0,0,0,.552-.192,1.533,1.533,0,0,0,.324-.522q.132-.33.288-.738l2.424-6.636h.48L60.836,10.1q.1.228.216.618a2.026,2.026,0,0,1,.108.666q.2-.024.4-.03t.378-.018V12H59.024v-.528a.721.721,0,0,0,.558-.186.553.553,0,0,0,.108-.426,2.115,2.115,0,0,0-.126-.5l-.36-.972-2.94.072L55.916,10.5q-.072.24-.156.456t-.168.42q.216-.024.462-.03t.438-.018V12Zm2.34-3.192H59L58.244,6.78q-.144-.4-.276-.786t-.24-.75h-.012q-.1.3-.216.66t-.276.78ZM70.2,12.168,65.732,6.24q-.132-.156-.252-.324t-.252-.348h-.012l.036,4.668q0,.3-.006.6t-.03.552q.2-.024.45-.03t.426-.018V12H63.716v-.528a.834.834,0,0,0,.51-.132.671.671,0,0,0,.24-.348,1.73,1.73,0,0,0,.066-.5V4.632q0-.24.012-.42l-.426.024q-.234.012-.414.024V3.6h1.584l4.224,5.556q.2.264.366.492t.318.432h.012l.012-4.932q0-.264.012-.51t.024-.426l-.456.024q-.24.012-.42.024V3.6h2.376v.528a.891.891,0,0,0-.558.162.678.678,0,0,0-.216.432,5.208,5.208,0,0,0-.042.738l-.012,6.708ZM80.348,6.192a4.081,4.081,0,0,0-.156-1.14,1.257,1.257,0,0,0-.474-.684,1.516,1.516,0,0,0-.906-.216h-.864l-.012,6.24q0,.324-.006.582a3.357,3.357,0,0,1-.03.414q.228-.024.5-.03t.486-.018V12H75.836v-.528A.962.962,0,0,0,76.4,11.3a.7.7,0,0,0,.216-.438,4.611,4.611,0,0,0,.048-.726V4.164l-1.008.012a1.2,1.2,0,0,0-1.068.492,2.74,2.74,0,0,0-.336,1.524h-.564L73.76,3.6h7.08l.072,2.592Zm6.768,6a4.521,4.521,0,0,1-1.95-.384,3.6,3.6,0,0,1-1.314-1.026,4.36,4.36,0,0,1-.744-1.422,5.28,5.28,0,0,1-.24-1.56,4.817,4.817,0,0,1,.258-1.53,4.54,4.54,0,0,1,.78-1.422A3.917,3.917,0,0,1,85.214,3.8a4.045,4.045,0,0,1,1.842-.4,4.237,4.237,0,0,1,1.9.4,3.792,3.792,0,0,1,1.314,1.05,4.7,4.7,0,0,1,.774,1.422,4.612,4.612,0,0,1,0,3.042,4.613,4.613,0,0,1-.78,1.428,3.9,3.9,0,0,1-1.3,1.05A4.036,4.036,0,0,1,87.116,12.192Zm.06-.624a2.265,2.265,0,0,0,1.206-.312,2.574,2.574,0,0,0,.84-.834,3.889,3.889,0,0,0,.486-1.152,5.2,5.2,0,0,0,.156-1.254,6.039,6.039,0,0,0-.18-1.482,4.3,4.3,0,0,0-.546-1.284,2.82,2.82,0,0,0-.906-.9,2.345,2.345,0,0,0-1.248-.33,2.231,2.231,0,0,0-1.212.324,2.612,2.612,0,0,0-.84.846,4.11,4.11,0,0,0-.486,1.152,5.065,5.065,0,0,0-.162,1.266,5.632,5.632,0,0,0,.168,1.32,4.824,4.824,0,0,0,.516,1.3,2.943,2.943,0,0,0,.894.972A2.277,2.277,0,0,0,87.176,11.568Zm12.84.6L95.552,6.24q-.132-.156-.252-.324t-.252-.348h-.012l.036,4.668q0,.3-.006.6t-.03.552q.2-.024.45-.03t.426-.018V12H93.536v-.528a.834.834,0,0,0,.51-.132.671.671,0,0,0,.24-.348,1.73,1.73,0,0,0,.066-.5V4.632q0-.24.012-.42l-.426.024q-.234.012-.414.024V3.6h1.584l4.224,5.556q.2.264.366.492t.318.432h.012l.012-4.932q0-.264.012-.51t.024-.426l-.456.024q-.24.012-.42.024V3.6h2.376v.528a.891.891,0,0,0-.558.162.678.678,0,0,0-.216.432,5.208,5.208,0,0,0-.042.738l-.012,6.708Zm8.04-3.2a1.4,1.4,0,0,0-.15-.744.649.649,0,0,0-.45-.282,3.292,3.292,0,0,0-.744-.03l-.7.024v2.5q0,.324-.006.57a3.26,3.26,0,0,1-.03.4l2.064-.024a2.23,2.23,0,0,0,.84-.174,1.219,1.219,0,0,0,.588-.558,2.268,2.268,0,0,0,.216-1.08h.528L110.144,12H103.9v-.528a.993.993,0,0,0,.57-.168.682.682,0,0,0,.222-.432,4.588,4.588,0,0,0,.048-.732V5.148q0-.264.012-.51t.024-.426l-.444.024-.432.024V3.6h5.856l.06,2.172h-.528a2.006,2.006,0,0,0-.222-1.044,1.078,1.078,0,0,0-.576-.48,2.158,2.158,0,0,0-.762-.108l-.84.024a1.033,1.033,0,0,0-.564.126.614.614,0,0,0-.252.408,3.825,3.825,0,0,0-.06.762V7.344H108l-.072-1.032h.66V8.964Zm9.288-2.772a3.052,3.052,0,0,0-.312-1.1,2.038,2.038,0,0,0-.7-.786,1.893,1.893,0,0,0-1.1-.282,1.5,1.5,0,0,0-1.068.372,1.256,1.256,0,0,0-.132,1.686,2.5,2.5,0,0,0,.714.57q.45.252,1.014.5.456.192.924.432a5.086,5.086,0,0,1,.852.546,2.339,2.339,0,0,1,.612.732,2.093,2.093,0,0,1,.228,1,2.131,2.131,0,0,1-.348,1.2,2.334,2.334,0,0,1-.99.828,3.65,3.65,0,0,1-1.554.3,4.115,4.115,0,0,1-1.086-.156,3.966,3.966,0,0,1-1.038-.444l.06.5h-.732l-.048-2.64h.576a2.194,2.194,0,0,0,.75,1.578,2.4,2.4,0,0,0,1.566.534,1.989,1.989,0,0,0,.828-.168,1.4,1.4,0,0,0,.588-.48,1.254,1.254,0,0,0,.216-.732,1.213,1.213,0,0,0-.294-.828,2.6,2.6,0,0,0-.744-.576q-.45-.24-.942-.456t-.954-.456a4.57,4.57,0,0,1-.834-.552,2.33,2.33,0,0,1-.588-.738,2.189,2.189,0,0,1-.216-1,2.307,2.307,0,0,1,.12-.708,2.029,2.029,0,0,1,1.194-1.254,3.244,3.244,0,0,1,1.254-.21,4.594,4.594,0,0,1,1.026.132,2.873,2.873,0,0,1,1.038.468l-.048-.5h.72V6.192Zm7.512,2.772a1.4,1.4,0,0,0-.15-.744.649.649,0,0,0-.45-.282,3.292,3.292,0,0,0-.744-.03l-.7.024v2.5q0,.324-.006.57a3.26,3.26,0,0,1-.03.4l2.064-.024a2.23,2.23,0,0,0,.84-.174,1.219,1.219,0,0,0,.588-.558,2.268,2.268,0,0,0,.216-1.08h.528L126.944,12H120.7v-.528a.993.993,0,0,0,.57-.168.682.682,0,0,0,.222-.432,4.588,4.588,0,0,0,.048-.732V5.148q0-.264.012-.51t.024-.426l-.444.024-.432.024V3.6h5.856l.06,2.172h-.528a2.006,2.006,0,0,0-.222-1.044,1.078,1.078,0,0,0-.576-.48,2.158,2.158,0,0,0-.762-.108l-.84.024a1.033,1.033,0,0,0-.564.126.614.614,0,0,0-.252.408,3.825,3.825,0,0,0-.06.762V7.344h1.98l-.072-1.032h.66V8.964Zm13,3.228a4.521,4.521,0,0,1-1.95-.384,3.6,3.6,0,0,1-1.314-1.026,4.36,4.36,0,0,1-.744-1.422,5.28,5.28,0,0,1-.24-1.56,4.818,4.818,0,0,1,.258-1.53,4.54,4.54,0,0,1,.78-1.422A3.917,3.917,0,0,1,135.95,3.8a4.045,4.045,0,0,1,1.842-.4,4.236,4.236,0,0,1,1.9.4,3.792,3.792,0,0,1,1.314,1.05,4.7,4.7,0,0,1,.774,1.422,4.612,4.612,0,0,1,0,3.042,4.614,4.614,0,0,1-.78,1.428,3.9,3.9,0,0,1-1.3,1.05A4.036,4.036,0,0,1,137.852,12.192Zm.06-.624a2.266,2.266,0,0,0,1.206-.312,2.574,2.574,0,0,0,.84-.834,3.888,3.888,0,0,0,.486-1.152,5.2,5.2,0,0,0,.156-1.254,6.04,6.04,0,0,0-.18-1.482,4.3,4.3,0,0,0-.546-1.284,2.82,2.82,0,0,0-.906-.9,2.345,2.345,0,0,0-1.248-.33,2.231,2.231,0,0,0-1.212.324,2.612,2.612,0,0,0-.84.846,4.111,4.111,0,0,0-.486,1.152,5.065,5.065,0,0,0-.162,1.266,5.632,5.632,0,0,0,.168,1.32,4.824,4.824,0,0,0,.516,1.3,2.943,2.943,0,0,0,.894.972A2.277,2.277,0,0,0,137.912,11.568Zm6.336-.1a.993.993,0,0,0,.57-.168.682.682,0,0,0,.222-.432,4.588,4.588,0,0,0,.048-.732V5.148q0-.264.012-.51t.024-.426l-.444.024-.432.024V3.6q.708-.012,1.44-.018t1.488-.006a5.932,5.932,0,0,1,1.914.27,2.53,2.53,0,0,1,1.212.816,2.221,2.221,0,0,1,.438,1.374,2.633,2.633,0,0,1-.168.966,2.486,2.486,0,0,1-.612.924,3.15,3.15,0,0,1-1.17.69,5.568,5.568,0,0,1-1.854.264q-.12.012-.27.012t-.306-.012v1.512q0,.324-.006.582a3.36,3.36,0,0,1-.03.414l.36-.024q.192-.012.378-.018t.342-.018V12h-3.156Zm2.112-3.228q.2.024.354.03t.354.006a2.675,2.675,0,0,0,1.188-.252,1.875,1.875,0,0,0,.8-.732,2.174,2.174,0,0,0,.288-1.14,2.371,2.371,0,0,0-.174-.966,1.482,1.482,0,0,0-.48-.612,1.973,1.973,0,0,0-.7-.318,3.556,3.556,0,0,0-.84-.1.8.8,0,0,0-.528.144.686.686,0,0,0-.216.42,4.266,4.266,0,0,0-.048.708Zm10.584.72a1.4,1.4,0,0,0-.15-.744.649.649,0,0,0-.45-.282,3.292,3.292,0,0,0-.744-.03l-.7.024v2.5q0,.324-.006.57a3.264,3.264,0,0,1-.03.4l2.064-.024a2.23,2.23,0,0,0,.84-.174,1.219,1.219,0,0,0,.588-.558,2.268,2.268,0,0,0,.216-1.08h.528L159.032,12h-6.24v-.528a.993.993,0,0,0,.57-.168.682.682,0,0,0,.222-.432,4.588,4.588,0,0,0,.048-.732V5.148q0-.264.012-.51t.024-.426l-.444.024-.432.024V3.6h5.856l.06,2.172h-.528a2.006,2.006,0,0,0-.222-1.044,1.078,1.078,0,0,0-.576-.48,2.158,2.158,0,0,0-.762-.108l-.84.024a1.033,1.033,0,0,0-.564.126.614.614,0,0,0-.252.408,3.825,3.825,0,0,0-.06.762V7.344h1.98l-.072-1.032h.66V8.964ZM161.468,12v-.528a.993.993,0,0,0,.57-.168.682.682,0,0,0,.222-.432,4.588,4.588,0,0,0,.048-.732V5.148q0-.264.012-.51t.024-.426l-.444.024-.432.024V3.6q.732-.012,1.476-.018t1.5.006a5.676,5.676,0,0,1,1.86.258,2.218,2.218,0,0,1,1.1.762,2.052,2.052,0,0,1,.354,1.272,2.249,2.249,0,0,1-.192.954,2.154,2.154,0,0,1-.684.846,3.368,3.368,0,0,1-1.32.564,1.545,1.545,0,0,1,.432.4q.192.252.4.564l.732,1.128q.228.36.42.612a1.463,1.463,0,0,0,.432.39,1.137,1.137,0,0,0,.576.138V12H166.88a3.241,3.241,0,0,1-.534-.57q-.222-.306-.474-.69L165.044,9.4q-.156-.24-.33-.516a2.384,2.384,0,0,0-.378-.468h-.756v1.98q0,.324-.006.582a3.36,3.36,0,0,1-.03.414q.144-.012.306-.018t.324-.018q.162-.012.282-.012V12Zm2.808-4.176a3.033,3.033,0,0,0,1.128-.21,1.5,1.5,0,0,0,.72-.612,2.042,2.042,0,0,0,.252-1.074,2.1,2.1,0,0,0-.144-.828,1.375,1.375,0,0,0-.408-.546,1.617,1.617,0,0,0-.63-.3,3.284,3.284,0,0,0-.786-.09.872.872,0,0,0-.558.144.671.671,0,0,0-.222.42,4.266,4.266,0,0,0-.048.708V7.788q.18.012.342.03A2.055,2.055,0,0,0,164.276,7.824ZM170.156,12v-.54a.747.747,0,0,0,.552-.192,1.533,1.533,0,0,0,.324-.522q.132-.33.288-.738l2.424-6.636h.48l2.628,6.732q.1.228.216.618a2.025,2.025,0,0,1,.108.666q.2-.024.4-.03t.378-.018V12H175.04v-.528a.721.721,0,0,0,.558-.186.553.553,0,0,0,.108-.426,2.115,2.115,0,0,0-.126-.5l-.36-.972-2.94.072-.348,1.044q-.072.24-.156.456t-.168.42q.216-.024.462-.03t.438-.018V12Zm2.34-3.192h2.52L174.26,6.78q-.144-.4-.276-.786t-.24-.75h-.012q-.1.3-.216.66t-.276.78ZM5.294,30v-.54a.747.747,0,0,0,.552-.192,1.533,1.533,0,0,0,.324-.522q.132-.33.288-.738l2.424-6.636h.48L11.99,28.1q.1.228.216.618a2.026,2.026,0,0,1,.108.666q.2-.024.4-.03t.378-.018V30H10.178v-.528a.721.721,0,0,0,.558-.186.553.553,0,0,0,.108-.426,2.115,2.115,0,0,0-.126-.5l-.36-.972-2.94.072L7.07,28.5q-.072.24-.156.456t-.168.42q.216-.024.462-.03t.438-.018V30Zm2.34-3.192h2.52L9.4,24.78q-.144-.4-.276-.786t-.24-.75H8.87q-.1.3-.216.66t-.276.78Zm13.584-2.532a2.652,2.652,0,0,0-.744-1.662,2.263,2.263,0,0,0-1.6-.594,2.449,2.449,0,0,0-1.152.276,2.758,2.758,0,0,0-.912.774,3.7,3.7,0,0,0-.594,1.176,4.989,4.989,0,0,0-.21,1.482,4.643,4.643,0,0,0,.384,1.938,3.116,3.116,0,0,0,1.062,1.314A2.65,2.65,0,0,0,19,29.448a3.43,3.43,0,0,0,1.518-.366,3.323,3.323,0,0,0,1.242-1.038l.4.336A4.429,4.429,0,0,1,21,29.52a3.8,3.8,0,0,1-1.218.534,4.988,4.988,0,0,1-1.1.138,4.16,4.16,0,0,1-1.656-.324,3.834,3.834,0,0,1-1.3-.906,4.073,4.073,0,0,1-.84-1.356,4.676,4.676,0,0,1-.294-1.674,5.237,5.237,0,0,1,.264-1.644,4.7,4.7,0,0,1,.78-1.458,3.7,3.7,0,0,1,1.3-1.038,4.122,4.122,0,0,1,1.83-.384,4.284,4.284,0,0,1,1.194.168,4.233,4.233,0,0,1,1.122.516l-.06-.6h.744v2.784ZM23.486,30v-.54a.747.747,0,0,0,.552-.192,1.533,1.533,0,0,0,.324-.522q.132-.33.288-.738l2.424-6.636h.48L30.182,28.1q.1.228.216.618a2.026,2.026,0,0,1,.108.666q.2-.024.4-.03t.378-.018V30H28.37v-.528a.721.721,0,0,0,.558-.186.553.553,0,0,0,.108-.426,2.115,2.115,0,0,0-.126-.5l-.36-.972-2.94.072L25.262,28.5q-.072.24-.156.456t-.168.42q.216-.024.462-.03t.438-.018V30Zm2.34-3.192h2.52L27.59,24.78q-.144-.4-.276-.786t-.24-.75h-.012q-.1.3-.216.66t-.276.78Zm7.212,2.664a.993.993,0,0,0,.57-.168.682.682,0,0,0,.222-.432,4.588,4.588,0,0,0,.048-.732V23.148q0-.264.012-.51t.024-.426l-.444.024-.432.024V21.6l3.06-.012a6.481,6.481,0,0,1,2,.288,4.259,4.259,0,0,1,1.512.834,3.542,3.542,0,0,1,.948,1.326,4.694,4.694,0,0,1,.048,3.3,3.828,3.828,0,0,1-.846,1.35,4.187,4.187,0,0,1-1.434.954,5.282,5.282,0,0,1-2.04.36H33.038ZM35.15,28.4q0,.324-.006.576a3.307,3.307,0,0,1-.03.408q.252,0,.5.006t.45.006h.282a3.019,3.019,0,0,0,1.32-.276,2.822,2.822,0,0,0,.978-.768,3.475,3.475,0,0,0,.612-1.14,4.449,4.449,0,0,0,.21-1.38,4.656,4.656,0,0,0-.384-1.992A2.717,2.717,0,0,0,37.928,22.6,4,4,0,0,0,36,22.152a.953.953,0,0,0-.576.138.644.644,0,0,0-.228.426,4.588,4.588,0,0,0-.048.732Zm12.108-1.44a1.4,1.4,0,0,0-.15-.744.649.649,0,0,0-.45-.282,3.291,3.291,0,0,0-.744-.03l-.7.024v2.5q0,.324-.006.57a3.26,3.26,0,0,1-.03.4l2.064-.024a2.23,2.23,0,0,0,.84-.174,1.219,1.219,0,0,0,.588-.558,2.268,2.268,0,0,0,.216-1.08h.528L49.346,30h-6.24v-.528a.993.993,0,0,0,.57-.168.682.682,0,0,0,.222-.432,4.588,4.588,0,0,0,.048-.732V23.148q0-.264.012-.51t.024-.426l-.444.024-.432.024V21.6h5.856l.06,2.172h-.528a2.006,2.006,0,0,0-.222-1.044,1.078,1.078,0,0,0-.576-.48,2.158,2.158,0,0,0-.762-.108l-.84.024a1.033,1.033,0,0,0-.564.126.614.614,0,0,0-.252.408,3.825,3.825,0,0,0-.06.762v1.884H47.2l-.072-1.032h.66v2.652Zm8.976,3.156-.984-2.256q-.492-1.128-.972-2.268-.144-.336-.3-.732t-.312-.84q-.156-.444-.3-.9v1.152q-.012.372-.024.87t-.03,1.05q-.018.552-.024,1.1t-.018,1.05q0,.288-.012.564t-.036.48q.216-.024.462-.03t.438-.018V30H51.686v-.528a1,1,0,0,0,.516-.132.607.607,0,0,0,.246-.36,2.587,2.587,0,0,0,.078-.588l.168-5.184.024-.528q.012-.264.024-.468-.216.012-.456.018t-.42.018V21.6h2.1l1.98,4.728q.144.324.288.69t.294.72q.15.354.27.666h.024q.132-.36.3-.792t.288-.768q.516-1.3,1.05-2.592T59.51,21.6h2.112v.528a1.052,1.052,0,0,0-.486.1.607.607,0,0,0-.288.366,2.132,2.132,0,0,0-.066.756l.264,5.172a3.719,3.719,0,0,1,.018.468q-.006.228-.018.384.216-.012.462-.018t.426-.018V30h-2.9v-.528a.976.976,0,0,0,.534-.144.647.647,0,0,0,.246-.414,2.928,2.928,0,0,0,.036-.738l-.192-3.492q-.012-.18-.024-.426t-.03-.516q-.018-.27-.03-.522-.036.084-.072.174t-.072.2l-2.58,6.528ZM66.05,30v-.528a.962.962,0,0,0,.564-.168.7.7,0,0,0,.216-.438,4.612,4.612,0,0,0,.048-.726l.012-1.26-2.136-3.36a8.063,8.063,0,0,1-.4-.744,1.836,1.836,0,0,1-.174-.54q-.192.012-.36.012t-.336.012V21.6h3.24v.528a1.264,1.264,0,0,0-.7.132.416.416,0,0,0-.2.414,1.541,1.541,0,0,0,.24.63l.948,1.512q.1.144.216.336t.246.39q.126.2.234.4h.024q.108-.228.246-.486t.282-.57l.888-1.692q.06-.12.156-.3t.21-.366a1.653,1.653,0,0,1,.234-.306q-.216.012-.474.018t-.462.018V21.6h2.508v.528a1.413,1.413,0,0,0-.882.39,4.489,4.489,0,0,0-.75,1.074q-.4.756-.78,1.482T68.162,26.5q0,.192-.006.492t-.006.6v.8q0,.324-.006.582a3.356,3.356,0,0,1-.03.414q.24-.024.51-.03t.474-.018V30Zm15.516.192a4.521,4.521,0,0,1-1.95-.384A3.6,3.6,0,0,1,78.3,28.782a4.36,4.36,0,0,1-.744-1.422,5.28,5.28,0,0,1-.24-1.56,4.817,4.817,0,0,1,.258-1.53,4.54,4.54,0,0,1,.78-1.422A3.917,3.917,0,0,1,79.664,21.8a4.045,4.045,0,0,1,1.842-.4,4.237,4.237,0,0,1,1.9.4,3.792,3.792,0,0,1,1.314,1.05,4.7,4.7,0,0,1,.774,1.422,4.612,4.612,0,0,1,0,3.042,4.613,4.613,0,0,1-.78,1.428,3.9,3.9,0,0,1-1.3,1.05A4.036,4.036,0,0,1,81.566,30.192Zm.06-.624a2.265,2.265,0,0,0,1.206-.312,2.574,2.574,0,0,0,.84-.834,3.889,3.889,0,0,0,.486-1.152,5.2,5.2,0,0,0,.156-1.254,6.039,6.039,0,0,0-.18-1.482,4.3,4.3,0,0,0-.546-1.284,2.82,2.82,0,0,0-.906-.9,2.345,2.345,0,0,0-1.248-.33,2.231,2.231,0,0,0-1.212.324,2.612,2.612,0,0,0-.84.846,4.11,4.11,0,0,0-.486,1.152,5.065,5.065,0,0,0-.162,1.266,5.632,5.632,0,0,0,.168,1.32,4.824,4.824,0,0,0,.516,1.3,2.943,2.943,0,0,0,.894.972A2.277,2.277,0,0,0,81.626,29.568ZM87.962,30v-.528a.993.993,0,0,0,.57-.168.682.682,0,0,0,.222-.432,4.588,4.588,0,0,0,.048-.732V23.148q0-.264.012-.51t.024-.426l-.444.024-.432.024V21.6h5.712l.072,2.172h-.528a1.963,1.963,0,0,0-.228-1.044,1.1,1.1,0,0,0-.588-.48,2.247,2.247,0,0,0-.78-.108l-.72.024a.823.823,0,0,0-.558.156.736.736,0,0,0-.222.444,4.588,4.588,0,0,0-.048.732V25.56l1.812.012-.072-1.044h.66v2.664h-.528a1.43,1.43,0,0,0-.15-.756.629.629,0,0,0-.45-.276,4.119,4.119,0,0,0-.744-.036l-.528.024v2.244q0,.324-.006.582a3.355,3.355,0,0,1-.03.414q.18-.012.39-.018t.414-.018q.2-.012.372-.012V30Zm12.228,0v-.528a.993.993,0,0,0,.57-.168.682.682,0,0,0,.222-.432,4.588,4.588,0,0,0,.048-.732V23.148q0-.264.012-.51t.024-.426l-.444.024-.432.024V21.6h2.952v.528a.919.919,0,0,0-.564.162.689.689,0,0,0-.228.432,4.567,4.567,0,0,0-.048.738v1.956h3.972V23.148q0-.264.012-.51t.024-.426l-.444.024-.432.024V21.6h2.952v.528a.919.919,0,0,0-.564.162.689.689,0,0,0-.228.432,4.566,4.566,0,0,0-.048.738v4.932q0,.324-.006.582a3.355,3.355,0,0,1-.03.414q.2-.024.444-.03t.432-.018V30h-2.952v-.528A.993.993,0,0,0,106,29.3a.682.682,0,0,0,.222-.432,4.587,4.587,0,0,0,.048-.732v-2.1l-3.972.036v2.316q0,.324-.006.582a3.355,3.355,0,0,1-.03.414q.2-.024.45-.03t.426-.018V30Zm14.664.192a4.521,4.521,0,0,1-1.95-.384,3.6,3.6,0,0,1-1.314-1.026,4.36,4.36,0,0,1-.744-1.422,5.28,5.28,0,0,1-.24-1.56,4.817,4.817,0,0,1,.258-1.53,4.54,4.54,0,0,1,.78-1.422,3.917,3.917,0,0,1,1.308-1.044,4.045,4.045,0,0,1,1.842-.4,4.237,4.237,0,0,1,1.9.4,3.792,3.792,0,0,1,1.314,1.05,4.7,4.7,0,0,1,.774,1.422,4.612,4.612,0,0,1,0,3.042,4.613,4.613,0,0,1-.78,1.428,3.9,3.9,0,0,1-1.3,1.05A4.036,4.036,0,0,1,114.854,30.192Zm.06-.624a2.265,2.265,0,0,0,1.206-.312,2.574,2.574,0,0,0,.84-.834,3.888,3.888,0,0,0,.486-1.152,5.2,5.2,0,0,0,.156-1.254,6.039,6.039,0,0,0-.18-1.482,4.3,4.3,0,0,0-.546-1.284,2.82,2.82,0,0,0-.906-.9,2.345,2.345,0,0,0-1.248-.33,2.231,2.231,0,0,0-1.212.324,2.612,2.612,0,0,0-.84.846,4.11,4.11,0,0,0-.486,1.152,5.065,5.065,0,0,0-.162,1.266,5.632,5.632,0,0,0,.168,1.32,4.824,4.824,0,0,0,.516,1.3,2.943,2.943,0,0,0,.894.972A2.277,2.277,0,0,0,114.914,29.568Zm12.84.6L123.29,24.24q-.132-.156-.252-.324t-.252-.348h-.012l.036,4.668q0,.3-.006.6t-.03.552q.2-.024.45-.03t.426-.018V30h-2.376v-.528a.834.834,0,0,0,.51-.132.671.671,0,0,0,.24-.348,1.73,1.73,0,0,0,.066-.5V22.632q0-.24.012-.42l-.426.024q-.234.012-.414.024V21.6h1.584l4.224,5.556q.2.264.366.492t.318.432h.012l.012-4.932q0-.264.012-.51t.024-.426l-.456.024q-.24.012-.42.024V21.6h2.376v.528a.891.891,0,0,0-.558.162.678.678,0,0,0-.216.432,5.208,5.208,0,0,0-.042.738l-.012,6.708Zm7.764.024a4.254,4.254,0,0,1-2.148-.528,3.616,3.616,0,0,1-1.428-1.482,4.7,4.7,0,0,1-.5-2.226,5.349,5.349,0,0,1,.258-1.644,4.613,4.613,0,0,1,.78-1.464,3.79,3.79,0,0,1,1.308-1.05,4.068,4.068,0,0,1,1.83-.39,5.04,5.04,0,0,1,.828.072,5.146,5.146,0,0,1,.846.216,3.925,3.925,0,0,1,.75.348l-.048-.552h.744v2.76h-.552a2.475,2.475,0,0,0-.4-1.218,2.218,2.218,0,0,0-.876-.756,2.681,2.681,0,0,0-1.182-.258,2.4,2.4,0,0,0-1.158.282,2.847,2.847,0,0,0-.906.78,3.706,3.706,0,0,0-.594,1.17,4.8,4.8,0,0,0-.21,1.44,4.96,4.96,0,0,0,.366,1.962A3.169,3.169,0,0,0,134.258,29a2.589,2.589,0,0,0,1.572.492,4.061,4.061,0,0,0,.63-.054,4.263,4.263,0,0,0,.684-.168,2.672,2.672,0,0,0,.618-.294V27.636q0-.3.006-.594t.006-.546l-.432.024q-.24.012-.42.024v-.66h2.868v.528a.745.745,0,0,0-.462.132.755.755,0,0,0-.252.33,1.614,1.614,0,0,0-.1.42,3.865,3.865,0,0,0-.024.414V29.58h-.312a2.646,2.646,0,0,0-.588.078,6.283,6.283,0,0,0-.756.234,5.281,5.281,0,0,1-.852.216A5.361,5.361,0,0,1,135.518,30.192Zm10.7-.192v-.528a.993.993,0,0,0,.57-.168.682.682,0,0,0,.222-.432,4.588,4.588,0,0,0,.048-.732V23.148q0-.264.012-.51t.024-.426l-.444.024-.432.024V21.6h2.952v.528a.919.919,0,0,0-.564.162.689.689,0,0,0-.228.432,4.567,4.567,0,0,0-.048.738v1.92h.888l1.308-2.1q.18-.276.408-.588a3.088,3.088,0,0,1,.432-.492q-.18.012-.378.018t-.354.018V21.6h2.7v.528a3.107,3.107,0,0,0-.8.144,2.1,2.1,0,0,0-.714.42,3.984,3.984,0,0,0-.732.924l-1.164,1.86a2.144,2.144,0,0,1,.516.432q.2.24.4.492l1.308,1.764a8.046,8.046,0,0,0,.666.8,1.743,1.743,0,0,0,.534.4,1.271,1.271,0,0,0,.5.108V30h-1.6a.581.581,0,0,1-.312-.18,4.439,4.439,0,0,1-.438-.456q-.234-.276-.45-.552L149.7,26.94q-.2-.276-.414-.54a1.571,1.571,0,0,0-.414-.384h-.54v2.376q0,.324-.006.582a3.36,3.36,0,0,1-.03.414q.2-.024.45-.03t.426-.018V30Zm13.272.192a4.521,4.521,0,0,1-1.95-.384,3.6,3.6,0,0,1-1.314-1.026,4.36,4.36,0,0,1-.744-1.422,5.28,5.28,0,0,1-.24-1.56,4.818,4.818,0,0,1,.258-1.53,4.54,4.54,0,0,1,.78-1.422,3.917,3.917,0,0,1,1.308-1.044,4.045,4.045,0,0,1,1.842-.4,4.236,4.236,0,0,1,1.9.4,3.792,3.792,0,0,1,1.314,1.05,4.7,4.7,0,0,1,.774,1.422,4.612,4.612,0,0,1,0,3.042,4.614,4.614,0,0,1-.78,1.428,3.9,3.9,0,0,1-1.3,1.05A4.036,4.036,0,0,1,159.494,30.192Zm.06-.624a2.266,2.266,0,0,0,1.206-.312,2.574,2.574,0,0,0,.84-.834,3.888,3.888,0,0,0,.486-1.152,5.2,5.2,0,0,0,.156-1.254,6.04,6.04,0,0,0-.18-1.482,4.3,4.3,0,0,0-.546-1.284,2.82,2.82,0,0,0-.906-.9,2.345,2.345,0,0,0-1.248-.33,2.231,2.231,0,0,0-1.212.324,2.612,2.612,0,0,0-.84.846,4.111,4.111,0,0,0-.486,1.152,5.065,5.065,0,0,0-.162,1.266,5.632,5.632,0,0,0,.168,1.32,4.824,4.824,0,0,0,.516,1.3,2.943,2.943,0,0,0,.894.972A2.277,2.277,0,0,0,159.554,29.568Zm12.84.6L167.93,24.24q-.132-.156-.252-.324t-.252-.348h-.012l.036,4.668q0,.3-.006.6t-.03.552q.2-.024.45-.03t.426-.018V30h-2.376v-.528a.834.834,0,0,0,.51-.132.671.671,0,0,0,.24-.348,1.73,1.73,0,0,0,.066-.5V22.632q0-.24.012-.42l-.426.024q-.234.012-.414.024V21.6h1.584l4.224,5.556q.2.264.366.492t.318.432h.012l.012-4.932q0-.264.012-.51t.024-.426l-.456.024q-.24.012-.42.024V21.6h2.376v.528a.891.891,0,0,0-.558.162.678.678,0,0,0-.216.432,5.208,5.208,0,0,0-.042.738l-.012,6.708Zm7.764.024a4.254,4.254,0,0,1-2.148-.528,3.616,3.616,0,0,1-1.428-1.482,4.7,4.7,0,0,1-.5-2.226,5.349,5.349,0,0,1,.258-1.644,4.613,4.613,0,0,1,.78-1.464,3.79,3.79,0,0,1,1.308-1.05,4.068,4.068,0,0,1,1.83-.39,5.04,5.04,0,0,1,.828.072,5.146,5.146,0,0,1,.846.216,3.925,3.925,0,0,1,.75.348l-.048-.552h.744v2.76h-.552a2.475,2.475,0,0,0-.4-1.218,2.218,2.218,0,0,0-.876-.756,2.681,2.681,0,0,0-1.182-.258,2.4,2.4,0,0,0-1.158.282,2.847,2.847,0,0,0-.906.78,3.706,3.706,0,0,0-.594,1.17,4.8,4.8,0,0,0-.21,1.44,4.96,4.96,0,0,0,.366,1.962A3.169,3.169,0,0,0,178.9,29a2.589,2.589,0,0,0,1.572.492,4.061,4.061,0,0,0,.63-.054,4.263,4.263,0,0,0,.684-.168,2.672,2.672,0,0,0,.618-.294V27.636q0-.3.006-.594t.006-.546l-.432.024q-.24.012-.42.024v-.66h2.868v.528a.745.745,0,0,0-.462.132.755.755,0,0,0-.252.33,1.614,1.614,0,0,0-.1.42,3.865,3.865,0,0,0-.024.414V29.58h-.312a2.646,2.646,0,0,0-.588.078,6.284,6.284,0,0,0-.756.234,5.281,5.281,0,0,1-.852.216A5.361,5.361,0,0,1,180.158,30.192Z" transform="translate(738 1445)" fill="#fff"/></g></svg>