<svg xmlns="http://www.w3.org/2000/svg" width="121.017" height="118.054" viewBox="0 0 121.017 118.054">
  <g id="Group_1241" data-name="Group 1241" transform="translate(616.122 -660.294)">
    <g id="Layer_2" data-name="Layer 2">
      <g id="Group_1234" data-name="Group 1234">
        <g id="Group_1233" data-name="Group 1233">
          <path id="Path_1879" data-name="Path 1879" d="M-607.358,743.632a2.65,2.65,0,0,0-.744-1.662,2.263,2.263,0,0,0-1.6-.594,2.46,2.46,0,0,0-1.152.275,2.773,2.773,0,0,0-.912.775,3.686,3.686,0,0,0-.594,1.176,4.99,4.99,0,0,0-.21,1.482,4.635,4.635,0,0,0,.384,1.937,3.119,3.119,0,0,0,1.062,1.315,2.657,2.657,0,0,0,1.542.468,3.429,3.429,0,0,0,1.518-.366,3.325,3.325,0,0,0,1.242-1.039l.4.336a4.449,4.449,0,0,1-1.152,1.141,3.825,3.825,0,0,1-1.218.534,4.986,4.986,0,0,1-1.1.138,4.177,4.177,0,0,1-1.656-.324,3.823,3.823,0,0,1-1.3-.907,4.059,4.059,0,0,1-.84-1.355,4.68,4.68,0,0,1-.294-1.674,5.239,5.239,0,0,1,.264-1.644,4.693,4.693,0,0,1,.78-1.458,3.715,3.715,0,0,1,1.3-1.039,4.136,4.136,0,0,1,1.83-.383,4.246,4.246,0,0,1,1.194.168,4.26,4.26,0,0,1,1.122.515l-.06-.6h.744v2.784Z" fill="#fff"/>
          <path id="Path_1880" data-name="Path 1880" d="M-606.29,749.355v-.54a.747.747,0,0,0,.552-.191,1.534,1.534,0,0,0,.324-.522q.132-.33.288-.739l2.424-6.635h.48l2.628,6.732q.1.227.216.618a2.025,2.025,0,0,1,.108.666q.2-.024.4-.03c.132,0,.258-.01.378-.019v.66h-2.916v-.527a.721.721,0,0,0,.558-.186.554.554,0,0,0,.108-.426,2.115,2.115,0,0,0-.126-.5l-.36-.973-2.94.073-.348,1.043q-.072.242-.156.457c-.056.144-.112.284-.168.419.144-.015.3-.025.462-.029s.31-.011.438-.018v.671Zm2.34-3.191h2.52l-.756-2.028c-.1-.264-.188-.527-.276-.786s-.168-.51-.24-.75h-.012q-.1.3-.216.66t-.276.78Z" fill="#fff"/>
          <path id="Path_1881" data-name="Path 1881" d="M-591.434,749.523-595.9,743.6q-.132-.156-.252-.325t-.252-.347h-.012l.036,4.668c0,.2,0,.4-.006.6s-.014.385-.03.553q.2-.024.45-.03c.164,0,.306-.01.426-.019v.66h-2.376v-.527a.828.828,0,0,0,.51-.133.669.669,0,0,0,.24-.347,1.73,1.73,0,0,0,.066-.5v-5.857q0-.238.012-.42c-.128.009-.27.017-.426.025s-.294.015-.414.023v-.659h1.584l4.224,5.556q.2.264.366.492t.318.432h.012l.012-4.932q0-.264.012-.51c.008-.164.016-.306.024-.427-.144.009-.3.017-.456.025s-.3.015-.42.023v-.659h2.376v.527a.9.9,0,0,0-.558.163.679.679,0,0,0-.216.432,5.2,5.2,0,0,0-.042.737l-.012,6.708Z" fill="#fff"/>
          <path id="Path_1882" data-name="Path 1882" d="M-582.482,743.548a4.094,4.094,0,0,0-.156-1.141,1.258,1.258,0,0,0-.474-.683,1.516,1.516,0,0,0-.906-.216h-.864l-.012,6.24q0,.324-.006.582a3.352,3.352,0,0,1-.03.414q.228-.024.5-.03c.18,0,.342-.01.486-.019v.66h-3.048v-.527a.961.961,0,0,0,.564-.168.705.705,0,0,0,.216-.438,4.622,4.622,0,0,0,.048-.726V741.52l-1.008.011a1.2,1.2,0,0,0-1.068.492,2.744,2.744,0,0,0-.336,1.525h-.564l.072-2.592h7.08l.072,2.592Z" fill="#fff"/>
          <path id="Path_1883" data-name="Path 1883" d="M-576.914,749.548a4.521,4.521,0,0,1-1.95-.384,3.605,3.605,0,0,1-1.314-1.026,4.37,4.37,0,0,1-.744-1.422,5.287,5.287,0,0,1-.24-1.561,4.812,4.812,0,0,1,.258-1.529,4.53,4.53,0,0,1,.78-1.422,3.9,3.9,0,0,1,1.308-1.044,4.045,4.045,0,0,1,1.842-.4,4.237,4.237,0,0,1,1.9.4,3.781,3.781,0,0,1,1.314,1.05,4.7,4.7,0,0,1,.774,1.422,4.757,4.757,0,0,1,.258,1.523,4.794,4.794,0,0,1-.258,1.519,4.625,4.625,0,0,1-.78,1.428,3.886,3.886,0,0,1-1.3,1.049A4.023,4.023,0,0,1-576.914,749.548Zm.06-.624a2.257,2.257,0,0,0,1.206-.313,2.565,2.565,0,0,0,.84-.834,3.872,3.872,0,0,0,.486-1.151,5.2,5.2,0,0,0,.156-1.254,6.034,6.034,0,0,0-.18-1.482,4.31,4.31,0,0,0-.546-1.285,2.827,2.827,0,0,0-.906-.9,2.336,2.336,0,0,0-1.248-.33,2.222,2.222,0,0,0-1.212.324,2.6,2.6,0,0,0-.84.846,4.1,4.1,0,0,0-.486,1.151,5.077,5.077,0,0,0-.162,1.267,5.631,5.631,0,0,0,.168,1.32,4.825,4.825,0,0,0,.516,1.3,2.953,2.953,0,0,0,.894.972A2.278,2.278,0,0,0-576.854,748.924Z" fill="#fff"/>
          <path id="Path_1884" data-name="Path 1884" d="M-565.213,749.523l-4.465-5.927q-.132-.156-.252-.325t-.252-.347h-.011l.035,4.668c0,.2,0,.4-.006.6s-.014.385-.029.553c.135-.016.285-.026.449-.03s.306-.01.427-.019v.66h-2.376v-.527a.826.826,0,0,0,.509-.133.676.676,0,0,0,.241-.347,1.73,1.73,0,0,0,.066-.5v-5.857c0-.159,0-.3.011-.42-.128.009-.27.017-.426.025s-.293.015-.414.023v-.659h1.584l4.225,5.556q.2.264.365.492t.319.432h.011l.013-4.932c0-.176,0-.346.011-.51s.016-.306.025-.427c-.144.009-.3.017-.456.025s-.3.015-.42.023v-.659h2.376v.527a.893.893,0,0,0-.558.163.679.679,0,0,0-.217.432,5.2,5.2,0,0,0-.042.737l-.011,6.708Z" fill="#fff"/>
          <path id="Path_1885" data-name="Path 1885" d="M-558.374,746.319a1.4,1.4,0,0,0-.15-.743.649.649,0,0,0-.45-.282,3.291,3.291,0,0,0-.744-.03l-.7.024v2.5c0,.216,0,.405-.006.57a3.282,3.282,0,0,1-.03.4l2.064-.025a2.21,2.21,0,0,0,.84-.173,1.219,1.219,0,0,0,.588-.558,2.271,2.271,0,0,0,.216-1.08h.528l-.072,2.435h-6.24v-.527a.993.993,0,0,0,.57-.168.685.685,0,0,0,.222-.432,4.59,4.59,0,0,0,.048-.732V742.5q0-.264.012-.51c.008-.164.016-.306.024-.427-.136.009-.284.017-.444.025s-.3.015-.432.023v-.659h5.856l.06,2.172h-.528a2,2,0,0,0-.222-1.044,1.078,1.078,0,0,0-.576-.48,2.136,2.136,0,0,0-.762-.108l-.84.024a1.033,1.033,0,0,0-.564.126.611.611,0,0,0-.252.408,3.822,3.822,0,0,0-.06.761V744.7h1.98l-.072-1.032h.66v2.651Z" fill="#fff"/>
          <path id="Path_1886" data-name="Path 1886" d="M-550.286,743.548a3.056,3.056,0,0,0-.312-1.1,2.058,2.058,0,0,0-.7-.786,1.9,1.9,0,0,0-1.1-.281,1.494,1.494,0,0,0-1.068.372,1.189,1.189,0,0,0-.4.9,1.2,1.2,0,0,0,.263.787,2.5,2.5,0,0,0,.714.57c.3.168.638.336,1.014.5q.457.192.925.431a5.178,5.178,0,0,1,.851.546,2.346,2.346,0,0,1,.613.733,2.1,2.1,0,0,1,.228,1,2.134,2.134,0,0,1-.349,1.2,2.339,2.339,0,0,1-.989.828,3.673,3.673,0,0,1-1.555.3,4.145,4.145,0,0,1-1.085-.156,3.928,3.928,0,0,1-1.039-.445l.061.505h-.732l-.049-2.64h.576a2.194,2.194,0,0,0,.75,1.578,2.4,2.4,0,0,0,1.566.534,1.986,1.986,0,0,0,.828-.168,1.392,1.392,0,0,0,.588-.481,1.252,1.252,0,0,0,.217-.731,1.207,1.207,0,0,0-.295-.828,2.609,2.609,0,0,0-.743-.576c-.3-.161-.615-.312-.942-.456s-.647-.3-.954-.456a4.554,4.554,0,0,1-.834-.552,2.334,2.334,0,0,1-.589-.738,2.205,2.205,0,0,1-.216-1,2.279,2.279,0,0,1,.121-.708,2.031,2.031,0,0,1,.407-.708,2.081,2.081,0,0,1,.786-.546,3.244,3.244,0,0,1,1.254-.21,4.609,4.609,0,0,1,1.027.132,2.867,2.867,0,0,1,1.037.467l-.048-.5h.721v2.689Z" fill="#fff"/>
          <path id="Path_1887" data-name="Path 1887" d="M-543.974,746.319a1.4,1.4,0,0,0-.15-.743.649.649,0,0,0-.45-.282,3.291,3.291,0,0,0-.744-.03l-.7.024v2.5c0,.216,0,.405-.006.57a3.272,3.272,0,0,1-.03.4l2.064-.025a2.21,2.21,0,0,0,.84-.173,1.219,1.219,0,0,0,.588-.558,2.271,2.271,0,0,0,.216-1.08h.529l-.073,2.435h-6.239v-.527a.992.992,0,0,0,.569-.168.69.69,0,0,0,.223-.432,4.725,4.725,0,0,0,.047-.732V742.5q0-.264.012-.51c.008-.164.016-.306.024-.427-.136.009-.284.017-.444.025s-.3.015-.431.023v-.659h5.855l.06,2.172h-.528a2,2,0,0,0-.222-1.044,1.078,1.078,0,0,0-.576-.48,2.135,2.135,0,0,0-.762-.108l-.84.024a1.034,1.034,0,0,0-.564.126.611.611,0,0,0-.252.408,3.817,3.817,0,0,0-.06.761V744.7h1.98l-.072-1.032h.66v2.651Z" fill="#fff"/>
          <path id="Path_1888" data-name="Path 1888" d="M-533.379,749.548a4.521,4.521,0,0,1-1.95-.384,3.6,3.6,0,0,1-1.314-1.026,4.371,4.371,0,0,1-.744-1.422,5.287,5.287,0,0,1-.24-1.561,4.812,4.812,0,0,1,.258-1.529,4.529,4.529,0,0,1,.78-1.422,3.9,3.9,0,0,1,1.308-1.044,4.045,4.045,0,0,1,1.842-.4,4.237,4.237,0,0,1,1.9.4,3.781,3.781,0,0,1,1.314,1.05,4.7,4.7,0,0,1,.774,1.422,4.757,4.757,0,0,1,.258,1.523,4.794,4.794,0,0,1-.258,1.519,4.623,4.623,0,0,1-.78,1.428,3.885,3.885,0,0,1-1.3,1.049A4.023,4.023,0,0,1-533.379,749.548Zm.06-.624a2.257,2.257,0,0,0,1.206-.313,2.565,2.565,0,0,0,.84-.834,3.87,3.87,0,0,0,.486-1.151,5.2,5.2,0,0,0,.156-1.254,6.034,6.034,0,0,0-.18-1.482,4.312,4.312,0,0,0-.546-1.285,2.827,2.827,0,0,0-.906-.9,2.336,2.336,0,0,0-1.248-.33,2.223,2.223,0,0,0-1.212.324,2.6,2.6,0,0,0-.84.846,4.1,4.1,0,0,0-.486,1.151,5.079,5.079,0,0,0-.162,1.267,5.631,5.631,0,0,0,.168,1.32,4.825,4.825,0,0,0,.516,1.3,2.952,2.952,0,0,0,.894.972A2.278,2.278,0,0,0-533.319,748.924Z" fill="#fff"/>
          <path id="Path_1889" data-name="Path 1889" d="M-528.182,748.828a1,1,0,0,0,.57-.168.689.689,0,0,0,.222-.432,4.583,4.583,0,0,0,.048-.732V742.5c0-.176,0-.346.011-.51s.017-.306.025-.427c-.136.009-.284.017-.444.025s-.3.015-.432.023v-.659c.472-.008.952-.015,1.44-.018s.984-.006,1.488-.006a5.9,5.9,0,0,1,1.914.27,2.528,2.528,0,0,1,1.212.816,2.227,2.227,0,0,1,.438,1.374,2.648,2.648,0,0,1-.168.965,2.491,2.491,0,0,1-.612.924,3.152,3.152,0,0,1-1.17.691,5.6,5.6,0,0,1-1.854.263,2.445,2.445,0,0,1-.27.013c-.1,0-.2,0-.306-.013v1.513q0,.324-.006.582a3.568,3.568,0,0,1-.03.414c.111-.009.231-.016.359-.024s.254-.014.379-.018.238-.011.342-.018v.671h-3.156Zm2.112-3.228c.135.016.254.026.354.03s.217.006.354.006a2.68,2.68,0,0,0,1.188-.252,1.883,1.883,0,0,0,.8-.733,2.168,2.168,0,0,0,.287-1.139,2.388,2.388,0,0,0-.173-.966,1.489,1.489,0,0,0-.48-.612,1.992,1.992,0,0,0-.7-.319,3.61,3.61,0,0,0-.84-.095.794.794,0,0,0-.528.144.678.678,0,0,0-.216.42,4.261,4.261,0,0,0-.048.708Z" fill="#fff"/>
          <path id="Path_1890" data-name="Path 1890" d="M-516.687,746.319a1.409,1.409,0,0,0-.149-.743.653.653,0,0,0-.451-.282,3.291,3.291,0,0,0-.744-.03l-.7.024v2.5c0,.216,0,.405-.005.57a3.46,3.46,0,0,1-.031.4l2.064-.025a2.216,2.216,0,0,0,.841-.173,1.222,1.222,0,0,0,.587-.558,2.259,2.259,0,0,0,.216-1.08h.529l-.073,2.435h-6.239v-.527a.992.992,0,0,0,.569-.168.69.69,0,0,0,.223-.432A4.725,4.725,0,0,0-520,747.5V742.5q0-.264.012-.51c.008-.164.016-.306.025-.427-.137.009-.285.017-.445.025s-.3.015-.431.023v-.659h5.856l.059,2.172h-.528a2,2,0,0,0-.222-1.044,1.078,1.078,0,0,0-.576-.48,2.135,2.135,0,0,0-.762-.108l-.84.024a1.033,1.033,0,0,0-.564.126.619.619,0,0,0-.252.408,3.822,3.822,0,0,0-.06.761V744.7h1.98l-.072-1.032h.66v2.651Z" fill="#fff"/>
          <path id="Path_1891" data-name="Path 1891" d="M-513.362,749.355v-.527a1,1,0,0,0,.57-.168.694.694,0,0,0,.222-.432,4.708,4.708,0,0,0,.048-.732V742.5c0-.176,0-.346.011-.51s.016-.306.025-.427c-.137.009-.285.017-.445.025s-.3.015-.431.023v-.659c.487-.008.979-.015,1.475-.018s1,0,1.5.005a5.657,5.657,0,0,1,1.861.259,2.22,2.22,0,0,1,1.1.762,2.051,2.051,0,0,1,.354,1.271,2.228,2.228,0,0,1-.192.954,2.15,2.15,0,0,1-.684.847,3.361,3.361,0,0,1-1.32.564,1.548,1.548,0,0,1,.433.4c.128.168.259.356.4.564l.732,1.128c.151.24.292.444.419.612a1.436,1.436,0,0,0,.433.389,1.121,1.121,0,0,0,.575.139v.527h-1.668a3.23,3.23,0,0,1-.533-.569q-.223-.306-.474-.69l-.829-1.344c-.1-.16-.213-.332-.33-.517a2.334,2.334,0,0,0-.378-.467h-.755v1.98q0,.324-.006.582a3.528,3.528,0,0,1-.031.414c.1-.009.2-.015.307-.018s.215-.01.323-.018.2-.013.282-.013v.66Zm2.807-4.175a3.033,3.033,0,0,0,1.128-.21,1.5,1.5,0,0,0,.72-.613,2.036,2.036,0,0,0,.252-1.073,2.086,2.086,0,0,0-.144-.828,1.366,1.366,0,0,0-.407-.546,1.645,1.645,0,0,0-.631-.3,3.334,3.334,0,0,0-.785-.089.862.862,0,0,0-.558.144.665.665,0,0,0-.223.42,4.393,4.393,0,0,0-.047.708v2.352c.12.007.233.018.341.03A2.061,2.061,0,0,0-510.555,745.18Z" fill="#fff"/>
          <path id="Path_1892" data-name="Path 1892" d="M-505.875,749.355v-.54a.747.747,0,0,0,.552-.191A1.534,1.534,0,0,0-505,748.1q.132-.33.288-.739l2.424-6.635h.48l2.628,6.732q.1.227.216.618a2.025,2.025,0,0,1,.108.666q.2-.024.4-.03c.132,0,.258-.01.378-.019v.66h-2.916v-.527a.721.721,0,0,0,.558-.186.554.554,0,0,0,.108-.426,2.115,2.115,0,0,0-.126-.5l-.36-.973-2.94.073-.348,1.043q-.072.242-.156.457c-.056.144-.112.284-.168.419.144-.015.3-.025.462-.029s.31-.011.438-.018v.671Zm2.34-3.191h2.52l-.756-2.028c-.1-.264-.188-.527-.276-.786s-.168-.51-.24-.75h-.012q-.1.3-.216.66t-.276.78Z" fill="#fff"/>
          <path id="Path_1893" data-name="Path 1893" d="M-600.632,763.756v-.528a.969.969,0,0,0,.564-.168.705.705,0,0,0,.216-.438,4.614,4.614,0,0,0,.048-.726l.012-1.26-2.136-3.361a7.825,7.825,0,0,1-.4-.744,1.83,1.83,0,0,1-.174-.54c-.128.009-.248.013-.36.013s-.224,0-.336.012v-.661h3.24v.529a1.264,1.264,0,0,0-.7.132.415.415,0,0,0-.2.414,1.552,1.552,0,0,0,.24.63l.948,1.511c.064.1.136.208.216.336s.162.259.246.391.162.265.234.4h.024q.108-.227.246-.485t.282-.57l.888-1.693c.04-.079.092-.18.156-.3s.134-.241.21-.366a1.722,1.722,0,0,1,.234-.306c-.144.008-.3.015-.474.019s-.326.01-.462.018v-.661h2.508v.529a1.417,1.417,0,0,0-.882.389,4.5,4.5,0,0,0-.75,1.075q-.4.756-.78,1.482t-.744,1.422c0,.128,0,.292-.006.491s-.006.4-.006.6v.8c0,.216,0,.411-.006.582a3.37,3.37,0,0,1-.03.415c.16-.016.33-.026.51-.031s.338-.009.474-.017v.66Z" fill="#fff"/>
          <path id="Path_1894" data-name="Path 1894" d="M-590.948,763.947a4.521,4.521,0,0,1-1.95-.384,3.582,3.582,0,0,1-1.314-1.025,4.365,4.365,0,0,1-.744-1.423,5.267,5.267,0,0,1-.24-1.559,4.828,4.828,0,0,1,.258-1.531,4.535,4.535,0,0,1,.78-1.421,3.9,3.9,0,0,1,1.308-1.044,4.045,4.045,0,0,1,1.842-.4,4.237,4.237,0,0,1,1.9.4,3.789,3.789,0,0,1,1.314,1.049,4.721,4.721,0,0,1,.774,1.422,4.774,4.774,0,0,1,.258,1.525,4.773,4.773,0,0,1-.258,1.517,4.619,4.619,0,0,1-.78,1.429,3.9,3.9,0,0,1-1.3,1.05A4.049,4.049,0,0,1-590.948,763.947Zm.06-.624a2.265,2.265,0,0,0,1.206-.311,2.593,2.593,0,0,0,.84-.834,3.9,3.9,0,0,0,.486-1.153,5.2,5.2,0,0,0,.156-1.254,6.038,6.038,0,0,0-.18-1.481,4.293,4.293,0,0,0-.546-1.284,2.833,2.833,0,0,0-.906-.9,2.354,2.354,0,0,0-1.248-.33,2.232,2.232,0,0,0-1.212.325,2.609,2.609,0,0,0-.84.845,4.128,4.128,0,0,0-.486,1.153,5.055,5.055,0,0,0-.162,1.265,5.64,5.64,0,0,0,.168,1.321,4.818,4.818,0,0,0,.516,1.295,2.924,2.924,0,0,0,.894.972A2.278,2.278,0,0,0-590.888,763.323Z" fill="#fff"/>
          <path id="Path_1895" data-name="Path 1895" d="M-583.04,755.884a.886.886,0,0,0-.528.132.63.63,0,0,0-.24.353,1.919,1.919,0,0,0-.06.5v3.109a6.738,6.738,0,0,0,.114,1.29,3.074,3.074,0,0,0,.372,1.007,1.8,1.8,0,0,0,.708.666,2.38,2.38,0,0,0,1.1.252,2.263,2.263,0,0,0,1.32-.359,2.16,2.16,0,0,0,.774-1.032,4.625,4.625,0,0,0,.27-1.6l.024-3.3c0-.175,0-.345.012-.509s.016-.306.024-.426l-.444.023-.432.025v-.661h2.424v.529a.935.935,0,0,0-.576.162.689.689,0,0,0-.228.432,4.568,4.568,0,0,0-.048.738l-.012,2.855a5.89,5.89,0,0,1-.2,1.578,3.492,3.492,0,0,1-.6,1.231,2.639,2.639,0,0,1-1.02.792,3.569,3.569,0,0,1-1.458.275,4.435,4.435,0,0,1-1.632-.263,2.375,2.375,0,0,1-1.05-.787,3.292,3.292,0,0,1-.558-1.284,8.215,8.215,0,0,1-.168-1.758v-2.591q0-.324.018-.708t.03-.588c-.136.008-.284.013-.444.017s-.3.011-.432.019v-.649h2.94Z" fill="#fff"/>
          <path id="Path_1896" data-name="Path 1896" d="M-570.128,763.924-574.592,758q-.132-.156-.252-.324c-.08-.112-.164-.229-.252-.349h-.012l.036,4.668c0,.2,0,.4-.006.6s-.014.384-.03.552c.136-.016.286-.026.45-.031s.306-.009.426-.017v.66h-2.376v-.528a.834.834,0,0,0,.51-.132.671.671,0,0,0,.24-.348,1.734,1.734,0,0,0,.066-.505v-5.855q0-.24.012-.42c-.128.008-.27.015-.426.023l-.414.025v-.661h1.584l4.224,5.556q.2.266.366.492c.108.153.214.3.318.433h.012l.012-4.933c0-.175,0-.345.012-.509s.016-.306.024-.426l-.456.023-.42.025v-.661h2.376v.529a.885.885,0,0,0-.558.162.678.678,0,0,0-.216.432,5.205,5.205,0,0,0-.042.738l-.012,6.708Z" fill="#fff"/>
          <path id="Path_1897" data-name="Path 1897" d="M-563.564,763.947a4.263,4.263,0,0,1-2.148-.527,3.628,3.628,0,0,1-1.428-1.482,4.7,4.7,0,0,1-.5-2.226,5.355,5.355,0,0,1,.258-1.645,4.619,4.619,0,0,1,.78-1.463,3.778,3.778,0,0,1,1.308-1.05,4.068,4.068,0,0,1,1.83-.39,5.146,5.146,0,0,1,.828.071,5.148,5.148,0,0,1,.846.216,3.989,3.989,0,0,1,.75.349l-.048-.552h.744v2.76h-.552a2.471,2.471,0,0,0-.4-1.218,2.229,2.229,0,0,0-.876-.757,2.681,2.681,0,0,0-1.182-.258,2.4,2.4,0,0,0-1.158.283,2.847,2.847,0,0,0-.906.78,3.707,3.707,0,0,0-.594,1.17,4.8,4.8,0,0,0-.21,1.439,4.953,4.953,0,0,0,.366,1.962,3.172,3.172,0,0,0,1.038,1.351,2.589,2.589,0,0,0,1.572.492,4.076,4.076,0,0,0,.63-.055,4.266,4.266,0,0,0,.684-.168,2.634,2.634,0,0,0,.618-.294v-1.343c0-.2,0-.4.006-.594s.006-.378.006-.546c-.128.008-.272.016-.432.023s-.3.017-.42.025v-.66h2.868v.528a.745.745,0,0,0-.462.132.756.756,0,0,0-.252.33,1.6,1.6,0,0,0-.1.42,3.6,3.6,0,0,0-.024.414v1.872h-.312a2.589,2.589,0,0,0-.588.078,6.457,6.457,0,0,0-.756.233,5.176,5.176,0,0,1-.852.216A5.263,5.263,0,0,1-563.564,763.947Z" fill="#fff"/>
          <path id="Path_1898" data-name="Path 1898" d="M-549,757.947a4.074,4.074,0,0,0-.155-1.139,1.264,1.264,0,0,0-.474-.684,1.519,1.519,0,0,0-.907-.217h-.863l-.013,6.24c0,.216,0,.411-.006.582a3.425,3.425,0,0,1-.029.415c.152-.016.318-.026.5-.031s.342-.009.486-.017v.66h-3.048v-.528a.974.974,0,0,0,.564-.168.71.71,0,0,0,.215-.438,4.614,4.614,0,0,0,.048-.726V755.92l-1.007.012a1.2,1.2,0,0,0-1.068.492,2.738,2.738,0,0,0-.336,1.523h-.564l.072-2.592h7.08l.071,2.592Z" fill="#fff"/>
          <path id="Path_1899" data-name="Path 1899" d="M-548.625,763.756v-.54a.75.75,0,0,0,.553-.193,1.5,1.5,0,0,0,.323-.521c.088-.221.185-.466.289-.738l2.423-6.636h.481l2.628,6.731q.1.23.216.619a2.049,2.049,0,0,1,.108.666c.136-.016.27-.026.4-.031s.258-.009.378-.017v.66h-2.916v-.528a.72.72,0,0,0,.557-.186.556.556,0,0,0,.109-.427,2.115,2.115,0,0,0-.126-.5l-.361-.971-2.939.072-.348,1.044c-.048.16-.1.311-.156.456s-.113.284-.168.42c.144-.017.3-.027.462-.03s.31-.01.438-.018v.672Zm2.341-3.193h2.52l-.757-2.028c-.1-.264-.187-.525-.275-.785s-.168-.511-.241-.75h-.011c-.064.2-.137.42-.216.659s-.173.5-.277.78Z" fill="#fff"/>
          <path id="Path_1900" data-name="Path 1900" d="M-540.272,763.756v-.528a1,1,0,0,0,.57-.168.685.685,0,0,0,.222-.432,4.6,4.6,0,0,0,.048-.732V756.9c0-.175,0-.345.012-.509s.016-.306.024-.426l-.444.023-.432.025v-.661h2.952v.529a.913.913,0,0,0-.564.162.684.684,0,0,0-.228.432,4.568,4.568,0,0,0-.048.738v4.968c0,.215,0,.406-.006.57a3.222,3.222,0,0,1-.03.4l2.028-.023a1.434,1.434,0,0,0,1.14-.486,2.332,2.332,0,0,0,.4-1.506h.54l-.072,2.616Z" fill="#fff"/>
          <path id="Path_1901" data-name="Path 1901" d="M-529.076,760.72a1.4,1.4,0,0,0-.15-.744.652.652,0,0,0-.45-.283,3.241,3.241,0,0,0-.744-.029l-.7.024v2.5c0,.215,0,.406-.006.57a3.222,3.222,0,0,1-.03.4l2.064-.023a2.249,2.249,0,0,0,.84-.174,1.217,1.217,0,0,0,.588-.559,2.266,2.266,0,0,0,.216-1.08h.528l-.072,2.437h-6.24v-.528a1,1,0,0,0,.57-.168.685.685,0,0,0,.222-.432,4.6,4.6,0,0,0,.048-.732V756.9c0-.175,0-.345.012-.509s.016-.306.024-.426l-.444.023-.432.025v-.661h5.856l.059,2.172h-.527a2.008,2.008,0,0,0-.223-1.044,1.07,1.07,0,0,0-.575-.479,2.161,2.161,0,0,0-.762-.108l-.84.024a1.033,1.033,0,0,0-.564.126.614.614,0,0,0-.252.408,3.827,3.827,0,0,0-.06.762V759.1h1.98l-.072-1.033h.66v2.653Z" fill="#fff"/>
          <path id="Path_1902" data-name="Path 1902" d="M-519.248,763.924-523.712,758q-.132-.156-.252-.324c-.08-.112-.164-.229-.252-.349h-.012l.036,4.668c0,.2,0,.4-.006.6s-.014.384-.03.552c.136-.016.286-.026.45-.031s.306-.009.426-.017v.66h-2.376v-.528a.834.834,0,0,0,.51-.132.677.677,0,0,0,.24-.348,1.732,1.732,0,0,0,.066-.505v-5.855q0-.24.012-.42c-.128.008-.27.015-.426.023l-.414.025v-.661h1.584l4.224,5.556q.2.266.366.492c.108.153.214.3.318.433h.012l.012-4.933c0-.175,0-.345.012-.509s.016-.306.024-.426l-.456.023-.42.025v-.661h2.376v.529a.885.885,0,0,0-.558.162.678.678,0,0,0-.216.432,5.2,5.2,0,0,0-.042.738l-.012,6.708Z" fill="#fff"/>
          <path id="Path_1903" data-name="Path 1903" d="M-510.3,757.947a4.068,4.068,0,0,0-.156-1.139,1.259,1.259,0,0,0-.474-.684,1.517,1.517,0,0,0-.907-.217h-.863l-.012,6.24c0,.216,0,.411-.006.582a3.587,3.587,0,0,1-.03.415c.152-.016.318-.026.5-.031s.342-.009.486-.017v.66h-3.048v-.528a.969.969,0,0,0,.564-.168.71.71,0,0,0,.216-.438,4.734,4.734,0,0,0,.048-.726V755.92l-1.008.012a1.2,1.2,0,0,0-1.068.492,2.738,2.738,0,0,0-.336,1.523h-.564l.072-2.592h7.08l.072,2.592Z" fill="#fff"/>
          <path id="Path_1904" data-name="Path 1904" d="M-584.732,772.348a3.051,3.051,0,0,0-.312-1.105,2.045,2.045,0,0,0-.7-.786,1.9,1.9,0,0,0-1.1-.281,1.5,1.5,0,0,0-1.068.372,1.189,1.189,0,0,0-.4.9,1.188,1.188,0,0,0,.264.786,2.5,2.5,0,0,0,.713.571q.451.252,1.015.5.456.192.924.431a5.075,5.075,0,0,1,.851.546,2.335,2.335,0,0,1,.613.733,2.094,2.094,0,0,1,.228,1,2.133,2.133,0,0,1-.348,1.2,2.341,2.341,0,0,1-.99.828,3.665,3.665,0,0,1-1.554.3,4.112,4.112,0,0,1-1.086-.157,3.916,3.916,0,0,1-1.038-.444l.06.505h-.732l-.049-2.641h.577a2.19,2.19,0,0,0,.75,1.578,2.393,2.393,0,0,0,1.566.535,1.989,1.989,0,0,0,.828-.168,1.406,1.406,0,0,0,.588-.481,1.251,1.251,0,0,0,.216-.731,1.207,1.207,0,0,0-.295-.828,2.6,2.6,0,0,0-.743-.577c-.3-.16-.614-.311-.942-.456s-.647-.295-.954-.456a4.532,4.532,0,0,1-.834-.551,2.337,2.337,0,0,1-.589-.739,2.2,2.2,0,0,1-.215-1,2.313,2.313,0,0,1,.12-.708,2.067,2.067,0,0,1,.407-.708,2.108,2.108,0,0,1,.787-.546,3.26,3.26,0,0,1,1.253-.21,4.6,4.6,0,0,1,1.027.132,2.868,2.868,0,0,1,1.037.468l-.047-.5h.72v2.689Z" fill="#fff"/>
          <path id="Path_1905" data-name="Path 1905" d="M-582.572,778.155v-.527a1.006,1.006,0,0,0,.57-.168.694.694,0,0,0,.222-.433,4.684,4.684,0,0,0,.048-.731V771.3c0-.176,0-.346.011-.51s.016-.307.025-.427c-.137.009-.284.017-.445.025s-.3.015-.431.023v-.659h2.951v.527a.937.937,0,0,0-.564.162.692.692,0,0,0-.228.433,4.7,4.7,0,0,0-.047.737v1.956h3.972V771.3c0-.176,0-.346.011-.51s.017-.307.024-.427c-.135.009-.283.017-.443.025s-.3.015-.433.023v-.659h2.953v.527a.93.93,0,0,0-.564.162.683.683,0,0,0-.228.433,4.446,4.446,0,0,0-.048.737v4.933c0,.216,0,.41-.007.582a3.4,3.4,0,0,1-.029.414c.135-.017.283-.026.443-.03s.3-.01.433-.019v.66h-2.953v-.527a1,1,0,0,0,.571-.168.684.684,0,0,0,.221-.433,4.441,4.441,0,0,0,.049-.731v-2.1l-3.972.036v2.317q0,.324-.006.582a3.336,3.336,0,0,1-.031.414c.137-.017.287-.026.451-.03s.3-.01.425-.019v.66Z" fill="#fff"/>
          <path id="Path_1906" data-name="Path 1906" d="M-569.109,778.348a4.521,4.521,0,0,1-1.95-.384,3.605,3.605,0,0,1-1.314-1.026,4.371,4.371,0,0,1-.744-1.422,5.287,5.287,0,0,1-.24-1.561,4.807,4.807,0,0,1,.258-1.529,4.527,4.527,0,0,1,.78-1.422,3.9,3.9,0,0,1,1.308-1.044,4.032,4.032,0,0,1,1.842-.4,4.223,4.223,0,0,1,1.9.4,3.78,3.78,0,0,1,1.314,1.05,4.685,4.685,0,0,1,.774,1.422,4.753,4.753,0,0,1,.258,1.523,4.794,4.794,0,0,1-.258,1.519,4.609,4.609,0,0,1-.78,1.427,3.877,3.877,0,0,1-1.3,1.05A4.023,4.023,0,0,1-569.109,778.348Zm.06-.624a2.257,2.257,0,0,0,1.206-.313,2.565,2.565,0,0,0,.84-.834,3.882,3.882,0,0,0,.486-1.151,5.2,5.2,0,0,0,.156-1.254,6.048,6.048,0,0,0-.18-1.483,4.316,4.316,0,0,0-.546-1.284,2.817,2.817,0,0,0-.906-.9,2.336,2.336,0,0,0-1.248-.33,2.223,2.223,0,0,0-1.212.324,2.6,2.6,0,0,0-.84.846,4.092,4.092,0,0,0-.486,1.151,5.077,5.077,0,0,0-.162,1.267,5.631,5.631,0,0,0,.168,1.32,4.837,4.837,0,0,0,.516,1.3,2.953,2.953,0,0,0,.894.972A2.277,2.277,0,0,0-569.049,777.724Z" fill="#fff"/>
          <path id="Path_1907" data-name="Path 1907" d="M-561.272,778.264l-2.136-6.42c-.12-.361-.215-.653-.282-.876a4.2,4.2,0,0,1-.138-.576c-.129.007-.248.011-.36.011s-.225,0-.336.012v-.659h3.12v.527c-.409.017-.666.1-.774.265a1.222,1.222,0,0,0,.018.912q.2.756.42,1.4t.432,1.368c.1.329.194.634.294.918s.2.615.306.991h.012c.04-.128.086-.281.138-.456s.106-.359.162-.546.108-.361.156-.517.084-.273.108-.353q.288-.914.569-1.789c.188-.583.358-1.112.511-1.583s.268-.856.348-1.153h.623c.081.3.186.643.319,1.038s.265.8.4,1.225.268.823.4,1.212.235.725.324,1.013c.1.329.21.659.318.991s.206.674.294,1.025H-556q.108-.359.233-.762c.084-.267.167-.542.247-.822q.24-.7.4-1.2t.27-.876c.073-.248.139-.473.2-.673s.122-.395.186-.588c.048-.151.1-.313.168-.485a2.05,2.05,0,0,1,.239-.462c-.151.008-.314.014-.485.017s-.327.01-.462.018v-.659h2.52v.527a1.533,1.533,0,0,0-.6.168,1.141,1.141,0,0,0-.413.462,7.1,7.1,0,0,0-.408.979q-.528,1.62-1.038,3.2t-1.05,3.168h-.6l-1.68-4.909c-.088-.24-.166-.477-.234-.713s-.135-.466-.2-.691c-.056.225-.116.446-.18.666s-.132.443-.2.666l-1.6,4.981Z" fill="#fff"/>
          <path id="Path_1908" data-name="Path 1908" d="M-545.7,772.432a2.649,2.649,0,0,0-.744-1.662,2.263,2.263,0,0,0-1.6-.594,2.46,2.46,0,0,0-1.152.275,2.762,2.762,0,0,0-.912.775,3.688,3.688,0,0,0-.594,1.175,5,5,0,0,0-.21,1.483,4.638,4.638,0,0,0,.384,1.937,3.12,3.12,0,0,0,1.062,1.315,2.657,2.657,0,0,0,1.542.468,3.431,3.431,0,0,0,1.518-.367,3.323,3.323,0,0,0,1.242-1.038l.4.336a4.45,4.45,0,0,1-1.152,1.141,3.859,3.859,0,0,1-1.218.534,4.99,4.99,0,0,1-1.1.138,4.16,4.16,0,0,1-1.656-.325,3.806,3.806,0,0,1-1.3-.906,4.079,4.079,0,0,1-.84-1.355,4.68,4.68,0,0,1-.294-1.674,5.24,5.24,0,0,1,.264-1.645,4.715,4.715,0,0,1,.78-1.458,3.722,3.722,0,0,1,1.3-1.038,4.121,4.121,0,0,1,1.83-.384,4.284,4.284,0,0,1,1.194.168,4.31,4.31,0,0,1,1.122.516l-.06-.6h.744v2.785Z" fill="#fff"/>
          <path id="Path_1909" data-name="Path 1909" d="M-544.628,778.155v-.54a.748.748,0,0,0,.552-.191,1.529,1.529,0,0,0,.324-.523c.087-.219.184-.465.288-.738l2.423-6.636h.481l2.628,6.733q.1.227.216.618a2.05,2.05,0,0,1,.108.666c.136-.017.27-.026.4-.03s.258-.01.378-.019v.66h-2.916v-.527a.713.713,0,0,0,.557-.187.55.55,0,0,0,.109-.425,2.117,2.117,0,0,0-.126-.5l-.36-.973-2.94.072-.348,1.044c-.048.16-.1.313-.156.456s-.113.285-.168.42c.144-.015.3-.025.462-.029s.31-.011.438-.019v.672Zm2.34-3.191h2.52l-.756-2.028c-.1-.264-.188-.527-.276-.787s-.168-.509-.241-.75h-.011c-.064.2-.136.42-.216.661s-.172.5-.276.78Z" fill="#fff"/>
          <path id="Path_1910" data-name="Path 1910" d="M-531.512,772.348a3.052,3.052,0,0,0-.312-1.105,2.046,2.046,0,0,0-.7-.786,1.9,1.9,0,0,0-1.1-.281,1.5,1.5,0,0,0-1.068.372,1.189,1.189,0,0,0-.4.9,1.187,1.187,0,0,0,.264.786,2.5,2.5,0,0,0,.714.571q.45.252,1.014.5.456.192.924.431a5.084,5.084,0,0,1,.852.546,2.332,2.332,0,0,1,.612.733,2.094,2.094,0,0,1,.228,1,2.134,2.134,0,0,1-.348,1.2,2.341,2.341,0,0,1-.99.828,3.665,3.665,0,0,1-1.554.3,4.118,4.118,0,0,1-1.086-.157,3.93,3.93,0,0,1-1.038-.444l.06.505h-.732l-.048-2.641h.576a2.191,2.191,0,0,0,.75,1.578,2.393,2.393,0,0,0,1.566.535,1.989,1.989,0,0,0,.828-.168,1.406,1.406,0,0,0,.588-.481,1.25,1.25,0,0,0,.216-.731,1.211,1.211,0,0,0-.294-.828,2.62,2.62,0,0,0-.744-.577c-.3-.16-.614-.311-.942-.456s-.646-.295-.954-.456a4.566,4.566,0,0,1-.834-.551,2.334,2.334,0,0,1-.588-.739,2.186,2.186,0,0,1-.216-1,2.311,2.311,0,0,1,.12-.708,2.069,2.069,0,0,1,.408-.708,2.1,2.1,0,0,1,.786-.546,3.263,3.263,0,0,1,1.254-.21,4.594,4.594,0,0,1,1.026.132,2.873,2.873,0,0,1,1.038.468l-.048-.5h.72v2.689Z" fill="#fff"/>
          <path id="Path_1911" data-name="Path 1911" d="M-525.2,775.119a1.394,1.394,0,0,0-.15-.743.651.651,0,0,0-.45-.282,3.346,3.346,0,0,0-.744-.031l-.7.025v2.5c0,.216,0,.405-.006.569a3.3,3.3,0,0,1-.03.4l2.064-.025a2.21,2.21,0,0,0,.84-.174,1.221,1.221,0,0,0,.588-.557,2.271,2.271,0,0,0,.216-1.08h.528l-.072,2.435h-6.24v-.527a1,1,0,0,0,.57-.168.69.69,0,0,0,.222-.433,4.568,4.568,0,0,0,.048-.731V771.3q0-.264.012-.51c.008-.164.016-.307.024-.427-.136.009-.284.017-.444.025s-.3.015-.432.023v-.659h5.856l.059,2.172h-.527a2,2,0,0,0-.223-1.044,1.074,1.074,0,0,0-.575-.481,2.161,2.161,0,0,0-.762-.107l-.84.023a1.033,1.033,0,0,0-.564.126.616.616,0,0,0-.252.409,3.822,3.822,0,0,0-.06.761V773.5h1.98l-.073-1.032h.661v2.651Z" fill="#fff"/>
        </g>
      </g>
    </g>
    <g id="Layer_1" data-name="Layer 1">
      <path id="Path_1912" data-name="Path 1912" d="M-495.105,733.276H-616.122v-7.23h121.017Zm-120.267-.75h119.517V726.8H-615.372Z" fill="#fff"/>
      <path id="Path_1913" data-name="Path 1913" d="M-495.105,726.8H-616.122V691.052h121.017Zm-120.267-.75h119.517V691.8H-615.372Z" fill="#fff"/>
      <path id="Path_1914" data-name="Path 1914" d="M-525.1,691.8h-61.02V665.854l.308-.057,30.2-5.5.068.012,30.442,5.548Zm-60.27-.75h59.52V666.479l-29.76-5.423-29.76,5.423Z" fill="#fff"/>
      <path id="Path_1915" data-name="Path 1915" d="M-585.374,691.8h-16.594v-4.841h.375a9.645,9.645,0,0,0,7.181-2.773c3.748-3.821,3.666-10.345,3.665-10.411l-.007-.382h5.38Zm-15.844-.75h15.094V674.145H-590c-.034,1.506-.4,7.02-3.874,10.565a10.26,10.26,0,0,1-7.345,3Z" fill="#fff"/>
      <path id="Path_1916" data-name="Path 1916" d="M-509.311,691.8h-16.543v-18.35h5.366l-.007.383c0,.064-.083,6.567,3.652,10.375a9.614,9.614,0,0,0,7.157,2.764h.375Zm-15.793-.75h15.043v-3.333a10.224,10.224,0,0,1-7.32-2.987c-3.463-3.533-3.828-9.027-3.862-10.53H-525.1Z" fill="#fff"/>
      <path id="Path_1917" data-name="Path 1917" d="M-537.6,691.206h-.75c0-7.476-7.744-13.558-17.264-13.558s-17.263,6.082-17.263,13.558h-.75c0-7.89,8.081-14.308,18.013-14.308S-537.6,683.316-537.6,691.206Z" fill="#fff"/>
      <rect id="Rectangle_479" data-name="Rectangle 479" width="60.27" height="0.75" transform="translate(-585.749 669.621)" fill="#fff"/>
      <g id="Group_1235" data-name="Group 1235">
        <path id="Path_1918" data-name="Path 1918" d="M-582.612,713.562h-9.841a1.693,1.693,0,0,1-.744.456l-.888,1.056h6.96c.1-.1.7-.864.865-.864a9.347,9.347,0,0,1,1.776,1.128c.144.1.5.36.5.528,0,.239-.744.648-.888.744-1.008,1.944-2.16,4.128-4.488,4.609a16.292,16.292,0,0,1-2.113.288,4.17,4.17,0,0,0-.288-1.441c-.336-.96-1.56-1.007-1.56-1.344a.134.134,0,0,1,.144-.119,2.659,2.659,0,0,1,.6.119,11.451,11.451,0,0,0,2.208.36c1.8,0,2.689-1.728,3.313-3.168h-7.321c-.144.144-.768.936-1.056.936-.168,0-.36-.264-.456-.36a11.652,11.652,0,0,1-1.152-1.536c0-.144.888-.385.984-.408l.768-.984h-4.7l-.432.335-.7-1.295a12.689,12.689,0,0,0,1.3.12h15.1c.072-.1.768-.84.936-.84.24,0,1.44,1.151,1.44,1.464C-582.348,713.489-582.468,713.562-582.612,713.562Zm-2.016-11.906v7.465c0,.7.072,1.416.12,2.112a17.228,17.228,0,0,1-2.208.481l.1-1.584.024-8.858h-2.713c.529.529,1.1,1.105,1.1,1.321,0,.143-.095.192-.215.192-.96.048-1.513.264-2.329.336a1.58,1.58,0,0,1,.289.408c0,.144-.289.36-.409.432v1.728h2.328c.145-.144.457-.5.7-.5s1.031.936,1.031,1.128c0,.168-.215.168-.312.168h-3.744v2.376a6.371,6.371,0,0,0,.1.936,13.022,13.022,0,0,1-1.9.312c.024-.431.1-.912.1-1.368v-1.032a12.947,12.947,0,0,1-2.736,1.681,2.119,2.119,0,0,1-.6.239.1.1,0,0,1-.1-.1c0-.12.264-.36.336-.456a19.189,19.189,0,0,0,2.256-2.592h-1.728l-.432.336-.7-1.224c.432.024.864.1,1.3.1h2.4v-1.536a5.576,5.576,0,0,0-.1-.888c-.6.024-2.736.072-3.12,0-.072-.024-.312-.1-.072-.144a32.267,32.267,0,0,0,5.328-1.776c.048,0,.073-.025.12-.073h-5.9a2.886,2.886,0,0,1-.288.265v8.616l.12,1.2c-.648.143-1.464.215-2.112.288.048-.817.119-1.657.119-2.473v-7.128a9.2,9.2,0,0,0-.143-1.633,3.305,3.305,0,0,1-.192-.647c0-.073.048-.1.12-.1a.82.82,0,0,1,.24.049c.552.168,1.656.647,2.064.7a7.268,7.268,0,0,0,1.032.025c.48-.84,1.3-1.561,1.368-2.521a.131.131,0,0,1,.12-.071c.432,0,2.136.96,2.136,1.319,0,.168-.744.313-.864.336-.528.456-1.056.456-1.584.937l7.321-.025c.12-.143.552-.815.816-.815a6.363,6.363,0,0,1,1.536.864c.12.071.5.312.5.48C-584,701.225-584.46,701.513-584.628,701.656Zm-9.649,8.785h3.768a2.7,2.7,0,0,1,1.3-.864c.527-.072,1.848,1.441,1.584,1.7h-6.529l-.552.313-1.032-1.441Zm.432-4.848c-1.008,0-.648-1.008-1.032-1.584a1.371,1.371,0,0,1-.312-.5.11.11,0,0,1,.12-.1c.384.1.792.264,1.176.384s.84.36.84.84C-593.053,705.137-593.245,705.593-593.845,705.593Zm5.5-1.153c-.48.1-1.967.937-2.279.937-.073,0-.1-.048-.1-.12a.183.183,0,0,1,.048-.12c.312-.384.624-.744.888-1.128a2.94,2.94,0,0,0,.409-.7.468.468,0,0,1,.047-.192c.265-.024,1.705.816,1.705,1.08C-587.628,704.489-588.181,704.417-588.349,704.44Zm.12,5.3c-.7,0-.863-.7-1.08-1.224a5.718,5.718,0,0,0-.912-1.272c-.048-.072-.407-.24-.407-.336.024-.1-.073-.168,0-.168a3.876,3.876,0,0,1,1.7.384,1.941,1.941,0,0,1,1.511,1.656A.906.906,0,0,1-588.229,709.745Z" fill="#fff"/>
        <path id="Path_1919" data-name="Path 1919" d="M-571.189,703.625v-3.6a3.963,3.963,0,0,0-.072-.767,3.939,3.939,0,0,1-.216-.624c0-.12.072-.145.168-.145.36,0,2.5.529,2.5.912,0,.216-.528.481-.672.577v1.295h1.968c.072-.072.984-1.152,1.152-1.152a4.714,4.714,0,0,1,1.368,1.7c0,.169-.239.265-.383.265h-4.1v1.536h2.545c.1-.12.6-.84.792-.84s1.655,1.248,1.655,1.56-.407.36-.624.384a2.6,2.6,0,0,0-.7.216,2.6,2.6,0,0,0-.528.36c-.1.12-.576.7-.768.7-.072,0-.1-.072-.1-.144a13.282,13.282,0,0,1,.384-1.464h-3.24c.168.072,1.032.336,1.032.576,0,.216-.288.336-.456.408v.769l.48-.1c.072-.144.456-.864.624-.864.192,0,1.224.864,1.224,1.1,0,.144-.168.192-.288.216l-2.04.433v.719c0,.432.816.432,1.08.432,1.009,0,1.488-.168,1.848-1.151.072-.193.312-1.033.528-1.033.144,0,.144.168.144.241,0,.263-.024.5-.024.743,0,.6.312.864.792,1.176-.095.192-.192.384-.312.577-.551.935-2.52.839-3.432.839-.384,0-1.848,0-2.088-.36a1.41,1.41,0,0,1-.24-.815V707.2l-1.176.288-.264.288-.864-.792c-.1,3.937-.072,9.241-2.4,12.553-.071.072-.719,1.08-.888,1.08-.1,0-.1-.12-.1-.168a8.157,8.157,0,0,1,.312-1.008,13.715,13.715,0,0,0,.671-2.64,73.183,73.183,0,0,0,.624-11.233,9.457,9.457,0,0,0-.071-1.848,5.576,5.576,0,0,1-.217-1.033c0-.095.049-.12.12-.12a12.505,12.505,0,0,1,2.329,1.033Zm.936,9.337a23.793,23.793,0,0,1-2.592.983,4.511,4.511,0,0,1-.768.217c-.12,0-.12-.049-.12-.144a.249.249,0,0,1,.144-.192,9.813,9.813,0,0,0,3.36-2.713h-2.16l-.312.313-.72-1.225c.36.025.744.12,1.08.12h5.448c.1-.12.72-.935.913-.935a3.6,3.6,0,0,1,1.224,1.487c0,.168-.288.24-.409.24h-4.08c.264.168,1.152.624,1.152.937,0,.168-.576.216-.672.216l-1.008.456a4.936,4.936,0,0,1,1.512,1.391,9.712,9.712,0,0,0,1.416-1.559c.073-.073.312-.552.36-.552.1,0,1.512,1.3,1.512,1.584s-.6.24-.768.216a17.456,17.456,0,0,1-2.208.887l.24.745a3.826,3.826,0,0,1,2.953.84,1.3,1.3,0,0,1,.456.936.9.9,0,0,1-.792.936c-.744,0-1.105-1.224-1.585-1.752a2.336,2.336,0,0,0-.936-.6,13.738,13.738,0,0,1,.168,1.68c0,2.136-.648,3.169-2.736,3.72-.24-.7-.408-1.248-1.176-1.511-.144-.049-.816-.217-.816-.433,0-.1.048-.12.144-.12.336.024.672.048,1.008.048,1.824,0,1.848-1.1,1.944-2.592a20.423,20.423,0,0,1-4.632,2.017,3.989,3.989,0,0,1-.72.168.135.135,0,0,1-.144-.121c0-.168.648-.456.768-.528a17.423,17.423,0,0,0,4.512-3.433l-.144-.288a15.037,15.037,0,0,1-3.576,1.777,4.221,4.221,0,0,1-.72.24.155.155,0,0,1-.144-.144.209.209,0,0,1,.144-.169,16.964,16.964,0,0,0,3.672-3Zm-.936-6.529v-1.008c0-.336-.072-.7-.1-1.032h-1.752l-.384.336-.048,1.992A8.141,8.141,0,0,0-571.189,706.433Zm8.761,6.337c0,.671.072,1.368.1,2.016-.6.264-1.249.384-1.849.6.025-.744.1-1.512.1-2.256v-9.505a7.167,7.167,0,0,0-.289-1.225c0-.1.073-.143.168-.143.409,0,2.4.576,2.4.96,0,.168-.5.48-.624.552Zm3.336,6.84c0,1.441-1.632,1.777-2.76,1.848-.072-.936-.216-1.319-1.1-1.7-.119-.048-.887-.288-.887-.432a.2.2,0,0,1,.168-.168,16.163,16.163,0,0,0,1.848.144c.648,0,.912-.12.912-.84V701.1a4.311,4.311,0,0,0-.312-1.463.642.642,0,0,1-.072-.288.129.129,0,0,1,.12-.121c.432,0,2.856.6,2.856.96,0,.216-.624.577-.768.672Z" fill="#fff"/>
        <path id="Path_1920" data-name="Path 1920" d="M-552.877,719.059a3.293,3.293,0,0,1,.191-.577,23.865,23.865,0,0,0,1.033-3.625,5.747,5.747,0,0,0,.192-1.08c0-.12-.024-.215-.024-.311,0-.072.024-.145.095-.145a10.981,10.981,0,0,1,1.8.673c.144.071.528.239.528.456,0,.239-.384.407-.552.48a17.562,17.562,0,0,1-2.737,3.864c-.071.1-.312.408-.432.408C-552.877,719.154-552.877,719.106-552.877,719.059Zm1.728-6.457-.433.312-.815-1.248c.456.048.983.144,1.439.144h2.185V710.8a5.3,5.3,0,0,0-.144-1.368h-2.568l-.432.311-.816-1.248c.456.048.983.145,1.44.145h3.744a25.942,25.942,0,0,0,1.08-3.769,7.4,7.4,0,0,1,.12-.769,6.53,6.53,0,0,1,2.088,1.033.56.56,0,0,1,.24.408c0,.24-.5.312-.672.336-.72.936-1.464,1.872-2.208,2.761h1.608c.1-.121.744-1.009,1.008-1.009a.669.669,0,0,1,.432.288c.144.168.984,1.057.984,1.3,0,.191-.288.216-.408.216h-3.7c.168.095.552.288.552.479s-.36.385-.48.456v1.441h1.08c.072-.073.864-1.033,1.056-1.033.144,0,.36.241.432.336.168.168,1.008.985,1.008,1.3,0,.145-.12.193-.24.193H-546.9v4.656a17.469,17.469,0,0,0,.216,2.713l-2.328.7a19.789,19.789,0,0,0,.24-3.1V712.6Zm6.528-10.49c.144,0,.384.265.5.361.1.12.96.936.96,1.248a.24.24,0,0,1-.239.24h-7.969l-.432.288-.816-1.225c.456.025.96.121,1.44.121h5.472C-545.653,703.1-544.861,702.112-544.621,702.112Zm-6.5,2.209a5.712,5.712,0,0,1,1.7.936,1.965,1.965,0,0,1,.864,1.056,3.017,3.017,0,0,1,.12.792.964.964,0,0,1-.912,1.008c-1.3,0-.792-2.016-1.368-2.88a4.28,4.28,0,0,1-.5-.84C-551.221,704.345-551.173,704.321-551.125,704.321Zm1.032-5.76a8.311,8.311,0,0,1,1.32.528,2.664,2.664,0,0,1,1.92,2.5.948.948,0,0,1-.96.96,1.06,1.06,0,0,1-.84-.408c-.456-.624-.336-1.7-.792-2.376-.24-.336-.48-.624-.744-.937-.024-.048-.1-.095-.1-.143C-550.213,698.584-550.166,698.561-550.093,698.561Zm3.936,15.457a6.4,6.4,0,0,1,1.224.816,2.248,2.248,0,0,1,1.008,1.848.967.967,0,0,1-.888,1.032.937.937,0,0,1-.84-.528c-.1-.24-.12-1.656-.264-2.161-.048-.215-.36-.815-.36-.912C-546.229,714.018-546.181,714.018-546.157,714.018Zm9.409-6.1c.12-.144.816-1.032,1.056-1.032a4.442,4.442,0,0,1,1.44,1.608.253.253,0,0,1-.264.265h-1.848l-.384.456v8.616c0,.888.1,1.824.144,2.712a7.109,7.109,0,0,1-2.209.553c.049-.96.168-1.945.168-2.905.049-3.144,0-6.289,0-9.432h-1.775c-.121,3.647.1,7.3-2.617,10.176a10.624,10.624,0,0,1-2.088,1.8,1.338,1.338,0,0,1-.48.264c-.048,0-.12-.023-.12-.1,0-.1,1.2-1.464,1.368-1.656a7.533,7.533,0,0,0,1.1-2.448,29.378,29.378,0,0,0,.816-8.328v-4.153a14.392,14.392,0,0,0-.1-2.688,2.036,2.036,0,0,0-.216-.72.579.579,0,0,1-.12-.337c0-.119.024-.191.144-.191a11.16,11.16,0,0,1,2.593.912c1.031-.408,1.752-.744,2.76-1.248a3.31,3.31,0,0,0,.624-.385c.048-.048.192-.168.264-.168.12,0,.192.217.264.288a11.669,11.669,0,0,1,1.32,2.233c0,.095-.144.144-.24.144a5.334,5.334,0,0,1-.6-.072,5.257,5.257,0,0,0-.6-.048c-1.248,0-2.5.1-3.721.144l-.288.383c-.024,1.777-.024,3.553-.047,5.353Z" fill="#fff"/>
        <path id="Path_1921" data-name="Path 1921" d="M-527.582,704.681l-.335.264-.865-1.2c.529.048,1.1.144,1.633.144h6.528v-2.136c-1.608.071-3.216.143-4.824.143-.48,0-.96,0-1.416-.023-.1,0-.264,0-.264-.144,0-.264.816-.289,1.008-.312,2.016-.288,4.008-.7,6-1.177a27.149,27.149,0,0,0,4.08-1.151,2.031,2.031,0,0,0,.793-.456c.024-.025.192-.193.24-.193.384,0,2.016,2.065,2.016,2.329,0,.288-1.752.312-1.92.312-.336.023-.7.1-1.032.144-1.009.143-2.017.263-3.025.383.24.121.961.481.961.769,0,.24-.409.456-.577.552v.96h5.161c.144-.144.96-1.08,1.2-1.08.336,0,1.32,1.056,1.536,1.272a.537.537,0,0,1,.192.359c0,.193-.216.241-.384.241h-7.081a16,16,0,0,0,4.1,2.808,14.293,14.293,0,0,0,2.952,1.176c.168.048.72.12.72.36s-.7.312-.888.361a2.577,2.577,0,0,0-1.392,1.319,10.824,10.824,0,0,1-5.929-6.024h-.192v1.632c0,.913.072,1.825.121,2.737a10.7,10.7,0,0,1-2.281.431,33.725,33.725,0,0,0,.12-3.48,21.09,21.09,0,0,1-7.608,4.992,2.561,2.561,0,0,1-.6.217.111.111,0,0,1-.1-.12c0-.168.744-.6.888-.721a22.655,22.655,0,0,0,5.641-5.688Zm2.761,6.384-.312.313-.912-1.248c.528.048,1.1.143,1.632.143h6.624c.144-.192.624-.96.936-.96.36,0,1.393.865,1.633,1.056.144.1.384.288.384.481,0,.24-.528.5-.72.624q-.253,1.008-.5,2.015h1.7c.072-.1.744-.935.912-.935.192,0,1.992,1.343,1.992,1.656s-.528.479-.72.576c-.144.527-.24,1.08-.36,1.632a10.12,10.12,0,0,1-1.056,2.88,2.914,2.914,0,0,1-1.392,1.345,12.531,12.531,0,0,1-4.321.671c0-.816.072-1.68-.768-2.112-.192-.1-.912-.36-.912-.624,0-.072.1-.12.168-.12a6.239,6.239,0,0,1,1.08.216,12.354,12.354,0,0,0,2.329.288c1.632,0,2.208-.792,2.616-2.256.216-.816.336-1.608.48-2.448h-1.824c-.12.168-.553.864-.817.864-.336,0-1.776-.984-1.776-1.248,0-.168.577-.553.7-.624.169-.721.312-1.44.432-2.185h-3.72c.264.1,1.344.432,1.344.792,0,.168-.552.481-.648.552-.768,2.713-1.872,5.281-4.248,6.961a11.884,11.884,0,0,1-1.9,1.176A6.456,6.456,0,0,1-527.8,721a.113.113,0,0,1-.12-.119c0-.072.072-.145.144-.193a14.192,14.192,0,0,0,2.28-2.376,14.74,14.74,0,0,0,2.568-5.856,5.419,5.419,0,0,0,.192-1.393Z" fill="#fff"/>
      </g>
    </g>
  </g>
</svg>
