<svg xmlns="http://www.w3.org/2000/svg" width="145.916" height="130" viewBox="0 0 145.916 130"><g transform="translate(-158.084 -1035)"><g transform="translate(636.791 801.287)"><path d="M-414.4,259.646c-.869,0-1.064-.5-1.064-1.26,0-.98.783-1.54,1.2-2.324a3.47,3.47,0,0,0,.448-1.344c0-.112.056-.448.2-.448.421,0,.617,2.716.617,3.136C-413,258.274-413.282,259.646-414.4,259.646Zm4.144-5.964a5.23,5.23,0,0,1,2.491,1.54,2.763,2.763,0,0,1,.589,1.344,1.355,1.355,0,0,1-1.26,1.26c-1.316,0-.84-1.9-1.232-2.772a4.047,4.047,0,0,0-.588-.924v14.924c0,1.148.084,2.3.139,3.444a18.17,18.17,0,0,1-2.464.448c.084-1.148.225-2.52.225-3.64V248.53a4.178,4.178,0,0,0-.28-1.428.825.825,0,0,1-.14-.364c0-.112.084-.112.2-.112.42,0,3.081.784,3.081,1.12,0,.224-.588.7-.756.812Zm3.752,1.036a3.244,3.244,0,0,0-.113-1.036,5.162,5.162,0,0,1-.279-.756c0-.084.084-.084.14-.084a7.33,7.33,0,0,1,1.568.56c.336.14.7.252,1.036.392h1.4v-2.408h-4.537l-.5.364-.953-1.484c.56.028,1.148.112,1.681.112h4.339V247.55a2.3,2.3,0,0,0-.056-.616c-.028-.168-.223-.5-.223-.616,0-.056.2-.056.252-.056a8.206,8.206,0,0,1,1.343.28c.308.056,1.792.392,1.792.728,0,.224-.56.616-.7.728l-.057,2.38h3.3c.42-.392.812-.784,1.232-1.176.308-.028,1.763,1.428,1.876,1.512a.537.537,0,0,1,.2.392c0,.224-.224.28-.42.28H-400.4l-.113,2.408h1.681c.027-.028.839-.98,1.036-.98a15.836,15.836,0,0,1,1.876,1.176c.111.084.307.252.307.392,0,.28-.559.56-.7.672l-.028,10.472c.028-.056.9-.952,1.092-.952a.662.662,0,0,1,.419.252l1.121,1.232a.841.841,0,0,1,.224.476c0,.2-.168.224-.337.224H-407.99l-.505.364-.951-1.484a20.876,20.876,0,0,0,2.94.14ZM-407.6,273a2.876,2.876,0,0,1-.755.42c-.084,0-.112-.056-.112-.14,0-.2.588-.812.728-.952a19.81,19.81,0,0,0,1.259-1.736,11.623,11.623,0,0,0,2.017-3.7,9.61,9.61,0,0,1,2.688,1.316.576.576,0,0,1,.224.364c0,.224-.728.308-.868.336A38.223,38.223,0,0,1-407.6,273Zm8.96-16.324v-1.9h-5.571l-.2.28-.029,1.624Zm0,2.912v-1.9h-5.8v1.9Zm0,3.164V260.6h-5.8v2.128Zm0,3.024v-2.044h-5.8l.029,2.044Zm1.317,6.664a3.617,3.617,0,0,1-.421-.952,8.632,8.632,0,0,0-2.183-3.388c-.084-.056-.421-.308-.421-.42,0-.056.113-.056.14-.056a5.548,5.548,0,0,1,1.177.28c.475.168.951.336,1.4.532a6.3,6.3,0,0,1,1.651,1.176,2.525,2.525,0,0,1,.98,1.932A1.373,1.373,0,0,1-396.258,273,1.49,1.49,0,0,1-397.322,272.442Z" fill="#fff"/><path d="M-413.422,290.362l-.5.364-1.12-1.512c.531.056,1.148.168,1.68.168h3.584v-5.1c-1.6.28-3.193.42-4.788.56-.084,0-.168-.028-.168-.112,0-.28.98-.476,1.2-.56a27.858,27.858,0,0,0,3.389-1.428,17.972,17.972,0,0,0,3.948-2.3c.531-.056,2.38,2.6,2.38,2.744,0,.2-.5.2-.644.2a5.593,5.593,0,0,0-.953.14c-.812.168-1.624.308-2.463.5.252.084,1.036.364,1.036.7s-.365.56-.644.672v3.976h.812c.168-.168,1.091-1.2,1.4-1.2a4.887,4.887,0,0,1,1.792,1.9c0,.224-.309.28-.476.28h-3.528v1.316a8.342,8.342,0,0,1,3.024,2.716,2.949,2.949,0,0,1,.447,1.428,1.375,1.375,0,0,1-1.316,1.428c-1.007,0-1.12-.924-1.2-1.708-.055-.476-.139-.952-.2-1.428a4.553,4.553,0,0,0-.756-1.988v11.088c0,.9.084,1.82.139,2.717a14,14,0,0,1-2.6.588c.056-1.092.169-2.241.169-3.361v-8.064a38.187,38.187,0,0,1-4.7,6.469c-.14.111-.7.811-.868.811-.084,0-.141-.111-.141-.168a7.245,7.245,0,0,1,.673-1.315,45.924,45.924,0,0,0,4.088-10.529Zm10.219,10.892V287.7a14.794,14.794,0,0,0-.111-2.52,3.5,3.5,0,0,1-.252-.616c0-.112.14-.14.252-.14a11.525,11.525,0,0,1,2.688,1.232h3c.111-.168.615-.952.923-.952a1.8,1.8,0,0,1,.644.252l1.2.784c.168.112.5.364.5.588,0,.392-.449.56-.729.728V301.45c0,.756.112,1.54.141,2.3a11.187,11.187,0,0,1-2.52.7l.084-2.3h-3.668v1.737a8.2,8.2,0,0,1-2.3.588C-403.314,303.41-403.2,302.318-403.2,301.254Zm5.825-.084V286.638h-3.08l-.588.392v14.14Z" fill="#fff"/><path d="M-405.946,316.515a8.492,8.492,0,0,0-.168-1.653c-.056-.28-.308-.532-.308-.811,0-.168.055-.2.224-.2.252,0,3.7.7,3.7,1.26,0,.225-.869.784-1.037.9v5.515h.925c.783-1.315,2.6-4.591,2.743-6.16a.219.219,0,0,1,.141-.027,22.138,22.138,0,0,1,2.967,1.315c.113.057.281.168.281.336,0,.309-.812.5-1.009.561-1.316,1.344-2.659,2.687-4,3.975h4.228c.141-.168.644-1.007.953-1.007.644,0,2.436,1.484,2.715,1.9a.844.844,0,0,1,.141.447c0,.729-1.289.672-1.765.729a3.722,3.722,0,0,0-1.847.7,2.07,2.07,0,0,1-.728.475c-.056,0-.056-.055-.056-.112,0-.084.56-1.9.644-2.128H-412.3a4.34,4.34,0,0,1,.028.616,2.1,2.1,0,0,1-1.876,2.212c-.924,0-1.177-.532-1.177-1.4,0-1.065,1.288-1.429,1.653-2.381a7,7,0,0,0,.308-1.371c0-.057.028-.2.112-.2a.3.3,0,0,1,.14.055,14.369,14.369,0,0,1,.644,1.456h6.524Zm0,18.059h-5.069l-.447.448-.869-1.54c.5.029,1.037.113,1.54.113h4.845v-1.4a10.384,10.384,0,0,0-.224-2.044h-2.268v.729a22.894,22.894,0,0,1-2.408.531c.055-.84.168-1.708.168-2.519V326.2a11.681,11.681,0,0,0-.168-1.9,3.114,3.114,0,0,1-.224-.588c0-.141.168-.2.279-.2a23.336,23.336,0,0,1,3.081,1.2h6.047c.168-.225.617-1.036.98-1.036a2.582,2.582,0,0,1,.9.391c.084.057,1.708.9,1.708,1.2,0,.252-.728.7-.867.813v2.575c0,.729.055,1.484.084,2.213a13.927,13.927,0,0,1-2.6.559l.112-1.288h-3.641c.308.113,2.381.7,2.381,1.008,0,.2-.784.7-.9.784V333.6h2.995c.084-.113.925-1.261,1.177-1.261.2,0,.447.252.588.364l1.091,1.036a.871.871,0,0,1,.308.533c0,.223-.14.307-.336.307l-5.823.029v3.555h5.039c.113-.139,1.177-1.483,1.456-1.483.224,0,.617.363.757.5.2.168,1.54,1.2,1.54,1.651,0,.309-.337.336-.532.336h-17.92l-.449.42-.867-1.539c.5.027,1.064.111,1.568.111h6.972Zm-6.133-18.956a11.023,11.023,0,0,1,1.96.729,3.457,3.457,0,0,1,1.96,1.651,3.972,3.972,0,0,1,.365,1.4,1.453,1.453,0,0,1-1.456,1.485c-1.289,0-1.344-1.177-1.457-2.185a4.174,4.174,0,0,0-1.2-2.519c-.055-.057-.363-.336-.363-.42C-412.274,315.646-412.134,315.618-412.079,315.618Zm10.725,13.553V325.7h-6.72l-.364.448v3.025Z" fill="#fff"/><path d="M-363.546,289.824l30.755,19-12.924-48.53c2.4-1.194,2.164-6.865,2.127-7.536l-.035-.6-.524.295c-.6.339-5.746,3.334-5.167,6.059l-4.264,7.2.048-.082-13.058-23.516c2.04-1.744.423-7.185.222-7.827l-.179-.575-.437.415c-.5.475-4.759,4.636-3.531,7.138l-19.345,65.276a1.121,1.121,0,0,0-1.129.716l-.216.578a1.136,1.136,0,0,0,.664,1.458l2.889,1.079a1.137,1.137,0,0,0,.4.072,1.137,1.137,0,0,0,.469-.1,1.122,1.122,0,0,0,.592-.633l.216-.578a1.125,1.125,0,0,0-.031-.867,1.111,1.111,0,0,0-.522-.522l9.689-32.693,14.93,4.73-22.1,37.311a1.126,1.126,0,0,0-.541-.049,1.126,1.126,0,0,0-.729.471l-.35.507a1.136,1.136,0,0,0,.288,1.576l2.538,1.753a1.136,1.136,0,0,0,.642.2,1.136,1.136,0,0,0,.934-.489l.351-.508a1.13,1.13,0,0,0,.181-.848,1.112,1.112,0,0,0-.377-.632Zm-19.812,27.638,34.673-58.538a2.813,2.813,0,0,1,.836.342,5.681,5.681,0,0,1,1.218.875l-15.925,26.571v0h0l-19.12,31.9-.246-.165Zm11.319-58.615,3.7-12.476,12.508,23.148-4.135,6.981-15.69-5.252Zm23.75,5.8,9.172,36.1L-361.5,286.412l7.46-12.447Zm-14.871,24.533,1.236-2.063,24,15.286-9.873-38.86,1.5-2.506L-334,307.2Zm18.843-35.753c.026,1.948-.246,5.5-1.742,6.218a6.543,6.543,0,0,0-1.43-1.039,3.442,3.442,0,0,0-1.132-.433C-348.732,256.538-345.946,254.441-344.317,253.428Zm-9.655,12.951-1.415,2.387-12.652-23.414.832-2.808Zm-12.937-31.266c.5,1.883,1.1,5.394-.172,6.454a6.58,6.58,0,0,0-1.64-.656,3.391,3.391,0,0,0-1.2-.144C-370.431,239.207-368.242,236.494-366.909,235.113Zm-19.769,73.755-.216.578a.379.379,0,0,1-.2.213.384.384,0,0,1-.292.011l-2.888-1.078a.385.385,0,0,1-.225-.494l.215-.578a.381.381,0,0,1,.357-.246l2.2.793.826.309a.381.381,0,0,1,.213.2A.382.382,0,0,1-386.678,308.868Zm-.547-1.416-.16-.057-1.75-.655,19.332-65.231a2.845,2.845,0,0,1,.894.127,5.594,5.594,0,0,1,1.522.623l-.476-.141-.681,2.3-.042-.078-4.175,14.306Zm10.6-33.122.705-2.379,15.564,5.209-1.159,1.957Zm-4.868,45.8-.35.508a.382.382,0,0,1-.533.1l-2.538-1.752a.386.386,0,0,1-.1-.534l.35-.506a.386.386,0,0,1,.247-.159.332.332,0,0,1,.07-.007.385.385,0,0,1,.131.041l1.89,1.274.733.506a.376.376,0,0,1,.158.245A.383.383,0,0,1-381.495,320.125Z" fill="#fff"/><path d="M-430.425,319.071a1.112,1.112,0,0,0-.377.632,1.127,1.127,0,0,0,.182.848l.35.508a1.136,1.136,0,0,0,.934.489,1.136,1.136,0,0,0,.642-.2l2.538-1.753a1.135,1.135,0,0,0,.288-1.576l-.35-.507a1.124,1.124,0,0,0-.729-.471,1.127,1.127,0,0,0-.541.049l-22.1-37.311,14.93-4.73,9.689,32.693a1.111,1.111,0,0,0-.522.522,1.125,1.125,0,0,0-.031.867l.216.578a1.122,1.122,0,0,0,.592.633,1.138,1.138,0,0,0,.47.1,1.135,1.135,0,0,0,.4-.072l2.889-1.079a1.136,1.136,0,0,0,.664-1.458l-.216-.578a1.121,1.121,0,0,0-1.129-.716l-19.345-65.276c1.228-2.5-3.031-6.663-3.531-7.138l-.436-.415-.18.575c-.2.642-1.818,6.083.222,7.827l-13.058,23.516.048.082-4.264-7.2c.579-2.725-4.566-5.72-5.167-6.059l-.524-.295-.035.6c-.037.671-.277,6.342,2.127,7.536l-12.924,48.53,30.755-19Zm.85-.618-.246.165-19.12-31.9h0v0l-15.925-26.571a5.708,5.708,0,0,1,1.218-.875,2.813,2.813,0,0,1,.836-.342l34.673,58.538Zm-6.265-47.205-15.69,5.252-4.135-6.981,12.508-23.148,3.7,12.476Zm-21.617,2.717,7.46,12.447-22.384,14.336,9.172-36.1ZM-477.5,307.2l12.293-46.16,1.5,2.506-9.873,38.86,24-15.286,1.236,2.063Zm14.62-49.024a3.443,3.443,0,0,0-1.132.433,6.568,6.568,0,0,0-1.43,1.039c-1.495-.718-1.768-4.27-1.742-6.218C-465.552,254.441-462.766,256.538-462.877,258.174Zm18.586-15.63.832,2.808-12.652,23.414-1.415-2.387Zm2.717-1.777a3.391,3.391,0,0,0-1.2.144,6.58,6.58,0,0,0-1.64.656c-1.276-1.06-.673-4.571-.172-6.454C-443.256,236.494-441.067,239.207-441.574,240.767Zm16.765,67.808a.381.381,0,0,1,.213-.2l.826-.309,2.2-.793a.381.381,0,0,1,.357.246l.216.578a.387.387,0,0,1-.225.494l-2.889,1.078a.385.385,0,0,1-.292-.011.379.379,0,0,1-.2-.213l-.216-.578A.387.387,0,0,1-424.809,308.575Zm-13.928-49.929-4.175-14.306-.042.078-.681-2.3-.476.141a5.593,5.593,0,0,1,1.522-.623,2.847,2.847,0,0,1,.895-.127l19.331,65.231-1.75.655-.16.057Zm-11.243,20.471-1.159-1.957,15.563-5.209.7,2.379Zm19.916,40.721a.376.376,0,0,1,.158-.245l.733-.506,1.89-1.274a.385.385,0,0,1,.131-.041.332.332,0,0,1,.07.007.384.384,0,0,1,.247.159l.35.506a.386.386,0,0,1-.1.534l-2.538,1.752a.382.382,0,0,1-.533-.1l-.35-.508A.383.383,0,0,1-430.064,319.838Z" fill="#fff"/></g><text transform="translate(183 1162)" fill="#fff" font-size="12" font-family="Lora" font-weight="500" letter-spacing="0.1em"><tspan x="0" y="0">SAN WO TONG</tspan></text></g></svg>