<svg xmlns="http://www.w3.org/2000/svg" width="141.715" height="132.561" viewBox="0 0 141.715 132.561">
  <g id="Group_1242" data-name="Group 1242" transform="translate(472.462 -655.819)">
    <g id="Layer_2" data-name="Layer 2">
      <g id="Group_1238" data-name="Group 1238">
        <g id="Group_1237" data-name="Group 1237">
          <path id="Path_1922" data-name="Path 1922" d="M-431.077,768.464a2.65,2.65,0,0,0-.744-1.662,2.263,2.263,0,0,0-1.6-.594,2.453,2.453,0,0,0-1.151.275,2.755,2.755,0,0,0-.912.775,3.668,3.668,0,0,0-.6,1.176,4.989,4.989,0,0,0-.21,1.482,4.627,4.627,0,0,0,.385,1.938,3.108,3.108,0,0,0,1.062,1.314,2.653,2.653,0,0,0,1.542.468,3.429,3.429,0,0,0,1.517-.366,3.326,3.326,0,0,0,1.242-1.039l.4.336a4.448,4.448,0,0,1-1.151,1.141,3.842,3.842,0,0,1-1.219.534,4.989,4.989,0,0,1-1.1.138,4.183,4.183,0,0,1-1.657-.324,3.808,3.808,0,0,1-1.3-.907,4.062,4.062,0,0,1-.841-1.355,4.68,4.68,0,0,1-.294-1.674,5.237,5.237,0,0,1,.264-1.644,4.713,4.713,0,0,1,.78-1.458,3.718,3.718,0,0,1,1.3-1.039,4.13,4.13,0,0,1,1.83-.383,4.246,4.246,0,0,1,1.193.168,4.266,4.266,0,0,1,1.123.515l-.061-.6h.745v2.784Z" fill="#fff"/>
          <path id="Path_1923" data-name="Path 1923" d="M-430.009,774.188v-.541a.747.747,0,0,0,.552-.191,1.534,1.534,0,0,0,.324-.522q.132-.33.288-.739l2.424-6.635h.481l2.627,6.732q.1.227.216.618a2.025,2.025,0,0,1,.108.666c.136-.016.27-.026.4-.03s.257-.01.378-.019v.661h-2.917v-.528a.72.72,0,0,0,.558-.186.558.558,0,0,0,.109-.426,2.214,2.214,0,0,0-.126-.5l-.361-.973-2.94.073-.347,1.044q-.074.24-.157.456t-.168.419c.144-.015.3-.025.462-.029s.31-.011.438-.018v.672Zm2.341-3.192h2.52l-.757-2.028c-.1-.264-.188-.527-.276-.786s-.168-.51-.24-.75h-.012q-.1.3-.215.66t-.277.78Z" fill="#fff"/>
          <path id="Path_1924" data-name="Path 1924" d="M-415.152,774.355l-4.465-5.927q-.132-.156-.252-.324t-.252-.348h-.011l.035,4.668q0,.3-.006.6c0,.2-.014.385-.029.553.135-.016.285-.026.449-.03s.307-.01.427-.019v.661h-2.376v-.528a.826.826,0,0,0,.509-.133.676.676,0,0,0,.241-.347,1.731,1.731,0,0,0,.066-.5v-5.857c0-.159,0-.3.011-.42-.128.009-.27.017-.425.025s-.294.015-.415.023v-.659h1.584l4.225,5.556q.2.264.365.492t.319.432h.011l.013-4.932c0-.176,0-.346.011-.51s.016-.306.025-.427c-.144.009-.3.017-.456.025s-.3.015-.42.023v-.659h2.376v.527a.892.892,0,0,0-.558.163.679.679,0,0,0-.217.432,5.206,5.206,0,0,0-.042.737l-.011,6.708Z" fill="#fff"/>
          <path id="Path_1925" data-name="Path 1925" d="M-406.2,768.38a4.1,4.1,0,0,0-.155-1.141,1.265,1.265,0,0,0-.475-.683,1.515,1.515,0,0,0-.906-.216h-.864l-.012,6.24q0,.324-.006.582a3.6,3.6,0,0,1-.029.414q.227-.024.5-.03c.179,0,.341-.01.485-.019v.661h-3.047v-.528a.966.966,0,0,0,.564-.168.707.707,0,0,0,.215-.438,4.619,4.619,0,0,0,.048-.726v-5.976l-1.008.011a1.2,1.2,0,0,0-1.067.492,2.735,2.735,0,0,0-.336,1.525h-.564l.071-2.592h7.081l.071,2.592Z" fill="#fff"/>
          <path id="Path_1926" data-name="Path 1926" d="M-400.633,774.38a4.52,4.52,0,0,1-1.95-.384,3.605,3.605,0,0,1-1.314-1.026,4.37,4.37,0,0,1-.744-1.422,5.286,5.286,0,0,1-.24-1.561,4.811,4.811,0,0,1,.258-1.529,4.528,4.528,0,0,1,.78-1.422,3.916,3.916,0,0,1,1.308-1.044,4.045,4.045,0,0,1,1.842-.4,4.237,4.237,0,0,1,1.9.4,3.781,3.781,0,0,1,1.314,1.05,4.7,4.7,0,0,1,.774,1.422,4.758,4.758,0,0,1,.258,1.523,4.794,4.794,0,0,1-.258,1.519,4.625,4.625,0,0,1-.78,1.428,3.886,3.886,0,0,1-1.3,1.049A4.023,4.023,0,0,1-400.633,774.38Zm.06-.624a2.257,2.257,0,0,0,1.206-.313,2.564,2.564,0,0,0,.84-.834,3.872,3.872,0,0,0,.486-1.151,5.2,5.2,0,0,0,.156-1.254,6.034,6.034,0,0,0-.18-1.482,4.294,4.294,0,0,0-.546-1.284,2.82,2.82,0,0,0-.906-.9,2.336,2.336,0,0,0-1.248-.33,2.223,2.223,0,0,0-1.212.324,2.6,2.6,0,0,0-.84.846,4.1,4.1,0,0,0-.486,1.151,5.079,5.079,0,0,0-.162,1.267,5.632,5.632,0,0,0,.168,1.32,4.823,4.823,0,0,0,.516,1.3,2.942,2.942,0,0,0,.894.972A2.277,2.277,0,0,0-400.573,773.756Z" fill="#fff"/>
          <path id="Path_1927" data-name="Path 1927" d="M-388.932,774.355l-4.464-5.927q-.132-.156-.252-.324l-.252-.348h-.012l.036,4.668q0,.3-.006.6t-.03.553q.2-.024.45-.03c.164,0,.306-.01.426-.019v.661h-2.376v-.528a.829.829,0,0,0,.51-.133.68.68,0,0,0,.24-.347,1.731,1.731,0,0,0,.066-.5v-5.857q0-.238.012-.42c-.128.009-.27.017-.426.025s-.294.015-.414.023v-.659h1.584l4.224,5.556q.2.264.366.492t.318.432h.012l.012-4.932q0-.264.012-.51c.008-.164.016-.306.024-.427-.144.009-.3.017-.456.025s-.3.015-.42.023v-.659h2.376v.527a.9.9,0,0,0-.558.163.678.678,0,0,0-.216.432,5.2,5.2,0,0,0-.042.737l-.012,6.708Z" fill="#fff"/>
          <path id="Path_1928" data-name="Path 1928" d="M-382.093,771.151a1.4,1.4,0,0,0-.15-.743.649.649,0,0,0-.45-.282,3.3,3.3,0,0,0-.744-.03l-.7.024v2.5c0,.216,0,.4-.006.57a3.279,3.279,0,0,1-.03.4l2.064-.025a2.21,2.21,0,0,0,.84-.173,1.219,1.219,0,0,0,.588-.558,2.271,2.271,0,0,0,.216-1.08h.528l-.072,2.436h-6.24v-.528a.993.993,0,0,0,.57-.168.682.682,0,0,0,.222-.432,4.586,4.586,0,0,0,.048-.732v-4.992q0-.264.012-.51c.008-.164.016-.306.024-.427-.136.009-.284.017-.444.025s-.3.015-.432.023v-.659h5.856l.06,2.172h-.528a2,2,0,0,0-.222-1.044,1.078,1.078,0,0,0-.576-.48,2.136,2.136,0,0,0-.762-.108l-.84.024a1.033,1.033,0,0,0-.564.126.614.614,0,0,0-.252.408,3.82,3.82,0,0,0-.06.761v1.885h1.98l-.072-1.032h.66v2.651Z" fill="#fff"/>
          <path id="Path_1929" data-name="Path 1929" d="M-374,768.38a3.063,3.063,0,0,0-.312-1.1,2.052,2.052,0,0,0-.7-.786,1.9,1.9,0,0,0-1.1-.281,1.5,1.5,0,0,0-1.068.372,1.189,1.189,0,0,0-.4.9,1.19,1.19,0,0,0,.264.787,2.5,2.5,0,0,0,.713.57q.451.252,1.015.5.456.192.924.431a5.139,5.139,0,0,1,.851.546,2.346,2.346,0,0,1,.613.733,2.093,2.093,0,0,1,.228,1,2.134,2.134,0,0,1-.348,1.2,2.335,2.335,0,0,1-.99.828,3.666,3.666,0,0,1-1.554.3,4.156,4.156,0,0,1-1.086-.156,3.921,3.921,0,0,1-1.038-.445l.06.505h-.732l-.048-2.64h.576a2.194,2.194,0,0,0,.75,1.578,2.4,2.4,0,0,0,1.566.534,1.989,1.989,0,0,0,.828-.168,1.4,1.4,0,0,0,.588-.481,1.251,1.251,0,0,0,.216-.731,1.207,1.207,0,0,0-.3-.828,2.583,2.583,0,0,0-.743-.576q-.45-.24-.942-.456c-.328-.144-.647-.3-.954-.456a4.589,4.589,0,0,1-.834-.552,2.347,2.347,0,0,1-.589-.738,2.205,2.205,0,0,1-.215-1,2.306,2.306,0,0,1,.12-.708,2.056,2.056,0,0,1,.407-.708,2.085,2.085,0,0,1,.787-.546,3.244,3.244,0,0,1,1.254-.21,4.594,4.594,0,0,1,1.026.132,2.866,2.866,0,0,1,1.037.467l-.047-.5h.72v2.689Z" fill="#fff"/>
          <path id="Path_1930" data-name="Path 1930" d="M-367.692,771.151a1.408,1.408,0,0,0-.15-.743.651.651,0,0,0-.45-.282,3.308,3.308,0,0,0-.745-.03l-.7.024v2.5c0,.216,0,.4-.006.57a3.252,3.252,0,0,1-.031.4l2.064-.025a2.215,2.215,0,0,0,.841-.173,1.224,1.224,0,0,0,.588-.558,2.271,2.271,0,0,0,.215-1.08h.529l-.072,2.436h-6.24v-.528a1,1,0,0,0,.57-.168.687.687,0,0,0,.222-.432,4.708,4.708,0,0,0,.048-.732v-4.992c0-.176,0-.346.011-.51s.016-.306.025-.427c-.136.009-.284.017-.445.025s-.3.015-.431.023v-.659h5.856l.059,2.172h-.528a2,2,0,0,0-.222-1.044,1.08,1.08,0,0,0-.575-.48,2.145,2.145,0,0,0-.763-.108l-.839.024a1.033,1.033,0,0,0-.564.126.614.614,0,0,0-.252.408,3.82,3.82,0,0,0-.06.761v1.885h1.98l-.073-1.032h.66v2.651Z" fill="#fff"/>
          <path id="Path_1931" data-name="Path 1931" d="M-447.078,788.38a4.52,4.52,0,0,1-1.95-.384,3.605,3.605,0,0,1-1.314-1.026,4.37,4.37,0,0,1-.744-1.422,5.286,5.286,0,0,1-.24-1.561,4.811,4.811,0,0,1,.258-1.529,4.529,4.529,0,0,1,.78-1.422,3.916,3.916,0,0,1,1.308-1.044,4.045,4.045,0,0,1,1.842-.4,4.237,4.237,0,0,1,1.9.4,3.781,3.781,0,0,1,1.314,1.05,4.7,4.7,0,0,1,.774,1.422,4.758,4.758,0,0,1,.258,1.523,4.794,4.794,0,0,1-.258,1.519,4.624,4.624,0,0,1-.78,1.428,3.886,3.886,0,0,1-1.3,1.049A4.023,4.023,0,0,1-447.078,788.38Zm.06-.624a2.257,2.257,0,0,0,1.206-.313,2.564,2.564,0,0,0,.84-.834,3.872,3.872,0,0,0,.486-1.151,5.2,5.2,0,0,0,.156-1.254,6.034,6.034,0,0,0-.18-1.482,4.294,4.294,0,0,0-.546-1.284,2.819,2.819,0,0,0-.906-.9,2.336,2.336,0,0,0-1.248-.33,2.223,2.223,0,0,0-1.212.324,2.6,2.6,0,0,0-.84.846,4.1,4.1,0,0,0-.486,1.151,5.079,5.079,0,0,0-.162,1.267,5.632,5.632,0,0,0,.168,1.32,4.823,4.823,0,0,0,.516,1.3,2.943,2.943,0,0,0,.894.972A2.277,2.277,0,0,0-447.018,787.756Z" fill="#fff"/>
          <path id="Path_1932" data-name="Path 1932" d="M-441.882,787.66a.993.993,0,0,0,.57-.168.682.682,0,0,0,.222-.432,4.59,4.59,0,0,0,.048-.732v-4.992q0-.264.012-.51c.008-.164.016-.306.024-.427-.136.009-.284.017-.444.025s-.3.015-.432.023v-.659c.472-.008.952-.015,1.44-.018s.984-.006,1.488-.006a5.932,5.932,0,0,1,1.914.27,2.523,2.523,0,0,1,1.212.816,2.221,2.221,0,0,1,.438,1.374,2.627,2.627,0,0,1-.168.965,2.478,2.478,0,0,1-.612.924,3.152,3.152,0,0,1-1.17.691,5.6,5.6,0,0,1-1.854.263,2.449,2.449,0,0,1-.27.013c-.1,0-.2,0-.306-.013v1.513q0,.324-.006.582a3.357,3.357,0,0,1-.03.414c.112-.009.232-.016.36-.024s.254-.014.378-.018.238-.011.342-.018v.672h-3.156Zm2.112-3.228q.2.024.354.03t.354.006a2.675,2.675,0,0,0,1.188-.252,1.871,1.871,0,0,0,.8-.733,2.168,2.168,0,0,0,.288-1.139,2.371,2.371,0,0,0-.174-.966,1.482,1.482,0,0,0-.48-.612,1.992,1.992,0,0,0-.7-.319,3.607,3.607,0,0,0-.84-.1.8.8,0,0,0-.528.144.683.683,0,0,0-.216.42,4.264,4.264,0,0,0-.048.708Z" fill="#fff"/>
          <path id="Path_1933" data-name="Path 1933" d="M-430.386,785.151a1.4,1.4,0,0,0-.15-.743.649.649,0,0,0-.45-.282,3.3,3.3,0,0,0-.744-.03l-.7.024v2.5c0,.216,0,.4-.006.57a3.279,3.279,0,0,1-.03.4l2.064-.025a2.21,2.21,0,0,0,.84-.173,1.219,1.219,0,0,0,.588-.558,2.271,2.271,0,0,0,.216-1.08h.528l-.072,2.436h-6.24v-.528a.993.993,0,0,0,.57-.168.682.682,0,0,0,.222-.432,4.586,4.586,0,0,0,.048-.732v-4.992q0-.264.012-.51c.008-.164.016-.306.024-.427-.136.009-.284.017-.444.025s-.3.015-.432.023v-.659h5.856l.06,2.172h-.528a2,2,0,0,0-.222-1.044,1.078,1.078,0,0,0-.576-.48,2.136,2.136,0,0,0-.762-.108l-.84.024a1.033,1.033,0,0,0-.564.126.614.614,0,0,0-.252.408,3.82,3.82,0,0,0-.06.761v1.885h1.98l-.072-1.032h.66v2.651Z" fill="#fff"/>
          <path id="Path_1934" data-name="Path 1934" d="M-427.062,788.188v-.528a.993.993,0,0,0,.57-.168.682.682,0,0,0,.222-.432,4.59,4.59,0,0,0,.048-.732v-4.992q0-.264.012-.51c.008-.164.016-.306.024-.427-.136.009-.284.017-.444.025s-.3.015-.432.023v-.659c.488-.008.979-.015,1.476-.018s1,0,1.5.005a5.648,5.648,0,0,1,1.86.259,2.223,2.223,0,0,1,1.1.762,2.058,2.058,0,0,1,.354,1.271,2.259,2.259,0,0,1-.192.954,2.167,2.167,0,0,1-.684.847,3.367,3.367,0,0,1-1.32.564,1.556,1.556,0,0,1,.432.4q.192.252.4.564l.732,1.128q.228.36.42.612a1.446,1.446,0,0,0,.432.389,1.124,1.124,0,0,0,.576.139v.528h-1.668a3.275,3.275,0,0,1-.534-.57c-.149-.2-.306-.434-.474-.69l-.828-1.344q-.156-.24-.33-.517a2.406,2.406,0,0,0-.378-.467h-.756v1.98q0,.324-.006.582a3.357,3.357,0,0,1-.03.414c.1-.009.2-.014.306-.018s.216-.01.324-.018.2-.013.282-.013v.661Zm2.808-4.176a3.033,3.033,0,0,0,1.128-.21,1.5,1.5,0,0,0,.72-.613,2.036,2.036,0,0,0,.252-1.073,2.1,2.1,0,0,0-.144-.828,1.368,1.368,0,0,0-.408-.546,1.633,1.633,0,0,0-.63-.3,3.345,3.345,0,0,0-.786-.089.866.866,0,0,0-.558.144.664.664,0,0,0-.222.42,4.267,4.267,0,0,0-.048.708v2.352c.12.007.234.018.342.03A2.053,2.053,0,0,0-424.254,784.012Z" fill="#fff"/>
          <path id="Path_1935" data-name="Path 1935" d="M-419.575,788.188v-.541a.747.747,0,0,0,.552-.191,1.533,1.533,0,0,0,.324-.522q.132-.33.288-.739l2.424-6.635h.48l2.628,6.732q.1.227.216.618a2.026,2.026,0,0,1,.108.666q.2-.024.4-.03c.132,0,.258-.01.378-.019v.661h-2.916v-.528a.72.72,0,0,0,.558-.186.554.554,0,0,0,.108-.426,2.116,2.116,0,0,0-.126-.5l-.36-.973-2.94.073-.348,1.044q-.072.24-.156.456t-.168.419c.144-.015.3-.025.462-.029s.31-.011.438-.018v.672Zm2.34-3.192h2.52l-.756-2.028c-.1-.264-.188-.527-.276-.786s-.168-.51-.24-.75H-416q-.1.3-.216.66t-.276.78Z" fill="#fff"/>
          <path id="Path_1936" data-name="Path 1936" d="M-405.115,780.315a.925.925,0,0,0-.564.163.689.689,0,0,0-.228.432,4.564,4.564,0,0,0-.048.737v4.933q0,.324-.006.582a3.357,3.357,0,0,1-.03.414q.2-.024.45-.03c.164,0,.306-.01.426-.019v.661h-2.952v-.528a.993.993,0,0,0,.57-.168.682.682,0,0,0,.222-.432,4.59,4.59,0,0,0,.048-.732v-4.992q0-.264.012-.51c.008-.164.016-.306.024-.427-.136.009-.284.017-.444.025s-.3.015-.432.023v-.659h2.952Z" fill="#fff"/>
          <path id="Path_1937" data-name="Path 1937" d="M-397.339,788.355l-4.465-5.927q-.132-.156-.252-.324t-.252-.348h-.011l.035,4.668q0,.3-.006.6c0,.2-.014.385-.029.553.135-.016.285-.026.449-.03s.307-.01.427-.019v.661h-2.376v-.528a.826.826,0,0,0,.509-.133.676.676,0,0,0,.241-.347,1.73,1.73,0,0,0,.066-.5v-5.857c0-.159,0-.3.011-.42-.128.009-.27.017-.425.025s-.294.015-.415.023v-.659h1.584l4.225,5.556q.2.264.365.492t.319.432h.011l.013-4.932c0-.176,0-.346.011-.51s.016-.306.025-.427c-.144.009-.3.017-.456.025s-.3.015-.42.023v-.659h2.376v.527a.892.892,0,0,0-.558.163.679.679,0,0,0-.217.432,5.2,5.2,0,0,0-.042.737l-.011,6.708Z" fill="#fff"/>
          <path id="Path_1938" data-name="Path 1938" d="M-388.387,782.38a4.094,4.094,0,0,0-.156-1.141,1.258,1.258,0,0,0-.474-.683,1.515,1.515,0,0,0-.906-.216h-.864l-.012,6.24q0,.324-.006.582a3.357,3.357,0,0,1-.03.414q.228-.024.5-.03c.18,0,.342-.01.486-.019v.661H-392.9v-.528a.961.961,0,0,0,.564-.168.7.7,0,0,0,.216-.438,4.623,4.623,0,0,0,.048-.726v-5.976l-1.008.011a1.2,1.2,0,0,0-1.068.492,2.744,2.744,0,0,0-.336,1.525h-.564l.072-2.592h7.08l.072,2.592Z" fill="#fff"/>
          <path id="Path_1939" data-name="Path 1939" d="M-383.983,780.315a.925.925,0,0,0-.564.163.684.684,0,0,0-.228.432,4.56,4.56,0,0,0-.048.737v4.933q0,.324-.006.582a3.351,3.351,0,0,1-.03.414q.2-.024.45-.03c.163,0,.3-.01.426-.019v.661h-2.952v-.528a.993.993,0,0,0,.57-.168.687.687,0,0,0,.222-.432,4.586,4.586,0,0,0,.048-.732v-4.992q0-.264.012-.51c.008-.164.016-.306.024-.427-.136.009-.284.017-.444.025s-.305.015-.432.023v-.659h2.952Z" fill="#fff"/>
          <path id="Path_1940" data-name="Path 1940" d="M-376.448,782.38a4.094,4.094,0,0,0-.156-1.141,1.258,1.258,0,0,0-.474-.683,1.515,1.515,0,0,0-.906-.216h-.864l-.012,6.24q0,.324-.006.582a3.357,3.357,0,0,1-.03.414c.152-.016.318-.026.5-.03s.341-.01.485-.019v.661h-3.047v-.528a.96.96,0,0,0,.563-.168.7.7,0,0,0,.216-.438,4.622,4.622,0,0,0,.048-.726v-5.976l-1.008.011a1.2,1.2,0,0,0-1.068.492,2.745,2.745,0,0,0-.335,1.525h-.564l.071-2.592h7.08l.072,2.592Z" fill="#fff"/>
          <path id="Path_1941" data-name="Path 1941" d="M-372.344,780.315a.886.886,0,0,0-.528.132.632.632,0,0,0-.24.355,1.909,1.909,0,0,0-.06.5v3.108a6.713,6.713,0,0,0,.114,1.289,3.068,3.068,0,0,0,.372,1.009,1.8,1.8,0,0,0,.708.666,2.4,2.4,0,0,0,1.1.252,2.255,2.255,0,0,0,1.32-.36,2.163,2.163,0,0,0,.774-1.033,4.61,4.61,0,0,0,.27-1.6l.024-3.3q0-.264.012-.51c.008-.164.016-.306.024-.427-.136.009-.284.017-.444.025s-.3.015-.432.023v-.659h2.424v.527a.947.947,0,0,0-.576.163.689.689,0,0,0-.228.432,4.564,4.564,0,0,0-.048.737l-.012,2.857a5.9,5.9,0,0,1-.2,1.578,3.5,3.5,0,0,1-.6,1.23,2.63,2.63,0,0,1-1.02.792,3.551,3.551,0,0,1-1.458.276,4.414,4.414,0,0,1-1.632-.264,2.388,2.388,0,0,1-1.05-.786,3.312,3.312,0,0,1-.558-1.284,8.222,8.222,0,0,1-.168-1.758V781.7c0-.216.006-.451.018-.708s.022-.451.03-.588c-.136.009-.284.015-.444.019s-.3.01-.432.018v-.648h2.94Z" fill="#fff"/>
          <path id="Path_1942" data-name="Path 1942" d="M-359.671,782.38a4.094,4.094,0,0,0-.156-1.141,1.263,1.263,0,0,0-.474-.683,1.516,1.516,0,0,0-.907-.216h-.863l-.012,6.24q0,.324-.006.582a3.569,3.569,0,0,1-.03.414q.228-.024.5-.03c.18,0,.342-.01.486-.019v.661h-3.048v-.528a.962.962,0,0,0,.564-.168.708.708,0,0,0,.216-.438,4.744,4.744,0,0,0,.048-.726v-5.976l-1.008.011a1.2,1.2,0,0,0-1.068.492,2.744,2.744,0,0,0-.336,1.525h-.564l.072-2.592h7.08l.072,2.592Z" fill="#fff"/>
          <path id="Path_1943" data-name="Path 1943" d="M-354.067,785.151a1.408,1.408,0,0,0-.15-.743.651.651,0,0,0-.45-.282,3.308,3.308,0,0,0-.745-.03l-.7.024v2.5c0,.216,0,.4-.006.57a3.252,3.252,0,0,1-.031.4l2.064-.025a2.215,2.215,0,0,0,.841-.173,1.224,1.224,0,0,0,.588-.558,2.271,2.271,0,0,0,.215-1.08h.529l-.072,2.436h-6.24v-.528a1,1,0,0,0,.57-.168.687.687,0,0,0,.222-.432,4.708,4.708,0,0,0,.048-.732v-4.992c0-.176,0-.346.011-.51s.016-.306.025-.427c-.136.009-.284.017-.445.025s-.3.015-.431.023v-.659h5.856l.059,2.172h-.528a2,2,0,0,0-.222-1.044,1.08,1.08,0,0,0-.575-.48,2.145,2.145,0,0,0-.763-.108l-.839.024a1.033,1.033,0,0,0-.564.126.614.614,0,0,0-.252.408,3.82,3.82,0,0,0-.06.761v1.885h1.98l-.073-1.032h.66v2.651Z" fill="#fff"/>
        </g>
      </g>
    </g>
    <g id="Layer_1" data-name="Layer 1">
      <g id="Group_1239" data-name="Group 1239">
        <path id="Path_1944" data-name="Path 1944" d="M-454.44,712.349a15.2,15.2,0,0,0-15.187,15.186,15.2,15.2,0,0,0,15.187,15.187,15.2,15.2,0,0,0,15.186-15.187A15.2,15.2,0,0,0-454.44,712.349Zm0,29.623a14.453,14.453,0,0,1-14.437-14.437A14.453,14.453,0,0,1-454.44,713.1,14.452,14.452,0,0,1-440,727.535,14.453,14.453,0,0,1-454.44,741.972Z" fill="#fff"/>
        <path id="Path_1945" data-name="Path 1945" d="M-419.353,707.289A15.2,15.2,0,0,0-404.167,692.1a15.2,15.2,0,0,0-15.186-15.187A15.2,15.2,0,0,0-434.54,692.1,15.2,15.2,0,0,0-419.353,707.289Zm0-29.624A14.453,14.453,0,0,1-404.917,692.1a14.453,14.453,0,0,1-14.436,14.437A14.454,14.454,0,0,1-433.79,692.1,14.453,14.453,0,0,1-419.353,677.665Z" fill="#fff"/>
        <path id="Path_1946" data-name="Path 1946" d="M-384.061,676.915A15.2,15.2,0,0,0-399.248,692.1a15.2,15.2,0,0,0,15.187,15.187A15.2,15.2,0,0,0-368.874,692.1,15.2,15.2,0,0,0-384.061,676.915Zm0,29.624A14.454,14.454,0,0,1-398.5,692.1a14.453,14.453,0,0,1,14.437-14.437A14.453,14.453,0,0,1-369.624,692.1,14.453,14.453,0,0,1-384.061,706.539Z" fill="#fff"/>
        <path id="Path_1947" data-name="Path 1947" d="M-419.353,742.581a15.2,15.2,0,0,0,15.186-15.187,15.2,15.2,0,0,0-15.186-15.186,15.2,15.2,0,0,0-15.187,15.186A15.2,15.2,0,0,0-419.353,742.581Zm0-29.623a14.452,14.452,0,0,1,14.436,14.436,14.453,14.453,0,0,1-14.436,14.437,14.453,14.453,0,0,1-14.437-14.437A14.453,14.453,0,0,1-419.353,712.958Z" fill="#fff"/>
        <path id="Path_1948" data-name="Path 1948" d="M-384.061,712.208a15.2,15.2,0,0,0-15.187,15.186,15.2,15.2,0,0,0,15.187,15.187,15.2,15.2,0,0,0,15.187-15.187A15.2,15.2,0,0,0-384.061,712.208Zm0,29.623A14.453,14.453,0,0,1-398.5,727.394a14.453,14.453,0,0,1,14.437-14.436,14.453,14.453,0,0,1,14.437,14.436A14.453,14.453,0,0,1-384.061,741.831Z" fill="#fff"/>
        <path id="Path_1949" data-name="Path 1949" d="M-348.768,742.581a15.2,15.2,0,0,0,15.186-15.187,15.2,15.2,0,0,0-15.186-15.186,15.2,15.2,0,0,0-15.187,15.186A15.2,15.2,0,0,0-348.768,742.581Zm0-29.623a14.452,14.452,0,0,1,14.436,14.436,14.453,14.453,0,0,1-14.436,14.437A14.453,14.453,0,0,1-363.2,727.394,14.453,14.453,0,0,1-348.768,712.958Z" fill="#fff"/>
        <path id="Path_1950" data-name="Path 1950" d="M-447.489,720.188c-.143,0-.84.864-.864.888h-7.008a.708.708,0,0,0-.048-.216c0-.072-.216-.984-.408-.984-.048,0-.1.144-.1.192a3.758,3.758,0,0,1-.359,1.032c-.408.744-1.272.96-1.272,1.825,0,.7.48.864,1.08.864.912,0,1.1-1.153,1.175-1.872h7.129c-.072.168-.719,1.632-.719,1.679a.155.155,0,0,0,.12.144.181.181,0,0,0,.12-.048,8.31,8.31,0,0,1,1.416-1.056,2.728,2.728,0,0,1,.744-.263c.191,0,1.056,0,1.056-.408C-445.424,721.58-447.153,720.188-447.489,720.188Z" fill="#fff"/>
        <path id="Path_1951" data-name="Path 1951" d="M-457.377,731.853a5.463,5.463,0,0,0,.5-2.136c0-1.944-1.391-3.913-2.4-5.472.649-1.536,1.32-3.072,1.992-4.609.168-.072.889-.456.889-.672a.535.535,0,0,0-.145-.336,7.534,7.534,0,0,0-1.967-1.08c-.241,0-.649.624-.769.792H-460.4a8.546,8.546,0,0,0-2.351-.913c-.073,0-.145.025-.145.121a6.845,6.845,0,0,1,.24.888,7.955,7.955,0,0,1,.048,1.056v15.457l-.072,1.249-.12,2.5a8.719,8.719,0,0,0,2.184-.48c-.072-1.176-.168-2.424-.168-3.6V719.468l.193-.288h1.511c-.263,1.728-.551,3.409-.887,5.136a14.086,14.086,0,0,1,1.344,4.393c0,.96-.048,1.968-1.273,1.968-.191,0-.407-.024-.6-.024-.144,0-.24,0-.24.168,0,.024.792.6.937.769a2.576,2.576,0,0,1,.408,1.511A2.24,2.24,0,0,0-457.377,731.853Z" fill="#fff"/>
        <path id="Path_1952" data-name="Path 1952" d="M-452.889,718.7a2.234,2.234,0,0,0,.12.576.939.939,0,0,0,.936.6c.7,0,1.033-.5,1.033-1.176,0-1.128-1.105-1.656-2.017-2.04a4.56,4.56,0,0,0-.96-.336c-.024,0-.12.023-.12.072,0,.071.048.1.072.144A2.89,2.89,0,0,1-452.889,718.7Z" fill="#fff"/>
        <path id="Path_1953" data-name="Path 1953" d="M-454.185,725.852h6.217a.236.236,0,0,0,.216-.239c0-.288-.84-1.1-.937-1.225s-.359-.408-.527-.408c-.241,0-.912.937-.985,1.009h-3.7c-.5,0-1.056-.1-1.561-.12l.865,1.3Z" fill="#fff"/>
        <path id="Path_1954" data-name="Path 1954" d="M-446.6,734.422c0-.409.023-.84.048-1.248,0-.145-.073-.193-.193-.193-.072,0-.1.145-.12.193-.1.551-.239,1.08-.359,1.631-.288,1.176-.481,1.344-1.681,1.344-.5,0-.935.12-.935-.5v-5.472c.143-.048.479-.144.479-.312a.714.714,0,0,0-.288-.48h3.265c.143,0,.263-.072.263-.216,0-.24-.815-1.1-.983-1.3-.072-.1-.24-.288-.385-.288-.263,0-.887.816-1.008.936h-6.864c-.5,0-1.056-.1-1.56-.144l.839,1.32.433-.312h.624a8.179,8.179,0,0,1,.12,1.1,15.541,15.541,0,0,1-.888,4.561,7,7,0,0,1-3.144,3.408.3.3,0,0,0-.145.263c0,.048.048.073.1.073a2.469,2.469,0,0,0,.505-.168,11.469,11.469,0,0,0,2.784-1.584c2.568-1.992,2.28-3.673,2.76-6.529.12-.048.576-.216.576-.36,0-.456-.912-.672-1.224-.768h1.824v7.369a2.044,2.044,0,0,0,.072.551c.264.769,1.681.72,2.28.72h1.08c.817,0,2.233.049,2.569-.863.1-.288.168-.576.24-.841l-.385-.071C-446.6,736.126-446.6,734.973-446.6,734.422Z" fill="#fff"/>
        <path id="Path_1955" data-name="Path 1955" d="M-418.32,686.671v11.616c0,.912-.1,1.849-.12,2.761a7,7,0,0,0,1.968-.5v-1.488h3.144l-.071,1.968a9.637,9.637,0,0,0,2.16-.6c-.025-.648-.12-1.32-.12-1.969V686.118c.24-.143.624-.288.624-.624,0-.191-.288-.408-.433-.5l-1.031-.671a1.553,1.553,0,0,0-.553-.216c-.264,0-.7.672-.792.815h-2.568a9.887,9.887,0,0,0-2.3-1.056c-.1,0-.216.024-.216.121a3.06,3.06,0,0,0,.216.527A12.685,12.685,0,0,1-418.32,686.671Zm1.848-.576.5-.336h2.64v12.457h-3.144Z" fill="#fff"/>
        <path id="Path_1956" data-name="Path 1956" d="M-428.857,699.1c0,.048.047.143.12.143.144,0,.624-.6.744-.7a32.736,32.736,0,0,0,4.032-5.545v6.913c0,.96-.1,1.943-.143,2.88a12.015,12.015,0,0,0,2.232-.5c-.049-.768-.12-1.56-.12-2.328v-9.505a3.88,3.88,0,0,1,.647,1.7c.048.408.12.817.168,1.224.073.673.168,1.465,1.032,1.465a1.18,1.18,0,0,0,1.128-1.225,2.539,2.539,0,0,0-.383-1.224,7.159,7.159,0,0,0-2.592-2.328V688.95h3.023c.145,0,.408-.047.408-.239a4.191,4.191,0,0,0-1.536-1.633c-.263,0-1.055.889-1.2,1.033h-.7V684.7c.239-.1.552-.288.552-.576s-.672-.527-.888-.6c.72-.168,1.416-.289,2.111-.433a4.81,4.81,0,0,1,.817-.119c.12,0,.551,0,.551-.169,0-.119-1.584-2.4-2.04-2.352a15.375,15.375,0,0,1-3.383,1.968,24.008,24.008,0,0,1-2.9,1.225c-.192.071-1.032.239-1.032.479,0,.072.072.1.144.1,1.368-.12,2.736-.24,4.1-.481v4.369h-3.072c-.456,0-.984-.1-1.44-.144l.96,1.3.432-.313h2.3a39.35,39.35,0,0,1-3.505,9.026A6.263,6.263,0,0,0-428.857,699.1Z" fill="#fff"/>
        <path id="Path_1957" data-name="Path 1957" d="M-374.3,700.167a16.752,16.752,0,0,1-3.769-5.185,25.133,25.133,0,0,1-1.92-4.44,25.072,25.072,0,0,1-1.416-6.721c0-1.729,1.319-1.416,1.319-2.017a9.581,9.581,0,0,0-3.167-1.271c-.048,0-.192.048-.192.119,0,.145.216.313.336.408a2.271,2.271,0,0,1,.359,1.441c.048,1.248.121,2.472.241,3.72a35.44,35.44,0,0,0,2.688,10.3,41.9,41.9,0,0,0,2.328,4.344,5.98,5.98,0,0,1,2.136-.456c.312,0,.624.024.937.048.12,0,.215-.024.215-.144A.16.16,0,0,0-374.3,700.167Z" fill="#fff"/>
        <path id="Path_1958" data-name="Path 1958" d="M-387.667,682.285c-.1,0-.144,0-.144.12,0,.312.072.647.072.96a49.715,49.715,0,0,1-1.344,9.36,21.236,21.236,0,0,1-1.464,4.537,21.007,21.007,0,0,1-1.92,3.529c-.048.071-.288.359-.288.456,0,.048.072.095.12.095.192,0,1.128-.984,1.248-1.127a16.783,16.783,0,0,0,1.512-1.681c3.121-3.792,3.7-9.984,4.369-14.69.191-.095.576-.288.576-.527C-384.93,682.981-387.235,682.285-387.667,682.285Z" fill="#fff"/>
        <path id="Path_1959" data-name="Path 1959" d="M-421,717.764a10.629,10.629,0,0,1,1.248,1.3c-.48.865-1.008,1.608-1.537,2.424a.3.3,0,0,0-.023.36,18.7,18.7,0,0,0,2.352-1.8c.1.169.215.337.288.505.192.335.432,1.223.96,1.223a.762.762,0,0,0,.816-.792c0-.672-.769-1.416-1.248-1.824l.864-.912c.144-.048.768-.24.768-.408a.431.431,0,0,0-.1-.216c-.1-.1-1.656-1.224-1.7-1.224a.181.181,0,0,0-.12.048,7.565,7.565,0,0,1-.864,1.92,8.8,8.8,0,0,0-1.7-.864c-.073,0-.121.024-.121.095S-421.049,717.716-421,717.764Z" fill="#fff"/>
        <path id="Path_1960" data-name="Path 1960" d="M-411.641,731.709c-.312,0-.863.768-1.031.961h-5.618c.121-.073.361-.217.361-.385s-.408-.239-.529-.264a5,5,0,0,1,2.521-1.1l.84-.1c.168-.024.432-.12.432-.336a5.116,5.116,0,0,0-1.992-1.849c-.192,0-.888.745-.984.817h-6c-.432,0-.912-.072-1.368-.1l.864,1.368.36-.408h5.881c-.432.48-.864.984-1.3,1.464a4.688,4.688,0,0,0-1.151-.24.14.14,0,0,0-.145.144c0,.264.168.529.168.865v.12h-6.744c-.432,0-.912-.1-1.344-.12l.84,1.368.36-.409h6.913v2.617c0,.551-.072,1.007-.744,1.007-.5,0-1.248-.12-1.8-.167-.1,0-.168.12-.168.192,0,.143.505.264.624.288a1.963,1.963,0,0,1,1.177,1.775,4.983,4.983,0,0,0,2.376-.624,2.186,2.186,0,0,0,.48-.744,6.27,6.27,0,0,0,.071-1.151v-3.193h7.8c.12,0,.384-.024.384-.192s-.144-.311-.239-.432C-410.489,732.765-411.376,731.709-411.641,731.709Z" fill="#fff"/>
        <path id="Path_1961" data-name="Path 1961" d="M-416.874,723.045a4.6,4.6,0,0,0-1.727-1.369,5.622,5.622,0,0,1-.84,1.584,10.377,10.377,0,0,0-2.017-.984.113.113,0,0,0-.12.12.165.165,0,0,0,.1.145c.528.5,1.009.983,1.488,1.511-.672.84-1.319,1.657-2.063,2.424a.207.207,0,0,0-.072.145c0,.072.023.12.1.12a18.29,18.29,0,0,0,2.712-1.752c.1.191.217.384.313.6.216.408.48,1.128,1.055,1.128a.882.882,0,0,0,.793-.936c0-.673-.672-1.3-1.129-1.753.217-.216.433-.432.649-.624C-417.473,723.381-416.874,723.285-416.874,723.045Z" fill="#fff"/>
        <path id="Path_1962" data-name="Path 1962" d="M-427.746,730.053a.665.665,0,0,0,.312-.072c.96-.336,1.08-1.056,1.1-1.969h13.9c-.1.217-.863,1.849-.863,1.969a.154.154,0,0,0,.143.144c.216,0,1.032-1.1,2.185-1.176.288-.024,1.128.072,1.128-.432,0-.384-1.345-2.016-1.752-2.016-.241,0-.7.528-.817.672h-.408l.576-7.729c.216-.168.744-.432.744-.768,0-.168-.336-.408-.456-.5-.215-.121-1.152-.84-1.464-.84s-.7.648-.84.84a14.717,14.717,0,0,1-2.3-.121l.84,1.321.384-.408h1.152l-.12,2.329h-1.128c-.432,0-.912-.073-1.368-.12l.864,1.319.36-.407h1.224l-.144,2.16a12.861,12.861,0,0,1-2.352-.12l.84,1.343.36-.431h1.08l-.072,2.136H-424.1l-.119-2.281h2.4c.1,0,.456.025.456-.168a2.831,2.831,0,0,0-1.008-1.223c-.168,0-.648.527-.744.6h-1.128l-.072-2.135h2.232c.1,0,.432,0,.432-.168a3.032,3.032,0,0,0-1.1-1.273c-.121,0-.552.576-.6.649h-.96l-.12-2.137a19.734,19.734,0,0,1,2.736-.5c.145,0,.265.048.385.048s.48-.048.48-.192c0-.24-1.176-1.776-1.512-1.776a9.005,9.005,0,0,1-2.089,1.944,16.887,16.887,0,0,0-2.04-.792c-.12,0-.12.1-.12.192a5.059,5.059,0,0,0,.24.72,8.831,8.831,0,0,1,.168,1.8l.336,6.7h-.6c-.072-.192-.48-1.2-.648-1.2-.1,0-.12.1-.12.145a2.934,2.934,0,0,1-.288,1.3c-.408.816-1.128.936-1.128,1.728A.838.838,0,0,0-427.746,730.053Z" fill="#fff"/>
        <path id="Path_1963" data-name="Path 1963" d="M-384.156,732.743l-.24-.744a17.662,17.662,0,0,0,2.208-.887c.168.024.769.072.769-.216s-1.416-1.584-1.513-1.584c-.048,0-.288.479-.36.551a9.673,9.673,0,0,1-1.416,1.56,4.952,4.952,0,0,0-1.512-1.392l1.008-.456c.1,0,.672-.047.672-.215,0-.313-.888-.769-1.152-.937h4.08c.12,0,.408-.072.408-.24a3.6,3.6,0,0,0-1.224-1.487c-.192,0-.816.815-.912.935h-5.449c-.336,0-.719-.1-1.08-.12l.72,1.225.313-.313h2.16a9.828,9.828,0,0,1-3.361,2.713.248.248,0,0,0-.143.191c0,.1,0,.145.12.145a4.561,4.561,0,0,0,.768-.217,23.856,23.856,0,0,0,2.591-.983l.193.143a17.04,17.04,0,0,1-3.672,3,.21.21,0,0,0-.145.169.157.157,0,0,0,.145.144,4.261,4.261,0,0,0,.72-.241,15.031,15.031,0,0,0,3.576-1.776l.144.288a17.44,17.44,0,0,1-4.512,3.433c-.121.072-.769.36-.769.528a.135.135,0,0,0,.145.12,3.912,3.912,0,0,0,.719-.168,20.363,20.363,0,0,0,4.633-2.016c-.1,1.488-.12,2.591-1.944,2.591-.336,0-.672-.023-1.008-.047-.1,0-.145.024-.145.12,0,.216.672.384.817.432.767.264.935.816,1.176,1.512,2.088-.552,2.736-1.584,2.736-3.721a13.736,13.736,0,0,0-.168-1.679,2.337,2.337,0,0,1,.936.6c.48.529.84,1.753,1.584,1.753a.9.9,0,0,0,.792-.936,1.3,1.3,0,0,0-.456-.936A3.825,3.825,0,0,0-384.156,732.743Z" fill="#fff"/>
        <path id="Path_1964" data-name="Path 1964" d="M-380.627,732.7c.6-.216,1.248-.336,1.847-.6-.023-.649-.1-1.345-.1-2.017v-9c.12-.071.624-.383.624-.551,0-.384-1.993-.96-2.4-.96-.1,0-.168.047-.168.143a7.188,7.188,0,0,1,.288,1.225v9.505C-380.532,731.184-380.6,731.951-380.627,732.7Z" fill="#fff"/>
        <path id="Path_1965" data-name="Path 1965" d="M-389.077,725.087l.265-.288,1.176-.288v1.1a1.411,1.411,0,0,0,.24.816c.239.36,1.7.36,2.088.36.912,0,2.88.1,3.433-.84.12-.192.215-.384.311-.576-.479-.312-.792-.576-.792-1.177,0-.239.024-.479.024-.743,0-.072,0-.24-.144-.24-.216,0-.456.84-.528,1.032-.36.984-.84,1.152-1.848,1.152-.264,0-1.08,0-1.08-.432v-.72l2.04-.432c.12-.024.288-.073.288-.216,0-.24-1.032-1.1-1.224-1.1-.168,0-.552.721-.624.865l-.48.1v-.768c.168-.073.456-.193.456-.408,0-.241-.864-.5-1.032-.577h3.24a13.36,13.36,0,0,0-.384,1.465c0,.071.024.144.1.144.192,0,.672-.576.768-.7a2.6,2.6,0,0,1,.528-.359,2.589,2.589,0,0,1,.7-.217c.216-.023.624-.071.624-.384s-1.464-1.559-1.656-1.559-.7.72-.792.84h-2.544V719.4h4.1c.144,0,.384-.1.384-.265a4.714,4.714,0,0,0-1.368-1.7c-.168,0-1.08,1.08-1.152,1.152h-1.968v-1.3c.143-.1.672-.36.672-.576,0-.384-2.136-.912-2.5-.912-.1,0-.168.024-.168.145a3.942,3.942,0,0,0,.216.624,4.042,4.042,0,0,1,.072.767v3.6l-1.92-.025a12.525,12.525,0,0,0-2.328-1.032c-.073,0-.12.025-.12.12a5.623,5.623,0,0,0,.215,1.032,9.392,9.392,0,0,1,.073,1.849,73.434,73.434,0,0,1-.624,11.233,13.807,13.807,0,0,1-.673,2.64,8.1,8.1,0,0,0-.312,1.008c0,.048,0,.168.1.168.168,0,.816-1.008.889-1.08,2.328-3.313,2.3-8.616,2.4-12.553Zm-.792-3.049.384-.336h1.753c.024.336.1.7.1,1.033v1.007a8.073,8.073,0,0,1-2.281.288Z" fill="#fff"/>
        <path id="Path_1966" data-name="Path 1966" d="M-377.627,716.542a.129.129,0,0,0-.121.12.638.638,0,0,0,.073.288,4.321,4.321,0,0,1,.311,1.464v17.354c0,.719-.263.84-.912.84a16.4,16.4,0,0,1-1.848-.144.2.2,0,0,0-.168.168c0,.144.768.384.888.432.889.384,1.032.768,1.1,1.7,1.128-.072,2.759-.407,2.759-1.848V718.174c.145-.1.769-.456.769-.672C-374.771,717.142-377.2,716.542-377.627,716.542Z" fill="#fff"/>
        <path id="Path_1967" data-name="Path 1967" d="M-346.522,721.076a2.939,2.939,0,0,1-.409.7c-.263.384-.576.744-.887,1.128a.181.181,0,0,0-.049.12c0,.072.024.12.1.12.312,0,1.8-.84,2.281-.935.168-.025.719.048.719-.24,0-.265-1.44-1.105-1.7-1.081A.457.457,0,0,0-346.522,721.076Z" fill="#fff"/>
        <path id="Path_1968" data-name="Path 1968" d="M-355.619,719.8v7.128c0,.817-.072,1.657-.12,2.473.647-.072,1.464-.145,2.112-.288l-.12-1.2V719.3a2.86,2.86,0,0,0,.288-.264h5.9c-.048.048-.072.072-.12.072A32.178,32.178,0,0,1-353,720.884c-.24.048,0,.121.071.144.385.072,2.521.024,3.121,0a5.593,5.593,0,0,1,.1.889v1.536h-2.4c-.432,0-.864-.072-1.3-.1l.7,1.225.432-.336h1.728a19.248,19.248,0,0,1-2.257,2.592c-.071.1-.335.336-.335.456a.1.1,0,0,0,.1.095,2.131,2.131,0,0,0,.6-.239,12.909,12.909,0,0,0,2.736-1.681V726.5c0,.456-.072.936-.1,1.368a13.02,13.02,0,0,0,1.9-.313,6.492,6.492,0,0,1-.1-.935v-2.376h3.744c.1,0,.313,0,.313-.168,0-.193-.792-1.129-1.032-1.129s-.552.36-.7.505h-2.328v-1.729c.12-.072.408-.288.408-.431a1.565,1.565,0,0,0-.288-.409c.817-.072,1.369-.288,2.328-.335.121,0,.216-.049.216-.193,0-.216-.576-.792-1.1-1.32h2.712l-.025,8.857-.1,1.584a17.225,17.225,0,0,0,2.208-.48c-.048-.7-.121-1.416-.121-2.113V719.42c.168-.144.625-.432.625-.72,0-.168-.384-.408-.5-.48a6.351,6.351,0,0,0-1.537-.864c-.263,0-.7.672-.815.816l-7.321.024c.528-.48,1.056-.48,1.584-.937.12-.023.864-.167.864-.335,0-.36-1.7-1.32-2.136-1.32a.133.133,0,0,0-.12.071c-.072.96-.889,1.681-1.368,2.521a7.412,7.412,0,0,1-1.032-.024c-.408-.048-1.512-.528-2.065-.7a.848.848,0,0,0-.239-.049c-.072,0-.12.025-.12.1a3.312,3.312,0,0,0,.191.648A9.079,9.079,0,0,1-355.619,719.8Z" fill="#fff"/>
        <path id="Path_1969" data-name="Path 1969" d="M-346.354,727.341a2.686,2.686,0,0,0-1.3.864h-3.769l-1.464-.288,1.031,1.44.553-.312h6.528C-344.507,728.781-345.826,727.268-346.354,727.341Z" fill="#fff"/>
        <path id="Path_1970" data-name="Path 1970" d="M-346.066,724.892a3.881,3.881,0,0,0-1.7-.384c-.072,0,.024.073,0,.168,0,.1.36.264.409.336a5.792,5.792,0,0,1,.912,1.273c.216.527.384,1.223,1.08,1.223a.9.9,0,0,0,.815-.959A1.942,1.942,0,0,0-346.066,724.892Z" fill="#fff"/>
        <path id="Path_1971" data-name="Path 1971" d="M-350.987,723.356c.6,0,.792-.456.792-.96,0-.479-.456-.72-.84-.84s-.792-.288-1.176-.383a.109.109,0,0,0-.12.1,1.381,1.381,0,0,0,.311.5C-351.635,722.348-351.995,723.356-350.987,723.356Z" fill="#fff"/>
        <path id="Path_1972" data-name="Path 1972" d="M-357.132,731.325h4.7l-.768.984c-.1.024-.985.264-.985.408a11.742,11.742,0,0,0,1.153,1.537c.1.095.288.359.456.359.288,0,.912-.792,1.056-.936h7.321c-.624,1.441-1.513,3.168-3.313,3.168a11.377,11.377,0,0,1-2.208-.36,2.659,2.659,0,0,0-.6-.119.134.134,0,0,0-.144.119c0,.337,1.224.385,1.561,1.345a4.207,4.207,0,0,1,.288,1.44,16.1,16.1,0,0,0,2.111-.288c2.328-.48,3.48-2.665,4.489-4.608.144-.1.888-.505.888-.744,0-.168-.36-.433-.5-.529a9.428,9.428,0,0,0-1.776-1.128c-.168,0-.769.768-.865.865h-6.96l.888-1.057a1.684,1.684,0,0,0,.744-.456h9.841c.144,0,.264-.072.264-.216,0-.312-1.2-1.464-1.44-1.464-.169,0-.864.744-.936.84h-15.1a12.434,12.434,0,0,1-1.3-.12l.7,1.3Z" fill="#fff"/>
        <path id="Path_1973" data-name="Path 1973" d="M-348.768,745.416a18.042,18.042,0,0,0,18.021-18.022,18.041,18.041,0,0,0-18.021-18.021A17.907,17.907,0,0,0-356,710.9V674.748h5.04v-7.725l-50.565-11.186-.081-.018-50.645,11.2v7.725h4.835v36.193a17.918,17.918,0,0,0-7.025-1.427,18.042,18.042,0,0,0-18.022,18.021,18.043,18.043,0,0,0,18.022,18.022c.4,0,.8-.026,1.19-.052V749.9h-3.291v6.154h109.873V749.9h-3.291v-4.533C-349.564,745.389-349.17,745.416-348.768,745.416Zm0-35.293A17.291,17.291,0,0,1-331.5,727.394a17.291,17.291,0,0,1-17.271,17.272,17.291,17.291,0,0,1-17.272-17.272A17.291,17.291,0,0,1-348.768,710.123Zm-97.9,33.654a17.949,17.949,0,0,0,2.6-1.531v2.936h.75v-3.494a18.2,18.2,0,0,0,2.6-2.513v6.007h.75v-6.941a18.006,18.006,0,0,0,2.6-4.987v11.928h.75V732.427a18,18,0,0,0,2.668,5.47v7.66h64.7V737.63a17.935,17.935,0,0,0,2.463-5.094v12.646h.75V732.536a17.975,17.975,0,0,0,2.6,5.293v7.353h.75V738.8a18.186,18.186,0,0,0,2.6,2.594v3.789h.75V741.96a18.057,18.057,0,0,0,2.6,1.576v2.021h6.04V749.9H-452.5v-4.339h5.835Zm76.662,1.03h-9.416A18.042,18.042,0,0,0-370,738.631Zm-66.526-19.217a17.3,17.3,0,0,1,17.176-15.467,17.291,17.291,0,0,1,17.271,17.271,17.291,17.291,0,0,1-17.271,17.272,17.292,17.292,0,0,1-17.157-15.344c.058-.588.091-1.184.091-1.787A18.108,18.108,0,0,0-436.529,725.59Zm13.517-15.842a18,18,0,0,0-10.2,6.164v-12.3A18.043,18.043,0,0,0-423.012,709.748Zm7.318,0a18.075,18.075,0,0,0,13.987-13.987,18.075,18.075,0,0,0,13.987,13.987,18.075,18.075,0,0,0-13.987,13.987A18.075,18.075,0,0,0-415.694,709.748Zm-17.513,29.117A18.022,18.022,0,0,0-424,744.807h-9.209Zm31.5-7.811A18.079,18.079,0,0,0-388.7,744.807h-26.009A18.079,18.079,0,0,0-401.707,731.054Zm17.646,13.612a17.291,17.291,0,0,1-17.271-17.272,17.291,17.291,0,0,1,17.271-17.271,17.29,17.29,0,0,1,17.271,17.271A17.29,17.29,0,0,1-384.061,744.666ZM-370,703.352v12.8a18.031,18.031,0,0,0-10.4-6.4A18.036,18.036,0,0,0-370,703.352Zm3.214,18.917a17.951,17.951,0,0,0-2.463-5.113V702.361a17.953,17.953,0,0,0,2.464-5.154Zm-17.271-12.9A17.291,17.291,0,0,1-401.332,692.1a17.29,17.29,0,0,1,17.271-17.271A17.29,17.29,0,0,1-366.79,692.1,17.29,17.29,0,0,1-384.061,709.373Zm4.8-34.625H-370v6.105A18.054,18.054,0,0,0-379.266,674.748Zm-22.441,13.694a18.078,18.078,0,0,0-12.8-13.694h25.6A18.078,18.078,0,0,0-401.707,688.442Zm-17.646-13.611A17.29,17.29,0,0,1-402.082,692.1a17.291,17.291,0,0,1-17.271,17.271A17.292,17.292,0,0,1-436.625,692.1,17.291,17.291,0,0,1-419.353,674.831Zm-13.854,5.762v-5.845h9.06A18.056,18.056,0,0,0-433.207,680.593Zm-.75,22.037v14.252a18.012,18.012,0,0,0-2.668,5.432V697.206A17.958,17.958,0,0,0-433.957,702.63ZM-451.5,667.625l49.895-11.037,49.9,11.037v1.722H-451.5Zm0,6.373v-3.9h99.791V674h-5.04v37.263a18.19,18.19,0,0,0-2.6,1.574V674.373h-.75v39.04a18.194,18.194,0,0,0-2.6,2.581V674.373h-.75v42.6a17.9,17.9,0,0,0-2.6,5.308v-47.9h-.75v12.614a17.958,17.958,0,0,0-2.464-5.132V674h-64.7v7.586a17.955,17.955,0,0,0-2.668,5.4V674.373h-.75v47.488a17.9,17.9,0,0,0-2.6-4.981V674.373h-.75v41.546a18.172,18.172,0,0,0-2.6-2.524V674.373h-.75v38.492a18.028,18.028,0,0,0-2.6-1.562V674Zm-20.212,53.537a17.291,17.291,0,0,1,17.272-17.271,17.291,17.291,0,0,1,17.156,15.343c-.058.588-.091,1.184-.091,1.787a18.128,18.128,0,0,0,.11,1.946,17.3,17.3,0,0,1-17.175,15.467A17.291,17.291,0,0,1-471.712,727.535Zm24.3,16.578v.694h-1.927A17.653,17.653,0,0,0-447.415,744.113Zm100,6.533V755.3H-455.791v-4.654h108.373ZM-356,744.807v-.92a17.954,17.954,0,0,0,2.589.92Z" fill="#fff"/>
      </g>
    </g>
  </g>
</svg>
