<svg xmlns="http://www.w3.org/2000/svg" width="211.086" height="246.488" viewBox="0 0 211.086 246.488"><g transform="translate(0 0)"><g transform="translate(0 70.659)"><path d="M-604.583,118.564c-.114-.039-11.445-4.081-10.5-16.64s12.759-14.849,12.878-14.871l.248,1.356c-.445.081-10.885,2.142-11.752,13.622-.869,11.508,9.467,15.194,9.573,15.231Z" transform="translate(657.897 -54.795)" fill="#caa846"/><path d="M-606.012,162.712l-.479-.162c-.347-.116-34.556-12.088-31.762-49.148h0c2.8-37.064,38.423-43.761,38.783-43.823l.5-.088,24.562,47.416,7.048-9.695-1.732,22.951-5.514-10.643ZM-636.88,113.5h0c-2.538,33.621,26.292,46,30.357,47.568l31.206-42.919-24.408-47.115C-603.979,71.98-634.338,79.887-636.88,113.5Zm63.176,4.772,3.6,6.947,1-13.277Z" transform="translate(638.416 -69.491)" fill="#caa846"/><rect width="38.481" height="1.379" transform="matrix(0.765, -0.644, 0.644, 0.765, 19.512, 85.203)" fill="#caa846"/><rect width="40.752" height="1.378" transform="matrix(0.89, -0.456, 0.456, 0.89, 9.788, 75.665)" fill="#caa846"/><rect width="41.935" height="1.379" transform="translate(3.581 64.555) rotate(-15.935)" fill="#caa846"/><rect width="42.548" height="1.378" transform="translate(0.737 50.273) rotate(-2.013)" fill="#caa846"/><rect width="1.378" height="38.481" transform="translate(25.464 6.372) rotate(-41.276)" fill="#caa846"/><rect width="1.377" height="40.753" transform="translate(14.418 14.339) rotate(-54.261)" fill="#caa846"/><rect width="1.378" height="41.934" transform="matrix(0.416, -0.91, 0.91, 0.416, 6.611, 24.399)" fill="#caa846"/><rect width="1.378" height="42.548" transform="translate(1.656 38.091) rotate(-79.365)" fill="#caa846"/></g><g transform="translate(122.449 0)"><path d="M-536.456,74.572l-1.31-.426c.14-.43,3.286-10.6-6.4-16.814-9.711-6.232-17.869,1.113-17.949,1.188l-.935-1.014c.088-.081,9.028-8.135,19.63-1.332S-536.417,74.456-536.456,74.572Z" transform="translate(579.033 -12.26)" fill="#caa846"/><path d="M-541.28,104.253l-19.371-12.428,11.984.2-23.085-48.153.369-.345c.268-.248,27.053-24.669,58.339-4.6s20.251,54.6,20.135,54.943l-.16.479-53.393-.913Zm-14.546-10.97,11.206,7.189L-548,93.418Zm8.7-1.229,53.055.909c1.192-4.192,8.659-34.665-19.718-52.873s-52.963,1.288-56.277,4.116Z" transform="translate(571.753 -31.023)" fill="#caa846"/><rect width="1.378" height="38.481" transform="translate(11.831 5.599) rotate(-11.724)" fill="#caa846"/><rect width="40.752" height="1.378" transform="translate(23.914 42.004) rotate(-88.732)" fill="#caa846"/><rect width="41.934" height="1.378" transform="matrix(0.216, -0.976, 0.976, 0.216, 28.527, 41.76)" fill="#caa846"/><rect width="42.549" height="1.377" transform="translate(32.71 42.906) rotate(-63.635)" fill="#caa846"/><rect width="38.481" height="1.378" transform="matrix(0.975, -0.224, 0.224, 0.975, 42.212, 56.613)" fill="#caa846"/><rect width="40.752" height="1.377" transform="translate(41.291 52.291) rotate(-25.864)" fill="#caa846"/><rect width="41.934" height="1.378" transform="matrix(0.798, -0.603, 0.603, 0.798, 39.355, 48.133)" fill="#caa846"/><rect width="42.549" height="1.377" transform="matrix(0.629, -0.777, 0.777, 0.629, 36.349, 45.062)" fill="#caa846"/></g><g transform="matrix(0.996, -0.087, 0.087, 0.996, 131.257, 129.412)"><path d="M5.163,26.875A17.256,17.256,0,0,1,0,26.125l.461-1.3c.426.149,10.5,3.571,16.981-5.946C23.934,9.34,16.814.99,16.741.906L17.779,0c.079.092,7.885,9.247.8,19.658A15.633,15.633,0,0,1,5.163,26.875Z" transform="translate(10.586 15.097)" fill="#caa846"/><path d="M25.13,79.854a52.739,52.739,0,0,1-16.07-2.393l-.476-.173,2.36-53.349L0,28.827,12.948,9.8l-.529,11.974L61.179,0l.336.378c.241.274,23.925,27.712,3.014,58.442C52.809,76.045,36.9,79.854,25.13,79.854ZM10.005,76.322c4.157,1.3,34.419,9.6,53.387-18.28S63.541,5.066,60.8,1.677L12.349,23.311Zm1.352-61.74L3.867,25.591,11.012,22.4Z" transform="translate(0 0)" fill="#caa846"/><rect width="38.48" height="1.378" transform="translate(30.235 18.827) rotate(-10.198)" fill="#caa846"/><rect width="1.378" height="40.752" transform="translate(31.323 24.493) rotate(-87.186)" fill="#caa846"/><rect width="1.377" height="41.935" transform="matrix(0.242, -0.97, 0.97, 0.242, 31.173, 29.081)" fill="#caa846"/><rect width="1.379" height="42.549" transform="translate(29.606 33.1) rotate(-62.081)" fill="#caa846"/><rect width="1.378" height="38.481" transform="translate(14.948 41.28) rotate(-11.358)" fill="#caa846"/><rect width="1.378" height="40.752" transform="translate(19.372 40.779) rotate(-24.343)" fill="#caa846"/><rect width="1.377" height="41.935" transform="translate(23.72 39.187) rotate(-35.528)" fill="#caa846"/><rect width="1.378" height="42.548" transform="translate(27.108 36.503) rotate(-49.449)" fill="#caa846"/></g><g transform="translate(82.452 31.161)"><path d="M-576.4,61.566a41.622,41.622,0,0,1-10.284,9.618c-.771.514-5.812,4.012-6.583,4.012-.206,0-.257-.1-.257-.257,0-.411,1.08-1.234,1.337-1.492,1.284-1.183,2.52-2.366,3.755-3.6a52.3,52.3,0,0,0,5.915-7.1,60.69,60.69,0,0,0,5.143-8.332,25.151,25.151,0,0,0,2-4.526c.1-.36.154-1.9.568-1.9.874,0,5.966,2.109,5.966,2.829,0,.669-.514.926-1.08,1.131a46.2,46.2,0,0,0,9.513,12.086,47.156,47.156,0,0,0,5.4,4.68l2.674,1.852c.1.1.617.411.617.566,0,.463-1.08.463-1.438.514a8.148,8.148,0,0,0-4.629,1.852c-5.349-5.092-8.126-7.766-11.212-14.658a18.936,18.936,0,0,1-1.234-3.394l-.566-2.469C-572.6,55.857-574.4,58.789-576.4,61.566Zm10.7,16.921c.2-.257,1.337-2.057,1.7-2.057.771,0,4.579,2.263,4.579,2.726s-.825,1.131-1.183,1.44V90.779c0,1.492.2,3.086.257,4.577-1.594.566-3.24,1.029-4.886,1.44l.1-2.263h-14.915v1.029a22.252,22.252,0,0,1-4.425,1.08c.053-1.7.259-3.5.259-5.195V81.367a19.1,19.1,0,0,0-.206-3.446,5.25,5.25,0,0,1-.566-1.492c0-.257.05-.411.358-.411,1.082,0,4.783,1.9,5.812,2.469Zm-.979-11.521c.619,0,2.625,2.109,2.779,2.263.257.257.771.771.771,1.08a.509.509,0,0,1-.514.463h-16.048l-.771.771-2.107-2.88c.874.051,1.9.257,2.829.257h10.389C-568.893,68.663-567.349,66.966-566.683,66.966Zm1.545,25.716V80.287h-14.195l-.72.72V92.682Z" transform="translate(593.528 -47.988)" fill="#caa846"/><path d="M-589.357,100.383l-.926.669-2.057-2.777c.975.1,2.109.309,3.086.309h6.583v-9.36c-2.932.514-5.865.771-8.795,1.029-.154,0-.309-.051-.309-.206,0-.514,1.8-.874,2.212-1.029a51.268,51.268,0,0,0,6.223-2.623,33.011,33.011,0,0,0,7.252-4.217c.977-.1,4.372,4.783,4.372,5.04,0,.36-.926.36-1.183.36a10.248,10.248,0,0,0-1.749.257c-1.492.309-2.983.566-4.526.926.463.154,1.9.669,1.9,1.286s-.669,1.029-1.183,1.234v7.3h1.492c.308-.309,2.006-2.212,2.572-2.212.617,0,3.292,2.88,3.292,3.5,0,.411-.566.514-.874.514h-6.48V102.8c2.109,1.44,4.372,2.726,5.555,4.989a5.418,5.418,0,0,1,.821,2.623,2.525,2.525,0,0,1-2.416,2.623c-1.851,0-2.059-1.7-2.213-3.137-.1-.874-.255-1.749-.358-2.623a8.341,8.341,0,0,0-1.389-3.652V123.99c0,1.646.154,3.343.255,4.989a25.668,25.668,0,0,1-4.781,1.08c.1-2.006.309-4.115.309-6.172V109.075a70.136,70.136,0,0,1-8.641,11.881c-.257.206-1.286,1.492-1.594,1.492-.154,0-.259-.206-.259-.309a13.435,13.435,0,0,1,1.236-2.417,84.226,84.226,0,0,0,7.509-19.338Zm18.771,20.007V95.5a27.18,27.18,0,0,0-.2-4.629,6.427,6.427,0,0,1-.463-1.131c0-.206.257-.257.463-.257.821,0,4.113,1.749,4.937,2.263h5.5c.206-.309,1.13-1.749,1.7-1.749a3.357,3.357,0,0,1,1.183.463l2.211,1.44c.309.206.926.669.926,1.08,0,.72-.825,1.029-1.337,1.337V120.75c0,1.389.2,2.829.257,4.217a20.645,20.645,0,0,1-4.629,1.286l.154-4.217h-6.738v3.189a14.991,14.991,0,0,1-4.217,1.08C-570.791,124.35-570.587,122.345-570.587,120.39Zm10.7-.154V93.543h-5.657l-1.08.72v25.973Z" transform="translate(593.832 -19.379)" fill="#caa846"/><path d="M-575.767,120.465a15.573,15.573,0,0,0-.309-3.034c-.1-.514-.566-.977-.566-1.492,0-.309.1-.358.411-.358.463,0,6.789,1.284,6.789,2.313,0,.411-1.6,1.442-1.9,1.646v10.132h1.7c1.44-2.415,4.783-8.435,5.038-11.315a.391.391,0,0,1,.259-.051,40.46,40.46,0,0,1,5.45,2.417c.208.1.516.309.516.617,0,.566-1.491.926-1.853,1.029-2.417,2.469-4.884,4.937-7.355,7.3h7.766c.259-.309,1.185-1.852,1.75-1.852,1.183,0,4.474,2.728,4.987,3.5a1.556,1.556,0,0,1,.259.823c0,1.337-2.368,1.234-3.242,1.337a6.871,6.871,0,0,0-3.393,1.286,3.782,3.782,0,0,1-1.337.874c-.1,0-.1-.1-.1-.206,0-.154,1.029-3.5,1.183-3.909h-27.721a7.95,7.95,0,0,1,.052,1.131c0,1.9-1.337,4.063-3.446,4.063-1.7,0-2.16-.977-2.16-2.572,0-1.953,2.366-2.623,3.034-4.372a12.879,12.879,0,0,0,.566-2.518c0-.1.052-.362.206-.362a.55.55,0,0,1,.257.1,26.051,26.051,0,0,1,1.183,2.674h11.983Zm0,33.173h-9.311l-.821.823-1.594-2.829c.924.051,1.9.206,2.829.206h8.9v-2.572a19.057,19.057,0,0,0-.411-3.754h-4.166v1.337a42.454,42.454,0,0,1-4.425.977c.1-1.543.31-3.137.31-4.629V138.26a21.278,21.278,0,0,0-.31-3.5,5.837,5.837,0,0,1-.41-1.08c0-.257.309-.36.514-.36.72,0,4.938,1.9,5.657,2.212H-567.9c.309-.411,1.133-1.9,1.8-1.9a4.711,4.711,0,0,1,1.646.72c.154.1,3.137,1.646,3.137,2.212,0,.463-1.337,1.286-1.593,1.492v4.732c0,1.337.1,2.726.154,4.063a25.591,25.591,0,0,1-4.783,1.029l.206-2.366h-6.688c.568.206,4.373,1.286,4.373,1.852,0,.36-1.44,1.286-1.646,1.44v3.034h5.5c.154-.206,1.7-2.314,2.162-2.314.358,0,.821.463,1.08.669l2,1.9a1.592,1.592,0,0,1,.566.977c0,.411-.257.566-.615.566l-10.7.051v6.532h9.256c.208-.257,2.162-2.726,2.674-2.726.413,0,1.133.669,1.391.926.36.309,2.827,2.212,2.827,3.034,0,.566-.617.617-.975.617h-32.916l-.825.771-1.593-2.829c.926.051,1.954.206,2.88.206h12.806Zm-11.265-34.819a20.328,20.328,0,0,1,3.6,1.337,6.362,6.362,0,0,1,3.6,3.034,7.321,7.321,0,0,1,.669,2.573,2.667,2.667,0,0,1-2.674,2.724c-2.366,0-2.469-2.16-2.674-4.012a7.684,7.684,0,0,0-2.214-4.629c-.1-.1-.667-.617-.667-.771C-587.39,118.873-587.133,118.819-587.032,118.819Zm19.7,24.893v-6.377h-12.344l-.668.823v5.555Z" transform="translate(593.973 8.576)" fill="#caa846"/></g></g><path d="M.636,7.19V6.22a1.825,1.825,0,0,0,1.047-.309,1.253,1.253,0,0,0,.408-.794,8.427,8.427,0,0,0,.088-1.345V-5.4q0-.485.022-.937t.044-.782q-.375.022-.816.044t-.794.044V-8.239H6.058v.97a1.688,1.688,0,0,0-1.036.3,1.266,1.266,0,0,0-.419.794,8.388,8.388,0,0,0-.088,1.356V-1.23h7.3V-5.4q0-.485.022-.937t.044-.782q-.375.022-.816.044t-.794.044V-8.239h5.422v.97a1.688,1.688,0,0,0-1.036.3,1.266,1.266,0,0,0-.419.794,8.388,8.388,0,0,0-.088,1.356V4.236q0,.6-.011,1.069a6.162,6.162,0,0,1-.055.76q.375-.044.816-.055t.794-.033V7.19H10.268V6.22a1.825,1.825,0,0,0,1.047-.309,1.253,1.253,0,0,0,.408-.794,8.428,8.428,0,0,0,.088-1.345V-.084l-7.3.066V4.236q0,.6-.011,1.069a6.163,6.163,0,0,1-.055.76q.375-.044.827-.055t.782-.033V7.19Zm26.935.353a8.3,8.3,0,0,1-3.582-.705,6.6,6.6,0,0,1-2.414-1.885,8.009,8.009,0,0,1-1.367-2.612,9.7,9.7,0,0,1-.441-2.865,8.849,8.849,0,0,1,.474-2.81,8.339,8.339,0,0,1,1.433-2.612,7.194,7.194,0,0,1,2.4-1.918,7.43,7.43,0,0,1,3.383-.727,7.782,7.782,0,0,1,3.494.727,6.966,6.966,0,0,1,2.414,1.929A8.628,8.628,0,0,1,34.79-3.324a8.749,8.749,0,0,1,.474,2.8,8.786,8.786,0,0,1-.474,2.788,8.474,8.474,0,0,1-1.433,2.623,7.165,7.165,0,0,1-2.392,1.929A7.413,7.413,0,0,1,27.571,7.543Zm.11-1.146A4.161,4.161,0,0,0,29.9,5.823,4.728,4.728,0,0,0,31.44,4.292a7.143,7.143,0,0,0,.893-2.116,9.553,9.553,0,0,0,.287-2.3,11.094,11.094,0,0,0-.331-2.722,7.907,7.907,0,0,0-1-2.358,5.179,5.179,0,0,0-1.664-1.653,4.307,4.307,0,0,0-2.292-.606,4.1,4.1,0,0,0-2.226.6A4.8,4.8,0,0,0,23.56-5.319,7.55,7.55,0,0,0,22.667-3.2a9.3,9.3,0,0,0-.3,2.325,10.344,10.344,0,0,0,.309,2.425,8.861,8.861,0,0,0,.948,2.381,5.406,5.406,0,0,0,1.642,1.785A4.183,4.183,0,0,0,27.681,6.4ZM39.32,6.22a1.825,1.825,0,0,0,1.047-.309,1.253,1.253,0,0,0,.408-.794,8.428,8.428,0,0,0,.088-1.345V-5.4q0-.485.022-.937t.044-.782q-.375.022-.816.044t-.794.044V-8.239q1.3-.022,2.645-.033T44.7-8.283a10.9,10.9,0,0,1,3.516.5,4.648,4.648,0,0,1,2.226,1.5,4.08,4.08,0,0,1,.8,2.524,4.835,4.835,0,0,1-.309,1.774,4.567,4.567,0,0,1-1.124,1.7A5.787,5.787,0,0,1,47.662.974a10.227,10.227,0,0,1-3.405.485q-.22.022-.5.022T43.2,1.459V4.236q0,.6-.011,1.069a6.162,6.162,0,0,1-.055.76l.661-.044q.353-.022.694-.033t.628-.033V7.19h-5.8ZM43.2.291q.375.044.65.055t.65.011a4.913,4.913,0,0,0,2.182-.463A3.445,3.445,0,0,0,48.158-1.45a3.994,3.994,0,0,0,.529-2.094,4.354,4.354,0,0,0-.32-1.774,2.722,2.722,0,0,0-.882-1.124A3.624,3.624,0,0,0,46.2-7.027,6.531,6.531,0,0,0,44.654-7.2a1.471,1.471,0,0,0-.97.265,1.259,1.259,0,0,0-.4.771,7.836,7.836,0,0,0-.088,1.3Zm19.926,6.9V6.22a1.825,1.825,0,0,0,1.047-.309,1.253,1.253,0,0,0,.408-.794,8.427,8.427,0,0,0,.088-1.345V-5.4q0-.485.022-.937t.044-.782q-.375.022-.816.044t-.794.044V-8.239h5.422v.97a1.688,1.688,0,0,0-1.036.3,1.266,1.266,0,0,0-.419.794A8.388,8.388,0,0,0,67-4.823V-1.23h7.3V-5.4q0-.485.022-.937t.044-.782q-.375.022-.816.044t-.794.044V-8.239h5.422v.97a1.688,1.688,0,0,0-1.036.3,1.266,1.266,0,0,0-.419.794,8.388,8.388,0,0,0-.088,1.356V4.236q0,.6-.011,1.069a6.163,6.163,0,0,1-.055.76q.375-.044.816-.055t.794-.033V7.19H72.757V6.22A1.825,1.825,0,0,0,73.8,5.912a1.253,1.253,0,0,0,.408-.794A8.427,8.427,0,0,0,74.3,3.774V-.084L67-.018V4.236q0,.6-.011,1.069a6.163,6.163,0,0,1-.055.76q.375-.044.827-.055t.782-.033V7.19Zm26.935.353a8.3,8.3,0,0,1-3.582-.705,6.6,6.6,0,0,1-2.414-1.885A8.009,8.009,0,0,1,82.7,2.341a9.7,9.7,0,0,1-.441-2.865,8.849,8.849,0,0,1,.474-2.81,8.339,8.339,0,0,1,1.433-2.612,7.194,7.194,0,0,1,2.4-1.918,7.43,7.43,0,0,1,3.383-.727,7.782,7.782,0,0,1,3.494.727,6.966,6.966,0,0,1,2.414,1.929,8.628,8.628,0,0,1,1.422,2.612,8.749,8.749,0,0,1,.474,2.8,8.786,8.786,0,0,1-.474,2.788,8.474,8.474,0,0,1-1.433,2.623,7.165,7.165,0,0,1-2.392,1.929A7.413,7.413,0,0,1,90.06,7.543ZM90.17,6.4a4.161,4.161,0,0,0,2.215-.573,4.728,4.728,0,0,0,1.543-1.532,7.143,7.143,0,0,0,.893-2.116,9.553,9.553,0,0,0,.287-2.3,11.094,11.094,0,0,0-.331-2.722,7.907,7.907,0,0,0-1-2.358A5.179,5.179,0,0,0,92.11-6.862a4.307,4.307,0,0,0-2.292-.606,4.1,4.1,0,0,0-2.226.6,4.8,4.8,0,0,0-1.543,1.554A7.55,7.55,0,0,0,85.156-3.2a9.3,9.3,0,0,0-.3,2.325,10.344,10.344,0,0,0,.309,2.425,8.861,8.861,0,0,0,.948,2.381,5.406,5.406,0,0,0,1.642,1.785A4.183,4.183,0,0,0,90.17,6.4Zm31.366-9.875a7.5,7.5,0,0,0-.287-2.094,2.309,2.309,0,0,0-.871-1.256,2.784,2.784,0,0,0-1.664-.4h-1.587l-.022,11.462q0,.6-.011,1.069a6.164,6.164,0,0,1-.055.76q.419-.044.915-.055t.893-.033V7.19h-5.6V6.22a1.766,1.766,0,0,0,1.036-.309,1.291,1.291,0,0,0,.4-.8,8.469,8.469,0,0,0,.088-1.334V-7.2l-1.852.022a2.206,2.206,0,0,0-1.962.9,5.033,5.033,0,0,0-.617,2.8H109.3l.132-4.761h13l.132,4.761ZM133.968,7.543a8.3,8.3,0,0,1-3.582-.705,6.6,6.6,0,0,1-2.414-1.885,8.009,8.009,0,0,1-1.367-2.612,9.7,9.7,0,0,1-.441-2.865,8.849,8.849,0,0,1,.474-2.81,8.339,8.339,0,0,1,1.433-2.612,7.194,7.194,0,0,1,2.4-1.918,7.43,7.43,0,0,1,3.383-.727,7.782,7.782,0,0,1,3.494.727,6.966,6.966,0,0,1,2.414,1.929,8.628,8.628,0,0,1,1.422,2.612,8.749,8.749,0,0,1,.474,2.8,8.785,8.785,0,0,1-.474,2.788,8.474,8.474,0,0,1-1.433,2.623,7.165,7.165,0,0,1-2.392,1.929A7.413,7.413,0,0,1,133.968,7.543Zm.11-1.146a4.161,4.161,0,0,0,2.215-.573,4.728,4.728,0,0,0,1.543-1.532,7.142,7.142,0,0,0,.893-2.116,9.554,9.554,0,0,0,.287-2.3,11.093,11.093,0,0,0-.331-2.722,7.908,7.908,0,0,0-1-2.358,5.18,5.18,0,0,0-1.664-1.653,4.307,4.307,0,0,0-2.292-.606,4.1,4.1,0,0,0-2.226.6,4.8,4.8,0,0,0-1.543,1.554,7.55,7.55,0,0,0-.893,2.116,9.3,9.3,0,0,0-.3,2.325,10.344,10.344,0,0,0,.309,2.425,8.86,8.86,0,0,0,.948,2.381,5.406,5.406,0,0,0,1.642,1.785A4.183,4.183,0,0,0,134.078,6.4Zm23.585,1.1-8.2-10.889q-.242-.287-.463-.6t-.463-.639h-.022l.066,8.574q0,.551-.011,1.1t-.055,1.014q.375-.044.827-.055t.782-.033V7.19H145.76V6.22a1.533,1.533,0,0,0,.937-.242,1.233,1.233,0,0,0,.441-.639,3.178,3.178,0,0,0,.121-.926V-6.344q0-.441.022-.771-.353.022-.782.044t-.76.044V-8.239h2.91l7.759,10.205q.375.485.672.9t.584.794h.022l.022-9.059q0-.485.022-.937t.044-.782l-.838.044q-.441.022-.771.044V-8.239h4.364v.97a1.636,1.636,0,0,0-1.025.3,1.246,1.246,0,0,0-.4.794,9.566,9.566,0,0,0-.077,1.356L159.007,7.5Zm14.261.044a7.814,7.814,0,0,1-3.946-.97,6.642,6.642,0,0,1-2.623-2.722,8.629,8.629,0,0,1-.926-4.089,9.825,9.825,0,0,1,.474-3.02,8.473,8.473,0,0,1,1.433-2.689,6.961,6.961,0,0,1,2.4-1.929,7.473,7.473,0,0,1,3.361-.716,9.256,9.256,0,0,1,1.521.132,9.451,9.451,0,0,1,1.554.4,7.21,7.21,0,0,1,1.378.639l-.088-1.014h1.367v5.07h-1.014a4.546,4.546,0,0,0-.738-2.237,4.074,4.074,0,0,0-1.609-1.389,4.925,4.925,0,0,0-2.171-.474,4.4,4.4,0,0,0-2.127.518,5.231,5.231,0,0,0-1.664,1.433,6.808,6.808,0,0,0-1.091,2.149,8.822,8.822,0,0,0-.386,2.645,9.111,9.111,0,0,0,.672,3.6,5.821,5.821,0,0,0,1.907,2.48,4.756,4.756,0,0,0,2.887.9,7.46,7.46,0,0,0,1.157-.1,7.832,7.832,0,0,0,1.256-.309,4.908,4.908,0,0,0,1.135-.54V2.848q0-.551.011-1.091t.011-1q-.353.022-.794.044T174.5.842V-.37h5.268V.6a1.369,1.369,0,0,0-.849.242,1.387,1.387,0,0,0-.463.606,2.964,2.964,0,0,0-.187.771,7.1,7.1,0,0,0-.044.76V6.419h-.573a4.861,4.861,0,0,0-1.08.143,11.542,11.542,0,0,0-1.389.43,9.7,9.7,0,0,1-1.565.4A9.847,9.847,0,0,1,171.924,7.543Z" transform="translate(15.226 238.945)" fill="#caa846"/></svg>