<svg xmlns="http://www.w3.org/2000/svg" width="135.444" height="137.192" viewBox="0 0 135.444 137.192"><g transform="translate(-164.278 -1338)"><g transform="translate(817.911 894.515)"><path d="M-575.813,492.688c.168,0,.337.167.449.28l1.12,1.092a.654.654,0,0,1,.28.448.31.31,0,0,1-.308.307h-19.712l-.56.336-.98-1.427c.56.055,1.176.168,1.708.168h16.632C-577.128,493.836-576.092,492.688-575.813,492.688Zm-9.911-19.209h-4.9l-.56.365-.98-1.428c.56.056,1.176.168,1.708.168h4.732v-1.232a4.919,4.919,0,0,0-.112-1.289,1.762,1.762,0,0,1-.224-.643c0-.168.056-.225.2-.225.476,0,3,.645,3,1.12,0,.281-.308.477-.5.617v1.652h3.7c.084-.084.784-1.036.98-1.036a2.028,2.028,0,0,1,.644.336l1.316.868c.111.084.392.279.392.447,0,.225-.672.784-.784.9v1.036h.587c.141-.168.812-1.176,1.177-1.176.224,0,.447.279.56.42.168.2,1.008,1.092,1.008,1.428a.265.265,0,0,1-.28.28h-3.052V477.4c0,.477.056.981.084,1.456-.784.224-1.6.393-2.408.561l.056-.728h-3.976v1.9h3.892c.112-.141.84-1.065,1.176-1.065.392,0,1.092,1.036,1.26,1.233a.791.791,0,0,1,.252.475c0,.2-.28.281-.448.281h-6.132v1.568h5.712c.112-.112.952-1.12,1.26-1.12.336,0,1.372,1.2,1.512,1.344.112.112.28.28.28.448s-.2.223-.336.223h-17.668l-.56.365-1.008-1.428c.56.056,1.176.168,1.708.168h6.748v-1.568h-4.9l-.56.336-.98-1.428c.56.055,1.176.168,1.708.168h4.732v-1.9h-4.536l-.56.335-1.008-1.427c.56.055,1.176.168,1.708.168h4.4v-1.68h-7.728l-.56.308-.98-1.4c.532.029,1.148.141,1.708.141h7.56Zm5.824,18.676h-9.352v.309a18.147,18.147,0,0,1-2.38.531c.028-.756.14-1.567.14-2.323v-4.2c0-.281-.028-.588-.056-.868a1.985,1.985,0,0,0-.168-.7.684.684,0,0,1-.112-.252c0-.084.168-.139.252-.139a1.425,1.425,0,0,1,.336.084,17.141,17.141,0,0,1,2.6.979h8.372c.112-.139.756-1.008,1.008-1.008a1.227,1.227,0,0,1,.588.252c.112.084,1.736,1.008,1.736,1.288,0,.252-.532.672-.7.813V490.2c0,.7.084,1.428.14,2.128a19.265,19.265,0,0,1-2.492.7Zm-5.824-3.668V486.5h-3.22l-.308.168v1.819Zm0,2.744v-1.82h-3.528v1.82Zm5.824-2.744V486.5h-3.22l-.392.252v1.735Zm0,2.744v-1.82h-3.612v1.82Zm.5-16.1v-1.653h-3.976v1.653Zm0,2.687v-1.735h-3.976v1.735Z" fill="#fff"/><path d="M-587.068,508.956c0-.057.028-.112.028-.168.476,0,3,.84,3,1.26,0,.28-.532.391-.728.42l-2.464,4.479h1.372c.14-.168.9-1.119,1.2-1.119.2,0,.42.224.56.336.2.2,1.232,1.035,1.232,1.456a.281.281,0,0,1-.308.308h-10.5l-.5.364-.952-1.54c.588.056,1.232.2,1.82.2h5.124A24.327,24.327,0,0,0-587.068,508.956Zm1.848-2.436c.168,0,.42.224.532.335l1.064,1.037a.728.728,0,0,1,.252.5c0,.224-.224.251-.42.251h-8.988l-.5.365-.952-1.512c.588.056,1.232.168,1.792.168h5.964C-586.4,507.584-585.5,506.52-585.22,506.52Zm-2.408,19.431h-2.912V527.1a14.759,14.759,0,0,1-2.464.755c.056-.979.168-2.015.168-3V519.68a6.418,6.418,0,0,0-.056-1.036c-.056-.392-.364-.785-.364-.98,0-.112.14-.141.224-.141a9.267,9.267,0,0,1,3.024.869h2.016c.112-.168.784-1.092,1.064-1.092a11.069,11.069,0,0,1,2.072,1.2c.168.084.42.279.42.5,0,.252-.7.756-.868.868V524.3c0,.784.112,1.567.14,2.351a10.007,10.007,0,0,1-2.548.785Zm-4.676-16.632a7.444,7.444,0,0,1,1.54.925,10,10,0,0,1,.784.756,2.253,2.253,0,0,1,.616,1.651c0,.813-.392,1.456-1.26,1.456-.756,0-.952-.5-.952-1.175,0-.336.056-.672.056-1.008a3.783,3.783,0,0,0-.476-1.849,3.165,3.165,0,0,1-.476-.643C-592.388,509.348-592.36,509.319-592.3,509.319Zm1.68-6.664a8.853,8.853,0,0,1,1.456.477,3.1,3.1,0,0,1,1.568,1.288,3.036,3.036,0,0,1,.42,1.315,1.358,1.358,0,0,1-1.344,1.4,1.119,1.119,0,0,1-1.064-.756c-.056-.28-.056-.561-.084-.84a3.835,3.835,0,0,0-.532-1.849c-.084-.2-.616-.952-.616-.952C-590.82,502.655-590.68,502.655-590.624,502.655Zm3,22.317v-5.6h-2.6l-.308.308v5.292Zm5.684-.281V506.855a9.629,9.629,0,0,0-.028-1.259,6.712,6.712,0,0,0-.28-.981c0-.111.084-.168.2-.168a12.3,12.3,0,0,1,2.743,1.065h1.681c.14-.168.7-.981.952-.981.5,0,2.659,1.485,2.659,2.073,0,.251-.839.587-1.035.671l-2.716,6.357c1.988,2.324,3.5,3.723,3.5,7.027a5.879,5.879,0,0,1-.2,1.569,3.969,3.969,0,0,1-1.008,1.595,3.434,3.434,0,0,1-2.268.925,2.25,2.25,0,0,0-.644-1.736,5.029,5.029,0,0,0-.952-.729.41.41,0,0,1-.168-.139c0-.2.112-.2.252-.2.308,0,.616.029.923.029,1.625,0,1.708-.56,1.708-2.073a9.325,9.325,0,0,0-2.071-6.215c.336-1.625.7-3.249.952-4.873l.336-2.239h-2.156l-.224.336v17.359c0,1.4.14,2.829.2,4.229a13.058,13.058,0,0,1-2.548.56C-582.084,527.688-581.944,526.008-581.944,524.691Z" fill="#fff"/><rect width="31.45" height="0.75" transform="translate(-565.84 534.38)" fill="#fff"/><rect width="32.424" height="0.75" transform="translate(-551.498 537.685)" fill="#fff"/><rect width="0.75" height="12.474" transform="translate(-546.983 443.485)" fill="#fff"/><path d="M-544.51,456.22l-.733-.156,1.771-8.266.733.156Z" fill="#fff"/><rect width="12.474" height="0.75" transform="translate(-543.274 456.652) rotate(-63.568)" fill="#fff"/><rect width="8.454" height="0.75" transform="translate(-541.759 457.521) rotate(-51.503)" fill="#fff"/><rect width="12.474" height="0.75" transform="matrix(0.797, -0.604, 0.604, 0.797, -540.257, 458.924)" fill="#fff"/><rect width="8.454" height="0.751" transform="translate(-539.285 460.374) rotate(-25.098)" fill="#fff"/><rect width="12.474" height="0.75" transform="matrix(0.797, -0.604, 0.604, 0.797, -540.257, 458.924)" fill="#fff"/><rect width="8.454" height="0.751" transform="translate(-539.285 460.374) rotate(-25.098)" fill="#fff"/><rect width="12.474" height="0.75" transform="translate(-538.563 462.305) rotate(-10.812)" fill="#fff"/><rect width="0.75" height="12.474" transform="translate(-538.751 466.804) rotate(-74.409)" fill="#fff"/><rect width="0.75" height="8.454" transform="translate(-539.466 468.393) rotate(-62.307)" fill="#fff"/><rect width="0.75" height="12.473" transform="translate(-540.719 470.028) rotate(-48.01)" fill="#fff"/><path d="M-539.32,483.638l-4.594-11.6.7-.275,4.594,11.6Z" fill="#fff"/><path d="M-544.215,480.77l-1.4-8.337.739-.123,1.4,8.337Z" fill="#fff"/><rect width="12.474" height="0.75" transform="translate(-548.713 484.854) rotate(-85.218)" fill="#fff"/><rect width="12.474" height="0.75" transform="matrix(0.518, -0.855, 0.855, 0.518, -557.669, 481.765)" fill="#fff"/><rect width="8.454" height="0.75" transform="matrix(0.685, -0.728, 0.728, 0.685, -558.341, 476.135)" fill="#fff"/><rect width="12.474" height="0.75" transform="translate(-564.313 475.024) rotate(-32.448)" fill="#fff"/><rect width="8.453" height="0.75" transform="matrix(0.938, -0.348, 0.348, 0.938, -562.415, 469.676)" fill="#fff"/><rect width="0.75" height="8.454" transform="translate(-563.271 462.823) rotate(-83.919)" fill="#fff"/><rect width="0.75" height="12.474" transform="translate(-566.177 457.351) rotate(-69.616)" fill="#fff"/><rect width="0.75" height="8.454" transform="translate(-560.912 455.56) rotate(-57.518)" fill="#fff"/><rect width="0.75" height="12.474" transform="translate(-561.081 449.367) rotate(-43.22)" fill="#fff"/><rect width="0.749" height="8.454" transform="translate(-555.57 450.104) rotate(-31.122)" fill="#fff"/><path d="M-615.821,526.2h-25.7v-.75h25.7a3.728,3.728,0,0,0,3.723-3.724v-.543a3.727,3.727,0,0,0-3.723-3.723h-15.923a4.479,4.479,0,0,1-4.473-4.474,4.478,4.478,0,0,1,4.473-4.473H-609a3.9,3.9,0,0,0,3.892-3.893A3.9,3.9,0,0,0-609,500.731h-31.988a4.843,4.843,0,0,1-4.839-4.837,4.845,4.845,0,0,1,4.839-4.839h24.513a3.831,3.831,0,0,0,3.827-3.826,3.832,3.832,0,0,0-3.827-3.828h-11.34a4.464,4.464,0,0,1-4.46-4.459,4.465,4.465,0,0,1,4.46-4.46h19.627v.75h-19.627a3.714,3.714,0,0,0-3.71,3.71,3.714,3.714,0,0,0,3.71,3.709h11.34a4.583,4.583,0,0,1,4.577,4.578,4.582,4.582,0,0,1-4.577,4.576h-24.513a4.094,4.094,0,0,0-4.089,4.089,4.093,4.093,0,0,0,4.089,4.087H-609a4.648,4.648,0,0,1,4.642,4.643A4.648,4.648,0,0,1-609,509.267h-22.744a3.728,3.728,0,0,0-3.723,3.723,3.728,3.728,0,0,0,3.723,3.724h15.923a4.478,4.478,0,0,1,4.473,4.473v.543A4.478,4.478,0,0,1-615.821,526.2Z" fill="#fff"/><path d="M-634.161,500.731A4.843,4.843,0,0,1-639,495.894a4.845,4.845,0,0,1,4.839-4.839v.75a4.093,4.093,0,0,0-4.089,4.089,4.093,4.093,0,0,0,4.089,4.087Z" fill="#fff"/><path d="M-624.333,483.4a4.465,4.465,0,0,1-4.46-4.459,4.465,4.465,0,0,1,4.46-4.46v.75a3.714,3.714,0,0,0-3.71,3.71,3.714,3.714,0,0,0,3.71,3.709Z" fill="#fff"/><path d="M-622.957,526.2h-18.566v-.75h18.566a3.729,3.729,0,0,0,3.724-3.724v-.543a3.728,3.728,0,0,0-3.724-3.723v-.75a4.479,4.479,0,0,1,4.474,4.473v.543A4.479,4.479,0,0,1-622.957,526.2Z" fill="#fff"/><path d="M-634.9,530.871" fill="#fff"/><path d="M-535.3,510.335l-7.381,11.337-5.562-6.537-14.247,16.744h43.1Zm-12.644,20.794h-12.923l5.907-6.941h6.6v-.75h-5.958l6.079-7.145,5.135,6.035.507.595,6.981,8.206Zm13.309,0-2.457-2.889h4.434v-.75h-5.073l-4.443-5.223,6.913-10.618,6.2,8.394h-5.321v.75h5.875l7.632,10.336Z" fill="#fff"/></g><path d="M12.938,6.192a4.081,4.081,0,0,0-.156-1.14,1.257,1.257,0,0,0-.474-.684,1.516,1.516,0,0,0-.906-.216h-.864l-.012,6.24q0,.324-.006.582a3.355,3.355,0,0,1-.03.414q.228-.024.5-.03t.486-.018V12H8.426v-.528A.962.962,0,0,0,8.99,11.3a.7.7,0,0,0,.216-.438,4.611,4.611,0,0,0,.048-.726V4.164l-1.008.012a1.2,1.2,0,0,0-1.068.492,2.74,2.74,0,0,0-.336,1.524H6.278L6.35,3.6h7.08L13.5,6.192ZM15.59,12v-.528a.993.993,0,0,0,.57-.168.682.682,0,0,0,.222-.432,4.588,4.588,0,0,0,.048-.732V5.148q0-.264.012-.51t.024-.426l-.444.024-.432.024V3.6h2.952v.528a.919.919,0,0,0-.564.162.689.689,0,0,0-.228.432,4.566,4.566,0,0,0-.048.738V7.416h3.972V5.148q0-.264.012-.51t.024-.426l-.444.024-.432.024V3.6h2.952v.528a.919.919,0,0,0-.564.162.689.689,0,0,0-.228.432,4.566,4.566,0,0,0-.048.738v4.932q0,.324-.006.582a3.355,3.355,0,0,1-.03.414q.2-.024.444-.03t.432-.018V12H20.834v-.528a.993.993,0,0,0,.57-.168.682.682,0,0,0,.222-.432,4.588,4.588,0,0,0,.048-.732V8.04L17.7,8.076v2.316q0,.324-.006.582a3.355,3.355,0,0,1-.03.414q.2-.024.45-.03t.426-.018V12ZM30.41,8.964a1.4,1.4,0,0,0-.15-.744.649.649,0,0,0-.45-.282,3.292,3.292,0,0,0-.744-.03l-.7.024v2.5q0,.324-.006.57a3.26,3.26,0,0,1-.03.4l2.064-.024a2.23,2.23,0,0,0,.84-.174,1.219,1.219,0,0,0,.588-.558,2.268,2.268,0,0,0,.216-1.08h.528L32.5,12h-6.24v-.528a.993.993,0,0,0,.57-.168.682.682,0,0,0,.222-.432,4.588,4.588,0,0,0,.048-.732V5.148q0-.264.012-.51t.024-.426l-.444.024-.432.024V3.6h5.856l.06,2.172h-.528a2.006,2.006,0,0,0-.222-1.044,1.078,1.078,0,0,0-.576-.48,2.158,2.158,0,0,0-.762-.108l-.84.024a1.033,1.033,0,0,0-.564.126.614.614,0,0,0-.252.408,3.825,3.825,0,0,0-.06.762V7.344h1.98l-.072-1.032h.66V8.964ZM34.262,12v-.54a.747.747,0,0,0,.552-.192,1.533,1.533,0,0,0,.324-.522q.132-.33.288-.738L37.85,3.372h.48L40.958,10.1q.1.228.216.618a2.026,2.026,0,0,1,.108.666q.2-.024.4-.03t.378-.018V12H39.146v-.528a.721.721,0,0,0,.558-.186.553.553,0,0,0,.108-.426,2.115,2.115,0,0,0-.126-.5l-.36-.972-2.94.072L36.038,10.5q-.072.24-.156.456t-.168.42q.216-.024.462-.03t.438-.018V12ZM36.6,8.808h2.52L38.366,6.78q-.144-.4-.276-.786t-.24-.75h-.012q-.1.3-.216.66t-.276.78ZM49.67,6.192a4.081,4.081,0,0,0-.156-1.14,1.257,1.257,0,0,0-.474-.684,1.516,1.516,0,0,0-.906-.216H47.27l-.012,6.24q0,.324-.006.582a3.354,3.354,0,0,1-.03.414q.228-.024.5-.03t.486-.018V12H45.158v-.528a.962.962,0,0,0,.564-.168.7.7,0,0,0,.216-.438,4.611,4.611,0,0,0,.048-.726V4.164l-1.008.012a1.2,1.2,0,0,0-1.068.492,2.74,2.74,0,0,0-.336,1.524H43.01L43.082,3.6h7.08l.072,2.592ZM52.322,12v-.528a.993.993,0,0,0,.57-.168.682.682,0,0,0,.222-.432,4.588,4.588,0,0,0,.048-.732V5.148q0-.264.012-.51t.024-.426l-.444.024-.432.024V3.6q.732-.012,1.476-.018t1.5.006a5.676,5.676,0,0,1,1.86.258,2.218,2.218,0,0,1,1.1.762A2.052,2.052,0,0,1,58.61,5.88a2.249,2.249,0,0,1-.192.954,2.154,2.154,0,0,1-.684.846,3.368,3.368,0,0,1-1.32.564,1.545,1.545,0,0,1,.432.4q.192.252.4.564l.732,1.128q.228.36.42.612a1.463,1.463,0,0,0,.432.39,1.137,1.137,0,0,0,.576.138V12H57.734a3.242,3.242,0,0,1-.534-.57q-.222-.306-.474-.69L55.9,9.4q-.156-.24-.33-.516a2.383,2.383,0,0,0-.378-.468h-.756v1.98q0,.324-.006.582a3.356,3.356,0,0,1-.03.414q.144-.012.306-.018t.324-.018q.162-.012.282-.012V12ZM55.13,7.824a3.033,3.033,0,0,0,1.128-.21A1.5,1.5,0,0,0,56.978,7a2.042,2.042,0,0,0,.252-1.074,2.1,2.1,0,0,0-.144-.828,1.375,1.375,0,0,0-.408-.546,1.617,1.617,0,0,0-.63-.3,3.284,3.284,0,0,0-.786-.09.872.872,0,0,0-.558.144.671.671,0,0,0-.222.42,4.266,4.266,0,0,0-.048.708V7.788q.18.012.342.03A2.055,2.055,0,0,0,55.13,7.824Zm10.308,1.14a1.4,1.4,0,0,0-.15-.744.649.649,0,0,0-.45-.282,3.292,3.292,0,0,0-.744-.03l-.7.024v2.5q0,.324-.006.57a3.26,3.26,0,0,1-.03.4l2.064-.024a2.23,2.23,0,0,0,.84-.174,1.219,1.219,0,0,0,.588-.558,2.268,2.268,0,0,0,.216-1.08H67.6L67.526,12h-6.24v-.528a.993.993,0,0,0,.57-.168.682.682,0,0,0,.222-.432,4.588,4.588,0,0,0,.048-.732V5.148q0-.264.012-.51t.024-.426l-.444.024-.432.024V3.6h5.856l.06,2.172h-.528a2.006,2.006,0,0,0-.222-1.044,1.078,1.078,0,0,0-.576-.48,2.158,2.158,0,0,0-.762-.108l-.84.024a1.033,1.033,0,0,0-.564.126.614.614,0,0,0-.252.408,3.825,3.825,0,0,0-.06.762V7.344h1.98l-.072-1.032h.66V8.964ZM74.318,12v-.528a.993.993,0,0,0,.57-.168.682.682,0,0,0,.222-.432,4.588,4.588,0,0,0,.048-.732V5.148q0-.264.012-.51t.024-.426l-.444.024-.432.024V3.6H77.27v.528a.919.919,0,0,0-.564.162.689.689,0,0,0-.228.432,4.567,4.567,0,0,0-.048.738v4.968q0,.324-.006.57a3.26,3.26,0,0,1-.03.4l2.028-.024a1.434,1.434,0,0,0,1.14-.486,2.332,2.332,0,0,0,.4-1.506h.54L80.426,12Zm11.2-7.872a.919.919,0,0,0-.564.162.689.689,0,0,0-.228.432,4.567,4.567,0,0,0-.048.738v4.932q0,.324-.006.582a3.355,3.355,0,0,1-.03.414q.2-.024.45-.03t.426-.018V12H82.562v-.528a.993.993,0,0,0,.57-.168.682.682,0,0,0,.222-.432,4.588,4.588,0,0,0,.048-.732V5.148q0-.264.012-.51t.024-.426l-.444.024-.432.024V3.6h2.952Zm6.312,8.064a4.254,4.254,0,0,1-2.148-.528,3.616,3.616,0,0,1-1.428-1.482,4.7,4.7,0,0,1-.5-2.226A5.349,5.349,0,0,1,88,6.312a4.613,4.613,0,0,1,.78-1.464A3.79,3.79,0,0,1,90.092,3.8a4.068,4.068,0,0,1,1.83-.39,5.039,5.039,0,0,1,.828.072A5.145,5.145,0,0,1,93.6,3.7a3.925,3.925,0,0,1,.75.348L94.3,3.492h.744v2.76H94.49a2.475,2.475,0,0,0-.4-1.218,2.218,2.218,0,0,0-.876-.756A2.681,2.681,0,0,0,92.03,4.02a2.4,2.4,0,0,0-1.158.282,2.848,2.848,0,0,0-.906.78,3.706,3.706,0,0,0-.594,1.17,4.8,4.8,0,0,0-.21,1.44,4.96,4.96,0,0,0,.366,1.962A3.169,3.169,0,0,0,90.566,11a2.589,2.589,0,0,0,1.572.492,4.061,4.061,0,0,0,.63-.054,4.264,4.264,0,0,0,.684-.168,2.672,2.672,0,0,0,.618-.294V9.636q0-.3.006-.594t.006-.546l-.432.024q-.24.012-.42.024v-.66H96.1v.528a.745.745,0,0,0-.462.132.755.755,0,0,0-.252.33,1.613,1.613,0,0,0-.1.42,3.867,3.867,0,0,0-.024.414V11.58h-.312a2.646,2.646,0,0,0-.588.078,6.283,6.283,0,0,0-.756.234,5.281,5.281,0,0,1-.852.216A5.361,5.361,0,0,1,91.826,12.192ZM98.174,12v-.528a.993.993,0,0,0,.57-.168.682.682,0,0,0,.222-.432,4.588,4.588,0,0,0,.048-.732V5.148q0-.264.012-.51t.024-.426l-.444.024-.432.024V3.6h2.952v.528a.919.919,0,0,0-.564.162.689.689,0,0,0-.228.432,4.567,4.567,0,0,0-.048.738V7.416h3.972V5.148q0-.264.012-.51t.024-.426l-.444.024-.432.024V3.6h2.952v.528a.919.919,0,0,0-.564.162.689.689,0,0,0-.228.432,4.566,4.566,0,0,0-.048.738v4.932q0,.324-.006.582a3.355,3.355,0,0,1-.03.414q.2-.024.444-.03t.432-.018V12h-2.952v-.528a.993.993,0,0,0,.57-.168.682.682,0,0,0,.222-.432,4.587,4.587,0,0,0,.048-.732V8.04l-3.972.036v2.316q0,.324-.006.582a3.355,3.355,0,0,1-.03.414q.2-.024.45-.03t.426-.018V12Zm16.932-5.808a4.081,4.081,0,0,0-.156-1.14,1.257,1.257,0,0,0-.474-.684,1.516,1.516,0,0,0-.906-.216h-.864l-.012,6.24q0,.324-.006.582a3.357,3.357,0,0,1-.03.414q.228-.024.5-.03t.486-.018V12h-3.048v-.528a.962.962,0,0,0,.564-.168.7.7,0,0,0,.216-.438,4.611,4.611,0,0,0,.048-.726V4.164l-1.008.012a1.2,1.2,0,0,0-1.068.492,2.74,2.74,0,0,0-.336,1.524h-.564l.072-2.592h7.08l.072,2.592Zm5.6-2.064a.919.919,0,0,0-.564.162.689.689,0,0,0-.228.432,4.567,4.567,0,0,0-.048.738v4.932q0,.324-.006.582a3.355,3.355,0,0,1-.03.414q.2-.024.45-.03t.426-.018V12h-2.952v-.528a.993.993,0,0,0,.57-.168.682.682,0,0,0,.222-.432,4.588,4.588,0,0,0,.048-.732V5.148q0-.264.012-.51t.024-.426l-.444.024-.432.024V3.6h2.952Zm8.976,8.04L125.222,6.24q-.132-.156-.252-.324t-.252-.348h-.012l.036,4.668q0,.3-.006.6t-.03.552q.2-.024.45-.03t.426-.018V12h-2.376v-.528a.834.834,0,0,0,.51-.132.671.671,0,0,0,.24-.348,1.73,1.73,0,0,0,.066-.5V4.632q0-.24.012-.42l-.426.024q-.234.012-.414.024V3.6h1.584L129,9.156q.2.264.366.492t.318.432h.012l.012-4.932q0-.264.012-.51t.024-.426l-.456.024q-.24.012-.42.024V3.6h2.376v.528a.891.891,0,0,0-.558.162.678.678,0,0,0-.216.432,5.208,5.208,0,0,0-.042.738l-.012,6.708Zm7.764.024a4.254,4.254,0,0,1-2.148-.528,3.616,3.616,0,0,1-1.428-1.482,4.7,4.7,0,0,1-.5-2.226,5.349,5.349,0,0,1,.258-1.644,4.613,4.613,0,0,1,.78-1.464,3.79,3.79,0,0,1,1.308-1.05,4.068,4.068,0,0,1,1.83-.39,5.039,5.039,0,0,1,.828.072,5.146,5.146,0,0,1,.846.216,3.925,3.925,0,0,1,.75.348l-.048-.552h.744v2.76h-.552a2.475,2.475,0,0,0-.4-1.218,2.218,2.218,0,0,0-.876-.756,2.681,2.681,0,0,0-1.182-.258A2.4,2.4,0,0,0,136.5,4.3a2.847,2.847,0,0,0-.906.78A3.706,3.706,0,0,0,135,6.252a4.8,4.8,0,0,0-.21,1.44,4.96,4.96,0,0,0,.366,1.962A3.169,3.169,0,0,0,136.19,11a2.589,2.589,0,0,0,1.572.492,4.061,4.061,0,0,0,.63-.054,4.263,4.263,0,0,0,.684-.168,2.672,2.672,0,0,0,.618-.294V9.636q0-.3.006-.594t.006-.546l-.432.024q-.24.012-.42.024v-.66h2.868v.528a.745.745,0,0,0-.462.132.755.755,0,0,0-.252.33,1.614,1.614,0,0,0-.1.42,3.865,3.865,0,0,0-.024.414V11.58h-.312a2.646,2.646,0,0,0-.588.078,6.283,6.283,0,0,0-.756.234,5.281,5.281,0,0,1-.852.216A5.361,5.361,0,0,1,137.45,12.192ZM31.862,30v-.54a.747.747,0,0,0,.552-.192,1.533,1.533,0,0,0,.324-.522q.132-.33.288-.738l2.424-6.636h.48L38.558,28.1q.1.228.216.618a2.026,2.026,0,0,1,.108.666q.2-.024.4-.03t.378-.018V30H36.746v-.528a.721.721,0,0,0,.558-.186.553.553,0,0,0,.108-.426,2.115,2.115,0,0,0-.126-.5l-.36-.972-2.94.072L33.638,28.5q-.072.24-.156.456t-.168.42q.216-.024.462-.03t.438-.018V30Zm2.34-3.192h2.52l-.756-2.028q-.144-.4-.276-.786t-.24-.75h-.012q-.1.3-.216.66t-.276.78Zm13.716,3.36L43.454,24.24q-.132-.156-.252-.324t-.252-.348h-.012l.036,4.668q0,.3-.006.6t-.03.552q.2-.024.45-.03t.426-.018V30H41.438v-.528a.834.834,0,0,0,.51-.132.671.671,0,0,0,.24-.348,1.73,1.73,0,0,0,.066-.5V22.632q0-.24.012-.42l-.426.024q-.234.012-.414.024V21.6H43.01l4.224,5.556q.2.264.366.492t.318.432h.012l.012-4.932q0-.264.012-.51t.024-.426l-.456.024q-.24.012-.42.024V21.6h2.376v.528a.891.891,0,0,0-.558.162.678.678,0,0,0-.216.432,5.208,5.208,0,0,0-.042.738l-.012,6.708Zm3.888-.7a.993.993,0,0,0,.57-.168.682.682,0,0,0,.222-.432,4.588,4.588,0,0,0,.048-.732V23.148q0-.264.012-.51t.024-.426l-.444.024-.432.024V21.6l3.06-.012a6.481,6.481,0,0,1,2,.288,4.259,4.259,0,0,1,1.512.834,3.542,3.542,0,0,1,.948,1.326,4.694,4.694,0,0,1,.048,3.3,3.828,3.828,0,0,1-.846,1.35,4.187,4.187,0,0,1-1.434.954,5.282,5.282,0,0,1-2.04.36H51.806ZM53.918,28.4q0,.324-.006.576a3.308,3.308,0,0,1-.03.408q.252,0,.5.006t.45.006h.282a3.019,3.019,0,0,0,1.32-.276,2.822,2.822,0,0,0,.978-.768,3.475,3.475,0,0,0,.612-1.14,4.449,4.449,0,0,0,.21-1.38,4.656,4.656,0,0,0-.384-1.992A2.717,2.717,0,0,0,56.7,22.6a4,4,0,0,0-1.926-.444.953.953,0,0,0-.576.138.644.644,0,0,0-.228.426,4.588,4.588,0,0,0-.048.732Zm17.208-4.212a3.052,3.052,0,0,0-.312-1.1,2.038,2.038,0,0,0-.7-.786,1.893,1.893,0,0,0-1.1-.282,1.5,1.5,0,0,0-1.068.372,1.256,1.256,0,0,0-.132,1.686,2.5,2.5,0,0,0,.714.57q.45.252,1.014.5.456.192.924.432a5.086,5.086,0,0,1,.852.546,2.339,2.339,0,0,1,.612.732,2.093,2.093,0,0,1,.228,1,2.131,2.131,0,0,1-.348,1.2,2.334,2.334,0,0,1-.99.828,3.65,3.65,0,0,1-1.554.3,4.115,4.115,0,0,1-1.086-.156,3.966,3.966,0,0,1-1.038-.444l.06.5H66.47l-.048-2.64H67a2.194,2.194,0,0,0,.75,1.578,2.4,2.4,0,0,0,1.566.534,1.989,1.989,0,0,0,.828-.168,1.4,1.4,0,0,0,.588-.48,1.254,1.254,0,0,0,.216-.732,1.213,1.213,0,0,0-.294-.828,2.6,2.6,0,0,0-.744-.576q-.45-.24-.942-.456t-.954-.456a4.57,4.57,0,0,1-.834-.552,2.33,2.33,0,0,1-.588-.738,2.189,2.189,0,0,1-.216-1,2.307,2.307,0,0,1,.12-.708,2.029,2.029,0,0,1,1.194-1.254,3.244,3.244,0,0,1,1.254-.21,4.594,4.594,0,0,1,1.026.132,2.873,2.873,0,0,1,1.038.468l-.048-.5h.72v2.688Zm9.852.084a2.652,2.652,0,0,0-.744-1.662,2.263,2.263,0,0,0-1.6-.594,2.449,2.449,0,0,0-1.152.276,2.758,2.758,0,0,0-.912.774,3.7,3.7,0,0,0-.594,1.176,4.989,4.989,0,0,0-.21,1.482,4.643,4.643,0,0,0,.384,1.938,3.116,3.116,0,0,0,1.062,1.314,2.65,2.65,0,0,0,1.542.468,3.43,3.43,0,0,0,1.518-.366,3.323,3.323,0,0,0,1.242-1.038l.4.336a4.429,4.429,0,0,1-1.152,1.14,3.8,3.8,0,0,1-1.218.534,4.988,4.988,0,0,1-1.1.138,4.16,4.16,0,0,1-1.656-.324,3.834,3.834,0,0,1-1.3-.906,4.074,4.074,0,0,1-.84-1.356,4.676,4.676,0,0,1-.294-1.674,5.237,5.237,0,0,1,.264-1.644,4.7,4.7,0,0,1,.78-1.458,3.7,3.7,0,0,1,1.3-1.038,4.122,4.122,0,0,1,1.83-.384,4.284,4.284,0,0,1,1.194.168,4.233,4.233,0,0,1,1.122.516l-.06-.6h.744v2.784Zm7.2,2.688a1.4,1.4,0,0,0-.15-.744.649.649,0,0,0-.45-.282,3.292,3.292,0,0,0-.744-.03l-.7.024v2.5q0,.324-.006.57a3.26,3.26,0,0,1-.03.4l2.064-.024a2.23,2.23,0,0,0,.84-.174,1.219,1.219,0,0,0,.588-.558,2.268,2.268,0,0,0,.216-1.08h.528L90.266,30h-6.24v-.528a.993.993,0,0,0,.57-.168.682.682,0,0,0,.222-.432,4.588,4.588,0,0,0,.048-.732V23.148q0-.264.012-.51t.024-.426l-.444.024-.432.024V21.6h5.856l.06,2.172h-.528a2.006,2.006,0,0,0-.222-1.044,1.078,1.078,0,0,0-.576-.48,2.158,2.158,0,0,0-.762-.108l-.84.024a1.033,1.033,0,0,0-.564.126.614.614,0,0,0-.252.408,3.825,3.825,0,0,0-.06.762v1.884h1.98l-.072-1.032h.66v2.652Zm11.028,3.2L94.742,24.24q-.132-.156-.252-.324t-.252-.348h-.012l.036,4.668q0,.3-.006.6t-.03.552q.2-.024.45-.03t.426-.018V30H92.726v-.528a.834.834,0,0,0,.51-.132.671.671,0,0,0,.24-.348,1.73,1.73,0,0,0,.066-.5V22.632q0-.24.012-.42l-.426.024q-.234.012-.414.024V21.6H94.3l4.224,5.556q.2.264.366.492t.318.432h.012l.012-4.932q0-.264.012-.51t.024-.426l-.456.024q-.24.012-.42.024V21.6h2.376v.528a.891.891,0,0,0-.558.162.678.678,0,0,0-.216.432,5.208,5.208,0,0,0-.042.738l-.012,6.708Zm6.84-8.04a.919.919,0,0,0-.564.162.689.689,0,0,0-.228.432,4.567,4.567,0,0,0-.048.738v4.932q0,.324-.006.582a3.355,3.355,0,0,1-.03.414q.2-.024.45-.03t.426-.018V30h-2.952v-.528a.993.993,0,0,0,.57-.168.682.682,0,0,0,.222-.432,4.588,4.588,0,0,0,.048-.732V23.148q0-.264.012-.51t.024-.426l-.444.024-.432.024V21.6h2.952Zm8.844,2.148a2.652,2.652,0,0,0-.744-1.662,2.263,2.263,0,0,0-1.6-.594,2.449,2.449,0,0,0-1.152.276,2.758,2.758,0,0,0-.912.774,3.7,3.7,0,0,0-.594,1.176,4.989,4.989,0,0,0-.21,1.482,4.643,4.643,0,0,0,.384,1.938,3.116,3.116,0,0,0,1.062,1.314,2.65,2.65,0,0,0,1.542.468,3.43,3.43,0,0,0,1.518-.366,3.323,3.323,0,0,0,1.242-1.038l.4.336a4.429,4.429,0,0,1-1.152,1.14,3.8,3.8,0,0,1-1.218.534,4.988,4.988,0,0,1-1.1.138,4.16,4.16,0,0,1-1.656-.324,3.834,3.834,0,0,1-1.3-.906,4.074,4.074,0,0,1-.84-1.356,4.676,4.676,0,0,1-.294-1.674,5.237,5.237,0,0,1,.264-1.644,4.7,4.7,0,0,1,.78-1.458,3.7,3.7,0,0,1,1.3-1.038,4.122,4.122,0,0,1,1.83-.384,4.284,4.284,0,0,1,1.194.168,4.233,4.233,0,0,1,1.122.516l-.06-.6h.744v2.784Z" transform="translate(158 1445)" fill="#fff"/></g></svg>