<svg xmlns="http://www.w3.org/2000/svg" width="124.641" height="146.192" viewBox="0 0 124.641 146.192"><g transform="translate(-1082 -1016)"><g transform="translate(1545.659 603.826)"><path d="M-391.8,459.8a2.825,2.825,0,0,0-1.148,1.763,19.446,19.446,0,0,1-5.571-1.847,11.332,11.332,0,0,1-2.8-1.932l-.812-.868c-1.344.952-2.744,1.819-4.144,2.687.391.029.84.084,1.259.084h3.949a4.329,4.329,0,0,1,.7-.588c.2,0,1.316.9,1.316,1.2,0,.223-.2.28-.363.28h-1.568l-.308.364V462.1h3.416c.14-.113.839-.9,1.007-.9.309,0,1.261.98,1.513,1.2a.52.52,0,0,1,.195.337.393.393,0,0,1-.392.336H-401.3v3.136h1.932a13.564,13.564,0,0,0,1.176-2.773c.027,0,.084-.027.111-.027.308,0,2.213,1.063,2.213,1.428,0,.252-.616.336-.784.364l-1.2,1.008h2.688l.925-1.12a.54.54,0,0,1,.391-.252.66.66,0,0,1,.42.252l1.177,1.259a.588.588,0,0,1,.224.449c0,.28-.2.42-.476.42H-411.32l-.392.307-1.008-1.483c.588.055,1.26.2,1.876.2,1.4,0,2.8,0,4.2-.028-.644-.448-.755-1.317-1.315-1.876-.084-.141-.785-.756-.785-.813,0-.084.224-.084.253-.084.727,0,2.3.2,2.772.841a1.989,1.989,0,0,1,.475,1.119c0,.449-.2.561-.5.813h2.185v-3.136h-4.48l-.42.279-.953-1.372c.588.029,1.232.113,1.821.113h4.032v-1.512h-1.708l-.393.336-.867-1.233a24.216,24.216,0,0,1-5.713,1.989,7.681,7.681,0,0,1-1.091.223c-.084,0-.2-.055-.2-.139a.3.3,0,0,1,.223-.308l.925-.393a21.01,21.01,0,0,0,4.759-2.744,17.8,17.8,0,0,0,2.661-2.38c.252-.279.5-.587.756-.868a.427.427,0,0,1,.2-.027c.28,0,2.995,1.008,2.995,1.315,0,.2-.252.281-.42.336a13.635,13.635,0,0,0,4.957,1.876,20.448,20.448,0,0,0,5.235.477c.141,0,.224.028.224.2C-391.021,459.385-391.692,459.721-391.8,459.8Zm-14.475-7.672c-.812,0-.841-.561-.952-1.176a38.039,38.039,0,0,0-3.864,1.54l-.952-1.82c1.54-.728,2.323-2.156,3.219-3.556-.755.336-1.511.588-2.239.951l-.953-1.6a2.9,2.9,0,0,0,.869-.672,9.306,9.306,0,0,0,1.511-3.193,2.568,2.568,0,0,0,.141-.783l.112-.057c.139.057.307.084.475.168.365.113,1.54.869,1.54,1.261,0,.279-.476.363-.671.392-.869.98-1.736,1.96-2.577,2.94l2.213-.112a4.975,4.975,0,0,0,.756-1.652c.027-.028.084-.028.14-.028a4.361,4.361,0,0,1,1.736,1.68c0,.308-.617.308-.812.336-1.12,1.231-2.241,2.464-3.332,3.7l2.66-.112a5.2,5.2,0,0,0-.336-1.176.621.621,0,0,1-.14-.309c0-.055,0-.168.084-.168a.888.888,0,0,1,.42.225c.7.476,1.708,1.26,1.708,2.212C-405.524,451.572-405.749,452.133-406.28,452.133Zm-5.04,4.34a.672.672,0,0,1-.728-.756c0-.672.56-1.149.783-1.737.085-.279.085-1.259.337-1.259.112,0,.168.2.2.28a5.556,5.556,0,0,1,.448,2.016C-410.284,455.661-410.508,456.473-411.32,456.473Zm2.575-.56c-.5,0-.672-.364-.672-.841,0-.307,0-.615.029-.924a9.222,9.222,0,0,0-.337-1.343.133.133,0,0,1,.141-.14c.14,0,.448.252.56.336a2.483,2.483,0,0,1,1.12,1.764C-407.9,455.3-408.128,455.913-408.745,455.913Zm2.268-.532c-.867,0-.755-1.008-.839-1.624a5.469,5.469,0,0,0-.141-.729c-.055-.223-.308-.531-.308-.672a.132.132,0,0,1,.14-.139,1.835,1.835,0,0,1,.645.364,2.631,2.631,0,0,1,1.288,1.876A.854.854,0,0,1-406.477,455.381Zm7.2-9.324h-5.432l-.365.336-.951-1.316c.588.056,1.232.14,1.82.14h3.191c.141-.14.617-.756.869-.756a.37.37,0,0,1,.279.168l.728.727a.551.551,0,0,1,.168.393A.28.28,0,0,1-399.28,446.057Zm-.673,2.072h-4.367l-.336.336-.98-1.317c.588.057,1.232.141,1.82.141h2.436c.056-.057.56-.588.728-.588.2,0,.867.756.951.84a.385.385,0,0,1,.14.279C-399.561,448.017-399.756,448.129-399.953,448.129Zm.084,2.016h-4.143l-.364.335-.953-1.315c.589.056,1.232.14,1.821.14h2.239c.113-.113.477-.56.7-.56.252,0,.839.672.98.812a.5.5,0,0,1,.111.252C-399.477,450.033-399.645,450.145-399.869,450.145Zm0,2.268v1.456c0,.336.056.7.084,1.035a9.006,9.006,0,0,1-1.679.393l.056-.729h-1.961v.2a6.412,6.412,0,0,1-1.652.28,11.141,11.141,0,0,0,.113-1.344v-1.6c0-.448-.28-.952-.28-1.231,0-.084.027-.112.111-.112a11.036,11.036,0,0,1,1.989.643h1.54c.168-.139.5-.531.756-.531a4.447,4.447,0,0,1,1.231.756.343.343,0,0,1,.2.308C-399.364,452.1-399.756,452.329-399.869,452.413Zm-2.548-7.392a1.069,1.069,0,0,1-.531-.14,1.2,1.2,0,0,1-.392-.532,3.675,3.675,0,0,0-.728-1.876c-.113-.14-.308-.308-.308-.476,0-.084.084-.084.14-.084a3.226,3.226,0,0,1,.867.2c.812.225,1.9.785,1.9,1.765C-401.464,444.488-401.716,445.021-402.417,445.021Zm1.037,7.251h-1.792l-.2.2v1.288l1.989-.028Zm2.688,4c-.449,0-.84-.223-.84-.727,0-.784.924-1.344,1.119-2.3,0-.141.029-.5.225-.5.335,0,.532,1.792.532,2.1C-397.656,455.465-397.964,456.276-398.692,456.276Zm5.347-4.143c-.783,0-.811-.561-.924-1.176a36.236,36.236,0,0,0-3.892,1.54l-.923-1.82c1.512-.728,2.324-2.184,3.191-3.556-.812.336-1.624.615-2.436.951l-.728-1.6a2.625,2.625,0,0,0,.785-.588,8.971,8.971,0,0,0,1.343-2.968,2.373,2.373,0,0,0,.14-.756l.113-.057a2.918,2.918,0,0,1,.783.281c.029.028,1.037.728,1.121.784a.4.4,0,0,1,.14.307c0,.336-.449.393-.7.449-.728.868-1.427,1.736-2.127,2.6l1.987-.112a5.642,5.642,0,0,0,.785-1.652c.027-.028.056-.028.111-.028a4.551,4.551,0,0,1,1.764,1.652c0,.28-.644.364-.839.364-1.12,1.231-2.241,2.435-3.332,3.7l2.659-.112a6.032,6.032,0,0,0-.447-1.372.252.252,0,0,1-.028-.14c0-.057,0-.168.055-.168a1.112,1.112,0,0,1,.476.252c.644.447,1.708,1.288,1.708,2.155C-392.561,451.517-392.785,452.133-393.345,452.133Zm-2.491,3.836c-.5,0-.728-.336-.728-.813,0-.307.027-.643.056-.951a10.32,10.32,0,0,0-.336-1.345.149.149,0,0,1,.139-.139c.113,0,.449.28.533.336.5.364,1.148.952,1.148,1.624C-395.024,455.24-395.137,455.969-395.836,455.969Zm2.379-.2c-1.064,0-.839-1.427-.98-2.127a9.2,9.2,0,0,0-.419-1.092.157.157,0,0,1,.14-.168c.2,0,.588.336.7.42a2.685,2.685,0,0,1,1.4,2.015A.885.885,0,0,1-393.457,455.772Z" fill="#fff"/><path d="M-410.537,479.4a4.347,4.347,0,0,0-.111-1.036c-.057-.252-.336-.84-.336-1.008,0-.14.084-.169.2-.169a23.752,23.752,0,0,1,2.409.953,7.8,7.8,0,0,0,1.6-1.736c.084-.14.2-.42.364-.42a6.351,6.351,0,0,1,1.708,2.072c0,.14-.533.2-.617.2a25.566,25.566,0,0,0-3.219.756l.084,3.332h.615c.113-.113.533-.644.728-.644.252,0,1.121,1.176,1.121,1.4a.3.3,0,0,1-.28.2h-2.184l.084,3.668h.728c.084-.112.588-.924.812-.924a3.492,3.492,0,0,1,1.064,1.6v.112a.359.359,0,0,1-.281.111h-2.267l.084,4.872h5.1v-2.743h-2.211l-.561.336-.923-1.372a18.234,18.234,0,0,0,3.7.168V487.3h-1.036v.643l-1.511.421c.027-.7.084-1.428.084-2.1v-4.2a5.171,5.171,0,0,0-.028-.643c-.029-.224-.2-.476-.2-.672,0-.084.084-.112.141-.112a6.334,6.334,0,0,1,1.456.7h1.091v-1.652h-1.624l-.56.336-.923-1.344a16.505,16.505,0,0,0,3.107.139V476.94a2.781,2.781,0,0,0-.224-1.259,1.118,1.118,0,0,1-.139-.365c0-.084.084-.084.168-.084.42,0,2.464.729,2.464,1.093,0,.279-.5.42-.728.476v2.015h1.231c.113-.111.672-.867.841-.867a4.237,4.237,0,0,1,1.232,1.512c0,.14-.2.224-.336.224H-401.6v1.652h.7c.112-.112.56-.672.783-.672.281,0,1.093.728,1.261.84.111.084.252.224.252.364,0,.2-.392.392-.533.476V485.9c0,.561.084,1.149.113,1.708a15.856,15.856,0,0,1-1.653.393l.084-.7H-401.6v1.82h1.483c.084-.084.673-.868.869-.868a3.768,3.768,0,0,1,1.288,1.512c0,.168-.168.224-.308.224H-401.6v2.743h4.9l.225-4.647h-1.037l-.392.336-.98-1.428a12.522,12.522,0,0,0,2.493.168l.167-3.612h-1.12l-.391.336-.981-1.428a11.4,11.4,0,0,0,2.576.168l.168-3.725h-1.288l-.475.337-.981-1.428a11.621,11.621,0,0,0,2.408.168c.057-.084.813-1.176,1.037-1.176.363,0,1.679,1.092,1.9,1.26a.585.585,0,0,1,.309.419c0,.309-.588.617-.785.757l-.755,13.495h.364c.112-.111.867-1.147,1.176-1.147.2,0,.447.28.587.42.113.14,1.177,1.147,1.177,1.484,0,.168-.224.224-.365.224h-19.907l-.56.336-1.009-1.485a16.124,16.124,0,0,0,2.857.168Zm-1.148,22.035a1.5,1.5,0,0,1-.587.225c-.084,0-.141-.028-.141-.112a.408.408,0,0,1,.2-.281,36.036,36.036,0,0,0,3.164-3.359,15.38,15.38,0,0,0,1.568-1.988,3.918,3.918,0,0,0,.615-1.176c.029-.112.113-.448.253-.448.055,0,1.092.475,1.2.5.449.2,1.765.784,1.765,1.343,0,.281-.785.281-.953.281C-406.756,498.333-408.968,500.4-411.685,501.44Zm8.54-17.471V482.2h-1.036v1.764Zm0,2.492v-1.624h-1.036v1.624Zm2.548-2.492V482.2H-401.6v1.764Zm0,2.492v-1.624H-401.6v1.624Zm-.223,8.288a28.394,28.394,0,0,1,3.051,1.064,7.244,7.244,0,0,1,3.36,2.3,4.742,4.742,0,0,1,.784,1.96c0,.7-.335,1.372-1.12,1.372a1.572,1.572,0,0,1-1.259-.727,22.814,22.814,0,0,1-1.2-1.96,12.894,12.894,0,0,0-3.249-3.388c-.111-.056-.587-.392-.587-.476C-400.96,494.776-400.9,494.749-400.82,494.749Z" fill="#fff"/><path d="M-404.853,515.049c0-.056.029-.112.029-.168.475,0,2.995.84,2.995,1.26,0,.28-.531.392-.728.42l-2.464,4.48h1.373c.14-.168.9-1.12,1.2-1.12.2,0,.42.224.56.336.2.2,1.232,1.036,1.232,1.456a.281.281,0,0,1-.308.308h-10.5l-.5.364-.953-1.54c.588.056,1.232.2,1.821.2h5.123A24.3,24.3,0,0,0-404.853,515.049Zm1.849-2.436c.168,0,.42.224.531.336l1.065,1.036a.737.737,0,0,1,.252.5c0,.224-.224.252-.421.252h-8.987l-.5.363-.953-1.511c.588.056,1.232.168,1.792.168h5.964C-404.181,513.677-403.285,512.613-403,512.613Zm-2.409,19.432h-2.911v1.147a14.657,14.657,0,0,1-2.465.757c.057-.98.168-2.016.168-3v-5.181a6.537,6.537,0,0,0-.055-1.035c-.056-.392-.365-.784-.365-.98,0-.112.141-.14.225-.14a9.29,9.29,0,0,1,3.024.868h2.016c.111-.168.784-1.092,1.064-1.092a11.065,11.065,0,0,1,2.071,1.2c.168.084.421.28.421.5,0,.252-.7.755-.868.868v4.424c0,.784.111,1.568.14,2.352a9.972,9.972,0,0,1-2.549.784Zm-4.675-16.632a7.482,7.482,0,0,1,1.54.924,10.155,10.155,0,0,1,.783.756,2.252,2.252,0,0,1,.617,1.652c0,.812-.393,1.456-1.26,1.456-.757,0-.952-.5-.952-1.176,0-.337.056-.672.056-1.008a3.793,3.793,0,0,0-.476-1.848,3.17,3.17,0,0,1-.476-.644C-410.172,515.441-410.145,515.413-410.088,515.413Zm1.68-6.664a8.838,8.838,0,0,1,1.455.476,3.094,3.094,0,0,1,1.569,1.288,3.036,3.036,0,0,1,.42,1.316,1.357,1.357,0,0,1-1.345,1.4,1.121,1.121,0,0,1-1.064-.756c-.055-.28-.055-.56-.084-.84a3.819,3.819,0,0,0-.531-1.848c-.084-.2-.616-.952-.616-.952C-408.6,508.749-408.464,508.749-408.408,508.749Zm2.995,22.315v-5.6h-2.6l-.307.307v5.292Zm5.684-.279V512.949a9.654,9.654,0,0,0-.027-1.261,6.761,6.761,0,0,0-.281-.979c0-.112.084-.168.2-.168A12.363,12.363,0,0,1-397.1,511.6h1.68c.141-.167.7-.979.953-.979.5,0,2.659,1.484,2.659,2.072,0,.252-.84.588-1.035.672l-2.717,6.356c1.989,2.324,3.5,3.724,3.5,7.028a5.876,5.876,0,0,1-.2,1.568,3.99,3.99,0,0,1-1.008,1.6,3.428,3.428,0,0,1-2.268.924,2.255,2.255,0,0,0-.644-1.737,5.075,5.075,0,0,0-.953-.727c-.027,0-.167-.112-.167-.14,0-.2.111-.2.251-.2.309,0,.617.028.924.028,1.624,0,1.708-.56,1.708-2.072a9.325,9.325,0,0,0-2.071-6.216c.335-1.624.7-3.248.952-4.872l.336-2.24h-2.157l-.223.336v17.36c0,1.4.139,2.827.2,4.228a12.933,12.933,0,0,1-2.548.56C-399.869,533.781-399.729,532.1-399.729,530.785Z" fill="#fff"/><path d="M-439.841,508.627l-1.909-5.459a4.222,4.222,0,0,1-.221-1.794l.426-4.572a51.281,51.281,0,0,0-.664-9.293l-.467-2.847-.383-3.537h-17.188a3.416,3.416,0,0,1-3.412-3.411,1.742,1.742,0,0,1,.451-1.31,3.174,3.174,0,0,1,2.343-.475c.2,0,.406.009.618.009H-443v.75h-17.244c-.217,0-.43,0-.634-.009-.807-.018-1.5-.033-1.8.261a1.055,1.055,0,0,0-.226.774,2.664,2.664,0,0,0,2.662,2.661h17.861l.453,4.187.464,2.826a51.956,51.956,0,0,1,.674,9.389l0,.1-.426,4.571a3.465,3.465,0,0,0,.182,1.477l1.909,5.459Z" fill="#fff"/><path d="M-436.355,501.765a3.093,3.093,0,0,1-2.211-.935c-1.327-1.35.283-2.958,1.348-4.023l7.153-7.958.557.5-7.166,7.972c-1.189,1.19-2.1,2.224-1.357,2.982a2.352,2.352,0,0,0,3.293.075l5.355-5.888,3.625-4.112a2.222,2.222,0,0,0,.149-2.95l-8.372-10.619.588-.465,8.37,10.616a2.966,2.966,0,0,1-.185,3.928l-3.616,4.1-5.381,5.914A3.149,3.149,0,0,1-436.355,501.765Z" fill="#fff"/><path d="M-448.153,533.8a2.683,2.683,0,0,1-1.414-.406l-4.557-2.818c-.617-.38-1.255-.771-1.059-1.731a2.973,2.973,0,0,1,2.584-1.858,6.35,6.35,0,0,1,3.362.884l10.582-19.008,2.416-4.838.671.336-2.424,4.853-10.944,19.657-.635-.328a5.526,5.526,0,0,0-3.012-.806c-.607.014-1.736.627-1.865,1.258-.083.4.062.539.717.941l4.559,2.82a1.93,1.93,0,0,0,1.529.226,1.932,1.932,0,0,0,1.214-.957l13.4-23.927a10.444,10.444,0,0,1,1.258-1.677,7.468,7.468,0,0,0,2.265-5.6l-.426-3.2.743-.1.429,3.247a8.211,8.211,0,0,1-2.442,6.139,9.981,9.981,0,0,0-1.173,1.556l-13.4,23.923a2.674,2.674,0,0,1-1.678,1.319A2.778,2.778,0,0,1-448.153,533.8Z" fill="#fff"/><path d="M-430.232,533.8a1.177,1.177,0,0,1-.919-.448,3.526,3.526,0,0,1,.372-3.94l1.683-1.587-6.574-11.353.649-.375,6.872,11.867-2.093,1.971a2.8,2.8,0,0,0-.326,2.944c.073.091.268.333.821.015l4.837-3.227a1.484,1.484,0,0,0,.6-1.957l-8.715-14.948.648-.377,8.726,14.968a2.229,2.229,0,0,1-.864,2.951l-4.838,3.226A1.758,1.758,0,0,1-430.232,533.8Z" fill="#fff"/><path d="M-369.009,475.838h-7.383a1.256,1.256,0,0,1-1.255-1.255V449.152l-10.394-17.031-5.766,5a2.818,2.818,0,0,1-3.488.109,2.829,2.829,0,0,1-1.066-2.483l.907-14.086a4.073,4.073,0,0,1,.844-2.78,1.494,1.494,0,0,1,1.114-.347,3.339,3.339,0,0,1,2.338,1.152,5.591,5.591,0,0,1,.957,4.26l-.537,6.933,6.159-5.6.505.555-7.557,6.869.682-8.823a4.907,4.907,0,0,0-.78-3.71,2.6,2.6,0,0,0-1.817-.89.749.749,0,0,0-.571.163c-.469.41-.544,1.572-.589,2.265l-.907,14.086a2.115,2.115,0,0,0,.768,1.834,2.056,2.056,0,0,0,2.546-.075l6.437-5.579,10.965,17.966v25.642a.506.506,0,0,0,.505.505h7.383a.946.946,0,0,0,.713-.32.974.974,0,0,0,.24-.758c-.269-2.324-3.709-2.443-4.4-2.443h-.375V448.225l5.952-4.612,0,0,.358-.289,8.428-7.568,16.793-8.389,1.514-6.079a.46.46,0,0,0-.055-.386,1.587,1.587,0,0,0-1.555-.495c-1.268.425-2.354,1.839-2.981,3.88l-.048.156-16.088,7.769-9.441,7.224-.218-.355c-.389-.632-.87-1.3-1.379-2-1.607-2.22-3.428-4.736-3.464-7.7l0-.26,8.009-3.124a1.927,1.927,0,0,0,.479-.249l6.47-4.394c2.012-1.964,2.32-3.741,1.709-4.613a.8.8,0,0,0-.53-.324,1.078,1.078,0,0,0-.793.183l-8.633,6.085-8.111,2.947-.256-.7,8.064-2.93,8.5-6.011a1.806,1.806,0,0,1,1.354-.307,1.547,1.547,0,0,1,1.015.633c.735,1.048.691,3.15-1.851,5.621l-6.514,4.43a2.628,2.628,0,0,1-.644.336l-7.511,2.93c.135,2.622,1.821,4.951,3.314,7.014.425.589.832,1.151,1.188,1.7l8.916-6.8,15.795-7.627c.707-2.191,1.944-3.722,3.41-4.213a2.319,2.319,0,0,1,2.382.743,1.2,1.2,0,0,1,.194,1.031l-1.6,6.413-.155.078-16.9,8.443-8.316,7.505-6.048,4.686v22.231c2.206.085,4.515.933,4.766,3.1a1.727,1.727,0,0,1-.425,1.343A1.708,1.708,0,0,1-369.009,475.838Z" fill="#fff"/><path d="M-348.212,429.253" fill="#fff"/><path d="M-352.159,485.248l-.743-.1a50.638,50.638,0,0,0,.436-6.628,49.642,49.642,0,0,0-3.71-18.921l.7-.286a50.427,50.427,0,0,1,3.765,19.207A51.278,51.278,0,0,1-352.159,485.248Z" fill="#fff"/><path d="M-447.193,456.417l-.672-.332a50.588,50.588,0,0,1,38.745-27.809l.1.745A49.836,49.836,0,0,0-447.193,456.417Z" fill="#fff"/><path d="M-367.637,515.407l-.515-.545A50.008,50.008,0,0,0-352.9,485.15a50.638,50.638,0,0,0,.436-6.628,49.642,49.642,0,0,0-3.71-18.921l.7-.286a50.427,50.427,0,0,1,3.765,19.207,51.278,51.278,0,0,1-.443,6.726A50.759,50.759,0,0,1-367.637,515.407Z" fill="#fff"/><path d="M-447.193,456.417l-.672-.332a50.588,50.588,0,0,1,38.745-27.809l.1.745A49.836,49.836,0,0,0-447.193,456.417Z" fill="#fff"/><path d="M-347.836,478.768h-.75a53.676,53.676,0,0,0-8.143-28.476l.636-.4A54.412,54.412,0,0,1-347.836,478.768Z" fill="#fff"/><path d="M-452.7,459.591l-.7-.268a55.068,55.068,0,0,1,21.486-26.459l.406.631A54.3,54.3,0,0,0-452.7,459.591Z" fill="#fff"/><path d="M-428.09,440.961l-.422-.619a46.2,46.2,0,0,1,26.109-8.028v.75A45.463,45.463,0,0,0-428.09,440.961Z" fill="#fff"/><path d="M-438.106,477.314a4.5,4.5,0,0,1-3.127-1.692c-2.474-2.56-1.714-5.343-1.1-7.578.086-.315.17-.623.244-.924.7-2.835,2.3-3.84,3.517-4.182a5.975,5.975,0,0,1,5.59,1.321,4.458,4.458,0,0,1,1.411,4.518c-.071.308-.134.629-.2.959-.462,2.323-1.037,5.213-4.6,7.108A3.659,3.659,0,0,1-438.106,477.314Zm1.115-13.843a5.077,5.077,0,0,0-1.381.189c-1.495.42-2.5,1.645-2.991,3.64-.075.306-.161.621-.249.941-.619,2.265-1.259,4.607.918,6.86h0c.986,1.021,2.189,2.028,3.971,1.081,3.245-1.728,3.76-4.312,4.214-6.592.067-.337.132-.665.2-.981a3.7,3.7,0,0,0-1.184-3.8A5.231,5.231,0,0,0-436.991,463.471Z" fill="#fff"/><path d="M-381.286,426.086a3.746,3.746,0,0,1-2.074-.627h0c-3.313-2.2-3.169-4.939-3.054-7.142.025-.471.049-.924.037-1.351a4.313,4.313,0,0,1,2.52-4.179,5.7,5.7,0,0,1,5.493.192,4.281,4.281,0,0,1,2.172,3.987c-.012.427.012.88.037,1.351.115,2.2.26,4.943-3.054,7.142A3.751,3.751,0,0,1-381.286,426.086Zm-1.66-1.252a3,3,0,0,0,3.321,0c2.957-1.963,2.831-4.361,2.72-6.478-.026-.492-.05-.965-.038-1.412a3.524,3.524,0,0,0-1.808-3.322,4.955,4.955,0,0,0-4.766-.167,3.561,3.561,0,0,0-2.111,3.489c.012.447-.012.92-.038,1.412-.111,2.117-.237,4.515,2.72,6.478Z" fill="#fff"/><path d="M-384.354,521.491l-.292-.691a45.671,45.671,0,0,0,23.362-22.255l.676.326A46.421,46.421,0,0,1-384.354,521.491Z" fill="#fff"/><path d="M-455.717,471.386l-.743-.1a54.237,54.237,0,0,1,13.243-28.733l.56.5A53.5,53.5,0,0,0-455.717,471.386Z" fill="#fff"/><path d="M-444.494,507.017a50.109,50.109,0,0,1-7.87-19.657l.739-.127a49.377,49.377,0,0,0,7.753,19.366Z" fill="#fff"/><path d="M-417.8,522.519a46.342,46.342,0,0,1-7.427-3.378c-.71-.4-1.416-.827-2.1-1.261l.4-.633c.67.428,1.364.845,2.063,1.241a45.528,45.528,0,0,0,7.306,3.324Z" fill="#fff"/></g><path d="M.636,0V-.528A.993.993,0,0,0,1.206-.7a.682.682,0,0,0,.222-.432,4.588,4.588,0,0,0,.048-.732V-6.852q0-.264.012-.51t.024-.426l-.444.024L.636-7.74V-8.4H3.588v.528a.919.919,0,0,0-.564.162.689.689,0,0,0-.228.432,4.566,4.566,0,0,0-.048.738v4.968q0,.324-.006.57a3.26,3.26,0,0,1-.03.4L4.74-.624A1.434,1.434,0,0,0,5.88-1.11a2.332,2.332,0,0,0,.4-1.506h.54L6.744,0ZM11.388-7.872a.886.886,0,0,0-.528.132.629.629,0,0,0-.24.354,1.909,1.909,0,0,0-.06.5V-3.78a6.73,6.73,0,0,0,.114,1.29,3.07,3.07,0,0,0,.372,1.008,1.8,1.8,0,0,0,.708.666,2.4,2.4,0,0,0,1.1.252,2.256,2.256,0,0,0,1.32-.36,2.16,2.16,0,0,0,.774-1.032,4.62,4.62,0,0,0,.27-1.6l.024-3.3q0-.264.012-.51t.024-.426l-.444.024L14.4-7.74V-8.4h2.424v.528a.942.942,0,0,0-.576.162.689.689,0,0,0-.228.432,4.566,4.566,0,0,0-.048.738L15.96-3.684a5.9,5.9,0,0,1-.2,1.578,3.5,3.5,0,0,1-.6,1.23,2.629,2.629,0,0,1-1.02.792,3.552,3.552,0,0,1-1.458.276,4.413,4.413,0,0,1-1.632-.264A2.38,2.38,0,0,1,10-.858a3.305,3.305,0,0,1-.558-1.284A8.222,8.222,0,0,1,9.276-3.9V-6.492q0-.324.018-.708t.03-.588q-.2.012-.444.018t-.432.018V-8.4h2.94Zm11.76,4.836A1.4,1.4,0,0,0,23-3.78a.649.649,0,0,0-.45-.282,3.292,3.292,0,0,0-.744-.03l-.7.024v2.5q0,.324-.006.57a3.26,3.26,0,0,1-.03.4l2.064-.024a2.23,2.23,0,0,0,.84-.174,1.219,1.219,0,0,0,.588-.558,2.268,2.268,0,0,0,.216-1.08h.528L25.236,0H19V-.528a.993.993,0,0,0,.57-.168.682.682,0,0,0,.222-.432,4.588,4.588,0,0,0,.048-.732V-6.852q0-.264.012-.51t.024-.426l-.444.024L19-7.74V-8.4h5.856l.06,2.172h-.528a2.006,2.006,0,0,0-.222-1.044,1.078,1.078,0,0,0-.576-.48,2.158,2.158,0,0,0-.762-.108l-.84.024a1.033,1.033,0,0,0-.564.126.614.614,0,0,0-.252.408,3.825,3.825,0,0,0-.06.762v1.884h1.98l-.072-1.032h.66v2.652ZM34.176.168,29.712-5.76q-.132-.156-.252-.324t-.252-.348H29.2l.036,4.668q0,.3-.006.6t-.03.552q.2-.024.45-.03t.426-.018V0H27.7V-.528a.834.834,0,0,0,.51-.132.671.671,0,0,0,.24-.348,1.73,1.73,0,0,0,.066-.5V-7.368q0-.24.012-.42l-.426.024q-.234.012-.414.024V-8.4h1.584l4.224,5.556q.2.264.366.492t.318.432h.012L34.2-6.852q0-.264.012-.51t.024-.426l-.456.024q-.24.012-.42.024V-8.4h2.376v.528a.891.891,0,0,0-.558.162.678.678,0,0,0-.216.432,5.208,5.208,0,0,0-.042.738L34.908.168ZM44.316,0V-.528A.962.962,0,0,0,44.88-.7a.7.7,0,0,0,.216-.438,4.611,4.611,0,0,0,.048-.726l.012-1.26L43.02-6.48a8.064,8.064,0,0,1-.4-.744,1.837,1.837,0,0,1-.174-.54q-.192.012-.36.012t-.336.012V-8.4h3.24v.528a1.264,1.264,0,0,0-.7.132.416.416,0,0,0-.2.414,1.541,1.541,0,0,0,.24.63l.948,1.512q.1.144.216.336t.246.39q.126.2.234.4H46q.108-.228.246-.486t.282-.57L47.412-6.8q.06-.12.156-.3t.21-.366a1.653,1.653,0,0,1,.234-.306q-.216.012-.474.018t-.462.018V-8.4h2.508v.528a1.413,1.413,0,0,0-.882.39,4.489,4.489,0,0,0-.75,1.074q-.4.756-.78,1.482T46.428-3.5q0,.192-.006.492t-.006.6v.8q0,.324-.006.582a3.356,3.356,0,0,1-.03.414q.24-.024.51-.03t.474-.018V0Zm9.7-7.872a.886.886,0,0,0-.528.132.629.629,0,0,0-.24.354,1.909,1.909,0,0,0-.06.5V-3.78A6.73,6.73,0,0,0,53.3-2.49a3.07,3.07,0,0,0,.372,1.008,1.8,1.8,0,0,0,.708.666,2.4,2.4,0,0,0,1.1.252,2.256,2.256,0,0,0,1.32-.36,2.16,2.16,0,0,0,.774-1.032,4.62,4.62,0,0,0,.27-1.6l.024-3.3q0-.264.012-.51t.024-.426l-.444.024-.432.024V-8.4h2.424v.528a.941.941,0,0,0-.576.162.689.689,0,0,0-.228.432,4.567,4.567,0,0,0-.048.738l-.012,2.856a5.9,5.9,0,0,1-.2,1.578,3.5,3.5,0,0,1-.6,1.23,2.629,2.629,0,0,1-1.02.792,3.552,3.552,0,0,1-1.458.276,4.413,4.413,0,0,1-1.632-.264,2.38,2.38,0,0,1-1.05-.786,3.305,3.305,0,0,1-.558-1.284A8.222,8.222,0,0,1,51.9-3.9V-6.492q0-.324.018-.708t.03-.588q-.2.012-.444.018t-.432.018V-8.4h2.94Zm11.76,4.836a1.4,1.4,0,0,0-.15-.744.649.649,0,0,0-.45-.282,3.292,3.292,0,0,0-.744-.03l-.7.024v2.5q0,.324-.006.57a3.26,3.26,0,0,1-.03.4L65.76-.624A2.23,2.23,0,0,0,66.6-.8a1.219,1.219,0,0,0,.588-.558,2.268,2.268,0,0,0,.216-1.08h.528L67.86,0H61.62V-.528A.993.993,0,0,0,62.19-.7a.682.682,0,0,0,.222-.432,4.588,4.588,0,0,0,.048-.732V-6.852q0-.264.012-.51t.024-.426l-.444.024-.432.024V-8.4h5.856l.06,2.172h-.528a2.006,2.006,0,0,0-.222-1.044,1.078,1.078,0,0,0-.576-.48,2.158,2.158,0,0,0-.762-.108l-.84.024a1.033,1.033,0,0,0-.564.126.614.614,0,0,0-.252.408,3.825,3.825,0,0,0-.06.762v1.884h1.98L65.64-5.688h.66v2.652ZM80.916-5.808a4.081,4.081,0,0,0-.156-1.14,1.257,1.257,0,0,0-.474-.684,1.516,1.516,0,0,0-.906-.216h-.864L78.5-1.608q0,.324-.006.582a3.357,3.357,0,0,1-.03.414q.228-.024.5-.03t.486-.018V0H76.4V-.528A.962.962,0,0,0,76.968-.7a.7.7,0,0,0,.216-.438,4.611,4.611,0,0,0,.048-.726V-7.836l-1.008.012a1.2,1.2,0,0,0-1.068.492,2.74,2.74,0,0,0-.336,1.524h-.564L74.328-8.4h7.08l.072,2.592Zm6.768,6a4.521,4.521,0,0,1-1.95-.384A3.6,3.6,0,0,1,84.42-1.218a4.36,4.36,0,0,1-.744-1.422,5.28,5.28,0,0,1-.24-1.56,4.817,4.817,0,0,1,.258-1.53,4.54,4.54,0,0,1,.78-1.422A3.917,3.917,0,0,1,85.782-8.2a4.045,4.045,0,0,1,1.842-.4,4.237,4.237,0,0,1,1.9.4,3.792,3.792,0,0,1,1.314,1.05,4.7,4.7,0,0,1,.774,1.422A4.763,4.763,0,0,1,91.872-4.2a4.783,4.783,0,0,1-.258,1.518,4.613,4.613,0,0,1-.78,1.428,3.9,3.9,0,0,1-1.3,1.05A4.036,4.036,0,0,1,87.684.192Zm.06-.624A2.265,2.265,0,0,0,88.95-.744a2.574,2.574,0,0,0,.84-.834,3.889,3.889,0,0,0,.486-1.152,5.2,5.2,0,0,0,.156-1.254,6.039,6.039,0,0,0-.18-1.482,4.3,4.3,0,0,0-.546-1.284,2.82,2.82,0,0,0-.906-.9,2.345,2.345,0,0,0-1.248-.33,2.231,2.231,0,0,0-1.212.324,2.612,2.612,0,0,0-.84.846,4.11,4.11,0,0,0-.486,1.152,5.065,5.065,0,0,0-.162,1.266,5.632,5.632,0,0,0,.168,1.32,4.824,4.824,0,0,0,.516,1.3A2.943,2.943,0,0,0,86.43-.8,2.277,2.277,0,0,0,87.744-.432Zm12.84.6L96.12-5.76q-.132-.156-.252-.324t-.252-.348H95.6l.036,4.668q0,.3-.006.6t-.03.552q.2-.024.45-.03T96.48-.66V0H94.1V-.528a.834.834,0,0,0,.51-.132.671.671,0,0,0,.24-.348,1.73,1.73,0,0,0,.066-.5V-7.368q0-.24.012-.42l-.426.024q-.234.012-.414.024V-8.4h1.584L99.9-2.844q.2.264.366.492t.318.432h.012l.012-4.932q0-.264.012-.51t.024-.426l-.456.024q-.24.012-.42.024V-8.4h2.376v.528a.891.891,0,0,0-.558.162.678.678,0,0,0-.216.432,5.208,5.208,0,0,0-.042.738L101.316.168Zm7.764.024A4.254,4.254,0,0,1,106.2-.336a3.616,3.616,0,0,1-1.428-1.482,4.7,4.7,0,0,1-.5-2.226,5.349,5.349,0,0,1,.258-1.644,4.613,4.613,0,0,1,.78-1.464,3.79,3.79,0,0,1,1.308-1.05,4.068,4.068,0,0,1,1.83-.39,5.039,5.039,0,0,1,.828.072,5.145,5.145,0,0,1,.846.216,3.925,3.925,0,0,1,.75.348l-.048-.552h.744v2.76h-.552a2.475,2.475,0,0,0-.4-1.218,2.218,2.218,0,0,0-.876-.756,2.681,2.681,0,0,0-1.182-.258,2.4,2.4,0,0,0-1.158.282,2.848,2.848,0,0,0-.906.78,3.706,3.706,0,0,0-.594,1.17,4.8,4.8,0,0,0-.21,1.44,4.96,4.96,0,0,0,.366,1.962A3.169,3.169,0,0,0,107.088-1,2.589,2.589,0,0,0,108.66-.5a4.062,4.062,0,0,0,.63-.054,4.264,4.264,0,0,0,.684-.168,2.672,2.672,0,0,0,.618-.294V-2.364q0-.3.006-.594T110.6-3.5l-.432.024q-.24.012-.42.024v-.66h2.868v.528a.745.745,0,0,0-.462.132.755.755,0,0,0-.252.33,1.614,1.614,0,0,0-.1.42,3.867,3.867,0,0,0-.024.414V-.42h-.312a2.646,2.646,0,0,0-.588.078,6.283,6.283,0,0,0-.756.234,5.281,5.281,0,0,1-.852.216A5.361,5.361,0,0,1,108.348.192Z" transform="translate(1089 1162)" fill="#fff"/></g></svg>