<svg xmlns="http://www.w3.org/2000/svg" width="268.022" height="233.63" viewBox="0 0 268.022 233.63"><g transform="translate(0)"><g transform="translate(0 0)"><g transform="translate(0 0)"><g transform="translate(116.109 23.05)"><path d="M-413.512,270.846c-1.6,0-1.954-.926-1.954-2.314,0-1.8,1.438-2.829,2.212-4.269a6.374,6.374,0,0,0,.823-2.469c0-.206.1-.823.358-.823.773,0,1.133,4.989,1.133,5.76C-410.94,268.326-411.454,270.846-413.512,270.846Zm7.612-10.955c1.593.566,3.6,1.44,4.576,2.829a5.075,5.075,0,0,1,1.082,2.469,2.489,2.489,0,0,1-2.314,2.314c-2.417,0-1.543-3.5-2.263-5.092a7.434,7.434,0,0,0-1.08-1.7v27.413c0,2.109.154,4.217.255,6.326a33.372,33.372,0,0,1-4.526.823c.154-2.109.413-4.629.413-6.686V250.428a7.674,7.674,0,0,0-.514-2.623,1.516,1.516,0,0,1-.257-.669c0-.206.154-.206.358-.206.771,0,5.659,1.44,5.659,2.057,0,.411-1.08,1.286-1.389,1.491Zm6.892,1.9a5.959,5.959,0,0,0-.208-1.9,9.482,9.482,0,0,1-.513-1.389c0-.154.154-.154.257-.154a13.464,13.464,0,0,1,2.88,1.029c.617.257,1.286.463,1.9.72h2.572v-4.423h-8.334l-.924.669-1.75-2.726c1.029.051,2.109.206,3.088.206h7.97v-5.195a4.218,4.218,0,0,0-.1-1.132c-.051-.309-.41-.926-.41-1.132,0-.1.358-.1.463-.1a15.075,15.075,0,0,1,2.467.514c.566.1,3.292.72,3.292,1.337,0,.411-1.029,1.131-1.284,1.337l-.1,4.372h6.071c.771-.72,1.492-1.44,2.263-2.16.566-.051,3.238,2.623,3.446,2.777a.987.987,0,0,1,.358.72c0,.411-.411.514-.771.514H-387.8L-388,260.1h3.088c.05-.051,1.541-1.8,1.9-1.8a29.087,29.087,0,0,1,3.446,2.16c.2.154.564.463.564.72,0,.514-1.027,1.029-1.284,1.234l-.051,19.235c.051-.1,1.646-1.749,2.006-1.749a1.215,1.215,0,0,1,.77.463l2.059,2.263a1.545,1.545,0,0,1,.411.874c0,.36-.309.411-.619.411h-26.022l-.928.669-1.747-2.726a38.342,38.342,0,0,0,5.4.257Zm-2.008,33.585a5.283,5.283,0,0,1-1.387.771c-.154,0-.206-.1-.206-.257,0-.36,1.08-1.492,1.337-1.749a36.388,36.388,0,0,0,2.313-3.189c1.339-1.9,3.242-4.526,3.7-6.789.926,0,4.267,1.9,4.937,2.417a1.058,1.058,0,0,1,.411.669c0,.411-1.337.566-1.594.617A70.213,70.213,0,0,1-401.016,295.379Zm16.458-29.984v-3.5h-10.233l-.36.514-.053,2.983Zm0,5.349v-3.5H-395.2v3.5Zm0,5.812v-3.96H-395.2V276.5Zm0,5.555v-3.755H-395.2l.053,3.755Zm2.419,12.241a6.645,6.645,0,0,1-.773-1.749c-.617-1.749-2.467-5.195-4.01-6.223-.154-.1-.773-.566-.773-.771,0-.1.208-.1.257-.1a10.191,10.191,0,0,1,2.162.514c.872.309,1.747.617,2.572.977a11.58,11.58,0,0,1,3.033,2.16,4.637,4.637,0,0,1,1.8,3.549,2.522,2.522,0,0,1-2.313,2.674A2.737,2.737,0,0,1-382.139,294.35Z" transform="translate(415.519 -246.262)" fill="#caa846"/><path d="M-411.687,298.657l-.926.669-2.057-2.777c.975.1,2.109.309,3.086.309H-405V287.5c-2.932.514-5.865.771-8.795,1.029-.154,0-.309-.051-.309-.206,0-.514,1.8-.874,2.21-1.029a51.167,51.167,0,0,0,6.225-2.623,33.01,33.01,0,0,0,7.252-4.217c.975-.1,4.372,4.783,4.372,5.04,0,.36-.926.36-1.183.36a10.274,10.274,0,0,0-1.75.257c-1.491.309-2.983.566-4.524.926.463.154,1.9.669,1.9,1.286s-.67,1.029-1.183,1.234v7.3h1.491c.309-.309,2-2.212,2.572-2.212.617,0,3.292,2.88,3.292,3.5,0,.411-.568.514-.874.514h-6.48v2.417c2.109,1.44,4.372,2.726,5.555,4.989a5.417,5.417,0,0,1,.821,2.623,2.525,2.525,0,0,1-2.417,2.623c-1.85,0-2.057-1.7-2.212-3.137-.1-.874-.255-1.749-.358-2.623a8.363,8.363,0,0,0-1.389-3.652v20.367c0,1.646.154,3.343.255,4.991a25.72,25.72,0,0,1-4.783,1.08c.1-2.006.31-4.116.31-6.174V307.349a70.146,70.146,0,0,1-8.64,11.882c-.257.2-1.288,1.49-1.594,1.49-.154,0-.259-.2-.259-.309A13.309,13.309,0,0,1-414.259,318a84.356,84.356,0,0,0,7.509-19.34Zm18.771,20.007V293.771a27.173,27.173,0,0,0-.2-4.629,6.43,6.43,0,0,1-.463-1.131c0-.206.257-.257.463-.257.821,0,4.113,1.749,4.937,2.263h5.5c.2-.309,1.13-1.749,1.7-1.749a3.315,3.315,0,0,1,1.183.463l2.213,1.44c.309.206.926.669.926,1.08,0,.72-.825,1.029-1.339,1.337v26.436c0,1.389.206,2.829.259,4.217a20.55,20.55,0,0,1-4.629,1.286l.154-4.217h-6.737V323.5a15.054,15.054,0,0,1-4.217,1.08C-393.121,322.624-392.917,320.619-392.917,318.664Zm10.7-.154V291.817h-5.657l-1.08.72V318.51Z" transform="translate(415.495 -217.653)" fill="#caa846"/><path d="M-398.1,318.742a15.6,15.6,0,0,0-.309-3.036c-.1-.514-.566-.977-.566-1.49,0-.309.1-.362.411-.362.463,0,6.789,1.288,6.789,2.314,0,.413-1.6,1.44-1.9,1.648v10.13h1.7c1.438-2.415,4.783-8.433,5.038-11.315a.4.4,0,0,1,.259-.05,40.658,40.658,0,0,1,5.45,2.415c.208.1.516.309.516.617,0,.568-1.492.926-1.853,1.031-2.417,2.469-4.884,4.936-7.355,7.3h7.766c.259-.309,1.183-1.85,1.75-1.85,1.183,0,4.474,2.726,4.987,3.5a1.55,1.55,0,0,1,.259.821c0,1.339-2.368,1.234-3.242,1.339a6.837,6.837,0,0,0-3.393,1.286,3.8,3.8,0,0,1-1.337.872c-.1,0-.1-.1-.1-.206,0-.154,1.029-3.5,1.183-3.909h-27.721a7.973,7.973,0,0,1,.051,1.131c0,1.9-1.337,4.063-3.446,4.063-1.7,0-2.162-.977-2.162-2.57,0-1.956,2.366-2.625,3.036-4.374a12.856,12.856,0,0,0,.566-2.518c0-.1.051-.36.206-.36a.553.553,0,0,1,.257.1,26.4,26.4,0,0,1,1.183,2.674H-398.1Zm0,33.171h-9.311l-.821.823-1.6-2.829c.926.053,1.9.208,2.829.208h8.9v-2.573a19.072,19.072,0,0,0-.411-3.754h-4.166v1.339a42.051,42.051,0,0,1-4.423.975c.1-1.543.309-3.137.309-4.627v-4.939a21.453,21.453,0,0,0-.309-3.5,5.721,5.721,0,0,1-.411-1.08c0-.259.309-.36.513-.36.722,0,4.937,1.9,5.659,2.211h11.107c.309-.413,1.133-1.9,1.8-1.9a4.742,4.742,0,0,1,1.646.718c.154.1,3.137,1.648,3.137,2.212,0,.463-1.337,1.288-1.593,1.493v4.73c0,1.339.1,2.726.154,4.065a25.586,25.586,0,0,1-4.783,1.027l.206-2.366h-6.688c.566.208,4.373,1.288,4.373,1.852,0,.36-1.44,1.286-1.646,1.44v3.036h5.5c.154-.208,1.7-2.316,2.162-2.316.358,0,.821.463,1.08.669l2,1.9a1.6,1.6,0,0,1,.566.979c0,.41-.257.564-.617.564l-10.7.053v6.53h9.256c.208-.255,2.162-2.724,2.674-2.724.411,0,1.133.667,1.391.926.358.309,2.829,2.212,2.829,3.033,0,.568-.619.617-.977.617h-32.916l-.825.771-1.593-2.827c.926.05,1.954.2,2.88.2H-398.1Zm-11.265-34.819a20.25,20.25,0,0,1,3.6,1.339,6.35,6.35,0,0,1,3.6,3.033,7.3,7.3,0,0,1,.67,2.572,2.669,2.669,0,0,1-2.674,2.728c-2.368,0-2.469-2.162-2.676-4.013a7.667,7.667,0,0,0-2.212-4.627c-.1-.1-.667-.617-.667-.771C-409.719,317.146-409.462,317.094-409.361,317.094Zm19.7,24.895v-6.379H-402l-.669.823v5.556Z" transform="translate(415.636 -189.699)" fill="#caa846"/></g><path d="M-340.342,336.779l56.492,34.905-23.739-89.141c4.416-2.193,3.975-12.61,3.907-13.842l-.064-1.1-.963.542c-1.1.623-10.554,6.124-9.491,11.129l-7.832,13.223.088-.151-23.985-43.195c3.747-3.2.777-13.2.408-14.377l-.329-1.056-.8.762c-.918.872-8.741,8.516-6.486,13.111l-35.533,119.9a2.058,2.058,0,0,0-2.074,1.315l-.4,1.062a2.086,2.086,0,0,0,1.22,2.678l5.307,1.982a2.087,2.087,0,0,0,.729.132,2.089,2.089,0,0,0,.861-.189,2.061,2.061,0,0,0,1.087-1.163l.4-1.062a2.066,2.066,0,0,0-.057-1.593,2.04,2.04,0,0,0-.959-.959l17.8-60.052,27.424,8.688-40.594,68.534a2.069,2.069,0,0,0-.994-.09,2.069,2.069,0,0,0-1.339.865l-.643.931a2.087,2.087,0,0,0,.529,2.895l4.662,3.22a2.086,2.086,0,0,0,1.179.367,2.087,2.087,0,0,0,1.716-.9l.645-.933a2.076,2.076,0,0,0,.332-1.558,2.042,2.042,0,0,0-.692-1.161Zm-36.391,50.766,63.688-107.524a5.167,5.167,0,0,1,1.536.628,10.437,10.437,0,0,1,2.237,1.607l-29.251,48.806,0,.005h0l-35.12,58.6-.452-.3Zm20.791-107.666,6.793-22.916,22.975,42.519-7.6,12.823-28.82-9.647Zm43.625,10.655,16.847,66.31-41.115-26.333,13.7-22.863ZM-339.633,335.6l2.27-3.789,44.086,28.078-18.135-71.379,2.759-4.6,22.582,84.788Zm34.611-65.672c.048,3.578-.452,10.1-3.2,11.421a12.018,12.018,0,0,0-2.627-1.908,6.323,6.323,0,0,0-2.079-.8C-313.131,275.639-308.014,271.787-305.022,269.926Zm-17.735,23.789-2.6,4.385-23.24-43.008,1.528-5.158Zm-23.763-57.43c.92,3.459,2.028,9.908-.316,11.855a12.087,12.087,0,0,0-3.012-1.2,6.228,6.228,0,0,0-2.21-.264C-352.989,243.8-348.968,238.821-346.519,236.285ZM-382.832,371.76l-.4,1.062a.7.7,0,0,1-.369.391.706.706,0,0,1-.536.02l-5.3-1.98a.707.707,0,0,1-.413-.907l.395-1.062a.7.7,0,0,1,.656-.452l4.041,1.457,1.517.568a.7.7,0,0,1,.391.366A.7.7,0,0,1-382.832,371.76Zm-1-2.6-.294-.1-3.214-1.2,35.51-119.818a5.225,5.225,0,0,1,1.642.233,10.275,10.275,0,0,1,2.8,1.144l-.874-.259-1.251,4.225-.077-.143-7.669,26.278Zm19.467-60.84,1.295-4.37,28.588,9.568-2.129,3.595Zm-8.942,84.118-.643.933a.7.7,0,0,1-.979.178l-4.662-3.218a.708.708,0,0,1-.178-.981l.643-.929a.709.709,0,0,1,.454-.292.609.609,0,0,1,.129-.013.707.707,0,0,1,.241.075l3.472,2.34,1.346.929a.69.69,0,0,1,.29.45A.7.7,0,0,1-373.311,392.437Z" transform="translate(551.873 -233.713)" fill="#caa846"/><path d="M-390.021,390.5a2.043,2.043,0,0,0-.693,1.161,2.07,2.07,0,0,0,.334,1.558l.643.933a2.087,2.087,0,0,0,1.716.9,2.087,2.087,0,0,0,1.179-.367l4.662-3.22a2.085,2.085,0,0,0,.529-2.895l-.643-.931a2.065,2.065,0,0,0-1.339-.865,2.069,2.069,0,0,0-.994.09l-40.594-68.534,27.424-8.688,17.8,60.052a2.04,2.04,0,0,0-.959.959,2.066,2.066,0,0,0-.057,1.593l.4,1.062a2.061,2.061,0,0,0,1.087,1.163,2.091,2.091,0,0,0,.863.189,2.085,2.085,0,0,0,.727-.132l5.307-1.982a2.086,2.086,0,0,0,1.22-2.678l-.4-1.062a2.059,2.059,0,0,0-2.074-1.315l-35.533-119.9c2.256-4.6-5.567-12.239-6.486-13.111l-.8-.762-.331,1.056c-.369,1.179-3.339,11.173.408,14.377l-23.985,43.195.088.151-7.832-13.223c1.063-5.005-8.387-10.507-9.491-11.129l-.962-.542-.064,1.1c-.068,1.233-.509,11.649,3.907,13.842l-23.739,89.141,56.492-34.905Zm1.561-1.135-.452.3-35.12-58.6h0l0-.005-29.251-48.806a10.485,10.485,0,0,1,2.237-1.607,5.166,5.166,0,0,1,1.536-.628l63.688,107.524Zm-11.508-86.708-28.82,9.647-7.6-12.823,22.975-42.519,6.793,22.916Zm-39.707,4.991,13.7,22.863-41.116,26.333,16.847-66.31Zm-36.81,61.043L-453.9,283.9l2.759,4.6-18.135,71.379,44.086-28.078,2.27,3.789Zm26.854-90.049a6.324,6.324,0,0,0-2.079.8,12.066,12.066,0,0,0-2.627,1.908c-2.746-1.319-3.247-7.843-3.2-11.421C-454.544,271.787-449.426,275.639-449.63,278.644Zm34.139-28.71,1.528,5.158L-437.2,298.1l-2.6-4.385Zm4.991-3.264a6.228,6.228,0,0,0-2.21.264,12.086,12.086,0,0,0-3.012,1.2c-2.344-1.947-1.236-8.4-.316-11.855C-413.59,238.821-409.569,243.8-410.5,246.67Zm30.794,124.552a.7.7,0,0,1,.391-.366l1.517-.568,4.041-1.457a.7.7,0,0,1,.656.452l.4,1.062a.71.71,0,0,1-.413.907l-5.307,1.98a.706.706,0,0,1-.536-.02.7.7,0,0,1-.369-.391l-.4-1.062A.71.71,0,0,1-379.706,371.222Zm-25.583-91.711-7.669-26.278-.077.143-1.251-4.225-.874.259a10.275,10.275,0,0,1,2.8-1.144,5.229,5.229,0,0,1,1.644-.233l35.508,119.818-3.214,1.2-.294.1Zm-20.651,37.6-2.129-3.595,28.587-9.568,1.295,4.37Zm36.582,74.8a.69.69,0,0,1,.29-.45l1.346-.929,3.472-2.34a.707.707,0,0,1,.241-.075.608.608,0,0,1,.129.013.705.705,0,0,1,.454.292l.643.929a.708.708,0,0,1-.178.981l-4.662,3.218a.7.7,0,0,1-.979-.178l-.643-.933A.7.7,0,0,1-389.358,391.91Z" transform="translate(478.707 -233.713)" fill="#caa846"/></g></g><path d="M9.377-3.448A5.606,5.606,0,0,0,8.8-5.476,3.744,3.744,0,0,0,7.525-6.92,3.477,3.477,0,0,0,5.5-7.438a2.749,2.749,0,0,0-1.962.683A2.185,2.185,0,0,0,2.808-5.1a2.185,2.185,0,0,0,.485,1.444A4.6,4.6,0,0,0,4.6-2.611q.827.463,1.863.926.838.353,1.7.794a9.342,9.342,0,0,1,1.565,1,4.3,4.3,0,0,1,1.124,1.345A3.845,3.845,0,0,1,11.272,3.3a3.915,3.915,0,0,1-.639,2.2A4.288,4.288,0,0,1,8.815,7.022a6.705,6.705,0,0,1-2.854.551,7.559,7.559,0,0,1-1.995-.287,7.284,7.284,0,0,1-1.907-.816l.11.926H.824L.736,2.547H1.794a4.03,4.03,0,0,0,1.378,2.9,4.4,4.4,0,0,0,2.876.981,3.654,3.654,0,0,0,1.521-.309,2.565,2.565,0,0,0,1.08-.882,2.3,2.3,0,0,0,.4-1.345,2.228,2.228,0,0,0-.54-1.521A4.777,4.777,0,0,0,7.139,1.313Q6.313.872,5.409.475T3.657-.362A8.4,8.4,0,0,1,2.125-1.376a4.28,4.28,0,0,1-1.08-1.356,4.021,4.021,0,0,1-.4-1.841,4.237,4.237,0,0,1,.22-1.3,3.784,3.784,0,0,1,.749-1.3,3.808,3.808,0,0,1,1.444-1,5.959,5.959,0,0,1,2.3-.386,8.439,8.439,0,0,1,1.885.242,5.277,5.277,0,0,1,1.907.86l-.088-.926h1.323v4.937ZM14.27,7.22V6.228a1.372,1.372,0,0,0,1.014-.353,2.816,2.816,0,0,0,.6-.959q.242-.606.529-1.356L20.86-8.628h.882L26.569,3.738q.176.419.4,1.135a3.721,3.721,0,0,1,.2,1.223q.375-.044.738-.055t.694-.033V7.22H23.241V6.25a1.324,1.324,0,0,0,1.025-.342,1.015,1.015,0,0,0,.2-.782,3.885,3.885,0,0,0-.231-.926l-.661-1.785-5.4.132-.639,1.918q-.132.441-.287.838t-.309.771q.4-.044.849-.055t.8-.033V7.22Zm4.3-5.863H23.2L21.808-2.368Q21.544-3.1,21.3-3.812T20.86-5.189h-.022q-.176.551-.4,1.212t-.507,1.433ZM43.762,7.529,35.562-3.36q-.242-.287-.463-.6t-.463-.639h-.022l.066,8.574q0,.551-.011,1.1T34.615,6.1q.375-.044.827-.055t.782-.033V7.22H31.859V6.25a1.533,1.533,0,0,0,.937-.242,1.233,1.233,0,0,0,.441-.639,3.178,3.178,0,0,0,.121-.926V-6.314q0-.441.022-.771-.353.022-.782.044T31.837-7V-8.209h2.91L42.506,2q.375.485.672.9t.584.794h.022l.022-9.059q0-.485.022-.937t.044-.782l-.838.044q-.441.022-.771.044V-8.209h4.364v.97a1.636,1.636,0,0,0-1.025.3,1.246,1.246,0,0,0-.4.794,9.566,9.566,0,0,0-.077,1.356L45.107,7.529Zm20.146-.11L59.985-4.374q-.331-.992-.518-1.609a7.649,7.649,0,0,1-.253-1.058q-.353.022-.661.022T57.935-7V-8.209h5.731v.97q-1.124.044-1.422.485a2.245,2.245,0,0,0,.033,1.675q.375,1.389.771,2.579T63.842.012q.264.9.54,1.686t.562,1.818h.022q.11-.353.253-.838t.3-1q.154-.518.287-.948t.2-.65q.529-1.675,1.047-3.284l.937-2.91q.419-1.3.639-2.116h1.146q.22.816.584,1.907t.738,2.248q.375,1.157.727,2.226t.6,1.863q.287.9.584,1.818t.54,1.885h.044q.2-.661.43-1.4t.452-1.51q.441-1.278.738-2.2t.5-1.609q.2-.683.364-1.234t.342-1.08q.132-.419.309-.893a3.7,3.7,0,0,1,.441-.849q-.419.022-.893.033T75.414-7V-8.209h4.629v.97a2.776,2.776,0,0,0-1.091.309,2.074,2.074,0,0,0-.76.849,12.931,12.931,0,0,0-.749,1.8Q76.472-1.31,75.535,1.6T73.607,7.419H72.5L69.419-1.6q-.242-.661-.43-1.311t-.364-1.267q-.154.617-.331,1.223T67.92-1.729L64.988,7.419Zm26.45.154a8.3,8.3,0,0,1-3.582-.705,6.6,6.6,0,0,1-2.414-1.885A8.009,8.009,0,0,1,83,2.371a9.7,9.7,0,0,1-.441-2.865A8.849,8.849,0,0,1,83.03-3.3a8.339,8.339,0,0,1,1.433-2.612,7.194,7.194,0,0,1,2.4-1.918,7.43,7.43,0,0,1,3.383-.727,7.782,7.782,0,0,1,3.494.727,6.966,6.966,0,0,1,2.414,1.929,8.628,8.628,0,0,1,1.422,2.612,8.749,8.749,0,0,1,.474,2.8,8.786,8.786,0,0,1-.474,2.788,8.474,8.474,0,0,1-1.433,2.623,7.165,7.165,0,0,1-2.392,1.929A7.413,7.413,0,0,1,90.359,7.573Zm.11-1.146a4.161,4.161,0,0,0,2.215-.573,4.728,4.728,0,0,0,1.543-1.532,7.143,7.143,0,0,0,.893-2.116,9.554,9.554,0,0,0,.287-2.3,11.094,11.094,0,0,0-.331-2.722,7.907,7.907,0,0,0-1-2.358,5.179,5.179,0,0,0-1.664-1.653,4.307,4.307,0,0,0-2.292-.606,4.1,4.1,0,0,0-2.226.6,4.8,4.8,0,0,0-1.543,1.554,7.55,7.55,0,0,0-.893,2.116,9.3,9.3,0,0,0-.3,2.325,10.344,10.344,0,0,0,.309,2.425,8.861,8.861,0,0,0,.948,2.381,5.406,5.406,0,0,0,1.642,1.785A4.183,4.183,0,0,0,90.469,6.427Zm31.366-9.875a7.5,7.5,0,0,0-.287-2.094,2.309,2.309,0,0,0-.871-1.256,2.784,2.784,0,0,0-1.664-.4h-1.587L117.4,4.267q0,.6-.011,1.069a6.164,6.164,0,0,1-.055.76q.419-.044.915-.055t.893-.033V7.22h-5.6V6.25a1.766,1.766,0,0,0,1.036-.309,1.291,1.291,0,0,0,.4-.8,8.469,8.469,0,0,0,.088-1.334V-7.173l-1.852.022a2.206,2.206,0,0,0-1.962.9,5.033,5.033,0,0,0-.617,2.8H109.6l.132-4.761h13l.132,4.761ZM134.266,7.573a8.3,8.3,0,0,1-3.582-.705,6.6,6.6,0,0,1-2.414-1.885A8.009,8.009,0,0,1,126.9,2.371a9.7,9.7,0,0,1-.441-2.865,8.849,8.849,0,0,1,.474-2.81,8.338,8.338,0,0,1,1.433-2.612,7.194,7.194,0,0,1,2.4-1.918,7.43,7.43,0,0,1,3.383-.727,7.782,7.782,0,0,1,3.494.727,6.966,6.966,0,0,1,2.414,1.929,8.628,8.628,0,0,1,1.422,2.612,8.749,8.749,0,0,1,.474,2.8,8.785,8.785,0,0,1-.474,2.788,8.474,8.474,0,0,1-1.433,2.623,7.165,7.165,0,0,1-2.392,1.929A7.413,7.413,0,0,1,134.266,7.573Zm.11-1.146a4.161,4.161,0,0,0,2.215-.573,4.728,4.728,0,0,0,1.543-1.532,7.143,7.143,0,0,0,.893-2.116,9.554,9.554,0,0,0,.287-2.3,11.093,11.093,0,0,0-.331-2.722,7.907,7.907,0,0,0-1-2.358,5.179,5.179,0,0,0-1.664-1.653,4.307,4.307,0,0,0-2.292-.606,4.1,4.1,0,0,0-2.226.6,4.8,4.8,0,0,0-1.543,1.554,7.55,7.55,0,0,0-.893,2.116,9.3,9.3,0,0,0-.3,2.325,10.345,10.345,0,0,0,.309,2.425,8.86,8.86,0,0,0,.948,2.381,5.406,5.406,0,0,0,1.642,1.785A4.183,4.183,0,0,0,134.376,6.427Zm23.585,1.1-8.2-10.889q-.242-.287-.463-.6t-.463-.639h-.022l.066,8.574q0,.551-.011,1.1T148.814,6.1q.375-.044.827-.055t.783-.033V7.22h-4.364V6.25A1.532,1.532,0,0,0,147,6.008a1.233,1.233,0,0,0,.441-.639,3.178,3.178,0,0,0,.121-.926V-6.314q0-.441.022-.771-.353.022-.783.044t-.76.044V-8.209h2.91L156.7,2q.375.485.672.9t.584.794h.022l.022-9.059q0-.485.022-.937t.044-.782l-.838.044q-.441.022-.771.044V-8.209h4.364v.97a1.636,1.636,0,0,0-1.025.3,1.246,1.246,0,0,0-.4.794,9.568,9.568,0,0,0-.077,1.356l-.022,12.321Zm14.261.044a7.814,7.814,0,0,1-3.945-.97,6.642,6.642,0,0,1-2.623-2.722,8.629,8.629,0,0,1-.926-4.089,9.824,9.824,0,0,1,.474-3.02,8.473,8.473,0,0,1,1.433-2.689,6.961,6.961,0,0,1,2.4-1.929,7.473,7.473,0,0,1,3.361-.716,9.256,9.256,0,0,1,1.521.132,9.45,9.45,0,0,1,1.554.4,7.209,7.209,0,0,1,1.378.639l-.088-1.014h1.367v5.07h-1.014a4.546,4.546,0,0,0-.738-2.237,4.074,4.074,0,0,0-1.609-1.389,4.925,4.925,0,0,0-2.171-.474,4.4,4.4,0,0,0-2.127.518,5.231,5.231,0,0,0-1.664,1.433,6.808,6.808,0,0,0-1.091,2.149,8.821,8.821,0,0,0-.386,2.645,9.111,9.111,0,0,0,.672,3.6,5.821,5.821,0,0,0,1.907,2.48,4.756,4.756,0,0,0,2.887.9,7.46,7.46,0,0,0,1.157-.1,7.832,7.832,0,0,0,1.256-.309,4.908,4.908,0,0,0,1.135-.54V2.878q0-.551.011-1.091t.011-1q-.353.022-.794.044T174.8.872V-.34h5.268V.63a1.369,1.369,0,0,0-.849.242,1.388,1.388,0,0,0-.463.606,2.964,2.964,0,0,0-.187.771,7.1,7.1,0,0,0-.044.76V6.449h-.573a4.86,4.86,0,0,0-1.08.143,11.541,11.541,0,0,0-1.389.43,9.7,9.7,0,0,1-1.565.4A9.847,9.847,0,0,1,172.222,7.573Z" transform="translate(46.309 226.057)" fill="#caa846"/></g></svg>