<svg xmlns="http://www.w3.org/2000/svg" viewBox="0 0 212.94 252.61">
  <g>
    <g>
      <path d="M563.43,1190.44l-.88.87v151.87l.88.88,1-1v-99l-1,1Z" transform="translate(-456.28 -1091.44)" fill="#daa400"/>
      <path d="M638.76,1265.78v2.93l1.47-1.46Z" transform="translate(-456.28 -1091.44)" fill="#daa400"/>
      <path d="M635.13,1272.35l1.86-1.86V1264l-1.86-1.86Z" transform="translate(-456.28 -1091.44)" fill="#daa400"/>
      <path d="M631.5,1276l1.86-1.86v-13.74l-1.86-1.86Z" transform="translate(-456.28 -1091.44)" fill="#daa400"/>
      <path d="M627.88,1279.6l1.86-1.85v-21l-1.86-1.86Z" transform="translate(-456.28 -1091.44)" fill="#daa400"/>
      <path d="M624.25,1283.23l1.86-1.86v-28.25l-1.86-1.86Z" transform="translate(-456.28 -1091.44)" fill="#daa400"/>
      <path d="M620.62,1286.86l1.86-1.86v-35.51l-1.86-1.85Z" transform="translate(-456.28 -1091.44)" fill="#daa400"/>
      <path d="M617,1290.49l1.86-1.86v-42.76L617,1244Z" transform="translate(-456.28 -1091.44)" fill="#daa400"/>
      <path d="M613.36,1294.12l1.86-1.86v-50l-1.86-1.86Z" transform="translate(-456.28 -1091.44)" fill="#daa400"/>
      <path d="M609.73,1297.75l1.86-1.86v-57.28l-1.86-1.86Z" transform="translate(-456.28 -1091.44)" fill="#daa400"/>
      <path d="M606.1,1301.38l1.86-1.86V1235l-1.86-1.86Z" transform="translate(-456.28 -1091.44)" fill="#daa400"/>
      <path d="M602.47,1305l1.86-1.86v-71.8l-1.86-1.86Z" transform="translate(-456.28 -1091.44)" fill="#daa400"/>
      <path d="M598.84,1308.64l1.86-1.87v-79l-1.86-1.86Z" transform="translate(-456.28 -1091.44)" fill="#daa400"/>
      <path d="M595.21,1312.27l1.86-1.86v-86.32l-1.86-1.86Z" transform="translate(-456.28 -1091.44)" fill="#daa400"/>
      <path d="M591.59,1315.89l1.86-1.85v-93.58l-1.86-1.86Z" transform="translate(-456.28 -1091.44)" fill="#daa400"/>
      <path d="M588,1319.52l1.86-1.86v-99l-1.86,1.86Z" transform="translate(-456.28 -1091.44)" fill="#daa400"/>
      <path d="M584.33,1323.15l1.86-1.86v-99l-1.86,1.86Z" transform="translate(-456.28 -1091.44)" fill="#daa400"/>
      <path d="M580.7,1326.78l1.86-1.86v-99l-1.86,1.86Z" transform="translate(-456.28 -1091.44)" fill="#daa400"/>
      <path d="M577.07,1330.42l1.86-1.86v-99l-1.86,1.86Z" transform="translate(-456.28 -1091.44)" fill="#daa400"/>
      <path d="M573.44,1334l1.86-1.86v-99l-1.86,1.86Z" transform="translate(-456.28 -1091.44)" fill="#daa400"/>
      <path d="M569.81,1337.67l1.86-1.86v-99l-1.86,1.86Z" transform="translate(-456.28 -1091.44)" fill="#daa400"/>
      <path d="M566.18,1341.3l1.86-1.86v-99l-1.86,1.86Z" transform="translate(-456.28 -1091.44)" fill="#daa400"/>
      <path d="M488.2,1268.83v-3.16l-1.58,1.58Z" transform="translate(-456.28 -1091.44)" fill="#daa400"/>
      <path d="M558.92,1339.56l1.86,1.85V1193.08l-1.86,1.86Z" transform="translate(-456.28 -1091.44)" fill="#daa400"/>
      <path d="M555.3,1335.93l1.85,1.85V1196.71l-1.85,1.86Z" transform="translate(-456.28 -1091.44)" fill="#daa400"/>
      <path d="M551.67,1332.3l1.85,1.86V1200.34l-1.85,1.86Z" transform="translate(-456.28 -1091.44)" fill="#daa400"/>
      <path d="M548,1328.67l1.86,1.86V1204l-1.86,1.86Z" transform="translate(-456.28 -1091.44)" fill="#daa400"/>
      <path d="M544.41,1325l1.86,1.86V1207.6l-1.86,1.86Z" transform="translate(-456.28 -1091.44)" fill="#daa400"/>
      <path d="M540.78,1321.41l1.86,1.86v-112l-1.86,1.86Z" transform="translate(-456.28 -1091.44)" fill="#daa400"/>
      <path d="M537.15,1317.78l1.86,1.86V1214.86l-1.86,1.86Z" transform="translate(-456.28 -1091.44)" fill="#daa400"/>
      <path d="M533.52,1314.15l1.86,1.86v-97.52l-1.86,1.86Z" transform="translate(-456.28 -1091.44)" fill="#daa400"/>
      <path d="M529.89,1310.52l1.86,1.86v-90.26l-1.86,1.86Z" transform="translate(-456.28 -1091.44)" fill="#daa400"/>
      <path d="M526.26,1306.89l1.86,1.86v-83l-1.86,1.86Z" transform="translate(-456.28 -1091.44)" fill="#daa400"/>
      <path d="M522.63,1303.26l1.86,1.86v-75.74l-1.86,1.85Z" transform="translate(-456.28 -1091.44)" fill="#daa400"/>
      <path d="M519,1299.64l1.86,1.85V1233l-1.86,1.86Z" transform="translate(-456.28 -1091.44)" fill="#daa400"/>
      <path d="M515.37,1296l1.86,1.85v-61.23l-1.86,1.86Z" transform="translate(-456.28 -1091.44)" fill="#daa400"/>
      <path d="M511.75,1292.38l1.86,1.86v-54l-1.86,1.86Z" transform="translate(-456.28 -1091.44)" fill="#daa400"/>
      <path d="M508.12,1288.75l1.86,1.86v-46.72l-1.86,1.86Z" transform="translate(-456.28 -1091.44)" fill="#daa400"/>
      <path d="M504.49,1285.12l1.86,1.86v-39.46l-1.86,1.86Z" transform="translate(-456.28 -1091.44)" fill="#daa400"/>
      <path d="M500.86,1281.49l1.86,1.86v-32.2l-1.86,1.86Z" transform="translate(-456.28 -1091.44)" fill="#daa400"/>
      <path d="M497.23,1277.86l1.86,1.86v-24.94l-1.86,1.86Z" transform="translate(-456.28 -1091.44)" fill="#daa400"/>
      <path d="M493.6,1274.23l1.86,1.86v-17.68l-1.86,1.86Z" transform="translate(-456.28 -1091.44)" fill="#daa400"/>
      <path d="M490,1270.6l1.86,1.86V1262L490,1263.9Z" transform="translate(-456.28 -1091.44)" fill="#daa400"/>
    </g>
    <g>
      <path d="M639.48,1167.5H487.37l-.76.75.64.64H639.59l.64-.64Z" transform="translate(-456.28 -1091.44)" fill="#db0034"/>
      <path d="M563.43,1091.44l-1.24,1.24h2.47Z" transform="translate(-456.28 -1091.44)" fill="#db0034"/>
      <path d="M566.89,1094.91H560l-1.39,1.4h9.73Z" transform="translate(-456.28 -1091.44)" fill="#db0034"/>
      <path d="M570.52,1098.55h-14.2l-1.39,1.39h17Z" transform="translate(-456.28 -1091.44)" fill="#db0034"/>
      <path d="M574.15,1102.17H552.7l-1.4,1.4h24.25Z" transform="translate(-456.28 -1091.44)" fill="#db0034"/>
      <path d="M577.78,1105.8H549.07l-1.4,1.4h31.5Z" transform="translate(-456.28 -1091.44)" fill="#db0034"/>
      <path d="M581.41,1109.43h-36l-1.4,1.4h38.77Z" transform="translate(-456.28 -1091.44)" fill="#db0034"/>
      <path d="M585,1113.06H541.81l-1.39,1.39h46Z" transform="translate(-456.28 -1091.44)" fill="#db0034"/>
      <path d="M588.67,1116.69H538.18l-1.39,1.39h53.28Z" transform="translate(-456.28 -1091.44)" fill="#db0034"/>
      <path d="M592.3,1120.32H534.55l-1.39,1.39h60.53Z" transform="translate(-456.28 -1091.44)" fill="#db0034"/>
      <path d="M595.93,1124h-65l-1.39,1.39h67.79Z" transform="translate(-456.28 -1091.44)" fill="#db0034"/>
      <path d="M599.56,1127.58H527.29L525.9,1129H601Z" transform="translate(-456.28 -1091.44)" fill="#db0034"/>
      <path d="M603.19,1131.21H523.66l-1.39,1.39h82.31Z" transform="translate(-456.28 -1091.44)" fill="#db0034"/>
      <path d="M606.81,1134.83H520l-1.39,1.4h89.57Z" transform="translate(-456.28 -1091.44)" fill="#db0034"/>
      <path d="M610.44,1138.46h-94l-1.4,1.4h96.83Z" transform="translate(-456.28 -1091.44)" fill="#db0034"/>
      <path d="M614.07,1142.09H512.77l-1.39,1.4H615.47Z" transform="translate(-456.28 -1091.44)" fill="#db0034"/>
      <path d="M617.7,1145.72H509.15l-1.4,1.4H619.1Z" transform="translate(-456.28 -1091.44)" fill="#db0034"/>
      <path d="M621.33,1149.35H505.52l-1.4,1.39h118.6Z" transform="translate(-456.28 -1091.44)" fill="#db0034"/>
      <path d="M625,1153H501.89l-1.4,1.39H626.36Z" transform="translate(-456.28 -1091.44)" fill="#db0034"/>
      <path d="M628.59,1156.61H498.26l-1.39,1.39H630Z" transform="translate(-456.28 -1091.44)" fill="#db0034"/>
      <path d="M632.22,1160.24H494.63l-1.39,1.39H633.61Z" transform="translate(-456.28 -1091.44)" fill="#db0034"/>
      <path d="M635.85,1163.87H491l-1.39,1.39H637.24Z" transform="translate(-456.28 -1091.44)" fill="#db0034"/>
      <path d="M562.07,1243.71l1.35,1.35v-1.35Z" transform="translate(-456.28 -1091.44)" fill="#db0034"/>
      <path d="M490.89,1172.52H636l1.4-1.39H489.49Z" transform="translate(-456.28 -1091.44)" fill="#db0034"/>
      <path d="M494.52,1176.15H632.33l1.4-1.39H493.12Z" transform="translate(-456.28 -1091.44)" fill="#db0034"/>
      <path d="M498.14,1179.78H628.7l1.4-1.4H496.75Z" transform="translate(-456.28 -1091.44)" fill="#db0034"/>
      <path d="M501.78,1183.41h123.3l1.39-1.4H500.38Z" transform="translate(-456.28 -1091.44)" fill="#db0034"/>
      <path d="M505.4,1187H621.45l1.39-1.4H504Z" transform="translate(-456.28 -1091.44)" fill="#db0034"/>
      <path d="M509,1190.66H617.82l1.39-1.39H507.64Z" transform="translate(-456.28 -1091.44)" fill="#db0034"/>
      <path d="M511.27,1192.9l1.39,1.39h50.76v-1.39Z" transform="translate(-456.28 -1091.44)" fill="#db0034"/>
      <path d="M614.19,1194.29l1.39-1.39h-49.7l1.4,1.39Z" transform="translate(-456.28 -1091.44)" fill="#db0034"/>
      <path d="M514.9,1196.53l1.39,1.39h47.13v-1.39Z" transform="translate(-456.28 -1091.44)" fill="#db0034"/>
      <path d="M610.56,1197.92l1.39-1.39H569.52l1.39,1.39Z" transform="translate(-456.28 -1091.44)" fill="#db0034"/>
      <path d="M518.53,1200.15l1.39,1.4h43.51v-1.4Z" transform="translate(-456.28 -1091.44)" fill="#db0034"/>
      <path d="M606.93,1201.55l1.39-1.39H573.14l1.39,1.39Z" transform="translate(-456.28 -1091.44)" fill="#db0034"/>
      <path d="M522.15,1203.79l1.4,1.39h39.87v-1.39Z" transform="translate(-456.28 -1091.44)" fill="#db0034"/>
      <path d="M603.3,1205.18l1.4-1.39H576.77l1.39,1.39Z" transform="translate(-456.28 -1091.44)" fill="#db0034"/>
      <path d="M599.67,1208.81l1.4-1.39H580.4l1.39,1.39Z" transform="translate(-456.28 -1091.44)" fill="#db0034"/>
      <path d="M525.78,1207.42l1.39,1.39h36.25v-1.39Z" transform="translate(-456.28 -1091.44)" fill="#db0034"/>
      <path d="M596,1212.44l1.4-1.39H584l1.39,1.39Z" transform="translate(-456.28 -1091.44)" fill="#db0034"/>
      <path d="M529.41,1211.05l1.4,1.39h32.62v-1.39Z" transform="translate(-456.28 -1091.44)" fill="#db0034"/>
      <path d="M592.42,1216.07l1.39-1.4h-6.15l1.39,1.4Z" transform="translate(-456.28 -1091.44)" fill="#db0034"/>
      <path d="M533,1214.67l1.4,1.4h29v-1.4Z" transform="translate(-456.28 -1091.44)" fill="#db0034"/>
      <path d="M536.67,1218.3l1.39,1.4h25.36v-1.4Z" transform="translate(-456.28 -1091.44)" fill="#db0034"/>
      <path d="M540.3,1221.93l1.39,1.4h21.74v-1.4Z" transform="translate(-456.28 -1091.44)" fill="#db0034"/>
      <path d="M543.93,1225.56l1.39,1.4h18.1v-1.4Z" transform="translate(-456.28 -1091.44)" fill="#db0034"/>
      <path d="M547.56,1229.19l1.39,1.39h14.48v-1.39Z" transform="translate(-456.28 -1091.44)" fill="#db0034"/>
      <path d="M551.19,1232.82l1.39,1.39h10.84v-1.39Z" transform="translate(-456.28 -1091.44)" fill="#db0034"/>
      <path d="M554.82,1236.45l1.39,1.39h7.22v-1.39Z" transform="translate(-456.28 -1091.44)" fill="#db0034"/>
      <path d="M558.45,1240.08l1.39,1.39h3.59v-1.39Z" transform="translate(-456.28 -1091.44)" fill="#db0034"/>
    </g>
    <path d="M560.33,1116.48c-.9,10.4-2.76,22.21-10.23,28.58a22.47,22.47,0,0,0-3-3.24c6.75-5.54,8.16-16.39,8.68-25.69ZM579.89,1142a11.53,11.53,0,0,0-3.62,3c-9.57-9.19-10.09-27-10.3-29.27l4.1-.34C570.18,1117.13,570.62,1133.49,579.89,1142Z" transform="translate(-456.28 -1091.44)" fill="#1a1311"/>
    <path d="M558.09,1168.11c1.38,1.38,4.48,5,5.23,5.93l-2.34,3.41c-.65-1.18-1.75-2.9-2.89-4.52v12.71H554v-12.26a30.78,30.78,0,0,1-4.82,8.23,18.08,18.08,0,0,0-2.07-3.85,31.05,31.05,0,0,0,5.89-10.23h-5.13v-3.79H554v-4.48c-1.69.28-3.34.52-4.93.72a13.62,13.62,0,0,0-1.1-3.2,61.6,61.6,0,0,0,12.64-3l2.65,3.2a43.42,43.42,0,0,1-5.13,1.45v5.27h5v3.78h-5Zm19.66-11.36V1184h-4.23v-2.73H568V1184h-4v-27.28Zm-4.23,20.63v-16.7H568v16.7Z" transform="translate(-456.28 -1091.44)" fill="#1a1311"/>
    <path d="M553.51,1265a22.85,22.85,0,0,1-3.34,7.75,23.28,23.28,0,0,0-2.93-1.9,17.24,17.24,0,0,0,2.82-6.57Zm10.23.72c-1.86,8.34-5.86,13-13.6,15.7a9.45,9.45,0,0,0-2.14-3.23,16.47,16.47,0,0,0,8.27-5H554v-10.33h-6.64v-3.58h2.06v-7.23h3.2v7.23h1.73v-10.19h3.58V1253h4.82v3.34h-4.82v3h5.68v3.58h-5.89v8.37a19.76,19.76,0,0,0,2.41-6.34Zm11,8.78a36.92,36.92,0,0,1,5.24,3.9l-2.38,2.75a36.12,36.12,0,0,0-5.34-4.37l2-2.28h-5.71l2.37,2.52a41.35,41.35,0,0,1-7.4,4.44,19,19,0,0,0-1.65-3,32,32,0,0,0,6.47-4h-3.51v-18.14h4.34c.14-.79.27-1.62.41-2.41h-6v-3.45H579.3v3.45h-6c-.24.86-.48,1.65-.76,2.41h6.06v18.15Zm-6.3-13h6.44v-2.1h-6.44Zm0,5h6.44v-2.17h-6.44Zm0,5h6.44v-2.2h-6.44Z" transform="translate(-456.28 -1091.44)" fill="#1a1311"/>
    <path d="M557.47,1306.58a30.79,30.79,0,0,1-2,7.47c2.13,3.2,5.89,3.62,11.29,3.65,3.69,0,9.3-.21,13.19-.59a11.39,11.39,0,0,0-1.31,3.79c-3.54.24-7.92.31-11.94.31-6.2,0-10.16-.65-12.78-4a15.41,15.41,0,0,1-4.41,4.65,13.4,13.4,0,0,0-2.62-2.75c3.17-1.9,5.38-5.27,6.51-9.95h-2.89a4.11,4.11,0,0,0-2.14.51,24.42,24.42,0,0,0-1.27-3.3,3.62,3.62,0,0,0,1.76-1.1,41.35,41.35,0,0,0,3.34-4.34h-4.45v-3.28h7l.41-.17,2.51,1.14c-1.31,1.89-3.48,5-5.34,7.37h2.52l.65-.1Zm-4.34-9.54a51.83,51.83,0,0,0-4.51-5.51l3-1.9a57.55,57.55,0,0,1,4.58,5.17Zm11.71,1.72c.1-.55.24-1.1.38-1.69H557v-3.34h4.58A28.67,28.67,0,0,0,560,1291l3.24-1.27a27.49,27.49,0,0,1,2.2,3.44l-1.21.55h5.17a28.15,28.15,0,0,0,2.17-4.1l4,1.1q-1.1,1.61-2.07,3h5.51v3.34h-9.3c-.31.59-.59,1.14-.9,1.69h7.54v16.63H559.6v-16.63Zm7.4,2.89h-8.78v1.9h8.78Zm0,4.48h-8.78V1308h8.78Zm0,4.48h-8.78v1.89h8.78Z" transform="translate(-456.28 -1091.44)" fill="#1a1311"/>
    <g>
      <g>
        <path d="M456.28,1213.09a20.36,20.36,0,0,1,3.12-.21,6.33,6.33,0,0,1,3,.48,2.18,2.18,0,0,1-.27,4.1v0a2.41,2.41,0,0,1,1.93,2.39A2.66,2.66,0,0,1,463,1222c-.74.56-2,.89-4.08.89a17.38,17.38,0,0,1-2.6-.17Zm2.62,3.66h.53c1.12,0,1.66-.4,1.66-1s-.44-.94-1.33-.94a4.91,4.91,0,0,0-.86,0Zm0,4.21a4.83,4.83,0,0,0,.76,0c.88,0,1.63-.35,1.63-1.22s-.77-1.15-1.76-1.15h-.63Z" transform="translate(-456.28 -1091.44)" fill="#1a1311"/>
        <path d="M474,1220l-.84,2.79h-1.86l3.17-9.87h2.3l3.2,9.87H478l-.9-2.79Zm2.84-1.36-.78-2.43c-.19-.61-.35-1.29-.5-1.86h0c-.14.58-.29,1.26-.47,1.85l-.76,2.44Z" transform="translate(-456.28 -1091.44)" fill="#1a1311"/>
        <path d="M487.68,1213.09a15.73,15.73,0,0,1,2.74-.21,4.58,4.58,0,0,1,3,.8,2.48,2.48,0,0,1,.85,2,2.61,2.61,0,0,1-1.8,2.46v0a2.51,2.51,0,0,1,1.38,1.91,21.58,21.58,0,0,0,.78,2.75h-1.85a12.55,12.55,0,0,1-.67-2.32c-.28-1.29-.75-1.7-1.77-1.73h-.91v4h-1.79Zm1.79,4.35h1.07c1.22,0,2-.65,2-1.63s-.75-1.57-1.92-1.58a5.29,5.29,0,0,0-1.12.09Z" transform="translate(-456.28 -1091.44)" fill="#1a1311"/>
        <path d="M504,1222.82l-2.42-9.87h1.93l.94,4.48c.24,1.2.47,2.46.64,3.44h0c.16-1,.43-2.21.72-3.46l1.06-4.46h1.9l1,4.54c.24,1.17.45,2.27.6,3.34h0c.18-1.09.41-2.22.67-3.42l1-4.46H514l-2.66,9.87h-1.92l-1-4.65c-.24-1-.42-2.07-.56-3.12h0c-.17,1-.38,2.1-.65,3.13l-1.15,4.64Z" transform="translate(-456.28 -1091.44)" fill="#1a1311"/>
        <path d="M530.21,1217.79c0,3.3-2,5.19-4.72,5.19s-4.55-2.13-4.55-5,1.92-5.17,4.7-5.17S530.21,1215,530.21,1217.79Zm-7.37.14c0,2,1,3.61,2.74,3.61s2.73-1.62,2.73-3.69c0-1.86-.92-3.62-2.72-3.62s-2.75,1.67-2.75,3.7Z" transform="translate(-456.28 -1091.44)" fill="#1a1311"/>
      </g>
      <g>
        <path d="M577.14,1222.57a6.61,6.61,0,0,1-2.49.4c-3.69,0-5.31-2.3-5.31-4.92,0-3.48,2.55-5.25,5.49-5.25a5.67,5.67,0,0,1,2.47.44l-.52,2.08A4.78,4.78,0,0,0,575,1215a2.91,2.91,0,0,0,0,5.82,5.6,5.6,0,0,0,1.77-.28Z" transform="translate(-456.28 -1091.44)" fill="#1a1311"/>
        <path d="M586.86,1213v4H591v-4h1.8v9.87H591v-4.35h-4.17v4.35h-1.8V1213Z" transform="translate(-456.28 -1091.44)" fill="#1a1311"/>
        <path d="M603.23,1220l-.84,2.79h-1.86l3.16-9.87H606l3.21,9.87h-1.94l-.89-2.79Zm2.84-1.36-.78-2.43c-.19-.61-.35-1.29-.5-1.86h0c-.14.58-.29,1.26-.47,1.85l-.76,2.44Z" transform="translate(-456.28 -1091.44)" fill="#1a1311"/>
        <path d="M616.93,1222.82V1213H619l2.55,4.24a29.23,29.23,0,0,1,1.68,3.3h0c-.12-1.31-.16-2.58-.16-4.08V1213h1.67v9.87h-1.87l-2.57-4.34a34.27,34.27,0,0,1-1.77-3.4h0c.08,1.28.1,2.58.1,4.2v3.53Z" transform="translate(-456.28 -1091.44)" fill="#1a1311"/>
        <path d="M633.19,1222.82V1213h2.06l2.55,4.24a27.66,27.66,0,0,1,1.68,3.3h0a40.32,40.32,0,0,1-.17-4.08V1213H641v9.87h-1.86l-2.58-4.34a34.19,34.19,0,0,1-1.76-3.4h-.05c.07,1.28.1,2.58.1,4.2v3.53Z" transform="translate(-456.28 -1091.44)" fill="#1a1311"/>
        <path d="M655,1218.44h-3.72v2.9h4.15v1.48h-6V1213h5.75v1.48h-3.94V1217H655Z" transform="translate(-456.28 -1091.44)" fill="#1a1311"/>
        <path d="M663.36,1213h1.8v8.36h4.06v1.51h-5.86Z" transform="translate(-456.28 -1091.44)" fill="#1a1311"/>
      </g>
    </g>
  </g>
</svg>
