<svg xmlns="http://www.w3.org/2000/svg" width="243.762" height="285.061" viewBox="0 0 243.762 285.061"><g transform="translate(0 0)"><g transform="translate(14.929 0)"><g transform="translate(0 0)"><g transform="translate(85.207 17.195)"><path d="M-413.343,89c.977-.36,4.063-6.686,4.577-7.663,1.183-2.314,2.417-4.629,3.652-6.892.1-.154.206-.309.411-.309a.273.273,0,0,1,.309.309,26.419,26.419,0,0,1-.926,2.88l-2.006,5.915a25.86,25.86,0,0,0-1.9,8.28c0,2.572,1.183,4.937,1.183,7.458,0,1.594-.874,3.034-2.572,3.034a2.337,2.337,0,0,1-2.417-2.572c0-1.749.051-3.5.051-5.3,0-1.389-.309-3.137-1.749-3.806-.36-.154-1.131-.36-1.131-.823C-415.863,88.953-414.012,89.262-413.343,89Zm1.492-10.081c-2.263,0-2.16-2.109-2.366-3.754a5.946,5.946,0,0,0-.36-1.594,7.259,7.259,0,0,0-.977-2.006,1.462,1.462,0,0,1-.206-.617c0-.206.051-.309.257-.309a4.649,4.649,0,0,1,1.389.566c2.057.977,4.269,2.932,4.269,5.349C-409.846,77.844-410.514,78.924-411.851,78.924Zm2.314-10.8a2.43,2.43,0,0,1-2.109-1.029c-.771-1.7-.617-3.6-1.8-5.3a9.493,9.493,0,0,1-1.234-1.7c0-.206.1-.206.257-.206a7.517,7.517,0,0,1,1.852.463,7.573,7.573,0,0,1,3.806,2.469A4.8,4.8,0,0,1-407.48,65.6,2.312,2.312,0,0,1-409.537,68.123Zm26.333-1.8c.514-.566,1.286-1.646,2.109-1.646.874,0,4.372,2.829,4.372,3.754,0,1.492-3.086.669-4.32,1.492l-2.109,1.389,2.366,2.109a.711.711,0,0,1,.309.566c0,.411-.206.669-.617.669h-7.92c-.309.566-.36.514-.926.874v3.7h3.5c.411-.411,1.286-1.646,2.006-1.646.669,0,2.932,1.7,3.5,2.057a1.262,1.262,0,0,1,.566.874c0,.411-.926.977-1.183,1.234v8.126c0,1.286.154,2.674.257,3.96a18.808,18.808,0,0,1-4.732.926l.154-2.366h-11.675v1.44a32.875,32.875,0,0,1-4.372.874c.1-1.337.309-2.726.309-4.012v-9.36a12.335,12.335,0,0,0-.257-2.366,5.26,5.26,0,0,1-.36-1.492c0-.257.1-.309.36-.309,1.286,0,4.012,1.44,5.143,2.057h2.88l.051-4.577h-6.223l-.72.669-1.7-2.777a30.32,30.32,0,0,0,3.034.309h13.269l1.749-1.7a.609.609,0,0,1,.72-.1l.926-2.932h-18.31a8.858,8.858,0,0,1-.206,2.006,3.491,3.491,0,0,1-3.137,2.777,1.9,1.9,0,0,1-2.057-2.006c0-2.314,2.52-3.034,3.343-4.989a5.49,5.49,0,0,0,.36-1.389c0-.309,0-1.183.463-1.183s.926,2.572,1.029,2.983Zm-18,37.339c-.771.463-1.594.926-2.366,1.389a7.628,7.628,0,0,1-1.9,1.029.288.288,0,0,1-.257-.309.534.534,0,0,1,.206-.411,43.566,43.566,0,0,0,3.446-3.446c1.44-1.749,5.143-6.172,5.812-8.126a.393.393,0,0,1,.257-.1c.617,0,2.52,1.594,3.034,2.006.36.257,1.44.926,1.44,1.44,0,.669-1.543.823-2.006.926A81.176,81.176,0,0,1-401.205,103.662Zm7.406-19.081v-3.6h-3.292l-.463.411v3.189Zm0,6.017V86.33h-3.754V90.6Zm1.852-25.15c-2.932,0-2.006-3.6-2.469-5.5a4.9,4.9,0,0,0-.874-2.057c-.1-.154-.411-.514-.411-.669,0-.206.051-.36.257-.36a9.392,9.392,0,0,1,1.8.72c1.852.874,4.166,2.932,4.166,5.143C-389.479,64.369-390.2,65.449-391.947,65.449Zm9.36,40.271c-1.491,0-2.417-2.109-2.88-3.292a26.336,26.336,0,0,0-1.286-2.726,18.951,18.951,0,0,0-3.5-4.32.954.954,0,0,1-.36-.617.243.243,0,0,1,.257-.257c.823,0,3.394,1.492,4.269,2.006,2.16,1.286,5.863,3.96,5.863,6.84A2.241,2.241,0,0,1-382.587,105.72Zm-3.292-21.138v-3.6h-4.063v3.6Zm0,6.017V86.33h-4.063V90.6Z" transform="translate(415.914 -56.86)" fill="#caa846"/><path d="M-407.467,137.183c-1.8.566-3.549,1.08-5.349,1.646a16.333,16.333,0,0,1-1.954.566c-.206,0-.309-.154-.309-.36,0-.154.1-.257.257-.36,1.8-.977,3.549-2.006,5.3-3.086a28.921,28.921,0,0,0,6.686-5.555c.154-.257.72-.926,1.029-.926.514,0,4.68,2.983,4.68,3.7,0,.566-1.9.72-2.263.771A66.6,66.6,0,0,1-407.467,137.183Zm2.16-7.406c-1.492.463-3.137.72-4.68,1.08.1-1.9.36-4.269.36-6.12V111.57c0-1.08-.1-2.212-.154-3.292-.051-.566-.411-1.234-.411-1.646,0-.257.411-.309.617-.309a41.122,41.122,0,0,1,4.937,1.749h17.281c.514-.463,1.543-1.852,2.263-1.852a2.193,2.193,0,0,1,.926.309l2.88,1.954a.792.792,0,0,1,.463.669c0,.514-1.234,1.183-1.543,1.389v13.526c0,1.749.206,3.6.309,5.349a39.96,39.96,0,0,1-4.886,1.234l.257-2.623h-18.618Zm1.954-24.533a42.474,42.474,0,0,1-4.423,1.029c.1-1.852.36-4.217.36-6.017V96.141c0-1.08-.1-2.16-.154-3.24a3.528,3.528,0,0,0-.309-1.594,1.823,1.823,0,0,1-.154-.566c0-.206.309-.309.463-.309.669,0,4.269,1.9,4.937,2.212h13.784c.309-.309,1.594-1.852,2.16-1.852.617,0,3.189,1.954,3.7,2.314a.822.822,0,0,1,.463.669c0,.566-1.131,1.131-1.543,1.389v4.423c0,1.8.206,3.652.257,5.452a45.371,45.371,0,0,1-4.577,1.029l.206-2.572h-15.172Zm16.664,8.435v-3.806h-17.949l-.669.411v3.394Zm0,6.069V115.53h-18.618v4.217Zm0,6.429V121.6h-18.618v4.577Zm-1.492-24.481V94.5h-14.555l-.617.514V101.7Zm7.3,37.545a3.671,3.671,0,0,1-2.366-1.131,43.1,43.1,0,0,0-7.355-5.915,29.92,29.92,0,0,0-3.086-1.749,2.578,2.578,0,0,1-.72-.411.467.467,0,0,1-.154-.36c0-.206.154-.206.36-.206a12.411,12.411,0,0,1,2.674.566c2.366.566,9.206,2.16,10.9,3.96.669.771,1.852,2.109,1.852,3.137A2.025,2.025,0,0,1-380.877,139.24Z" transform="translate(416.57 -28.766)" fill="#caa846"/><path d="M-413.165,158.742c1.183,1.44,1.9,4.732,1.9,6.532,0,1.491-.514,3.754-2.366,3.754-1.183,0-2.263-.566-2.263-1.9,0-1.543,1.183-2.983,1.749-4.423a10.853,10.853,0,0,0,.411-4.063c0-.1.154-.154.257-.154C-413.319,158.485-413.217,158.639-413.165,158.742Zm9-22.475c.1-.257.72-2.366.823-2.417.669,0,4.217,2.777,4.68,3.292a.925.925,0,0,1,.36.771c0,.411-1.646.617-1.9.669-3.7,4.423-7.509,8.743-11.469,13.012,2.88,0,5.76-.1,8.64-.257a11.387,11.387,0,0,0-1.286-3.857,3.412,3.412,0,0,1-.463-.977.221.221,0,0,1,.206-.206,1.1,1.1,0,0,1,.617.206c1.954,1.234,5.143,4.217,5.143,6.635,0,1.286-.669,2.623-2.057,2.623-1.9,0-1.852-1.646-2.057-3.086-3.6,1.286-7.252,2.314-10.8,3.754l-1.8-5.04a6.371,6.371,0,0,0,2.366-1.492,16.389,16.389,0,0,0,2.212-2.777c1.337-1.852,2.572-3.7,3.806-5.555-2.263.874-4.526,1.8-6.737,2.777l-1.44-4.732a4.345,4.345,0,0,0,1.389-.669c1.44-1.234,3.549-6.069,4.269-7.92a31.9,31.9,0,0,0,1.543-4.217c.051-.309.206-1.9.463-1.9.771,0,5.4,2.777,5.4,3.549,0,.617-1.234.771-1.646.823-1.594,2.314-3.137,4.68-4.834,6.943l-2.829,3.7h1.029c1.44,0,2.88,0,4.269-.051A19.407,19.407,0,0,0-404.165,136.266Zm-5.452,21.19c.566,0,1.9,1.8,2.263,2.212a9.915,9.915,0,0,1,1.646,3.086,8.372,8.372,0,0,1,.411,2.263,2.485,2.485,0,0,1-2.366,2.623c-1.234,0-1.7-.926-1.7-2.057,0-1.44.309-2.932.309-4.423a6.937,6.937,0,0,0-.36-2.263,5.6,5.6,0,0,1-.36-1.234C-409.771,157.559-409.719,157.456-409.616,157.456Zm8.538,2.52a6.285,6.285,0,0,1,1.9,4.114c0,1.286-.72,2.674-2.16,2.674a1.88,1.88,0,0,1-1.286-.463,2.3,2.3,0,0,1-.617-1.389c-.36-2.572,0-4.115-1.389-6.583a5.812,5.812,0,0,1-.566-1.132C-404.01,156.993-401.7,159.308-401.079,159.976Zm4.577-29.264a9.48,9.48,0,0,0-.154-2.109,15.756,15.756,0,0,1-.514-1.954c0-.257.154-.309.36-.309.771,0,4.629,2.006,5.3,2.366h6.069c.1-.154,1.286-2.212,1.749-2.212.411,0,4.474,2.572,4.474,3.24,0,.566-1.286,1.389-1.646,1.646l-.051,37.545c.154-.154,1.646-2.212,2.212-2.212.514,0,3.292,2.932,3.292,3.6a.461.461,0,0,1-.463.463H-399.9l-.72.669-1.9-2.726c.823.051,1.749.154,2.623.154h3.343Zm11.521,11.366V130.506h-6.737l-.72.617v10.955Zm0,12.652v-10.8h-7.458v10.8Zm0,14.144V156.53h-7.458v12.344Z" transform="translate(415.891 0.078)" fill="#caa846"/></g><g transform="translate(0 67.106)"><path d="M-429.37,173.342a33.753,33.753,0,0,1-18.9-5.808c-9.293-6.267-14.006-15.666-14.006-27.931V117.77c0-12.265,4.711-21.662,14.006-27.931a33.671,33.671,0,0,1,37.806,0c9.294,6.269,14.006,15.668,14.006,27.931V139.6c0,12.265-4.711,21.662-14.006,27.931A33.749,33.749,0,0,1-429.37,173.342Zm0-87.931A32.383,32.383,0,0,0-447.5,90.982c-8.89,6-13.4,15.011-13.4,26.788V139.6c0,11.78,4.508,20.791,13.4,26.788a32.286,32.286,0,0,0,36.266,0c8.89-6,13.4-15.009,13.4-26.788V117.77c0-11.778-4.508-20.791-13.4-26.788A32.379,32.379,0,0,0-429.37,85.411Z" transform="translate(462.279 -84.033)" fill="#caa846"/><path d="M-444.916,129.91h-6.175c-.186-.02-8.334-1.363-8.334-10.182V94.692h1.378v25.036a8.531,8.531,0,0,0,7.061,8.811l5.894-.007c2.483,0,8.04-.77,8.437-8.626a24.566,24.566,0,0,0-5.217-15.9l-12.882-14.116,1.016-.929,12.895,14.129a25.519,25.519,0,0,1,5.564,16.884C-435.743,129.142-442.642,129.91-444.916,129.91Z" transform="translate(464.667 -79.907)" fill="#caa846"/><path d="M-435.251,112.533h-1.378c0-6.758-7.474-6.96-7.794-6.963H-450.4c-8.4,0-9.017-8.988-9.023-9.079l1.376-.081c.018.32.555,7.783,7.647,7.783h5.992C-444.307,104.192-435.251,104.436-435.251,112.533Z" transform="translate(464.668 -73.676)" fill="#caa846"/><path d="M-455.615,162.7h-1.378V144.469a6.615,6.615,0,0,1,6.321-6.861,6.615,6.615,0,0,1,6.322,6.861,6.366,6.366,0,0,0,1.591,4.12,5.66,5.66,0,0,0,4.2,1.506h4.074V112.915c0-15.8-11.57-26.445-11.688-26.551l.924-1.023c.121.11,12.141,11.151,12.141,27.574v38.557h-5.452a6.96,6.96,0,0,1-5.189-1.929,7.681,7.681,0,0,1-1.978-5.09,5.237,5.237,0,0,0-4.945-5.468,5.24,5.24,0,0,0-4.943,5.483Z" transform="translate(466.702 -82.938)" fill="#caa846"/><path d="M-428.261,136.879h-1.378c0-5.889-4.346-10.679-9.686-10.679s-9.686,4.79-9.686,10.679h-1.378c0-6.649,4.961-12.057,11.063-12.057S-428.261,130.23-428.261,136.879Z" transform="translate(472.231 -49.899)" fill="#caa846"/><path d="M-429.37,173.342a33.753,33.753,0,0,1-18.9-5.808c-9.293-6.267-14.006-15.666-14.006-27.931h1.378c0,11.78,4.508,20.791,13.4,26.788a32.286,32.286,0,0,0,36.266,0c8.89-6,13.4-15.009,13.4-26.788V117.77c0-11.778-4.508-20.791-13.4-26.788a32.293,32.293,0,0,0-36.266,0c-8.89,6-13.4,15.011-13.4,26.788v10.916h-.683v.689l0-.689,0,.689h-.689l-.005-11.605c0-12.265,4.711-21.662,14.006-27.931a33.671,33.671,0,0,1,37.806,0c9.294,6.269,14.006,15.668,14.006,27.931V139.6c0,12.265-4.711,21.662-14.006,27.931A33.749,33.749,0,0,1-429.37,173.342Z" transform="translate(462.279 -84.033)" fill="#caa846"/><path d="M-432.725,129.91c-2.349,0-9.243-.771-9.708-9.934a25.513,25.513,0,0,1,5.555-16.871l12.9-14.142,1.018.929-12.895,14.129a24.577,24.577,0,0,0-5.206,15.885c.4,7.86,6.016,8.631,8.348,8.626h6.089a8.54,8.54,0,0,0,6.954-8.8V94.692h1.378v25.036c0,8.819-8.146,10.161-8.229,10.172l-6.1.009Z" transform="translate(478.862 -79.907)" fill="#caa846"/><path d="M-441.084,112.532h-1.378c0-8.1,9.057-8.341,9.149-8.341h6c7.116,0,7.628-7.463,7.647-7.781l1.376.079c-.005.092-.621,9.079-9.022,9.079h-5.99C-433.608,105.574-441.084,105.794-441.084,112.532Z" transform="translate(478.862 -73.675)" fill="#caa846"/><path d="M-420.85,162.7h-1.378V144.469a5.241,5.241,0,0,0-4.945-5.483,5.24,5.24,0,0,0-4.943,5.483,7.687,7.687,0,0,1-1.978,5.075,6.966,6.966,0,0,1-5.193,1.929h-5.45V112.915c0-16.423,12.02-27.464,12.141-27.574l.924,1.023c-.118.107-11.688,10.755-11.688,26.551v37.179h4.072a5.652,5.652,0,0,0,4.208-1.514,6.332,6.332,0,0,0,1.585-4.1,6.618,6.618,0,0,1,6.32-6.873,6.615,6.615,0,0,1,6.322,6.861Z" transform="translate(476.959 -82.938)" fill="#caa846"/><path d="M-452.777,130.191" transform="translate(470.23 -45.406)" fill="#caa846"/><path d="M-433.3,136.879h-1.378c0-5.889-4.346-10.679-9.687-10.679v-1.378C-438.262,124.822-433.3,130.23-433.3,136.879Z" transform="translate(477.272 -49.899)" fill="#caa846"/></g><g transform="translate(147.005)"><path d="M-349.337,136.809a33.761,33.761,0,0,1-18.9-5.81c-9.292-6.267-14.006-15.664-14.006-27.931V81.238c0-12.266,4.713-21.662,14.006-27.931a33.667,33.667,0,0,1,37.807,0c9.294,6.269,14.006,15.664,14.006,27.931v21.831c0,12.266-4.711,21.664-14.006,27.931A33.76,33.76,0,0,1-349.337,136.809Zm0-87.931a32.384,32.384,0,0,0-18.135,5.571c-8.888,6-13.4,15.009-13.4,26.788v21.831c0,11.781,4.509,20.793,13.4,26.788a32.289,32.289,0,0,0,36.268,0c8.89-6,13.4-15.007,13.4-26.788V81.238c0-11.78-4.508-20.793-13.4-26.788A32.387,32.387,0,0,0-349.337,48.878Z" transform="translate(382.247 -47.499)" fill="#caa846"/><rect width="1.378" height="57.883" transform="translate(32.218 0.666)" fill="#caa846"/><path d="M-374.191,99.841h-1.378V87.473a5.063,5.063,0,0,1,5.042-5.071,5,5,0,0,1,4,1.975,6.427,6.427,0,0,0,5.18,2.408h6.429v1.378h-6.429a7.794,7.794,0,0,1-6.273-2.946,3.638,3.638,0,0,0-2.9-1.436,3.683,3.683,0,0,0-3.664,3.694Z" transform="translate(387.835 -18.291)" fill="#caa846"/><path d="M-349.337,136.809a33.761,33.761,0,0,1-18.9-5.81c-9.292-6.267-14.006-15.664-14.006-27.931h1.378c0,11.781,4.509,20.793,13.4,26.788a32.289,32.289,0,0,0,36.268,0c8.89-6,13.4-15.007,13.4-26.788V81.238c0-11.78-4.508-20.793-13.4-26.788a32.3,32.3,0,0,0-36.268,0c-8.888,6-13.4,15.009-13.4,26.788V92.154h-.681v.689l0-.689,0,.689h-.689l-.007-.689V81.238c0-12.266,4.713-21.662,14.006-27.931a33.667,33.667,0,0,1,37.807,0c9.294,6.269,14.006,15.664,14.006,27.931v21.831c0,12.266-4.711,21.664-14.006,27.931A33.76,33.76,0,0,1-349.337,136.809Z" transform="translate(382.247 -47.499)" fill="#caa846"/><path d="M-374.275,92.657" transform="translate(388.918 -9.709)" fill="#caa846"/><path d="M-365.048,76.461c-3.007,0-6.995-.5-9.844-2.735a9.267,9.267,0,0,1-3.479-7.041l-.039-.6.586-.121c.338-.07,8.328-1.672,13.5,2.043a10.109,10.109,0,0,1,4.083,7.358l.079.645-.639.116A25.95,25.95,0,0,1-365.048,76.461Zm-11.892-9.247a7.774,7.774,0,0,0,2.895,5.426c3.821,2.994,10.266,2.483,12.336,2.226a8.587,8.587,0,0,0-3.424-5.738C-369.045,66.316-375.035,66.932-376.94,67.215Z" transform="translate(385.459 -32.381)" fill="#caa846"/><path d="M-380.653,104.826l-.827-1.1,22.082-16.59c3.091-2.575,4.831-4.71,4.5-7.942a7.891,7.891,0,0,0-2.9-5.45L-379.73,58.653l.781-1.135,21.961,15.115a9.27,9.27,0,0,1,3.457,6.416c.439,4.239-2.235,6.851-5.013,9.164Z" transform="translate(382.889 -39.115)" fill="#caa846"/><path d="M-349.337,136.809a33.761,33.761,0,0,1-18.9-5.81c-9.292-6.267-14.006-15.664-14.006-27.931V81.238c0-12.266,4.713-21.662,14.006-27.931a33.667,33.667,0,0,1,37.807,0c9.294,6.269,14.006,15.664,14.006,27.931v21.831c0,12.266-4.711,21.664-14.006,27.931A33.76,33.76,0,0,1-349.337,136.809Zm-32.218-44.655h.685v10.914c0,11.781,4.509,20.793,13.4,26.788a32.289,32.289,0,0,0,36.268,0c8.89-6,13.4-15.007,13.4-26.788V81.238c0-11.78-4.508-20.793-13.4-26.788a32.3,32.3,0,0,0-36.268,0c-8.888,6-13.4,15.009-13.4,26.788V92.154Z" transform="translate(382.247 -47.499)" fill="#caa846"/><rect width="1.378" height="68.516" transform="translate(32.224 0.666)" fill="#caa846"/><path d="M-343.684,99.841h-1.378V87.473a3.684,3.684,0,0,0-3.666-3.694,3.638,3.638,0,0,0-2.9,1.436,7.792,7.792,0,0,1-6.273,2.946h-6.429V86.785h6.429a6.428,6.428,0,0,0,5.182-2.408,5,5,0,0,1,3.993-1.975,5.064,5.064,0,0,1,5.044,5.071Z" transform="translate(397.239 -18.291)" fill="#caa846"/><path d="M-355.916,93.657" transform="translate(404.281 -8.873)" fill="#caa846"/><path d="M-348.207,100.174c-.024-.457-.731-11.181-9.957-11.181h-1.376c-9.226,0-9.932,10.723-9.957,11.181l-1.376-.075c.007-.125.8-12.483,11.333-12.483h1.376c10.536,0,11.326,12.358,11.333,12.483Z" transform="translate(391.765 -13.928)" fill="#caa846"/><path d="M-355.3,76.462a25.9,25.9,0,0,1-4.243-.332l-.641-.116.079-.645a10.1,10.1,0,0,1,4.085-7.358c5.167-3.714,13.155-2.114,13.5-2.043l.586.121-.039.6a9.269,9.269,0,0,1-3.481,7.041C-348.307,75.96-352.293,76.462-355.3,76.462Zm-3.339-1.594c2.07.259,8.514.77,12.334-2.226a7.771,7.771,0,0,0,2.9-5.426c-1.9-.283-7.906-.893-11.813,1.916A8.592,8.592,0,0,0-358.639,74.867Z" transform="translate(400.71 -32.381)" fill="#caa846"/><path d="M-335.252,104.826l-22.084-16.592c-2.8-2.335-5.477-4.948-5.038-9.184a9.255,9.255,0,0,1,3.417-6.388l22-15.143.781,1.135-21.963,15.115A7.872,7.872,0,0,0-361,79.191c-.334,3.229,1.405,5.365,4.522,7.963l22.057,16.57Z" transform="translate(398.837 -39.115)" fill="#caa846"/></g><g transform="translate(147.005 120.582)"><path d="M-349.337,202.455a33.759,33.759,0,0,1-18.9-5.808c-9.292-6.269-14.006-15.664-14.006-27.931V146.885c0-12.266,4.713-21.664,14.006-27.931a33.664,33.664,0,0,1,37.807,0c9.294,6.267,14.006,15.664,14.006,27.931v21.831c0,12.266-4.711,21.662-14.006,27.931A33.757,33.757,0,0,1-349.337,202.455Zm0-87.931a32.376,32.376,0,0,0-18.135,5.573c-8.888,6-13.4,15.009-13.4,26.788v21.831c0,11.78,4.509,20.793,13.4,26.788a32.3,32.3,0,0,0,36.268,0c8.89-6,13.4-15.009,13.4-26.788V146.885c0-11.78-4.508-20.793-13.4-26.788A32.375,32.375,0,0,0-349.337,114.524Z" transform="translate(382.247 -113.146)" fill="#caa846"/><path d="M-349.337,202.455a33.759,33.759,0,0,1-18.9-5.808c-9.292-6.269-14.006-15.664-14.006-27.931h1.378c0,11.78,4.509,20.793,13.4,26.788a32.3,32.3,0,0,0,36.268,0c8.89-6,13.4-15.009,13.4-26.788V146.885c0-11.78-4.508-20.793-13.4-26.788a32.289,32.289,0,0,0-36.268,0c-8.888,6-13.4,15.009-13.4,26.788V157.8h-.681v.689l0-.689,0,.689h-.689l-.007-.689V146.885c0-12.266,4.713-21.664,14.006-27.931a33.664,33.664,0,0,1,37.807,0c9.294,6.267,14.006,15.664,14.006,27.931v21.831c0,12.266-4.711,21.662-14.006,27.931A33.757,33.757,0,0,1-349.337,202.455Z" transform="translate(382.247 -113.146)" fill="#caa846"/><path d="M-374.275,155.3" transform="translate(388.918 -77.866)" fill="#caa846"/><path d="M-360.21,165.014a13.986,13.986,0,0,1-6.725-2.05c-10.824-6.056-14.946-20.76-15.117-21.384l1.328-.362c.04.147,4.146,14.774,14.461,20.545,3.7,2.072,6.84,2.423,9.327,1.045a6.547,6.547,0,0,0,3.246-4.855,8.262,8.262,0,0,0-2.05-6.888c-.206-.22-.472-.461-.77-.731-1.433-1.3-3.6-3.255-3.387-6.491a7.728,7.728,0,0,1,2.577-5.558,8.163,8.163,0,0,1,1.444-1,9.437,9.437,0,0,1-2.072-.4c-4.065-1.26-6.868-4.947-7.316-9.618a11.857,11.857,0,0,1,5.876-11.763,26.3,26.3,0,0,1,5.529-2.212l.331,1.339a25.132,25.132,0,0,0-5.207,2.087,10.484,10.484,0,0,0-5.158,10.417c.395,4.109,2.831,7.34,6.354,8.433a7.774,7.774,0,0,0,2.314.362h4.557a10.1,10.1,0,0,1,1.218,0l-.05,1.376h-1.042a9.863,9.863,0,0,0-5.878,2.019,6.412,6.412,0,0,0-2.1,4.6c-.167,2.572,1.627,4.2,2.937,5.38.331.3.626.569.854.816a9.637,9.637,0,0,1,2.4,8.043,8,8,0,0,1-3.938,5.843A8.014,8.014,0,0,1-360.21,165.014Z" transform="translate(382.41 -113.021)" fill="#caa846"/><path d="M-361.822,150.048a5.731,5.731,0,0,1-1.194-.129c-8-1.7-16.583-20.336-16.945-21.127l1.146-.74c.09.1,9.144,10.419,15.9,12.318,4.331,1.218,5.617,3.123,5.931,4.5a3.893,3.893,0,0,1-1.221,3.723h0A5.359,5.359,0,0,1-361.822,150.048Zm-14.8-17.689c3,5.626,8.758,15.117,13.9,16.212a3.906,3.906,0,0,0,3.609-1.008h0a2.523,2.523,0,0,0,.79-2.382c-.327-1.438-2.09-2.676-4.961-3.484C-367.891,140.4-373.273,135.679-376.625,132.359Zm17.96,15.721h0Z" transform="translate(384.16 -100.672)" fill="#caa846"/><path d="M-371.833,170.905l-.042,0a.687.687,0,0,1-.647-.727c.14-2.381,1.558-23.262,7.974-23.912l.659,1.043c-.432.709-1.2,2.417-.812,3.161.05.094.2.378.942.434a46.232,46.232,0,0,0,6.227,0,.68.68,0,0,1,.742.628.687.687,0,0,1-.628.744,46.554,46.554,0,0,1-6.442,0,2.318,2.318,0,0,1-2.066-1.177,3.558,3.558,0,0,1,0-2.617c-3.027,3.163-4.789,14.4-5.224,21.776A.691.691,0,0,1-371.833,170.905Z" transform="translate(390.384 -85.431)" fill="#caa846"/><path d="M-368.617,168.581a.689.689,0,0,1-.689-.665c-.013-.419-.316-10.31,1.332-15.137l.652-.467h7.18a.689.689,0,0,1,.689.689.689.689,0,0,1-.689.689h-6.675c-1.4,4.763-1.115,14.083-1.111,14.18a.689.689,0,0,1-.667.711Z" transform="translate(393.052 -80.37)" fill="#caa846"/><path d="M-349.337,202.455a33.759,33.759,0,0,1-18.9-5.808c-9.292-6.269-14.006-15.664-14.006-27.931V146.885c0-12.266,4.713-21.664,14.006-27.931a33.664,33.664,0,0,1,37.807,0c9.294,6.267,14.006,15.664,14.006,27.931v21.831c0,12.266-4.711,21.662-14.006,27.931A33.757,33.757,0,0,1-349.337,202.455ZM-381.555,157.8h.685v10.916c0,11.78,4.509,20.793,13.4,26.788a32.3,32.3,0,0,0,36.268,0c8.89-6,13.4-15.009,13.4-26.788V146.885c0-11.78-4.508-20.793-13.4-26.788a32.289,32.289,0,0,0-36.268,0c-8.888,6-13.4,15.009-13.4,26.788V157.8Z" transform="translate(382.247 -113.146)" fill="#caa846"/><path d="M-355.916,159.3" transform="translate(404.281 -74.519)" fill="#caa846"/><path d="M-353.6,165.014a8.025,8.025,0,0,1-3.942-1,8.007,8.007,0,0,1-3.938-5.843,9.648,9.648,0,0,1,2.4-8.043c.228-.246.525-.516.854-.816,1.31-1.185,3.1-2.809,2.937-5.38a6.407,6.407,0,0,0-2.1-4.6,9.868,9.868,0,0,0-5.878-2.019h-1.041l-.05-1.376a10.093,10.093,0,0,1,1.218,0h4.557a7.771,7.771,0,0,0,2.313-.362c3.525-1.093,5.959-4.324,6.354-8.433a10.486,10.486,0,0,0-5.156-10.417,25.169,25.169,0,0,0-5.209-2.087l.331-1.339a26.215,26.215,0,0,1,5.529,2.212,11.854,11.854,0,0,1,5.876,11.763c-.448,4.671-3.251,8.358-7.316,9.618a9.442,9.442,0,0,1-2.07.4,8.153,8.153,0,0,1,1.442,1,7.722,7.722,0,0,1,2.577,5.558c.211,3.236-1.953,5.195-3.385,6.491-.3.27-.566.511-.771.731a8.255,8.255,0,0,0-2.048,6.888,6.547,6.547,0,0,0,3.246,4.855c2.487,1.378,5.626,1.025,9.326-1.045,10.327-5.777,14.421-20.4,14.461-20.545l1.33.362c-.171.625-4.293,15.328-15.117,21.384A13.992,13.992,0,0,1-353.6,165.014Z" transform="translate(397.218 -113.021)" fill="#caa846"/><path d="M-356.328,150.048a5.364,5.364,0,0,1-3.615-1.451,3.9,3.9,0,0,1-1.221-3.723c.314-1.381,1.6-3.286,5.931-4.5,6.752-1.9,15.806-12.213,15.9-12.318l1.146.74c-.362.792-8.949,19.424-16.943,21.127A5.731,5.731,0,0,1-356.328,150.048Zm14.8-17.689c-3.352,3.319-8.734,8.042-13.334,9.337-2.871.808-4.632,2.046-4.961,3.484a2.524,2.524,0,0,0,.792,2.382h0a3.91,3.91,0,0,0,3.608,1.008C-350.285,147.476-344.53,137.987-341.527,132.359Z" transform="translate(399.811 -100.672)" fill="#caa846"/><path d="M-349.657,170.905a.69.69,0,0,1-.687-.648c-.437-7.379-2.2-18.613-5.226-21.776a3.54,3.54,0,0,1,0,2.617,2.311,2.311,0,0,1-2.065,1.177,46.528,46.528,0,0,1-6.442,0,.69.69,0,0,1-.63-.744.686.686,0,0,1,.744-.628,46.232,46.232,0,0,0,6.227,0c.746-.055.893-.34.94-.434.386-.748-.38-2.454-.81-3.161l.658-1.043c6.418.65,7.834,21.531,7.976,23.912a.69.69,0,0,1-.648.727Z" transform="translate(396.926 -85.431)" fill="#caa846"/><path d="M-355.543,168.581h-.022a.69.69,0,0,1-.667-.711c0-.1.288-9.417-1.109-14.18h-6.675a.689.689,0,0,1-.689-.689.689.689,0,0,1,.689-.689h7.18l.652.467c1.646,4.827,1.345,14.719,1.33,15.137A.689.689,0,0,1-355.543,168.581Z" transform="translate(396.927 -80.37)" fill="#caa846"/></g></g></g><path d="M21.107,8.706a4.871,4.871,0,0,0-1.367-3.053,4.157,4.157,0,0,0-2.932-1.091,4.5,4.5,0,0,0-2.116.507,5.066,5.066,0,0,0-1.675,1.422,6.79,6.79,0,0,0-1.091,2.16,9.163,9.163,0,0,0-.386,2.722,8.528,8.528,0,0,0,.705,3.56A5.724,5.724,0,0,0,14.2,17.347a4.867,4.867,0,0,0,2.832.86,6.3,6.3,0,0,0,2.788-.672A6.1,6.1,0,0,0,22.1,15.627l.727.617a8.135,8.135,0,0,1-2.116,2.094,6.988,6.988,0,0,1-2.237.981,9.163,9.163,0,0,1-2.017.253,7.641,7.641,0,0,1-3.042-.6,7.042,7.042,0,0,1-2.392-1.664A7.482,7.482,0,0,1,9.48,14.823a8.588,8.588,0,0,1-.54-3.075,9.62,9.62,0,0,1,.485-3.02A8.639,8.639,0,0,1,10.858,6.05a6.8,6.8,0,0,1,2.392-1.907,7.571,7.571,0,0,1,3.361-.705,7.869,7.869,0,0,1,2.193.309,7.775,7.775,0,0,1,2.061.948l-.11-1.1h1.367V8.706ZM25.273,19.22v-.992a1.372,1.372,0,0,0,1.014-.353,2.816,2.816,0,0,0,.6-.959q.242-.606.529-1.356L31.864,3.372h.882l4.827,12.366q.176.419.4,1.135a3.721,3.721,0,0,1,.2,1.223q.375-.044.738-.055t.694-.033V19.22H34.244v-.97a1.324,1.324,0,0,0,1.025-.342,1.015,1.015,0,0,0,.2-.782,3.885,3.885,0,0,0-.231-.926l-.661-1.785-5.4.132-.639,1.918q-.132.441-.287.838t-.309.771q.4-.044.849-.055t.8-.033V19.22Zm4.3-5.863H34.2L32.811,9.632Q32.547,8.9,32.3,8.188t-.441-1.378h-.022q-.176.551-.4,1.212t-.507,1.433Zm25.194,6.172L46.566,8.64q-.242-.287-.463-.6t-.463-.639h-.022l.066,8.574q0,.551-.011,1.1T45.618,18.1q.375-.044.827-.055t.782-.033V19.22H42.863v-.97a1.533,1.533,0,0,0,.937-.242,1.233,1.233,0,0,0,.441-.639,3.178,3.178,0,0,0,.121-.926V5.686q0-.441.022-.771-.353.022-.782.044T42.84,5V3.791h2.91L53.509,14q.375.485.672.9t.584.794h.022l.022-9.059q0-.485.022-.937t.044-.782l-.838.044q-.441.022-.771.044V3.791h4.364v.97a1.636,1.636,0,0,0-1.025.3,1.246,1.246,0,0,0-.4.794,9.566,9.566,0,0,0-.077,1.356L56.11,19.529ZM73.413,8.552a7.5,7.5,0,0,0-.287-2.094A2.309,2.309,0,0,0,72.255,5.2a2.784,2.784,0,0,0-1.664-.4H69l-.022,11.462q0,.6-.011,1.069a6.165,6.165,0,0,1-.055.76q.419-.044.915-.055t.893-.033V19.22h-5.6v-.97a1.766,1.766,0,0,0,1.036-.309,1.291,1.291,0,0,0,.4-.8,8.469,8.469,0,0,0,.088-1.334V4.827l-1.852.022a2.206,2.206,0,0,0-1.962.9,5.033,5.033,0,0,0-.617,2.8H61.179l.132-4.761h13l.132,4.761ZM85.844,19.573a8.3,8.3,0,0,1-3.582-.705,6.6,6.6,0,0,1-2.414-1.885,8.009,8.009,0,0,1-1.367-2.612,9.7,9.7,0,0,1-.441-2.865,8.849,8.849,0,0,1,.474-2.81,8.339,8.339,0,0,1,1.433-2.612,7.194,7.194,0,0,1,2.4-1.918,7.43,7.43,0,0,1,3.383-.727,7.782,7.782,0,0,1,3.494.727,6.966,6.966,0,0,1,2.414,1.929,8.628,8.628,0,0,1,1.422,2.612,8.472,8.472,0,0,1,0,5.588,8.474,8.474,0,0,1-1.433,2.623,7.165,7.165,0,0,1-2.392,1.929A7.413,7.413,0,0,1,85.844,19.573Zm.11-1.146a4.161,4.161,0,0,0,2.215-.573,4.728,4.728,0,0,0,1.543-1.532,7.143,7.143,0,0,0,.893-2.116,9.553,9.553,0,0,0,.287-2.3,11.094,11.094,0,0,0-.331-2.722,7.907,7.907,0,0,0-1-2.358,5.179,5.179,0,0,0-1.664-1.653A4.307,4.307,0,0,0,85.6,4.562a4.1,4.1,0,0,0-2.226.6,4.8,4.8,0,0,0-1.543,1.554,7.55,7.55,0,0,0-.893,2.116,9.3,9.3,0,0,0-.3,2.325,10.344,10.344,0,0,0,.309,2.425,8.861,8.861,0,0,0,.948,2.381,5.406,5.406,0,0,0,1.642,1.785A4.183,4.183,0,0,0,85.954,18.427Zm23.585,1.1L101.34,8.64q-.242-.287-.463-.6t-.463-.639h-.022l.066,8.574q0,.551-.011,1.1t-.055,1.014q.375-.044.827-.055t.782-.033V19.22H97.637v-.97a1.533,1.533,0,0,0,.937-.242,1.233,1.233,0,0,0,.441-.639,3.178,3.178,0,0,0,.121-.926V5.686q0-.441.022-.771-.353.022-.782.044T97.615,5V3.791h2.91L108.283,14q.375.485.672.9t.584.794h.022l.022-9.059q0-.485.022-.937t.044-.782l-.838.044q-.441.022-.771.044V3.791H112.4v.97a1.636,1.636,0,0,0-1.025.3,1.246,1.246,0,0,0-.4.794,9.566,9.566,0,0,0-.077,1.356l-.022,12.321Zm14.768-5.885a2.571,2.571,0,0,0-.276-1.367,1.192,1.192,0,0,0-.827-.518,6.046,6.046,0,0,0-1.367-.055l-1.278.044v4.585q0,.6-.011,1.047a5.991,5.991,0,0,1-.055.738l3.791-.044a4.1,4.1,0,0,0,1.543-.32,2.24,2.24,0,0,0,1.08-1.025,4.166,4.166,0,0,0,.4-1.984h.97l-.132,4.475H116.681v-.97a1.825,1.825,0,0,0,1.047-.309,1.253,1.253,0,0,0,.408-.794,8.429,8.429,0,0,0,.088-1.345V6.634q0-.485.022-.937t.044-.782q-.375.022-.816.044T116.681,5V3.791h10.756l.11,3.99h-.97a3.685,3.685,0,0,0-.408-1.918,1.98,1.98,0,0,0-1.058-.882,3.964,3.964,0,0,0-1.4-.2l-1.543.044a1.9,1.9,0,0,0-1.036.231,1.127,1.127,0,0,0-.463.749,7.026,7.026,0,0,0-.11,1.4v3.461H124.2l-.132-1.9h1.212v4.871Zm17.06-5.092a5.606,5.606,0,0,0-.573-2.028,3.744,3.744,0,0,0-1.278-1.444,3.477,3.477,0,0,0-2.028-.518,2.749,2.749,0,0,0-1.962.683A2.185,2.185,0,0,0,134.8,6.9a2.185,2.185,0,0,0,.485,1.444A4.6,4.6,0,0,0,136.6,9.389q.827.463,1.863.926.838.353,1.7.794a9.343,9.343,0,0,1,1.565,1,4.3,4.3,0,0,1,1.124,1.345,3.845,3.845,0,0,1,.419,1.841,3.915,3.915,0,0,1-.639,2.2,4.288,4.288,0,0,1-1.818,1.521,6.705,6.705,0,0,1-2.854.551,7.559,7.559,0,0,1-1.995-.287,7.284,7.284,0,0,1-1.907-.816l.11.926h-1.345l-.088-4.849h1.058a4.03,4.03,0,0,0,1.378,2.9,4.4,4.4,0,0,0,2.876.981,3.654,3.654,0,0,0,1.521-.309,2.565,2.565,0,0,0,1.08-.882,2.3,2.3,0,0,0,.4-1.345,2.228,2.228,0,0,0-.54-1.521,4.777,4.777,0,0,0-1.367-1.058q-.827-.441-1.73-.838t-1.752-.838a8.4,8.4,0,0,1-1.532-1.014,4.28,4.28,0,0,1-1.08-1.356,4.021,4.021,0,0,1-.4-1.841,4.237,4.237,0,0,1,.22-1.3,3.727,3.727,0,0,1,2.193-2.3,5.959,5.959,0,0,1,2.3-.386,8.439,8.439,0,0,1,1.885.242,5.277,5.277,0,0,1,1.907.86l-.088-.926h1.323V8.552Zm13.8,5.092a2.572,2.572,0,0,0-.276-1.367,1.192,1.192,0,0,0-.827-.518A6.046,6.046,0,0,0,152.7,11.7l-1.278.044v4.585q0,.6-.011,1.047a5.987,5.987,0,0,1-.055.738l3.791-.044a4.1,4.1,0,0,0,1.543-.32,2.24,2.24,0,0,0,1.08-1.025,4.166,4.166,0,0,0,.4-1.984h.97L159,19.22H147.54v-.97a1.825,1.825,0,0,0,1.047-.309,1.253,1.253,0,0,0,.408-.794,8.428,8.428,0,0,0,.088-1.345V6.634q0-.485.022-.937t.044-.782q-.375.022-.816.044T147.54,5V3.791H158.3l.11,3.99h-.97a3.685,3.685,0,0,0-.408-1.918,1.98,1.98,0,0,0-1.058-.882,3.964,3.964,0,0,0-1.4-.2l-1.543.044a1.9,1.9,0,0,0-1.036.231,1.127,1.127,0,0,0-.463.749,7.026,7.026,0,0,0-.11,1.4v3.461h3.637l-.132-1.9h1.212v4.871Zm23.871,5.929a8.3,8.3,0,0,1-3.582-.705,6.6,6.6,0,0,1-2.414-1.885,8.009,8.009,0,0,1-1.367-2.612,9.7,9.7,0,0,1-.441-2.865,8.848,8.848,0,0,1,.474-2.81,8.339,8.339,0,0,1,1.433-2.612,7.2,7.2,0,0,1,2.4-1.918,7.43,7.43,0,0,1,3.383-.727,7.782,7.782,0,0,1,3.494.727,6.966,6.966,0,0,1,2.414,1.929,8.628,8.628,0,0,1,1.422,2.612,8.472,8.472,0,0,1,0,5.588,8.473,8.473,0,0,1-1.433,2.623,7.165,7.165,0,0,1-2.392,1.929A7.413,7.413,0,0,1,179.037,19.573Zm.11-1.146a4.161,4.161,0,0,0,2.215-.573,4.728,4.728,0,0,0,1.543-1.532,7.143,7.143,0,0,0,.893-2.116,9.554,9.554,0,0,0,.287-2.3,11.093,11.093,0,0,0-.331-2.722,7.908,7.908,0,0,0-1-2.358,5.179,5.179,0,0,0-1.664-1.653,4.307,4.307,0,0,0-2.292-.606,4.1,4.1,0,0,0-2.226.6,4.8,4.8,0,0,0-1.543,1.554,7.55,7.55,0,0,0-.893,2.116,9.3,9.3,0,0,0-.3,2.325,10.344,10.344,0,0,0,.309,2.425,8.86,8.86,0,0,0,.948,2.381,5.406,5.406,0,0,0,1.642,1.785A4.183,4.183,0,0,0,179.148,18.427Zm11.638-.176a1.825,1.825,0,0,0,1.047-.309,1.253,1.253,0,0,0,.408-.794,8.428,8.428,0,0,0,.088-1.345V6.634q0-.485.022-.937t.044-.782q-.375.022-.816.044T190.786,5V3.791q1.3-.022,2.645-.033t2.733-.011a10.9,10.9,0,0,1,3.516.5,4.648,4.648,0,0,1,2.226,1.5,4.08,4.08,0,0,1,.8,2.524,4.835,4.835,0,0,1-.309,1.774,4.567,4.567,0,0,1-1.124,1.7A5.787,5.787,0,0,1,199.129,13a10.227,10.227,0,0,1-3.405.485q-.22.022-.5.022t-.562-.022v2.777q0,.6-.011,1.069a6.162,6.162,0,0,1-.055.76l.661-.044q.353-.022.694-.033t.628-.033V19.22h-5.8Zm3.879-5.929q.375.044.65.055t.65.011a4.913,4.913,0,0,0,2.182-.463,3.445,3.445,0,0,0,1.477-1.345,3.994,3.994,0,0,0,.529-2.094,4.354,4.354,0,0,0-.32-1.774,2.722,2.722,0,0,0-.882-1.124A3.624,3.624,0,0,0,197.663,5a6.531,6.531,0,0,0-1.543-.176,1.471,1.471,0,0,0-.97.265,1.259,1.259,0,0,0-.4.771,7.836,7.836,0,0,0-.088,1.3Zm19.441,1.323a2.572,2.572,0,0,0-.276-1.367,1.192,1.192,0,0,0-.827-.518,6.046,6.046,0,0,0-1.367-.055l-1.278.044v4.585q0,.6-.011,1.047a5.987,5.987,0,0,1-.055.738l3.791-.044a4.1,4.1,0,0,0,1.543-.32,2.24,2.24,0,0,0,1.08-1.025,4.166,4.166,0,0,0,.4-1.984h.97l-.132,4.475H206.48v-.97a1.825,1.825,0,0,0,1.047-.309,1.253,1.253,0,0,0,.408-.794,8.43,8.43,0,0,0,.088-1.345V6.634q0-.485.022-.937t.044-.782q-.375.022-.816.044T206.48,5V3.791h10.756l.11,3.99h-.97a3.685,3.685,0,0,0-.408-1.918,1.98,1.98,0,0,0-1.058-.882,3.964,3.964,0,0,0-1.4-.2l-1.543.044a1.9,1.9,0,0,0-1.036.231,1.127,1.127,0,0,0-.463.749,7.026,7.026,0,0,0-.11,1.4v3.461H214l-.132-1.9h1.212v4.871Zm8.31,5.577v-.97a1.825,1.825,0,0,0,1.047-.309,1.253,1.253,0,0,0,.408-.794,8.428,8.428,0,0,0,.088-1.345V6.634q0-.485.022-.937t.044-.782q-.375.022-.816.044T222.416,5V3.791q1.345-.022,2.711-.033t2.755.011a10.426,10.426,0,0,1,3.416.474,4.074,4.074,0,0,1,2.017,1.4,3.769,3.769,0,0,1,.65,2.336,4.132,4.132,0,0,1-.353,1.752,3.956,3.956,0,0,1-1.256,1.554,6.186,6.186,0,0,1-2.425,1.036,2.838,2.838,0,0,1,.794.727q.353.463.727,1.036l1.345,2.072q.419.661.771,1.124a2.687,2.687,0,0,0,.794.716,2.089,2.089,0,0,0,1.058.253v.97h-3.064a5.956,5.956,0,0,1-.981-1.047q-.408-.562-.871-1.267l-1.521-2.469q-.287-.441-.606-.948a4.378,4.378,0,0,0-.694-.86H226.3v3.637q0,.6-.011,1.069a6.162,6.162,0,0,1-.055.76q.264-.022.562-.033t.6-.033q.3-.022.518-.022V19.22Zm5.158-7.671a5.572,5.572,0,0,0,2.072-.386,2.763,2.763,0,0,0,1.323-1.124,3.752,3.752,0,0,0,.463-1.973,3.864,3.864,0,0,0-.265-1.521,2.525,2.525,0,0,0-.749-1,2.971,2.971,0,0,0-1.157-.551,6.033,6.033,0,0,0-1.444-.165,1.6,1.6,0,0,0-1.025.265,1.233,1.233,0,0,0-.408.771,7.836,7.836,0,0,0-.088,1.3v4.32q.331.022.628.055A3.775,3.775,0,0,0,227.574,11.55Zm10.8,7.671v-.992a1.372,1.372,0,0,0,1.014-.353,2.817,2.817,0,0,0,.6-.959q.242-.606.529-1.356l4.452-12.189h.882l4.827,12.366q.176.419.4,1.135a3.72,3.72,0,0,1,.2,1.223q.375-.044.738-.055t.694-.033V19.22h-5.356v-.97a1.324,1.324,0,0,0,1.025-.342,1.015,1.015,0,0,0,.2-.782,3.886,3.886,0,0,0-.231-.926l-.661-1.785-5.4.132-.639,1.918q-.132.441-.287.838t-.309.771q.4-.044.849-.055t.8-.033V19.22Zm4.3-5.863H247.3l-1.389-3.725q-.264-.727-.507-1.444t-.441-1.378h-.022q-.176.551-.4,1.212t-.507,1.433ZM78.648,52.283v-.992a1.372,1.372,0,0,0,1.014-.353,2.816,2.816,0,0,0,.6-.959q.242-.606.529-1.356l4.452-12.189h.882L90.947,48.8q.176.419.4,1.135a3.721,3.721,0,0,1,.2,1.223q.375-.044.738-.055t.694-.033v1.212H87.619v-.97a1.324,1.324,0,0,0,1.025-.342,1.015,1.015,0,0,0,.2-.782,3.885,3.885,0,0,0-.231-.926l-.661-1.785-5.4.132-.639,1.918q-.132.441-.287.838t-.309.771q.4-.044.849-.055t.8-.033v1.234Zm4.3-5.863h4.629l-1.389-3.725q-.265-.727-.507-1.444t-.441-1.378h-.022q-.176.551-.4,1.212t-.507,1.433Zm13.247,5.863v-.97A1.825,1.825,0,0,0,97.24,51a1.253,1.253,0,0,0,.408-.794,8.428,8.428,0,0,0,.088-1.345V39.7q0-.485.022-.937t.044-.782q-.375.022-.816.044t-.794.044V36.854q1.345-.022,2.711-.033t2.755.011a10.426,10.426,0,0,1,3.417.474,4.074,4.074,0,0,1,2.017,1.4,3.769,3.769,0,0,1,.65,2.336,4.132,4.132,0,0,1-.353,1.752,3.956,3.956,0,0,1-1.256,1.554,6.186,6.186,0,0,1-2.425,1.036,2.838,2.838,0,0,1,.794.727q.353.463.727,1.036l1.345,2.072q.419.661.771,1.124a2.687,2.687,0,0,0,.794.716,2.088,2.088,0,0,0,1.058.253v.97h-3.064a5.955,5.955,0,0,1-.981-1.047q-.408-.562-.871-1.267L102.761,47.5q-.287-.441-.606-.948a4.378,4.378,0,0,0-.694-.86h-1.389V49.33q0,.6-.011,1.069a6.163,6.163,0,0,1-.055.76q.264-.022.562-.033t.6-.033q.3-.022.518-.022v1.212Zm5.158-7.671a5.571,5.571,0,0,0,2.072-.386,2.763,2.763,0,0,0,1.323-1.124,3.752,3.752,0,0,0,.463-1.973,3.864,3.864,0,0,0-.265-1.521,2.526,2.526,0,0,0-.749-1,2.971,2.971,0,0,0-1.157-.551,6.033,6.033,0,0,0-1.444-.165,1.6,1.6,0,0,0-1.025.265,1.233,1.233,0,0,0-.408.771,7.835,7.835,0,0,0-.088,1.3v4.32q.331.022.628.055A3.775,3.775,0,0,0,101.351,44.613Zm22.813-3a7.5,7.5,0,0,0-.287-2.094,2.309,2.309,0,0,0-.871-1.256,2.784,2.784,0,0,0-1.664-.4h-1.587l-.022,11.462q0,.6-.011,1.069a6.167,6.167,0,0,1-.055.76q.419-.044.915-.055t.893-.033v1.212h-5.6v-.97A1.766,1.766,0,0,0,116.912,51a1.291,1.291,0,0,0,.4-.8,8.469,8.469,0,0,0,.088-1.334V37.89l-1.852.022a2.206,2.206,0,0,0-1.962.9,5.033,5.033,0,0,0-.617,2.8h-1.036l.132-4.761h13l.132,4.761Zm10.294-3.791a1.688,1.688,0,0,0-1.036.3,1.266,1.266,0,0,0-.419.794,8.388,8.388,0,0,0-.088,1.356V49.33q0,.6-.011,1.069a6.164,6.164,0,0,1-.055.76q.375-.044.827-.055t.782-.033v1.212h-5.422v-.97A1.825,1.825,0,0,0,130.082,51a1.253,1.253,0,0,0,.408-.794,8.428,8.428,0,0,0,.088-1.345V39.7q0-.485.022-.937t.044-.782q-.375.022-.816.044t-.794.044V36.854h5.422Zm13.291,3.791a5.606,5.606,0,0,0-.573-2.028,3.744,3.744,0,0,0-1.278-1.444,3.477,3.477,0,0,0-2.028-.518,2.749,2.749,0,0,0-1.962.683,2.307,2.307,0,0,0-.242,3.1,4.6,4.6,0,0,0,1.311,1.047q.827.463,1.863.926.838.353,1.7.794a9.343,9.343,0,0,1,1.565,1,4.3,4.3,0,0,1,1.124,1.345,3.845,3.845,0,0,1,.419,1.841,3.915,3.915,0,0,1-.639,2.2,4.288,4.288,0,0,1-1.818,1.521,6.705,6.705,0,0,1-2.854.551,7.559,7.559,0,0,1-1.995-.287,7.284,7.284,0,0,1-1.907-.816l.11.926H139.2l-.088-4.849h1.058a4.03,4.03,0,0,0,1.378,2.9,4.4,4.4,0,0,0,2.876.981,3.654,3.654,0,0,0,1.521-.309,2.565,2.565,0,0,0,1.08-.882,2.3,2.3,0,0,0,.4-1.345,2.228,2.228,0,0,0-.54-1.521,4.777,4.777,0,0,0-1.367-1.058q-.827-.441-1.73-.838t-1.752-.838a8.4,8.4,0,0,1-1.532-1.014,4.28,4.28,0,0,1-1.08-1.356,4.021,4.021,0,0,1-.4-1.841,4.237,4.237,0,0,1,.22-1.3,3.727,3.727,0,0,1,2.193-2.3,5.959,5.959,0,0,1,2.3-.386,8.439,8.439,0,0,1,1.885.242,5.277,5.277,0,0,1,1.907.86l-.088-.926h1.323v4.937Zm17.678,0a7.5,7.5,0,0,0-.287-2.094,2.309,2.309,0,0,0-.871-1.256,2.784,2.784,0,0,0-1.664-.4h-1.587L161,49.33q0,.6-.011,1.069a6.168,6.168,0,0,1-.055.76q.419-.044.915-.055t.893-.033v1.212h-5.6v-.97A1.766,1.766,0,0,0,158.175,51a1.291,1.291,0,0,0,.4-.8,8.468,8.468,0,0,0,.088-1.334V37.89l-1.852.022a2.206,2.206,0,0,0-1.962.9,5.033,5.033,0,0,0-.617,2.8h-1.036l.132-4.761h13l.132,4.761Zm13.622,0a5.606,5.606,0,0,0-.573-2.028,3.744,3.744,0,0,0-1.278-1.444,3.477,3.477,0,0,0-2.028-.518,2.749,2.749,0,0,0-1.962.683,2.307,2.307,0,0,0-.242,3.1,4.6,4.6,0,0,0,1.312,1.047q.827.463,1.863.926.838.353,1.7.794a9.342,9.342,0,0,1,1.565,1,4.3,4.3,0,0,1,1.124,1.345,3.845,3.845,0,0,1,.419,1.841,3.915,3.915,0,0,1-.639,2.2,4.288,4.288,0,0,1-1.818,1.521,6.705,6.705,0,0,1-2.854.551,7.559,7.559,0,0,1-1.995-.287,7.284,7.284,0,0,1-1.907-.816l.11.926H170.5l-.088-4.849h1.058a4.03,4.03,0,0,0,1.378,2.9,4.4,4.4,0,0,0,2.876.981,3.654,3.654,0,0,0,1.521-.309,2.565,2.565,0,0,0,1.08-.882,2.3,2.3,0,0,0,.4-1.345,2.228,2.228,0,0,0-.54-1.521,4.778,4.778,0,0,0-1.367-1.058q-.827-.441-1.73-.838t-1.752-.838a8.394,8.394,0,0,1-1.532-1.014,4.28,4.28,0,0,1-1.08-1.356,4.021,4.021,0,0,1-.4-1.841,4.237,4.237,0,0,1,.22-1.3,3.727,3.727,0,0,1,2.193-2.3,5.959,5.959,0,0,1,2.3-.386,8.439,8.439,0,0,1,1.885.242,5.277,5.277,0,0,1,1.907.86l-.088-.926h1.323v4.937Z" transform="translate(-8.94 232.426)" fill="#caa846"/></g></svg>