<svg xmlns="http://www.w3.org/2000/svg" width="132.708" height="155.192" viewBox="0 0 132.708 155.192"><g transform="translate(-463.94 -1320)"><g transform="translate(934.347 1272.501)"><path d="M-414.491,74.36c.532-.2,2.212-3.64,2.492-4.172.644-1.26,1.316-2.52,1.988-3.752.056-.084.112-.168.224-.168a.148.148,0,0,1,.168.168,14.387,14.387,0,0,1-.5,1.568l-1.092,3.22a14.079,14.079,0,0,0-1.036,4.508c0,1.4.644,2.688.644,4.06a1.472,1.472,0,0,1-1.4,1.652,1.272,1.272,0,0,1-1.316-1.4c0-.952.028-1.9.028-2.884a2.142,2.142,0,0,0-.952-2.072c-.2-.084-.616-.2-.616-.448C-415.863,74.332-414.855,74.5-414.491,74.36Zm.812-5.488c-1.232,0-1.176-1.148-1.288-2.044a3.235,3.235,0,0,0-.2-.868,3.952,3.952,0,0,0-.532-1.092.8.8,0,0,1-.112-.336c0-.112.028-.168.14-.168a2.531,2.531,0,0,1,.756.308c1.12.532,2.324,1.6,2.324,2.912C-412.587,68.284-412.951,68.872-413.679,68.872Zm1.26-5.88a1.323,1.323,0,0,1-1.148-.56c-.42-.924-.336-1.96-.98-2.884a5.169,5.169,0,0,1-.672-.924c0-.112.056-.112.14-.112a4.092,4.092,0,0,1,1.008.252A4.123,4.123,0,0,1-412,60.108a2.612,2.612,0,0,1,.7,1.512A1.258,1.258,0,0,1-412.419,62.992Zm14.336-.98c.28-.308.7-.9,1.148-.9.476,0,2.38,1.54,2.38,2.044,0,.812-1.68.364-2.352.812l-1.148.756,1.288,1.148a.387.387,0,0,1,.168.308c0,.224-.112.364-.336.364h-4.312c-.168.308-.2.28-.5.476V69.04h1.9c.224-.224.7-.9,1.092-.9a8.277,8.277,0,0,1,1.9,1.12.687.687,0,0,1,.308.476c0,.224-.5.532-.644.672v4.424c0,.7.084,1.456.14,2.156a10.239,10.239,0,0,1-2.576.5l.084-1.288h-6.356v.784a17.9,17.9,0,0,1-2.38.476c.056-.728.168-1.484.168-2.184v-5.1a6.714,6.714,0,0,0-.14-1.288,2.863,2.863,0,0,1-.2-.812c0-.14.056-.168.2-.168a8.9,8.9,0,0,1,2.8,1.12h1.568l.028-2.492h-3.388l-.392.364-.924-1.512a16.507,16.507,0,0,0,1.652.168h7.224l.952-.924a.332.332,0,0,1,.392-.056l.5-1.6H-407.8a4.822,4.822,0,0,1-.112,1.092,1.9,1.9,0,0,1-1.708,1.512,1.036,1.036,0,0,1-1.12-1.092c0-1.26,1.372-1.652,1.82-2.716a2.987,2.987,0,0,0,.2-.756c0-.168,0-.644.252-.644s.5,1.4.56,1.624Zm-9.8,20.328c-.42.252-.868.5-1.288.756a4.153,4.153,0,0,1-1.036.56.157.157,0,0,1-.14-.168.291.291,0,0,1,.112-.224,23.721,23.721,0,0,0,1.876-1.876c.784-.952,2.8-3.36,3.164-4.424a.214.214,0,0,1,.14-.056c.336,0,1.372.868,1.652,1.092.2.14.784.5.784.784,0,.364-.84.448-1.092.5A44.192,44.192,0,0,1-407.883,82.34Zm4.032-10.388v-1.96h-1.792l-.252.224v1.736Zm0,3.276V72.9h-2.044v2.324Zm1.008-13.692c-1.6,0-1.092-1.96-1.344-3a2.668,2.668,0,0,0-.476-1.12c-.056-.084-.224-.28-.224-.364,0-.112.028-.2.14-.2a5.113,5.113,0,0,1,.98.392c1.008.476,2.268,1.6,2.268,2.8C-401.5,60.948-401.891,61.536-402.843,61.536Zm5.1,21.924c-.812,0-1.316-1.148-1.568-1.792a14.344,14.344,0,0,0-.7-1.484,10.318,10.318,0,0,0-1.9-2.352.519.519,0,0,1-.2-.336.132.132,0,0,1,.14-.14,9.13,9.13,0,0,1,2.324,1.092c1.176.7,3.192,2.156,3.192,3.724A1.22,1.22,0,0,1-397.747,83.46Zm-1.792-11.508v-1.96h-2.212v1.96Zm0,3.276V72.9h-2.212v2.324Z" fill="#fff"/><path d="M-410.935,115.884c-.98.308-1.932.588-2.912.9a8.892,8.892,0,0,1-1.064.308c-.112,0-.168-.084-.168-.2,0-.084.056-.14.14-.2.98-.532,1.932-1.092,2.884-1.68a15.745,15.745,0,0,0,3.64-3.024c.084-.14.392-.5.56-.5.28,0,2.548,1.624,2.548,2.016,0,.308-1.036.392-1.232.42A36.259,36.259,0,0,1-410.935,115.884Zm1.176-4.032c-.812.252-1.708.392-2.548.588.056-1.036.2-2.324.2-3.332V101.94c0-.588-.056-1.2-.084-1.792-.028-.308-.224-.672-.224-.9,0-.14.224-.168.336-.168a22.388,22.388,0,0,1,2.688.952h9.408c.28-.252.84-1.008,1.232-1.008a1.194,1.194,0,0,1,.5.168l1.568,1.064a.431.431,0,0,1,.252.364c0,.28-.672.644-.84.756v7.364c0,.952.112,1.96.168,2.912a21.756,21.756,0,0,1-2.66.672l.14-1.428h-10.136ZM-408.7,98.5a23.125,23.125,0,0,1-2.408.56c.056-1.008.2-2.3.2-3.276V93.54c0-.588-.056-1.176-.084-1.764a1.921,1.921,0,0,0-.168-.868.992.992,0,0,1-.084-.308c0-.112.168-.168.252-.168a18.883,18.883,0,0,1,2.688,1.2h7.5c.168-.168.868-1.008,1.176-1.008a9.651,9.651,0,0,1,2.016,1.26.448.448,0,0,1,.252.364c0,.308-.616.616-.84.756v2.408c0,.98.112,1.988.14,2.968a24.7,24.7,0,0,1-2.492.56l.112-1.4h-8.26Zm9.072,4.592v-2.072h-9.772l-.364.224v1.848Zm0,3.3v-2.3h-10.136v2.3Zm0,3.5V107.4h-10.136v2.492Zm-.812-13.328v-3.92h-7.924l-.336.28v3.64Zm3.976,20.44a2,2,0,0,1-1.288-.616,23.467,23.467,0,0,0-4-3.22,16.293,16.293,0,0,0-1.68-.952,1.4,1.4,0,0,1-.392-.224.254.254,0,0,1-.084-.2c0-.112.084-.112.2-.112a6.757,6.757,0,0,1,1.456.308c1.288.308,5.012,1.176,5.936,2.156.364.42,1.008,1.148,1.008,1.708A1.1,1.1,0,0,1-396.459,117Z" fill="#fff"/><path d="M-414.407,143.324a6.92,6.92,0,0,1,1.036,3.556c0,.812-.28,2.044-1.288,2.044-.644,0-1.232-.308-1.232-1.036a7.335,7.335,0,0,1,.952-2.408,5.908,5.908,0,0,0,.224-2.212c0-.056.084-.084.14-.084C-414.491,143.184-414.435,143.268-414.407,143.324Zm4.9-12.236c.056-.14.392-1.288.448-1.316a11.075,11.075,0,0,1,2.548,1.792.5.5,0,0,1,.2.42c0,.224-.9.336-1.036.364-2.016,2.408-4.088,4.76-6.244,7.084,1.568,0,3.136-.056,4.7-.14a6.2,6.2,0,0,0-.7-2.1,1.857,1.857,0,0,1-.252-.532.12.12,0,0,1,.112-.112.6.6,0,0,1,.336.112c1.064.672,2.8,2.3,2.8,3.612,0,.7-.364,1.428-1.12,1.428-1.036,0-1.008-.9-1.12-1.68-1.96.7-3.948,1.26-5.88,2.044l-.98-2.744a3.469,3.469,0,0,0,1.288-.812A8.923,8.923,0,0,0-413.2,137c.728-1.008,1.4-2.016,2.072-3.024-1.232.476-2.464.98-3.668,1.512l-.784-2.576a2.366,2.366,0,0,0,.756-.364c.784-.672,1.932-3.3,2.324-4.312a17.376,17.376,0,0,0,.84-2.3c.028-.168.112-1.036.252-1.036.42,0,2.94,1.512,2.94,1.932,0,.336-.672.42-.9.448-.868,1.26-1.708,2.548-2.632,3.78l-1.54,2.016h.56c.784,0,1.568,0,2.324-.028A10.564,10.564,0,0,0-409.507,131.088Zm-2.968,11.536c.308,0,1.036.98,1.232,1.2a5.4,5.4,0,0,1,.9,1.68,4.559,4.559,0,0,1,.224,1.232,1.353,1.353,0,0,1-1.288,1.428c-.672,0-.924-.5-.924-1.12,0-.784.168-1.6.168-2.408a3.777,3.777,0,0,0-.2-1.232,3.047,3.047,0,0,1-.2-.672C-412.559,142.68-412.531,142.624-412.475,142.624Zm4.648,1.372a3.422,3.422,0,0,1,1.036,2.24,1.309,1.309,0,0,1-1.176,1.456,1.024,1.024,0,0,1-.7-.252,1.251,1.251,0,0,1-.336-.756c-.2-1.4,0-2.24-.756-3.584a3.164,3.164,0,0,1-.308-.616C-409.423,142.372-408.163,143.632-407.827,144Zm2.492-15.932a5.16,5.16,0,0,0-.084-1.148,8.582,8.582,0,0,1-.28-1.064c0-.14.084-.168.2-.168a16.517,16.517,0,0,1,2.884,1.288h3.3c.056-.084.7-1.2.952-1.2.224,0,2.436,1.4,2.436,1.764,0,.308-.7.756-.9.9l-.028,20.44c.084-.084.9-1.2,1.2-1.2a5.28,5.28,0,0,1,1.792,1.96.251.251,0,0,1-.252.252h-13.076l-.392.364-1.036-1.484c.448.028.952.084,1.428.084h1.82Zm6.272,6.188v-6.3h-3.668l-.392.336v5.964Zm0,6.888v-5.88h-4.06v5.88Zm0,7.7v-6.72h-4.06v6.72Z" fill="#fff"/><path d="M-444.363,132.654a18.376,18.376,0,0,1-10.291-3.162c-5.059-3.412-7.625-8.529-7.625-15.206V102.4c0-6.677,2.565-11.793,7.625-15.206a18.331,18.331,0,0,1,20.582,0c5.06,3.413,7.625,8.53,7.625,15.206v11.886c0,6.677-2.565,11.793-7.625,15.206A18.374,18.374,0,0,1-444.363,132.654Zm0-47.871a17.63,17.63,0,0,0-9.872,3.033c-4.84,3.265-7.294,8.172-7.294,14.584v11.886c0,6.413,2.454,11.319,7.294,14.584a17.577,17.577,0,0,0,19.744,0c4.84-3.265,7.294-8.171,7.294-14.584V102.4c0-6.412-2.454-11.319-7.294-14.584A17.627,17.627,0,0,0-444.363,84.783Z" fill="#fff"/><path d="M-451.526,111.255h-3.362a5.454,5.454,0,0,1-4.537-5.543V92.082h.75v13.63a4.644,4.644,0,0,0,3.844,4.8l3.209,0c1.352,0,4.377-.419,4.593-4.7a13.374,13.374,0,0,0-2.84-8.655l-7.013-7.685.553-.506,7.02,7.692a13.893,13.893,0,0,1,3.029,9.192C-446.532,110.837-450.288,111.255-451.526,111.255Z" fill="#fff"/><path d="M-446.264,105.187h-.75c0-3.679-4.069-3.789-4.243-3.791h-3.255c-4.573,0-4.909-4.893-4.912-4.943l.749-.044c.01.174.3,4.237,4.163,4.237h3.262C-451.194,100.646-446.264,100.779-446.264,105.187Z" fill="#fff"/><path d="M-456.243,127.458h-.75v-9.927a3.6,3.6,0,0,1,3.441-3.735,3.6,3.6,0,0,1,3.442,3.735,3.466,3.466,0,0,0,.866,2.243,3.081,3.081,0,0,0,2.286.82h2.218V100.353c0-8.6-6.3-14.4-6.363-14.455l.5-.557c.066.06,6.61,6.071,6.61,15.012v20.991h-2.968a3.789,3.789,0,0,1-2.825-1.05,4.182,4.182,0,0,1-1.077-2.771,2.851,2.851,0,0,0-2.692-2.977,2.853,2.853,0,0,0-2.691,2.985Z" fill="#fff"/><path d="M-438.341,131.386h-.75a5.57,5.57,0,0,0-5.273-5.814,5.569,5.569,0,0,0-5.273,5.814h-.75a6.317,6.317,0,0,1,6.023-6.564A6.318,6.318,0,0,1-438.341,131.386Z" fill="#fff"/><path d="M-444.363,132.654a18.376,18.376,0,0,1-10.291-3.162c-5.059-3.412-7.625-8.529-7.625-15.206h.75c0,6.413,2.454,11.319,7.294,14.584a17.577,17.577,0,0,0,19.744,0c4.84-3.265,7.294-8.171,7.294-14.584V102.4c0-6.412-2.454-11.319-7.294-14.584a17.581,17.581,0,0,0-19.744,0c-4.84,3.265-7.294,8.172-7.294,14.584v5.943h-.372v.375h-.375l0-6.318c0-6.677,2.565-11.793,7.625-15.206a18.331,18.331,0,0,1,20.582,0c5.06,3.413,7.625,8.53,7.625,15.206v11.886c0,6.677-2.565,11.793-7.625,15.206A18.374,18.374,0,0,1-444.363,132.654Z" fill="#fff"/><path d="M-437.161,111.255c-1.279,0-5.032-.42-5.285-5.408a13.89,13.89,0,0,1,3.024-9.185l7.025-7.7.554.506-7.02,7.692a13.38,13.38,0,0,0-2.834,8.648c.217,4.279,3.275,4.7,4.545,4.7h3.315a4.649,4.649,0,0,0,3.786-4.793V92.082h.75v13.63a5.454,5.454,0,0,1-4.48,5.538l-3.323,0Z" fill="#fff"/><path d="M-441.712,105.187h-.75c0-4.408,4.931-4.541,4.981-4.541h3.267c3.874,0,4.153-4.063,4.163-4.236l.749.043c0,.05-.338,4.943-4.912,4.943h-3.261C-437.642,101.4-441.712,101.519-441.712,105.187Z" fill="#fff"/><path d="M-431.732,127.458h-.75v-9.927a2.853,2.853,0,0,0-2.692-2.985,2.853,2.853,0,0,0-2.691,2.985,4.185,4.185,0,0,1-1.077,2.763,3.793,3.793,0,0,1-2.827,1.05h-2.967V100.353c0-8.941,6.544-14.952,6.61-15.012l.5.557c-.064.058-6.363,5.855-6.363,14.455v20.241h2.217a3.077,3.077,0,0,0,2.291-.824,3.448,3.448,0,0,0,.863-2.232,3.6,3.6,0,0,1,3.441-3.742,3.6,3.6,0,0,1,3.442,3.735Z" fill="#fff"/><path d="M-452.777,130.191" fill="#fff"/><path d="M-438.338,131.386h-.75a5.57,5.57,0,0,0-5.274-5.814v-.75A6.319,6.319,0,0,1-438.338,131.386Z" fill="#fff"/><path d="M-364.33,96.121a18.38,18.38,0,0,1-10.292-3.163c-5.059-3.412-7.625-8.528-7.625-15.206V65.867c0-6.678,2.566-11.793,7.625-15.206a18.329,18.329,0,0,1,20.583,0c5.06,3.413,7.625,8.528,7.625,15.206V77.752c0,6.678-2.565,11.794-7.625,15.206A18.379,18.379,0,0,1-364.33,96.121Zm0-47.871a17.631,17.631,0,0,0-9.873,3.033c-4.839,3.264-7.294,8.171-7.294,14.584V77.752c0,6.414,2.455,11.32,7.294,14.584a17.579,17.579,0,0,0,19.745,0c4.84-3.264,7.294-8.17,7.294-14.584V65.867c0-6.413-2.454-11.32-7.294-14.584A17.632,17.632,0,0,0-364.33,48.25Z" fill="#fff"/><rect width="0.75" height="31.513" transform="translate(-364.707 47.862)" fill="#fff"/><path d="M-374.819,91.9h-.75V85.163a2.756,2.756,0,0,1,2.745-2.761,2.723,2.723,0,0,1,2.175,1.075,3.5,3.5,0,0,0,2.82,1.311h3.5v.75h-3.5a4.243,4.243,0,0,1-3.415-1.6,1.981,1.981,0,0,0-1.58-.782,2.005,2.005,0,0,0-1.995,2.011Z" fill="#fff"/><path d="M-364.33,96.121a18.38,18.38,0,0,1-10.292-3.163c-5.059-3.412-7.625-8.528-7.625-15.206h.75c0,6.414,2.455,11.32,7.294,14.584a17.579,17.579,0,0,0,19.745,0c4.84-3.264,7.294-8.17,7.294-14.584V65.867c0-6.413-2.454-11.32-7.294-14.584a17.582,17.582,0,0,0-19.745,0c-4.839,3.264-7.294,8.171-7.294,14.584V71.81h-.371v.375l0-.375,0,.375h-.375l0-.375V65.867c0-6.678,2.566-11.793,7.625-15.206a18.329,18.329,0,0,1,20.583,0c5.06,3.413,7.625,8.528,7.625,15.206V77.752c0,6.678-2.565,11.794-7.625,15.206A18.379,18.379,0,0,1-364.33,96.121Z" fill="#fff"/><path d="M-374.275,92.657" fill="#fff"/><path d="M-371.135,71.5a8.847,8.847,0,0,1-5.359-1.489,5.045,5.045,0,0,1-1.894-3.833l-.021-.325.319-.066c.184-.038,4.534-.91,7.347,1.112A5.5,5.5,0,0,1-368.52,70.9l.043.351-.348.063A14.126,14.126,0,0,1-371.135,71.5Zm-6.474-5.034a4.232,4.232,0,0,0,1.576,2.954c2.08,1.63,5.589,1.352,6.716,1.212a4.675,4.675,0,0,0-1.864-3.124C-373.311,65.974-376.572,66.309-377.609,66.463Z" fill="#fff"/><path d="M-381.03,83.273l-.45-.6,12.022-9.032c1.683-1.4,2.63-2.564,2.448-4.324a4.3,4.3,0,0,0-1.581-2.967l-11.936-8.214.425-.618,11.956,8.229a5.047,5.047,0,0,1,1.882,3.493c.239,2.308-1.217,3.73-2.729,4.989Z" fill="#fff"/><path d="M-364.33,96.121a18.38,18.38,0,0,1-10.292-3.163c-5.059-3.412-7.625-8.528-7.625-15.206V65.867c0-6.678,2.566-11.793,7.625-15.206a18.329,18.329,0,0,1,20.583,0c5.06,3.413,7.625,8.528,7.625,15.206V77.752c0,6.678-2.565,11.794-7.625,15.206A18.379,18.379,0,0,1-364.33,96.121ZM-381.87,71.81h.373v5.942c0,6.414,2.455,11.32,7.294,14.584a17.579,17.579,0,0,0,19.745,0c4.84-3.264,7.294-8.17,7.294-14.584V65.867c0-6.413-2.454-11.32-7.294-14.584a17.582,17.582,0,0,0-19.745,0c-4.839,3.264-7.294,8.171-7.294,14.584V71.81Z" fill="#fff"/><rect width="0.75" height="37.301" transform="translate(-364.704 47.862)" fill="#fff"/><path d="M-353.091,91.9h-.75V85.163a2.005,2.005,0,0,0-2-2.011,1.981,1.981,0,0,0-1.58.782,4.242,4.242,0,0,1-3.415,1.6h-3.5v-.75h3.5a3.5,3.5,0,0,0,2.821-1.311,2.721,2.721,0,0,1,2.174-1.075,2.757,2.757,0,0,1,2.746,2.761Z" fill="#fff"/><path d="M-355.916,93.657" fill="#fff"/><path d="M-358.533,94.453c-.013-.249-.4-6.087-5.421-6.087h-.749c-5.023,0-5.407,5.838-5.421,6.087l-.749-.041c0-.068.434-6.8,6.17-6.8h.749c5.736,0,6.166,6.728,6.17,6.8Z" fill="#fff"/><path d="M-357.525,71.5a14.1,14.1,0,0,1-2.31-.181l-.349-.063.043-.351a5.5,5.5,0,0,1,2.224-4.006c2.813-2.022,7.162-1.151,7.347-1.112l.319.066-.021.325a5.046,5.046,0,0,1-1.895,3.833A8.844,8.844,0,0,1-357.525,71.5Zm-1.818-.868c1.127.141,4.635.419,6.715-1.212a4.231,4.231,0,0,0,1.577-2.954c-1.037-.154-4.3-.486-6.431,1.043A4.678,4.678,0,0,0-359.343,70.629Z" fill="#fff"/><path d="M-347.63,83.273l-12.023-9.033c-1.527-1.271-2.982-2.694-2.743-5a5.038,5.038,0,0,1,1.86-3.478l11.978-8.244.425.618-11.957,8.229a4.286,4.286,0,0,0-1.56,2.952c-.182,1.758.765,2.921,2.462,4.335l12.008,9.021Z" fill="#fff"/><path d="M-364.33,161.767a18.379,18.379,0,0,1-10.292-3.162c-5.059-3.413-7.625-8.528-7.625-15.206V131.514c0-6.678,2.566-11.794,7.625-15.206a18.327,18.327,0,0,1,20.583,0c5.06,3.412,7.625,8.528,7.625,15.206V143.4c0,6.678-2.565,11.793-7.625,15.206A18.378,18.378,0,0,1-364.33,161.767Zm0-47.871a17.626,17.626,0,0,0-9.873,3.034c-4.839,3.264-7.294,8.171-7.294,14.584V143.4c0,6.413,2.455,11.32,7.294,14.584a17.582,17.582,0,0,0,19.745,0c4.84-3.264,7.294-8.171,7.294-14.584V131.514c0-6.413-2.454-11.32-7.294-14.584A17.625,17.625,0,0,0-364.33,113.9Z" fill="#fff"/><path d="M-364.33,161.767a18.379,18.379,0,0,1-10.292-3.162c-5.059-3.413-7.625-8.528-7.625-15.206h.75c0,6.413,2.455,11.32,7.294,14.584a17.582,17.582,0,0,0,19.745,0c4.84-3.264,7.294-8.171,7.294-14.584V131.514c0-6.413-2.454-11.32-7.294-14.584a17.579,17.579,0,0,0-19.745,0c-4.839,3.264-7.294,8.171-7.294,14.584v5.942h-.371v.375l0-.375,0,.375h-.375l0-.375v-5.942c0-6.678,2.566-11.794,7.625-15.206a18.327,18.327,0,0,1,20.583,0c5.06,3.412,7.625,8.528,7.625,15.206V143.4c0,6.678-2.565,11.793-7.625,15.206A18.378,18.378,0,0,1-364.33,161.767Z" fill="#fff"/><path d="M-374.275,155.3" fill="#fff"/><path d="M-370.161,141.451a7.614,7.614,0,0,1-3.661-1.116c-5.893-3.3-8.137-11.3-8.23-11.642l.723-.2c.022.08,2.257,8.043,7.873,11.185,2.016,1.128,3.724,1.319,5.078.569a3.564,3.564,0,0,0,1.767-2.643,4.5,4.5,0,0,0-1.116-3.75c-.112-.12-.257-.251-.419-.4a4.339,4.339,0,0,1-1.844-3.534,4.207,4.207,0,0,1,1.4-3.026,4.444,4.444,0,0,1,.786-.545,5.139,5.139,0,0,1-1.128-.216,5.86,5.86,0,0,1-3.983-5.236,6.455,6.455,0,0,1,3.2-6.4,14.317,14.317,0,0,1,3.01-1.2l.18.729a13.683,13.683,0,0,0-2.835,1.136,5.708,5.708,0,0,0-2.808,5.671,5.125,5.125,0,0,0,3.459,4.591,4.232,4.232,0,0,0,1.26.2h2.481a5.5,5.5,0,0,1,.663,0l-.027.749h-.567a5.37,5.37,0,0,0-3.2,1.1,3.491,3.491,0,0,0-1.145,2.507,3.666,3.666,0,0,0,1.6,2.929c.18.163.341.31.465.444a5.246,5.246,0,0,1,1.307,4.379,4.356,4.356,0,0,1-2.144,3.181A4.363,4.363,0,0,1-370.161,141.451Z" fill="#fff"/><path d="M-370.086,140.027a3.121,3.121,0,0,1-.65-.07c-4.353-.928-9.028-11.071-9.225-11.5l.624-.4c.049.057,4.978,5.672,8.654,6.706,2.358.663,3.058,1.7,3.229,2.452a2.119,2.119,0,0,1-.665,2.027h0A2.918,2.918,0,0,1-370.086,140.027Zm-8.059-9.63c1.635,3.063,4.768,8.23,7.565,8.826a2.127,2.127,0,0,0,1.965-.549h0a1.374,1.374,0,0,0,.43-1.3c-.178-.783-1.138-1.457-2.7-1.9C-373.39,134.775-376.32,132.2-378.145,130.4Zm9.778,8.559h0Z" fill="#fff"/><path d="M-372.147,159.679h-.023a.374.374,0,0,1-.352-.4c.076-1.3.848-12.664,4.341-13.018l.359.568c-.235.386-.651,1.316-.442,1.721.027.051.107.206.513.236a25.171,25.171,0,0,0,3.39,0,.37.37,0,0,1,.4.342.374.374,0,0,1-.342.4,25.349,25.349,0,0,1-3.507,0,1.262,1.262,0,0,1-1.125-.641,1.937,1.937,0,0,1,0-1.425c-1.648,1.722-2.607,7.838-2.844,11.855A.376.376,0,0,1-372.147,159.679Z" fill="#fff"/><path d="M-368.944,161.169a.375.375,0,0,1-.375-.362c-.007-.228-.172-5.613.725-8.241l.355-.254h3.909a.375.375,0,0,1,.375.375.375.375,0,0,1-.375.375h-3.634c-.762,2.593-.607,7.667-.605,7.72a.375.375,0,0,1-.363.387Z" fill="#fff"/><path d="M-364.33,161.767a18.379,18.379,0,0,1-10.292-3.162c-5.059-3.413-7.625-8.528-7.625-15.206V131.514c0-6.678,2.566-11.794,7.625-15.206a18.327,18.327,0,0,1,20.583,0c5.06,3.412,7.625,8.528,7.625,15.206V143.4c0,6.678-2.565,11.793-7.625,15.206A18.378,18.378,0,0,1-364.33,161.767Zm-17.54-24.311h.373V143.4c0,6.413,2.455,11.32,7.294,14.584a17.582,17.582,0,0,0,19.745,0c4.84-3.264,7.294-8.171,7.294-14.584V131.514c0-6.413-2.454-11.32-7.294-14.584a17.579,17.579,0,0,0-19.745,0c-4.839,3.264-7.294,8.171-7.294,14.584v5.942Z" fill="#fff"/><path d="M-355.916,159.3" fill="#fff"/><path d="M-358.5,141.451a4.369,4.369,0,0,1-2.146-.544,4.359,4.359,0,0,1-2.144-3.181,5.253,5.253,0,0,1,1.307-4.379c.124-.134.286-.281.465-.444a3.665,3.665,0,0,0,1.6-2.929,3.488,3.488,0,0,0-1.144-2.507,5.372,5.372,0,0,0-3.2-1.1h-.567l-.027-.749a5.5,5.5,0,0,1,.663,0h2.481a4.23,4.23,0,0,0,1.259-.2,5.124,5.124,0,0,0,3.459-4.591,5.709,5.709,0,0,0-2.807-5.671,13.7,13.7,0,0,0-2.836-1.136l.18-.729a14.271,14.271,0,0,1,3.01,1.2,6.453,6.453,0,0,1,3.2,6.4,5.86,5.86,0,0,1-3.983,5.236,5.141,5.141,0,0,1-1.127.216,4.437,4.437,0,0,1,.785.545,4.2,4.2,0,0,1,1.4,3.026,4.336,4.336,0,0,1-1.843,3.534c-.162.147-.308.278-.42.4a4.494,4.494,0,0,0-1.115,3.75,3.564,3.564,0,0,0,1.767,2.643c1.354.75,3.063.558,5.077-.569,5.622-3.145,7.851-11.1,7.873-11.185l.724.2c-.093.34-2.337,8.345-8.23,11.642A7.617,7.617,0,0,1-358.5,141.451Z" fill="#fff"/><path d="M-358.574,140.027a2.92,2.92,0,0,1-1.968-.79,2.121,2.121,0,0,1-.665-2.027c.171-.752.871-1.789,3.229-2.452,3.676-1.034,8.605-6.649,8.654-6.706l.624.4c-.2.431-4.872,10.575-9.224,11.5A3.121,3.121,0,0,1-358.574,140.027Zm8.058-9.63c-1.825,1.807-4.755,4.378-7.259,5.083-1.563.44-2.522,1.114-2.7,1.9a1.374,1.374,0,0,0,.431,1.3h0a2.129,2.129,0,0,0,1.964.549C-355.284,138.627-352.151,133.461-350.516,130.4Z" fill="#fff"/><path d="M-356.513,159.679a.375.375,0,0,1-.374-.353c-.238-4.017-1.2-10.133-2.845-11.855a1.927,1.927,0,0,1,0,1.425,1.258,1.258,0,0,1-1.124.641,25.335,25.335,0,0,1-3.507,0,.375.375,0,0,1-.343-.4.373.373,0,0,1,.4-.342,25.171,25.171,0,0,0,3.39,0c.406-.03.486-.185.512-.236.21-.407-.207-1.336-.441-1.721l.358-.568c3.494.354,4.265,11.722,4.342,13.018a.375.375,0,0,1-.353.4Z" fill="#fff"/><path d="M-359.717,161.169h-.012a.375.375,0,0,1-.363-.387c0-.053.157-5.127-.6-7.72h-3.634a.375.375,0,0,1-.375-.375.375.375,0,0,1,.375-.375h3.909l.355.254c.9,2.628.732,8.013.724,8.241A.375.375,0,0,1-359.717,161.169Z" fill="#fff"/></g><path d="M15.564,6.276a2.652,2.652,0,0,0-.744-1.662,2.263,2.263,0,0,0-1.6-.594,2.449,2.449,0,0,0-1.152.276,2.758,2.758,0,0,0-.912.774,3.7,3.7,0,0,0-.594,1.176,4.989,4.989,0,0,0-.21,1.482,4.643,4.643,0,0,0,.384,1.938A3.116,3.116,0,0,0,11.8,10.98a2.65,2.65,0,0,0,1.542.468,3.43,3.43,0,0,0,1.518-.366A3.323,3.323,0,0,0,16.1,10.044l.4.336a4.429,4.429,0,0,1-1.152,1.14,3.8,3.8,0,0,1-1.218.534,4.988,4.988,0,0,1-1.1.138,4.16,4.16,0,0,1-1.656-.324,3.834,3.834,0,0,1-1.3-.906,4.073,4.073,0,0,1-.84-1.356A4.676,4.676,0,0,1,8.94,7.932,5.237,5.237,0,0,1,9.2,6.288a4.7,4.7,0,0,1,.78-1.458,3.7,3.7,0,0,1,1.3-1.038,4.122,4.122,0,0,1,1.83-.384,4.284,4.284,0,0,1,1.194.168,4.233,4.233,0,0,1,1.122.516l-.06-.6h.744V6.276ZM17.832,12v-.54a.747.747,0,0,0,.552-.192,1.533,1.533,0,0,0,.324-.522q.132-.33.288-.738L21.42,3.372h.48L24.528,10.1q.1.228.216.618a2.026,2.026,0,0,1,.108.666q.2-.024.4-.03t.378-.018V12H22.716v-.528a.721.721,0,0,0,.558-.186.553.553,0,0,0,.108-.426,2.115,2.115,0,0,0-.126-.5l-.36-.972-2.94.072L19.608,10.5q-.072.24-.156.456t-.168.42q.216-.024.462-.03t.438-.018V12Zm2.34-3.192h2.52L21.936,6.78q-.144-.4-.276-.786t-.24-.75h-.012q-.1.3-.216.66t-.276.78Zm13.716,3.36L29.424,6.24q-.132-.156-.252-.324t-.252-.348h-.012l.036,4.668q0,.3-.006.6t-.03.552q.2-.024.45-.03t.426-.018V12H27.408v-.528a.834.834,0,0,0,.51-.132.671.671,0,0,0,.24-.348,1.73,1.73,0,0,0,.066-.5V4.632q0-.24.012-.42l-.426.024q-.234.012-.414.024V3.6H28.98L33.2,9.156q.2.264.366.492t.318.432H33.9l.012-4.932q0-.264.012-.51t.024-.426l-.456.024q-.24.012-.42.024V3.6h2.376v.528a.891.891,0,0,0-.558.162.678.678,0,0,0-.216.432,5.208,5.208,0,0,0-.042.738l-.012,6.708ZM44.04,6.192a4.081,4.081,0,0,0-.156-1.14,1.257,1.257,0,0,0-.474-.684,1.516,1.516,0,0,0-.906-.216H41.64l-.012,6.24q0,.324-.006.582a3.356,3.356,0,0,1-.03.414q.228-.024.5-.03t.486-.018V12H39.528v-.528a.962.962,0,0,0,.564-.168.7.7,0,0,0,.216-.438,4.611,4.611,0,0,0,.048-.726V4.164l-1.008.012a1.2,1.2,0,0,0-1.068.492,2.74,2.74,0,0,0-.336,1.524H37.38L37.452,3.6h7.08L44.6,6.192Zm6.768,6a4.521,4.521,0,0,1-1.95-.384,3.6,3.6,0,0,1-1.314-1.026A4.36,4.36,0,0,1,46.8,9.36a5.28,5.28,0,0,1-.24-1.56,4.817,4.817,0,0,1,.258-1.53,4.54,4.54,0,0,1,.78-1.422A3.917,3.917,0,0,1,48.906,3.8a4.045,4.045,0,0,1,1.842-.4,4.237,4.237,0,0,1,1.9.4,3.792,3.792,0,0,1,1.314,1.05,4.7,4.7,0,0,1,.774,1.422,4.612,4.612,0,0,1,0,3.042,4.613,4.613,0,0,1-.78,1.428,3.9,3.9,0,0,1-1.3,1.05A4.036,4.036,0,0,1,50.808,12.192Zm.06-.624a2.265,2.265,0,0,0,1.206-.312,2.574,2.574,0,0,0,.84-.834A3.889,3.889,0,0,0,53.4,9.27a5.2,5.2,0,0,0,.156-1.254,6.04,6.04,0,0,0-.18-1.482A4.3,4.3,0,0,0,52.83,5.25a2.82,2.82,0,0,0-.906-.9,2.345,2.345,0,0,0-1.248-.33,2.231,2.231,0,0,0-1.212.324,2.612,2.612,0,0,0-.84.846,4.11,4.11,0,0,0-.486,1.152,5.065,5.065,0,0,0-.162,1.266,5.631,5.631,0,0,0,.168,1.32,4.824,4.824,0,0,0,.516,1.3,2.943,2.943,0,0,0,.894.972A2.277,2.277,0,0,0,50.868,11.568Zm12.84.6L59.244,6.24q-.132-.156-.252-.324t-.252-.348h-.012l.036,4.668q0,.3-.006.6t-.03.552q.2-.024.45-.03t.426-.018V12H57.228v-.528a.834.834,0,0,0,.51-.132.671.671,0,0,0,.24-.348,1.73,1.73,0,0,0,.066-.5V4.632q0-.24.012-.42l-.426.024q-.234.012-.414.024V3.6H58.8l4.224,5.556q.2.264.366.492t.318.432h.012l.012-4.932q0-.264.012-.51t.024-.426l-.456.024q-.24.012-.42.024V3.6h2.376v.528a.891.891,0,0,0-.558.162.678.678,0,0,0-.216.432,5.208,5.208,0,0,0-.042.738l-.012,6.708Zm8.04-3.2a1.4,1.4,0,0,0-.15-.744.649.649,0,0,0-.45-.282,3.292,3.292,0,0,0-.744-.03l-.7.024v2.5q0,.324-.006.57a3.26,3.26,0,0,1-.03.4l2.064-.024a2.23,2.23,0,0,0,.84-.174,1.219,1.219,0,0,0,.588-.558,2.268,2.268,0,0,0,.216-1.08h.528L73.836,12H67.6v-.528a.993.993,0,0,0,.57-.168.682.682,0,0,0,.222-.432,4.588,4.588,0,0,0,.048-.732V5.148q0-.264.012-.51t.024-.426l-.444.024L67.6,4.26V3.6h5.856l.06,2.172h-.528a2.006,2.006,0,0,0-.222-1.044,1.078,1.078,0,0,0-.576-.48,2.158,2.158,0,0,0-.762-.108l-.84.024a1.033,1.033,0,0,0-.564.126.614.614,0,0,0-.252.408,3.825,3.825,0,0,0-.06.762V7.344h1.98l-.072-1.032h.66V8.964Zm9.288-2.772a3.052,3.052,0,0,0-.312-1.1,2.038,2.038,0,0,0-.7-.786,1.893,1.893,0,0,0-1.1-.282,1.5,1.5,0,0,0-1.068.372,1.256,1.256,0,0,0-.132,1.686,2.5,2.5,0,0,0,.714.57q.45.252,1.014.5.456.192.924.432a5.086,5.086,0,0,1,.852.546,2.339,2.339,0,0,1,.612.732,2.093,2.093,0,0,1,.228,1,2.131,2.131,0,0,1-.348,1.2,2.334,2.334,0,0,1-.99.828,3.65,3.65,0,0,1-1.554.3,4.115,4.115,0,0,1-1.086-.156,3.966,3.966,0,0,1-1.038-.444l.06.5H76.38l-.048-2.64h.576a2.194,2.194,0,0,0,.75,1.578,2.4,2.4,0,0,0,1.566.534,1.989,1.989,0,0,0,.828-.168,1.4,1.4,0,0,0,.588-.48,1.254,1.254,0,0,0,.216-.732,1.213,1.213,0,0,0-.294-.828,2.6,2.6,0,0,0-.744-.576q-.45-.24-.942-.456t-.954-.456a4.57,4.57,0,0,1-.834-.552,2.33,2.33,0,0,1-.588-.738,2.189,2.189,0,0,1-.216-1,2.307,2.307,0,0,1,.12-.708A2.029,2.029,0,0,1,77.6,3.618a3.244,3.244,0,0,1,1.254-.21,4.594,4.594,0,0,1,1.026.132,2.873,2.873,0,0,1,1.038.468l-.048-.5h.72V6.192Zm7.512,2.772a1.4,1.4,0,0,0-.15-.744.649.649,0,0,0-.45-.282,3.292,3.292,0,0,0-.744-.03l-.7.024v2.5q0,.324-.006.57a3.26,3.26,0,0,1-.03.4l2.064-.024a2.23,2.23,0,0,0,.84-.174,1.219,1.219,0,0,0,.588-.558,2.268,2.268,0,0,0,.216-1.08h.528L90.636,12H84.4v-.528a.993.993,0,0,0,.57-.168.682.682,0,0,0,.222-.432,4.588,4.588,0,0,0,.048-.732V5.148q0-.264.012-.51t.024-.426l-.444.024L84.4,4.26V3.6h5.856l.06,2.172h-.528a2.006,2.006,0,0,0-.222-1.044,1.078,1.078,0,0,0-.576-.48,2.158,2.158,0,0,0-.762-.108l-.84.024a1.033,1.033,0,0,0-.564.126.614.614,0,0,0-.252.408,3.825,3.825,0,0,0-.06.762V7.344h1.98l-.072-1.032h.66V8.964Zm13,3.228a4.521,4.521,0,0,1-1.95-.384,3.6,3.6,0,0,1-1.314-1.026,4.36,4.36,0,0,1-.744-1.422A5.28,5.28,0,0,1,97.3,7.8a4.817,4.817,0,0,1,.258-1.53,4.54,4.54,0,0,1,.78-1.422A3.917,3.917,0,0,1,99.642,3.8a4.045,4.045,0,0,1,1.842-.4,4.237,4.237,0,0,1,1.9.4,3.792,3.792,0,0,1,1.314,1.05,4.7,4.7,0,0,1,.774,1.422,4.612,4.612,0,0,1,0,3.042,4.613,4.613,0,0,1-.78,1.428,3.9,3.9,0,0,1-1.3,1.05A4.036,4.036,0,0,1,101.544,12.192Zm.06-.624a2.265,2.265,0,0,0,1.206-.312,2.574,2.574,0,0,0,.84-.834,3.888,3.888,0,0,0,.486-1.152,5.2,5.2,0,0,0,.156-1.254,6.039,6.039,0,0,0-.18-1.482,4.3,4.3,0,0,0-.546-1.284,2.82,2.82,0,0,0-.906-.9,2.345,2.345,0,0,0-1.248-.33,2.231,2.231,0,0,0-1.212.324,2.612,2.612,0,0,0-.84.846,4.11,4.11,0,0,0-.486,1.152,5.065,5.065,0,0,0-.162,1.266,5.632,5.632,0,0,0,.168,1.32,4.824,4.824,0,0,0,.516,1.3,2.943,2.943,0,0,0,.894.972A2.277,2.277,0,0,0,101.6,11.568Zm6.336-.1a.993.993,0,0,0,.57-.168.682.682,0,0,0,.222-.432,4.588,4.588,0,0,0,.048-.732V5.148q0-.264.012-.51t.024-.426l-.444.024-.432.024V3.6q.708-.012,1.44-.018t1.488-.006a5.932,5.932,0,0,1,1.914.27,2.53,2.53,0,0,1,1.212.816,2.221,2.221,0,0,1,.438,1.374,2.632,2.632,0,0,1-.168.966,2.486,2.486,0,0,1-.612.924,3.151,3.151,0,0,1-1.17.69,5.568,5.568,0,0,1-1.854.264q-.12.012-.27.012t-.306-.012v1.512q0,.324-.006.582a3.355,3.355,0,0,1-.03.414l.36-.024q.192-.012.378-.018t.342-.018V12H107.94Zm2.112-3.228q.2.024.354.03t.354.006a2.675,2.675,0,0,0,1.188-.252,1.875,1.875,0,0,0,.8-.732,2.174,2.174,0,0,0,.288-1.14,2.37,2.37,0,0,0-.174-.966,1.482,1.482,0,0,0-.48-.612,1.973,1.973,0,0,0-.7-.318,3.556,3.556,0,0,0-.84-.1.8.8,0,0,0-.528.144.686.686,0,0,0-.216.42,4.266,4.266,0,0,0-.048.708Zm10.584.72a1.4,1.4,0,0,0-.15-.744.649.649,0,0,0-.45-.282,3.292,3.292,0,0,0-.744-.03l-.7.024v2.5q0,.324-.006.57a3.26,3.26,0,0,1-.03.4l2.064-.024a2.23,2.23,0,0,0,.84-.174,1.219,1.219,0,0,0,.588-.558,2.268,2.268,0,0,0,.216-1.08h.528L122.724,12h-6.24v-.528a.993.993,0,0,0,.57-.168.682.682,0,0,0,.222-.432,4.588,4.588,0,0,0,.048-.732V5.148q0-.264.012-.51t.024-.426l-.444.024-.432.024V3.6h5.856l.06,2.172h-.528a2.006,2.006,0,0,0-.222-1.044,1.078,1.078,0,0,0-.576-.48,2.158,2.158,0,0,0-.762-.108l-.84.024a1.033,1.033,0,0,0-.564.126.614.614,0,0,0-.252.408,3.825,3.825,0,0,0-.06.762V7.344h1.98L120.5,6.312h.66V8.964ZM125.16,12v-.528a.993.993,0,0,0,.57-.168.682.682,0,0,0,.222-.432A4.588,4.588,0,0,0,126,10.14V5.148q0-.264.012-.51t.024-.426l-.444.024-.432.024V3.6q.732-.012,1.476-.018t1.5.006a5.676,5.676,0,0,1,1.86.258,2.218,2.218,0,0,1,1.1.762,2.052,2.052,0,0,1,.354,1.272,2.249,2.249,0,0,1-.192.954,2.154,2.154,0,0,1-.684.846,3.368,3.368,0,0,1-1.32.564,1.545,1.545,0,0,1,.432.4q.192.252.4.564l.732,1.128q.228.36.42.612a1.463,1.463,0,0,0,.432.39,1.137,1.137,0,0,0,.576.138V12h-1.668a3.243,3.243,0,0,1-.534-.57q-.222-.306-.474-.69L128.736,9.4q-.156-.24-.33-.516a2.384,2.384,0,0,0-.378-.468h-.756v1.98q0,.324-.006.582a3.355,3.355,0,0,1-.03.414q.144-.012.306-.018t.324-.018q.162-.012.282-.012V12Zm2.808-4.176a3.033,3.033,0,0,0,1.128-.21,1.5,1.5,0,0,0,.72-.612,2.042,2.042,0,0,0,.252-1.074,2.1,2.1,0,0,0-.144-.828,1.375,1.375,0,0,0-.408-.546,1.617,1.617,0,0,0-.63-.3,3.284,3.284,0,0,0-.786-.09.872.872,0,0,0-.558.144.671.671,0,0,0-.222.42,4.266,4.266,0,0,0-.048.708V7.788q.18.012.342.03A2.055,2.055,0,0,0,127.968,7.824ZM133.848,12v-.54a.747.747,0,0,0,.552-.192,1.533,1.533,0,0,0,.324-.522q.132-.33.288-.738l2.424-6.636h.48l2.628,6.732q.1.228.216.618a2.025,2.025,0,0,1,.108.666q.2-.024.4-.03t.378-.018V12h-2.916v-.528a.721.721,0,0,0,.558-.186.553.553,0,0,0,.108-.426,2.116,2.116,0,0,0-.126-.5l-.36-.972-2.94.072-.348,1.044q-.072.24-.156.456t-.168.42q.216-.024.462-.03t.438-.018V12Zm2.34-3.192h2.52l-.756-2.028q-.144-.4-.276-.786t-.24-.75h-.012q-.1.3-.216.66t-.276.78ZM46.89,30v-.54a.747.747,0,0,0,.552-.192,1.533,1.533,0,0,0,.324-.522q.132-.33.288-.738l2.424-6.636h.48L53.586,28.1q.1.228.216.618a2.026,2.026,0,0,1,.108.666q.2-.024.4-.03t.378-.018V30H51.774v-.528a.721.721,0,0,0,.558-.186.553.553,0,0,0,.108-.426,2.115,2.115,0,0,0-.126-.5l-.36-.972-2.94.072L48.666,28.5q-.072.24-.156.456t-.168.42q.216-.024.462-.03t.438-.018V30Zm2.34-3.192h2.52l-.756-2.028q-.144-.4-.276-.786t-.24-.75h-.012q-.1.3-.216.66t-.276.78ZM56.442,30v-.528a.993.993,0,0,0,.57-.168.682.682,0,0,0,.222-.432,4.588,4.588,0,0,0,.048-.732V23.148q0-.264.012-.51t.024-.426l-.444.024-.432.024V21.6q.732-.012,1.476-.018t1.5.006a5.676,5.676,0,0,1,1.86.258,2.218,2.218,0,0,1,1.1.762,2.052,2.052,0,0,1,.354,1.272,2.249,2.249,0,0,1-.192.954,2.154,2.154,0,0,1-.684.846,3.368,3.368,0,0,1-1.32.564,1.545,1.545,0,0,1,.432.4q.192.252.4.564l.732,1.128q.228.36.42.612a1.463,1.463,0,0,0,.432.39,1.137,1.137,0,0,0,.576.138V30H61.854a3.242,3.242,0,0,1-.534-.57q-.222-.306-.474-.69L60.018,27.4q-.156-.24-.33-.516a2.383,2.383,0,0,0-.378-.468h-.756v1.98q0,.324-.006.582a3.356,3.356,0,0,1-.03.414q.144-.012.306-.018t.324-.018q.162-.012.282-.012V30Zm2.808-4.176a3.033,3.033,0,0,0,1.128-.21A1.5,1.5,0,0,0,61.1,25a2.042,2.042,0,0,0,.252-1.074,2.1,2.1,0,0,0-.144-.828,1.375,1.375,0,0,0-.408-.546,1.617,1.617,0,0,0-.63-.3,3.284,3.284,0,0,0-.786-.09.872.872,0,0,0-.558.144.671.671,0,0,0-.222.42,4.266,4.266,0,0,0-.048.708v2.352q.18.012.342.03A2.055,2.055,0,0,0,59.25,25.824Zm12.42-1.632a4.081,4.081,0,0,0-.156-1.14,1.257,1.257,0,0,0-.474-.684,1.516,1.516,0,0,0-.906-.216H69.27l-.012,6.24q0,.324-.006.582a3.356,3.356,0,0,1-.03.414q.228-.024.5-.03t.486-.018V30H67.158v-.528a.962.962,0,0,0,.564-.168.7.7,0,0,0,.216-.438,4.611,4.611,0,0,0,.048-.726V22.164l-1.008.012a1.2,1.2,0,0,0-1.068.492,2.74,2.74,0,0,0-.336,1.524H65.01l.072-2.592h7.08l.072,2.592Zm5.6-2.064a.919.919,0,0,0-.564.162.689.689,0,0,0-.228.432,4.567,4.567,0,0,0-.048.738v4.932q0,.324-.006.582a3.355,3.355,0,0,1-.03.414q.2-.024.45-.03t.426-.018V30H74.322v-.528a.993.993,0,0,0,.57-.168.682.682,0,0,0,.222-.432,4.588,4.588,0,0,0,.048-.732V23.148q0-.264.012-.51t.024-.426l-.444.024-.432.024V21.6h2.952Zm7.236,2.064a3.052,3.052,0,0,0-.312-1.1,2.038,2.038,0,0,0-.7-.786,1.893,1.893,0,0,0-1.1-.282,1.5,1.5,0,0,0-1.068.372,1.256,1.256,0,0,0-.132,1.686,2.5,2.5,0,0,0,.714.57q.45.252,1.014.5.456.192.924.432a5.086,5.086,0,0,1,.852.546,2.339,2.339,0,0,1,.612.732,2.093,2.093,0,0,1,.228,1,2.131,2.131,0,0,1-.348,1.2,2.334,2.334,0,0,1-.99.828,3.65,3.65,0,0,1-1.554.3,4.115,4.115,0,0,1-1.086-.156,3.966,3.966,0,0,1-1.038-.444l.06.5h-.732l-.048-2.64h.576a2.194,2.194,0,0,0,.75,1.578,2.4,2.4,0,0,0,1.566.534,1.989,1.989,0,0,0,.828-.168,1.4,1.4,0,0,0,.588-.48,1.254,1.254,0,0,0,.216-.732,1.213,1.213,0,0,0-.294-.828,2.6,2.6,0,0,0-.744-.576q-.45-.24-.942-.456t-.954-.456a4.57,4.57,0,0,1-.834-.552,2.33,2.33,0,0,1-.588-.738,2.189,2.189,0,0,1-.216-1,2.307,2.307,0,0,1,.12-.708,2.029,2.029,0,0,1,1.194-1.254,3.244,3.244,0,0,1,1.254-.21,4.594,4.594,0,0,1,1.026.132,2.873,2.873,0,0,1,1.038.468l-.048-.5h.72v2.688Zm9.624,0a4.081,4.081,0,0,0-.156-1.14,1.257,1.257,0,0,0-.474-.684,1.516,1.516,0,0,0-.906-.216h-.864l-.012,6.24q0,.324-.006.582a3.357,3.357,0,0,1-.03.414q.228-.024.5-.03t.486-.018V30H89.622v-.528a.962.962,0,0,0,.564-.168.7.7,0,0,0,.216-.438,4.611,4.611,0,0,0,.048-.726V22.164l-1.008.012a1.2,1.2,0,0,0-1.068.492,2.74,2.74,0,0,0-.336,1.524h-.564l.072-2.592h7.08l.072,2.592Zm7.416,0a3.052,3.052,0,0,0-.312-1.1,2.038,2.038,0,0,0-.7-.786,1.893,1.893,0,0,0-1.1-.282,1.5,1.5,0,0,0-1.068.372,1.256,1.256,0,0,0-.132,1.686,2.5,2.5,0,0,0,.714.57q.45.252,1.014.5.456.192.924.432a5.086,5.086,0,0,1,.852.546,2.339,2.339,0,0,1,.612.732,2.093,2.093,0,0,1,.228,1,2.131,2.131,0,0,1-.348,1.2,2.334,2.334,0,0,1-.99.828,3.65,3.65,0,0,1-1.554.3,4.115,4.115,0,0,1-1.086-.156,3.966,3.966,0,0,1-1.038-.444l.06.5h-.732l-.048-2.64h.576a2.194,2.194,0,0,0,.75,1.578,2.4,2.4,0,0,0,1.566.534,1.989,1.989,0,0,0,.828-.168,1.4,1.4,0,0,0,.588-.48,1.254,1.254,0,0,0,.216-.732,1.213,1.213,0,0,0-.294-.828,2.6,2.6,0,0,0-.744-.576q-.45-.24-.942-.456t-.954-.456a4.57,4.57,0,0,1-.834-.552,2.33,2.33,0,0,1-.588-.738,2.189,2.189,0,0,1-.216-1,2.307,2.307,0,0,1,.12-.708,2.029,2.029,0,0,1,1.194-1.254,3.244,3.244,0,0,1,1.254-.21,4.594,4.594,0,0,1,1.026.132,2.873,2.873,0,0,1,1.038.468l-.048-.5h.72v2.688Z" transform="translate(455 1445)" fill="#fff"/></g></svg>