<svg xmlns="http://www.w3.org/2000/svg" width="187.968" height="136.192" viewBox="0 0 187.968 136.192"><g transform="translate(-1040.734 -1339)"><g transform="translate(1358.898 1100.462)"><path d="M-261.1,328.414h-10.362V305.733H-261.1Zm-9.612-.75h8.862V306.483h-8.862Z" fill="#fff"/><path d="M-262.351,306.483h-7.857V290.8h7.857Zm-7.107-.75h6.357V291.552h-6.357Z" fill="#fff"/><path d="M-261.483,291.552h-9.594V288h9.594Zm-8.844-.75h8.094v-2.05h-8.094Z" fill="#fff"/><path d="M-176.945,328.414h-10.363V305.733h10.363Zm-9.613-.75h8.863V306.483h-8.863Z" fill="#fff"/><path d="M-178.2,306.483h-7.858V290.8h7.858Zm-7.108-.75h6.358V291.552h-6.358Z" fill="#fff"/><path d="M-177.33,291.552h-9.593V288h9.593Zm-8.843-.75h8.093v-2.05h-8.093Z" fill="#fff"/><path d="M-220.74,248.592h-4.835l-1.305-10.054h7.445Zm-4.176-.75h3.517l1.11-8.554h-5.737Z" fill="#fff"/><path d="M-200.24,287.775h-11.481a1.966,1.966,0,0,1-.867.532l-1.036,1.232h8.12c.111-.112.812-1.008,1.008-1.008a10.9,10.9,0,0,1,2.071,1.316c.169.112.589.42.589.616,0,.28-.868.756-1.036.868-1.176,2.268-2.521,4.816-5.236,5.376a18.619,18.619,0,0,1-2.464.336,4.9,4.9,0,0,0-.336-1.68c-.392-1.12-1.821-1.176-1.821-1.568a.157.157,0,0,1,.168-.14,3.1,3.1,0,0,1,.7.14,13.352,13.352,0,0,0,2.576.42c2.1,0,3.136-2.016,3.864-3.7h-8.54c-.168.168-.9,1.092-1.232,1.092-.2,0-.42-.308-.533-.42a13.679,13.679,0,0,1-1.343-1.792c0-.168,1.036-.448,1.148-.476l.9-1.148h-5.489l-.5.392-.811-1.512a14.459,14.459,0,0,0,1.512.14H-202.7c.084-.112.895-.98,1.092-.98.28,0,1.679,1.344,1.679,1.708C-199.933,287.691-200.072,287.775-200.24,287.775Zm-2.353-13.888V282.6c0,.812.084,1.652.141,2.464a20.092,20.092,0,0,1-2.576.56l.112-1.848.027-10.332h-3.164c.616.616,1.288,1.288,1.288,1.54,0,.168-.111.224-.252.224-1.12.056-1.763.308-2.715.392a1.864,1.864,0,0,1,.336.476c0,.168-.336.42-.476.5v2.016h2.716c.168-.168.532-.588.811-.588s1.2,1.092,1.2,1.316c0,.2-.252.2-.363.2h-4.368v2.772a7.747,7.747,0,0,0,.111,1.092,15.134,15.134,0,0,1-2.212.364c.029-.5.113-1.064.113-1.6v-1.2a15.062,15.062,0,0,1-3.193,1.96,2.425,2.425,0,0,1-.7.28.12.12,0,0,1-.112-.112c0-.14.307-.42.391-.532a22.328,22.328,0,0,0,2.633-3.024h-2.016l-.5.392-.812-1.428c.5.028,1.008.112,1.512.112h2.8V276.8a6.4,6.4,0,0,0-.113-1.036c-.7.029-3.191.084-3.639,0-.084-.028-.365-.112-.084-.168a37.653,37.653,0,0,0,6.216-2.072c.056,0,.084-.028.14-.084h-6.889a3.245,3.245,0,0,1-.335.308V283.8l.14,1.4a24.807,24.807,0,0,1-2.465.336c.057-.952.141-1.932.141-2.884v-8.316a10.794,10.794,0,0,0-.168-1.9,3.805,3.805,0,0,1-.225-.756c0-.084.057-.112.141-.112a.989.989,0,0,1,.279.056c.645.2,1.933.756,2.408.812a8.661,8.661,0,0,0,1.205.028c.56-.98,1.511-1.82,1.6-2.94a.155.155,0,0,1,.141-.084c.5,0,2.492,1.12,2.492,1.54,0,.2-.868.364-1.009.392-.615.532-1.231.532-1.847,1.092l8.54-.028c.139-.168.643-.952.952-.952a7.423,7.423,0,0,1,1.792,1.008c.139.084.588.364.588.56C-201.864,273.383-202.4,273.719-202.593,273.887Zm-11.256,10.248h4.4a3.148,3.148,0,0,1,1.512-1.008c.616-.084,2.156,1.68,1.847,1.988h-7.615l-.645.364-1.2-1.68Zm.5-5.656c-1.176,0-.756-1.176-1.2-1.848a1.6,1.6,0,0,1-.364-.588.128.128,0,0,1,.14-.112c.448.112.923.308,1.372.448s.98.42.98.98C-212.42,277.947-212.645,278.479-213.345,278.479Zm6.412-1.344c-.559.112-2.3,1.092-2.66,1.092-.084,0-.111-.056-.111-.14a.209.209,0,0,1,.056-.14c.364-.448.728-.868,1.036-1.316a3.421,3.421,0,0,0,.475-.812.527.527,0,0,1,.057-.224c.308-.028,1.987.952,1.987,1.26C-206.093,277.191-206.736,277.107-206.933,277.135Zm.141,6.188c-.812,0-1.009-.812-1.261-1.428a6.677,6.677,0,0,0-1.063-1.484c-.056-.084-.477-.28-.477-.392.029-.112-.084-.2,0-.2a4.527,4.527,0,0,1,1.989.448,2.264,2.264,0,0,1,1.764,1.932A1.057,1.057,0,0,1-206.792,283.323Z" fill="#fff"/><path d="M-214.912,304.183v-4.2a4.624,4.624,0,0,0-.084-.895,4.426,4.426,0,0,1-.252-.728c0-.14.084-.168.2-.168.421,0,2.912.616,2.912,1.064,0,.252-.615.559-.783.672v1.511h2.3c.084-.084,1.148-1.343,1.344-1.343a5.491,5.491,0,0,1,1.6,1.988c0,.2-.281.308-.449.308h-4.787v1.792h2.968c.111-.14.7-.981.924-.981s1.931,1.456,1.931,1.82-.475.42-.727.449a2.963,2.963,0,0,0-.813.252,3.019,3.019,0,0,0-.615.42c-.112.139-.673.811-.9.811-.084,0-.113-.084-.113-.168a15.57,15.57,0,0,1,.449-1.708H-213.6c.2.084,1.2.393,1.2.673,0,.252-.336.392-.531.476v.9l.56-.111c.084-.168.532-1.008.727-1.008.225,0,1.429,1.008,1.429,1.287,0,.169-.2.225-.336.253l-2.38.5v.84c0,.5.951.5,1.26.5,1.176,0,1.735-.2,2.155-1.344.085-.225.364-1.2.616-1.2.168,0,.168.2.168.279,0,.309-.027.589-.027.868,0,.7.363,1.008.924,1.372-.112.225-.225.449-.364.672-.644,1.093-2.94.981-4,.981-.449,0-2.157,0-2.436-.42a1.651,1.651,0,0,1-.28-.952v-1.289l-1.372.336-.308.336-1.009-.923c-.111,4.591-.084,10.78-2.8,14.643-.084.084-.84,1.261-1.037,1.261-.111,0-.111-.141-.111-.2a9.615,9.615,0,0,1,.363-1.176,15.988,15.988,0,0,0,.785-3.08,85.647,85.647,0,0,0,.728-13.1,11.022,11.022,0,0,0-.084-2.155,6.639,6.639,0,0,1-.252-1.2c0-.112.056-.141.14-.141a14.679,14.679,0,0,1,2.716,1.2Zm1.092,10.891a27.958,27.958,0,0,1-3.025,1.149,5.45,5.45,0,0,1-.9.252c-.14,0-.14-.056-.14-.168a.288.288,0,0,1,.168-.225c1.176-.644,3.275-1.987,3.92-3.163h-2.521l-.364.363-.84-1.428c.42.029.869.14,1.261.14h6.356c.112-.14.839-1.092,1.064-1.092a4.2,4.2,0,0,1,1.428,1.737c0,.2-.336.28-.477.28h-4.76c.309.2,1.345.727,1.345,1.092,0,.2-.673.252-.784.252l-1.177.532a5.75,5.75,0,0,1,1.765,1.624,11.278,11.278,0,0,0,1.651-1.82c.084-.084.365-.645.421-.645.111,0,1.764,1.513,1.764,1.849s-.7.279-.9.252a20.685,20.685,0,0,1-2.575,1.036l.279.867a4.464,4.464,0,0,1,3.445.98,1.521,1.521,0,0,1,.532,1.092,1.047,1.047,0,0,1-.925,1.092c-.867,0-1.287-1.428-1.847-2.044a2.719,2.719,0,0,0-1.092-.7,16,16,0,0,1,.2,1.96c0,2.491-.756,3.7-3.192,4.34-.281-.813-.476-1.456-1.372-1.765-.168-.056-.953-.252-.953-.5,0-.111.057-.139.168-.139.393.028.785.055,1.177.055,2.128,0,2.155-1.288,2.268-3.023a23.774,23.774,0,0,1-5.4,2.351,4.532,4.532,0,0,1-.839.2.157.157,0,0,1-.168-.141c0-.195.756-.531.9-.615a20.367,20.367,0,0,0,5.264-4l-.168-.336a17.636,17.636,0,0,1-4.172,2.071,4.841,4.841,0,0,1-.84.28.181.181,0,0,1-.168-.168.241.241,0,0,1,.168-.2,19.8,19.8,0,0,0,4.283-3.5Zm-1.092-7.615v-1.177c0-.391-.084-.811-.112-1.2h-2.044l-.449.393-.055,2.324A9.537,9.537,0,0,0-214.912,307.459Zm10.22,7.392c0,.784.084,1.6.112,2.351-.7.309-1.456.448-2.156.7.028-.868.112-1.763.112-2.631V304.183a8.338,8.338,0,0,0-.336-1.428c0-.112.084-.168.2-.168.477,0,2.8.672,2.8,1.119,0,.2-.589.561-.728.645Zm3.891,7.979c0,1.681-1.9,2.072-3.22,2.156-.083-1.091-.251-1.54-1.288-1.988-.139-.056-1.036-.336-1.036-.5a.238.238,0,0,1,.2-.195,19.126,19.126,0,0,0,2.156.168c.756,0,1.063-.141,1.063-.981V301.242a5.065,5.065,0,0,0-.363-1.708.727.727,0,0,1-.084-.336.149.149,0,0,1,.14-.139c.5,0,3.332.7,3.332,1.12,0,.252-.729.672-.9.784Z" fill="#fff"/><path d="M-251.548,294.187a3.777,3.777,0,0,1,.224-.672,28.076,28.076,0,0,0,1.2-4.228,6.616,6.616,0,0,0,.224-1.26c0-.14-.028-.252-.028-.364,0-.084.028-.168.111-.168a12.8,12.8,0,0,1,2.1.784c.168.084.615.28.615.532,0,.28-.447.476-.643.56a20.49,20.49,0,0,1-3.193,4.508c-.084.112-.363.476-.5.476C-251.548,294.3-251.548,294.243-251.548,294.187Zm2.016-7.532-.5.364-.952-1.456c.532.056,1.148.168,1.679.168h2.548v-1.176a6.148,6.148,0,0,0-.168-1.6h-2.995l-.505.364-.951-1.456c.531.056,1.148.168,1.68.168h4.368a30.253,30.253,0,0,0,1.26-4.4,8.322,8.322,0,0,1,.139-.9,7.61,7.61,0,0,1,2.437,1.2.653.653,0,0,1,.28.476c0,.28-.589.364-.784.392-.84,1.092-1.708,2.184-2.576,3.22h1.876c.112-.14.868-1.176,1.176-1.176a.776.776,0,0,1,.5.336c.168.2,1.149,1.232,1.149,1.512,0,.224-.336.252-.477.252h-4.311c.2.112.643.336.643.56s-.42.448-.559.532v1.68h1.26c.084-.084,1.007-1.2,1.232-1.2.168,0,.42.28.5.392.2.2,1.176,1.148,1.176,1.512,0,.168-.14.224-.281.224h-3.891v5.432a20.351,20.351,0,0,0,.252,3.164l-2.716.812a23.1,23.1,0,0,0,.279-3.612v-5.8Zm7.616-12.236c.168,0,.447.308.588.42.112.14,1.12,1.092,1.12,1.456a.281.281,0,0,1-.28.28h-9.3l-.5.336-.952-1.428c.532.028,1.12.14,1.679.14h6.384C-243.12,275.567-242.2,274.419-241.916,274.419Zm-7.588,2.576a6.647,6.647,0,0,1,1.987,1.092,2.29,2.29,0,0,1,1.009,1.232,3.521,3.521,0,0,1,.14.924,1.125,1.125,0,0,1-1.065,1.176c-1.511,0-.923-2.352-1.6-3.36a5.053,5.053,0,0,1-.588-.98C-249.616,277.023-249.561,276.995-249.5,276.995Zm1.2-6.72a9.759,9.759,0,0,1,1.539.616,3.111,3.111,0,0,1,2.24,2.912,1.105,1.105,0,0,1-1.12,1.12,1.233,1.233,0,0,1-.979-.476c-.532-.728-.393-1.988-.924-2.772-.28-.392-.56-.728-.868-1.092-.028-.056-.112-.112-.112-.167C-248.44,270.3-248.384,270.275-248.3,270.275Zm4.592,18.032a7.488,7.488,0,0,1,1.428.952,2.626,2.626,0,0,1,1.176,2.156,1.128,1.128,0,0,1-1.037,1.2,1.092,1.092,0,0,1-.979-.616c-.112-.28-.141-1.932-.309-2.52-.055-.252-.42-.952-.42-1.064C-243.792,288.307-243.736,288.307-243.708,288.307Zm10.976-7.112c.139-.168.952-1.2,1.232-1.2a5.191,5.191,0,0,1,1.68,1.876.294.294,0,0,1-.308.308h-2.156l-.448.532v10.052c0,1.036.112,2.128.168,3.164a8.3,8.3,0,0,1-2.577.644c.057-1.12.2-2.268.2-3.388.055-3.668,0-7.336,0-11h-2.073c-.139,4.256.113,8.512-3.051,11.872a12.4,12.4,0,0,1-2.436,2.1,1.579,1.579,0,0,1-.56.308c-.056,0-.14-.028-.14-.112,0-.112,1.4-1.708,1.6-1.932a8.808,8.808,0,0,0,1.288-2.856,34.315,34.315,0,0,0,.952-9.716v-4.844a16.794,16.794,0,0,0-.112-3.136,2.452,2.452,0,0,0-.252-.84.669.669,0,0,1-.14-.392c0-.14.027-.224.168-.224a13.06,13.06,0,0,1,3.023,1.064c1.2-.476,2.044-.868,3.221-1.456a3.915,3.915,0,0,0,.728-.448c.055-.056.223-.2.307-.2.141,0,.225.252.309.336a13.6,13.6,0,0,1,1.54,2.6c0,.112-.168.168-.28.168a6,6,0,0,1-.7-.084,6.386,6.386,0,0,0-.7-.056c-1.456,0-2.912.112-4.341.168l-.336.448c-.027,2.072-.027,4.144-.055,6.244Z" fill="#fff"/><path d="M-250.036,305.414l-.393.309-1.008-1.4c.617.057,1.289.168,1.9.168h7.616V302c-1.876.085-3.752.169-5.628.169-.56,0-1.12,0-1.652-.028-.113,0-.308,0-.308-.168,0-.309.951-.336,1.176-.365,2.351-.335,4.676-.811,7-1.372a31.686,31.686,0,0,0,4.76-1.343,2.348,2.348,0,0,0,.923-.532c.029-.028.225-.224.281-.224.448,0,2.351,2.408,2.351,2.716,0,.336-2.044.364-2.239.364-.393.027-.812.111-1.2.168-1.176.168-2.353.307-3.528.447.28.141,1.12.561,1.12.9,0,.28-.476.532-.672.643v1.12h6.019c.168-.168,1.121-1.26,1.4-1.26.391,0,1.54,1.233,1.792,1.485a.623.623,0,0,1,.223.42c0,.223-.252.279-.447.279h-8.261a18.6,18.6,0,0,0,4.788,3.276,16.631,16.631,0,0,0,3.445,1.373c.2.055.84.139.84.419s-.812.365-1.036.42a3.008,3.008,0,0,0-1.624,1.54,12.63,12.63,0,0,1-6.917-7.028h-.223v1.9c0,1.065.084,2.128.14,3.193a12.46,12.46,0,0,1-2.661.5,39.354,39.354,0,0,0,.141-4.061,24.587,24.587,0,0,1-8.876,5.824,2.952,2.952,0,0,1-.7.252.127.127,0,0,1-.112-.139c0-.2.868-.7,1.036-.84a26.485,26.485,0,0,0,6.58-6.637Zm3.22,7.448-.365.365-1.063-1.456c.616.055,1.288.167,1.9.167h7.728c.168-.223.727-1.12,1.091-1.12.42,0,1.625,1.008,1.9,1.233.168.111.448.336.448.559,0,.281-.616.588-.841.729q-.292,1.175-.588,2.351h1.989c.084-.112.868-1.091,1.064-1.091.224,0,2.323,1.567,2.323,1.931s-.615.561-.84.672c-.168.616-.28,1.261-.419,1.9a11.813,11.813,0,0,1-1.232,3.361,3.39,3.39,0,0,1-1.624,1.567,14.612,14.612,0,0,1-5.04.784c0-.952.084-1.96-.9-2.464-.224-.112-1.064-.419-1.064-.728,0-.084.111-.14.195-.14a7.16,7.16,0,0,1,1.261.252,14.4,14.4,0,0,0,2.716.336c1.9,0,2.576-.924,3.052-2.632.252-.952.391-1.876.559-2.855h-2.128c-.139.2-.643,1.008-.951,1.008a4.567,4.567,0,0,1-2.072-1.456c0-.2.672-.645.811-.729.2-.84.365-1.68.5-2.548h-4.34c.309.113,1.569.5,1.569.924,0,.2-.645.561-.756.645-.9,3.164-2.185,6.16-4.956,8.12a13.867,13.867,0,0,1-2.212,1.372,7.523,7.523,0,0,1-1.2.531.133.133,0,0,1-.141-.14c0-.084.084-.168.168-.223a16.608,16.608,0,0,0,2.66-2.773,17.177,17.177,0,0,0,3-6.832,6.307,6.307,0,0,0,.224-1.624Z" fill="#fff"/><path d="M-256.1,251.606c-14.28,14.364-14.317,36.559-14.316,36.781l.75,0c0-.22.041-22.114,14.1-36.253,7.33-7.369,17.171-11.376,29.269-11.962l-.1-.745C-238.651,240.029-248.641,244.108-256.1,251.606Z" fill="#fff"/><path d="M-192.848,252.13c14.061,14.139,14.1,36.033,14.1,36.253l.75,0c0-.222-.035-22.417-14.316-36.782-7.029-7.07-16.315-11.1-27.634-12.045l-.1.748C-208.892,241.232-199.754,245.186-192.848,252.13Z" fill="#fff"/><path d="M-197.942,257.824c11.851,11.916,11.887,30.374,11.886,30.559l.75,0c0-.188-.029-18.946-12.1-31.088-5.977-6.012-13.876-9.432-23.517-10.207l-.1.759C-211.551,248.606-203.794,251.94-197.942,257.824Z" fill="#fff"/><path d="M-251,257.3c-12.071,12.142-12.1,30.9-12.1,31.088l.75,0c0-.185.036-18.643,11.887-30.559,6.273-6.308,14.736-9.687,25.155-10.1l-.1-.763C-236,247.393-244.6,250.861-251,257.3Z" fill="#fff"/></g><path d="M-61.614-5.724a2.652,2.652,0,0,0-.744-1.662,2.263,2.263,0,0,0-1.6-.594,2.449,2.449,0,0,0-1.152.276,2.758,2.758,0,0,0-.912.774,3.7,3.7,0,0,0-.594,1.176,4.989,4.989,0,0,0-.21,1.482,4.643,4.643,0,0,0,.384,1.938A3.116,3.116,0,0,0-65.376-1.02a2.65,2.65,0,0,0,1.542.468,3.43,3.43,0,0,0,1.518-.366,3.323,3.323,0,0,0,1.242-1.038l.4.336A4.429,4.429,0,0,1-61.83-.48a3.8,3.8,0,0,1-1.218.534,4.988,4.988,0,0,1-1.1.138A4.16,4.16,0,0,1-65.8-.132a3.834,3.834,0,0,1-1.3-.906,4.074,4.074,0,0,1-.84-1.356,4.676,4.676,0,0,1-.294-1.674,5.237,5.237,0,0,1,.264-1.644,4.7,4.7,0,0,1,.78-1.458,3.7,3.7,0,0,1,1.3-1.038,4.122,4.122,0,0,1,1.83-.384,4.284,4.284,0,0,1,1.194.168,4.233,4.233,0,0,1,1.122.516l-.06-.6h.744v2.784ZM-59.346,0V-.54a.747.747,0,0,0,.552-.192,1.533,1.533,0,0,0,.324-.522q.132-.33.288-.738l2.424-6.636h.48L-52.65-1.9q.1.228.216.618a2.026,2.026,0,0,1,.108.666q.2-.024.4-.03t.378-.018V0h-2.916V-.528A.721.721,0,0,0-53.9-.714.553.553,0,0,0-53.8-1.14a2.115,2.115,0,0,0-.126-.5l-.36-.972-2.94.072L-57.57-1.5q-.072.24-.156.456t-.168.42q.216-.024.462-.03t.438-.018V0Zm2.34-3.192h2.52l-.756-2.028q-.144-.4-.276-.786t-.24-.75h-.012q-.1.3-.216.66t-.276.78ZM-43.29.168-47.754-5.76q-.132-.156-.252-.324t-.252-.348h-.012l.036,4.668q0,.3-.006.6t-.03.552q.2-.024.45-.03t.426-.018V0H-49.77V-.528a.834.834,0,0,0,.51-.132.671.671,0,0,0,.24-.348,1.73,1.73,0,0,0,.066-.5V-7.368q0-.24.012-.42l-.426.024q-.234.012-.414.024V-8.4H-48.2l4.224,5.556q.2.264.366.492t.318.432h.012l.012-4.932q0-.264.012-.51t.024-.426l-.456.024q-.24.012-.42.024V-8.4h2.376v.528a.891.891,0,0,0-.558.162.678.678,0,0,0-.216.432,5.208,5.208,0,0,0-.042.738L-42.558.168Zm10.152-5.976a4.081,4.081,0,0,0-.156-1.14,1.257,1.257,0,0,0-.474-.684,1.516,1.516,0,0,0-.906-.216h-.864l-.012,6.24q0,.324-.006.582a3.356,3.356,0,0,1-.03.414q.228-.024.5-.03T-34.6-.66V0H-37.65V-.528A.962.962,0,0,0-37.086-.7a.7.7,0,0,0,.216-.438,4.611,4.611,0,0,0,.048-.726V-7.836l-1.008.012a1.2,1.2,0,0,0-1.068.492,2.74,2.74,0,0,0-.336,1.524H-39.8l.072-2.592h7.08l.072,2.592Zm6.768,6a4.521,4.521,0,0,1-1.95-.384,3.6,3.6,0,0,1-1.314-1.026,4.36,4.36,0,0,1-.744-1.422,5.28,5.28,0,0,1-.24-1.56,4.817,4.817,0,0,1,.258-1.53,4.54,4.54,0,0,1,.78-1.422A3.917,3.917,0,0,1-28.272-8.2a4.045,4.045,0,0,1,1.842-.4,4.237,4.237,0,0,1,1.9.4,3.792,3.792,0,0,1,1.314,1.05,4.7,4.7,0,0,1,.774,1.422A4.763,4.763,0,0,1-22.182-4.2a4.783,4.783,0,0,1-.258,1.518,4.613,4.613,0,0,1-.78,1.428,3.9,3.9,0,0,1-1.3,1.05A4.036,4.036,0,0,1-26.37.192Zm.06-.624A2.265,2.265,0,0,0-25.1-.744a2.574,2.574,0,0,0,.84-.834,3.889,3.889,0,0,0,.486-1.152,5.2,5.2,0,0,0,.156-1.254,6.04,6.04,0,0,0-.18-1.482,4.3,4.3,0,0,0-.546-1.284,2.82,2.82,0,0,0-.906-.9A2.345,2.345,0,0,0-26.5-7.98a2.231,2.231,0,0,0-1.212.324,2.612,2.612,0,0,0-.84.846,4.11,4.11,0,0,0-.486,1.152A5.065,5.065,0,0,0-29.2-4.392a5.632,5.632,0,0,0,.168,1.32,4.824,4.824,0,0,0,.516,1.3,2.943,2.943,0,0,0,.894.972A2.277,2.277,0,0,0-26.31-.432Zm12.84.6L-17.934-5.76q-.132-.156-.252-.324t-.252-.348h-.012l.036,4.668q0,.3-.006.6t-.03.552q.2-.024.45-.03t.426-.018V0H-19.95V-.528a.834.834,0,0,0,.51-.132.671.671,0,0,0,.24-.348,1.73,1.73,0,0,0,.066-.5V-7.368q0-.24.012-.42l-.426.024q-.234.012-.414.024V-8.4h1.584l4.224,5.556q.2.264.366.492t.318.432h.012l.012-4.932q0-.264.012-.51t.024-.426l-.456.024q-.24.012-.42.024V-8.4h2.376v.528a.891.891,0,0,0-.558.162.678.678,0,0,0-.216.432,5.208,5.208,0,0,0-.042.738L-12.738.168Zm8.04-3.2a1.4,1.4,0,0,0-.15-.744.649.649,0,0,0-.45-.282,3.292,3.292,0,0,0-.744-.03l-.7.024v2.5q0,.324-.006.57a3.26,3.26,0,0,1-.03.4l2.064-.024A2.23,2.23,0,0,0-4.6-.8a1.219,1.219,0,0,0,.588-.558A2.268,2.268,0,0,0-3.8-2.436h.528L-3.342,0h-6.24V-.528A.993.993,0,0,0-9.012-.7a.682.682,0,0,0,.222-.432,4.588,4.588,0,0,0,.048-.732V-6.852q0-.264.012-.51t.024-.426l-.444.024-.432.024V-8.4h5.856l.06,2.172h-.528a2.006,2.006,0,0,0-.222-1.044,1.078,1.078,0,0,0-.576-.48,2.158,2.158,0,0,0-.762-.108l-.84.024a1.033,1.033,0,0,0-.564.126A.614.614,0,0,0-7.41-7.3a3.825,3.825,0,0,0-.06.762v1.884h1.98l-.072-1.032h.66v2.652ZM3.858-5.808a3.052,3.052,0,0,0-.312-1.1,2.038,2.038,0,0,0-.7-.786,1.893,1.893,0,0,0-1.1-.282,1.5,1.5,0,0,0-1.068.372,1.19,1.19,0,0,0-.4.9,1.189,1.189,0,0,0,.264.786,2.5,2.5,0,0,0,.714.57q.45.252,1.014.5.456.192.924.432a5.086,5.086,0,0,1,.852.546,2.339,2.339,0,0,1,.612.732,2.093,2.093,0,0,1,.228,1,2.131,2.131,0,0,1-.348,1.2,2.334,2.334,0,0,1-.99.828A3.65,3.65,0,0,1,2,.192,4.115,4.115,0,0,1,.912.036,3.965,3.965,0,0,1-.126-.408l.06.5H-.8l-.048-2.64H-.27A2.194,2.194,0,0,0,.48-.966a2.4,2.4,0,0,0,1.566.534A1.989,1.989,0,0,0,2.874-.6a1.4,1.4,0,0,0,.588-.48,1.254,1.254,0,0,0,.216-.732,1.213,1.213,0,0,0-.294-.828,2.6,2.6,0,0,0-.744-.576q-.45-.24-.942-.456T.744-4.128A4.571,4.571,0,0,1-.09-4.68a2.33,2.33,0,0,1-.588-.738,2.189,2.189,0,0,1-.216-1,2.307,2.307,0,0,1,.12-.708,2.06,2.06,0,0,1,.408-.708A2.073,2.073,0,0,1,.42-8.382a3.244,3.244,0,0,1,1.254-.21A4.594,4.594,0,0,1,2.7-8.46a2.873,2.873,0,0,1,1.038.468L3.69-8.5h.72v2.688ZM11.37-3.036a1.4,1.4,0,0,0-.15-.744.649.649,0,0,0-.45-.282,3.292,3.292,0,0,0-.744-.03l-.7.024v2.5q0,.324-.006.57a3.26,3.26,0,0,1-.03.4l2.064-.024A2.23,2.23,0,0,0,12.2-.8a1.219,1.219,0,0,0,.588-.558A2.268,2.268,0,0,0,13-2.436h.528L13.458,0H7.218V-.528A.993.993,0,0,0,7.788-.7a.682.682,0,0,0,.222-.432,4.588,4.588,0,0,0,.048-.732V-6.852q0-.264.012-.51t.024-.426l-.444.024-.432.024V-8.4h5.856l.06,2.172h-.528a2.006,2.006,0,0,0-.222-1.044,1.078,1.078,0,0,0-.576-.48,2.158,2.158,0,0,0-.762-.108l-.84.024a1.033,1.033,0,0,0-.564.126A.614.614,0,0,0,9.39-7.3a3.825,3.825,0,0,0-.06.762v1.884h1.98l-.072-1.032h.66v2.652Zm13,3.228a4.521,4.521,0,0,1-1.95-.384A3.6,3.6,0,0,1,21.1-1.218a4.36,4.36,0,0,1-.744-1.422,5.28,5.28,0,0,1-.24-1.56,4.817,4.817,0,0,1,.258-1.53,4.54,4.54,0,0,1,.78-1.422A3.917,3.917,0,0,1,22.464-8.2a4.045,4.045,0,0,1,1.842-.4,4.237,4.237,0,0,1,1.9.4,3.792,3.792,0,0,1,1.314,1.05A4.7,4.7,0,0,1,28.3-5.724,4.763,4.763,0,0,1,28.554-4.2,4.783,4.783,0,0,1,28.3-2.682a4.613,4.613,0,0,1-.78,1.428,3.9,3.9,0,0,1-1.3,1.05A4.036,4.036,0,0,1,24.366.192Zm.06-.624a2.265,2.265,0,0,0,1.206-.312,2.574,2.574,0,0,0,.84-.834,3.889,3.889,0,0,0,.486-1.152,5.2,5.2,0,0,0,.156-1.254,6.04,6.04,0,0,0-.18-1.482,4.3,4.3,0,0,0-.546-1.284,2.82,2.82,0,0,0-.906-.9,2.345,2.345,0,0,0-1.248-.33,2.231,2.231,0,0,0-1.212.324,2.612,2.612,0,0,0-.84.846A4.11,4.11,0,0,0,21.7-5.658a5.065,5.065,0,0,0-.162,1.266,5.632,5.632,0,0,0,.168,1.32,4.824,4.824,0,0,0,.516,1.3,2.943,2.943,0,0,0,.894.972A2.277,2.277,0,0,0,24.426-.432Zm6.336-.1a.993.993,0,0,0,.57-.168.682.682,0,0,0,.222-.432A4.588,4.588,0,0,0,31.6-1.86V-6.852q0-.264.012-.51t.024-.426l-.444.024-.432.024V-8.4q.708-.012,1.44-.018t1.488-.006a5.932,5.932,0,0,1,1.914.27,2.53,2.53,0,0,1,1.212.816,2.221,2.221,0,0,1,.438,1.374A2.633,2.633,0,0,1,37.086-5a2.486,2.486,0,0,1-.612.924,3.151,3.151,0,0,1-1.17.69,5.568,5.568,0,0,1-1.854.264q-.12.012-.27.012t-.306-.012v1.512q0,.324-.006.582a3.355,3.355,0,0,1-.03.414l.36-.024q.192-.012.378-.018t.342-.018V0H30.762Zm2.112-3.228q.2.024.354.03t.354.006a2.675,2.675,0,0,0,1.188-.252,1.875,1.875,0,0,0,.8-.732,2.174,2.174,0,0,0,.288-1.14,2.37,2.37,0,0,0-.174-.966,1.482,1.482,0,0,0-.48-.612,1.973,1.973,0,0,0-.7-.318,3.556,3.556,0,0,0-.84-.1.8.8,0,0,0-.528.144.686.686,0,0,0-.216.42,4.266,4.266,0,0,0-.048.708Zm10.584.72a1.4,1.4,0,0,0-.15-.744.649.649,0,0,0-.45-.282,3.292,3.292,0,0,0-.744-.03l-.7.024v2.5q0,.324-.006.57a3.26,3.26,0,0,1-.03.4l2.064-.024a2.23,2.23,0,0,0,.84-.174,1.219,1.219,0,0,0,.588-.558,2.268,2.268,0,0,0,.216-1.08h.528L45.546,0h-6.24V-.528a.993.993,0,0,0,.57-.168.682.682,0,0,0,.222-.432,4.588,4.588,0,0,0,.048-.732V-6.852q0-.264.012-.51t.024-.426l-.444.024-.432.024V-8.4h5.856l.06,2.172h-.528a2.006,2.006,0,0,0-.222-1.044,1.078,1.078,0,0,0-.576-.48,2.158,2.158,0,0,0-.762-.108l-.84.024a1.033,1.033,0,0,0-.564.126.614.614,0,0,0-.252.408,3.825,3.825,0,0,0-.06.762v1.884H43.4l-.072-1.032h.66v2.652ZM47.982,0V-.528a.993.993,0,0,0,.57-.168.682.682,0,0,0,.222-.432,4.588,4.588,0,0,0,.048-.732V-6.852q0-.264.012-.51t.024-.426l-.444.024-.432.024V-8.4q.732-.012,1.476-.018t1.5.006a5.676,5.676,0,0,1,1.86.258,2.218,2.218,0,0,1,1.1.762A2.052,2.052,0,0,1,54.27-6.12a2.249,2.249,0,0,1-.192.954,2.154,2.154,0,0,1-.684.846,3.368,3.368,0,0,1-1.32.564,1.545,1.545,0,0,1,.432.4q.192.252.4.564l.732,1.128q.228.36.42.612a1.463,1.463,0,0,0,.432.39,1.137,1.137,0,0,0,.576.138V0H53.394a3.242,3.242,0,0,1-.534-.57q-.222-.306-.474-.69L51.558-2.6q-.156-.24-.33-.516a2.383,2.383,0,0,0-.378-.468h-.756v1.98q0,.324-.006.582a3.355,3.355,0,0,1-.03.414q.144-.012.306-.018t.324-.018q.162-.012.282-.012V0ZM50.79-4.176a3.033,3.033,0,0,0,1.128-.21A1.5,1.5,0,0,0,52.638-5a2.042,2.042,0,0,0,.252-1.074,2.1,2.1,0,0,0-.144-.828,1.375,1.375,0,0,0-.408-.546,1.617,1.617,0,0,0-.63-.3,3.284,3.284,0,0,0-.786-.09.872.872,0,0,0-.558.144.671.671,0,0,0-.222.42,4.266,4.266,0,0,0-.048.708v2.352q.18.012.342.03A2.055,2.055,0,0,0,50.79-4.176ZM56.67,0V-.54a.747.747,0,0,0,.552-.192,1.533,1.533,0,0,0,.324-.522q.132-.33.288-.738l2.424-6.636h.48L63.366-1.9q.1.228.216.618a2.026,2.026,0,0,1,.108.666q.2-.024.4-.03T64.47-.66V0H61.554V-.528a.721.721,0,0,0,.558-.186.553.553,0,0,0,.108-.426,2.115,2.115,0,0,0-.126-.5l-.36-.972-2.94.072L58.446-1.5q-.072.24-.156.456t-.168.42q.216-.024.462-.03t.438-.018V0Zm2.34-3.192h2.52L60.774-5.22q-.144-.4-.276-.786t-.24-.75h-.012q-.1.3-.216.66t-.276.78ZM-91.7,18v-.528a.962.962,0,0,0,.564-.168.7.7,0,0,0,.216-.438,4.611,4.611,0,0,0,.048-.726l.012-1.26-2.136-3.36a8.063,8.063,0,0,1-.4-.744,1.836,1.836,0,0,1-.174-.54q-.192.012-.36.012t-.336.012V9.6h3.24v.528a1.264,1.264,0,0,0-.7.132.416.416,0,0,0-.2.414,1.541,1.541,0,0,0,.24.63l.948,1.512q.1.144.216.336t.246.39q.126.2.234.4h.024q.108-.228.246-.486t.282-.57L-88.6,11.2q.06-.12.156-.3t.21-.366A1.653,1.653,0,0,1-88,10.224q-.216.012-.474.018t-.462.018V9.6h2.508v.528a1.413,1.413,0,0,0-.882.39,4.489,4.489,0,0,0-.75,1.074q-.4.756-.78,1.482t-.744,1.422q0,.192-.006.492t-.006.6v.8q0,.324-.006.582a3.355,3.355,0,0,1-.03.414q.24-.024.51-.03t.474-.018V18Zm10.884.192a4.521,4.521,0,0,1-1.95-.384,3.6,3.6,0,0,1-1.314-1.026,4.36,4.36,0,0,1-.744-1.422,5.28,5.28,0,0,1-.24-1.56,4.817,4.817,0,0,1,.258-1.53,4.54,4.54,0,0,1,.78-1.422A3.917,3.917,0,0,1-82.716,9.8a4.045,4.045,0,0,1,1.842-.4,4.237,4.237,0,0,1,1.9.4,3.792,3.792,0,0,1,1.314,1.05,4.7,4.7,0,0,1,.774,1.422,4.763,4.763,0,0,1,.258,1.524,4.783,4.783,0,0,1-.258,1.518,4.613,4.613,0,0,1-.78,1.428,3.9,3.9,0,0,1-1.3,1.05A4.036,4.036,0,0,1-80.814,18.192Zm.06-.624a2.265,2.265,0,0,0,1.206-.312,2.574,2.574,0,0,0,.84-.834,3.888,3.888,0,0,0,.486-1.152,5.2,5.2,0,0,0,.156-1.254,6.039,6.039,0,0,0-.18-1.482,4.3,4.3,0,0,0-.546-1.284,2.82,2.82,0,0,0-.906-.9,2.345,2.345,0,0,0-1.248-.33,2.231,2.231,0,0,0-1.212.324,2.612,2.612,0,0,0-.84.846,4.11,4.11,0,0,0-.486,1.152,5.065,5.065,0,0,0-.162,1.266,5.632,5.632,0,0,0,.168,1.32,4.824,4.824,0,0,0,.516,1.3,2.943,2.943,0,0,0,.894.972A2.277,2.277,0,0,0-80.754,17.568Zm9.048-7.44a.886.886,0,0,0-.528.132.629.629,0,0,0-.24.354,1.909,1.909,0,0,0-.06.5V14.22a6.73,6.73,0,0,0,.114,1.29,3.07,3.07,0,0,0,.372,1.008,1.8,1.8,0,0,0,.708.666,2.4,2.4,0,0,0,1.1.252,2.256,2.256,0,0,0,1.32-.36,2.16,2.16,0,0,0,.774-1.032,4.62,4.62,0,0,0,.27-1.6l.024-3.3q0-.264.012-.51t.024-.426l-.444.024-.432.024V9.6h2.424v.528a.941.941,0,0,0-.576.162.689.689,0,0,0-.228.432,4.567,4.567,0,0,0-.048.738l-.012,2.856a5.9,5.9,0,0,1-.2,1.578,3.5,3.5,0,0,1-.6,1.23,2.629,2.629,0,0,1-1.02.792,3.552,3.552,0,0,1-1.458.276,4.413,4.413,0,0,1-1.632-.264,2.38,2.38,0,0,1-1.05-.786,3.305,3.305,0,0,1-.558-1.284,8.222,8.222,0,0,1-.168-1.758V11.508q0-.324.018-.708t.03-.588q-.2.012-.444.018t-.432.018V9.6h2.94Zm14.112,8.04-4.464-5.928q-.132-.156-.252-.324t-.252-.348h-.012l.036,4.668q0,.3-.006.6t-.03.552q.2-.024.45-.03t.426-.018V18h-2.376v-.528a.834.834,0,0,0,.51-.132.671.671,0,0,0,.24-.348,1.73,1.73,0,0,0,.066-.5V10.632q0-.24.012-.42l-.426.024q-.234.012-.414.024V9.6H-62.5l4.224,5.556q.2.264.366.492t.318.432h.012l.012-4.932q0-.264.012-.51t.024-.426l-.456.024q-.24.012-.42.024V9.6h2.376v.528a.891.891,0,0,0-.558.162.678.678,0,0,0-.216.432,5.208,5.208,0,0,0-.042.738l-.012,6.708Zm7.764.024a4.254,4.254,0,0,1-2.148-.528,3.616,3.616,0,0,1-1.428-1.482,4.7,4.7,0,0,1-.5-2.226,5.349,5.349,0,0,1,.258-1.644,4.613,4.613,0,0,1,.78-1.464A3.79,3.79,0,0,1-51.564,9.8a4.068,4.068,0,0,1,1.83-.39,5.039,5.039,0,0,1,.828.072,5.146,5.146,0,0,1,.846.216,3.925,3.925,0,0,1,.75.348l-.048-.552h.744v2.76h-.552a2.475,2.475,0,0,0-.4-1.218,2.218,2.218,0,0,0-.876-.756,2.681,2.681,0,0,0-1.182-.258,2.4,2.4,0,0,0-1.158.282,2.848,2.848,0,0,0-.906.78,3.706,3.706,0,0,0-.594,1.17,4.8,4.8,0,0,0-.21,1.44,4.96,4.96,0,0,0,.366,1.962A3.169,3.169,0,0,0-51.09,17a2.589,2.589,0,0,0,1.572.492,4.061,4.061,0,0,0,.63-.054,4.264,4.264,0,0,0,.684-.168,2.672,2.672,0,0,0,.618-.294V15.636q0-.3.006-.594t.006-.546l-.432.024q-.24.012-.42.024v-.66h2.868v.528a.745.745,0,0,0-.462.132.755.755,0,0,0-.252.33,1.614,1.614,0,0,0-.1.42,3.866,3.866,0,0,0-.024.414V17.58h-.312a2.646,2.646,0,0,0-.588.078,6.283,6.283,0,0,0-.756.234,5.281,5.281,0,0,1-.852.216A5.361,5.361,0,0,1-49.83,18.192Zm16.968-6a4.081,4.081,0,0,0-.156-1.14,1.257,1.257,0,0,0-.474-.684,1.516,1.516,0,0,0-.906-.216h-.864l-.012,6.24q0,.324-.006.582a3.354,3.354,0,0,1-.03.414q.228-.024.5-.03t.486-.018V18h-3.048v-.528a.962.962,0,0,0,.564-.168.7.7,0,0,0,.216-.438,4.611,4.611,0,0,0,.048-.726V10.164l-1.008.012a1.2,1.2,0,0,0-1.068.492,2.74,2.74,0,0,0-.336,1.524h-.564L-39.45,9.6h7.08l.072,2.592ZM-31.29,18v-.54a.747.747,0,0,0,.552-.192,1.533,1.533,0,0,0,.324-.522q.132-.33.288-.738L-27.7,9.372h.48l2.628,6.732q.1.228.216.618a2.026,2.026,0,0,1,.108.666q.2-.024.4-.03t.378-.018V18h-2.916v-.528a.721.721,0,0,0,.558-.186.553.553,0,0,0,.108-.426,2.115,2.115,0,0,0-.126-.5l-.36-.972-2.94.072-.348,1.044q-.072.24-.156.456t-.168.42q.216-.024.462-.03t.438-.018V18Zm2.34-3.192h2.52l-.756-2.028q-.144-.4-.276-.786t-.24-.75h-.012q-.1.3-.216.66t-.276.78ZM-21.738,18v-.528a.993.993,0,0,0,.57-.168.682.682,0,0,0,.222-.432,4.588,4.588,0,0,0,.048-.732V11.148q0-.264.012-.51t.024-.426l-.444.024-.432.024V9.6h2.952v.528a.919.919,0,0,0-.564.162.689.689,0,0,0-.228.432,4.566,4.566,0,0,0-.048.738v4.968q0,.324-.006.57a3.26,3.26,0,0,1-.03.4l2.028-.024a1.434,1.434,0,0,0,1.14-.486,2.332,2.332,0,0,0,.4-1.506h.54L-15.63,18Zm12.4-3.036a1.4,1.4,0,0,0-.15-.744.649.649,0,0,0-.45-.282,3.292,3.292,0,0,0-.744-.03l-.7.024v2.5q0,.324-.006.57a3.26,3.26,0,0,1-.03.4l2.064-.024a2.23,2.23,0,0,0,.84-.174,1.219,1.219,0,0,0,.588-.558,2.268,2.268,0,0,0,.216-1.08h.528L-7.254,18h-6.24v-.528a.993.993,0,0,0,.57-.168.682.682,0,0,0,.222-.432,4.588,4.588,0,0,0,.048-.732V11.148q0-.264.012-.51t.024-.426l-.444.024-.432.024V9.6h5.856l.06,2.172h-.528a2.006,2.006,0,0,0-.222-1.044,1.078,1.078,0,0,0-.576-.48,2.158,2.158,0,0,0-.762-.108l-.84.024a1.033,1.033,0,0,0-.564.126.614.614,0,0,0-.252.408,3.825,3.825,0,0,0-.06.762v1.884H-9.4l-.072-1.032h.66v2.652Zm11.028,3.2L-2.778,12.24q-.132-.156-.252-.324t-.252-.348h-.012l.036,4.668q0,.3-.006.6t-.03.552q.2-.024.45-.03t.426-.018V18H-4.794v-.528a.834.834,0,0,0,.51-.132.671.671,0,0,0,.24-.348,1.73,1.73,0,0,0,.066-.5V10.632q0-.24.012-.42l-.426.024q-.234.012-.414.024V9.6h1.584L1,15.156q.2.264.366.492t.318.432H1.7l.012-4.932q0-.264.012-.51t.024-.426l-.456.024q-.24.012-.42.024V9.6H3.246v.528a.891.891,0,0,0-.558.162.678.678,0,0,0-.216.432,5.208,5.208,0,0,0-.042.738l-.012,6.708Zm10.152-5.976a4.081,4.081,0,0,0-.156-1.14,1.257,1.257,0,0,0-.474-.684,1.516,1.516,0,0,0-.906-.216H9.438l-.012,6.24q0,.324-.006.582a3.355,3.355,0,0,1-.03.414q.228-.024.5-.03t.486-.018V18H7.326v-.528A.962.962,0,0,0,7.89,17.3a.7.7,0,0,0,.216-.438,4.611,4.611,0,0,0,.048-.726V10.164l-1.008.012a1.2,1.2,0,0,0-1.068.492,2.74,2.74,0,0,0-.336,1.524H5.178L5.25,9.6h7.08l.072,2.592Zm11.772,0a3.052,3.052,0,0,0-.312-1.1,2.038,2.038,0,0,0-.7-.786,1.893,1.893,0,0,0-1.1-.282,1.5,1.5,0,0,0-1.068.372,1.256,1.256,0,0,0-.132,1.686,2.5,2.5,0,0,0,.714.57q.45.252,1.014.5.456.192.924.432a5.086,5.086,0,0,1,.852.546,2.339,2.339,0,0,1,.612.732,2.093,2.093,0,0,1,.228,1,2.131,2.131,0,0,1-.348,1.2,2.334,2.334,0,0,1-.99.828,3.65,3.65,0,0,1-1.554.3,4.115,4.115,0,0,1-1.086-.156,3.965,3.965,0,0,1-1.038-.444l.06.5h-.732l-.048-2.64h.576a2.194,2.194,0,0,0,.75,1.578,2.4,2.4,0,0,0,1.566.534,1.989,1.989,0,0,0,.828-.168,1.4,1.4,0,0,0,.588-.48,1.254,1.254,0,0,0,.216-.732,1.213,1.213,0,0,0-.294-.828,2.6,2.6,0,0,0-.744-.576q-.45-.24-.942-.456t-.954-.456a4.571,4.571,0,0,1-.834-.552,2.33,2.33,0,0,1-.588-.738,2.189,2.189,0,0,1-.216-1,2.307,2.307,0,0,1,.12-.708,2.029,2.029,0,0,1,1.194-1.254,3.244,3.244,0,0,1,1.254-.21,4.594,4.594,0,0,1,1.026.132,2.873,2.873,0,0,1,1.038.468l-.048-.5h.72v2.688ZM26.97,18v-.528a.993.993,0,0,0,.57-.168.682.682,0,0,0,.222-.432,4.588,4.588,0,0,0,.048-.732V11.148q0-.264.012-.51t.024-.426l-.444.024-.432.024V9.6h2.952v.528a.919.919,0,0,0-.564.162.689.689,0,0,0-.228.432,4.566,4.566,0,0,0-.048.738v1.956h3.972V11.148q0-.264.012-.51t.024-.426l-.444.024-.432.024V9.6h2.952v.528a.919.919,0,0,0-.564.162.689.689,0,0,0-.228.432,4.566,4.566,0,0,0-.048.738v4.932q0,.324-.006.582a3.356,3.356,0,0,1-.03.414q.2-.024.444-.03t.432-.018V18H32.214v-.528a.993.993,0,0,0,.57-.168.682.682,0,0,0,.222-.432,4.588,4.588,0,0,0,.048-.732v-2.1l-3.972.036v2.316q0,.324-.006.582a3.355,3.355,0,0,1-.03.414q.2-.024.45-.03t.426-.018V18Zm14.664.192a4.521,4.521,0,0,1-1.95-.384,3.6,3.6,0,0,1-1.314-1.026,4.36,4.36,0,0,1-.744-1.422,5.28,5.28,0,0,1-.24-1.56,4.817,4.817,0,0,1,.258-1.53,4.54,4.54,0,0,1,.78-1.422A3.917,3.917,0,0,1,39.732,9.8a4.045,4.045,0,0,1,1.842-.4,4.237,4.237,0,0,1,1.9.4,3.792,3.792,0,0,1,1.314,1.05,4.7,4.7,0,0,1,.774,1.422,4.612,4.612,0,0,1,0,3.042,4.613,4.613,0,0,1-.78,1.428,3.9,3.9,0,0,1-1.3,1.05A4.036,4.036,0,0,1,41.634,18.192Zm.06-.624a2.265,2.265,0,0,0,1.206-.312,2.574,2.574,0,0,0,.84-.834,3.889,3.889,0,0,0,.486-1.152,5.2,5.2,0,0,0,.156-1.254,6.04,6.04,0,0,0-.18-1.482,4.3,4.3,0,0,0-.546-1.284,2.82,2.82,0,0,0-.906-.9,2.345,2.345,0,0,0-1.248-.33,2.231,2.231,0,0,0-1.212.324,2.612,2.612,0,0,0-.84.846,4.11,4.11,0,0,0-.486,1.152,5.065,5.065,0,0,0-.162,1.266,5.631,5.631,0,0,0,.168,1.32,4.824,4.824,0,0,0,.516,1.3,2.943,2.943,0,0,0,.894.972A2.277,2.277,0,0,0,41.694,17.568Zm8.976.54-2.136-6.42q-.18-.54-.282-.876a4.164,4.164,0,0,1-.138-.576q-.192.012-.36.012t-.336.012V9.6h3.12v.528q-.612.024-.774.264a1.222,1.222,0,0,0,.018.912q.2.756.42,1.4t.432,1.368q.144.492.294.918t.306.99h.012q.06-.192.138-.456l.162-.546q.084-.282.156-.516t.108-.354q.288-.912.57-1.788l.51-1.584q.228-.708.348-1.152h.624q.12.444.318,1.038t.4,1.224q.2.63.4,1.212t.324,1.014q.156.492.318.99t.294,1.026h.024q.108-.36.234-.762t.246-.822q.24-.7.4-1.2t.27-.876q.108-.372.2-.672t.186-.588q.072-.228.168-.486a2.015,2.015,0,0,1,.24-.462q-.228.012-.486.018t-.462.018V9.6h2.52v.528a1.511,1.511,0,0,0-.594.168,1.129,1.129,0,0,0-.414.462,7.041,7.041,0,0,0-.408.978q-.528,1.62-1.038,3.2t-1.05,3.168h-.6L53.67,13.2q-.132-.36-.234-.714l-.2-.69q-.084.336-.18.666t-.2.666l-1.6,4.98Zm16.776-5.832a2.652,2.652,0,0,0-.744-1.662,2.263,2.263,0,0,0-1.6-.594,2.449,2.449,0,0,0-1.152.276,2.758,2.758,0,0,0-.912.774,3.7,3.7,0,0,0-.594,1.176,4.989,4.989,0,0,0-.21,1.482,4.643,4.643,0,0,0,.384,1.938,3.116,3.116,0,0,0,1.062,1.314,2.65,2.65,0,0,0,1.542.468,3.43,3.43,0,0,0,1.518-.366,3.323,3.323,0,0,0,1.242-1.038l.4.336a4.429,4.429,0,0,1-1.152,1.14,3.8,3.8,0,0,1-1.218.534,4.988,4.988,0,0,1-1.1.138,4.16,4.16,0,0,1-1.656-.324,3.834,3.834,0,0,1-1.3-.906,4.073,4.073,0,0,1-.84-1.356,4.676,4.676,0,0,1-.294-1.674,5.237,5.237,0,0,1,.264-1.644,4.7,4.7,0,0,1,.78-1.458,3.7,3.7,0,0,1,1.3-1.038A4.122,4.122,0,0,1,65,9.408a4.284,4.284,0,0,1,1.194.168,4.233,4.233,0,0,1,1.122.516l-.06-.6H68v2.784ZM69.714,18v-.54a.747.747,0,0,0,.552-.192,1.533,1.533,0,0,0,.324-.522q.132-.33.288-.738L73.3,9.372h.48L76.41,16.1q.1.228.216.618a2.026,2.026,0,0,1,.108.666q.2-.024.4-.03t.378-.018V18H74.6v-.528a.721.721,0,0,0,.558-.186.553.553,0,0,0,.108-.426,2.115,2.115,0,0,0-.126-.5l-.36-.972-2.94.072L71.49,16.5q-.072.24-.156.456t-.168.42q.216-.024.462-.03t.438-.018V18Zm2.34-3.192h2.52l-.756-2.028q-.144-.4-.276-.786t-.24-.75H73.29q-.1.3-.216.66t-.276.78ZM84.03,12.192a3.052,3.052,0,0,0-.312-1.1,2.038,2.038,0,0,0-.7-.786,1.893,1.893,0,0,0-1.1-.282,1.5,1.5,0,0,0-1.068.372,1.256,1.256,0,0,0-.132,1.686,2.5,2.5,0,0,0,.714.57q.45.252,1.014.5.456.192.924.432a5.086,5.086,0,0,1,.852.546,2.339,2.339,0,0,1,.612.732,2.093,2.093,0,0,1,.228,1,2.131,2.131,0,0,1-.348,1.2,2.334,2.334,0,0,1-.99.828,3.65,3.65,0,0,1-1.554.3,4.115,4.115,0,0,1-1.086-.156,3.966,3.966,0,0,1-1.038-.444l.06.5h-.732l-.048-2.64H79.9a2.194,2.194,0,0,0,.75,1.578,2.4,2.4,0,0,0,1.566.534,1.989,1.989,0,0,0,.828-.168,1.4,1.4,0,0,0,.588-.48,1.254,1.254,0,0,0,.216-.732,1.213,1.213,0,0,0-.294-.828,2.6,2.6,0,0,0-.744-.576q-.45-.24-.942-.456t-.954-.456a4.57,4.57,0,0,1-.834-.552,2.33,2.33,0,0,1-.588-.738,2.189,2.189,0,0,1-.216-1,2.307,2.307,0,0,1,.12-.708,2.029,2.029,0,0,1,1.194-1.254,3.244,3.244,0,0,1,1.254-.21,4.594,4.594,0,0,1,1.026.132,2.873,2.873,0,0,1,1.038.468l-.048-.5h.72v2.688Zm7.512,2.772a1.4,1.4,0,0,0-.15-.744.649.649,0,0,0-.45-.282,3.292,3.292,0,0,0-.744-.03l-.7.024v2.5q0,.324-.006.57a3.26,3.26,0,0,1-.03.4l2.064-.024a2.23,2.23,0,0,0,.84-.174,1.219,1.219,0,0,0,.588-.558,2.268,2.268,0,0,0,.216-1.08H93.7L93.63,18H87.39v-.528a.993.993,0,0,0,.57-.168.682.682,0,0,0,.222-.432,4.588,4.588,0,0,0,.048-.732V11.148q0-.264.012-.51t.024-.426l-.444.024-.432.024V9.6h5.856l.06,2.172h-.528a2.006,2.006,0,0,0-.222-1.044,1.078,1.078,0,0,0-.576-.48,2.158,2.158,0,0,0-.762-.108l-.84.024a1.033,1.033,0,0,0-.564.126.614.614,0,0,0-.252.408,3.825,3.825,0,0,0-.06.762v1.884h1.98l-.072-1.032h.66v2.652Z" transform="translate(1135 1457)" fill="#fff"/></g></svg>