<svg xmlns="http://www.w3.org/2000/svg" width="114.919" height="134.192" viewBox="0 0 114.919 134.192"><g transform="translate(-477 -1028)"><g transform="translate(1115.417 996.977)"><path d="M-609.391,104.208a8.928,8.928,0,0,1-5.715-9.059,8.927,8.927,0,0,1,7.011-8.1l.135.738a8.041,8.041,0,0,0-6.4,7.416,8.156,8.156,0,0,0,5.212,8.292Z" fill="#fff"/><path d="M-620.775,120.242l-.261-.088c-.189-.063-18.813-6.581-17.292-26.757h0c1.524-20.178,20.918-23.824,21.114-23.858l.271-.048,13.372,25.814,3.837-5.278-.943,12.5-3-5.794Zm-16.8-26.79h0c-1.382,18.3,14.314,25.042,16.527,25.9l16.989-23.366-13.288-25.65C-619.668,70.846-636.2,75.151-637.58,93.452Zm34.394,2.6,1.96,3.782.546-7.228Z" fill="#fff"/><rect width="20.95" height="0.751" transform="matrix(0.765, -0.644, 0.644, 0.765, -627.793, 115.877)" fill="#fff"/><rect width="22.186" height="0.75" transform="matrix(0.89, -0.456, 0.456, 0.89, -633.088, 110.684)" fill="#fff"/><rect width="22.83" height="0.751" transform="translate(-636.467 104.636) rotate(-15.935)" fill="#fff"/><rect width="23.164" height="0.75" transform="translate(-638.015 96.861) rotate(-2.013)" fill="#fff"/><rect width="0.75" height="20.95" transform="translate(-624.553 72.96) rotate(-41.276)" fill="#fff"/><rect width="0.75" height="22.186" transform="translate(-630.567 77.298) rotate(-54.261)" fill="#fff"/><rect width="0.75" height="22.83" transform="matrix(0.416, -0.91, 0.91, 0.416, -634.817, 82.774)" fill="#fff"/><rect width="0.75" height="23.164" transform="translate(-637.515 90.229) rotate(-79.365)" fill="#fff"/><path d="M-548.573,64.947l-.713-.232a8.044,8.044,0,0,0-3.486-9.154,8.155,8.155,0,0,0-9.772.647l-.509-.552a8.926,8.926,0,0,1,10.687-.725A8.926,8.926,0,0,1-548.573,64.947Z" fill="#fff"/><path d="M-555.163,70.891l-10.546-6.766,6.524.111-12.568-26.215.2-.188c.146-.135,14.728-13.43,31.761-2.5s11.025,29.723,10.962,29.912l-.087.261-29.068-.5Zm-7.919-5.972,6.1,3.914-1.841-3.841Zm4.736-.669,28.884.5c.649-2.282,4.714-18.872-10.735-28.785s-28.834.7-30.638,2.241Z" fill="#fff"/><rect width="0.75" height="20.95" transform="translate(-565.312 34.071) rotate(-11.724)" fill="#fff"/><rect width="22.186" height="0.75" transform="translate(-558.734 53.891) rotate(-88.732)" fill="#fff"/><rect width="22.83" height="0.75" transform="matrix(0.216, -0.976, 0.976, 0.216, -556.222, 53.758)" fill="#fff"/><rect width="23.164" height="0.75" transform="translate(-553.945 54.382) rotate(-63.635)" fill="#fff"/><rect width="20.95" height="0.75" transform="matrix(0.975, -0.224, 0.224, 0.975, -548.772, 61.844)" fill="#fff"/><rect width="22.186" height="0.75" transform="translate(-549.274 59.492) rotate(-25.864)" fill="#fff"/><rect width="22.83" height="0.75" transform="matrix(0.798, -0.603, 0.603, 0.798, -550.328, 57.228)" fill="#fff"/><rect width="23.164" height="0.75" transform="matrix(0.629, -0.777, 0.777, 0.629, -551.964, 55.556)" fill="#fff"/><g transform="matrix(0.996, -0.087, 0.087, 0.996, -13.178, -53.035)"><path d="M-556.565,128.509a9.4,9.4,0,0,1-2.811-.408l.251-.707a8.046,8.046,0,0,0,9.245-3.237,8.157,8.157,0,0,0-.382-9.786l.565-.493a8.928,8.928,0,0,1,.436,10.7A8.511,8.511,0,0,1-556.565,128.509Z" fill="#fff"/><path d="M-551.458,149.133a28.713,28.713,0,0,1-8.749-1.3l-.259-.094,1.285-29.044-5.958,2.661,7.049-10.36-.288,6.519,26.546-11.853.183.206c.131.149,13.025,15.087,1.641,31.817A24.958,24.958,0,0,1-551.458,149.133Zm-8.234-1.923c2.263.709,18.738,5.224,29.065-9.952s.081-28.841-1.41-30.686l-26.379,11.778Zm.736-33.612-4.078,5.993,3.89-1.737Z" fill="#fff"/><rect width="20.949" height="0.75" transform="translate(-548.678 115.909) rotate(-10.198)" fill="#fff"/><rect width="0.75" height="22.186" transform="translate(-548.086 118.993) rotate(-87.186)" fill="#fff"/><rect width="0.75" height="22.83" transform="matrix(0.242, -0.97, 0.97, 0.242, -548.168, 121.491)" fill="#fff"/><rect width="0.751" height="23.164" transform="translate(-549.021 123.679) rotate(-62.081)" fill="#fff"/><rect width="0.75" height="20.95" transform="translate(-557.001 128.132) rotate(-11.358)" fill="#fff"/><rect width="0.75" height="22.186" transform="translate(-554.593 127.86) rotate(-24.343)" fill="#fff"/><rect width="0.75" height="22.83" transform="translate(-552.226 126.993) rotate(-35.528)" fill="#fff"/><rect width="0.75" height="23.164" transform="translate(-550.381 125.532) rotate(-49.449)" fill="#fff"/></g><path d="M-584.205,55.38a22.661,22.661,0,0,1-5.6,5.236,24.585,24.585,0,0,1-3.584,2.184c-.112,0-.14-.056-.14-.14,0-.224.588-.672.728-.812.7-.644,1.372-1.288,2.044-1.96a28.472,28.472,0,0,0,3.22-3.864,33.038,33.038,0,0,0,2.8-4.536,13.688,13.688,0,0,0,1.091-2.464c.057-.2.084-1.036.309-1.036.476,0,3.248,1.148,3.248,1.54,0,.364-.28.5-.588.616a25.154,25.154,0,0,0,5.179,6.58,25.671,25.671,0,0,0,2.94,2.548l1.456,1.008c.057.056.336.224.336.308,0,.252-.588.252-.783.28a4.436,4.436,0,0,0-2.52,1.008c-2.912-2.772-4.424-4.228-6.1-7.98a10.3,10.3,0,0,1-.672-1.848l-.308-1.344C-582.132,52.272-583.112,53.868-584.205,55.38Zm5.825,9.212c.111-.14.728-1.12.923-1.12a6.562,6.562,0,0,1,2.493,1.484c0,.252-.449.616-.644.784v5.544c0,.812.111,1.68.14,2.492-.868.308-1.764.56-2.66.784l.056-1.232h-8.12v.56a12.116,12.116,0,0,1-2.409.588c.029-.924.141-1.9.141-2.828V66.16a10.4,10.4,0,0,0-.112-1.876,2.859,2.859,0,0,1-.308-.812c0-.14.027-.224.2-.224a13.41,13.41,0,0,1,3.164,1.344Zm-.533-6.272c.337,0,1.429,1.148,1.513,1.232.14.14.42.42.42.588a.277.277,0,0,1-.28.252H-586l-.42.42-1.147-1.568c.476.028,1.036.14,1.54.14h5.656C-580.116,59.244-579.276,58.32-578.913,58.32Zm.841,14V65.572H-585.8l-.392.392V72.32Z" fill="#fff"/><path d="M-591.092,92.088l-.5.364-1.12-1.512c.531.056,1.148.168,1.68.168h3.584v-5.1c-1.6.28-3.193.42-4.788.56-.084,0-.168-.028-.168-.112,0-.28.98-.476,1.2-.56a27.912,27.912,0,0,0,3.388-1.428,17.971,17.971,0,0,0,3.948-2.3c.532-.056,2.38,2.6,2.38,2.744,0,.2-.5.2-.644.2a5.58,5.58,0,0,0-.952.14c-.812.168-1.624.308-2.464.5.252.084,1.036.364,1.036.7s-.364.56-.644.672v3.976h.812c.168-.168,1.092-1.2,1.4-1.2a4.887,4.887,0,0,1,1.792,1.9c0,.224-.308.28-.476.28h-3.528V93.4a8.342,8.342,0,0,1,3.024,2.716,2.949,2.949,0,0,1,.447,1.428A1.375,1.375,0,0,1-583,98.976c-1.008,0-1.121-.924-1.205-1.708-.055-.476-.139-.952-.2-1.428a4.541,4.541,0,0,0-.756-1.988V104.94c0,.9.084,1.82.139,2.716a13.974,13.974,0,0,1-2.6.588c.056-1.092.168-2.24.168-3.36V96.82a38.182,38.182,0,0,1-4.7,6.468c-.14.112-.7.812-.868.812-.084,0-.141-.112-.141-.168a7.317,7.317,0,0,1,.673-1.316A45.852,45.852,0,0,0-588.4,92.088Zm10.219,10.892V89.428a14.791,14.791,0,0,0-.111-2.52,3.5,3.5,0,0,1-.252-.616c0-.112.14-.14.252-.14a11.523,11.523,0,0,1,2.688,1.232h3c.112-.168.615-.952.924-.952a1.827,1.827,0,0,1,.644.252l1.2.784c.168.112.5.364.5.588,0,.392-.449.56-.728.728v14.392c0,.756.111,1.54.14,2.3a11.239,11.239,0,0,1-2.52.7l.084-2.3h-3.668v1.736a8.161,8.161,0,0,1-2.3.588C-580.984,105.136-580.873,104.044-580.873,102.98Zm5.825-.084V88.364h-3.08l-.588.392V102.9Z" fill="#fff"/><path d="M-583.616,118.24a8.482,8.482,0,0,0-.168-1.652c-.056-.28-.308-.532-.308-.812,0-.168.056-.195.224-.195.252,0,3.7.7,3.7,1.259,0,.224-.869.785-1.036.9v5.516h.924c.784-1.315,2.6-4.592,2.743-6.16a.213.213,0,0,1,.141-.028,22.024,22.024,0,0,1,2.967,1.316c.113.057.281.168.281.336,0,.308-.812.5-1.009.56-1.316,1.344-2.659,2.688-4,3.976h4.228c.141-.168.645-1.008.953-1.008.644,0,2.436,1.485,2.715,1.9a.847.847,0,0,1,.141.448c0,.728-1.289.672-1.765.728a3.741,3.741,0,0,0-1.847.7,2.059,2.059,0,0,1-.728.476c-.056,0-.056-.056-.056-.112,0-.084.56-1.9.644-2.128h-15.092a4.333,4.333,0,0,1,.028.616,2.1,2.1,0,0,1-1.876,2.212c-.924,0-1.176-.532-1.176-1.4,0-1.063,1.288-1.428,1.652-2.38a7.017,7.017,0,0,0,.308-1.371c0-.057.028-.2.112-.2a.3.3,0,0,1,.14.056,14.174,14.174,0,0,1,.644,1.456h6.524Zm0,18.06h-5.069l-.447.448-.868-1.54c.5.028,1.036.112,1.54.112h4.844v-1.4a10.376,10.376,0,0,0-.224-2.044h-2.268v.728a23.113,23.113,0,0,1-2.409.532c.057-.84.169-1.708.169-2.52v-2.688a11.585,11.585,0,0,0-.169-1.9,3.175,3.175,0,0,1-.223-.588c0-.14.168-.2.28-.2a23.319,23.319,0,0,1,3.08,1.2h6.047c.168-.224.617-1.036.98-1.036a2.565,2.565,0,0,1,.9.392c.084.056,1.708.9,1.708,1.2,0,.252-.728.7-.867.812v2.576c0,.728.055,1.484.084,2.212a13.933,13.933,0,0,1-2.6.56l.112-1.288h-3.641c.309.112,2.381.7,2.381,1.008,0,.2-.784.7-.9.784v1.652h2.995c.084-.112.925-1.26,1.177-1.26.2,0,.447.252.588.364l1.091,1.036a.867.867,0,0,1,.308.532c0,.224-.14.308-.335.308l-5.824.028v3.556h5.039c.113-.14,1.177-1.484,1.456-1.484.225,0,.617.364.757.5.2.168,1.539,1.2,1.539,1.652,0,.308-.336.336-.531.336h-17.92l-.449.42-.867-1.54c.5.028,1.064.112,1.568.112h6.972Zm-6.133-18.956a11.066,11.066,0,0,1,1.96.728,3.463,3.463,0,0,1,1.961,1.652,3.985,3.985,0,0,1,.364,1.4,1.452,1.452,0,0,1-1.456,1.483c-1.288,0-1.344-1.176-1.456-2.184a4.183,4.183,0,0,0-1.205-2.52c-.055-.056-.363-.336-.363-.42C-589.944,117.373-589.8,117.344-589.749,117.344Zm10.725,13.552v-3.472h-6.72l-.364.448V130.9Z" fill="#fff"/></g><path d="M.636,0V-.528A.993.993,0,0,0,1.206-.7a.682.682,0,0,0,.222-.432,4.588,4.588,0,0,0,.048-.732V-6.852q0-.264.012-.51t.024-.426l-.444.024L.636-7.74V-8.4H3.588v.528a.919.919,0,0,0-.564.162.689.689,0,0,0-.228.432,4.566,4.566,0,0,0-.048.738v1.956H6.72V-6.852q0-.264.012-.51t.024-.426l-.444.024L5.88-7.74V-8.4H8.832v.528a.919.919,0,0,0-.564.162.689.689,0,0,0-.228.432,4.566,4.566,0,0,0-.048.738v4.932q0,.324-.006.582a3.355,3.355,0,0,1-.03.414q.2-.024.444-.03T8.832-.66V0H5.88V-.528A.993.993,0,0,0,6.45-.7a.682.682,0,0,0,.222-.432A4.588,4.588,0,0,0,6.72-1.86v-2.1l-3.972.036v2.316q0,.324-.006.582a3.355,3.355,0,0,1-.03.414q.2-.024.45-.03T3.588-.66V0ZM15.3.192a4.521,4.521,0,0,1-1.95-.384,3.6,3.6,0,0,1-1.314-1.026,4.36,4.36,0,0,1-.744-1.422,5.28,5.28,0,0,1-.24-1.56,4.817,4.817,0,0,1,.258-1.53,4.54,4.54,0,0,1,.78-1.422A3.917,3.917,0,0,1,13.4-8.2a4.045,4.045,0,0,1,1.842-.4,4.237,4.237,0,0,1,1.9.4,3.792,3.792,0,0,1,1.314,1.05,4.7,4.7,0,0,1,.774,1.422A4.763,4.763,0,0,1,19.488-4.2a4.783,4.783,0,0,1-.258,1.518,4.613,4.613,0,0,1-.78,1.428,3.9,3.9,0,0,1-1.3,1.05A4.036,4.036,0,0,1,15.3.192Zm.06-.624a2.265,2.265,0,0,0,1.206-.312,2.574,2.574,0,0,0,.84-.834,3.889,3.889,0,0,0,.486-1.152,5.2,5.2,0,0,0,.156-1.254,6.04,6.04,0,0,0-.18-1.482,4.3,4.3,0,0,0-.546-1.284,2.82,2.82,0,0,0-.906-.9,2.345,2.345,0,0,0-1.248-.33,2.231,2.231,0,0,0-1.212.324,2.612,2.612,0,0,0-.84.846,4.11,4.11,0,0,0-.486,1.152,5.065,5.065,0,0,0-.162,1.266,5.632,5.632,0,0,0,.168,1.32,4.824,4.824,0,0,0,.516,1.3,2.943,2.943,0,0,0,.894.972A2.277,2.277,0,0,0,15.36-.432Zm6.336-.1a.993.993,0,0,0,.57-.168.682.682,0,0,0,.222-.432,4.588,4.588,0,0,0,.048-.732V-6.852q0-.264.012-.51t.024-.426l-.444.024L21.7-7.74V-8.4q.708-.012,1.44-.018t1.488-.006a5.932,5.932,0,0,1,1.914.27,2.53,2.53,0,0,1,1.212.816,2.221,2.221,0,0,1,.438,1.374A2.633,2.633,0,0,1,28.02-5a2.486,2.486,0,0,1-.612.924,3.151,3.151,0,0,1-1.17.69,5.568,5.568,0,0,1-1.854.264q-.12.012-.27.012t-.306-.012v1.512q0,.324-.006.582a3.355,3.355,0,0,1-.03.414l.36-.024q.192-.012.378-.018t.342-.018V0H21.7Zm2.112-3.228q.2.024.354.03t.354.006A2.675,2.675,0,0,0,25.7-3.972a1.875,1.875,0,0,0,.8-.732,2.174,2.174,0,0,0,.288-1.14,2.371,2.371,0,0,0-.174-.966,1.482,1.482,0,0,0-.48-.612,1.973,1.973,0,0,0-.7-.318,3.556,3.556,0,0,0-.84-.1.8.8,0,0,0-.528.144.686.686,0,0,0-.216.42,4.266,4.266,0,0,0-.048.708ZM34.656,0V-.528a.993.993,0,0,0,.57-.168.682.682,0,0,0,.222-.432A4.588,4.588,0,0,0,35.5-1.86V-6.852q0-.264.012-.51t.024-.426l-.444.024-.432.024V-8.4h2.952v.528a.919.919,0,0,0-.564.162.689.689,0,0,0-.228.432,4.566,4.566,0,0,0-.048.738v1.956H40.74V-6.852q0-.264.012-.51t.024-.426l-.444.024L39.9-7.74V-8.4h2.952v.528a.919.919,0,0,0-.564.162.689.689,0,0,0-.228.432,4.566,4.566,0,0,0-.048.738v4.932q0,.324-.006.582a3.356,3.356,0,0,1-.03.414q.2-.024.444-.03t.432-.018V0H39.9V-.528A.993.993,0,0,0,40.47-.7a.682.682,0,0,0,.222-.432,4.588,4.588,0,0,0,.048-.732v-2.1l-3.972.036v2.316q0,.324-.006.582a3.356,3.356,0,0,1-.03.414q.2-.024.45-.03t.426-.018V0ZM49.32.192a4.521,4.521,0,0,1-1.95-.384,3.6,3.6,0,0,1-1.314-1.026,4.36,4.36,0,0,1-.744-1.422,5.28,5.28,0,0,1-.24-1.56,4.817,4.817,0,0,1,.258-1.53,4.54,4.54,0,0,1,.78-1.422A3.917,3.917,0,0,1,47.418-8.2a4.045,4.045,0,0,1,1.842-.4,4.237,4.237,0,0,1,1.9.4,3.792,3.792,0,0,1,1.314,1.05,4.7,4.7,0,0,1,.774,1.422A4.763,4.763,0,0,1,53.508-4.2a4.783,4.783,0,0,1-.258,1.518,4.613,4.613,0,0,1-.78,1.428,3.9,3.9,0,0,1-1.3,1.05A4.036,4.036,0,0,1,49.32.192Zm.06-.624a2.265,2.265,0,0,0,1.206-.312,2.574,2.574,0,0,0,.84-.834,3.889,3.889,0,0,0,.486-1.152,5.2,5.2,0,0,0,.156-1.254,6.04,6.04,0,0,0-.18-1.482,4.3,4.3,0,0,0-.546-1.284,2.82,2.82,0,0,0-.906-.9,2.345,2.345,0,0,0-1.248-.33,2.231,2.231,0,0,0-1.212.324,2.612,2.612,0,0,0-.84.846,4.11,4.11,0,0,0-.486,1.152,5.065,5.065,0,0,0-.162,1.266,5.631,5.631,0,0,0,.168,1.32,4.824,4.824,0,0,0,.516,1.3,2.943,2.943,0,0,0,.894.972A2.277,2.277,0,0,0,49.38-.432ZM66.456-5.808a4.081,4.081,0,0,0-.156-1.14,1.257,1.257,0,0,0-.474-.684,1.516,1.516,0,0,0-.906-.216h-.864l-.012,6.24q0,.324-.006.582a3.356,3.356,0,0,1-.03.414q.228-.024.5-.03t.486-.018V0H61.944V-.528A.962.962,0,0,0,62.508-.7a.7.7,0,0,0,.216-.438,4.611,4.611,0,0,0,.048-.726V-7.836l-1.008.012a1.2,1.2,0,0,0-1.068.492,2.74,2.74,0,0,0-.336,1.524H59.8L59.868-8.4h7.08l.072,2.592Zm6.768,6a4.521,4.521,0,0,1-1.95-.384A3.6,3.6,0,0,1,69.96-1.218a4.36,4.36,0,0,1-.744-1.422,5.28,5.28,0,0,1-.24-1.56,4.817,4.817,0,0,1,.258-1.53,4.54,4.54,0,0,1,.78-1.422A3.917,3.917,0,0,1,71.322-8.2a4.045,4.045,0,0,1,1.842-.4,4.237,4.237,0,0,1,1.9.4,3.792,3.792,0,0,1,1.314,1.05,4.7,4.7,0,0,1,.774,1.422A4.763,4.763,0,0,1,77.412-4.2a4.783,4.783,0,0,1-.258,1.518,4.613,4.613,0,0,1-.78,1.428,3.9,3.9,0,0,1-1.3,1.05A4.036,4.036,0,0,1,73.224.192Zm.06-.624A2.265,2.265,0,0,0,74.49-.744a2.574,2.574,0,0,0,.84-.834,3.888,3.888,0,0,0,.486-1.152,5.2,5.2,0,0,0,.156-1.254,6.039,6.039,0,0,0-.18-1.482,4.3,4.3,0,0,0-.546-1.284,2.82,2.82,0,0,0-.906-.9,2.345,2.345,0,0,0-1.248-.33,2.231,2.231,0,0,0-1.212.324,2.612,2.612,0,0,0-.84.846,4.11,4.11,0,0,0-.486,1.152,5.065,5.065,0,0,0-.162,1.266,5.632,5.632,0,0,0,.168,1.32,4.824,4.824,0,0,0,.516,1.3A2.943,2.943,0,0,0,71.97-.8,2.277,2.277,0,0,0,73.284-.432Zm12.84.6L81.66-5.76q-.132-.156-.252-.324t-.252-.348h-.012l.036,4.668q0,.3-.006.6t-.03.552q.2-.024.45-.03T82.02-.66V0H79.644V-.528a.834.834,0,0,0,.51-.132.671.671,0,0,0,.24-.348,1.73,1.73,0,0,0,.066-.5V-7.368q0-.24.012-.42l-.426.024q-.234.012-.414.024V-8.4h1.584L85.44-2.844q.2.264.366.492t.318.432h.012l.012-4.932q0-.264.012-.51t.024-.426l-.456.024q-.24.012-.42.024V-8.4h2.376v.528a.891.891,0,0,0-.558.162.678.678,0,0,0-.216.432,5.208,5.208,0,0,0-.042.738L86.856.168Zm7.764.024A4.254,4.254,0,0,1,91.74-.336a3.616,3.616,0,0,1-1.428-1.482,4.7,4.7,0,0,1-.5-2.226,5.349,5.349,0,0,1,.258-1.644,4.613,4.613,0,0,1,.78-1.464A3.79,3.79,0,0,1,92.154-8.2a4.068,4.068,0,0,1,1.83-.39,5.039,5.039,0,0,1,.828.072,5.145,5.145,0,0,1,.846.216,3.925,3.925,0,0,1,.75.348l-.048-.552H97.1v2.76h-.552a2.475,2.475,0,0,0-.4-1.218,2.218,2.218,0,0,0-.876-.756,2.681,2.681,0,0,0-1.182-.258,2.4,2.4,0,0,0-1.158.282,2.848,2.848,0,0,0-.906.78,3.706,3.706,0,0,0-.594,1.17,4.8,4.8,0,0,0-.21,1.44,4.96,4.96,0,0,0,.366,1.962A3.169,3.169,0,0,0,92.628-1,2.589,2.589,0,0,0,94.2-.5a4.062,4.062,0,0,0,.63-.054,4.264,4.264,0,0,0,.684-.168,2.672,2.672,0,0,0,.618-.294V-2.364q0-.3.006-.594t.006-.546l-.432.024q-.24.012-.42.024v-.66H98.16v.528a.745.745,0,0,0-.462.132.755.755,0,0,0-.252.33,1.613,1.613,0,0,0-.1.42,3.867,3.867,0,0,0-.024.414V-.42h-.312a2.646,2.646,0,0,0-.588.078,6.283,6.283,0,0,0-.756.234,5.281,5.281,0,0,1-.852.216A5.361,5.361,0,0,1,93.888.192Z" transform="translate(485 1162)" fill="#fff"/></g></svg>