<svg xmlns="http://www.w3.org/2000/svg" width="228.943" height="268.529" viewBox="0 0 228.943 268.529"><g transform="translate(0)"><g transform="translate(0 0)"><g transform="translate(0 0)"><g transform="translate(92.075 54.366)"><path d="M-373.623,474.9a5.188,5.188,0,0,0-2.109,3.238,35.718,35.718,0,0,1-10.233-3.393,20.816,20.816,0,0,1-5.143-3.549L-392.6,469.6c-2.469,1.749-5.04,3.341-7.612,4.936.718.053,1.543.154,2.313.154h7.254a7.954,7.954,0,0,1,1.284-1.08c.362,0,2.417,1.648,2.417,2.213,0,.41-.358.514-.667.514h-2.88l-.566.669v2.109h6.275c.257-.208,1.541-1.646,1.85-1.646.568,0,2.316,1.8,2.779,2.21a.956.956,0,0,1,.358.619.723.723,0,0,1-.72.617h-10.542v5.76h3.549a24.919,24.919,0,0,0,2.16-5.094c.05,0,.154-.05.2-.05.566,0,4.065,1.953,4.065,2.623,0,.463-1.131.617-1.44.669l-2.213,1.852h4.937l1.7-2.057a.991.991,0,0,1,.718-.463,1.212,1.212,0,0,1,.771.463l2.162,2.313a1.08,1.08,0,0,1,.411.825c0,.514-.362.771-.874.771h-34.562l-.72.564-1.852-2.724c1.08.1,2.314.36,3.446.36,2.572,0,5.143,0,7.713-.051-1.183-.823-1.387-2.419-2.415-3.446-.154-.259-1.442-1.389-1.442-1.493,0-.154.411-.154.465-.154,1.335,0,4.217.362,5.092,1.545a3.654,3.654,0,0,1,.872,2.055c0,.825-.358,1.03-.926,1.493h4.013v-5.76h-8.229l-.771.513-1.75-2.52c1.08.053,2.263.208,3.345.208h7.406v-2.777h-3.137l-.722.617-1.593-2.265a44.479,44.479,0,0,1-10.494,3.653,14.107,14.107,0,0,1-2,.41c-.154,0-.36-.1-.36-.255a.558.558,0,0,1,.41-.566l1.7-.722a38.592,38.592,0,0,0,8.741-5.04,32.685,32.685,0,0,0,4.888-4.372c.463-.512.926-1.078,1.389-1.594a.786.786,0,0,1,.36-.049c.514,0,5.5,1.852,5.5,2.415,0,.362-.463.516-.771.617,2.983,2.008,5.659,2.625,9.105,3.446a37.559,37.559,0,0,0,9.616.876c.259,0,.411.051.411.36C-372.183,474.124-373.416,474.741-373.623,474.9ZM-400.211,460.8c-1.492,0-1.545-1.03-1.749-2.16a69.871,69.871,0,0,0-7.1,2.829l-1.749-3.343c2.829-1.337,4.267-3.96,5.913-6.532-1.387.617-2.775,1.08-4.113,1.747l-1.75-2.93a5.326,5.326,0,0,0,1.6-1.234,17.094,17.094,0,0,0,2.776-5.865,4.717,4.717,0,0,0,.259-1.438l.206-.1c.255.1.564.154.873.309.67.208,2.829,1.6,2.829,2.316,0,.513-.874.667-1.233.72-1.6,1.8-3.189,3.6-4.733,5.4l4.065-.206a9.139,9.139,0,0,0,1.389-3.034c.05-.051.154-.051.257-.051.564,0,3.189,2.469,3.189,3.086,0,.566-1.133.566-1.492.617-2.057,2.261-4.116,4.526-6.12,6.789l4.886-.206a9.552,9.552,0,0,0-.617-2.16,1.14,1.14,0,0,1-.257-.568c0-.1,0-.309.154-.309a1.63,1.63,0,0,1,.771.413c1.286.874,3.137,2.314,3.137,4.063C-398.823,459.773-399.236,460.8-400.211,460.8Zm-9.258,7.972a1.235,1.235,0,0,1-1.337-1.389c0-1.234,1.029-2.111,1.438-3.191.156-.513.156-2.313.619-2.313.206,0,.309.36.36.514a10.205,10.205,0,0,1,.823,3.7C-407.566,467.284-407.977,468.775-409.469,468.775Zm4.73-1.029c-.926,0-1.234-.669-1.234-1.545,0-.564,0-1.13.053-1.7a16.94,16.94,0,0,0-.619-2.467.244.244,0,0,1,.259-.257c.257,0,.823.463,1.029.617a4.56,4.56,0,0,1,2.057,3.24C-403.194,466.615-403.606,467.747-404.739,467.747Zm4.166-.977c-1.593,0-1.387-1.852-1.541-2.983a10.04,10.04,0,0,0-.259-1.339c-.1-.41-.566-.975-.566-1.234a.242.242,0,0,1,.257-.255,3.37,3.37,0,0,1,1.185.669c1.078.771,2.366,2.006,2.366,3.446A1.568,1.568,0,0,1-400.573,466.769Zm13.22-17.127h-9.978l-.67.617-1.747-2.417c1.08.1,2.263.257,3.343.257h5.861c.259-.257,1.133-1.389,1.6-1.389a.679.679,0,0,1,.513.309l1.337,1.335a1.012,1.012,0,0,1,.309.722A.514.514,0,0,1-387.354,449.643Zm-1.236,3.806h-8.021l-.617.617-1.8-2.419c1.08.1,2.263.259,3.343.259h4.475c.1-.1,1.029-1.08,1.337-1.08.358,0,1.593,1.389,1.747,1.543a.707.707,0,0,1,.257.513A.646.646,0,0,1-388.59,453.449Zm.154,3.7h-7.61l-.669.615-1.75-2.415c1.082.1,2.263.257,3.345.257h4.113c.208-.208.876-1.029,1.288-1.029.463,0,1.541,1.234,1.8,1.492a.921.921,0,0,1,.2.463C-387.715,456.946-388.024,457.152-388.435,457.152Zm0,4.166v2.674c0,.617.1,1.284.154,1.9a16.546,16.546,0,0,1-3.084.722l.1-1.339h-3.6v.362a11.779,11.779,0,0,1-3.034.514,20.473,20.473,0,0,0,.208-2.469V460.75c0-.823-.514-1.749-.514-2.261,0-.154.05-.206.2-.206a20.274,20.274,0,0,1,3.653,1.181h2.829c.309-.255.926-.975,1.389-.975a8.169,8.169,0,0,1,2.261,1.389.631.631,0,0,1,.362.566C-387.508,460.75-388.228,461.163-388.435,461.318Zm-4.68-13.578a1.963,1.963,0,0,1-.975-.257,2.195,2.195,0,0,1-.72-.977,6.75,6.75,0,0,0-1.337-3.446c-.208-.257-.566-.566-.566-.874,0-.154.154-.154.257-.154a5.927,5.927,0,0,1,1.593.358c1.491.413,3.5,1.442,3.5,3.242C-391.365,446.761-391.828,447.74-393.116,447.74Zm1.9,13.319H-394.5l-.362.362v2.366l3.653-.051Zm4.937,7.355c-.825,0-1.543-.41-1.543-1.335,0-1.44,1.7-2.469,2.055-4.217,0-.259.053-.926.413-.926.615,0,.977,3.292.977,3.857C-384.371,466.924-384.936,468.413-386.273,468.413Zm9.822-7.61c-1.438,0-1.49-1.03-1.7-2.16a66.559,66.559,0,0,0-7.149,2.829l-1.7-3.343c2.777-1.337,4.269-4.012,5.861-6.532-1.491.617-2.983,1.13-4.474,1.747l-1.337-2.93a4.822,4.822,0,0,0,1.442-1.08,16.479,16.479,0,0,0,2.467-5.452,4.36,4.36,0,0,0,.257-1.389l.208-.1a5.358,5.358,0,0,1,1.438.516c.053.051,1.9,1.337,2.059,1.44a.736.736,0,0,1,.257.564c0,.617-.825.722-1.288.825-1.337,1.594-2.621,3.189-3.907,4.783l3.65-.206a10.364,10.364,0,0,0,1.442-3.034c.05-.051.1-.051.2-.051.619,0,3.24,2.518,3.24,3.034s-1.183.669-1.541.669c-2.057,2.261-4.116,4.473-6.12,6.789l4.884-.206a11.082,11.082,0,0,0-.821-2.52.463.463,0,0,1-.051-.257c0-.1,0-.309.1-.309a2.042,2.042,0,0,1,.874.463c1.183.821,3.137,2.366,3.137,3.958C-375.012,459.672-375.423,460.8-376.452,460.8Zm-4.576,7.046c-.926,0-1.337-.617-1.337-1.493,0-.564.05-1.181.1-1.747a18.956,18.956,0,0,0-.617-2.471.273.273,0,0,1,.255-.255c.208,0,.825.514.979.617.926.669,2.109,1.749,2.109,2.983C-379.536,466.51-379.744,467.849-381.028,467.849Zm4.37-.362c-1.954,0-1.541-2.621-1.8-3.907a16.889,16.889,0,0,0-.77-2.006.288.288,0,0,1,.257-.309c.358,0,1.08.617,1.284.771,1.234.823,2.572,2.109,2.572,3.7A1.626,1.626,0,0,1-376.658,467.488Z" transform="translate(413.532 -441.772)" fill="#caa846"/><path d="M-408.358,482.9a7.987,7.987,0,0,0-.2-1.9c-.1-.463-.617-1.543-.617-1.852,0-.257.154-.31.358-.31a43.629,43.629,0,0,1,4.425,1.75,14.326,14.326,0,0,0,2.932-3.189c.154-.257.36-.771.669-.771.358,0,3.137,3.137,3.137,3.806,0,.257-.979.36-1.133.36a46.967,46.967,0,0,0-5.913,1.389l.154,6.12h1.13c.208-.208.979-1.183,1.337-1.183.463,0,2.059,2.16,2.059,2.572a.548.548,0,0,1-.514.36h-4.012l.154,6.737h1.337c.154-.206,1.08-1.7,1.492-1.7s1.954,2.366,1.954,2.932v.206a.66.66,0,0,1-.516.2h-4.164l.154,8.949h9.359v-5.038h-4.061l-1.03.617-1.7-2.52a33.493,33.493,0,0,0,6.787.309V497.4h-1.9v1.181l-2.775.773c.05-1.286.154-2.623.154-3.857v-7.717a9.5,9.5,0,0,0-.051-1.181c-.053-.411-.362-.874-.362-1.234,0-.154.154-.206.259-.206a11.636,11.636,0,0,1,2.674,1.286h2v-3.034h-2.983l-1.029.617-1.7-2.469a30.316,30.316,0,0,0,5.707.255v-3.446a5.108,5.108,0,0,0-.411-2.313,2.053,2.053,0,0,1-.255-.67c0-.154.154-.154.309-.154.771,0,4.526,1.339,4.526,2.008,0,.512-.926.771-1.337.874v3.7h2.261c.208-.2,1.234-1.593,1.545-1.593.255,0,2.263,2.212,2.263,2.777,0,.257-.362.411-.617.411h-5.452v3.034h1.286c.206-.206,1.029-1.234,1.438-1.234.516,0,2.008,1.337,2.316,1.543.2.154.463.411.463.669,0,.358-.72.72-.979.874v6.53c0,1.03.154,2.111.208,3.137a29.114,29.114,0,0,1-3.036.722l.154-1.286h-1.85v3.343h2.724c.154-.154,1.236-1.594,1.6-1.594.463,0,2.366,2.314,2.366,2.777,0,.309-.309.411-.566.411h-6.12v5.038h9l.413-8.536h-1.9l-.72.617-1.8-2.623a23,23,0,0,0,4.579.309l.307-6.635h-2.057l-.718.617-1.8-2.623a20.944,20.944,0,0,0,4.732.309l.309-6.842h-2.366l-.872.619-1.8-2.623a21.344,21.344,0,0,0,4.423.309c.1-.154,1.493-2.16,1.9-2.16.667,0,3.084,2.006,3.5,2.314a1.075,1.075,0,0,1,.568.77c0,.568-1.08,1.133-1.442,1.391l-1.387,24.788h.669c.206-.2,1.593-2.107,2.16-2.107.358,0,.821.514,1.078.771.208.257,2.162,2.107,2.162,2.726,0,.309-.411.411-.67.411h-36.566l-1.029.617-1.853-2.728a29.619,29.619,0,0,0,5.248.309Zm-2.109,40.475a2.757,2.757,0,0,1-1.078.413c-.154,0-.259-.051-.259-.206a.749.749,0,0,1,.362-.516,66.193,66.193,0,0,0,5.812-6.17,28.241,28.241,0,0,0,2.88-3.652,7.2,7.2,0,0,0,1.13-2.16c.053-.206.208-.823.465-.823.1,0,2.006.872,2.21.926.825.36,3.242,1.44,3.242,2.467,0,.516-1.442.516-1.75.516C-401.413,517.665-405.476,521.469-410.467,523.372Zm15.687-32.091v-3.24h-1.9v3.24Zm0,4.577v-2.983h-1.9v2.983Zm4.68-4.577v-3.24h-1.85v3.24Zm0,4.577v-2.983h-1.85v2.983Zm-.41,15.224a52.164,52.164,0,0,1,5.6,1.954c2.162.874,4.888,2.212,6.172,4.216a8.711,8.711,0,0,1,1.44,3.6c0,1.288-.615,2.52-2.057,2.52a2.887,2.887,0,0,1-2.313-1.335,41.9,41.9,0,0,1-2.212-3.6,23.686,23.686,0,0,0-5.968-6.223c-.2-.1-1.078-.72-1.078-.874C-390.767,511.131-390.664,511.081-390.51,511.081Z" transform="translate(413.859 -413.772)" fill="#caa846"/><path d="M-398.1,520.321c0-.1.053-.206.053-.309.872,0,5.5,1.543,5.5,2.314,0,.514-.975.72-1.337.771l-4.526,8.229h2.522c.257-.309,1.646-2.057,2.212-2.057.358,0,.771.411,1.029.617.36.36,2.263,1.9,2.263,2.674a.515.515,0,0,1-.566.566h-19.287l-.926.669-1.75-2.829c1.08.1,2.263.36,3.345.36h9.41C-399.234,527.779-398.1,524.022-398.1,520.321Zm3.4-4.475c.309,0,.771.411.975.617l1.956,1.9a1.353,1.353,0,0,1,.463.926c0,.411-.411.463-.773.463h-16.508l-.926.667-1.75-2.776c1.08.1,2.263.309,3.292.309h10.955C-396.87,517.8-395.225,515.846-394.709,515.846Zm-4.425,35.693h-5.347v2.107a26.927,26.927,0,0,1-4.528,1.39c.1-1.8.309-3.7.309-5.5v-9.517a12.008,12.008,0,0,0-.1-1.9c-.1-.72-.67-1.44-.67-1.8,0-.206.259-.257.413-.257a17.066,17.066,0,0,1,5.555,1.594h3.7c.2-.308,1.44-2.006,1.954-2.006.566,0,3.341,1.9,3.8,2.212.309.154.773.514.773.926,0,.463-1.286,1.387-1.594,1.594v8.126c0,1.44.2,2.88.257,4.32a18.316,18.316,0,0,1-4.682,1.44Zm-8.587-30.55a13.74,13.74,0,0,1,2.829,1.7,18.64,18.64,0,0,1,1.438,1.389,4.137,4.137,0,0,1,1.133,3.034c0,1.491-.722,2.674-2.314,2.674-1.391,0-1.749-.926-1.749-2.16,0-.619.1-1.234.1-1.852a6.967,6.967,0,0,0-.874-3.395,5.823,5.823,0,0,1-.874-1.183C-407.875,521.041-407.825,520.99-407.721,520.99Zm3.086-12.241a16.23,16.23,0,0,1,2.673.874,5.683,5.683,0,0,1,2.882,2.366,5.577,5.577,0,0,1,.771,2.417,2.493,2.493,0,0,1-2.471,2.572,2.059,2.059,0,0,1-1.954-1.389c-.1-.514-.1-1.029-.154-1.543a7.016,7.016,0,0,0-.975-3.394c-.154-.36-1.132-1.749-1.132-1.749C-404.995,508.749-404.738,508.749-404.635,508.749Zm5.5,40.989V539.453h-4.783l-.564.564v9.721Zm10.44-.513V516.464a17.73,17.73,0,0,0-.05-2.316,12.419,12.419,0,0,0-.516-1.8c0-.206.154-.309.362-.309.975,0,4.063,1.492,5.038,1.953h3.086c.259-.307,1.288-1.8,1.75-1.8.926,0,4.884,2.726,4.884,3.806,0,.463-1.543,1.08-1.9,1.234l-4.991,11.675c3.654,4.269,6.429,6.84,6.429,12.909a10.792,10.792,0,0,1-.358,2.88,7.329,7.329,0,0,1-1.852,2.932,6.3,6.3,0,0,1-4.166,1.7,4.143,4.143,0,0,0-1.183-3.191,9.318,9.318,0,0,0-1.75-1.335c-.05,0-.307-.206-.307-.257,0-.36.2-.36.461-.36.568,0,1.133.051,1.7.051,2.983,0,3.137-1.029,3.137-3.806,0-4.989-1.027-7.3-3.8-11.418.615-2.983,1.286-5.966,1.749-8.949l.617-4.114h-3.962l-.41.617v31.887c0,2.572.255,5.193.36,7.766a23.75,23.75,0,0,1-4.68,1.029C-388.95,554.729-388.693,551.643-388.693,549.225Z" transform="translate(414.047 -385.724)" fill="#caa846"/></g><path d="M-419.909,536l-3.507-10.027a7.756,7.756,0,0,1-.406-3.3l.782-8.4a94.19,94.19,0,0,0-1.22-17.07l-.858-5.229-.7-6.5h-31.571a6.274,6.274,0,0,1-6.267-6.265,3.2,3.2,0,0,1,.828-2.406c.966-.946,2.511-.915,4.3-.872.366.007.746.017,1.135.017h31.674v1.378h-31.674c-.4,0-.79-.009-1.165-.017-1.482-.033-2.759-.061-3.31.479a1.937,1.937,0,0,0-.415,1.422,4.893,4.893,0,0,0,4.89,4.888h32.808l.832,7.691.852,5.191a95.432,95.432,0,0,1,1.238,17.246l-.005.174-.782,8.4a6.365,6.365,0,0,0,.334,2.713l3.507,10.027Z" transform="translate(463.659 -358.829)" fill="#caa846"/><path d="M-434.085,523.036a5.681,5.681,0,0,1-4.061-1.717c-2.437-2.48.52-5.433,2.476-7.39l13.139-14.617,1.023.922-13.163,14.643c-2.184,2.186-3.861,4.085-2.493,5.477a4.32,4.32,0,0,0,6.049.138l9.836-10.815,6.659-7.553a4.082,4.082,0,0,0,.274-5.419L-429.725,477.2l1.08-.854,15.374,19.5a5.447,5.447,0,0,1-.34,7.215l-6.642,7.535-9.884,10.863A5.785,5.785,0,0,1-434.085,523.036Z" transform="translate(484.238 -358.473)" fill="#caa846"/><path d="M-442.24,564.161a4.927,4.927,0,0,1-2.6-.746l-8.37-5.176c-1.133-.7-2.305-1.416-1.945-3.18.393-1.927,3.108-3.376,4.746-3.413a11.665,11.665,0,0,1,6.175,1.624l19.437-34.915,4.438-8.887,1.233.617L-423.576,519l-20.1,36.107-1.166-.6a10.15,10.15,0,0,0-5.532-1.481c-1.115.026-3.189,1.152-3.426,2.311-.152.742.114.99,1.317,1.729l8.374,5.18a3.545,3.545,0,0,0,2.809.415,3.548,3.548,0,0,0,2.23-1.758l24.613-43.95a19.19,19.19,0,0,1,2.311-3.08c2.063-2.4,4.192-4.877,4.16-10.286l-.782-5.878,1.365-.18.788,5.964c.042,6.01-2.362,8.808-4.485,11.276a18.334,18.334,0,0,0-2.155,2.858l-24.608,43.943a4.911,4.911,0,0,1-3.082,2.423A5.1,5.1,0,0,1-442.24,564.161Z" transform="translate(470.722 -340.749)" fill="#caa846"/><path d="M-425.681,551.72a2.161,2.161,0,0,1-1.688-.823c-1.335-1.646-.985-5.365.683-7.237l3.091-2.915-12.075-20.854,1.192-.689,12.623,21.8-3.845,3.62c-1.273,1.433-1.44,4.372-.6,5.407.134.167.492.612,1.508.028l8.885-5.927a2.726,2.726,0,0,0,1.1-3.595l-16.008-27.457,1.19-.693,16.028,27.494a4.1,4.1,0,0,1-1.587,5.42l-8.887,5.926A3.227,3.227,0,0,1-425.681,551.72Z" transform="translate(487.081 -328.316)" fill="#caa846"/><path d="M-344.441,526.207H-358a2.308,2.308,0,0,1-2.305-2.305V477.19L-379.4,445.907l-10.591,9.182a5.176,5.176,0,0,1-6.407.2,5.2,5.2,0,0,1-1.958-4.561l1.666-25.874c.129-2.011.355-4.063,1.55-5.106a2.745,2.745,0,0,1,2.046-.637,6.132,6.132,0,0,1,4.295,2.116c1.491,1.747,2.083,4.379,1.758,7.825l-.986,12.735,11.313-10.283.928,1.019-13.881,12.617,1.253-16.206c.29-3.071-.191-5.362-1.433-6.815a4.769,4.769,0,0,0-3.337-1.635,1.376,1.376,0,0,0-1.049.3c-.861.753-1,2.887-1.082,4.16l-1.666,25.874a3.885,3.885,0,0,0,1.411,3.369,3.776,3.776,0,0,0,4.677-.138L-379.07,443.8l20.141,33v47.1a.929.929,0,0,0,.928.928h13.561a1.738,1.738,0,0,0,1.31-.588,1.79,1.79,0,0,0,.441-1.392c-.494-4.269-6.813-4.487-8.075-4.487h-.689V475.487l10.933-8.471-.007,0,.658-.531,15.481-13.9,30.846-15.409L-290.763,426a.845.845,0,0,0-.1-.709,2.914,2.914,0,0,0-2.856-.909c-2.329.781-4.324,3.378-5.476,7.127l-.088.287-29.551,14.27-17.341,13.269-.4-.652c-.715-1.161-1.6-2.382-2.533-3.676-2.952-4.078-6.3-8.7-6.363-14.145l-.005-.478,14.711-5.738a3.538,3.538,0,0,0,.88-.457L-328,426.122c3.7-3.608,4.261-6.872,3.139-8.473a1.478,1.478,0,0,0-.974-.6,1.981,1.981,0,0,0-1.457.336l-15.857,11.177-14.9,5.413-.47-1.295,14.812-5.382,15.62-11.041a3.317,3.317,0,0,1,2.487-.564,2.842,2.842,0,0,1,1.864,1.163c1.35,1.925,1.269,5.786-3.4,10.325l-11.965,8.137a4.829,4.829,0,0,1-1.183.617l-13.8,5.382c.248,4.816,3.345,9.094,6.087,12.884.781,1.082,1.528,2.114,2.182,3.117l16.377-12.494,29.013-14.009c1.3-4.025,3.571-6.837,6.264-7.739a4.26,4.26,0,0,1,4.375,1.365,2.209,2.209,0,0,1,.356,1.894l-2.933,11.78-.285.143-31.048,15.508-15.275,13.785-11.109,8.607V517c4.052.156,8.293,1.714,8.754,5.694a3.172,3.172,0,0,1-.781,2.467A3.138,3.138,0,0,1-344.441,526.207Z" transform="translate(518.296 -409.267)" fill="#caa846"/><path d="M-348.212,429.253" transform="translate(560.268 -397.882)" fill="#caa846"/><path d="M-348.8,506.949l-1.365-.18a93.017,93.017,0,0,0,.8-12.174,91.184,91.184,0,0,0-6.815-34.755l1.277-.525a92.627,92.627,0,0,1,6.916,35.28A94.188,94.188,0,0,1-348.8,506.949Z" transform="translate(553.604 -372.725)" fill="#caa846"/><path d="M-446.631,479.966l-1.234-.61a92.921,92.921,0,0,1,71.168-51.08l.182,1.368A91.541,91.541,0,0,0-446.631,479.966Z" transform="translate(476.876 -398.7)" fill="#caa846"/><path d="M-367.206,562.346l-.946-1A91.856,91.856,0,0,0-340.14,506.77a93.017,93.017,0,0,0,.8-12.174,91.184,91.184,0,0,0-6.815-34.755l1.277-.525a92.627,92.627,0,0,1,6.916,35.28,94.188,94.188,0,0,1-.814,12.354A93.236,93.236,0,0,1-367.206,562.346Z" transform="translate(543.582 -372.725)" fill="#caa846"/><path d="M-446.631,479.966l-1.234-.61a92.921,92.921,0,0,1,71.168-51.08l.182,1.368A91.541,91.541,0,0,0-446.631,479.966Z" transform="translate(476.876 -398.7)" fill="#caa846"/><path d="M-340.394,502.929h-1.378a98.593,98.593,0,0,0-14.957-52.306l1.168-.727A99.946,99.946,0,0,1-340.394,502.929Z" transform="translate(553.141 -380.607)" fill="#caa846"/><path d="M-452.115,481.957l-1.288-.492a101.15,101.15,0,0,1,39.466-48.6l.746,1.159A99.734,99.734,0,0,0-452.115,481.957Z" transform="translate(472.241 -394.86)" fill="#caa846"/><path d="M-427.737,448.2l-.775-1.137a84.869,84.869,0,0,1,47.958-14.746v1.378A83.508,83.508,0,0,0-427.737,448.2Z" transform="translate(493.071 -395.32)" fill="#caa846"/><path d="M-434.057,489.526c-2.742,0-4.671-2-5.744-3.108-4.544-4.7-3.148-9.814-2.026-13.919.158-.579.312-1.144.448-1.7,1.279-5.207,4.219-7.053,6.46-7.682a10.975,10.975,0,0,1,10.268,2.426,8.188,8.188,0,0,1,2.592,8.3c-.13.566-.246,1.155-.367,1.761-.849,4.267-1.9,9.575-8.444,13.056A6.721,6.721,0,0,1-434.057,489.526Zm2.048-25.427a9.325,9.325,0,0,0-2.537.347c-2.746.771-4.6,3.022-5.494,6.686-.138.562-.3,1.141-.457,1.728-1.137,4.16-2.313,8.462,1.686,12.6h0c1.811,1.875,4.021,3.725,7.294,1.986,5.96-3.174,6.906-7.92,7.74-12.108.123-.619.242-1.222.375-1.8a6.8,6.8,0,0,0-2.175-6.971A9.609,9.609,0,0,0-432.009,464.1Z" transform="translate(480.993 -369.875)" fill="#caa846"/><path d="M-376.956,437.728a6.882,6.882,0,0,1-3.81-1.152h0c-6.085-4.039-5.821-9.072-5.61-13.119.046-.865.09-1.7.068-2.482a7.923,7.923,0,0,1,4.629-7.676,10.477,10.477,0,0,1,10.09.353,7.863,7.863,0,0,1,3.99,7.323c-.022.784.022,1.616.068,2.482.211,4.047.478,9.08-5.61,13.119A6.889,6.889,0,0,1-376.956,437.728Zm-3.049-2.3a5.5,5.5,0,0,0,6.1,0c5.432-3.606,5.2-8.01,5-11.9-.048-.9-.092-1.773-.07-2.594a6.474,6.474,0,0,0-3.321-6.1,9.1,9.1,0,0,0-8.754-.307,6.542,6.542,0,0,0-3.878,6.409c.022.821-.022,1.69-.07,2.594-.2,3.889-.435,8.293,5,11.9Z" transform="translate(528.261 -412.174)" fill="#caa846"/><path d="M-384.11,540.693l-.536-1.269a83.888,83.888,0,0,0,42.912-40.879l1.242.6A85.269,85.269,0,0,1-384.11,540.693Z" transform="translate(529.779 -339.896)" fill="#caa846"/><path d="M-455.1,495.516l-1.365-.187a99.625,99.625,0,0,1,24.325-52.778l1.029.915A98.274,98.274,0,0,0-455.1,495.516Z" transform="translate(469.683 -386.754)" fill="#caa846"/><path d="M-437.908,523.573a92.042,92.042,0,0,1-14.456-36.107l1.357-.233a90.7,90.7,0,0,0,14.241,35.572Z" transform="translate(473.111 -349.363)" fill="#caa846"/><path d="M-409.826,526.931a85.124,85.124,0,0,1-13.642-6.2c-1.3-.74-2.6-1.519-3.85-2.316l.74-1.163c1.231.786,2.505,1.552,3.789,2.279a83.626,83.626,0,0,0,13.42,6.106Z" transform="translate(494.07 -324.246)" fill="#caa846"/></g></g><path d="M.636,7.19V6.22a1.825,1.825,0,0,0,1.047-.309,1.253,1.253,0,0,0,.408-.794,8.427,8.427,0,0,0,.088-1.345V-5.4q0-.485.022-.937t.044-.782q-.375.022-.816.044t-.794.044V-8.239H6.058v.97a1.688,1.688,0,0,0-1.036.3,1.266,1.266,0,0,0-.419.794,8.388,8.388,0,0,0-.088,1.356V4.3q0,.6-.011,1.047a5.988,5.988,0,0,1-.055.738l3.725-.044a2.634,2.634,0,0,0,2.094-.893A4.284,4.284,0,0,0,11,2.385h.992L11.855,7.19Zm19.75-14.46a1.628,1.628,0,0,0-.97.242,1.156,1.156,0,0,0-.441.65,3.507,3.507,0,0,0-.11.915V.247a12.361,12.361,0,0,0,.209,2.37,5.639,5.639,0,0,0,.683,1.852,3.311,3.311,0,0,0,1.3,1.223,4.418,4.418,0,0,0,2.017.463A4.143,4.143,0,0,0,25.5,5.493a3.968,3.968,0,0,0,1.422-1.9,8.487,8.487,0,0,0,.5-2.932L27.461-5.4q0-.485.022-.937t.044-.782q-.375.022-.816.044t-.794.044V-8.239h4.452v.97a1.729,1.729,0,0,0-1.058.3,1.266,1.266,0,0,0-.419.794,8.388,8.388,0,0,0-.088,1.356L28.784.423a10.831,10.831,0,0,1-.364,2.9,6.423,6.423,0,0,1-1.1,2.259,4.83,4.83,0,0,1-1.874,1.455,6.524,6.524,0,0,1-2.678.507,8.106,8.106,0,0,1-3-.485A4.372,4.372,0,0,1,17.84,5.614a6.071,6.071,0,0,1-1.025-2.358A15.1,15.1,0,0,1,16.506.026V-4.735q0-.6.033-1.3t.055-1.08q-.375.022-.816.033t-.794.033v-1.19h5.4Zm21.6,8.883A2.571,2.571,0,0,0,41.711.247a1.192,1.192,0,0,0-.827-.518,6.046,6.046,0,0,0-1.367-.055L38.24-.282V4.3q0,.6-.011,1.047a5.988,5.988,0,0,1-.055.738l3.791-.044a4.1,4.1,0,0,0,1.543-.32A2.24,2.24,0,0,0,44.588,4.7a4.166,4.166,0,0,0,.4-1.984h.97L45.822,7.19H34.36V6.22a1.825,1.825,0,0,0,1.047-.309,1.253,1.253,0,0,0,.408-.794A8.428,8.428,0,0,0,35.9,3.774V-5.4q0-.485.022-.937t.044-.782q-.375.022-.816.044t-.794.044V-8.239H45.117l.11,3.99h-.97a3.685,3.685,0,0,0-.408-1.918,1.98,1.98,0,0,0-1.058-.882,3.964,3.964,0,0,0-1.4-.2L39.849-7.2a1.9,1.9,0,0,0-1.036.231,1.127,1.127,0,0,0-.463.749,7.025,7.025,0,0,0-.11,1.4v3.461h3.637l-.132-1.9h1.212V1.613ZM62.243,7.5,54.044-3.39q-.242-.287-.463-.6t-.463-.639H53.1l.066,8.574q0,.551-.011,1.1T53.1,6.066q.375-.044.827-.055t.782-.033V7.19H50.341V6.22a1.533,1.533,0,0,0,.937-.242,1.233,1.233,0,0,0,.441-.639,3.178,3.178,0,0,0,.121-.926V-6.344q0-.441.022-.771-.353.022-.782.044t-.76.044V-8.239h2.91L60.987,1.966q.375.485.672.9t.584.794h.022L62.287-5.4q0-.485.022-.937t.044-.782l-.838.044q-.441.022-.771.044V-8.239h4.364v.97a1.636,1.636,0,0,0-1.025.3,1.246,1.246,0,0,0-.4.794,9.567,9.567,0,0,0-.077,1.356L63.588,7.5ZM80.869,7.19V6.22A1.766,1.766,0,0,0,81.9,5.912a1.291,1.291,0,0,0,.4-.8,8.469,8.469,0,0,0,.088-1.334l.022-2.314L78.488-4.713a14.811,14.811,0,0,1-.738-1.367,3.373,3.373,0,0,1-.32-.992q-.353.022-.661.022t-.617.022V-8.239H82.1v.97a2.322,2.322,0,0,0-1.289.242.763.763,0,0,0-.364.76,2.83,2.83,0,0,0,.441,1.157l1.741,2.777q.176.265.4.617T83.481-1q.231.364.43.738h.044q.2-.419.452-.893T84.924-2.2l1.631-3.108q.11-.22.287-.551t.386-.672a3.036,3.036,0,0,1,.43-.562q-.4.022-.871.033t-.849.033V-8.239h4.607v.97a2.6,2.6,0,0,0-1.62.716A8.246,8.246,0,0,0,87.547-4.58q-.727,1.389-1.433,2.722T84.748.754q0,.353-.011.9t-.011,1.1V4.236q0,.6-.011,1.069a6.164,6.164,0,0,1-.055.76q.441-.044.937-.055t.871-.033V7.19Zm17.81-14.46a1.628,1.628,0,0,0-.97.242,1.156,1.156,0,0,0-.441.65,3.507,3.507,0,0,0-.11.915V.247a12.361,12.361,0,0,0,.209,2.37,5.639,5.639,0,0,0,.683,1.852,3.311,3.311,0,0,0,1.3,1.223,4.418,4.418,0,0,0,2.017.463,4.143,4.143,0,0,0,2.425-.661,3.968,3.968,0,0,0,1.422-1.9,8.487,8.487,0,0,0,.5-2.932l.044-6.062q0-.485.022-.937t.044-.782q-.375.022-.816.044t-.794.044V-8.239h4.452v.97a1.729,1.729,0,0,0-1.058.3,1.266,1.266,0,0,0-.419.794,8.389,8.389,0,0,0-.088,1.356L107.076.423a10.831,10.831,0,0,1-.364,2.9,6.422,6.422,0,0,1-1.1,2.259,4.83,4.83,0,0,1-1.874,1.455,6.524,6.524,0,0,1-2.678.507,8.106,8.106,0,0,1-3-.485,4.372,4.372,0,0,1-1.929-1.444,6.071,6.071,0,0,1-1.025-2.358A15.1,15.1,0,0,1,94.8.026V-4.735q0-.6.033-1.3t.055-1.08q-.375.022-.816.033t-.794.033v-1.19h5.4Zm21.6,8.883A2.571,2.571,0,0,0,120,.247a1.192,1.192,0,0,0-.827-.518,6.046,6.046,0,0,0-1.367-.055l-1.278.044V4.3q0,.6-.011,1.047a5.987,5.987,0,0,1-.055.738l3.791-.044a4.1,4.1,0,0,0,1.543-.32A2.24,2.24,0,0,0,122.88,4.7a4.166,4.166,0,0,0,.4-1.984h.97l-.132,4.475H112.653V6.22a1.825,1.825,0,0,0,1.047-.309,1.253,1.253,0,0,0,.408-.794,8.427,8.427,0,0,0,.088-1.345V-5.4q0-.485.022-.937t.044-.782q-.375.022-.816.044t-.794.044V-8.239h10.756l.11,3.99h-.97a3.685,3.685,0,0,0-.408-1.918,1.98,1.98,0,0,0-1.058-.882,3.964,3.964,0,0,0-1.4-.2l-1.543.044a1.9,1.9,0,0,0-1.036.231,1.127,1.127,0,0,0-.463.749,7.025,7.025,0,0,0-.11,1.4v3.461h3.637l-.132-1.9h1.212V1.613ZM148.1-3.478a7.5,7.5,0,0,0-.287-2.094,2.309,2.309,0,0,0-.871-1.256,2.784,2.784,0,0,0-1.664-.4h-1.587l-.022,11.462q0,.6-.011,1.069a6.167,6.167,0,0,1-.055.76q.419-.044.915-.055t.893-.033V7.19h-5.6V6.22a1.766,1.766,0,0,0,1.036-.309,1.291,1.291,0,0,0,.4-.8,8.468,8.468,0,0,0,.088-1.334V-7.2l-1.852.022a2.206,2.206,0,0,0-1.962.9,5.033,5.033,0,0,0-.617,2.8h-1.036L136-8.239h13l.132,4.761ZM160.528,7.543a8.3,8.3,0,0,1-3.582-.705,6.6,6.6,0,0,1-2.414-1.885,8.009,8.009,0,0,1-1.367-2.612,9.7,9.7,0,0,1-.441-2.865,8.848,8.848,0,0,1,.474-2.81,8.339,8.339,0,0,1,1.433-2.612,7.194,7.194,0,0,1,2.4-1.918,7.43,7.43,0,0,1,3.383-.727,7.782,7.782,0,0,1,3.494.727,6.966,6.966,0,0,1,2.414,1.929,8.628,8.628,0,0,1,1.422,2.612,8.75,8.75,0,0,1,.474,2.8,8.786,8.786,0,0,1-.474,2.788,8.474,8.474,0,0,1-1.433,2.623,7.165,7.165,0,0,1-2.392,1.929A7.413,7.413,0,0,1,160.528,7.543Zm.11-1.146a4.161,4.161,0,0,0,2.215-.573A4.728,4.728,0,0,0,164.4,4.292a7.143,7.143,0,0,0,.893-2.116,9.554,9.554,0,0,0,.287-2.3,11.093,11.093,0,0,0-.331-2.722,7.907,7.907,0,0,0-1-2.358,5.18,5.18,0,0,0-1.664-1.653,4.307,4.307,0,0,0-2.292-.606,4.1,4.1,0,0,0-2.226.6,4.8,4.8,0,0,0-1.543,1.554,7.55,7.55,0,0,0-.893,2.116,9.3,9.3,0,0,0-.3,2.325,10.345,10.345,0,0,0,.309,2.425,8.86,8.86,0,0,0,.948,2.381,5.406,5.406,0,0,0,1.642,1.785A4.183,4.183,0,0,0,160.638,6.4Zm23.585,1.1-8.2-10.889q-.242-.287-.463-.6t-.463-.639h-.022l.066,8.574q0,.551-.011,1.1t-.055,1.014q.375-.044.827-.055t.783-.033V7.19H172.32V6.22a1.532,1.532,0,0,0,.937-.242,1.233,1.233,0,0,0,.441-.639,3.178,3.178,0,0,0,.121-.926V-6.344q0-.441.022-.771-.353.022-.783.044t-.76.044V-8.239h2.91l7.759,10.205q.375.485.672.9t.584.794h.022l.022-9.059q0-.485.022-.937t.044-.782l-.838.044q-.441.022-.771.044V-8.239h4.364v.97a1.636,1.636,0,0,0-1.025.3,1.246,1.246,0,0,0-.4.794,9.568,9.568,0,0,0-.077,1.356L185.568,7.5Zm14.261.044a7.814,7.814,0,0,1-3.945-.97,6.642,6.642,0,0,1-2.623-2.722,8.629,8.629,0,0,1-.926-4.089,9.824,9.824,0,0,1,.474-3.02A8.473,8.473,0,0,1,192.9-5.947a6.961,6.961,0,0,1,2.4-1.929,7.473,7.473,0,0,1,3.361-.716,9.256,9.256,0,0,1,1.521.132,9.451,9.451,0,0,1,1.554.4,7.21,7.21,0,0,1,1.378.639l-.088-1.014h1.367v5.07h-1.014a4.546,4.546,0,0,0-.738-2.237,4.074,4.074,0,0,0-1.609-1.389,4.925,4.925,0,0,0-2.171-.474,4.4,4.4,0,0,0-2.127.518,5.231,5.231,0,0,0-1.664,1.433,6.808,6.808,0,0,0-1.091,2.149,8.821,8.821,0,0,0-.386,2.645,9.111,9.111,0,0,0,.672,3.6,5.821,5.821,0,0,0,1.907,2.48,4.756,4.756,0,0,0,2.887.9,7.46,7.46,0,0,0,1.157-.1,7.832,7.832,0,0,0,1.256-.309,4.908,4.908,0,0,0,1.135-.54V2.848q0-.551.011-1.091t.011-1q-.353.022-.794.044t-.771.044V-.37h5.268V.6a1.369,1.369,0,0,0-.849.242,1.388,1.388,0,0,0-.463.606,2.964,2.964,0,0,0-.187.771,7.1,7.1,0,0,0-.044.76V6.419h-.573a4.861,4.861,0,0,0-1.08.143,11.541,11.541,0,0,0-1.389.43,9.7,9.7,0,0,1-1.565.4A9.847,9.847,0,0,1,198.484,7.543Z" transform="translate(13.39 260.987)" fill="#caa846"/></g></svg>