<svg xmlns="http://www.w3.org/2000/svg" width="135.615" height="119.192" viewBox="0 0 135.615 119.192"><g transform="translate(-754 -1043)"><g transform="translate(1403.281 798.256)"><g transform="translate(6 -4)"><path d="M-524.009,344.727h-29.464l-.11-.178c-4.955-8-4.689-15.188-3.594-19.811a23.334,23.334,0,0,1,3.615-8.217l.113-.146h29.416l.112.146c.1.126,9.509,12.715.022,28.028Zm-29.046-.75h28.627c8.5-13.916,1.016-25.43.018-26.852h-28.662C-554.069,318.548-561.544,330.075-553.055,343.977Z" fill="#fff"/><rect width="34.443" height="0.75" transform="translate(-555.962 338.453)" fill="#fff"/><rect width="34.443" height="0.75" transform="translate(-555.962 321.625)" fill="#fff"/></g><path d="M-585.059,250.764h-4.788l-.5.364-.98-1.456c.56.056,1.148.168,1.68.168h9.156a16.966,16.966,0,0,0,1.54-4.872v-.2a.355.355,0,0,1,.168-.028,18.677,18.677,0,0,1,2.884,1.2.439.439,0,0,1,.252.392c0,.336-.644.392-.868.392-.952,1.064-1.9,2.1-2.884,3.108h3.836c.112-.14,1.064-1.316,1.344-1.316a5.758,5.758,0,0,1,1.82,2.016c0,.168-.2.224-.364.224h-5.544l-.5.42v5.88A35.9,35.9,0,0,0-576.071,252a.817.817,0,0,1,.056-.252c.252-.028,2.6,1.26,2.6,1.708,0,.308-.784.42-1.008.448-1.232,1.148-2.492,2.3-3.78,3.36h3.808c.112-.112,1.12-1.26,1.372-1.26.168,0,.476.336.588.448.224.224,1.148,1.12,1.148,1.456a.273.273,0,0,1-.308.28H-591.5l-.476.392-.952-1.456a16.3,16.3,0,0,0,1.68.14h6.188ZM-589.875,252a9.308,9.308,0,0,1,1.624.56,2.917,2.917,0,0,1,1.652,1.4,4.222,4.222,0,0,1,.364,1.288,1.16,1.16,0,0,1-1.12,1.2,1.009,1.009,0,0,1-.812-.364,1.08,1.08,0,0,1-.308-.616,7.417,7.417,0,0,0-.448-1.764c-.168-.392-1.092-1.6-1.092-1.624C-590.015,252-589.931,252-589.875,252Zm1.624,16.3v-6.076a5.43,5.43,0,0,0-.056-.952c-.028-.364-.252-.98-.252-1.176,0-.14.028-.224.2-.224a15.476,15.476,0,0,1,2.968,1.008h7c.14-.168.84-1.12,1.148-1.12a8.811,8.811,0,0,1,1.988,1.26c.084.056.308.224.308.364,0,.28-.476.616-.672.784v6.132c0,.7.084,1.4.112,2.1a10.685,10.685,0,0,1-2.66.728l.084-1.372h-7.868v.588a10.768,10.768,0,0,1-2.464.7C-588.363,270.14-588.251,269.188-588.251,268.292Zm.784-23.3a4.842,4.842,0,0,1,.868.2,6.622,6.622,0,0,1,2.436,1.2,1.625,1.625,0,0,1,.728,1.428c0,.812-.336,1.484-1.26,1.484a1.075,1.075,0,0,1-.7-.252c-.42-.364-.56-1.288-.7-1.736a5.766,5.766,0,0,0-.476-.924,4.261,4.261,0,0,0-1.036-1.092c-.028-.028-.112-.084-.112-.168C-587.719,245.024-587.551,245-587.467,245Zm9.38,19.768V261.8h-7.476l-.392.392v2.576Zm0,4.06v-3.136h-7.868v3.136Zm-2.856-11.564v-6.5H-582.4l-.42.364v6.132Z" fill="#fff"/><path d="M-591.3,286.632l-.392.364-.952-1.54c.532.056,1.148.168,1.68.168h3.052c.168-.168.812-1.064,1.12-1.064a1.226,1.226,0,0,1,.476.224l1.736,1.148c.084.056.2.14.2.252,0,.308-.644.616-.868.756l-1.6,2.324c.2.14.672.476.672.728,0,.112-.7.56-.784.616v.14c1.064.588,2.632,1.344,2.632,2.772a1.1,1.1,0,0,1-1.064,1.2c-1.036,0-.952-1.288-1.008-1.96a3.435,3.435,0,0,0-.56-1.512v9.968c0,.868.112,1.792.168,2.66a20.1,20.1,0,0,1-2.576.56c.056-.952.2-1.932.2-2.856v-9.268a29.848,29.848,0,0,1-3.248,3,.2.2,0,0,1-.168.084.181.181,0,0,1-.168-.168c0-.112.644-.952.728-1.12.588-.924,1.176-1.876,1.708-2.828a27.181,27.181,0,0,0,1.484-2.828l.784-1.82Zm3.948-3.892a1.205,1.205,0,0,1-.868-.28,1.364,1.364,0,0,1-.42-.756,4.325,4.325,0,0,0-.9-2.212c-.14-.168-.672-.728-.672-.924,0-.084.084-.112.168-.112a9.786,9.786,0,0,1,2.464.812A1.876,1.876,0,0,1-586.207,281C-586.207,281.844-586.319,282.74-587.355,282.74Zm13.86-3.444c.14,0,.364.2.476.28l1.316,1.232a.586.586,0,0,1,.2.364c0,.252-.224.308-.42.308h-11.4l-.392.364-.9-1.511a15.443,15.443,0,0,0,1.624.167h8.176C-574.727,280.417-573.719,279.3-573.495,279.3Zm-1.344,23.156h-6.916v1.456a16.431,16.431,0,0,1-2.38.5c.056-.784.2-1.6.2-2.352v-7.84a5.734,5.734,0,0,0-.2-1.176,5.294,5.294,0,0,1-.14-.644c0-.224.224-.2.364-.2a9.725,9.725,0,0,1,2.632,1.008h6.1c.2-.168.9-.98,1.176-.98a10.337,10.337,0,0,1,2.1,1.288c.112.084.308.224.308.392,0,.252-.784.728-.98.868v6.748c0,.728.084,1.512.14,2.24a15.944,15.944,0,0,1-2.52.5Zm-7.812-13.5v-3.22a8.175,8.175,0,0,0-.14-1.4,3.049,3.049,0,0,1-.2-.672c0-.112.28-.112.336-.112a11.246,11.246,0,0,1,2.856,1.12h3.584c.112-.084.84-1.008,1.036-1.008a11.141,11.141,0,0,1,2.016,1.288c.084.084.224.2.224.336,0,.252-.588.644-.756.756v2.968c0,.588.084,1.176.112,1.736a23.926,23.926,0,0,1-2.464.476l.112-1.148h-4.424v.616a18.181,18.181,0,0,1-2.408.448C-582.735,290.412-582.651,289.684-582.651,288.956Zm3.332,8.232v-2.94h-2.156l-.28.224v2.716Zm0,4.284v-3.3h-2.436v3.3Zm3.388-12.236v-3.584h-4.088l-.336.28-.028,3.3Zm1.092,7.952v-2.94h-2.072l-.336.336v2.6Zm-2.408.98v3.3h2.408v-3.3Z" fill="#fff"/><path d="M-583.659,314.716a8.49,8.49,0,0,0-.168-1.652c-.056-.28-.308-.532-.308-.812,0-.168.056-.2.224-.2.252,0,3.7.7,3.7,1.259,0,.224-.868.785-1.036.9v5.517h.924c.784-1.317,2.6-4.593,2.744-6.161a.21.21,0,0,1,.14-.028,22.032,22.032,0,0,1,2.968,1.316c.112.056.28.168.28.336,0,.308-.812.5-1.008.56-1.316,1.344-2.66,2.688-4,3.977h4.228c.14-.168.644-1.009.952-1.009.644,0,2.436,1.484,2.716,1.9a.846.846,0,0,1,.14.448c0,.728-1.288.672-1.764.728a3.745,3.745,0,0,0-1.848.7,2.053,2.053,0,0,1-.728.477c-.056,0-.056-.057-.056-.113,0-.084.56-1.9.644-2.128h-15.092a4.34,4.34,0,0,1,.028.617,2.1,2.1,0,0,1-1.876,2.211c-.924,0-1.176-.532-1.176-1.4,0-1.063,1.288-1.428,1.652-2.38a7.01,7.01,0,0,0,.308-1.372c0-.056.028-.2.112-.2a.3.3,0,0,1,.14.056,14.1,14.1,0,0,1,.644,1.457h6.524Zm0,18.06h-5.068l-.448.448-.868-1.54c.5.028,1.036.112,1.54.112h4.844v-1.4a10.358,10.358,0,0,0-.224-2.043h-2.268v.727a23.039,23.039,0,0,1-2.408.532c.056-.84.168-1.708.168-2.52V324.4a11.693,11.693,0,0,0-.168-1.9,3.116,3.116,0,0,1-.224-.588c0-.14.168-.2.28-.2a23.326,23.326,0,0,1,3.08,1.2h6.048c.168-.224.616-1.036.98-1.036a2.573,2.573,0,0,1,.9.392c.084.056,1.708.9,1.708,1.2,0,.252-.728.7-.868.812v2.576c0,.728.056,1.485.084,2.212a13.932,13.932,0,0,1-2.6.56l.112-1.287h-3.64c.308.111,2.38.7,2.38,1.007,0,.2-.784.7-.9.785V331.8h3c.084-.112.924-1.26,1.176-1.26.2,0,.448.252.588.364l1.092,1.037a.867.867,0,0,1,.308.531c0,.224-.14.308-.336.308l-5.824.028v3.556h5.04c.112-.14,1.176-1.484,1.456-1.484.224,0,.616.364.756.5.2.168,1.54,1.2,1.54,1.652,0,.308-.336.336-.532.336h-17.92l-.448.42-.868-1.54c.5.028,1.064.112,1.568.112h6.972Zm-6.132-18.956a11.122,11.122,0,0,1,1.96.728,3.462,3.462,0,0,1,1.96,1.652,3.981,3.981,0,0,1,.364,1.4,1.452,1.452,0,0,1-1.456,1.483c-1.288,0-1.344-1.176-1.456-2.184a4.187,4.187,0,0,0-1.2-2.52c-.056-.056-.364-.336-.364-.42C-589.987,313.849-589.847,313.82-589.791,313.82Zm10.724,13.552V323.9h-6.72l-.364.448v3.024Z" fill="#fff"/><g transform="translate(0 -4)"><path d="M-647.719,277.5a1,1,0,0,1-.313-.049,1.058,1.058,0,0,1-.662-.629l-.509-1.284a1.06,1.06,0,0,1,.052-.911,1.062,1.062,0,0,1,.616-.5l9.285-3.07.774,2.268-8.762,4.069A1.169,1.169,0,0,1-647.719,277.5Zm8-5.5-8.58,2.837a.319.319,0,0,0-.2.155.315.315,0,0,0-.01.269l.509,1.285a.314.314,0,0,0,.193.191.359.359,0,0,0,.258-.028l8.143-3.783Z" fill="#fff"/><path d="M-635.764,283.261l-.125-.375-4.91-14.078.014-.005c-.032-.09-.067-.192-.1-.293-.278-.8-.343-.984,0-1.122l5.139-2.036c.346-.139.431.045.775.821l.124.278.013-.006,6.222,13.977Zm-4.187-14.3L-635.3,282.3l5.686-2.282-5.732-12.877c-.062-.1-.146-.293-.31-.661l-.134-.3-4.5,1.781.106.306C-640.045,268.648-639.977,268.845-639.951,268.964Z" fill="#fff"/><path d="M-633.429,271.327l-.988-2.182,8.857-4.115a1.106,1.106,0,0,1,.8-.061,1.061,1.061,0,0,1,.661.629l.509,1.284a1.063,1.063,0,0,1-.052.911,1.111,1.111,0,0,1-.606.5l-.01,0Zm0-1.815.4.891,8.525-2.819a.373.373,0,0,0,.2-.157.316.316,0,0,0,.008-.268l-.508-1.285a.316.316,0,0,0-.192-.19.361.361,0,0,0-.262.028Z" fill="#fff"/><path d="M-630.471,277.557l-.963-2.133,9.076-4.231a1.066,1.066,0,0,1,.794-.056,1.065,1.065,0,0,1,.652.629l.509,1.285a1.066,1.066,0,0,1-.045.906,1.094,1.094,0,0,1-.6.5Zm.025-1.767.382.844,8.773-2.889a.325.325,0,0,0,.184-.147.319.319,0,0,0,.007-.271l-.509-1.285a.317.317,0,0,0-.19-.192.325.325,0,0,0-.245.024Z" fill="#fff"/><path d="M-641.252,268.208a1.76,1.76,0,0,1-1.636-1.11,1.741,1.741,0,0,1,.022-1.344,1.745,1.745,0,0,1,.965-.936l5.138-2.036a1.759,1.759,0,0,1,2.28.987,1.745,1.745,0,0,1-.021,1.344,1.75,1.75,0,0,1-.965.936l-5.138,2.035A1.747,1.747,0,0,1-641.252,268.208Zm5.134-4.8a1.019,1.019,0,0,0-.369.07l-5.138,2.036a1,1,0,0,0-.553.537,1,1,0,0,0-.012.77,1.008,1.008,0,0,0,1.306.565l5.138-2.035a1,1,0,0,0,.553-.537,1,1,0,0,0,.013-.77A1.009,1.009,0,0,0-636.118,263.409Z" fill="#fff"/><path d="M-645.82,284.181a1.021,1.021,0,0,1-.313-.048,1.061,1.061,0,0,1-.659-.629l-.509-1.284a1.067,1.067,0,0,1,.048-.908,1.059,1.059,0,0,1,.612-.5l9.762-3.041.691,1.983-9.157,4.326A1.177,1.177,0,0,1-645.82,284.181Zm8.471-5.48-9.062,2.822a.316.316,0,0,0-.184.148.324.324,0,0,0-.009.273l.509,1.284a.318.318,0,0,0,.192.191.366.366,0,0,0,.254-.026l8.53-4.031Z" fill="#fff"/><path d="M-619.189,332.616a18.049,18.049,0,0,1-16.776-11.384,18.042,18.042,0,0,1,10.117-23.39h0a18.04,18.04,0,0,1,23.391,10.118,17.9,17.9,0,0,1-.222,13.787,17.9,17.9,0,0,1-9.895,9.6A17.947,17.947,0,0,1-619.189,332.616Zm-6.382-34.077a17.294,17.294,0,0,0-9.7,22.418,17.287,17.287,0,0,0,22.417,9.7,17.151,17.151,0,0,0,9.484-9.2,17.158,17.158,0,0,0,.213-13.214,17.291,17.291,0,0,0-22.417-9.7Z" fill="#fff"/><rect width="0.75" height="18.216" transform="matrix(0.93, -0.368, 0.368, 0.93, -629.461, 280.357)" fill="#fff"/><rect width="0.75" height="18.216" transform="translate(-635.884 282.901) rotate(-21.61)" fill="#fff"/></g><path d="M-544.84,288.026c-1.389,0-2.476-.815-2.476-1.855V254.515c0-.6-.79-1.1-1.726-1.1s-1.726.506-1.726,1.1v15.643c0,1.04-1.087,1.855-2.476,1.855h-7.38v-.75h7.38c.935,0,1.726-.506,1.726-1.105V254.515c0-1.04,1.087-1.855,2.476-1.855s2.476.815,2.476,1.855v31.656c0,.6.79,1.105,1.726,1.105s1.726-.506,1.726-1.105V260.207c0-1.041,1.087-1.856,2.476-1.856h.269c1.388,0,2.475.815,2.475,1.856V276.2c0,.6.791,1.106,1.727,1.106s1.726-.507,1.726-1.106v-26.21c0-1.041,1.087-1.856,2.476-1.856s2.476.815,2.476,1.856v31.137c0,.6.791,1.106,1.726,1.106s1.726-.506,1.726-1.106v-23.68c0-1.041,1.087-1.856,2.476-1.856v.75c-.936,0-1.726.507-1.726,1.106v23.68c0,1.041-1.088,1.856-2.476,1.856s-2.476-.815-2.476-1.856V249.991c0-.6-.79-1.106-1.726-1.106s-1.726.507-1.726,1.106V276.2c0,1.041-1.087,1.856-2.476,1.856s-2.477-.815-2.477-1.856V260.207c0-.6-.79-1.106-1.725-1.106h-.269c-.936,0-1.726.506-1.726,1.106v25.964C-542.364,287.211-543.452,288.026-544.84,288.026Z" transform="translate(-3 3)" fill="#fff"/><rect width="7.095" height="0.75" transform="translate(-526.561 258.592)" fill="#fff"/></g><path d="M.636-.528A.993.993,0,0,0,1.206-.7a.682.682,0,0,0,.222-.432,4.588,4.588,0,0,0,.048-.732V-6.852q0-.264.012-.51t.024-.426l-.444.024L.636-7.74V-8.4q.708-.012,1.44-.018t1.488-.006a5.932,5.932,0,0,1,1.914.27,2.53,2.53,0,0,1,1.212.816,2.221,2.221,0,0,1,.438,1.374A2.633,2.633,0,0,1,6.96-5a2.486,2.486,0,0,1-.612.924,3.151,3.151,0,0,1-1.17.69,5.568,5.568,0,0,1-1.854.264q-.12.012-.27.012T2.748-3.12v1.512q0,.324-.006.582a3.355,3.355,0,0,1-.03.414l.36-.024q.192-.012.378-.018t.342-.018V0H.636ZM2.748-3.756q.2.024.354.03t.354.006a2.675,2.675,0,0,0,1.188-.252,1.875,1.875,0,0,0,.8-.732,2.174,2.174,0,0,0,.288-1.14,2.37,2.37,0,0,0-.174-.966,1.482,1.482,0,0,0-.48-.612,1.973,1.973,0,0,0-.7-.318,3.556,3.556,0,0,0-.84-.1.8.8,0,0,0-.528.144.686.686,0,0,0-.216.42,4.266,4.266,0,0,0-.048.708ZM13.356.192a4.521,4.521,0,0,1-1.95-.384,3.6,3.6,0,0,1-1.314-1.026A4.36,4.36,0,0,1,9.348-2.64a5.28,5.28,0,0,1-.24-1.56,4.817,4.817,0,0,1,.258-1.53,4.54,4.54,0,0,1,.78-1.422A3.917,3.917,0,0,1,11.454-8.2a4.045,4.045,0,0,1,1.842-.4,4.237,4.237,0,0,1,1.9.4,3.792,3.792,0,0,1,1.314,1.05,4.7,4.7,0,0,1,.774,1.422A4.763,4.763,0,0,1,17.544-4.2a4.783,4.783,0,0,1-.258,1.518,4.613,4.613,0,0,1-.78,1.428A3.9,3.9,0,0,1,15.2-.2,4.036,4.036,0,0,1,13.356.192Zm.06-.624a2.265,2.265,0,0,0,1.206-.312,2.574,2.574,0,0,0,.84-.834,3.889,3.889,0,0,0,.486-1.152A5.2,5.2,0,0,0,16.1-3.984a6.04,6.04,0,0,0-.18-1.482,4.3,4.3,0,0,0-.546-1.284,2.82,2.82,0,0,0-.906-.9,2.345,2.345,0,0,0-1.248-.33,2.231,2.231,0,0,0-1.212.324,2.612,2.612,0,0,0-.84.846,4.11,4.11,0,0,0-.486,1.152,5.065,5.065,0,0,0-.162,1.266,5.632,5.632,0,0,0,.168,1.32,4.824,4.824,0,0,0,.516,1.3A2.943,2.943,0,0,0,12.1-.8,2.277,2.277,0,0,0,13.416-.432ZM24.228,0V-.528A.993.993,0,0,0,24.8-.7a.682.682,0,0,0,.222-.432,4.588,4.588,0,0,0,.048-.732V-6.852q0-.264.012-.51t.024-.426l-.444.024-.432.024V-8.4H29.94l.072,2.172h-.528a1.963,1.963,0,0,0-.228-1.044,1.1,1.1,0,0,0-.588-.48,2.247,2.247,0,0,0-.78-.108l-.72.024a.823.823,0,0,0-.558.156.736.736,0,0,0-.222.444,4.588,4.588,0,0,0-.048.732V-4.44l1.812.012L28.08-5.472h.66v2.664h-.528a1.43,1.43,0,0,0-.15-.756.629.629,0,0,0-.45-.276,4.119,4.119,0,0,0-.744-.036l-.528.024v2.244q0,.324-.006.582a3.355,3.355,0,0,1-.03.414q.18-.012.39-.018t.414-.018q.2-.012.372-.012V0ZM36.156.192a4.521,4.521,0,0,1-1.95-.384,3.6,3.6,0,0,1-1.314-1.026,4.36,4.36,0,0,1-.744-1.422,5.28,5.28,0,0,1-.24-1.56,4.817,4.817,0,0,1,.258-1.53,4.54,4.54,0,0,1,.78-1.422A3.917,3.917,0,0,1,34.254-8.2a4.045,4.045,0,0,1,1.842-.4,4.237,4.237,0,0,1,1.9.4,3.792,3.792,0,0,1,1.314,1.05,4.7,4.7,0,0,1,.774,1.422A4.763,4.763,0,0,1,40.344-4.2a4.783,4.783,0,0,1-.258,1.518,4.613,4.613,0,0,1-.78,1.428A3.9,3.9,0,0,1,38-.2,4.036,4.036,0,0,1,36.156.192Zm.06-.624a2.265,2.265,0,0,0,1.206-.312,2.574,2.574,0,0,0,.84-.834,3.889,3.889,0,0,0,.486-1.152A5.2,5.2,0,0,0,38.9-3.984a6.04,6.04,0,0,0-.18-1.482,4.3,4.3,0,0,0-.546-1.284,2.82,2.82,0,0,0-.906-.9,2.345,2.345,0,0,0-1.248-.33,2.231,2.231,0,0,0-1.212.324,2.612,2.612,0,0,0-.84.846,4.11,4.11,0,0,0-.486,1.152,5.065,5.065,0,0,0-.162,1.266,5.631,5.631,0,0,0,.168,1.32,4.824,4.824,0,0,0,.516,1.3A2.943,2.943,0,0,0,34.9-.8,2.277,2.277,0,0,0,36.216-.432ZM46.788.192a4.521,4.521,0,0,1-1.95-.384,3.6,3.6,0,0,1-1.314-1.026A4.36,4.36,0,0,1,42.78-2.64a5.28,5.28,0,0,1-.24-1.56A4.817,4.817,0,0,1,42.8-5.73a4.54,4.54,0,0,1,.78-1.422A3.917,3.917,0,0,1,44.886-8.2a4.045,4.045,0,0,1,1.842-.4,4.237,4.237,0,0,1,1.9.4,3.792,3.792,0,0,1,1.314,1.05,4.7,4.7,0,0,1,.774,1.422A4.763,4.763,0,0,1,50.976-4.2a4.783,4.783,0,0,1-.258,1.518,4.613,4.613,0,0,1-.78,1.428,3.9,3.9,0,0,1-1.3,1.05A4.036,4.036,0,0,1,46.788.192Zm.06-.624a2.265,2.265,0,0,0,1.206-.312,2.574,2.574,0,0,0,.84-.834A3.889,3.889,0,0,0,49.38-2.73a5.2,5.2,0,0,0,.156-1.254,6.04,6.04,0,0,0-.18-1.482A4.3,4.3,0,0,0,48.81-6.75a2.82,2.82,0,0,0-.906-.9,2.345,2.345,0,0,0-1.248-.33,2.231,2.231,0,0,0-1.212.324,2.612,2.612,0,0,0-.84.846,4.11,4.11,0,0,0-.486,1.152,5.065,5.065,0,0,0-.162,1.266,5.631,5.631,0,0,0,.168,1.32,4.824,4.824,0,0,0,.516,1.3,2.943,2.943,0,0,0,.894.972A2.277,2.277,0,0,0,46.848-.432ZM53.184,0V-.528a.993.993,0,0,0,.57-.168.682.682,0,0,0,.222-.432,4.588,4.588,0,0,0,.048-.732V-6.852q0-.264.012-.51t.024-.426l-.444.024-.432.024V-8.4h2.952v.528a.919.919,0,0,0-.564.162.689.689,0,0,0-.228.432,4.566,4.566,0,0,0-.048.738v1.92h.888l1.308-2.1q.18-.276.408-.588a3.088,3.088,0,0,1,.432-.492q-.18.012-.378.018t-.354.018V-8.4h2.7v.528a3.107,3.107,0,0,0-.8.144,2.1,2.1,0,0,0-.714.42,3.984,3.984,0,0,0-.732.924l-1.164,1.86a2.144,2.144,0,0,1,.516.432q.2.24.4.492l1.308,1.764a8.047,8.047,0,0,0,.666.8,1.743,1.743,0,0,0,.534.4,1.271,1.271,0,0,0,.5.108V0h-1.6a.581.581,0,0,1-.312-.18,4.439,4.439,0,0,1-.438-.456q-.234-.276-.45-.552L56.664-3.06q-.2-.276-.414-.54a1.571,1.571,0,0,0-.414-.384H55.3v2.376q0,.324-.006.582a3.356,3.356,0,0,1-.03.414q.2-.024.45-.03t.426-.018V0ZM73.32-5.808a4.081,4.081,0,0,0-.156-1.14,1.257,1.257,0,0,0-.474-.684,1.516,1.516,0,0,0-.906-.216H70.92l-.012,6.24q0,.324-.006.582a3.356,3.356,0,0,1-.03.414q.228-.024.5-.03t.486-.018V0H68.808V-.528A.962.962,0,0,0,69.372-.7a.7.7,0,0,0,.216-.438,4.611,4.611,0,0,0,.048-.726V-7.836l-1.008.012a1.2,1.2,0,0,0-1.068.492,2.74,2.74,0,0,0-.336,1.524H66.66L66.732-8.4h7.08l.072,2.592Zm6.768,6a4.521,4.521,0,0,1-1.95-.384,3.6,3.6,0,0,1-1.314-1.026A4.36,4.36,0,0,1,76.08-2.64a5.28,5.28,0,0,1-.24-1.56A4.817,4.817,0,0,1,76.1-5.73a4.54,4.54,0,0,1,.78-1.422A3.917,3.917,0,0,1,78.186-8.2a4.045,4.045,0,0,1,1.842-.4,4.237,4.237,0,0,1,1.9.4,3.792,3.792,0,0,1,1.314,1.05,4.7,4.7,0,0,1,.774,1.422A4.763,4.763,0,0,1,84.276-4.2a4.783,4.783,0,0,1-.258,1.518,4.613,4.613,0,0,1-.78,1.428,3.9,3.9,0,0,1-1.3,1.05A4.036,4.036,0,0,1,80.088.192Zm.06-.624a2.265,2.265,0,0,0,1.206-.312,2.574,2.574,0,0,0,.84-.834A3.888,3.888,0,0,0,82.68-2.73a5.2,5.2,0,0,0,.156-1.254,6.039,6.039,0,0,0-.18-1.482A4.3,4.3,0,0,0,82.11-6.75a2.82,2.82,0,0,0-.906-.9,2.345,2.345,0,0,0-1.248-.33,2.231,2.231,0,0,0-1.212.324,2.612,2.612,0,0,0-.84.846,4.11,4.11,0,0,0-.486,1.152,5.065,5.065,0,0,0-.162,1.266,5.632,5.632,0,0,0,.168,1.32,4.824,4.824,0,0,0,.516,1.3,2.943,2.943,0,0,0,.894.972A2.277,2.277,0,0,0,80.148-.432Zm12.84.6L88.524-5.76q-.132-.156-.252-.324t-.252-.348h-.012l.036,4.668q0,.3-.006.6t-.03.552q.2-.024.45-.03t.426-.018V0H86.508V-.528a.834.834,0,0,0,.51-.132.671.671,0,0,0,.24-.348,1.73,1.73,0,0,0,.066-.5V-7.368q0-.24.012-.42l-.426.024q-.234.012-.414.024V-8.4H88.08L92.3-2.844q.2.264.366.492t.318.432H93l.012-4.932q0-.264.012-.51t.024-.426l-.456.024q-.24.012-.42.024V-8.4h2.376v.528a.891.891,0,0,0-.558.162.678.678,0,0,0-.216.432,5.208,5.208,0,0,0-.042.738L93.72.168Zm7.764.024A4.254,4.254,0,0,1,98.6-.336a3.616,3.616,0,0,1-1.428-1.482,4.7,4.7,0,0,1-.5-2.226,5.349,5.349,0,0,1,.258-1.644,4.613,4.613,0,0,1,.78-1.464A3.79,3.79,0,0,1,99.018-8.2a4.068,4.068,0,0,1,1.83-.39,5.039,5.039,0,0,1,.828.072,5.145,5.145,0,0,1,.846.216,3.925,3.925,0,0,1,.75.348l-.048-.552h.744v2.76h-.552a2.475,2.475,0,0,0-.4-1.218,2.218,2.218,0,0,0-.876-.756,2.681,2.681,0,0,0-1.182-.258A2.4,2.4,0,0,0,99.8-7.7a2.848,2.848,0,0,0-.906.78,3.706,3.706,0,0,0-.594,1.17,4.8,4.8,0,0,0-.21,1.44,4.96,4.96,0,0,0,.366,1.962A3.169,3.169,0,0,0,99.492-1a2.589,2.589,0,0,0,1.572.492,4.062,4.062,0,0,0,.63-.054,4.264,4.264,0,0,0,.684-.168A2.672,2.672,0,0,0,103-1.02V-2.364q0-.3.006-.594t.006-.546l-.432.024q-.24.012-.42.024v-.66h2.868v.528a.745.745,0,0,0-.462.132.755.755,0,0,0-.252.33,1.613,1.613,0,0,0-.1.42,3.867,3.867,0,0,0-.024.414V-.42h-.312a2.646,2.646,0,0,0-.588.078,6.283,6.283,0,0,0-.756.234,5.281,5.281,0,0,1-.852.216A5.361,5.361,0,0,1,100.752.192Z" transform="translate(768 1162)" fill="#fff"/></g></svg>